<svg xmlns="http://www.w3.org/2000/svg" xmlns:xlink="http://www.w3.org/1999/xlink" width="536" height="344" viewBox="0 0 536 344">
  <defs>
    <filter id="Rectangle_300539" x="0" y="0" width="536" height="344" filterUnits="userSpaceOnUse">
      <feOffset dy="3" input="SourceAlpha"/>
      <feGaussianBlur stdDeviation="3" result="blur"/>
      <feFlood flood-opacity="0.161"/>
      <feComposite operator="in" in2="blur"/>
      <feComposite in="SourceGraphic"/>
    </filter>
  </defs>
  <g id="tema1-img-04" transform="translate(-846 -2761.413)">
    <g id="tema1-img-04-2" data-name="tema1-img-04" transform="translate(590.334 189.413)">
      <g transform="matrix(1, 0, 0, 1, 255.67, 2572)" filter="url(#Rectangle_300539)">
        <rect id="Rectangle_300539-2" data-name="Rectangle 300539" width="518" height="326" rx="20" transform="translate(9 6)" fill="#fff"/>
      </g>
    </g>
    <g id="Group_897740" data-name="Group 897740" transform="translate(7471 11530.413)">
      <path id="Union_15" data-name="Union 15" d="M0,55.111V0H66.948L88.994,27.555,66.948,55.111Z" transform="translate(-6611 -8627.771)" fill="#21cbae" stroke="rgba(0,0,0,0)" stroke-miterlimit="10" stroke-width="1"/>
      <path id="Union_13" data-name="Union 13" d="M0,55.111V0H73.193L95.24,27.555,73.194,55.111Z" transform="translate(-6311 -8628)" fill="#0b5999" stroke="rgba(0,0,0,0)" stroke-miterlimit="10" stroke-width="1"/>
      <path id="Path_622670" data-name="Path 622670" d="M1278.8,1347.921a.882.882,0,0,0-.875-.966.972.972,0,0,0-.932,1.088,2.154,2.154,0,0,0,.566,1.352C1278.309,1348.962,1278.8,1348.563,1278.8,1347.921Z" transform="translate(-7827.281 -9957.158)" fill="#21cbae"/>
      <path id="Path_622671" data-name="Path 622671" d="M3058.034,1945.14a4.28,4.28,0,0,0-.677.675l1.764,2.08.752-.636a1.468,1.468,0,0,0,.367-2.171C3059.618,1944.352,3058.813,1944.482,3058.034,1945.14Z" transform="translate(-9437 -10497.509)" fill="#f7941e"/>
      <path id="Path_622672" data-name="Path 622672" d="M2844.907,738.483c.28-.921-.262-1.529-1.239-1.83a4.241,4.241,0,0,0-.937-.2l-.8,2.608.943.291A1.473,1.473,0,0,0,2844.907,738.483Z" transform="translate(-9242.225 -9405.171)" fill="#f15a29"/>
      <path id="Path_622673" data-name="Path 622673" d="M1270.206,1384.352a2.08,2.08,0,0,0,1.53-.677c-.443-.488-1.275-1.4-2.106-2.36a1.835,1.835,0,0,0-.965,1.529A1.477,1.477,0,0,0,1270.206,1384.352Z" transform="translate(-7819.754 -9988.225)" fill="#21cbae"/>
      <path id="Path_622674" data-name="Path 622674" d="M936.88,1350.306h-.021c-.111.433-.223.9-.377,1.354l-.732,2.161h2.262l-.743-2.151C937.1,1351.182,936.991,1350.739,936.88,1350.306Z" transform="translate(-7518.75 -9960.188)" fill="#21cbae"/>
      <path id="Path_622675" data-name="Path 622675" d="M1061.1,1487.68a5.36,5.36,0,0,0-1.13.1v5.907a7.727,7.727,0,0,0,.975.045,2.868,2.868,0,0,0,3.183-3.171C1064.141,1488.8,1063.145,1487.68,1061.1,1487.68Z" transform="translate(-7631.066 -10084.396)" fill="#21cbae"/>
      <path id="Path_622676" data-name="Path 622676" d="M2058.56,1817.858c-.927-1.313-2.606-1.11-3.94-.169-1.317.927-1.986,2.46-1.106,3.712s2.537,1.147,3.924.171C2058.664,1820.706,2059.487,1819.177,2058.56,1817.858Z" transform="translate(-8529.015 -10382.085)" fill="#fecb2f"/>
      <path id="Path_622677" data-name="Path 622677" d="M2121.844,1871.4l-2.189,1.913a3.218,3.218,0,0,0,.468.655,1.6,1.6,0,0,0,2.429.368c.752-.657.645-1.509-.051-2.3A4.027,4.027,0,0,0,2121.844,1871.4Z" transform="translate(-8589.176 -10431.337)" fill="#fecb2f"/>
      <path id="Path_622679" data-name="Path 622679" d="M1937.457,1539.735c1.74-.266,2.689-1.427,2.368-3.442a5.509,5.509,0,0,0-.276-1.1l-5.839.931a8.161,8.161,0,0,0,.11.972A2.868,2.868,0,0,0,1937.457,1539.735Z" transform="translate(-8421.055 -10127.351)" fill="#fecb2f"/>
      <path id="Path_622680" data-name="Path 622680" d="M5364.641,1417.668c-1.606,0-2.4,1.486-2.4,3.116,0,1.606.864,3.037,2.395,3.037s2.4-1.409,2.4-3.1C5367.026,1419.221,5366.249,1417.668,5364.641,1417.668Z" transform="translate(-11520.956 -10021.094)" fill="#ef3c79"/>
      <path id="Path_622681" data-name="Path 622681" d="M5446.922,1418.261a4.032,4.032,0,0,0-.909.077v2.9a3.134,3.134,0,0,0,.8.079c1.165,0,1.875-.578,1.875-1.586S5447.975,1418.261,5446.922,1418.261Z" transform="translate(-11596.703 -10021.63)" fill="#ef3c79"/>
      <path id="Union_14" data-name="Union 14" d="M0,55.111V0H73.193L95.239,27.555,73.193,55.111Z" transform="translate(-6198 -8628)" fill="#ef3c79" stroke="rgba(0,0,0,0)" stroke-miterlimit="10" stroke-width="1"/>
      <path id="Union_12" data-name="Union 12" d="M26.3,103.784A89.6,89.6,0,0,1,0,40.339v-.081A89.544,89.544,0,0,1,8.721,1.725L37.337,0l9.888,22.651A45.943,45.943,0,0,0,57.177,72.9l0,0A45.824,45.824,0,0,0,84.3,86L70.951,102.79h0a3.9,3.9,0,0,0-.277,4.458l13.75,22.538A89.516,89.516,0,0,1,26.3,103.784Z" transform="translate(-6508.879 -8640.513)" fill="#fecb2f" stroke="rgba(0,0,0,0)" stroke-miterlimit="10" stroke-width="1"/>
      <path id="Path_622684" data-name="Path 622684" d="M2906.4,766.543c.034-.514.1-.968.166-1.409l-.02-.008c-.27.356-.551.742-.868,1.1l-1.509,1.716,2.087.87Z" transform="translate(-9298.498 -9431.098)" fill="#f15a29"/>
      <path id="Path_622685" data-name="Path 622685" d="M2329.523,768.341a5.313,5.313,0,0,0-1,.547l2.37,5.414a8.439,8.439,0,0,0,.911-.35,2.872,2.872,0,0,0,1.646-4.184C2332.754,768.148,2331.391,767.524,2329.523,768.341Z" transform="translate(-8778.026 -9433.681)" fill="#f15a29"/>
      <path id="Path_622686" data-name="Path 622686" d="M2563.381,708.34c-1.6.13-2.278,1.677-2.147,3.3.128,1.6,1.1,2.958,2.63,2.834s2.275-1.594,2.14-3.285C2565.882,709.7,2564.985,708.214,2563.381,708.34Z" transform="translate(-8988.416 -9379.748)" fill="#f15a29"/>
      <path id="Union_10" data-name="Union 10" d="M114.782,64.058a46.324,46.324,0,0,0-14.45-13.84,45.787,45.787,0,0,0-61.5,13.332L30.241,43.87l-.954.416.954-.416a3.9,3.9,0,0,0-3.573-2.341l-.238.007L0,43.13A89.424,89.424,0,0,1,76.588,0h.083a89.5,89.5,0,0,1,76.89,43.6L139.2,68.355Z" transform="translate(-6496 -8690)" fill="#f15a29" stroke="rgba(0,0,0,0)" stroke-miterlimit="10" stroke-width="1"/>
      <path id="Path_622688" data-name="Path 622688" d="M724.1,1490.135c0-1.508-.776-3.049-2.361-3.049-1.629,0-2.427,1.508-2.427,3.127,0,1.6.865,3.027,2.395,3.027S724.1,1491.831,724.1,1490.135Z" transform="translate(-7323.053 -10083.858)" fill="#21cbae"/>
      <path id="Path_622689" data-name="Path 622689" d="M5060.771,1418.261a5.369,5.369,0,0,0-1.13.1v5.908a7.749,7.749,0,0,0,.976.045,2.868,2.868,0,0,0,3.182-3.171C5063.808,1419.379,5062.81,1418.261,5060.771,1418.261Z" transform="translate(-11247.363 -10021.63)" fill="#ef3c79"/>
      <path id="Union_11" data-name="Union 11" d="M0,103.3l15.39-19.36A45.837,45.837,0,0,0,43.636,70.694l0,0a45.875,45.875,0,0,0,13.5-32.6A45.509,45.509,0,0,0,53.835,21.1l21.1,3.712a4.01,4.01,0,0,0,.676.059,3.905,3.905,0,0,0,3.375-1.944l-.9-.522.9.522L92.282,0a89.44,89.44,0,0,1,8.532,38.05v.08a89.566,89.566,0,0,1-85.947,89.54Z" transform="translate(-6430 -8638)" fill="#f7941e" stroke="rgba(0,0,0,0)" stroke-miterlimit="10" stroke-width="1"/>
      <path id="Path_622691" data-name="Path 622691" d="M789.92,1350.306H789.9c-.111.433-.223.9-.377,1.354l-.732,2.161h2.262l-.743-2.151C790.143,1351.182,790.031,1350.739,789.92,1350.306Z" transform="translate(-7385.875 -9960.188)" fill="#21cbae"/>
      <path id="Path_624833" data-name="Path 624833" d="M90.329,10.914H87.7L87.239,12.4H85.187l2.921-7.964h1.805L92.856,12.4H90.794ZM88.158,9.432H89.87l-.859-2.762Zm6.624-2.948.06.695a2.007,2.007,0,0,1,1.69-.8,1.689,1.689,0,0,1,1.381.552,2.63,2.63,0,0,1,.473,1.663V12.4H96.538V8.666a1,1,0,0,0-.181-.659A.835.835,0,0,0,95.7,7.8a.879.879,0,0,0-.8.427V12.4H93.053V6.483Zm7.959,5.919a2.081,2.081,0,0,1-.175-.531,1.714,1.714,0,0,1-1.422.64,2.1,2.1,0,0,1-1.422-.506,1.61,1.61,0,0,1-.585-1.272,1.655,1.655,0,0,1,.711-1.455,3.623,3.623,0,0,1,2.068-.492h.569V8.473q0-.819-.706-.819a.577.577,0,0,0-.656.649H99.278a1.652,1.652,0,0,1,.73-1.393,3.069,3.069,0,0,1,1.863-.535,2.691,2.691,0,0,1,1.789.552,1.921,1.921,0,0,1,.673,1.515v2.62a2.683,2.683,0,0,0,.252,1.247V12.4Zm-1.154-1.2a1.028,1.028,0,0,0,.572-.148.926.926,0,0,0,.325-.334V9.771h-.536q-.963,0-.963.864a.528.528,0,0,0,.17.408A.614.614,0,0,0,101.586,11.2Zm.459-7.2h1.947l-1.521,1.718-1.5,0Zm5.251,8.4h-1.849V4H107.3Zm3.08,0h-1.849V6.483h1.849Zm-1.958-7.445a.823.823,0,0,1,.284-.645,1.209,1.209,0,0,1,1.477,0,.875.875,0,0,1,0,1.291,1.209,1.209,0,0,1-1.477,0A.823.823,0,0,1,108.418,4.957Zm6.192,5.782a.426.426,0,0,0-.246-.377,3.744,3.744,0,0,0-.935-.3,4.265,4.265,0,0,1-1.138-.4,1.906,1.906,0,0,1-.684-.6,1.443,1.443,0,0,1-.235-.815,1.636,1.636,0,0,1,.673-1.343,2.771,2.771,0,0,1,1.761-.528,3.071,3.071,0,0,1,1.882.531A1.659,1.659,0,0,1,116.4,8.3H114.55q0-.711-.749-.711a.743.743,0,0,0-.487.161.5.5,0,0,0-.2.4.459.459,0,0,0,.241.4,2.274,2.274,0,0,0,.769.252,6.641,6.641,0,0,1,.927.235,1.684,1.684,0,0,1,1.335,1.646A1.55,1.55,0,0,1,115.669,12a3.154,3.154,0,0,1-1.863.509,3.219,3.219,0,0,1-1.357-.273,2.268,2.268,0,0,1-.93-.744,1.685,1.685,0,0,1-.334-.99h1.723a.712.712,0,0,0,.273.6,1.125,1.125,0,0,0,.673.189.885.885,0,0,0,.566-.153A.49.49,0,0,0,114.61,10.739Zm4.584,1.663h-1.849V6.483h1.849Zm-1.958-7.445a.823.823,0,0,1,.284-.645,1.209,1.209,0,0,1,1.477,0A.875.875,0,0,1,119,5.6a1.209,1.209,0,0,1-1.477,0A.823.823,0,0,1,117.236,4.957Zm6.192,5.782a.426.426,0,0,0-.246-.377,3.744,3.744,0,0,0-.935-.3,4.265,4.265,0,0,1-1.138-.4,1.906,1.906,0,0,1-.684-.6,1.443,1.443,0,0,1-.235-.815,1.636,1.636,0,0,1,.673-1.343,2.771,2.771,0,0,1,1.761-.528,3.071,3.071,0,0,1,1.882.531,1.659,1.659,0,0,1,.711,1.395h-1.849q0-.711-.749-.711a.743.743,0,0,0-.487.161.5.5,0,0,0-.2.4.459.459,0,0,0,.241.4,2.274,2.274,0,0,0,.769.252,6.641,6.641,0,0,1,.927.235,1.684,1.684,0,0,1,1.335,1.646A1.55,1.55,0,0,1,124.486,12a3.154,3.154,0,0,1-1.863.509,3.219,3.219,0,0,1-1.357-.273,2.268,2.268,0,0,1-.93-.744A1.685,1.685,0,0,1,120,10.5h1.723a.712.712,0,0,0,.273.6,1.125,1.125,0,0,0,.673.189.885.885,0,0,0,.566-.153A.49.49,0,0,0,123.428,10.739Zm7.795-.919.985-3.337h1.975l-2.412,6.909-.1.252a1.833,1.833,0,0,1-1.816,1.149,2.889,2.889,0,0,1-.76-.109V13.37h.241a1.261,1.261,0,0,0,.593-.112.681.681,0,0,0,.3-.4l.148-.394-2.057-5.978h1.969Zm-56.97,14.7a3.615,3.615,0,0,1,.607-2.215,2,2,0,0,1,1.7-.81,1.7,1.7,0,0,1,1.335.624v-3h1.849v8.4H78.082l-.093-.635a1.745,1.745,0,0,1-1.444.744,2,2,0,0,1-1.674-.81A3.73,3.73,0,0,1,74.253,24.522Zm1.843.115q0,1.575.919,1.575a.907.907,0,0,0,.875-.514V23.445a.883.883,0,0,0-.864-.525q-.853,0-.924,1.378Zm6.635,2.888H80.883V21.607h1.849Zm-1.958-7.445a.823.823,0,0,1,.284-.645,1.209,1.209,0,0,1,1.477,0,.875.875,0,0,1,0,1.291,1.209,1.209,0,0,1-1.477,0A.823.823,0,0,1,80.773,20.081Zm6.192,5.782a.426.426,0,0,0-.246-.377,3.744,3.744,0,0,0-.935-.3,4.265,4.265,0,0,1-1.138-.4,1.906,1.906,0,0,1-.684-.6,1.443,1.443,0,0,1-.235-.815,1.636,1.636,0,0,1,.673-1.343,2.771,2.771,0,0,1,1.761-.528,3.071,3.071,0,0,1,1.882.531,1.659,1.659,0,0,1,.711,1.395H86.9q0-.711-.749-.711a.743.743,0,0,0-.487.161.5.5,0,0,0-.2.4.459.459,0,0,0,.241.4,2.274,2.274,0,0,0,.769.252,6.641,6.641,0,0,1,.927.235,1.684,1.684,0,0,1,1.335,1.646,1.55,1.55,0,0,1-.719,1.318,3.154,3.154,0,0,1-1.863.509,3.219,3.219,0,0,1-1.357-.273,2.268,2.268,0,0,1-.93-.744,1.685,1.685,0,0,1-.334-.99h1.723a.712.712,0,0,0,.273.6,1.125,1.125,0,0,0,.673.189.885.885,0,0,0,.566-.153A.49.49,0,0,0,86.965,25.862Zm5.5,1.772a3.042,3.042,0,0,1-2.2-.812,2.805,2.805,0,0,1-.842-2.114v-.153a3.635,3.635,0,0,1,.336-1.6,2.462,2.462,0,0,1,.982-1.075,2.964,2.964,0,0,1,1.532-.38,2.562,2.562,0,0,1,1.969.774,3.042,3.042,0,0,1,.722,2.158v.717H91.3a1.329,1.329,0,0,0,.432.782,1.286,1.286,0,0,0,.864.284,1.657,1.657,0,0,0,1.367-.613l.842,1a2.355,2.355,0,0,1-.976.758A3.3,3.3,0,0,1,92.468,27.635ZM92.26,22.92q-.81,0-.963,1.072h1.86v-.142a.913.913,0,0,0-.224-.686A.892.892,0,0,0,92.26,22.92ZM97.4,21.607l.06.695a2.007,2.007,0,0,1,1.69-.8,1.689,1.689,0,0,1,1.381.552A2.63,2.63,0,0,1,101,23.713v3.813H99.152V23.789a1,1,0,0,0-.181-.659.835.835,0,0,0-.656-.211.879.879,0,0,0-.8.427v4.179H95.668V21.607Zm3.058-2.44a1.6,1.6,0,0,1-.364,1.058,1.128,1.128,0,0,1-.9.435,1.775,1.775,0,0,1-.8-.23,1.677,1.677,0,0,0-.717-.23.411.411,0,0,0-.3.12.5.5,0,0,0-.123.372l-1.023-.055a1.6,1.6,0,0,1,.364-1.05,1.116,1.116,0,0,1,.894-.443,1.846,1.846,0,0,1,.717.2,4.4,4.4,0,0,0,.561.23,1.083,1.083,0,0,0,.249.028.418.418,0,0,0,.3-.122.5.5,0,0,0,.126-.376Zm1.335,5.344a3.493,3.493,0,0,1,.345-1.578,2.464,2.464,0,0,1,.99-1.064,2.982,2.982,0,0,1,1.515-.372,2.721,2.721,0,0,1,2.1.823,3.159,3.159,0,0,1,.766,2.24v.066a3.065,3.065,0,0,1-.769,2.2,2.729,2.729,0,0,1-2.081.812,2.76,2.76,0,0,1-2.029-.758,2.963,2.963,0,0,1-.826-2.054Zm1.843.115a2.2,2.2,0,0,0,.257,1.2.856.856,0,0,0,.76.383q.985,0,1.006-1.515v-.186q0-1.592-1.017-1.592-.924,0-1,1.373Zm11.049-1.351-.607-.044a1.091,1.091,0,0,0-1.116.547v3.747h-1.843V21.607h1.729l.06.76a1.427,1.427,0,0,1,1.3-.87,1.8,1.8,0,0,1,.514.066Zm3.834,4.25a2.081,2.081,0,0,1-.175-.531,1.714,1.714,0,0,1-1.422.64,2.1,2.1,0,0,1-1.422-.506,1.611,1.611,0,0,1-.585-1.272,1.655,1.655,0,0,1,.711-1.455,3.623,3.623,0,0,1,2.068-.492h.569V23.6q0-.819-.706-.819a.577.577,0,0,0-.656.649h-1.843a1.652,1.652,0,0,1,.73-1.393,3.069,3.069,0,0,1,1.863-.535,2.691,2.691,0,0,1,1.789.552,1.921,1.921,0,0,1,.673,1.515v2.62a2.683,2.683,0,0,0,.252,1.247v.093Zm-1.154-1.2a1.028,1.028,0,0,0,.572-.148.926.926,0,0,0,.325-.334v-.946h-.536q-.963,0-.963.864a.528.528,0,0,0,.17.408A.614.614,0,0,0,117.362,26.322Zm.459-7.2h1.947l-1.521,1.718-1.5,0Zm8.8,5.486a3.569,3.569,0,0,1-.621,2.2,1.991,1.991,0,0,1-1.677.823,1.706,1.706,0,0,1-1.34-.6V29.8h-1.843V21.607h1.723l.055.547a1.706,1.706,0,0,1,1.395-.656,2.007,2.007,0,0,1,1.7.807,3.613,3.613,0,0,1,.607,2.218Zm-1.843-.115q0-1.575-.919-1.575a.868.868,0,0,0-.875.47v2.33a.9.9,0,0,0,.886.492q.881,0,.908-1.521Zm4.6,3.03H127.53V21.607h1.849Zm-1.958-7.445a.823.823,0,0,1,.284-.645,1.209,1.209,0,0,1,1.477,0,.875.875,0,0,1,0,1.291,1.209,1.209,0,0,1-1.477,0A.823.823,0,0,1,127.421,20.081Zm2.861,4.442a3.615,3.615,0,0,1,.607-2.215,2,2,0,0,1,1.7-.81,1.7,1.7,0,0,1,1.335.624v-3h1.849v8.4h-1.657l-.093-.635a1.745,1.745,0,0,1-1.444.744,2,2,0,0,1-1.674-.81A3.73,3.73,0,0,1,130.282,24.522Zm1.843.115q0,1.575.919,1.575a.907.907,0,0,0,.875-.514V23.445a.883.883,0,0,0-.864-.525q-.853,0-.924,1.378Zm4.458-.126a3.493,3.493,0,0,1,.345-1.578,2.464,2.464,0,0,1,.99-1.064,2.982,2.982,0,0,1,1.515-.372,2.721,2.721,0,0,1,2.1.823,3.159,3.159,0,0,1,.766,2.24v.066a3.065,3.065,0,0,1-.769,2.2,2.729,2.729,0,0,1-2.081.812,2.76,2.76,0,0,1-2.029-.758,2.963,2.963,0,0,1-.826-2.054Zm1.843.115a2.2,2.2,0,0,0,.257,1.2.856.856,0,0,0,.76.383q.985,0,1.006-1.515v-.186q0-1.592-1.017-1.592-.924,0-1,1.373Z" transform="translate(-6679.366 -8617.354)" fill="#fff"/>
      <path id="Path_624835" data-name="Path 624835" d="M99.847,11.251a3.7,3.7,0,0,1-.57,1.867,3.441,3.441,0,0,1-1.463,1.255,4.981,4.981,0,0,1-2.152.445,3.975,3.975,0,0,1-3.142-1.3,5.368,5.368,0,0,1-1.147-3.671v-.5a6.127,6.127,0,0,1,.518-2.6,3.925,3.925,0,0,1,1.491-1.724,4.161,4.161,0,0,1,2.253-.608,4.363,4.363,0,0,1,2.962.97,3.832,3.832,0,0,1,1.272,2.673H97.435a1.813,1.813,0,0,0-.466-1.328,1.916,1.916,0,0,0-1.335-.4A1.458,1.458,0,0,0,94.3,7a4.379,4.379,0,0,0-.445,2.176V9.9a4.845,4.845,0,0,0,.407,2.315,1.488,1.488,0,0,0,1.4.7,1.874,1.874,0,0,0,1.286-.4,1.682,1.682,0,0,0,.473-1.258Zm3.518,3.428h-2.35V7.156h2.35Zm-2.489-9.462a1.046,1.046,0,0,1,.362-.82,1.537,1.537,0,0,1,1.877,0,1.046,1.046,0,0,1,.362.82,1.046,1.046,0,0,1-.362.82,1.537,1.537,0,0,1-1.877,0A1.046,1.046,0,0,1,100.876,5.217Zm7.112,7.794a1.042,1.042,0,0,0,.765-.268.982.982,0,0,0,.264-.747h2.2a2.6,2.6,0,0,1-.886,2.03,3.3,3.3,0,0,1-2.284.793,3.338,3.338,0,0,1-2.586-1.029,4.054,4.054,0,0,1-.946-2.85v-.1a4.582,4.582,0,0,1,.421-2.013,3.062,3.062,0,0,1,1.213-1.342,3.617,3.617,0,0,1,1.877-.469,3.256,3.256,0,0,1,2.329.813,2.885,2.885,0,0,1,.862,2.2h-2.2a1.286,1.286,0,0,0-.285-.9.984.984,0,0,0-.765-.313q-.911,0-1.064,1.161A8.194,8.194,0,0,0,106.855,11a3.218,3.218,0,0,0,.271,1.571A.939.939,0,0,0,107.988,13.01Zm6.688,1.669h-2.35V4h2.35Zm1.147-3.831a4.44,4.44,0,0,1,.438-2.006A3.132,3.132,0,0,1,117.52,7.49a3.79,3.79,0,0,1,1.926-.473,3.459,3.459,0,0,1,2.663,1.046,4.015,4.015,0,0,1,.973,2.847v.083a3.9,3.9,0,0,1-.977,2.791,3.468,3.468,0,0,1-2.645,1.032,3.508,3.508,0,0,1-2.579-.963,3.766,3.766,0,0,1-1.05-2.611Zm2.343.146a2.8,2.8,0,0,0,.327,1.53,1.089,1.089,0,0,0,.966.487q1.251,0,1.279-1.926v-.236q0-2.023-1.293-2.023-1.175,0-1.272,1.745Zm9.886,1.571a.541.541,0,0,0-.313-.48,4.759,4.759,0,0,0-1.189-.375A5.421,5.421,0,0,1,125.1,11.2a2.422,2.422,0,0,1-.869-.768,1.834,1.834,0,0,1-.3-1.036,2.079,2.079,0,0,1,.855-1.707,3.523,3.523,0,0,1,2.239-.671,3.9,3.9,0,0,1,2.392.674,2.109,2.109,0,0,1,.9,1.773h-2.35q0-.9-.952-.9a.944.944,0,0,0-.619.205.635.635,0,0,0-.25.511.583.583,0,0,0,.306.508,2.89,2.89,0,0,0,.977.32,8.441,8.441,0,0,1,1.178.3,2.141,2.141,0,0,1,1.7,2.093,1.97,1.97,0,0,1-.914,1.676,4.009,4.009,0,0,1-2.367.647,4.091,4.091,0,0,1-1.724-.348,2.883,2.883,0,0,1-1.182-.946,2.141,2.141,0,0,1-.424-1.258h2.19a.905.905,0,0,0,.348.761,1.43,1.43,0,0,0,.855.24,1.125,1.125,0,0,0,.72-.195A.623.623,0,0,0,128.053,12.565Zm6.6-1.7a4.6,4.6,0,0,1,.772-2.816,2.54,2.54,0,0,1,2.155-1.029,2.16,2.16,0,0,1,1.7.793V4h2.35V14.679h-2.107l-.118-.806a2.219,2.219,0,0,1-1.835.946,2.536,2.536,0,0,1-2.127-1.029A4.741,4.741,0,0,1,134.658,10.862Zm2.343.146q0,2,1.168,2a1.153,1.153,0,0,0,1.112-.654V9.492a1.122,1.122,0,0,0-1.1-.667q-1.085,0-1.175,1.752Zm9.6,3.81a3.867,3.867,0,0,1-2.8-1.032,3.565,3.565,0,0,1-1.071-2.687V10.9a4.62,4.62,0,0,1,.428-2.037A3.129,3.129,0,0,1,144.4,7.5a3.767,3.767,0,0,1,1.947-.483,3.256,3.256,0,0,1,2.5.984,3.866,3.866,0,0,1,.918,2.743v.911h-4.658a1.689,1.689,0,0,0,.549.994,1.634,1.634,0,0,0,1.1.362,2.106,2.106,0,0,0,1.738-.779L149.57,13.5a2.993,2.993,0,0,1-1.241.963A4.194,4.194,0,0,1,146.6,14.818Zm-.264-5.993q-1.029,0-1.224,1.363h2.364v-.181a1.161,1.161,0,0,0-.285-.873A1.134,1.134,0,0,0,146.337,8.825Zm6.848,5.854h-2.35V4h2.35ZM100.751,30.2a4.536,4.536,0,0,1-.789,2.8,2.53,2.53,0,0,1-2.131,1.046,2.169,2.169,0,0,1-1.7-.758v3.511H93.785V26.378h2.19l.07.7a2.169,2.169,0,0,1,1.773-.834,2.55,2.55,0,0,1,2.162,1.025,4.592,4.592,0,0,1,.772,2.819Zm-2.343-.146q0-2-1.168-2a1.1,1.1,0,0,0-1.112.6v2.962a1.139,1.139,0,0,0,1.126.626q1.119,0,1.154-1.933Zm7.926-1.55-.772-.056a1.386,1.386,0,0,0-1.418.7V33.9H101.8V26.378H104l.076.966a1.814,1.814,0,0,1,1.648-1.105,2.285,2.285,0,0,1,.654.083Zm.3,1.571a4.44,4.44,0,0,1,.438-2.006,3.132,3.132,0,0,1,1.258-1.352,3.79,3.79,0,0,1,1.926-.473,3.459,3.459,0,0,1,2.663,1.046,4.015,4.015,0,0,1,.973,2.847v.083a3.9,3.9,0,0,1-.977,2.791,3.468,3.468,0,0,1-2.645,1.032,3.508,3.508,0,0,1-2.579-.963,3.766,3.766,0,0,1-1.05-2.611Zm2.343.146a2.8,2.8,0,0,0,.327,1.53,1.089,1.089,0,0,0,.966.487q1.251,0,1.279-1.926V30.07q0-2.023-1.293-2.023-1.175,0-1.272,1.745Zm8.677-5.708v1.87h1.238v1.627h-1.238v3.441a.879.879,0,0,0,.153.591.82.82,0,0,0,.6.167,3.437,3.437,0,0,0,.584-.042v1.676a4.324,4.324,0,0,1-1.321.2,2.454,2.454,0,0,1-1.787-.57,2.337,2.337,0,0,1-.577-1.731V28.005h-.959V26.378h.959v-1.87Zm1.655,5.562a4.44,4.44,0,0,1,.438-2.006A3.132,3.132,0,0,1,121,26.712a3.79,3.79,0,0,1,1.926-.473,3.459,3.459,0,0,1,2.663,1.046,4.015,4.015,0,0,1,.973,2.847v.083a3.9,3.9,0,0,1-.977,2.791,3.468,3.468,0,0,1-2.645,1.032,3.508,3.508,0,0,1-2.579-.963,3.766,3.766,0,0,1-1.05-2.611Zm2.343.146a2.8,2.8,0,0,0,.327,1.53,1.089,1.089,0,0,0,.966.487q1.251,0,1.279-1.926V30.07q0-2.023-1.293-2.023-1.175,0-1.272,1.745Zm8.677-5.708v1.87h1.238v1.627h-1.238v3.441a.879.879,0,0,0,.153.591.82.82,0,0,0,.6.167,3.437,3.437,0,0,0,.584-.042v1.676a4.324,4.324,0,0,1-1.321.2,2.454,2.454,0,0,1-1.787-.57,2.337,2.337,0,0,1-.577-1.731V28.005h-.959V26.378h.959v-1.87Zm4.63,9.393h-2.35V26.378h2.35Zm-2.489-9.462a1.046,1.046,0,0,1,.362-.82,1.537,1.537,0,0,1,1.877,0,1.112,1.112,0,0,1,0,1.641,1.537,1.537,0,0,1-1.877,0A1.046,1.046,0,0,1,132.467,24.439ZM143.383,30.2a4.536,4.536,0,0,1-.789,2.8,2.53,2.53,0,0,1-2.131,1.046,2.169,2.169,0,0,1-1.7-.758v3.511h-2.343V26.378h2.19l.07.7a2.169,2.169,0,0,1,1.773-.834,2.55,2.55,0,0,1,2.162,1.025,4.592,4.592,0,0,1,.772,2.819Zm-2.343-.146q0-2-1.168-2a1.1,1.1,0,0,0-1.112.6v2.962a1.139,1.139,0,0,0,1.126.626q1.119,0,1.154-1.933Zm3.08.021a4.44,4.44,0,0,1,.438-2.006,3.132,3.132,0,0,1,1.258-1.352,3.79,3.79,0,0,1,1.926-.473,3.459,3.459,0,0,1,2.663,1.046,4.015,4.015,0,0,1,.973,2.847v.083a3.9,3.9,0,0,1-.977,2.791,3.468,3.468,0,0,1-2.645,1.032,3.508,3.508,0,0,1-2.579-.963,3.766,3.766,0,0,1-1.05-2.611Zm2.343.146a2.8,2.8,0,0,0,.327,1.53,1.089,1.089,0,0,0,.966.487q1.251,0,1.279-1.926V30.07q0-2.023-1.293-2.023-1.175,0-1.272,1.745Z" transform="translate(-6541.372 -8621)" fill="#f15a29"/>
      <path id="Path_624836" data-name="Path 624836" d="M88.643,14.777v-10h3.22a4.736,4.736,0,0,1,2.382.6,4.222,4.222,0,0,1,1.651,1.7,5.12,5.12,0,0,1,.6,2.454v.46a5.149,5.149,0,0,1-.58,2.461,4.24,4.24,0,0,1-1.634,1.7,4.632,4.632,0,0,1-2.351.621Zm2.41-8.135v6.282h.838a1.874,1.874,0,0,0,1.593-.738,3.617,3.617,0,0,0,.556-2.193V9.559a3.587,3.587,0,0,0-.556-2.183,1.907,1.907,0,0,0-1.62-.735Zm10.167,8.272a3.818,3.818,0,0,1-2.767-1.019A3.52,3.52,0,0,1,97.4,11.241v-.192a4.562,4.562,0,0,1,.422-2.011A3.089,3.089,0,0,1,99.05,7.689a3.72,3.72,0,0,1,1.922-.477,3.215,3.215,0,0,1,2.471.971,3.817,3.817,0,0,1,.906,2.708v.9h-4.6a1.668,1.668,0,0,0,.542.982,1.614,1.614,0,0,0,1.085.357,2.079,2.079,0,0,0,1.716-.769l1.057,1.249a2.955,2.955,0,0,1-1.225.951A4.141,4.141,0,0,1,101.219,14.914ZM100.959,9q-1.016,0-1.208,1.346h2.334v-.178A1.146,1.146,0,0,0,101.8,9.3,1.12,1.12,0,0,0,100.959,9Zm6.508-1.648.076.872a2.554,2.554,0,0,1,2.121-1.009,1.88,1.88,0,0,1,1.9,1.119,2.472,2.472,0,0,1,2.183-1.119q2.259,0,2.32,2.732v4.833h-2.32V10.088a1.416,1.416,0,0,0-.192-.831.818.818,0,0,0-.7-.261,1.1,1.1,0,0,0-1.023.611l.007.1v5.073h-2.32V10.1a1.488,1.488,0,0,0-.185-.844A.816.816,0,0,0,108.627,9a1.109,1.109,0,0,0-1.016.611v5.169H105.3V7.349Zm9.632,3.645a4.384,4.384,0,0,1,.433-1.981,3.093,3.093,0,0,1,1.243-1.335,3.742,3.742,0,0,1,1.9-.467A3.415,3.415,0,0,1,123.3,8.245a3.965,3.965,0,0,1,.961,2.811v.082a3.847,3.847,0,0,1-.965,2.756,3.425,3.425,0,0,1-2.612,1.019,3.464,3.464,0,0,1-2.547-.951,3.719,3.719,0,0,1-1.037-2.578Zm2.314.144a2.764,2.764,0,0,0,.323,1.51,1.075,1.075,0,0,0,.954.481q1.236,0,1.263-1.9v-.233q0-2-1.277-2-1.16,0-1.256,1.723Zm9.762,1.552a.534.534,0,0,0-.309-.474,4.7,4.7,0,0,0-1.174-.371,5.353,5.353,0,0,1-1.428-.5,2.392,2.392,0,0,1-.858-.759,1.811,1.811,0,0,1-.3-1.023,2.053,2.053,0,0,1,.844-1.685,3.478,3.478,0,0,1,2.211-.662,3.854,3.854,0,0,1,2.362.666,2.082,2.082,0,0,1,.892,1.751H129.1q0-.892-.941-.892a.932.932,0,0,0-.611.2.627.627,0,0,0-.247.5.576.576,0,0,0,.3.5,2.854,2.854,0,0,0,.965.316,8.336,8.336,0,0,1,1.164.3,2.114,2.114,0,0,1,1.675,2.066,1.945,1.945,0,0,1-.9,1.654,3.959,3.959,0,0,1-2.338.638,4.04,4.04,0,0,1-1.7-.343,2.847,2.847,0,0,1-1.167-.934,2.114,2.114,0,0,1-.419-1.243h2.163a.894.894,0,0,0,.343.752,1.412,1.412,0,0,0,.844.237,1.111,1.111,0,0,0,.711-.192A.615.615,0,0,0,129.174,12.69ZM135.181,5.5V7.349H136.4V8.955h-1.222v3.4a.868.868,0,0,0,.151.584.81.81,0,0,0,.6.165,3.394,3.394,0,0,0,.577-.041v1.654a4.27,4.27,0,0,1-1.3.2,2.424,2.424,0,0,1-1.764-.563,2.307,2.307,0,0,1-.57-1.709V8.955h-.947V7.349h.947V5.5Zm6.625,3.941-.762-.055a1.369,1.369,0,0,0-1.4.687v4.7H137.33V7.349H139.5l.076.954A1.791,1.791,0,0,1,141.2,7.212a2.256,2.256,0,0,1,.645.082Zm4.812,5.334a2.611,2.611,0,0,1-.22-.666,2.151,2.151,0,0,1-1.785.8,2.635,2.635,0,0,1-1.785-.635,2.021,2.021,0,0,1-.735-1.6,2.077,2.077,0,0,1,.892-1.826,4.547,4.547,0,0,1,2.6-.618h.714V9.846q0-1.028-.886-1.028a.724.724,0,0,0-.824.814h-2.314a2.074,2.074,0,0,1,.916-1.749,3.852,3.852,0,0,1,2.338-.672,3.377,3.377,0,0,1,2.245.693,2.411,2.411,0,0,1,.844,1.9v3.288a3.368,3.368,0,0,0,.316,1.565v.117Zm-1.449-1.51a1.291,1.291,0,0,0,.717-.185,1.162,1.162,0,0,0,.408-.419V11.475h-.673q-1.208,0-1.208,1.085a.662.662,0,0,0,.213.511A.77.77,0,0,0,145.17,13.267Zm9.22-3.824-.762-.055a1.369,1.369,0,0,0-1.4.687v4.7h-2.314V7.349h2.169l.076.954a1.791,1.791,0,0,1,1.627-1.092,2.256,2.256,0,0,1,.645.082Z" transform="translate(-6540.643 -8670.753)" fill="#fff"/>
      <path id="Path_624837" data-name="Path 624837" d="M106.727,10.948h-1.3v3.536h-2.41v-10h3.934a4.391,4.391,0,0,1,2.78.789,2.672,2.672,0,0,1,1,2.229,3.245,3.245,0,0,1-.422,1.728,3,3,0,0,1-1.322,1.111l2.087,4.036v.1h-2.581Zm-1.3-1.854h1.524a1.368,1.368,0,0,0,1.033-.361,1.4,1.4,0,0,0,.347-1.008,1.413,1.413,0,0,0-.35-1.015,1.355,1.355,0,0,0-1.03-.368h-1.524Zm10.25,5.526a3.818,3.818,0,0,1-2.767-1.019,3.52,3.52,0,0,1-1.057-2.653v-.192a4.562,4.562,0,0,1,.422-2.011A3.089,3.089,0,0,1,113.5,7.4a3.72,3.72,0,0,1,1.922-.477,3.215,3.215,0,0,1,2.471.971A3.817,3.817,0,0,1,118.8,10.6v.9h-4.6a1.668,1.668,0,0,0,.542.982,1.614,1.614,0,0,0,1.085.357,2.079,2.079,0,0,0,1.716-.769l1.057,1.249a2.955,2.955,0,0,1-1.225.951A4.141,4.141,0,0,1,115.672,14.621ZM115.411,8.7q-1.016,0-1.208,1.346h2.334V9.871a1.146,1.146,0,0,0-.281-.862A1.12,1.12,0,0,0,115.411,8.7Zm4.86,5.78V8.662h-1.078V7.056h1.078V6.809a2.836,2.836,0,0,1,.975-2.272,3.9,3.9,0,0,1,2.533-.741,8.989,8.989,0,0,1,2.417.4l-.316,1.826-.384-.1a6.117,6.117,0,0,0-1.579-.2q-1.325,0-1.325,1.208v.13h1.455V8.662h-1.455v5.822Zm6.989,0h-2.327V7.056h2.327ZM130.8,7.056l.076.872a2.519,2.519,0,0,1,2.121-1.009,2.119,2.119,0,0,1,1.733.693A3.3,3.3,0,0,1,135.32,9.7v4.785H133V9.8a1.253,1.253,0,0,0-.227-.827,1.048,1.048,0,0,0-.824-.264,1.1,1.1,0,0,0-1.009.535v5.245h-2.314V7.056Zm9.989,7.428a2.613,2.613,0,0,1-.22-.666,2.151,2.151,0,0,1-1.785.8,2.635,2.635,0,0,1-1.785-.635,2.021,2.021,0,0,1-.735-1.6,2.077,2.077,0,0,1,.892-1.826,4.547,4.547,0,0,1,2.6-.618h.714V9.553q0-1.028-.886-1.028a.724.724,0,0,0-.824.814h-2.314a2.074,2.074,0,0,1,.917-1.749,3.851,3.851,0,0,1,2.338-.672,3.377,3.377,0,0,1,2.245.693,2.411,2.411,0,0,1,.844,1.9V12.8a3.368,3.368,0,0,0,.316,1.565v.117Zm-1.449-1.51a1.29,1.29,0,0,0,.717-.185,1.162,1.162,0,0,0,.408-.419V11.182h-.673q-1.208,0-1.208,1.085a.662.662,0,0,0,.213.511A.77.77,0,0,0,139.336,12.974Zm9.22-3.824-.762-.055a1.369,1.369,0,0,0-1.4.687v4.7H144.08V7.056h2.169l.076.954a1.792,1.792,0,0,1,1.627-1.092A2.256,2.256,0,0,1,148.6,7Z" transform="translate(-6467.454 -8475.814) rotate(-45)" fill="#fff"/>
      <path id="Path_624838" data-name="Path 624838" d="M86.123,14.545v-10h3.22a4.736,4.736,0,0,1,2.382.6,4.222,4.222,0,0,1,1.651,1.7,5.12,5.12,0,0,1,.6,2.454v.46a5.149,5.149,0,0,1-.58,2.461,4.241,4.241,0,0,1-1.634,1.7,4.632,4.632,0,0,1-2.351.621Zm2.41-8.135v6.282h.838a1.874,1.874,0,0,0,1.593-.738,3.617,3.617,0,0,0,.556-2.193V9.327a3.587,3.587,0,0,0-.556-2.183,1.907,1.907,0,0,0-1.62-.735ZM98.7,14.682a3.818,3.818,0,0,1-2.767-1.019,3.521,3.521,0,0,1-1.057-2.653v-.192A4.562,4.562,0,0,1,95.3,8.806a3.089,3.089,0,0,1,1.232-1.349,3.72,3.72,0,0,1,1.922-.477,3.215,3.215,0,0,1,2.471.971,3.817,3.817,0,0,1,.906,2.708v.9h-4.6a1.668,1.668,0,0,0,.542.982,1.614,1.614,0,0,0,1.085.357,2.079,2.079,0,0,0,1.716-.769l1.057,1.249a2.955,2.955,0,0,1-1.225.951A4.141,4.141,0,0,1,98.7,14.682Zm-.261-5.918q-1.016,0-1.208,1.346h2.334V9.931a1.146,1.146,0,0,0-.281-.862A1.12,1.12,0,0,0,98.439,8.764Zm8.211,3.693a.534.534,0,0,0-.309-.474,4.7,4.7,0,0,0-1.174-.371,5.353,5.353,0,0,1-1.428-.5,2.392,2.392,0,0,1-.858-.759,1.811,1.811,0,0,1-.3-1.023,2.053,2.053,0,0,1,.844-1.685,3.478,3.478,0,0,1,2.211-.662A3.854,3.854,0,0,1,108,7.645a2.082,2.082,0,0,1,.892,1.751h-2.32q0-.892-.941-.892a.932.932,0,0,0-.611.2.627.627,0,0,0-.247.5.576.576,0,0,0,.3.5,2.854,2.854,0,0,0,.965.316,8.335,8.335,0,0,1,1.164.3,2.114,2.114,0,0,1,1.675,2.066,1.945,1.945,0,0,1-.9,1.654,3.959,3.959,0,0,1-2.338.638,4.04,4.04,0,0,1-1.7-.343,2.847,2.847,0,0,1-1.167-.934,2.114,2.114,0,0,1-.419-1.243h2.163a.894.894,0,0,0,.343.752,1.412,1.412,0,0,0,.844.237,1.111,1.111,0,0,0,.711-.192A.615.615,0,0,0,106.65,12.458Zm7.5,2.087a2.612,2.612,0,0,1-.22-.666,2.151,2.151,0,0,1-1.785.8,2.635,2.635,0,0,1-1.785-.635,2.021,2.021,0,0,1-.735-1.6,2.077,2.077,0,0,1,.892-1.826,4.547,4.547,0,0,1,2.6-.618h.714V9.614q0-1.028-.886-1.028a.724.724,0,0,0-.824.814H109.8a2.074,2.074,0,0,1,.916-1.749,3.852,3.852,0,0,1,2.338-.672,3.377,3.377,0,0,1,2.245.693,2.411,2.411,0,0,1,.844,1.9v3.288a3.367,3.367,0,0,0,.316,1.565v.117Zm-1.449-1.51a1.29,1.29,0,0,0,.717-.185,1.162,1.162,0,0,0,.408-.419V11.243h-.673q-1.208,0-1.208,1.085a.662.662,0,0,0,.213.511A.77.77,0,0,0,112.7,13.035Zm9.22-3.824-.762-.055a1.369,1.369,0,0,0-1.4.687v4.7h-2.314V7.117h2.169l.076.954a1.791,1.791,0,0,1,1.627-1.092,2.256,2.256,0,0,1,.645.082Zm5.327,0-.762-.055a1.369,1.369,0,0,0-1.4.687v4.7h-2.314V7.117h2.169l.076.954a1.791,1.791,0,0,1,1.627-1.092,2.256,2.256,0,0,1,.645.082Zm.3,1.552a4.384,4.384,0,0,1,.433-1.981,3.093,3.093,0,0,1,1.243-1.335,3.742,3.742,0,0,1,1.9-.467,3.415,3.415,0,0,1,2.629,1.033,3.965,3.965,0,0,1,.961,2.811v.082a3.847,3.847,0,0,1-.965,2.756,3.425,3.425,0,0,1-2.612,1.019,3.464,3.464,0,0,1-2.547-.951,3.719,3.719,0,0,1-1.037-2.578Zm2.314.144a2.764,2.764,0,0,0,.323,1.51,1.075,1.075,0,0,0,.954.481q1.236,0,1.263-1.9v-.233q0-2-1.277-2-1.16,0-1.256,1.723Zm8.314,3.639h-2.32V4h2.32Zm3.865,0h-2.32V4h2.32Zm5.609,0a2.612,2.612,0,0,1-.22-.666,2.151,2.151,0,0,1-1.785.8,2.636,2.636,0,0,1-1.785-.635,2.021,2.021,0,0,1-.735-1.6,2.077,2.077,0,0,1,.892-1.826,4.547,4.547,0,0,1,2.6-.618h.714V9.614q0-1.028-.886-1.028a.724.724,0,0,0-.824.814H143.3a2.074,2.074,0,0,1,.917-1.749,3.851,3.851,0,0,1,2.338-.672,3.377,3.377,0,0,1,2.245.693,2.411,2.411,0,0,1,.844,1.9v3.288a3.368,3.368,0,0,0,.316,1.565v.117Zm-1.449-1.51a1.291,1.291,0,0,0,.717-.185,1.162,1.162,0,0,0,.408-.419V11.243h-.673q-1.208,0-1.208,1.085a.662.662,0,0,0,.213.511A.77.77,0,0,0,146.193,13.035Zm9.22-3.824-.762-.055a1.369,1.369,0,0,0-1.4.687v4.7h-2.314V7.117h2.169l.076.954a1.792,1.792,0,0,1,1.627-1.092,2.256,2.256,0,0,1,.645.082Z" transform="translate(-6528.204 -8683.441) rotate(60)" fill="#fff"/>
      <path id="Path_624842" data-name="Path 624842" d="M100.744,10.266v2.971H98.633V4.481h3.494a4.069,4.069,0,0,1,1.777.37A2.787,2.787,0,0,1,105.1,5.9a2.874,2.874,0,0,1,.424,1.548,2.534,2.534,0,0,1-.917,2.048,3.805,3.805,0,0,1-2.517.767Zm0-1.63h1.383a1.3,1.3,0,0,0,.935-.307,1.139,1.139,0,0,0,.322-.866,1.408,1.408,0,0,0-.331-.98,1.171,1.171,0,0,0-.9-.373h-1.407Zm9.748-.072-.667-.048a1.2,1.2,0,0,0-1.227.6v4.119h-2.027V6.73h1.9l.066.836a1.569,1.569,0,0,1,1.425-.956,1.976,1.976,0,0,1,.565.072Zm4.606,3.969a2.089,2.089,0,0,1-1.738.824,2.049,2.049,0,0,1-1.621-.622,2.618,2.618,0,0,1-.55-1.789V6.73h2.027v4.227a.728.728,0,0,0,.812.836,1.059,1.059,0,0,0,.992-.5V6.73h2.039v6.507h-1.9Zm6.218.824a3.345,3.345,0,0,1-2.423-.893,3.084,3.084,0,0,1-.926-2.324V9.971a4,4,0,0,1,.37-1.762,2.706,2.706,0,0,1,1.079-1.182A3.259,3.259,0,0,1,121.1,6.61a2.817,2.817,0,0,1,2.165.851,3.344,3.344,0,0,1,.794,2.372v.788h-4.029a1.461,1.461,0,0,0,.475.86,1.414,1.414,0,0,0,.95.313,1.821,1.821,0,0,0,1.5-.674l.926,1.094a2.589,2.589,0,0,1-1.073.833A3.627,3.627,0,0,1,121.315,13.357Zm-.229-5.184q-.89,0-1.058,1.179h2.045V9.2a1,1,0,0,0-.247-.755A.981.981,0,0,0,121.087,8.173Zm9.826,1.864a3.965,3.965,0,0,1-.661,2.459,2.216,2.216,0,0,1-1.864.86,1.923,1.923,0,0,1-1.6-.788l-.084.667h-1.816V4h2.027V7.253a1.855,1.855,0,0,1,1.461-.643,2.216,2.216,0,0,1,1.876.872,3.986,3.986,0,0,1,.661,2.453Zm-2.033-.129a2.645,2.645,0,0,0-.25-1.336.841.841,0,0,0-.767-.4.97.97,0,0,0-.95.522v2.581a.976.976,0,0,0,.962.516.861.861,0,0,0,.908-.7A5,5,0,0,0,128.88,9.908Zm6.591,3.328a2.288,2.288,0,0,1-.192-.583,1.884,1.884,0,0,1-1.563.7,2.309,2.309,0,0,1-1.563-.556,1.771,1.771,0,0,1-.643-1.4,1.82,1.82,0,0,1,.782-1.6,3.983,3.983,0,0,1,2.273-.541h.625V8.917q0-.9-.776-.9a.634.634,0,0,0-.722.713h-2.027a1.817,1.817,0,0,1,.8-1.532,3.374,3.374,0,0,1,2.048-.589,2.958,2.958,0,0,1,1.966.607,2.112,2.112,0,0,1,.74,1.666v2.88a2.95,2.95,0,0,0,.277,1.371v.1ZM134.2,11.914a1.13,1.13,0,0,0,.628-.162,1.018,1.018,0,0,0,.358-.367v-1.04H134.6q-1.058,0-1.058.95a.58.58,0,0,0,.186.448A.675.675,0,0,0,134.2,11.914Zm7.547-.505a.468.468,0,0,0-.271-.415,4.116,4.116,0,0,0-1.028-.325,4.689,4.689,0,0,1-1.251-.442,2.1,2.1,0,0,1-.752-.664,1.587,1.587,0,0,1-.259-.9,1.8,1.8,0,0,1,.74-1.476,3.047,3.047,0,0,1,1.936-.58,3.376,3.376,0,0,1,2.069.583,1.824,1.824,0,0,1,.782,1.533h-2.033q0-.782-.824-.782a.817.817,0,0,0-.535.177.549.549,0,0,0-.216.442.5.5,0,0,0,.265.439,2.5,2.5,0,0,0,.845.277,7.3,7.3,0,0,1,1.019.259,1.852,1.852,0,0,1,1.467,1.81,1.7,1.7,0,0,1-.791,1.449,3.468,3.468,0,0,1-2.048.559,3.539,3.539,0,0,1-1.491-.3,2.494,2.494,0,0,1-1.022-.818,1.852,1.852,0,0,1-.367-1.088h1.894a.783.783,0,0,0,.3.658,1.237,1.237,0,0,0,.74.207.973.973,0,0,0,.622-.168A.539.539,0,0,0,141.749,11.409Z" transform="translate(-6389.633 -8609)" fill="#fff"/>
      <path id="Path_624843" data-name="Path 624843" d="M96.818,10.566v2.971H94.707V4.781H98.2a4.069,4.069,0,0,1,1.777.37,2.787,2.787,0,0,1,1.2,1.052,2.874,2.874,0,0,1,.424,1.548,2.534,2.534,0,0,1-.917,2.048,3.805,3.805,0,0,1-2.517.767Zm0-1.63H98.2a1.3,1.3,0,0,0,.935-.307,1.139,1.139,0,0,0,.322-.866,1.408,1.408,0,0,0-.331-.98,1.171,1.171,0,0,0-.9-.373H96.818Zm9.748-.072-.667-.048a1.2,1.2,0,0,0-1.227.6v4.119h-2.027V7.03h1.9l.066.836a1.569,1.569,0,0,1,1.425-.956,1.976,1.976,0,0,1,.565.072Zm.259,1.359a3.84,3.84,0,0,1,.379-1.735,2.709,2.709,0,0,1,1.088-1.17,3.278,3.278,0,0,1,1.666-.409,2.992,2.992,0,0,1,2.3.905,3.473,3.473,0,0,1,.842,2.462v.072a3.369,3.369,0,0,1-.845,2.414,3,3,0,0,1-2.288.893,3.034,3.034,0,0,1-2.231-.833,3.258,3.258,0,0,1-.908-2.258Zm2.027.126a2.421,2.421,0,0,0,.283,1.323.942.942,0,0,0,.836.421q1.082,0,1.106-1.666v-.2q0-1.75-1.118-1.75-1.016,0-1.1,1.509Zm4.907-.114a4.393,4.393,0,0,1,.325-1.744,2.614,2.614,0,0,1,.932-1.17,2.457,2.457,0,0,1,1.413-.412,1.954,1.954,0,0,1,1.588.686l.072-.565h1.84v6.26a2.743,2.743,0,0,1-.4,1.494,2.566,2.566,0,0,1-1.158.974,4.255,4.255,0,0,1-1.756.34,3.671,3.671,0,0,1-1.386-.271,2.5,2.5,0,0,1-1.025-.7l.848-1.191a1.858,1.858,0,0,0,1.491.667,1.207,1.207,0,0,0,1.347-1.383v-.2a1.9,1.9,0,0,1-1.473.643,2.352,2.352,0,0,1-1.924-.911,3.775,3.775,0,0,1-.734-2.438Zm2.033.126a2.315,2.315,0,0,0,.3,1.266.949.949,0,0,0,.842.466,1.076,1.076,0,0,0,.956-.439V8.918a1.049,1.049,0,0,0-.944-.445.955.955,0,0,0-.848.484A2.64,2.64,0,0,0,115.79,10.362Zm9.225-1.5-.667-.048a1.2,1.2,0,0,0-1.227.6v4.119h-2.027V7.03h1.9l.066.836a1.569,1.569,0,0,1,1.425-.956,1.976,1.976,0,0,1,.565.072Zm3.764,4.793a3.345,3.345,0,0,1-2.423-.893,3.084,3.084,0,0,1-.926-2.324v-.168a4,4,0,0,1,.37-1.762,2.706,2.706,0,0,1,1.079-1.182,3.259,3.259,0,0,1,1.684-.418,2.817,2.817,0,0,1,2.165.851,3.344,3.344,0,0,1,.794,2.372v.788h-4.029a1.461,1.461,0,0,0,.475.86,1.414,1.414,0,0,0,.95.313,1.821,1.821,0,0,0,1.5-.674l.926,1.094a2.589,2.589,0,0,1-1.073.833A3.627,3.627,0,0,1,128.779,13.657Zm-.229-5.184q-.89,0-1.058,1.179h2.045V9.5a1,1,0,0,0-.247-.755A.981.981,0,0,0,128.551,8.473Zm7.192,3.235a.468.468,0,0,0-.271-.415,4.116,4.116,0,0,0-1.028-.325,4.689,4.689,0,0,1-1.251-.442,2.1,2.1,0,0,1-.752-.664,1.587,1.587,0,0,1-.259-.9,1.8,1.8,0,0,1,.74-1.476,3.047,3.047,0,0,1,1.936-.58,3.376,3.376,0,0,1,2.069.583,1.824,1.824,0,0,1,.782,1.533h-2.033q0-.782-.824-.782a.817.817,0,0,0-.535.177.549.549,0,0,0-.216.442.5.5,0,0,0,.265.439,2.5,2.5,0,0,0,.845.277,7.3,7.3,0,0,1,1.019.259,1.852,1.852,0,0,1,1.467,1.81,1.7,1.7,0,0,1-.791,1.449,3.468,3.468,0,0,1-2.048.559,3.539,3.539,0,0,1-1.491-.3,2.494,2.494,0,0,1-1.022-.818,1.852,1.852,0,0,1-.367-1.088h1.894a.783.783,0,0,0,.3.658,1.237,1.237,0,0,0,.74.207.973.973,0,0,0,.622-.168A.539.539,0,0,0,135.743,11.709Zm2.646-1.485a3.84,3.84,0,0,1,.379-1.735,2.709,2.709,0,0,1,1.088-1.17,3.278,3.278,0,0,1,1.666-.409,2.992,2.992,0,0,1,2.3.905,3.473,3.473,0,0,1,.842,2.462v.072a3.369,3.369,0,0,1-.845,2.414,3,3,0,0,1-2.288.893,3.034,3.034,0,0,1-2.231-.833,3.257,3.257,0,0,1-.908-2.258Zm2.027.126a2.421,2.421,0,0,0,.283,1.323.942.942,0,0,0,.836.421q1.082,0,1.106-1.666v-.2q0-1.75-1.118-1.75-1.016,0-1.1,1.509Z" transform="translate(-6274.707 -8610.781)" fill="#fff"/>
    </g>
  </g>
</svg>
