<svg xmlns="http://www.w3.org/2000/svg" xmlns:xlink="http://www.w3.org/1999/xlink" width="536" height="344" viewBox="0 0 536 344">
  <defs>
    <filter id="Rectangle_300539" x="0" y="0" width="536" height="344" filterUnits="userSpaceOnUse">
      <feOffset dy="3" input="SourceAlpha"/>
      <feGaussianBlur stdDeviation="3" result="blur"/>
      <feFlood flood-opacity="0.161"/>
      <feComposite operator="in" in2="blur"/>
      <feComposite in="SourceGraphic"/>
    </filter>
  </defs>
  <g id="tema1-img-07" transform="translate(-846 -4545.413)">
    <g id="tema1-img-07-2" data-name="tema1-img-07" transform="translate(590.334 1973.413)">
      <g transform="matrix(1, 0, 0, 1, 255.67, 2572)" filter="url(#Rectangle_300539)">
        <rect id="Rectangle_300539-2" data-name="Rectangle 300539" width="518" height="326" rx="20" transform="translate(9 6)" fill="#fff"/>
      </g>
    </g>
    <g id="Group_897745" data-name="Group 897745" transform="translate(7559.999 11532.387)">
      <path id="Path_624862" data-name="Path 624862" d="M1903.884,845.048l-17.418-20.205H1737.992V865.3h148.474Z" transform="translate(-8320.466 -7693.277)" fill="#21cbae"/>
      <g id="Group_897744" data-name="Group 897744" transform="translate(-6572.99 -6916.195)">
        <g id="Group_894471" data-name="Group 894471" transform="translate(64.473 29.949)">
          <path id="Path_622703" data-name="Path 622703" d="M2758.165,644.455l15.321,3.911.033.008.01-.032,6.566-19.73a68.412,68.412,0,0,1-47.529,106.252l-12.979-14.621,12.385-12.682a41.373,41.373,0,0,0,26.193-63.105Z" transform="translate(-2719.587 -628.612)" fill="#9f7e18"/>
        </g>
        <g id="Group_894472" data-name="Group 894472" transform="translate(6.974)">
          <path id="Path_622704" data-name="Path 622704" d="M2030.67,303.76a68.927,68.927,0,0,1,7.961-11.338,68.03,68.03,0,0,1,20.949-16.283,68.6,68.6,0,0,1,38.37-6.87,68.064,68.064,0,0,1,13.145,2.812,69.063,69.063,0,0,1,23.856,13.345,68.071,68.071,0,0,1,9.124,9.536l-6.308,18.955-16.62-4.242a41.392,41.392,0,0,0-66.913,7.32c-.407.724-.8,1.471-1.162,2.222l-4.5-16.039-.009-.033-.033.007-19.659,4.033c.571-1.166,1.177-2.318,1.8-3.426Z" transform="translate(-2028.871 -268.847)" fill="#fecb2f"/>
        </g>
        <g id="Group_894473" data-name="Group 894473" transform="translate(0 38.813)">
          <path id="Path_622705" data-name="Path 622705" d="M1950.122,738.972l18.892-3.876,4.917,17.518A41.382,41.382,0,0,0,2015.751,806l-11.441,11.715-.024.024.022.025,13.486,15.192a68.069,68.069,0,0,1-37.782-8.634,68.983,68.983,0,0,1-10.537-7.279,68.246,68.246,0,0,1-20.611-30.006,68.668,68.668,0,0,1-3.75-23.869,67.952,67.952,0,0,1,5.007-24.195Z" transform="translate(-1945.099 -735.096)" fill="#d8a814"/>
        </g>
      </g>
      <path id="Path_624863" data-name="Path 624863" d="M416.43,824.843H331.419V865.3H416.43l17.293-20.255Z" transform="translate(-7021.419 -7692.863)" fill="#ef3c79"/>
      <path id="Path_624864" data-name="Path 624864" d="M4065.769,824.843h-85.011V865.3h85.011l17.293-20.255Z" transform="translate(-10392.922 -7692.863)" fill="#ef3c79"/>
      <path id="Path_624865" data-name="Path 624865" d="M5482.484,824.843h-85.011V865.3h85.011l17.293-20.255Z" transform="translate(-11701.827 -7693.277)" fill="#21cbae"/>
      <rect id="Rectangle_302302" data-name="Rectangle 302302" width="488.002" height="40.512" transform="translate(-6690 -6760.304)" fill="#0b5999"/>
      <path id="Path_624867" data-name="Path 624867" d="M-35.544-4.04v2.871h-1.679V-9.318h3.179a3.678,3.678,0,0,1,1.615.336,2.475,2.475,0,0,1,1.072.954,2.661,2.661,0,0,1,.375,1.408,2.34,2.34,0,0,1-.82,1.889,3.415,3.415,0,0,1-2.27.691Zm0-1.36h1.5a1.475,1.475,0,0,0,1.016-.313,1.14,1.14,0,0,0,.35-.9,1.344,1.344,0,0,0-.353-.968A1.317,1.317,0,0,0-34-7.958h-1.539Zm7.315,4.231h-1.623v-8.6h1.623Zm4.841,0a1.8,1.8,0,0,1-.162-.543,1.957,1.957,0,0,1-1.528.655,2.15,2.15,0,0,1-1.475-.515,1.656,1.656,0,0,1-.585-1.3,1.711,1.711,0,0,1,.714-1.478,3.521,3.521,0,0,1,2.063-.521h.744v-.347a1,1,0,0,0-.215-.672.848.848,0,0,0-.68-.252.964.964,0,0,0-.641.2.665.665,0,0,0-.232.537H-27a1.625,1.625,0,0,1,.325-.974,2.146,2.146,0,0,1,.918-.7,3.345,3.345,0,0,1,1.332-.255,2.643,2.643,0,0,1,1.777.563,1.968,1.968,0,0,1,.658,1.581v2.625a2.9,2.9,0,0,0,.241,1.3v.1Zm-1.338-1.125a1.393,1.393,0,0,0,.66-.16,1.048,1.048,0,0,0,.448-.428V-3.922h-.6q-1.215,0-1.293.84l-.006.1a.648.648,0,0,0,.213.5A.826.826,0,0,0-24.725-2.294Zm5.463-4.931.05.7a2.114,2.114,0,0,1,1.741-.812,1.757,1.757,0,0,1,1.433.565,2.638,2.638,0,0,1,.481,1.69v3.912h-1.618V-5.042a1.049,1.049,0,0,0-.224-.747,1,1,0,0,0-.744-.232,1.113,1.113,0,0,0-1.024.582v4.271h-1.618V-7.225Zm6.638,6.056h-1.623V-7.225h1.623Zm-1.718-7.623a.8.8,0,0,1,.243-.6.915.915,0,0,1,.663-.235.917.917,0,0,1,.66.235.792.792,0,0,1,.246.6.794.794,0,0,1-.249.6.919.919,0,0,1-.658.235.919.919,0,0,1-.658-.235A.794.794,0,0,1-14.342-8.792ZM-10.9-1.169V-6.038h-.9V-7.225h.9V-7.5a2.271,2.271,0,0,1,.7-1.76,2.826,2.826,0,0,1,1.951-.618,6.47,6.47,0,0,1,1.836.33l-.235,1.338a7.163,7.163,0,0,0-.851-.21,4.18,4.18,0,0,0-.649-.048q-1.131,0-1.131,1v.246h1.192v1.187H-9.277v4.869Zm5.244,0H-7.279V-7.225h1.623ZM-1.8-2.361a1.061,1.061,0,0,0,.728-.246.863.863,0,0,0,.291-.655H.736A2.075,2.075,0,0,1,.4-2.134a2.216,2.216,0,0,1-.9.795,2.829,2.829,0,0,1-1.268.283A2.629,2.629,0,0,1-3.82-1.882a3.267,3.267,0,0,1-.75-2.281v-.106A3.23,3.23,0,0,1-3.826-6.5a2.6,2.6,0,0,1,2.043-.834A2.547,2.547,0,0,1,.039-6.69a2.289,2.289,0,0,1,.7,1.721H-.781a1.112,1.112,0,0,0-.291-.768.97.97,0,0,0-.739-.3.974.974,0,0,0-.854.412,2.388,2.388,0,0,0-.288,1.337v.168A2.418,2.418,0,0,0-2.667-2.77.986.986,0,0,0-1.8-2.361ZM5.169-1.169a1.8,1.8,0,0,1-.162-.543,1.957,1.957,0,0,1-1.528.655A2.15,2.15,0,0,1,2-1.572a1.656,1.656,0,0,1-.585-1.3,1.711,1.711,0,0,1,.714-1.478,3.521,3.521,0,0,1,2.063-.521h.744v-.347a1,1,0,0,0-.215-.672.848.848,0,0,0-.68-.252.964.964,0,0,0-.641.2.665.665,0,0,0-.232.537H1.553a1.625,1.625,0,0,1,.325-.974,2.146,2.146,0,0,1,.918-.7,3.345,3.345,0,0,1,1.332-.255A2.643,2.643,0,0,1,5.9-6.774a1.968,1.968,0,0,1,.658,1.581v2.625a2.9,2.9,0,0,0,.241,1.3v.1ZM3.831-2.294a1.393,1.393,0,0,0,.66-.16,1.048,1.048,0,0,0,.448-.428V-3.922h-.6q-1.215,0-1.293.84l-.006.1a.648.648,0,0,0,.213.5A.826.826,0,0,0,3.831-2.294Zm6.493-.067a1.061,1.061,0,0,0,.728-.246.863.863,0,0,0,.291-.655h1.517a2.075,2.075,0,0,1-.336,1.128,2.216,2.216,0,0,1-.9.795,2.829,2.829,0,0,1-1.268.283A2.629,2.629,0,0,1,8.3-1.882a3.267,3.267,0,0,1-.75-2.281v-.106A3.23,3.23,0,0,1,8.3-6.5a2.6,2.6,0,0,1,2.043-.834,2.547,2.547,0,0,1,1.822.646,2.289,2.289,0,0,1,.7,1.721H11.342a1.112,1.112,0,0,0-.291-.768.97.97,0,0,0-.739-.3.974.974,0,0,0-.854.412,2.388,2.388,0,0,0-.288,1.337v.168A2.418,2.418,0,0,0,9.456-2.77.986.986,0,0,0,10.324-2.361ZM15.49-1.169H13.867V-7.225H15.49ZM13.771-8.792a.8.8,0,0,1,.243-.6.915.915,0,0,1,.663-.235.917.917,0,0,1,.66.235.792.792,0,0,1,.246.6.794.794,0,0,1-.249.6.919.919,0,0,1-.658.235.919.919,0,0,1-.658-.235A.794.794,0,0,1,13.771-8.792Zm2.8,4.539a3.592,3.592,0,0,1,.347-1.606,2.54,2.54,0,0,1,1-1.091,2.915,2.915,0,0,1,1.514-.386,2.758,2.758,0,0,1,2,.75A3.01,3.01,0,0,1,22.3-4.549l.011.414A3.165,3.165,0,0,1,21.529-1.9a2.7,2.7,0,0,1-2.088.842,2.718,2.718,0,0,1-2.09-.84A3.221,3.221,0,0,1,16.57-4.18Zm1.618.115a2.264,2.264,0,0,0,.325,1.32,1.071,1.071,0,0,0,.929.457,1.073,1.073,0,0,0,.918-.451,2.477,2.477,0,0,0,.33-1.443,2.241,2.241,0,0,0-.33-1.312,1.073,1.073,0,0,0-.929-.465,1.056,1.056,0,0,0-.918.462A2.519,2.519,0,0,0,18.188-4.138Zm1.562-5.628h1.763l-1.55,1.735H18.647Zm5.043,2.541.05.7a2.114,2.114,0,0,1,1.741-.812,1.757,1.757,0,0,1,1.433.565,2.638,2.638,0,0,1,.481,1.69v3.912H26.88V-5.042a1.049,1.049,0,0,0-.224-.747,1,1,0,0,0-.744-.232,1.113,1.113,0,0,0-1.024.582v4.271H23.27V-7.225ZM-37.416,9.867a3.65,3.65,0,0,1,.635-2.256,2.061,2.061,0,0,1,1.738-.84,1.855,1.855,0,0,1,1.461.66V4.342h1.623v8.6H-33.42L-33.5,12.3a1.9,1.9,0,0,1-1.556.756,2.056,2.056,0,0,1-1.715-.842A3.767,3.767,0,0,1-37.416,9.867Zm1.618.12a2.391,2.391,0,0,0,.3,1.306.966.966,0,0,0,.862.454,1.082,1.082,0,0,0,1.058-.633V8.72a1.067,1.067,0,0,0-1.047-.633Q-35.8,8.087-35.8,9.987Zm7.881,3.064a2.973,2.973,0,0,1-2.169-.817,2.9,2.9,0,0,1-.837-2.177V9.9a3.658,3.658,0,0,1,.353-1.632,2.588,2.588,0,0,1,1-1.108A2.8,2.8,0,0,1-28.1,6.771a2.513,2.513,0,0,1,1.956.784,3.184,3.184,0,0,1,.714,2.222v.66h-3.856a1.5,1.5,0,0,0,.473.951,1.43,1.43,0,0,0,1,.358,1.746,1.746,0,0,0,1.461-.677l.795.89a2.428,2.428,0,0,1-.985.8A3.232,3.232,0,0,1-27.918,13.051ZM-28.1,8.075a1.011,1.011,0,0,0-.781.326,1.688,1.688,0,0,0-.383.933h2.25V9.205a1.2,1.2,0,0,0-.291-.835A1.043,1.043,0,0,0-28.1,8.075Zm9.851.325a4.395,4.395,0,0,0-.582-.045,1.185,1.185,0,0,0-1.2.621v3.963h-1.618V6.883h1.528l.045.722a1.5,1.5,0,0,1,1.349-.834,1.7,1.7,0,0,1,.5.073Zm3.459,4.651a2.973,2.973,0,0,1-2.169-.817,2.9,2.9,0,0,1-.837-2.177V9.9a3.658,3.658,0,0,1,.353-1.632,2.588,2.588,0,0,1,1-1.108,2.8,2.8,0,0,1,1.475-.389,2.513,2.513,0,0,1,1.956.784A3.184,3.184,0,0,1-12.3,9.777v.66h-3.856a1.5,1.5,0,0,0,.473.951,1.43,1.43,0,0,0,1,.358,1.746,1.746,0,0,0,1.461-.677l.795.89a2.428,2.428,0,0,1-.985.8A3.232,3.232,0,0,1-14.793,13.051Zm-.185-4.976a1.011,1.011,0,0,0-.781.326,1.688,1.688,0,0,0-.383.933h2.25V9.205a1.2,1.2,0,0,0-.291-.835A1.043,1.043,0,0,0-14.978,8.075Zm3.341,1.78A3.62,3.62,0,0,1-11,7.6a2.077,2.077,0,0,1,1.743-.828,1.859,1.859,0,0,1,1.55.744l.106-.632h1.422v8.384H-7.8V12.419a1.865,1.865,0,0,1-1.466.632,2.062,2.062,0,0,1-1.724-.84A3.8,3.8,0,0,1-11.636,9.855Zm1.618.115a2.375,2.375,0,0,0,.305,1.323.977.977,0,0,0,.859.454A1.088,1.088,0,0,0-7.8,11.153V8.647a1.079,1.079,0,0,0-1.041-.572.988.988,0,0,0-.868.454A2.623,2.623,0,0,0-10.019,9.97Zm8.737,2.353a2.028,2.028,0,0,1-1.657.728,1.913,1.913,0,0,1-1.486-.56,2.389,2.389,0,0,1-.523-1.64V6.883H-3.33V10.8q0,.947.862.947a1.168,1.168,0,0,0,1.131-.572V6.883H.285v6.056H-1.237Zm4.494.616H1.59V6.883H3.213ZM1.494,5.316a.8.8,0,0,1,.243-.6A.915.915,0,0,1,2.4,4.482a.917.917,0,0,1,.66.235.855.855,0,0,1,0,1.2.919.919,0,0,1-.658.235.919.919,0,0,1-.658-.235A.794.794,0,0,1,1.494,5.316Zm6.33,5.95a.521.521,0,0,0-.294-.467,3.338,3.338,0,0,0-.943-.305q-2.16-.453-2.16-1.836A1.664,1.664,0,0,1,5.1,7.311a2.7,2.7,0,0,1,1.749-.54,2.9,2.9,0,0,1,1.844.543,1.711,1.711,0,0,1,.691,1.41H7.763a.783.783,0,0,0-.224-.574.947.947,0,0,0-.7-.227.968.968,0,0,0-.632.185.583.583,0,0,0-.224.47.5.5,0,0,0,.255.434A2.62,2.62,0,0,0,7.1,9.3a7.017,7.017,0,0,1,1.019.271A1.674,1.674,0,0,1,9.4,11.2a1.58,1.58,0,0,1-.711,1.34,3.066,3.066,0,0,1-1.836.512A3.2,3.2,0,0,1,5.5,12.78a2.268,2.268,0,0,1-.926-.744,1.73,1.73,0,0,1-.336-1.021H5.771a.844.844,0,0,0,.319.66,1.265,1.265,0,0,0,.795.229,1.171,1.171,0,0,0,.7-.176A.549.549,0,0,0,7.825,11.266Zm4.321,1.674H10.522V6.883h1.623ZM10.427,5.316a.8.8,0,0,1,.243-.6,1.049,1.049,0,0,1,1.324,0,.855.855,0,0,1,0,1.2,1.037,1.037,0,0,1-1.315,0A.794.794,0,0,1,10.427,5.316Zm4.987.078V6.883H16.45V8.07H15.414v3.022a.722.722,0,0,0,.129.481.647.647,0,0,0,.493.146,2.58,2.58,0,0,0,.476-.039v1.226a3.33,3.33,0,0,1-.979.146A1.544,1.544,0,0,1,13.8,11.333V8.07h-.884V6.883H13.8V5.394Zm1.517,4.461a3.592,3.592,0,0,1,.347-1.606,2.54,2.54,0,0,1,1-1.091,2.915,2.915,0,0,1,1.514-.386,2.758,2.758,0,0,1,2,.75,3.01,3.01,0,0,1,.865,2.037l.011.414a3.165,3.165,0,0,1-.778,2.236,2.7,2.7,0,0,1-2.088.842,2.718,2.718,0,0,1-2.09-.84,3.221,3.221,0,0,1-.781-2.284Zm1.618.115a2.264,2.264,0,0,0,.325,1.32,1.166,1.166,0,0,0,1.847.006,2.477,2.477,0,0,0,.33-1.443,2.241,2.241,0,0,0-.33-1.312,1.073,1.073,0,0,0-.929-.465,1.056,1.056,0,0,0-.918.462A2.519,2.519,0,0,0,18.549,9.97Zm8.4,1.3a.521.521,0,0,0-.294-.467,3.338,3.338,0,0,0-.943-.305q-2.16-.453-2.16-1.836a1.664,1.664,0,0,1,.669-1.346,2.7,2.7,0,0,1,1.749-.54,2.9,2.9,0,0,1,1.844.543,1.711,1.711,0,0,1,.691,1.41H26.883a.783.783,0,0,0-.224-.574.947.947,0,0,0-.7-.227.968.968,0,0,0-.632.185.583.583,0,0,0-.224.47.5.5,0,0,0,.255.434,2.62,2.62,0,0,0,.859.285,7.017,7.017,0,0,1,1.019.271A1.674,1.674,0,0,1,28.517,11.2a1.58,1.58,0,0,1-.711,1.34,3.066,3.066,0,0,1-1.836.512,3.2,3.2,0,0,1-1.352-.271,2.268,2.268,0,0,1-.926-.744,1.73,1.73,0,0,1-.336-1.021H24.89a.844.844,0,0,0,.319.66A1.265,1.265,0,0,0,26,11.9a1.171,1.171,0,0,0,.7-.176A.549.549,0,0,0,26.944,11.266Z" transform="translate(-6640.3 -6850.081)" fill="#fff"/>
      <path id="Path_624866" data-name="Path 624866" d="M-96.427,11.509V-8.643h6.2a9.416,9.416,0,0,1,4.754,1.2,8.348,8.348,0,0,1,3.273,3.4A10.5,10.5,0,0,1-81.023.976V1.9a10.531,10.531,0,0,1-1.156,5,8.277,8.277,0,0,1-3.259,3.391,9.487,9.487,0,0,1-4.747,1.218ZM-92.275-5.28V8.173h2.007a4.509,4.509,0,0,0,3.723-1.592A7.192,7.192,0,0,0-85.23,2.028V.962A7.307,7.307,0,0,0-86.5-3.695,4.494,4.494,0,0,0-90.227-5.28Zm20.9,17.065a7.352,7.352,0,0,1-5.363-2.021,7.183,7.183,0,0,1-2.069-5.384V3.993a9.047,9.047,0,0,1,.872-4.034,6.4,6.4,0,0,1,2.471-2.74,6.934,6.934,0,0,1,3.647-.962,6.215,6.215,0,0,1,4.837,1.938,7.873,7.873,0,0,1,1.765,5.495V5.322h-9.536a3.716,3.716,0,0,0,1.17,2.353,3.535,3.535,0,0,0,2.471.886A4.317,4.317,0,0,0-67.5,6.886l1.965,2.2a6,6,0,0,1-2.436,1.986A7.992,7.992,0,0,1-71.376,11.786Zm-.457-12.3a2.5,2.5,0,0,0-1.931.806A4.175,4.175,0,0,0-74.712,2.6h5.564v-.32a2.978,2.978,0,0,0-.72-2.064A2.579,2.579,0,0,0-71.833-.518Zm17,7.889a1.289,1.289,0,0,0-.727-1.156A8.254,8.254,0,0,0-57.9,5.461Q-63.238,4.34-63.238.921a4.115,4.115,0,0,1,1.654-3.329,6.672,6.672,0,0,1,4.325-1.336A7.181,7.181,0,0,1-52.7-2.4a4.231,4.231,0,0,1,1.709,3.488h-4a1.935,1.935,0,0,0-.554-1.419,2.343,2.343,0,0,0-1.73-.561,2.394,2.394,0,0,0-1.564.457A1.442,1.442,0,0,0-59.39.727a1.232,1.232,0,0,0,.63,1.073,6.478,6.478,0,0,0,2.124.706,17.352,17.352,0,0,1,2.519.671Q-50.948,4.34-50.948,7.2a3.906,3.906,0,0,1-1.758,3.315,7.582,7.582,0,0,1-4.54,1.266,7.92,7.92,0,0,1-3.342-.671,5.608,5.608,0,0,1-2.291-1.841,4.277,4.277,0,0,1-.83-2.526h3.792a2.088,2.088,0,0,0,.789,1.633,3.129,3.129,0,0,0,1.965.567,2.9,2.9,0,0,0,1.737-.436A1.357,1.357,0,0,0-54.837,7.371ZM-39.7,11.509a4.441,4.441,0,0,1-.4-1.343,4.84,4.84,0,0,1-3.778,1.619,5.317,5.317,0,0,1-3.647-1.273A4.1,4.1,0,0,1-48.969,7.3,4.232,4.232,0,0,1-47.2,3.647,8.707,8.707,0,0,1-42.1,2.36h1.841V1.5A2.468,2.468,0,0,0-40.8-.159a2.1,2.1,0,0,0-1.682-.623A2.383,2.383,0,0,0-44.062-.3a1.646,1.646,0,0,0-.574,1.329h-4a4.018,4.018,0,0,1,.8-2.408,5.306,5.306,0,0,1,2.27-1.737,8.272,8.272,0,0,1,3.294-.63,6.536,6.536,0,0,1,4.394,1.391,4.866,4.866,0,0,1,1.626,3.91V8.049a7.159,7.159,0,0,0,.6,3.225v.235ZM-43,8.727a3.445,3.445,0,0,0,1.633-.394,2.591,2.591,0,0,0,1.107-1.059V4.7h-1.495q-3,0-3.2,2.076l-.014.235a1.6,1.6,0,0,0,.526,1.232A2.043,2.043,0,0,0-43,8.727ZM-24.762.284A10.867,10.867,0,0,0-26.2.174,2.93,2.93,0,0,0-29.177,1.71v9.8h-4V-3.466H-29.4l.111,1.785a3.706,3.706,0,0,1,3.336-2.062,4.191,4.191,0,0,1,1.246.18Zm10.339,0A10.867,10.867,0,0,0-15.862.174,2.93,2.93,0,0,0-18.838,1.71v9.8h-4V-3.466h3.778l.111,1.785a3.706,3.706,0,0,1,3.336-2.062,4.191,4.191,0,0,1,1.246.18Zm.8,3.6a8.881,8.881,0,0,1,.858-3.972,6.282,6.282,0,0,1,2.471-2.7,7.208,7.208,0,0,1,3.744-.955A6.819,6.819,0,0,1-1.6-1.889,7.443,7.443,0,0,1,.538,3.149L.566,4.173A7.827,7.827,0,0,1-1.358,9.7,6.687,6.687,0,0,1-6.52,11.786,6.72,6.72,0,0,1-11.69,9.71,7.965,7.965,0,0,1-13.62,4.063Zm4,.284a5.6,5.6,0,0,0,.8,3.264,2.648,2.648,0,0,0,2.3,1.13A2.654,2.654,0,0,0-4.25,7.445a6.125,6.125,0,0,0,.817-3.569A5.542,5.542,0,0,0-4.25.632a2.654,2.654,0,0,0-2.3-1.15A2.611,2.611,0,0,0-8.818.625,6.228,6.228,0,0,0-9.62,4.167ZM7.251,11.509H3.237V-9.75H7.251Zm7.515,0H10.753V-9.75h4.014Zm2.671-7.626A8.881,8.881,0,0,1,18.3-.089a6.282,6.282,0,0,1,2.471-2.7,7.208,7.208,0,0,1,3.744-.955,6.819,6.819,0,0,1,4.948,1.855A7.443,7.443,0,0,1,31.6,3.149l.028,1.024A7.827,7.827,0,0,1,29.7,9.7a6.687,6.687,0,0,1-5.162,2.083A6.72,6.72,0,0,1,19.368,9.71a7.965,7.965,0,0,1-1.931-5.647Zm4,.284a5.6,5.6,0,0,0,.8,3.264,2.884,2.884,0,0,0,4.567.014,6.125,6.125,0,0,0,.817-3.569A5.542,5.542,0,0,0,26.807.632a2.654,2.654,0,0,0-2.3-1.15A2.611,2.611,0,0,0,22.24.625,6.228,6.228,0,0,0,21.437,4.167ZM49.561.284A10.867,10.867,0,0,0,48.122.174,2.93,2.93,0,0,0,45.146,1.71v9.8h-4V-3.466h3.778l.111,1.785a3.706,3.706,0,0,1,3.336-2.062,4.191,4.191,0,0,1,1.246.18ZM59.748,11.509a4.442,4.442,0,0,1-.4-1.343,4.84,4.84,0,0,1-3.778,1.619,5.317,5.317,0,0,1-3.647-1.273A4.1,4.1,0,0,1,50.475,7.3a4.232,4.232,0,0,1,1.765-3.654,8.707,8.707,0,0,1,5.1-1.287H59.18V1.5a2.468,2.468,0,0,0-.533-1.661,2.1,2.1,0,0,0-1.682-.623A2.383,2.383,0,0,0,55.381-.3a1.646,1.646,0,0,0-.574,1.329h-4a4.018,4.018,0,0,1,.8-2.408,5.306,5.306,0,0,1,2.27-1.737,8.272,8.272,0,0,1,3.294-.63,6.536,6.536,0,0,1,4.394,1.391,4.866,4.866,0,0,1,1.626,3.91V8.049a7.159,7.159,0,0,0,.6,3.225v.235ZM56.44,8.727a3.445,3.445,0,0,0,1.633-.394A2.591,2.591,0,0,0,59.18,7.274V4.7H57.685q-3,0-3.2,2.076l-.014.235A1.6,1.6,0,0,0,55,8.242,2.043,2.043,0,0,0,56.44,8.727ZM57.962-9.75h4.36L58.488-5.459H55.236ZM79.747,4.16A8.981,8.981,0,0,1,78.176,9.7a5.037,5.037,0,0,1-4.242,2.083,4.665,4.665,0,0,1-3.668-1.578v7.059h-4V-3.466h3.709L70.114-2a4.7,4.7,0,0,1,3.792-1.744,5.071,5.071,0,0,1,4.3,2.048,9.225,9.225,0,0,1,1.536,5.647Zm-4-.291a5.894,5.894,0,0,0-.74-3.225A2.412,2.412,0,0,0,72.854-.491,2.619,2.619,0,0,0,70.266.949V7.08a2.664,2.664,0,0,0,2.616,1.481Q75.747,8.561,75.747,3.869Zm10.7,7.64H82.432V-3.466h4.014ZM82.2-7.342a1.97,1.97,0,0,1,.6-1.481,2.262,2.262,0,0,1,1.64-.581,2.267,2.267,0,0,1,1.633.581,1.958,1.958,0,0,1,.609,1.481,1.964,1.964,0,0,1-.616,1.495,2.272,2.272,0,0,1-1.626.581,2.272,2.272,0,0,1-1.626-.581A1.964,1.964,0,0,1,82.2-7.342ZM89.117,3.91a9.025,9.025,0,0,1,1.571-5.578,5.1,5.1,0,0,1,4.3-2.076A4.587,4.587,0,0,1,98.6-2.11V-9.75h4.014V11.509H99l-.194-1.592a4.707,4.707,0,0,1-3.848,1.868A5.083,5.083,0,0,1,90.715,9.7,9.315,9.315,0,0,1,89.117,3.91Zm4,.3a5.912,5.912,0,0,0,.734,3.23,2.39,2.39,0,0,0,2.131,1.123A2.676,2.676,0,0,0,98.6,6.994V1.076A2.638,2.638,0,0,0,96.009-.491Q93.117-.491,93.117,4.208Zm11.972-.325a8.881,8.881,0,0,1,.858-3.972,6.282,6.282,0,0,1,2.471-2.7,7.208,7.208,0,0,1,3.744-.955,6.819,6.819,0,0,1,4.948,1.855,7.443,7.443,0,0,1,2.138,5.038l.028,1.024A7.827,7.827,0,0,1,117.351,9.7a7.456,7.456,0,0,1-10.332.007,7.965,7.965,0,0,1-1.931-5.647Zm4,.284a5.6,5.6,0,0,0,.8,3.264,2.884,2.884,0,0,0,4.567.014,6.125,6.125,0,0,0,.817-3.569,5.542,5.542,0,0,0-.817-3.244,2.654,2.654,0,0,0-2.3-1.15,2.611,2.611,0,0,0-2.27,1.144A6.228,6.228,0,0,0,109.089,4.167Zm19.086-.256a9.025,9.025,0,0,1,1.571-5.578,5.1,5.1,0,0,1,4.3-2.076,4.587,4.587,0,0,1,3.612,1.633V-9.75h4.014V11.509h-3.612l-.194-1.592a4.707,4.707,0,0,1-3.848,1.868A5.083,5.083,0,0,1,129.773,9.7,9.315,9.315,0,0,1,128.174,3.91Zm4,.3a5.912,5.912,0,0,0,.734,3.23,2.39,2.39,0,0,0,2.131,1.123,2.676,2.676,0,0,0,2.616-1.566V1.076a2.638,2.638,0,0,0-2.588-1.566Q132.174-.491,132.174,4.208Zm19.487,7.577A7.352,7.352,0,0,1,146.3,9.765a7.183,7.183,0,0,1-2.069-5.384V3.993A9.046,9.046,0,0,1,145.1-.041a6.4,6.4,0,0,1,2.471-2.74,6.934,6.934,0,0,1,3.647-.962,6.215,6.215,0,0,1,4.837,1.938,7.873,7.873,0,0,1,1.765,5.495V5.322h-9.536a3.716,3.716,0,0,0,1.17,2.353,3.535,3.535,0,0,0,2.471.886,4.317,4.317,0,0,0,3.612-1.675l1.965,2.2a6,6,0,0,1-2.436,1.986A7.992,7.992,0,0,1,151.662,11.786ZM151.2-.518a2.5,2.5,0,0,0-1.931.806,4.175,4.175,0,0,0-.948,2.308h5.564v-.32a2.978,2.978,0,0,0-.72-2.064A2.579,2.579,0,0,0,151.2-.518Zm24.622,12.027a4.442,4.442,0,0,1-.4-1.343,4.84,4.84,0,0,1-3.778,1.619A5.317,5.317,0,0,1,168,10.512,4.1,4.1,0,0,1,166.554,7.3a4.232,4.232,0,0,1,1.765-3.654,8.707,8.707,0,0,1,5.1-1.287h1.841V1.5a2.468,2.468,0,0,0-.533-1.661,2.1,2.1,0,0,0-1.682-.623A2.383,2.383,0,0,0,171.46-.3a1.646,1.646,0,0,0-.574,1.329h-4a4.018,4.018,0,0,1,.8-2.408,5.306,5.306,0,0,1,2.27-1.737,8.272,8.272,0,0,1,3.294-.63,6.536,6.536,0,0,1,4.394,1.391,4.866,4.866,0,0,1,1.626,3.91V8.049a7.159,7.159,0,0,0,.6,3.225v.235Zm-3.308-2.782a3.445,3.445,0,0,0,1.633-.394,2.591,2.591,0,0,0,1.107-1.059V4.7h-1.495q-3,0-3.2,2.076l-.014.235a1.6,1.6,0,0,0,.526,1.232A2.043,2.043,0,0,0,172.519,8.727ZM195.826,4.16A8.981,8.981,0,0,1,194.255,9.7a5.037,5.037,0,0,1-4.242,2.083,4.665,4.665,0,0,1-3.668-1.578v7.059h-4V-3.466h3.709L186.193-2a4.7,4.7,0,0,1,3.792-1.744,5.071,5.071,0,0,1,4.3,2.048,9.225,9.225,0,0,1,1.536,5.647Zm-4-.291a5.894,5.894,0,0,0-.74-3.225,2.412,2.412,0,0,0-2.152-1.135A2.619,2.619,0,0,0,186.346.949V7.08a2.664,2.664,0,0,0,2.616,1.481Q191.826,8.561,191.826,3.869Zm10.7,7.64h-4.014V-9.75h4.014Zm7.515,0h-4.014V-3.466h4.014ZM205.791-7.342a1.97,1.97,0,0,1,.6-1.481,2.262,2.262,0,0,1,1.64-.581,2.267,2.267,0,0,1,1.633.581,1.958,1.958,0,0,1,.609,1.481,1.964,1.964,0,0,1-.616,1.495,2.272,2.272,0,0,1-1.626.581,2.272,2.272,0,0,1-1.626-.581A1.964,1.964,0,0,1,205.791-7.342Zm13.771,15.9a2.623,2.623,0,0,0,1.8-.609,2.134,2.134,0,0,0,.72-1.619h3.751A5.131,5.131,0,0,1,225,9.121a5.48,5.48,0,0,1-2.235,1.965,7,7,0,0,1-3.135.7,6.5,6.5,0,0,1-5.066-2.041,8.079,8.079,0,0,1-1.855-5.64V3.841a7.986,7.986,0,0,1,1.841-5.522A6.426,6.426,0,0,1,219.6-3.743a6.3,6.3,0,0,1,4.505,1.6,5.66,5.66,0,0,1,1.723,4.256h-3.751a2.749,2.749,0,0,0-.72-1.9A2.675,2.675,0,0,0,217.424.5a5.9,5.9,0,0,0-.713,3.306v.416a5.979,5.979,0,0,0,.706,3.327A2.439,2.439,0,0,0,219.562,8.561Zm17.231,2.948a4.442,4.442,0,0,1-.4-1.343,4.84,4.84,0,0,1-3.778,1.619,5.317,5.317,0,0,1-3.647-1.273A4.1,4.1,0,0,1,227.521,7.3a4.232,4.232,0,0,1,1.765-3.654,8.707,8.707,0,0,1,5.1-1.287h1.841V1.5a2.468,2.468,0,0,0-.533-1.661,2.1,2.1,0,0,0-1.682-.623,2.383,2.383,0,0,0-1.585.484,1.646,1.646,0,0,0-.574,1.329h-4a4.018,4.018,0,0,1,.8-2.408,5.306,5.306,0,0,1,2.27-1.737,8.272,8.272,0,0,1,3.294-.63,6.536,6.536,0,0,1,4.394,1.391,4.866,4.866,0,0,1,1.626,3.91V8.049a7.159,7.159,0,0,0,.6,3.225v.235Zm-3.308-2.782a3.445,3.445,0,0,0,1.633-.394,2.591,2.591,0,0,0,1.107-1.059V4.7h-1.495q-3,0-3.2,2.076l-.014.235a1.6,1.6,0,0,0,.526,1.232A2.043,2.043,0,0,0,233.486,8.727Zm16.055-.166a2.624,2.624,0,0,0,1.8-.609,2.134,2.134,0,0,0,.72-1.619h3.751a5.131,5.131,0,0,1-.83,2.789,5.479,5.479,0,0,1-2.235,1.965,7,7,0,0,1-3.135.7,6.5,6.5,0,0,1-5.066-2.041A8.078,8.078,0,0,1,242.69,4.1V3.841a7.986,7.986,0,0,1,1.841-5.522,6.426,6.426,0,0,1,5.052-2.062,6.3,6.3,0,0,1,4.505,1.6,5.66,5.66,0,0,1,1.723,4.256H252.06a2.749,2.749,0,0,0-.72-1.9A2.675,2.675,0,0,0,247.4.5a5.9,5.9,0,0,0-.713,3.306v.416a5.979,5.979,0,0,0,.706,3.327A2.439,2.439,0,0,0,249.541,8.561Zm12.775,2.948H258.3V-3.466h4.014ZM258.066-7.342a1.97,1.97,0,0,1,.6-1.481,2.262,2.262,0,0,1,1.64-.581,2.267,2.267,0,0,1,1.633.581,1.958,1.958,0,0,1,.609,1.481,1.964,1.964,0,0,1-.616,1.495,2.272,2.272,0,0,1-1.626.581,2.272,2.272,0,0,1-1.626-.581A1.964,1.964,0,0,1,258.066-7.342Zm6.92,11.225a8.881,8.881,0,0,1,.858-3.972,6.282,6.282,0,0,1,2.471-2.7,7.208,7.208,0,0,1,3.744-.955,6.819,6.819,0,0,1,4.948,1.855,7.443,7.443,0,0,1,2.138,5.038l.028,1.024A7.827,7.827,0,0,1,277.249,9.7a7.456,7.456,0,0,1-10.332.007,7.965,7.965,0,0,1-1.931-5.647Zm4,.284a5.6,5.6,0,0,0,.8,3.264,2.884,2.884,0,0,0,4.567.014,6.125,6.125,0,0,0,.817-3.569,5.542,5.542,0,0,0-.817-3.244,2.654,2.654,0,0,0-2.3-1.15,2.611,2.611,0,0,0-2.27,1.144A6.228,6.228,0,0,0,268.986,4.167Zm16.332-7.633.125,1.73a5.228,5.228,0,0,1,4.3-2.007,4.345,4.345,0,0,1,3.543,1.4,6.522,6.522,0,0,1,1.19,4.18v9.674h-4V1.931a2.6,2.6,0,0,0-.554-1.848,2.478,2.478,0,0,0-1.841-.574A2.752,2.752,0,0,0,285.553.949v10.56h-4V-3.466ZM304.4,11.786a7.352,7.352,0,0,1-5.363-2.021,7.183,7.183,0,0,1-2.069-5.384V3.993a9.046,9.046,0,0,1,.872-4.034,6.4,6.4,0,0,1,2.47-2.74,6.934,6.934,0,0,1,3.647-.962A6.215,6.215,0,0,1,308.8-1.806a7.874,7.874,0,0,1,1.765,5.495V5.322h-9.536a3.716,3.716,0,0,0,1.17,2.353,3.535,3.535,0,0,0,2.471.886,4.317,4.317,0,0,0,3.612-1.675l1.965,2.2a6,6,0,0,1-2.436,1.986A7.992,7.992,0,0,1,304.4,11.786Zm-.457-12.3a2.5,2.5,0,0,0-1.931.806,4.175,4.175,0,0,0-.948,2.308h5.564v-.32a2.978,2.978,0,0,0-.72-2.064A2.579,2.579,0,0,0,303.947-.518Zm17,7.889a1.289,1.289,0,0,0-.727-1.156,8.254,8.254,0,0,0-2.332-.754q-5.342-1.121-5.342-4.54A4.115,4.115,0,0,1,314.2-2.408a6.672,6.672,0,0,1,4.325-1.336,7.181,7.181,0,0,1,4.56,1.343,4.231,4.231,0,0,1,1.709,3.488h-4a1.935,1.935,0,0,0-.554-1.419,2.343,2.343,0,0,0-1.73-.561,2.394,2.394,0,0,0-1.564.457A1.442,1.442,0,0,0,316.39.727a1.232,1.232,0,0,0,.63,1.073,6.478,6.478,0,0,0,2.124.706,17.351,17.351,0,0,1,2.519.671q3.169,1.163,3.169,4.028a3.906,3.906,0,0,1-1.758,3.315,7.582,7.582,0,0,1-4.54,1.266,7.92,7.92,0,0,1-3.342-.671A5.608,5.608,0,0,1,312.9,9.274a4.277,4.277,0,0,1-.83-2.526h3.792a2.088,2.088,0,0,0,.789,1.633,3.129,3.129,0,0,0,1.965.567,2.9,2.9,0,0,0,1.737-.436A1.357,1.357,0,0,0,320.943,7.371Z" transform="translate(-6560.196 -6743.806)" fill="#fff"/>
      <path id="Path_624868" data-name="Path 624868" d="M-20.589-1.151V-9.3h2.507a3.808,3.808,0,0,1,1.923.484A3.376,3.376,0,0,1-14.835-7.44a4.247,4.247,0,0,1,.476,2.029v.375a4.259,4.259,0,0,1-.467,2.021,3.347,3.347,0,0,1-1.318,1.371,3.837,3.837,0,0,1-1.92.493Zm1.679-6.789V-2.5h.812a1.823,1.823,0,0,0,1.506-.644,2.909,2.909,0,0,0,.532-1.841v-.431A2.955,2.955,0,0,0-16.576-7.3a1.817,1.817,0,0,0-1.506-.641Zm7.371,6.789h-1.623V-7.207h1.623Zm-1.718-7.623a.8.8,0,0,1,.243-.6.915.915,0,0,1,.663-.235.917.917,0,0,1,.66.235.792.792,0,0,1,.246.6.794.794,0,0,1-.249.6.919.919,0,0,1-.658.235.919.919,0,0,1-.658-.235A.794.794,0,0,1-13.257-8.775Zm6.33,5.95a.521.521,0,0,0-.294-.467A3.338,3.338,0,0,0-8.163-3.6q-2.16-.453-2.16-1.836a1.664,1.664,0,0,1,.669-1.346,2.7,2.7,0,0,1,1.749-.54,2.9,2.9,0,0,1,1.844.543,1.711,1.711,0,0,1,.691,1.41H-6.988a.783.783,0,0,0-.224-.574.947.947,0,0,0-.7-.227.968.968,0,0,0-.632.185.583.583,0,0,0-.224.47.5.5,0,0,0,.255.434,2.62,2.62,0,0,0,.859.285,7.017,7.017,0,0,1,1.019.271A1.674,1.674,0,0,1-5.354-2.892a1.58,1.58,0,0,1-.711,1.34A3.066,3.066,0,0,1-7.9-1.04a3.2,3.2,0,0,1-1.352-.271,2.268,2.268,0,0,1-.926-.744,1.73,1.73,0,0,1-.336-1.021h1.534a.844.844,0,0,0,.319.66,1.265,1.265,0,0,0,.795.229,1.171,1.171,0,0,0,.7-.176A.549.549,0,0,0-6.927-2.825Zm5.4,1.785a2.973,2.973,0,0,1-2.169-.817,2.9,2.9,0,0,1-.837-2.177v-.157a3.658,3.658,0,0,1,.353-1.632,2.588,2.588,0,0,1,1-1.108A2.8,2.8,0,0,1-1.7-7.319a2.513,2.513,0,0,1,1.956.784A3.184,3.184,0,0,1,.965-4.314v.66H-2.891a1.5,1.5,0,0,0,.473.951,1.43,1.43,0,0,0,1,.358A1.746,1.746,0,0,0,.042-3.021l.795.89a2.428,2.428,0,0,1-.985.8A3.232,3.232,0,0,1-1.525-1.04ZM-1.71-6.015a1.011,1.011,0,0,0-.781.326,1.688,1.688,0,0,0-.383.933h2.25v-.129A1.2,1.2,0,0,0-.915-5.72,1.043,1.043,0,0,0-1.71-6.015ZM3.372-7.207l.05.7a2.114,2.114,0,0,1,1.741-.812A1.757,1.757,0,0,1,6.6-6.754a2.638,2.638,0,0,1,.481,1.69v3.912H5.46V-5.025a1.049,1.049,0,0,0-.224-.747A1,1,0,0,0,4.491-6a1.113,1.113,0,0,0-1.024.582v4.271H1.85V-7.207ZM6.585-9.676a1.567,1.567,0,0,1-.369,1.061,1.147,1.147,0,0,1-.9.428,1.367,1.367,0,0,1-.378-.048,2.535,2.535,0,0,1-.456-.2,2.461,2.461,0,0,0-.42-.193,1.026,1.026,0,0,0-.28-.036.449.449,0,0,0-.333.14.544.544,0,0,0-.137.4l-.94-.056a1.59,1.59,0,0,1,.367-1.058,1.131,1.131,0,0,1,.9-.437,1.156,1.156,0,0,1,.316.042,3.482,3.482,0,0,1,.484.2,3.147,3.147,0,0,0,.465.2,1.06,1.06,0,0,0,.269.034.472.472,0,0,0,.339-.137.522.522,0,0,0,.143-.395Zm1.466,5.44A3.592,3.592,0,0,1,8.4-5.842a2.54,2.54,0,0,1,1-1.091,2.915,2.915,0,0,1,1.514-.386,2.758,2.758,0,0,1,2,.75,3.01,3.01,0,0,1,.865,2.037l.011.414a3.165,3.165,0,0,1-.778,2.236,2.7,2.7,0,0,1-2.088.842,2.718,2.718,0,0,1-2.09-.84,3.221,3.221,0,0,1-.781-2.284Zm1.618.115A2.264,2.264,0,0,0,9.993-2.8a1.071,1.071,0,0,0,.929.457,1.073,1.073,0,0,0,.918-.451,2.477,2.477,0,0,0,.33-1.443,2.241,2.241,0,0,0-.33-1.312,1.073,1.073,0,0,0-.929-.465,1.056,1.056,0,0,0-.918.462A2.519,2.519,0,0,0,9.669-4.121Zm-39.915,14a3.65,3.65,0,0,1,.635-2.256,2.061,2.061,0,0,1,1.738-.84,1.855,1.855,0,0,1,1.461.66V4.359h1.623v8.6H-26.25l-.078-.644a1.9,1.9,0,0,1-1.556.756,2.056,2.056,0,0,1-1.715-.842A3.767,3.767,0,0,1-30.247,9.884Zm1.618.12a2.391,2.391,0,0,0,.3,1.306.966.966,0,0,0,.862.454,1.082,1.082,0,0,0,1.058-.633V8.737A1.067,1.067,0,0,0-27.459,8.1Q-28.629,8.1-28.629,10Zm7.881,3.064a2.973,2.973,0,0,1-2.169-.817,2.9,2.9,0,0,1-.837-2.177V9.917A3.658,3.658,0,0,1-23.4,8.286a2.588,2.588,0,0,1,1-1.108,2.8,2.8,0,0,1,1.475-.389,2.513,2.513,0,0,1,1.956.784,3.184,3.184,0,0,1,.714,2.222v.66h-3.856a1.5,1.5,0,0,0,.473.951,1.43,1.43,0,0,0,1,.358,1.746,1.746,0,0,0,1.461-.677l.795.89a2.428,2.428,0,0,1-.985.8A3.232,3.232,0,0,1-20.748,13.068Zm-.185-4.976a1.011,1.011,0,0,0-.781.326,1.688,1.688,0,0,0-.383.933h2.25V9.223a1.2,1.2,0,0,0-.291-.835A1.043,1.043,0,0,0-20.933,8.093Zm10.075,4.248a2.028,2.028,0,0,1-1.657.728A1.913,1.913,0,0,1-14,12.509a2.389,2.389,0,0,1-.523-1.64V6.9h1.618v3.917q0,.947.862.947a1.168,1.168,0,0,0,1.131-.572V6.9h1.623v6.056h-1.522Zm6.067-1.058a.521.521,0,0,0-.294-.467,3.338,3.338,0,0,0-.943-.305q-2.16-.453-2.16-1.836A1.664,1.664,0,0,1-7.52,7.329a2.7,2.7,0,0,1,1.749-.54,2.9,2.9,0,0,1,1.844.543,1.711,1.711,0,0,1,.691,1.41H-4.853a.783.783,0,0,0-.224-.574.947.947,0,0,0-.7-.227.968.968,0,0,0-.632.185.583.583,0,0,0-.224.47.5.5,0,0,0,.255.434,2.62,2.62,0,0,0,.859.285A7.017,7.017,0,0,1-4.5,9.587a1.674,1.674,0,0,1,1.282,1.629,1.58,1.58,0,0,1-.711,1.34,3.066,3.066,0,0,1-1.836.512A3.2,3.2,0,0,1-7.117,12.8a2.268,2.268,0,0,1-.926-.744,1.73,1.73,0,0,1-.336-1.021h1.534a.844.844,0,0,0,.319.66,1.265,1.265,0,0,0,.795.229,1.171,1.171,0,0,0,.7-.176A.549.549,0,0,0-4.791,11.283Zm6.241,1.058a2.028,2.028,0,0,1-1.657.728,1.913,1.913,0,0,1-1.486-.56,2.389,2.389,0,0,1-.523-1.64V6.9H-.6v3.917q0,.947.862.947a1.168,1.168,0,0,0,1.131-.572V6.9H3.017v6.056H1.494Zm6.3.616a1.8,1.8,0,0,1-.162-.543,1.957,1.957,0,0,1-1.528.655,2.15,2.15,0,0,1-1.475-.515A1.656,1.656,0,0,1,4,11.255,1.711,1.711,0,0,1,4.71,9.777a3.521,3.521,0,0,1,2.063-.521h.744V8.91A1,1,0,0,0,7.3,8.238a.848.848,0,0,0-.68-.252.964.964,0,0,0-.641.2.665.665,0,0,0-.232.537H4.13a1.625,1.625,0,0,1,.325-.974,2.146,2.146,0,0,1,.918-.7,3.345,3.345,0,0,1,1.332-.255,2.643,2.643,0,0,1,1.777.563A1.968,1.968,0,0,1,9.14,8.932v2.625a2.9,2.9,0,0,0,.241,1.3v.1ZM6.408,11.832a1.393,1.393,0,0,0,.66-.16,1.048,1.048,0,0,0,.448-.428V10.2h-.6q-1.215,0-1.293.84l-.006.1a.648.648,0,0,0,.213.5A.826.826,0,0,0,6.408,11.832Zm7.377-3.414a4.395,4.395,0,0,0-.582-.045,1.185,1.185,0,0,0-1.2.621v3.963H10.382V6.9H11.91l.045.722A1.5,1.5,0,0,1,13.3,6.789a1.7,1.7,0,0,1,.5.073Zm2.485,4.539H14.647V6.9H16.27ZM14.552,5.333a.8.8,0,0,1,.243-.6,1.049,1.049,0,0,1,1.324,0,.855.855,0,0,1,0,1.2,1.037,1.037,0,0,1-1.315,0A.794.794,0,0,1,14.552,5.333Zm2.8,4.539A3.592,3.592,0,0,1,17.7,8.266a2.54,2.54,0,0,1,1-1.091,2.915,2.915,0,0,1,1.514-.386,2.758,2.758,0,0,1,2,.75,3.01,3.01,0,0,1,.865,2.037l.011.414a3.165,3.165,0,0,1-.778,2.236,2.7,2.7,0,0,1-2.088.842,2.718,2.718,0,0,1-2.09-.84,3.221,3.221,0,0,1-.781-2.284Zm1.618.115a2.264,2.264,0,0,0,.325,1.32,1.166,1.166,0,0,0,1.847.006,2.477,2.477,0,0,0,.33-1.443,2.241,2.241,0,0,0-.33-1.312,1.073,1.073,0,0,0-.929-.465,1.056,1.056,0,0,0-.918.462A2.519,2.519,0,0,0,18.968,9.987Z" transform="translate(-6501.005 -6849.391)" fill="#fff"/>
      <path id="Path_624869" data-name="Path 624869" d="M-24.651-4.005v2.871H-26.33V-9.283h3.179a3.678,3.678,0,0,1,1.615.336,2.475,2.475,0,0,1,1.072.954,2.661,2.661,0,0,1,.375,1.408,2.34,2.34,0,0,1-.82,1.889,3.415,3.415,0,0,1-2.27.691Zm0-1.36h1.5a1.475,1.475,0,0,0,1.016-.313,1.14,1.14,0,0,0,.35-.9,1.344,1.344,0,0,0-.353-.968,1.317,1.317,0,0,0-.974-.381h-1.539Zm9.011-.308a4.395,4.395,0,0,0-.582-.045,1.185,1.185,0,0,0-1.2.621v3.963h-1.618V-7.19h1.528l.045.722A1.5,1.5,0,0,1-16.121-7.3a1.7,1.7,0,0,1,.5.073Zm.325,1.455a3.592,3.592,0,0,1,.347-1.606,2.54,2.54,0,0,1,1-1.091A2.915,2.915,0,0,1-12.455-7.3a2.758,2.758,0,0,1,2,.75,3.01,3.01,0,0,1,.865,2.037l.011.414a3.165,3.165,0,0,1-.778,2.236,2.7,2.7,0,0,1-2.088.842,2.718,2.718,0,0,1-2.09-.84,3.221,3.221,0,0,1-.781-2.284ZM-13.7-4.1a2.264,2.264,0,0,0,.325,1.32,1.071,1.071,0,0,0,.929.457,1.073,1.073,0,0,0,.918-.451,2.477,2.477,0,0,0,.33-1.443,2.241,2.241,0,0,0-.33-1.312A1.073,1.073,0,0,0-12.455-6a1.056,1.056,0,0,0-.918.462A2.519,2.519,0,0,0-13.7-4.1Zm7.052-4.576V-7.19H-5.61V-6H-6.645v3.022a.722.722,0,0,0,.129.481.647.647,0,0,0,.493.146,2.579,2.579,0,0,0,.476-.039v1.226a3.33,3.33,0,0,1-.979.146A1.544,1.544,0,0,1-8.263-2.741V-6h-.884V-7.19h.884V-8.679Zm1.517,4.461a3.592,3.592,0,0,1,.347-1.606,2.54,2.54,0,0,1,1-1.091A2.915,2.915,0,0,1-2.268-7.3a2.758,2.758,0,0,1,2,.75A3.01,3.01,0,0,1,.6-4.515L.608-4.1A3.165,3.165,0,0,1-.17-1.865a2.7,2.7,0,0,1-2.088.842,2.718,2.718,0,0,1-2.09-.84,3.221,3.221,0,0,1-.781-2.284Zm1.618.115a2.264,2.264,0,0,0,.325,1.32,1.071,1.071,0,0,0,.929.457,1.073,1.073,0,0,0,.918-.451,2.477,2.477,0,0,0,.33-1.443,2.241,2.241,0,0,0-.33-1.312A1.073,1.073,0,0,0-2.268-6a1.056,1.056,0,0,0-.918.462A2.519,2.519,0,0,0-3.511-4.1ZM3.541-8.679V-7.19H4.577V-6H3.541v3.022A.722.722,0,0,0,3.67-2.5a.647.647,0,0,0,.493.146,2.579,2.579,0,0,0,.476-.039v1.226a3.33,3.33,0,0,1-.979.146A1.544,1.544,0,0,1,1.924-2.741V-6H1.039V-7.19h.884V-8.679ZM7.185-1.134H5.562V-7.19H7.185ZM5.467-8.757a.8.8,0,0,1,.243-.6.915.915,0,0,1,.663-.235.917.917,0,0,1,.66.235.792.792,0,0,1,.246.6.794.794,0,0,1-.249.6.919.919,0,0,1-.658.235.919.919,0,0,1-.658-.235A.794.794,0,0,1,5.467-8.757Zm8.5,4.651a3.632,3.632,0,0,1-.635,2.242,2.037,2.037,0,0,1-1.715.842,1.887,1.887,0,0,1-1.483-.638V1.194H8.517V-7.19h1.5l.056.593A1.9,1.9,0,0,1,11.607-7.3a2.051,2.051,0,0,1,1.741.828,3.73,3.73,0,0,1,.621,2.284Zm-1.618-.118a2.383,2.383,0,0,0-.3-1.3.975.975,0,0,0-.87-.459,1.059,1.059,0,0,0-1.047.582v2.479a1.077,1.077,0,0,0,1.058.6Q12.351-2.326,12.351-4.224Zm2.368.006a3.592,3.592,0,0,1,.347-1.606,2.54,2.54,0,0,1,1-1.091A2.915,2.915,0,0,1,17.579-7.3a2.758,2.758,0,0,1,2,.75,3.01,3.01,0,0,1,.865,2.037l.011.414a3.165,3.165,0,0,1-.778,2.236,2.7,2.7,0,0,1-2.088.842,2.718,2.718,0,0,1-2.09-.84,3.221,3.221,0,0,1-.781-2.284Zm1.618.115a2.264,2.264,0,0,0,.325,1.32,1.071,1.071,0,0,0,.929.457,1.073,1.073,0,0,0,.918-.451,2.477,2.477,0,0,0,.33-1.443,2.241,2.241,0,0,0-.33-1.312A1.073,1.073,0,0,0,17.579-6a1.056,1.056,0,0,0-.918.462A2.519,2.519,0,0,0,16.336-4.1Z" transform="translate(-6501.647 -6896.209)" fill="#fff"/>
      <path id="Path_624872" data-name="Path 624872" d="M-31.744-3.868A2.884,2.884,0,0,1-32.715-1.8a3.41,3.41,0,0,1-2.309.756A3.067,3.067,0,0,1-37.489-2.1a4.326,4.326,0,0,1-.9-2.9v-.5a4.885,4.885,0,0,1,.414-2.071,3.1,3.1,0,0,1,1.184-1.374A3.316,3.316,0,0,1-35-9.414a3.322,3.322,0,0,1,2.272.756,3.1,3.1,0,0,1,1,2.121h-1.679a1.7,1.7,0,0,0-.439-1.145A1.627,1.627,0,0,0-35-8.037a1.427,1.427,0,0,0-1.257.6,3.372,3.372,0,0,0-.428,1.867v.616a3.609,3.609,0,0,0,.4,1.931,1.4,1.4,0,0,0,1.262.61,1.658,1.658,0,0,0,1.161-.355,1.605,1.605,0,0,0,.439-1.1ZM-31-4.237a3.592,3.592,0,0,1,.347-1.606,2.54,2.54,0,0,1,1-1.091,2.915,2.915,0,0,1,1.514-.386,2.758,2.758,0,0,1,2,.75,3.01,3.01,0,0,1,.865,2.037l.011.414a3.165,3.165,0,0,1-.778,2.236,2.7,2.7,0,0,1-2.088.842,2.718,2.718,0,0,1-2.09-.84A3.221,3.221,0,0,1-31-4.164Zm1.618.115a2.264,2.264,0,0,0,.325,1.32,1.071,1.071,0,0,0,.929.457A1.073,1.073,0,0,0-27.21-2.8a2.477,2.477,0,0,0,.33-1.443,2.241,2.241,0,0,0-.33-1.312,1.073,1.073,0,0,0-.929-.465,1.056,1.056,0,0,0-.918.462A2.519,2.519,0,0,0-29.382-4.122Zm6.6-3.087.05.7a2.114,2.114,0,0,1,1.741-.812,1.757,1.757,0,0,1,1.433.565,2.638,2.638,0,0,1,.481,1.69v3.912H-20.69V-5.026a1.049,1.049,0,0,0-.224-.747,1,1,0,0,0-.744-.232,1.113,1.113,0,0,0-1.024.582v4.271H-24.3V-7.209Zm8.211,4.382a.521.521,0,0,0-.294-.467A3.338,3.338,0,0,0-15.8-3.6q-2.16-.453-2.16-1.836a1.664,1.664,0,0,1,.669-1.346,2.7,2.7,0,0,1,1.749-.54,2.9,2.9,0,0,1,1.844.543,1.711,1.711,0,0,1,.691,1.41h-1.618a.783.783,0,0,0-.224-.574.947.947,0,0,0-.7-.227.968.968,0,0,0-.632.185.583.583,0,0,0-.224.47.5.5,0,0,0,.255.434,2.62,2.62,0,0,0,.859.285,7.017,7.017,0,0,1,1.019.271,1.674,1.674,0,0,1,1.282,1.629,1.58,1.58,0,0,1-.711,1.34,3.066,3.066,0,0,1-1.836.512,3.2,3.2,0,0,1-1.352-.271,2.268,2.268,0,0,1-.926-.744,1.73,1.73,0,0,1-.336-1.021h1.534a.844.844,0,0,0,.319.66,1.265,1.265,0,0,0,.795.229,1.171,1.171,0,0,0,.7-.176A.549.549,0,0,0-14.566-2.826Zm4.55-5.871v1.489h1.035v1.187h-1.035V-3a.722.722,0,0,0,.129.481.647.647,0,0,0,.493.146,2.58,2.58,0,0,0,.476-.039v1.226a3.33,3.33,0,0,1-.979.146,1.544,1.544,0,0,1-1.735-1.718V-6.022h-.884V-7.209h.884V-8.7Zm5.34,3.006a4.395,4.395,0,0,0-.582-.045,1.185,1.185,0,0,0-1.2.621v3.963H-8.079V-7.209h1.528l.045.722a1.5,1.5,0,0,1,1.349-.834,1.7,1.7,0,0,1,.5.073Zm4.4,3.924a2.028,2.028,0,0,1-1.657.728A1.913,1.913,0,0,1-3.414-1.6a2.389,2.389,0,0,1-.523-1.64V-7.209H-2.32v3.917q0,.947.862.947A1.168,1.168,0,0,0-.328-2.917V-7.209H1.3v6.056H-.227Zm5.306-.576a1.061,1.061,0,0,0,.728-.246.863.863,0,0,0,.291-.655H7.57a2.075,2.075,0,0,1-.336,1.128,2.216,2.216,0,0,1-.9.795,2.829,2.829,0,0,1-1.268.283,2.629,2.629,0,0,1-2.049-.826,3.267,3.267,0,0,1-.75-2.281v-.106a3.23,3.23,0,0,1,.744-2.233,2.6,2.6,0,0,1,2.043-.834,2.547,2.547,0,0,1,1.822.646,2.289,2.289,0,0,1,.7,1.721H6.053a1.112,1.112,0,0,0-.291-.768.97.97,0,0,0-.739-.3A.974.974,0,0,0,4.17-5.6a2.388,2.388,0,0,0-.288,1.337V-4.1a2.418,2.418,0,0,0,.285,1.345A.986.986,0,0,0,5.034-2.345Zm5.978,0a1.061,1.061,0,0,0,.728-.246.863.863,0,0,0,.291-.655h1.517a2.075,2.075,0,0,1-.336,1.128,2.216,2.216,0,0,1-.9.795,2.829,2.829,0,0,1-1.268.283,2.629,2.629,0,0,1-2.049-.826,3.267,3.267,0,0,1-.75-2.281v-.106a3.23,3.23,0,0,1,.744-2.233,2.6,2.6,0,0,1,2.043-.834,2.547,2.547,0,0,1,1.822.646,2.289,2.289,0,0,1,.7,1.721H12.031a1.112,1.112,0,0,0-.291-.768.97.97,0,0,0-.739-.3.974.974,0,0,0-.854.412,2.388,2.388,0,0,0-.288,1.337V-4.1a2.418,2.418,0,0,0,.285,1.345A.986.986,0,0,0,11.012-2.345Zm5.166,1.192H14.555V-7.209h1.623ZM14.46-8.776a.8.8,0,0,1,.243-.6.915.915,0,0,1,.663-.235.917.917,0,0,1,.66.235.792.792,0,0,1,.246.6.794.794,0,0,1-.249.6.919.919,0,0,1-.658.235.919.919,0,0,1-.658-.235A.794.794,0,0,1,14.46-8.776Zm2.8,4.539a3.592,3.592,0,0,1,.347-1.606,2.54,2.54,0,0,1,1-1.091,2.915,2.915,0,0,1,1.514-.386,2.758,2.758,0,0,1,2,.75,3.01,3.01,0,0,1,.865,2.037L23-4.119a3.165,3.165,0,0,1-.778,2.236,2.7,2.7,0,0,1-2.088.842,2.718,2.718,0,0,1-2.09-.84,3.221,3.221,0,0,1-.781-2.284Zm1.618.115A2.264,2.264,0,0,0,19.2-2.8a1.071,1.071,0,0,0,.929.457,1.073,1.073,0,0,0,.918-.451,2.477,2.477,0,0,0,.33-1.443,2.241,2.241,0,0,0-.33-1.312,1.073,1.073,0,0,0-.929-.465,1.056,1.056,0,0,0-.918.462A2.519,2.519,0,0,0,18.876-4.122ZM20.437-9.75H22.2L20.65-8.015H19.335ZM25.48-7.209l.05.7a2.114,2.114,0,0,1,1.741-.812,1.757,1.757,0,0,1,1.433.565,2.638,2.638,0,0,1,.481,1.69v3.912H27.568V-5.026a1.049,1.049,0,0,0-.224-.747,1,1,0,0,0-.744-.232,1.113,1.113,0,0,0-1.024.582v4.271H23.958V-7.209Z" transform="translate(-6360.37 -6842.141)" fill="#fff"/>
      <path id="Path_624873" data-name="Path 624873" d="M-23.818-7.942h-2.5v6.789h-1.679V-7.942h-2.463V-9.3h6.638Zm3.89,2.25a4.395,4.395,0,0,0-.582-.045,1.185,1.185,0,0,0-1.2.621v3.963h-1.618V-7.209H-21.8l.045.722a1.5,1.5,0,0,1,1.349-.834,1.7,1.7,0,0,1,.5.073Zm4.119,4.539a1.8,1.8,0,0,1-.162-.543,1.957,1.957,0,0,1-1.528.655,2.15,2.15,0,0,1-1.475-.515,1.656,1.656,0,0,1-.585-1.3,1.711,1.711,0,0,1,.714-1.478,3.521,3.521,0,0,1,2.063-.521h.744V-5.2a1,1,0,0,0-.215-.672.848.848,0,0,0-.68-.252.964.964,0,0,0-.641.2.665.665,0,0,0-.232.537h-1.618a1.625,1.625,0,0,1,.325-.974,2.146,2.146,0,0,1,.918-.7,3.345,3.345,0,0,1,1.332-.255,2.643,2.643,0,0,1,1.777.563,1.968,1.968,0,0,1,.658,1.581v2.625a2.9,2.9,0,0,0,.241,1.3v.1Zm-1.338-1.125a1.393,1.393,0,0,0,.66-.16,1.048,1.048,0,0,0,.448-.428V-3.907h-.6q-1.215,0-1.293.84l-.006.1a.648.648,0,0,0,.213.5A.826.826,0,0,0-17.146-2.278Zm5.463-4.931.05.7a2.114,2.114,0,0,1,1.741-.812,1.757,1.757,0,0,1,1.433.565,2.638,2.638,0,0,1,.481,1.69v3.912H-9.6V-5.026a1.049,1.049,0,0,0-.224-.747,1,1,0,0,0-.744-.232,1.113,1.113,0,0,0-1.024.582v4.271h-1.618V-7.209Zm8.211,4.382a.521.521,0,0,0-.294-.467A3.338,3.338,0,0,0-4.71-3.6q-2.16-.453-2.16-1.836A1.664,1.664,0,0,1-6.2-6.781a2.7,2.7,0,0,1,1.749-.54,2.9,2.9,0,0,1,1.844.543,1.711,1.711,0,0,1,.691,1.41H-3.534a.783.783,0,0,0-.224-.574.947.947,0,0,0-.7-.227.968.968,0,0,0-.632.185.583.583,0,0,0-.224.47.5.5,0,0,0,.255.434,2.62,2.62,0,0,0,.859.285,7.017,7.017,0,0,1,1.019.271A1.674,1.674,0,0,1-1.9-2.894a1.58,1.58,0,0,1-.711,1.34,3.066,3.066,0,0,1-1.836.512A3.2,3.2,0,0,1-5.8-1.312a2.268,2.268,0,0,1-.926-.744A1.73,1.73,0,0,1-7.06-3.078h1.534a.844.844,0,0,0,.319.66,1.265,1.265,0,0,0,.795.229,1.171,1.171,0,0,0,.7-.176A.549.549,0,0,0-3.473-2.826ZM.848-1.153H-.775V-7.209H.848ZM-.87-8.776a.8.8,0,0,1,.243-.6A.915.915,0,0,1,.037-9.61a.917.917,0,0,1,.66.235.792.792,0,0,1,.246.6.794.794,0,0,1-.249.6.919.919,0,0,1-.658.235.919.919,0,0,1-.658-.235A.794.794,0,0,1-.87-8.776ZM4.7-2.345a1.061,1.061,0,0,0,.728-.246.863.863,0,0,0,.291-.655H7.234A2.075,2.075,0,0,1,6.9-2.118a2.216,2.216,0,0,1-.9.795,2.829,2.829,0,0,1-1.268.283,2.629,2.629,0,0,1-2.049-.826,3.267,3.267,0,0,1-.75-2.281v-.106a3.23,3.23,0,0,1,.744-2.233,2.6,2.6,0,0,1,2.043-.834,2.547,2.547,0,0,1,1.822.646,2.289,2.289,0,0,1,.7,1.721H5.718a1.112,1.112,0,0,0-.291-.768.97.97,0,0,0-.739-.3.974.974,0,0,0-.854.412,2.388,2.388,0,0,0-.288,1.337V-4.1a2.418,2.418,0,0,0,.285,1.345A.986.986,0,0,0,4.7-2.345ZM9.865-1.153H8.242V-7.209H9.865ZM8.147-8.776a.8.8,0,0,1,.243-.6.915.915,0,0,1,.663-.235.917.917,0,0,1,.66.235.792.792,0,0,1,.246.6.794.794,0,0,1-.249.6.919.919,0,0,1-.658.235A.919.919,0,0,1,8.4-8.172.794.794,0,0,1,8.147-8.776Zm2.8,4.539a3.592,3.592,0,0,1,.347-1.606,2.54,2.54,0,0,1,1-1.091,2.915,2.915,0,0,1,1.514-.386,2.758,2.758,0,0,1,2,.75,3.01,3.01,0,0,1,.865,2.037l.011.414A3.165,3.165,0,0,1,15.9-1.883a2.7,2.7,0,0,1-2.088.842,2.718,2.718,0,0,1-2.09-.84,3.221,3.221,0,0,1-.781-2.284Zm1.618.115a2.264,2.264,0,0,0,.325,1.32,1.071,1.071,0,0,0,.929.457,1.073,1.073,0,0,0,.918-.451,2.477,2.477,0,0,0,.33-1.443,2.241,2.241,0,0,0-.33-1.312,1.073,1.073,0,0,0-.929-.465,1.056,1.056,0,0,0-.918.462A2.519,2.519,0,0,0,12.563-4.122ZM14.124-9.75h1.763l-1.55,1.735H13.022Zm5.043,2.541.05.7a2.114,2.114,0,0,1,1.741-.812,1.757,1.757,0,0,1,1.433.565,2.638,2.638,0,0,1,.481,1.69v3.912H21.255V-5.026a1.049,1.049,0,0,0-.224-.747,1,1,0,0,0-.744-.232,1.113,1.113,0,0,0-1.024.582v4.271H17.645V-7.209Z" transform="translate(-6253.219 -6842.141)" fill="#fff"/>
      <path id="Path_624874" data-name="Path 624874" d="M1.679,5.726V8.6H0V.448H3.179A3.678,3.678,0,0,1,4.794.784a2.475,2.475,0,0,1,1.072.954,2.661,2.661,0,0,1,.375,1.408,2.34,2.34,0,0,1-.82,1.889,3.415,3.415,0,0,1-2.27.691Zm0-1.36h1.5a1.475,1.475,0,0,0,1.016-.313,1.14,1.14,0,0,0,.35-.9,1.344,1.344,0,0,0-.353-.968,1.317,1.317,0,0,0-.974-.381H1.679Zm9.011-.308a4.395,4.395,0,0,0-.582-.045,1.185,1.185,0,0,0-1.2.621V8.6H7.287V2.541H8.815l.045.722a1.5,1.5,0,0,1,1.349-.834,1.7,1.7,0,0,1,.5.073Zm4.4,3.924a2.028,2.028,0,0,1-1.657.728,1.913,1.913,0,0,1-1.486-.56,2.389,2.389,0,0,1-.523-1.64V2.541h1.618V6.458q0,.947.862.947a1.168,1.168,0,0,0,1.131-.572V2.541h1.623V8.6H15.14Zm5.575.728A2.973,2.973,0,0,1,18.5,7.892a2.9,2.9,0,0,1-.837-2.177V5.558a3.658,3.658,0,0,1,.353-1.632,2.588,2.588,0,0,1,1-1.108,2.8,2.8,0,0,1,1.475-.389,2.513,2.513,0,0,1,1.956.784,3.184,3.184,0,0,1,.714,2.222V6.1H19.3a1.5,1.5,0,0,0,.473.951,1.43,1.43,0,0,0,1,.358,1.746,1.746,0,0,0,1.461-.677l.795.89a2.428,2.428,0,0,1-.985.8A3.232,3.232,0,0,1,20.67,8.709Zm-.185-4.976a1.011,1.011,0,0,0-.781.326,1.688,1.688,0,0,0-.383.933h2.25V4.863a1.2,1.2,0,0,0-.291-.835A1.043,1.043,0,0,0,20.485,3.733Zm9.05,1.892a3.667,3.667,0,0,1-.621,2.27,2.058,2.058,0,0,1-1.735.814,1.891,1.891,0,0,1-1.573-.756l-.073.644H24.078V0H25.7V3.084a1.842,1.842,0,0,1,1.472-.655,2.075,2.075,0,0,1,1.738.814,3.672,3.672,0,0,1,.63,2.292Zm-1.618-.118a2.409,2.409,0,0,0-.291-1.34.984.984,0,0,0-.868-.423,1.067,1.067,0,0,0-1.063.632v2.39a1.081,1.081,0,0,0,1.075.638,1,1,0,0,0,1.03-.772A3.984,3.984,0,0,0,27.918,5.507ZM34.041,8.6a1.8,1.8,0,0,1-.162-.543,1.957,1.957,0,0,1-1.528.655,2.15,2.15,0,0,1-1.475-.515,1.656,1.656,0,0,1-.585-1.3A1.711,1.711,0,0,1,31,5.418,3.521,3.521,0,0,1,33.067,4.9h.744V4.55a1,1,0,0,0-.215-.672.848.848,0,0,0-.68-.252.964.964,0,0,0-.641.2.665.665,0,0,0-.232.537H30.426a1.625,1.625,0,0,1,.325-.974,2.146,2.146,0,0,1,.918-.7A3.345,3.345,0,0,1,33,2.429a2.643,2.643,0,0,1,1.777.563,1.968,1.968,0,0,1,.658,1.581V7.2a2.9,2.9,0,0,0,.241,1.3v.1ZM32.7,7.472a1.393,1.393,0,0,0,.66-.16,1.048,1.048,0,0,0,.448-.428V5.843h-.6q-1.215,0-1.293.84l-.006.1a.648.648,0,0,0,.213.5A.826.826,0,0,0,32.7,7.472Z" transform="translate(-6470.982 -6806.924) rotate(-60)" fill="#fff"/>
      <path id="Path_624875" data-name="Path 624875" d="M3.017,5.731H1.679V8.715H0V.565H3.028a3.423,3.423,0,0,1,2.228.644,2.221,2.221,0,0,1,.784,1.819,2.507,2.507,0,0,1-.361,1.391,2.462,2.462,0,0,1-1.094.887l1.763,3.33v.078h-1.8ZM1.679,4.371H3.034a1.387,1.387,0,0,0,.979-.322,1.15,1.15,0,0,0,.347-.887,1.231,1.231,0,0,0-.327-.907,1.361,1.361,0,0,0-1-.33H1.679ZM10,8.827a2.973,2.973,0,0,1-2.169-.817,2.9,2.9,0,0,1-.837-2.177V5.675a3.658,3.658,0,0,1,.353-1.632,2.588,2.588,0,0,1,1-1.108,2.8,2.8,0,0,1,1.475-.389,2.513,2.513,0,0,1,1.956.784,3.184,3.184,0,0,1,.714,2.222v.66H8.631a1.5,1.5,0,0,0,.473.951,1.43,1.43,0,0,0,1,.358,1.746,1.746,0,0,0,1.461-.677l.795.89a2.428,2.428,0,0,1-.985.8A3.232,3.232,0,0,1,10,8.827ZM9.812,3.851a1.011,1.011,0,0,0-.781.326,1.688,1.688,0,0,0-.383.933H10.9V4.981a1.2,1.2,0,0,0-.291-.835A1.043,1.043,0,0,0,9.812,3.851ZM13.8,8.715V3.845h-.9V2.659h.9v-.28a2.271,2.271,0,0,1,.7-1.76A2.826,2.826,0,0,1,16.45,0a6.47,6.47,0,0,1,1.836.33L18.05,1.668a7.163,7.163,0,0,0-.851-.21,4.18,4.18,0,0,0-.649-.048q-1.131,0-1.131,1v.246h1.192V3.845H15.42V8.715Zm5.244,0H17.418V2.659h1.623Zm2.827-6.056.05.7a2.114,2.114,0,0,1,1.741-.812,1.757,1.757,0,0,1,1.433.565,2.638,2.638,0,0,1,.481,1.69V8.715H23.955V4.841a1.049,1.049,0,0,0-.224-.747,1,1,0,0,0-.744-.232,1.113,1.113,0,0,0-1.024.582V8.715H20.345V2.659Zm8.44,6.056a1.8,1.8,0,0,1-.162-.543,1.957,1.957,0,0,1-1.528.655,2.15,2.15,0,0,1-1.475-.515,1.656,1.656,0,0,1-.585-1.3,1.711,1.711,0,0,1,.714-1.478,3.521,3.521,0,0,1,2.063-.521h.744V4.668A1,1,0,0,0,29.863,4a.848.848,0,0,0-.68-.252.964.964,0,0,0-.641.2.665.665,0,0,0-.232.537H26.692a1.625,1.625,0,0,1,.325-.974,2.146,2.146,0,0,1,.918-.7,3.345,3.345,0,0,1,1.332-.255,2.643,2.643,0,0,1,1.777.563A1.968,1.968,0,0,1,31.7,4.69V7.315a2.9,2.9,0,0,0,.241,1.3v.1ZM28.97,7.59a1.393,1.393,0,0,0,.66-.16A1.048,1.048,0,0,0,30.079,7V5.961h-.6q-1.215,0-1.293.84l-.006.1a.648.648,0,0,0,.213.5A.826.826,0,0,0,28.97,7.59Zm7.377-3.414a4.395,4.395,0,0,0-.582-.045,1.185,1.185,0,0,0-1.2.621V8.715H32.944V2.659h1.528l.045.722a1.5,1.5,0,0,1,1.349-.834,1.7,1.7,0,0,1,.5.073Z" transform="translate(-6556.78 -6839.513) rotate(60)" fill="#fff"/>
    </g>
  </g>
</svg>
