<svg xmlns="http://www.w3.org/2000/svg" xmlns:xlink="http://www.w3.org/1999/xlink" width="536" height="344" viewBox="0 0 536 344">
  <defs>
    <filter id="Rectángulo_300539" x="0" y="0" width="536" height="344" filterUnits="userSpaceOnUse">
      <feOffset dy="3" input="SourceAlpha"/>
      <feGaussianBlur stdDeviation="3" result="blur"/>
      <feFlood flood-opacity="0.161"/>
      <feComposite operator="in" in2="blur"/>
      <feComposite in="SourceGraphic"/>
    </filter>
  </defs>
  <g id="Grupo_897745" data-name="Grupo 897745" transform="translate(-214 -6646.413)">
    <g id="Grupo_894074" data-name="Grupo 894074" transform="translate(-41.666 4074.413)">
      <g transform="matrix(1, 0, 0, 1, 255.67, 2572)" filter="url(#Rectángulo_300539)">
        <rect id="Rectángulo_300539-2" data-name="Rectángulo 300539" width="518" height="326" rx="20" transform="translate(9 6)" fill="#fff"/>
      </g>
    </g>
    <g id="Grupo_894638" data-name="Grupo 894638" transform="translate(81.488 6559.484)">
      <g id="Grupo_894636" data-name="Grupo 894636" transform="translate(155.34 170.402)">
        <g id="Grupo_894607" data-name="Grupo 894607" transform="translate(159.143 157.384)">
          <path id="Trazado_623014" data-name="Trazado 623014" d="M1334.1,1334.457a1.124,1.124,0,0,0-1.053-.756,1.1,1.1,0,0,0-1.161,1.062c0,.558.387.81,1.161,1.053,1.2.378,2.088.846,2.088,1.971a1.92,1.92,0,0,1-2.088,1.863,2.015,2.015,0,0,1-2.07-1.719h.684a1.37,1.37,0,0,0,1.386,1.062,1.261,1.261,0,0,0,1.4-1.206c0-.594-.387-.918-1.4-1.233-1.2-.369-1.845-.819-1.845-1.791a1.719,1.719,0,0,1,1.845-1.719,1.74,1.74,0,0,1,1.773,1.413Z" transform="translate(-1330.977 -1333.044)" fill="#8394c5"/>
          <path id="Trazado_623015" data-name="Trazado 623015" d="M1372.445,1333.775a2,2,0,1,1,0,4H1371v2.43h-.657v-6.426Zm0,3.366a1.368,1.368,0,0,0,0-2.736H1371v2.736Z" transform="translate(-1365.011 -1333.676)" fill="#8394c5"/>
          <path id="Trazado_623016" data-name="Trazado 623016" d="M1408.37,1333.775h2.106a1.918,1.918,0,0,1,2.052,2,1.873,1.873,0,0,1-1.476,1.935l1.962,2.493h-.874l-1.917-2.43h-1.2v2.43h-.657Zm2.106,3.366a1.368,1.368,0,0,0,0-2.736h-1.449v2.736Z" transform="translate(-1397.893 -1333.676)" fill="#8394c5"/>
          <rect id="Rectángulo_301235" data-name="Rectángulo 301235" width="0.657" height="6.426" transform="translate(15.931 0.099)" fill="#8394c5"/>
          <path id="Trazado_623017" data-name="Trazado 623017" d="M1464.153,1333.776h.792l4.023,5.526v-5.526h.657v6.426h-.792l-4.023-5.526v5.526h-.657Z" transform="translate(-1446.125 -1333.677)" fill="#8394c5"/>
          <path id="Trazado_623018" data-name="Trazado 623018" d="M1512.738,1334.405h-2.178v-.63h5v.63h-2.169v5.8h-.657Z" transform="translate(-1486.25 -1333.677)" fill="#8394c5"/>
          <path id="Trazado_623019" data-name="Trazado 623019" d="M1573.458,1333.775h2.295a1.47,1.47,0,0,1,1.584,1.53,1.515,1.515,0,0,1-.549,1.17,1.983,1.983,0,0,1,1.017,1.728,1.913,1.913,0,0,1-2.052,2h-2.295Zm2.295,2.43a.9.9,0,0,0,0-1.8h-1.638v1.8Zm0,3.366a1.368,1.368,0,1,0,0-2.736h-1.638v2.736Z" transform="translate(-1540.634 -1333.676)" fill="#8394c5"/>
          <path id="Trazado_623020" data-name="Trazado 623020" d="M1610.122,1333.775h.711l2.889,6.426h-.711l-1.152-2.556H1609.1l-1.152,2.556h-.711Zm.36.792-1.107,2.448h2.205Z" transform="translate(-1569.837 -1333.676)" fill="#8394c5"/>
          <path id="Trazado_623021" data-name="Trazado 623021" d="M1663.386,1338.211a3.291,3.291,0,1,1-.018-3.384h-.819a2.654,2.654,0,1,0-2.025,4.347,2.6,2.6,0,0,0,2.043-.963Z" transform="translate(-1613.012 -1333.216)" fill="#8394c5"/>
          <path id="Trazado_623022" data-name="Trazado 623022" d="M1711.087,1333.776h.657v3.033l2.79-3.033h.819l-2.547,2.826,3.078,3.6h-.819l-2.691-3.114-.63.7v2.412h-.657Z" transform="translate(-1659.632 -1333.677)" fill="#8394c5"/>
          <path id="Trazado_623023" data-name="Trazado 623023" d="M1751.847,1333.776h.657v5.8h2.961v.63h-3.618Z" transform="translate(-1694.875 -1333.677)" fill="#8394c5"/>
          <path id="Trazado_623024" data-name="Trazado 623024" d="M1786.268,1336.366a3.349,3.349,0,1,1-3.348-3.258A3.344,3.344,0,0,1,1786.268,1336.366Zm-.684,0a2.664,2.664,0,1,0-2.664,2.673A2.64,2.64,0,0,0,1785.584,1336.366Z" transform="translate(-1718.847 -1333.099)" fill="#8394c5"/>
          <path id="Trazado_623025" data-name="Trazado 623025" d="M1833.36,1336.434a3.333,3.333,0,0,1,6.228-1.575h-.738a2.717,2.717,0,0,0-2.133-1.026,2.637,2.637,0,1,0,2.25,4.05v-1.449h.657v3.249h-.657v-.783a3.358,3.358,0,0,1-5.607-2.466Z" transform="translate(-1765.354 -1333.158)" fill="#8394c5"/>
        </g>
        <g id="Grupo_894611" data-name="Grupo 894611" transform="translate(390.042 68.832)">
          <g id="Grupo_894609" data-name="Grupo 894609" transform="translate(11.798)">
            <g id="Grupo_894608" data-name="Grupo 894608">
              <path id="Trazado_623026" data-name="Trazado 623026" d="M3232.644,691.469a6.1,6.1,0,0,0-4.863-4.641l0-.875a3.672,3.672,0,0,0,2.511-3.458,3.6,3.6,0,0,0-3.631-3.608,3.678,3.678,0,0,0-3.657,3.65,3.587,3.587,0,0,0,2.487,3.429l0,.875a6.251,6.251,0,0,0-4.9,4.7,1.11,1.11,0,0,0,1.086,1.369l9.866-.057A1.133,1.133,0,0,0,3232.644,691.469Z" transform="translate(-3207.475 -678.887)" fill="#21cbae"/>
              <path id="Trazado_623027" data-name="Trazado 623027" d="M3135.935,731.45a6.1,6.1,0,0,0-4.863-4.641l0-.875a3.672,3.672,0,0,0,2.512-3.458,3.6,3.6,0,0,0-3.632-3.608,3.678,3.678,0,0,0-3.657,3.65,3.588,3.588,0,0,0,2.487,3.429l0,.875a6.251,6.251,0,0,0-4.9,4.7,1.11,1.11,0,0,0,1.087,1.369l9.866-.057A1.133,1.133,0,0,0,3135.935,731.45Z" transform="translate(-3123.857 -713.456)" fill="#dee4f3"/>
            </g>
            <path id="Trazado_623028" data-name="Trazado 623028" d="M3334.138,731.45a6.1,6.1,0,0,0-4.863-4.641l0-.875a3.672,3.672,0,0,0,2.511-3.458,3.6,3.6,0,0,0-3.631-3.608,3.678,3.678,0,0,0-3.657,3.65,3.588,3.588,0,0,0,2.487,3.429l0,.875a6.251,6.251,0,0,0-4.9,4.7,1.11,1.11,0,0,0,1.086,1.369l9.866-.057A1.133,1.133,0,0,0,3334.138,731.45Z" transform="translate(-3295.23 -713.456)" fill="#dee4f3"/>
          </g>
          <g id="Grupo_894610" data-name="Grupo 894610" transform="translate(0 25.083)">
            <path id="Trazado_623029" data-name="Trazado 623029" d="M3036.7,864.708a11.213,11.213,0,0,1,1.666-.126,3.474,3.474,0,0,1,2.456.756,2.794,2.794,0,0,1,.855,2.178,3.208,3.208,0,0,1-.873,2.358,3.739,3.739,0,0,1-2.683.873,12.718,12.718,0,0,1-1.422-.072Zm.783,5.364a4.94,4.94,0,0,0,.792.045,2.332,2.332,0,0,0,2.583-2.574,2.164,2.164,0,0,0-2.457-2.34,4.43,4.43,0,0,0-.918.081Z" transform="translate(-3036.701 -864.528)" fill="#8394c5"/>
            <path id="Trazado_623030" data-name="Trazado 623030" d="M3078.1,869.074l-.63,1.908h-.81l2.061-6.066h.945l2.071,6.066h-.837l-.648-1.908Zm1.99-.612-.594-1.746c-.135-.4-.225-.756-.315-1.107-.108.36-.207.729-.324,1.1l-.594,1.755Z" transform="translate(-3071.25 -864.817)" fill="#8394c5"/>
            <rect id="Rectángulo_301236" data-name="Rectángulo 301236" width="0.784" height="6.066" transform="translate(11.376 0.099)" fill="#8394c5"/>
            <path id="Trazado_623031" data-name="Trazado 623031" d="M3136.636,864.916h.783v5.409h2.592v.657h-3.375Z" transform="translate(-3123.108 -864.817)" fill="#8394c5"/>
            <path id="Trazado_623032" data-name="Trazado 623032" d="M3160.163,870.982v-2.574l-1.917-3.492h.89l.855,1.674c.233.459.415.828.6,1.251.189-.4.4-.792.63-1.251l.873-1.674h.891l-2.034,3.483v2.583Z" transform="translate(-3141.793 -864.817)" fill="#8394c5"/>
            <path id="Trazado_623033" data-name="Trazado 623033" d="M3210.43,869.4a2.777,2.777,0,0,0,1.4.4c.8,0,1.269-.423,1.269-1.035,0-.567-.324-.891-1.143-1.206-.99-.351-1.6-.864-1.6-1.719a1.747,1.747,0,0,1,1.962-1.647,2.762,2.762,0,0,1,1.342.3l-.216.639a2.421,2.421,0,0,0-1.152-.288c-.828,0-1.143.495-1.143.909,0,.567.368.846,1.206,1.17,1.026.4,1.548.891,1.548,1.782,0,.936-.693,1.746-2.125,1.746a3.136,3.136,0,0,1-1.548-.387Z" transform="translate(-3186.741 -864.185)" fill="#8394c5"/>
            <path id="Trazado_623034" data-name="Trazado 623034" d="M3242,865.582h-1.845v-.666h4.491v.666h-1.854v5.4H3242Z" transform="translate(-3212.615 -864.817)" fill="#8394c5"/>
            <path id="Trazado_623035" data-name="Trazado 623035" d="M3271.38,869.074l-.63,1.908h-.81l2.061-6.066h.945l2.071,6.066h-.837l-.648-1.908Zm1.989-.612-.594-1.746c-.135-.4-.225-.756-.316-1.107-.108.36-.207.729-.324,1.1l-.594,1.755Z" transform="translate(-3238.367 -864.817)" fill="#8394c5"/>
            <path id="Trazado_623036" data-name="Trazado 623036" d="M3314.021,870.982v-6.066h.855l1.944,3.069a17.345,17.345,0,0,1,1.09,1.971c-.054-.819-.072-1.557-.072-2.5v-2.538h.738v6.066h-.792l-1.927-3.078a19.093,19.093,0,0,1-1.134-2.025l-.028.009c.046.765.063,1.494.063,2.5v2.592Z" transform="translate(-3276.481 -864.817)" fill="#8394c5"/>
            <path id="Trazado_623037" data-name="Trazado 623037" d="M3357.773,864.708a11.2,11.2,0,0,1,1.665-.126,3.477,3.477,0,0,1,2.457.756,2.8,2.8,0,0,1,.855,2.178,3.206,3.206,0,0,1-.873,2.358,3.739,3.739,0,0,1-2.682.873,12.72,12.72,0,0,1-1.422-.072Zm.783,5.364a4.944,4.944,0,0,0,.792.045,2.332,2.332,0,0,0,2.583-2.574,2.163,2.163,0,0,0-2.456-2.34,4.44,4.44,0,0,0-.918.081Z" transform="translate(-3314.31 -864.528)" fill="#8394c5"/>
            <path id="Trazado_623038" data-name="Trazado 623038" d="M3416.872,864.916v3.591c0,1.359.6,1.935,1.413,1.935.9,0,1.476-.594,1.476-1.935v-3.591h.792v3.537c0,1.863-.98,2.628-2.3,2.628-1.242,0-2.178-.711-2.178-2.592v-3.573Z" transform="translate(-3364.724 -864.817)" fill="#8394c5"/>
            <path id="Trazado_623039" data-name="Trazado 623039" d="M3459.164,864.7a9.081,9.081,0,0,1,1.5-.117,2.494,2.494,0,0,1,1.7.5,1.632,1.632,0,0,1,.531,1.269,1.787,1.787,0,0,1-.468,1.3,2.514,2.514,0,0,1-1.854.666,2.712,2.712,0,0,1-.63-.054v2.43h-.783Zm.783,2.925a2.637,2.637,0,0,0,.648.063c.945,0,1.521-.459,1.521-1.3,0-.8-.567-1.188-1.431-1.188a3.293,3.293,0,0,0-.738.063Z" transform="translate(-3401.976 -864.528)" fill="#8394c5"/>
          </g>
        </g>
        <path id="Trazado_623040" data-name="Trazado 623040" d="M2872.09,218.067,2855.948,233.4l-16.134-15.332h7.947c0-.2,0-11.058-.008-11.253a20.873,20.873,0,0,0-41.738.587c0,.176,0,.345.008.513a78.174,78.174,0,0,0-13.127-10.328c-.473-.3-.946-.585-1.427-.866a36.992,36.992,0,0,1,72.407,10.179c0,.167,0,11,0,11.168Z" transform="translate(-2434.622 -170.402)" fill="#21cbae"/>
        <path id="Trazado_623041" data-name="Trazado 623041" d="M2092.312,349.8l-12.924-10.159,14.734-11.583a65.808,65.808,0,0,0-61.42,63.377l.005,4.7a65.463,65.463,0,0,0,13.143,37.122h32.5a44.429,44.429,0,0,1-24.173-37.122l-.005-4.7A44.42,44.42,0,0,1,2092.312,349.8Z" transform="translate(-1778.569 -306.719)" fill="#0b5999"/>
        <path id="Trazado_623042" data-name="Trazado 623042" d="M2773.425,1118.237v-8.682h-67.876a70.289,70.289,0,0,0,25.518-17.014q2.09-2.175,3.966-4.5h38.393v-8.124l24.376,19.158Z" transform="translate(-2360.333 -956.801)" fill="#0b5999"/>
        <path id="Trazado_623043" data-name="Trazado 623043" d="M2510.908,343.057l-.007,4.693a65.806,65.806,0,0,1-62.782,63.275h-.35l13.244-10.408-14.122-11.1a42.99,42.99,0,0,0,10.772-1.679,44.417,44.417,0,0,0,31.759-40.088l.014-4.693a44.444,44.444,0,0,0-31.345-40.188v7.55l-24.372-19.158,24.372-19.158v8.522C2487.757,286.211,2509.9,311.891,2510.908,343.057Z" transform="translate(-2125.301 -258.336)" fill="#ef3c79"/>
        <path id="Trazado_623044" data-name="Trazado 623044" d="M2114.891,1099.087l-24.375-19.157v8.125l-47.639.021,14.04,11.011-14.04,10.44,47.639.035v8.682Z" transform="translate(-1787.367 -956.81)" fill="#cba225"/>
        <path id="Trazado_623045" data-name="Trazado 623045" d="M340.166,1140.068l28.331-.005v21.461l-34.982-.005-.03-1.15a1.163,1.163,0,0,1,.425-.905,18.035,18.035,0,0,0,6.255-19.4Z" transform="translate(-309.371 -1008.803)" fill="#fecb2f"/>
        <rect id="Rectángulo_301237" data-name="Rectángulo 301237" width="15.151" height="21.481" transform="translate(158.401 131.255)" fill="#fecb2f"/>
        <path id="Trazado_623046" data-name="Trazado 623046" d="M1793.106,1118.24v-8.685l-17.385,0v-21.5l17.385-.005v-8.125l24.376,19.156Z" transform="translate(-1556.374 -956.804)" fill="#fecb2f"/>
        <path id="Trazado_623047" data-name="Trazado 623047" d="M2313.146,589.766a36.808,36.808,0,0,0,0-16.606h-6.891a29.692,29.692,0,0,0-2.528-6.072l4.873-4.874a36.56,36.56,0,0,0-11.733-11.748l-4.884,4.879a29.737,29.737,0,0,0-6.072-2.528v-6.891a36.814,36.814,0,0,0-16.606,0v6.891a29.855,29.855,0,0,0-6.072,2.528l-4.884-4.879a36.7,36.7,0,0,0-11.733,11.743l4.874,4.879a29.575,29.575,0,0,0-2.528,6.072h-6.891a36.817,36.817,0,0,0,0,16.606h6.891a29.743,29.743,0,0,0,2.528,6.072l-4.874,4.879a36.56,36.56,0,0,0,11.738,11.743l4.879-4.879a29.564,29.564,0,0,0,6.072,2.528V617a36.818,36.818,0,0,0,16.606,0v-6.891a29.448,29.448,0,0,0,6.072-2.528l4.879,4.879a36.525,36.525,0,0,0,11.738-11.748l-4.873-4.873a29.457,29.457,0,0,0,2.528-6.072Zm-18.806,8.428a23.662,23.662,0,1,1,0-33.463A23.66,23.66,0,0,1,2294.34,598.194Z" transform="translate(-1958.776 -494.272)" fill="#c5cfe9"/>
        <g id="Grupo_894612" data-name="Grupo 894612" transform="translate(299.469 74.454)">
          <path id="Trazado_623048" data-name="Trazado 623048" d="M2444.783,727.847c0-2.835,4.253-2.835,4.253-4.856a1.557,1.557,0,0,0-1.619-1.713,1.612,1.612,0,0,0-1.689,1.713h-.9a2.427,2.427,0,0,1,2.587-2.576,2.391,2.391,0,0,1,2.552,2.576c0,2.741-4.218,2.741-4.218,4.856v.367h4.17v.827h-5.139Z" transform="translate(-2434.336 -720.415)" fill="#8394c5"/>
          <rect id="Rectángulo_301238" data-name="Rectángulo 301238" width="4.525" height="0.792" transform="translate(16.876 4.856)" fill="#8394c5"/>
          <path id="Trazado_623049" data-name="Trazado 623049" d="M2537.881,727.9H2534v-.827l3.8-5.258h.934v5.258h1.217v.827h-1.217v2.351h-.863Zm0-.827V723.1l-2.848,3.97Z" transform="translate(-2511.48 -721.624)" fill="#8394c5"/>
          <path id="Trazado_623050" data-name="Trazado 623050" d="M2367.61,826.578h.863l2.4,7.148,2.387-7.148h.862l2.4,7.148,2.386-7.148h.863l-2.824,8.436h-.863l-2.386-7.148-2.4,7.148h-.862Z" transform="translate(-2367.61 -812.207)" fill="#8394c5"/>
          <path id="Trazado_623051" data-name="Trazado 623051" d="M2462.242,826.578h4.892v.827h-4.029v2.363h3.793v.827h-3.793v3.592h4.029v.827h-4.892Z" transform="translate(-2449.432 -812.207)" fill="#8394c5"/>
          <path id="Trazado_623052" data-name="Trazado 623052" d="M2511.485,826.578h4.891v.827h-4.029v2.363h3.793v.827h-3.793v3.592h4.029v.827h-4.891Z" transform="translate(-2492.009 -812.207)" fill="#8394c5"/>
          <path id="Trazado_623053" data-name="Trazado 623053" d="M2560.722,826.578h.863v3.981l3.662-3.981h1.076l-3.344,3.71,4.041,4.726h-1.075l-3.533-4.088-.826.922v3.167h-.863Z" transform="translate(-2534.581 -812.207)" fill="#8394c5"/>
          <path id="Trazado_623054" data-name="Trazado 623054" d="M2614.146,827.473a1.476,1.476,0,0,0-1.383-.992,1.437,1.437,0,0,0-1.523,1.394c0,.732.508,1.063,1.523,1.382,1.571.5,2.742,1.11,2.742,2.588a2.521,2.521,0,0,1-2.742,2.445,2.646,2.646,0,0,1-2.718-2.257h.9a1.8,1.8,0,0,0,1.819,1.394,1.655,1.655,0,0,0,1.843-1.583c0-.78-.508-1.205-1.843-1.619-1.571-.484-2.422-1.075-2.422-2.351a2.256,2.256,0,0,1,2.422-2.257,2.285,2.285,0,0,1,2.328,1.855Z" transform="translate(-2577.228 -811.377)" fill="#8394c5"/>
        </g>
        <g id="Grupo_894613" data-name="Grupo 894613" transform="translate(377.75 23.925)">
          <path id="Trazado_623055" data-name="Trazado 623055" d="M3018.925,352.806c0-2.16,3.241-2.16,3.241-3.7a1.186,1.186,0,0,0-1.233-1.3,1.228,1.228,0,0,0-1.287,1.3h-.684a1.849,1.849,0,0,1,1.971-1.962,1.822,1.822,0,0,1,1.944,1.962c0,2.088-3.212,2.088-3.212,3.7v.279h3.177v.63h-3.916Z" transform="translate(-3009.039 -347.145)" fill="#8394c5"/>
          <path id="Trazado_623056" data-name="Trazado 623056" d="M3054.4,352.844h-2.952v-.63l2.9-4h.712v4h.927v.63h-.927v1.791h-.658Zm0-.63V349.19l-2.169,3.024Z" transform="translate(-3037.156 -348.065)" fill="#8394c5"/>
          <path id="Trazado_623057" data-name="Trazado 623057" d="M2945.9,428h.657v2.646h3.735V428h.63v6.426h-.63v-3.15h-3.735v3.15h-.657Z" transform="translate(-2945.896 -417.052)" fill="#8394c5"/>
          <path id="Trazado_623058" data-name="Trazado 623058" d="M2997.334,430.588a3.349,3.349,0,1,1-3.347-3.258A3.344,3.344,0,0,1,2997.334,430.588Zm-.684,0a2.664,2.664,0,1,0-2.663,2.673A2.639,2.639,0,0,0,2996.65,430.588Z" transform="translate(-2984.581 -416.476)" fill="#8394c5"/>
          <path id="Trazado_623059" data-name="Trazado 623059" d="M3046.424,432.1V428h.657v4.1a1.809,1.809,0,0,0,3.618,0V428h.657v4.1a2.466,2.466,0,1,1-4.932,0Z" transform="translate(-3032.816 -417.052)" fill="#8394c5"/>
          <path id="Trazado_623060" data-name="Trazado 623060" d="M3092.17,428h2.106a1.918,1.918,0,0,1,2.052,2,1.872,1.872,0,0,1-1.476,1.935l1.962,2.493h-.873l-1.917-2.43h-1.2v2.43h-.657Zm2.106,3.366a1.368,1.368,0,0,0,0-2.736h-1.449v2.736Z" transform="translate(-3072.369 -417.052)" fill="#8394c5"/>
          <path id="Trazado_623061" data-name="Trazado 623061" d="M3133.721,428.679a1.123,1.123,0,0,0-1.053-.756,1.1,1.1,0,0,0-1.161,1.062c0,.558.387.81,1.161,1.053,1.2.378,2.088.846,2.088,1.971a1.92,1.92,0,0,1-2.088,1.863,2.015,2.015,0,0,1-2.07-1.719h.683a1.37,1.37,0,0,0,1.386,1.062,1.261,1.261,0,0,0,1.4-1.206c0-.594-.386-.918-1.4-1.233-1.2-.369-1.845-.819-1.845-1.791a1.719,1.719,0,0,1,1.845-1.719,1.74,1.74,0,0,1,1.773,1.413Z" transform="translate(-3105.596 -416.42)" fill="#8394c5"/>
        </g>
        <g id="Grupo_894617" data-name="Grupo 894617" transform="translate(0 120.803)">
          <g id="Grupo_894614" data-name="Grupo 894614" transform="translate(27.04)">
            <path id="Trazado_623062" data-name="Trazado 623062" d="M355.1,1063.543h.711l2.358,5.58,2.349-5.58h.711l-2.709,6.426H357.8Z" transform="translate(-355.096 -1063.444)" fill="#8394c5"/>
            <rect id="Rectángulo_301239" data-name="Rectángulo 301239" width="0.657" height="6.426" transform="translate(7.029 0.099)" fill="#8394c5"/>
            <path id="Trazado_623063" data-name="Trazado 623063" d="M422.445,1064.225a1.124,1.124,0,0,0-1.053-.756,1.1,1.1,0,0,0-1.161,1.062c0,.558.387.81,1.161,1.053,1.2.378,2.088.846,2.088,1.971a1.92,1.92,0,0,1-2.088,1.863,2.015,2.015,0,0,1-2.07-1.719h.684a1.37,1.37,0,0,0,1.386,1.062,1.261,1.261,0,0,0,1.4-1.206c0-.594-.387-.918-1.4-1.233-1.2-.369-1.845-.819-1.845-1.791a1.719,1.719,0,0,1,1.845-1.719,1.74,1.74,0,0,1,1.773,1.413Z" transform="translate(-410.628 -1062.812)" fill="#8394c5"/>
            <rect id="Rectángulo_301240" data-name="Rectángulo 301240" width="0.657" height="6.426" transform="translate(13.842 0.099)" fill="#8394c5"/>
            <path id="Trazado_623064" data-name="Trazado 623064" d="M476.548,1066.134a3.349,3.349,0,1,1-3.348-3.258A3.344,3.344,0,0,1,476.548,1066.134Zm-.684,0a2.664,2.664,0,1,0-2.664,2.673A2.64,2.64,0,0,0,475.864,1066.134Z" transform="translate(-454.318 -1062.867)" fill="#8394c5"/>
            <path id="Trazado_623065" data-name="Trazado 623065" d="M526.966,1063.543h.792l4.023,5.526v-5.526h.657v6.426h-.792l-4.023-5.526v5.526h-.657Z" transform="translate(-503.7 -1063.444)" fill="#8394c5"/>
          </g>
          <g id="Grupo_894616" data-name="Grupo 894616" transform="translate(0 2.08)">
            <g id="Grupo_894615" data-name="Grupo 894615" transform="translate(7.446 31.624)">
              <path id="Trazado_623066" data-name="Trazado 623066" d="M218.76,1355.531h-4.777a3.637,3.637,0,0,1-3.637-3.637H222.4A3.637,3.637,0,0,1,218.76,1355.531Z" transform="translate(-210.346 -1346.466)" fill="#c5cfe9"/>
              <rect id="Rectángulo_301241" data-name="Rectángulo 301241" width="12.051" height="3.637" transform="translate(0)" fill="#93a6d6"/>
            </g>
            <path id="Trazado_623067" data-name="Trazado 623067" d="M167.32,1078.261a13.518,13.518,0,0,0-6.766,24.1,5.6,5.6,0,0,1,2.216,4.387l.016,1.26h5.127v-12.77l-5.266-5.266,1.34-1.34,4.874,4.874,4.874-4.874,1.34,1.34-5.267,5.266v12.77h5.177l-.03-1.091a5.67,5.67,0,0,1,2.172-4.525,13.52,13.52,0,0,0-9.807-24.132Z" transform="translate(-155.34 -1078.176)" fill="#ff9e22"/>
          </g>
        </g>
        <g id="Grupo_894623" data-name="Grupo 894623" transform="translate(63.625 122.377)">
          <g id="Grupo_894618" data-name="Grupo 894618" transform="translate(16.683 35.007)">
            <path id="Trazado_623068" data-name="Trazado 623068" d="M748.6,1337.879v-4.1h.657v4.1a1.809,1.809,0,0,0,3.618,0v-4.1h.657v4.1a2.466,2.466,0,1,1-4.932,0Z" transform="translate(-748.601 -1333.676)" fill="#0b5999"/>
            <path id="Trazado_623069" data-name="Trazado 623069" d="M794.276,1334.457a1.123,1.123,0,0,0-1.053-.756,1.1,1.1,0,0,0-1.161,1.062c0,.558.387.81,1.161,1.053,1.2.378,2.088.846,2.088,1.971a1.92,1.92,0,0,1-2.088,1.863,2.016,2.016,0,0,1-2.07-1.719h.684a1.37,1.37,0,0,0,1.386,1.062,1.261,1.261,0,0,0,1.4-1.206c0-.594-.387-.918-1.4-1.233-1.2-.369-1.845-.819-1.845-1.791a1.719,1.719,0,0,1,1.845-1.719,1.74,1.74,0,0,1,1.773,1.413Z" transform="translate(-785.393 -1333.044)" fill="#0b5999"/>
            <path id="Trazado_623070" data-name="Trazado 623070" d="M829.184,1333.776h3.726v.63h-3.069v1.8h2.889v.63h-2.889v2.736h3.069v.63h-3.726Z" transform="translate(-818.276 -1333.677)" fill="#0b5999"/>
            <path id="Trazado_623071" data-name="Trazado 623071" d="M865.355,1333.775h2.106a1.919,1.919,0,0,1,2.052,2,1.873,1.873,0,0,1-1.476,1.935L870,1340.2h-.873l-1.917-2.43h-1.2v2.43h-.657Zm2.106,3.366a1.368,1.368,0,0,0,0-2.736h-1.449v2.736Z" transform="translate(-849.55 -1333.676)" fill="#0b5999"/>
            <path id="Trazado_623072" data-name="Trazado 623072" d="M925.525,1334.457a1.123,1.123,0,0,0-1.053-.756,1.1,1.1,0,0,0-1.161,1.062c0,.558.387.81,1.161,1.053,1.2.378,2.088.846,2.088,1.971a1.92,1.92,0,0,1-2.088,1.863,2.015,2.015,0,0,1-2.07-1.719h.684a1.37,1.37,0,0,0,1.386,1.062,1.261,1.261,0,0,0,1.4-1.206c0-.594-.387-.918-1.4-1.233-1.2-.369-1.845-.819-1.845-1.791a1.719,1.719,0,0,1,1.845-1.719,1.74,1.74,0,0,1,1.773,1.413Z" transform="translate(-898.875 -1333.044)" fill="#0b5999"/>
            <path id="Trazado_623073" data-name="Trazado 623073" d="M957.291,1334.405h-2.178v-.63h5v.63h-2.169v5.8h-.657Z" transform="translate(-927.158 -1333.677)" fill="#0b5999"/>
            <path id="Trazado_623074" data-name="Trazado 623074" d="M999.775,1336.366a3.349,3.349,0,1,1-3.348-3.258A3.344,3.344,0,0,1,999.775,1336.366Zm-.684,0a2.664,2.664,0,1,0-2.664,2.673A2.64,2.64,0,0,0,999.091,1336.366Z" transform="translate(-959.985 -1333.099)" fill="#0b5999"/>
            <path id="Trazado_623075" data-name="Trazado 623075" d="M1050.193,1333.775h2.106a1.918,1.918,0,0,1,2.052,2,1.873,1.873,0,0,1-1.476,1.935l1.962,2.493h-.873l-1.917-2.43h-1.2v2.43h-.657Zm2.106,3.366a1.368,1.368,0,0,0,0-2.736h-1.449v2.736Z" transform="translate(-1009.367 -1333.676)" fill="#0b5999"/>
            <rect id="Rectángulo_301242" data-name="Rectángulo 301242" width="0.657" height="6.426" transform="translate(46.28 0.099)" fill="#0b5999"/>
            <path id="Trazado_623076" data-name="Trazado 623076" d="M1105.976,1333.776h3.726v.63h-3.069v1.8h2.889v.63h-2.889v2.736h3.069v.63h-3.726Z" transform="translate(-1057.599 -1333.677)" fill="#0b5999"/>
            <path id="Trazado_623077" data-name="Trazado 623077" d="M1143.407,1334.457a1.123,1.123,0,0,0-1.053-.756,1.1,1.1,0,0,0-1.161,1.062c0,.558.387.81,1.161,1.053,1.2.378,2.088.846,2.088,1.971a1.92,1.92,0,0,1-2.088,1.863,2.015,2.015,0,0,1-2.07-1.719h.684a1.369,1.369,0,0,0,1.386,1.062,1.261,1.261,0,0,0,1.4-1.206c0-.594-.387-.918-1.4-1.233-1.2-.369-1.845-.819-1.845-1.791a1.719,1.719,0,0,1,1.845-1.719,1.74,1.74,0,0,1,1.773,1.413Z" transform="translate(-1087.263 -1333.044)" fill="#0b5999"/>
          </g>
          <g id="Grupo_894622" data-name="Grupo 894622">
            <path id="Trazado_623078" data-name="Trazado 623078" d="M652.672,1074.436v30.308H625.358v-21.412l8.386-8.9Z" transform="translate(-625.358 -1074.436)" fill="#0b5999"/>
            <path id="Trazado_623079" data-name="Trazado 623079" d="M885.218,1075.291V1105.6H857.9l0-21.595,8.386-8.713Z" transform="translate(-826.42 -1075.175)" fill="#0b5999"/>
            <path id="Trazado_623080" data-name="Trazado 623080" d="M1117.795,1074.552v30.307h-27.314v-21.527l8.386-8.9Z" transform="translate(-1027.519 -1074.436)" fill="#0b5999"/>
            <g id="Grupo_894619" data-name="Grupo 894619">
              <rect id="Rectángulo_301243" data-name="Rectángulo 301243" width="18.493" height="1.748" transform="translate(4.411 12.24)" fill="#d2e1f1"/>
              <rect id="Rectángulo_301244" data-name="Rectángulo 301244" width="18.493" height="1.748" transform="translate(4.411 18.087)" fill="#d2e1f1"/>
              <rect id="Rectángulo_301245" data-name="Rectángulo 301245" width="18.493" height="1.748" transform="translate(4.411 23.935)" fill="#d2e1f1"/>
              <path id="Trazado_623081" data-name="Trazado 623081" d="M633.744,1083.332v-8.9l-8.386,8.9Z" transform="translate(-625.358 -1074.436)" fill="#d2e1f1"/>
            </g>
            <g id="Grupo_894620" data-name="Grupo 894620" transform="translate(31.48 0.116)">
              <rect id="Rectángulo_301246" data-name="Rectángulo 301246" width="18.493" height="1.748" transform="translate(4.411 12.124)" fill="#d2e1f1"/>
              <rect id="Rectángulo_301247" data-name="Rectángulo 301247" width="18.493" height="1.748" transform="translate(4.411 17.972)" fill="#d2e1f1"/>
              <rect id="Rectángulo_301248" data-name="Rectángulo 301248" width="18.493" height="1.748" transform="translate(4.411 23.819)" fill="#d2e1f1"/>
              <path id="Trazado_623082" data-name="Trazado 623082" d="M866.3,1084v-8.713L857.91,1084Z" transform="translate(-857.91 -1075.291)" fill="#d2e1f1"/>
            </g>
            <g id="Grupo_894621" data-name="Grupo 894621" transform="translate(62.962)">
              <rect id="Rectángulo_301249" data-name="Rectángulo 301249" width="18.493" height="1.748" transform="translate(4.409 12.24)" fill="#d2e1f1"/>
              <rect id="Rectángulo_301250" data-name="Rectángulo 301250" width="18.493" height="1.748" transform="translate(4.409 18.087)" fill="#d2e1f1"/>
              <rect id="Rectángulo_301251" data-name="Rectángulo 301251" width="18.493" height="1.748" transform="translate(4.409 23.935)" fill="#d2e1f1"/>
              <path id="Trazado_623083" data-name="Trazado 623083" d="M1098.867,1083.332v-8.9l-8.386,8.9Z" transform="translate(-1090.481 -1074.436)" fill="#d2e1f1"/>
            </g>
          </g>
        </g>
        <g id="Grupo_894627" data-name="Grupo 894627" transform="translate(181.971 59.798)">
          <g id="Grupo_894624" data-name="Grupo 894624" transform="translate(0 32.147)">
            <path id="Trazado_623084" data-name="Trazado 623084" d="M1502.739,851.043a1.124,1.124,0,0,0-1.053-.756,1.1,1.1,0,0,0-1.161,1.062c0,.558.387.81,1.161,1.053,1.2.378,2.088.846,2.088,1.971a1.921,1.921,0,0,1-2.088,1.863,2.016,2.016,0,0,1-2.07-1.719h.684a1.37,1.37,0,0,0,1.386,1.062,1.261,1.261,0,0,0,1.4-1.206c0-.594-.387-.918-1.4-1.233-1.2-.369-1.845-.819-1.845-1.791a1.719,1.719,0,0,1,1.845-1.719,1.74,1.74,0,0,1,1.773,1.413Z" transform="translate(-1499.616 -849.63)" fill="#8394c5"/>
            <path id="Trazado_623085" data-name="Trazado 623085" d="M1540.544,854.8a3.291,3.291,0,1,1-.018-3.384h-.819a2.654,2.654,0,1,0-2.025,4.347,2.6,2.6,0,0,0,2.043-.963Z" transform="translate(-1529.626 -849.801)" fill="#8394c5"/>
            <path id="Trazado_623086" data-name="Trazado 623086" d="M1588.248,850.361h2.106a1.918,1.918,0,0,1,2.052,2,1.873,1.873,0,0,1-1.476,1.935l1.962,2.493h-.874l-1.917-2.43h-1.2v2.43h-.657Zm2.106,3.366a1.368,1.368,0,0,0,0-2.736H1588.9v2.736Z" transform="translate(-1576.25 -850.262)" fill="#8394c5"/>
            <path id="Trazado_623087" data-name="Trazado 623087" d="M1627.206,854.465v-4.1h.657v4.1a1.809,1.809,0,0,0,3.618,0v-4.1h.657v4.1a2.466,2.466,0,0,1-4.932,0Z" transform="translate(-1609.934 -850.262)" fill="#8394c5"/>
            <path id="Trazado_623088" data-name="Trazado 623088" d="M1678.7,851.863l-2.151,4.923h-.783l-2.161-4.923v4.923h-.657v-6.426h.747l2.457,5.706,2.457-5.706h.747v6.426h-.657Z" transform="translate(-1649.488 -850.262)" fill="#8394c5"/>
            <path id="Trazado_623089" data-name="Trazado 623089" d="M1756.628,851.863l-2.151,4.923h-.782l-2.16-4.923v4.923h-.657v-6.426h.747l2.457,5.706,2.457-5.706h.747v6.426h-.657Z" transform="translate(-1716.864 -850.262)" fill="#8394c5"/>
            <path id="Trazado_623090" data-name="Trazado 623090" d="M1806.422,850.361h.711l2.889,6.426h-.711l-1.152-2.556H1805.4l-1.152,2.556h-.711Zm.36.792-1.107,2.448h2.205Z" transform="translate(-1762.393 -850.262)" fill="#8394c5"/>
            <path id="Trazado_623091" data-name="Trazado 623091" d="M1856.721,851.043a1.124,1.124,0,0,0-1.053-.756,1.1,1.1,0,0,0-1.161,1.062c0,.558.387.81,1.161,1.053,1.2.378,2.088.846,2.088,1.971a1.92,1.92,0,0,1-2.088,1.863,2.016,2.016,0,0,1-2.07-1.719h.684a1.37,1.37,0,0,0,1.386,1.062,1.261,1.261,0,0,0,1.4-1.206c0-.594-.387-.918-1.4-1.233-1.2-.369-1.845-.819-1.845-1.791a1.719,1.719,0,0,1,1.845-1.719,1.74,1.74,0,0,1,1.773,1.413Z" transform="translate(-1805.68 -849.63)" fill="#8394c5"/>
            <path id="Trazado_623092" data-name="Trazado 623092" d="M1888.487,850.991h-2.178v-.63h5v.63h-2.169v5.8h-.657Z" transform="translate(-1833.964 -850.262)" fill="#8394c5"/>
            <path id="Trazado_623093" data-name="Trazado 623093" d="M1929.262,850.361h3.726v.63h-3.07v1.8h2.889v.63h-2.889v2.736h3.07v.63h-3.726Z" transform="translate(-1871.102 -850.262)" fill="#8394c5"/>
            <path id="Trazado_623094" data-name="Trazado 623094" d="M1965.435,850.361h2.106a1.918,1.918,0,0,1,2.052,2,1.873,1.873,0,0,1-1.476,1.935l1.962,2.493h-.873l-1.917-2.43h-1.2v2.43h-.657Zm2.106,3.366a1.368,1.368,0,0,0,0-2.736h-1.449v2.736Z" transform="translate(-1902.378 -850.262)" fill="#8394c5"/>
          </g>
          <g id="Grupo_894626" data-name="Grupo 894626" transform="translate(16.592)">
            <g id="Grupo_894625" data-name="Grupo 894625" transform="translate(5.54 5.745)">
              <path id="Trazado_623095" data-name="Trazado 623095" d="M1673.287,669.157l0-1.339a5.488,5.488,0,0,1-3.8-5.245,5.626,5.626,0,0,1,5.594-5.583,5.5,5.5,0,0,1,5.555,5.519,5.618,5.618,0,0,1-3.842,5.289l0,1.339a9.337,9.337,0,0,1,6.907,5.485,11.906,11.906,0,1,0-17.33.041A9.575,9.575,0,0,1,1673.287,669.157Z" transform="translate(-1663.107 -654.586)" fill="#21cbae"/>
              <path id="Trazado_623096" data-name="Trazado 623096" d="M1750.239,830.457c.038,0,.074.006.112.006s.094-.007.142-.007Z" transform="translate(-1738.444 -806.649)" fill="#c5cfe9"/>
            </g>
            <path id="Trazado_623097" data-name="Trazado 623097" d="M1624.586,672.589a17.457,17.457,0,0,1,2.474-20.943l1.324,1.273a15.534,15.534,0,0,0-4.364,10.827,15.889,15.889,0,0,0,2.688,8.842Z" transform="translate(-1622.183 -646.3)" fill="#c5cfe9"/>
            <path id="Trazado_623098" data-name="Trazado 623098" d="M1849.021,775.334h-2.064a16.357,16.357,0,0,0,2.118-4.856l1.776.467A17.365,17.365,0,0,1,1849.021,775.334Z" transform="translate(-1816.53 -749.045)" fill="#c5cfe9"/>
            <path id="Trazado_623099" data-name="Trazado 623099" d="M1731.824,624.043a15.631,15.631,0,0,0-19.335-9.326l-.557-1.75a17.47,17.47,0,0,1,21.609,10.424Z" transform="translate(-1699.783 -612.147)" fill="#c5cfe9"/>
          </g>
        </g>
        <g id="Grupo_894632" data-name="Grupo 894632" transform="translate(178.027 123.689)">
          <g id="Grupo_894628" data-name="Grupo 894628">
            <rect id="Rectángulo_301252" data-name="Rectángulo 301252" width="36.844" height="5.909" fill="#ef3c79"/>
            <rect id="Rectángulo_301253" data-name="Rectángulo 301253" width="2.243" height="2.18" transform="translate(1.346 1.865)" fill="#cb2d47"/>
            <rect id="Rectángulo_301254" data-name="Rectángulo 301254" width="29.421" height="1.453" transform="translate(5.147 2.228)" fill="#cb2d47"/>
          </g>
          <g id="Grupo_894629" data-name="Grupo 894629" transform="translate(0 7.609)">
            <rect id="Rectángulo_301255" data-name="Rectángulo 301255" width="36.844" height="5.909" fill="#ef3c79"/>
            <rect id="Rectángulo_301256" data-name="Rectángulo 301256" width="2.243" height="2.18" transform="translate(1.346 1.865)" fill="#cb2d47"/>
            <rect id="Rectángulo_301257" data-name="Rectángulo 301257" width="29.421" height="1.453" transform="translate(5.147 2.228)" fill="#cb2d47"/>
          </g>
          <g id="Grupo_894630" data-name="Grupo 894630" transform="translate(0 15.217)">
            <rect id="Rectángulo_301258" data-name="Rectángulo 301258" width="36.844" height="5.909" fill="#ef3c79"/>
            <rect id="Rectángulo_301259" data-name="Rectángulo 301259" width="2.243" height="2.18" transform="translate(1.346 1.865)" fill="#cb2d47"/>
            <rect id="Rectángulo_301260" data-name="Rectángulo 301260" width="29.421" height="1.453" transform="translate(5.147 2.228)" fill="#cb2d47"/>
          </g>
          <g id="Grupo_894631" data-name="Grupo 894631" transform="translate(0 23.128)">
            <rect id="Rectángulo_301261" data-name="Rectángulo 301261" width="36.844" height="5.909" fill="#ef3c79"/>
            <rect id="Rectángulo_301262" data-name="Rectángulo 301262" width="2.243" height="2.18" transform="translate(1.346 1.865)" fill="#cb2d47"/>
            <rect id="Rectángulo_301263" data-name="Rectángulo 301263" width="29.421" height="1.453" transform="translate(5.147 2.228)" fill="#cb2d47"/>
          </g>
        </g>
        <g id="Grupo_894635" data-name="Grupo 894635" transform="translate(434.812 91.81)">
          <g id="Grupo_894633" data-name="Grupo 894633" transform="translate(7.83 30.867)">
            <rect id="Rectángulo_301264" data-name="Rectángulo 301264" width="37.475" height="31.026" transform="translate(0 7.559)" fill="#ff9e22"/>
            <rect id="Rectángulo_301265" data-name="Rectángulo 301265" width="37.475" height="7.559" transform="translate(0)" fill="#fec95c"/>
            <rect id="Rectángulo_301266" data-name="Rectángulo 301266" width="7.403" height="31.026" transform="translate(15.036 7.559)" fill="#0b5999"/>
            <rect id="Rectángulo_301267" data-name="Rectángulo 301267" width="7.403" height="37.475" transform="translate(0 25.91) rotate(-90)" fill="#0b5999"/>
            <rect id="Rectángulo_301268" data-name="Rectángulo 301268" width="7.403" height="7.559" transform="translate(15.036)" fill="#b0c0d2"/>
          </g>
          <g id="Grupo_894634" data-name="Grupo 894634" transform="translate(0 0)">
            <rect id="Rectángulo_301269" data-name="Rectángulo 301269" width="4.56" height="4.56" transform="translate(30.269 15.316) rotate(-45)" fill="#ff9e22"/>
            <rect id="Rectángulo_301270" data-name="Rectángulo 301270" width="5.32" height="5.32" transform="translate(41.543 23.788) rotate(-45)" fill="#ff9e22"/>
            <rect id="Rectángulo_301271" data-name="Rectángulo 301271" width="3.04" height="3.04" transform="translate(39.274 2.15) rotate(-45)" fill="#ff9e22"/>
            <rect id="Rectángulo_301272" data-name="Rectángulo 301272" width="3.8" height="3.8" transform="translate(0 25.937) rotate(-44.999)" fill="#ff9e22"/>
            <rect id="Rectángulo_301273" data-name="Rectángulo 301273" width="3.04" height="3.04" transform="translate(51.232 39.096) rotate(-44.999)" fill="#ff9e22"/>
          </g>
        </g>
      </g>
      <g id="Grupo_894637" data-name="Grupo 894637" transform="translate(155.875 170.783)" opacity="0.6">
        <path id="Trazado_623100" data-name="Trazado 623100" d="M170.144,178.13a3.905,3.905,0,0,0-3.66-2.627,3.805,3.805,0,0,0-4.034,3.691c0,1.939,1.345,2.815,4.034,3.66,4.16,1.313,7.257,2.94,7.257,6.85s-3.222,6.474-7.257,6.474a7,7,0,0,1-7.193-5.974h2.377a4.759,4.759,0,0,0,4.817,3.691c2.721,0,4.88-1.6,4.88-4.191,0-2.065-1.345-3.19-4.88-4.285-4.159-1.282-6.411-2.846-6.411-6.224s2.565-5.974,6.411-5.974a6.049,6.049,0,0,1,6.162,4.911Z" transform="translate(-159.291 -173.219)" fill="#0b5999"/>
        <path id="Trazado_623101" data-name="Trazado 623101" d="M301.5,191.178a11.437,11.437,0,1,1-.062-11.76H298.59a9.223,9.223,0,1,0-7.037,15.107,9.045,9.045,0,0,0,7.1-3.347Z" transform="translate(-263.561 -173.82)" fill="#0b5999"/>
        <path id="Trazado_623102" data-name="Trazado 623102" d="M467.258,175.76h7.319c4.253,0,7.131,2.784,7.131,6.944a6.507,6.507,0,0,1-5.129,6.724l6.818,8.664h-3.034l-6.662-8.445h-4.16v8.445h-2.283Zm7.319,11.7a4.754,4.754,0,0,0,0-9.508h-5.036v9.508Z" transform="translate(-425.569 -175.416)" fill="#0b5999"/>
        <path id="Trazado_623103" data-name="Trazado 623103" d="M602.647,190.022V175.76h2.283v14.262c0,3.941,2.346,6.286,6.318,6.286,3.941,0,6.255-2.346,6.255-6.286V175.76h2.283v14.262c0,5.379-3.159,8.57-8.539,8.57C605.837,198.592,602.647,195.4,602.647,190.022Z" transform="translate(-542.631 -175.416)" fill="#0b5999"/>
        <path id="Trazado_623104" data-name="Trazado 623104" d="M781.585,180.983l-7.475,17.108h-2.721l-7.506-17.108v17.108H761.6V175.76h2.6l8.539,19.83,8.539-19.83h2.6v22.332h-2.283Z" transform="translate(-680.066 -175.416)" fill="#0b5999"/>
        <path id="Trazado_623105" data-name="Trazado 623105" d="M1039.693,175.76c4.253,0,7.131,2.784,7.131,6.944s-2.846,6.943-7.131,6.943h-5.036v8.445h-2.283V175.76Zm0,11.7a4.754,4.754,0,0,0,0-9.508h-5.036v9.508Z" transform="translate(-914.187 -175.416)" fill="#0b5999"/>
        <path id="Trazado_623106" data-name="Trazado 623106" d="M1164.525,175.76h7.319c4.253,0,7.131,2.784,7.131,6.944a6.507,6.507,0,0,1-5.129,6.724l6.818,8.664h-3.034l-6.662-8.445h-4.16v8.445h-2.283Zm7.319,11.7a4.754,4.754,0,0,0,0-9.508h-5.036v9.508Z" transform="translate(-1028.449 -175.416)" fill="#0b5999"/>
        <path id="Trazado_623107" data-name="Trazado 623107" d="M1317.4,184.771a11.639,11.639,0,1,1-11.635-11.323A11.619,11.619,0,0,1,1317.4,184.771Zm-2.377,0a9.258,9.258,0,1,0-9.258,9.289A9.172,9.172,0,0,0,1315.025,184.771Z" transform="translate(-1140.511 -173.417)" fill="#0b5999"/>
        <path id="Trazado_623108" data-name="Trazado 623108" d="M1502.654,191.178a11.437,11.437,0,1,1-.062-11.76h-2.846a9.223,9.223,0,1,0-7.037,15.107,9.045,9.045,0,0,0,7.1-3.347Z" transform="translate(-1302.12 -173.82)" fill="#0b5999"/>
        <path id="Trazado_623109" data-name="Trazado 623109" d="M1668.413,175.76h12.949v2.19H1670.7V184.2h10.04v2.19H1670.7V195.9h10.666v2.189h-12.949Z" transform="translate(-1464.127 -175.416)" fill="#0b5999"/>
        <path id="Trazado_623110" data-name="Trazado 623110" d="M1798.484,178.13a3.906,3.906,0,0,0-3.66-2.627,3.805,3.805,0,0,0-4.035,3.691c0,1.939,1.345,2.815,4.035,3.66,4.16,1.313,7.256,2.94,7.256,6.85s-3.222,6.474-7.256,6.474a7,7,0,0,1-7.193-5.974h2.377a4.759,4.759,0,0,0,4.817,3.691c2.721,0,4.879-1.6,4.879-4.191,0-2.065-1.345-3.19-4.879-4.285-4.16-1.282-6.412-2.846-6.412-6.224s2.565-5.974,6.412-5.974a6.049,6.049,0,0,1,6.161,4.911Z" transform="translate(-1567.207 -173.219)" fill="#0b5999"/>
        <path id="Trazado_623111" data-name="Trazado 623111" d="M1919.544,178.13a3.906,3.906,0,0,0-3.66-2.627,3.805,3.805,0,0,0-4.035,3.691c0,1.939,1.345,2.815,4.035,3.66,4.159,1.313,7.256,2.94,7.256,6.85s-3.222,6.474-7.256,6.474a7,7,0,0,1-7.193-5.974h2.376a4.759,4.759,0,0,0,4.817,3.691c2.721,0,4.879-1.6,4.879-4.191,0-2.065-1.345-3.19-4.879-4.285-4.16-1.282-6.412-2.846-6.412-6.224s2.565-5.974,6.412-5.974a6.049,6.049,0,0,1,6.161,4.911Z" transform="translate(-1671.88 -173.219)" fill="#0b5999"/>
      </g>
    </g>
  </g>
</svg>
