<svg xmlns="http://www.w3.org/2000/svg" xmlns:xlink="http://www.w3.org/1999/xlink" width="536" height="344" viewBox="0 0 536 344">
  <defs>
    <filter id="Rect치ngulo_300539" x="0" y="0" width="536" height="344" filterUnits="userSpaceOnUse">
      <feOffset dy="3" input="SourceAlpha"/>
      <feGaussianBlur stdDeviation="3" result="blur"/>
      <feFlood flood-opacity="0.161"/>
      <feComposite operator="in" in2="blur"/>
      <feComposite in="SourceGraphic"/>
    </filter>
  </defs>
  <g id="Grupo_897736" data-name="Grupo 897736" transform="translate(6751 8964)">
    <g id="Grupo_894049" data-name="Grupo 894049" transform="translate(-7006.666 -11536)">
      <g transform="matrix(1, 0, 0, 1, 255.67, 2572)" filter="url(#Rect치ngulo_300539)">
        <rect id="Rect치ngulo_300539-2" data-name="Rect치ngulo 300539" width="518" height="326" rx="20" transform="translate(9 6)" fill="#fff"/>
      </g>
    </g>
    <g id="Grupo_894446" data-name="Grupo 894446" transform="translate(-7378.619 -9409.123)">
      <path id="Trazado_622654" data-name="Trazado 622654" d="M2367.259,1342.369v7.384h.965v-2.993a3.343,3.343,0,0,0,.776.065,3.117,3.117,0,0,0,2.284-.819,2.2,2.2,0,0,0,.576-1.6,2.044,2.044,0,0,0-.654-1.563,3.066,3.066,0,0,0-2.1-.622A11.227,11.227,0,0,0,2367.259,1342.369Zm3.636,2.1c0,1.008-.709,1.586-1.873,1.586a3.154,3.154,0,0,1-.8-.079v-2.9a4.019,4.019,0,0,1,.909-.077C2370.186,1342.991,2370.9,1343.467,2370.9,1344.465Z" transform="translate(-1558.429 -748.442)" fill="#f15a29"/>
      <path id="Trazado_622655" data-name="Trazado 622655" d="M2433.421,1344.266a1.912,1.912,0,0,0-.587-1.431,3.088,3.088,0,0,0-2.162-.61,11.14,11.14,0,0,0-1.851.156v7.372h.965v-3.236h.909c.876.032,1.286.421,1.507,1.451a9.423,9.423,0,0,0,.488,1.785h1a11.82,11.82,0,0,1-.576-2.051,1.872,1.872,0,0,0-1.087-1.506v-.035A1.961,1.961,0,0,0,2433.421,1344.266Zm-2.65,1.519h-.986v-2.728a4.346,4.346,0,0,1,.953-.077c1.02,0,1.718.421,1.718,1.386C2432.456,1345.219,2431.8,1345.785,2430.771,1345.785Z" transform="translate(-1614.089 -748.442)" fill="#f15a29"/>
      <path id="Trazado_622656" data-name="Trazado 622656" d="M2493.625,1345.21c0-2.228-1.319-3.792-3.371-3.792-2,0-3.458,1.553-3.458,3.926,0,2.261,1.375,3.8,3.358,3.8C2492.062,1349.146,2493.625,1347.772,2493.625,1345.21Zm-3.414,3.149c-1.53,0-2.4-1.431-2.4-3.037,0-1.63.8-3.116,2.406-3.116s2.384,1.553,2.384,3.049C2492.6,1346.951,2491.74,1348.359,2490.21,1348.359Z" transform="translate(-1666.508 -747.714)" fill="#f15a29"/>
      <path id="Trazado_622657" data-name="Trazado 622657" d="M2564.885,1342.819h-5.532v.819h2.273v6.652h.976v-6.652h2.283Z" transform="translate(-1732.111 -748.979)" fill="#f15a29"/>
      <path id="Trazado_622658" data-name="Trazado 622658" d="M2621.477,1341.419c-2,0-3.458,1.553-3.458,3.926,0,2.261,1.375,3.8,3.358,3.8,1.907,0,3.47-1.374,3.47-3.936C2624.848,1342.982,2623.528,1341.419,2621.477,1341.419Zm-.044,6.94c-1.53,0-2.4-1.431-2.4-3.037,0-1.63.8-3.116,2.406-3.116s2.383,1.553,2.383,3.049C2623.828,1346.951,2622.963,1348.359,2621.434,1348.359Z" transform="translate(-1785.153 -747.714)" fill="#f15a29"/>
      <path id="Trazado_622659" data-name="Trazado 622659" d="M2690.577,1343.638h2.273v6.652h.976v-6.652h2.283v-.819h-5.532Z" transform="translate(-1850.756 -748.979)" fill="#f15a29"/>
      <path id="Trazado_622660" data-name="Trazado 622660" d="M2756.508,1344.88c-.289.565-.555,1.053-.754,1.541h-.022c-.233-.52-.465-.976-.742-1.541l-1.053-2.061h-1.109l2.372,4.3v3.171h.976v-3.182l2.493-4.29h-1.085Z" transform="translate(-1907.04 -748.979)" fill="#f15a29"/>
      <path id="Trazado_622661" data-name="Trazado 622661" d="M2823.763,1346.826a3.116,3.116,0,0,0,2.284-.819,2.2,2.2,0,0,0,.576-1.6,2.042,2.042,0,0,0-.655-1.563,3.061,3.061,0,0,0-2.095-.622,11.225,11.225,0,0,0-1.851.144v7.384h.965v-2.993A3.343,3.343,0,0,0,2823.763,1346.826Zm-.776-3.757a4.019,4.019,0,0,1,.909-.077c1.053,0,1.762.476,1.762,1.474s-.709,1.586-1.873,1.586a3.154,3.154,0,0,1-.8-.079Z" transform="translate(-1969.603 -748.442)" fill="#f15a29"/>
      <path id="Trazado_622662" data-name="Trazado 622662" d="M2887.513,1343.628v-.809h-4.046v7.471h4.212v-.809h-3.236v-2.694h2.893v-.8h-2.893v-2.36Z" transform="translate(-2025.158 -748.979)" fill="#f15a29"/>
      <path id="Trazado_622663" data-name="Trazado 622663" d="M2472.4,1481.213a3.431,3.431,0,0,1,1.5.309l.244-.787a4.066,4.066,0,0,0-1.773-.331,3.712,3.712,0,0,0-3.9,3.924,3.486,3.486,0,0,0,3.679,3.791,4.72,4.72,0,0,0,1.974-.356l-.189-.775a3.9,3.9,0,0,1-1.585.309,2.707,2.707,0,0,1-2.86-3A2.777,2.777,0,0,1,2472.4,1481.213Z" transform="translate(-1649.93 -873.377)" fill="#f15a29"/>
      <path id="Trazado_622664" data-name="Trazado 622664" d="M2536.487,1489.148v-3.182l2.493-4.289H2537.9l-1.075,2.061c-.289.565-.555,1.053-.754,1.541h-.022c-.233-.52-.465-.976-.742-1.541l-1.053-2.061h-1.109l2.372,4.3v3.171Z" transform="translate(-1708.409 -874.528)" fill="#f15a29"/>
      <path id="Trazado_622665" data-name="Trazado 622665" d="M2598.04,1488.119a4.718,4.718,0,0,0,1.974-.356l-.189-.775a3.9,3.9,0,0,1-1.584.309,2.707,2.707,0,0,1-2.861-3,2.777,2.777,0,0,1,2.915-3.082,3.433,3.433,0,0,1,1.5.309l.244-.787a4.066,4.066,0,0,0-1.774-.331,3.711,3.711,0,0,0-3.9,3.924A3.486,3.486,0,0,0,2598.04,1488.119Z" transform="translate(-1763.762 -873.377)" fill="#f15a29"/>
      <path id="Trazado_622666" data-name="Trazado 622666" d="M2666.95,1481.677h-.976v7.471h4.168v-.809h-3.193Z" transform="translate(-1828.512 -874.528)" fill="#f15a29"/>
      <path id="Trazado_622667" data-name="Trazado 622667" d="M2720.6,1489.148h4.212v-.809h-3.237v-2.694h2.893v-.8h-2.893v-2.36h3.071v-.809H2720.6Z" transform="translate(-1877.901 -874.528)" fill="#f15a29"/>
      <path id="Trazado_622668" data-name="Trazado 622668" d="M2776.247,1481.2a2.762,2.762,0,0,1,1.408.356l.265-.787a3.337,3.337,0,0,0-1.641-.366,2.151,2.151,0,0,0-2.416,2.029c0,1.041.753,1.683,1.973,2.128,1.009.376,1.407.787,1.407,1.474,0,.754-.576,1.275-1.563,1.275a3.276,3.276,0,0,1-1.718-.488l-.255.809a3.855,3.855,0,0,0,1.907.488c1.763,0,2.605-1.008,2.605-2.161,0-1.1-.632-1.708-1.9-2.2-1.031-.4-1.486-.742-1.486-1.441C2774.838,1481.811,2775.227,1481.2,2776.247,1481.2Z" transform="translate(-1925.919 -873.377)" fill="#f15a29"/>
      <path id="Trazado_622669" data-name="Trazado 622669" d="M3843.768,1163.668h-73.194v55.112h73.194l22.045-27.557Zm-52.221,24.513h-2.283v6.652h-.976v-6.652h-2.273v-.819h5.532Zm5.035,6.652h-4.212v-7.471h4.047v.809h-3.071v2.36h2.893v.8h-2.893v2.694h3.237Zm2.786.122a3.855,3.855,0,0,1-1.907-.488l.255-.809a3.275,3.275,0,0,0,1.718.488c.987,0,1.563-.52,1.563-1.275,0-.687-.4-1.1-1.408-1.474-1.22-.445-1.973-1.088-1.973-2.129a2.151,2.151,0,0,1,2.416-2.029,3.337,3.337,0,0,1,1.641.366l-.265.787a2.759,2.759,0,0,0-1.408-.356c-1.021,0-1.408.61-1.408,1.12,0,.7.454,1.043,1.485,1.441,1.263.488,1.9,1.1,1.9,2.2C3801.973,1193.946,3801.131,1194.954,3799.368,1194.954Zm8.616-6.774H3805.7v6.652h-.976v-6.652h-2.273v-.819h5.532Zm1.8,6.652h-.976v-7.471h.976Zm7.3,0h-.975l-2.373-3.791a21.76,21.76,0,0,1-1.386-2.495l-.032.012c.055.941.066,1.84.066,3.082v3.192h-.909v-7.471h1.064l2.384,3.779a21.028,21.028,0,0,1,1.33,2.427l.034-.01c-.089-1-.111-1.907-.111-3.072v-3.125h.909Zm7.388-.333a6.75,6.75,0,0,1-2.306.411,3.508,3.508,0,0,1-3.835-3.769,3.742,3.742,0,0,1,4.045-3.859,4.7,4.7,0,0,1,1.874.344l-.244.789a3.7,3.7,0,0,0-1.652-.323,2.8,2.8,0,0,0-3,3,2.734,2.734,0,0,0,2.883,3.017,3.121,3.121,0,0,0,1.286-.2v-2.228H3822v-.775h2.462Z" transform="translate(-2827.236 -587)" fill="#0b5999"/>
      <path id="Trazado_622670" data-name="Trazado 622670" d="M1278.8,1347.921a.882.882,0,0,0-.875-.966.972.972,0,0,0-.932,1.088,2.154,2.154,0,0,0,.566,1.352C1278.309,1348.962,1278.8,1348.563,1278.8,1347.921Z" transform="translate(-572.662 -752.719)" fill="#21cbae"/>
      <path id="Trazado_622671" data-name="Trazado 622671" d="M3058.034,1945.14a4.28,4.28,0,0,0-.677.675l1.764,2.08.752-.636a1.468,1.468,0,0,0,.367-2.171C3059.618,1944.352,3058.813,1944.482,3058.034,1945.14Z" transform="translate(-2182.381 -1293.07)" fill="#f7941e"/>
      <path id="Trazado_622672" data-name="Trazado 622672" d="M2844.907,738.483c.28-.921-.262-1.529-1.239-1.83a4.241,4.241,0,0,0-.937-.2l-.8,2.608.943.291A1.473,1.473,0,0,0,2844.907,738.483Z" transform="translate(-1987.605 -200.731)" fill="#f15a29"/>
      <path id="Trazado_622673" data-name="Trazado 622673" d="M1270.206,1384.352a2.08,2.08,0,0,0,1.53-.677c-.443-.488-1.275-1.4-2.106-2.36a1.835,1.835,0,0,0-.965,1.529A1.477,1.477,0,0,0,1270.206,1384.352Z" transform="translate(-565.135 -783.786)" fill="#21cbae"/>
      <path id="Trazado_622674" data-name="Trazado 622674" d="M936.88,1350.306h-.021c-.111.433-.223.9-.377,1.354l-.732,2.161h2.262l-.743-2.151C937.1,1351.182,936.991,1350.739,936.88,1350.306Z" transform="translate(-264.13 -755.749)" fill="#21cbae"/>
      <path id="Trazado_622675" data-name="Trazado 622675" d="M1061.1,1487.68a5.36,5.36,0,0,0-1.13.1v5.907a7.727,7.727,0,0,0,.975.045,2.868,2.868,0,0,0,3.183-3.171C1064.141,1488.8,1063.145,1487.68,1061.1,1487.68Z" transform="translate(-376.447 -879.956)" fill="#21cbae"/>
      <path id="Trazado_622676" data-name="Trazado 622676" d="M2058.56,1817.858c-.927-1.313-2.606-1.11-3.94-.169-1.317.927-1.986,2.46-1.106,3.712s2.537,1.147,3.924.171C2058.664,1820.706,2059.487,1819.177,2058.56,1817.858Z" transform="translate(-1274.396 -1177.645)" fill="#fecb2f"/>
      <path id="Trazado_622677" data-name="Trazado 622677" d="M2121.844,1871.4l-2.189,1.913a3.218,3.218,0,0,0,.468.655,1.6,1.6,0,0,0,2.429.368c.752-.657.645-1.509-.051-2.3A4.027,4.027,0,0,0,2121.844,1871.4Z" transform="translate(-1334.557 -1226.898)" fill="#fecb2f"/>
      <path id="Trazado_622678" data-name="Trazado 622678" d="M643.619,1163.668v55.112h66.948l22.046-27.557-22.046-27.555Zm49,17.037h.976v7.471h-.976Zm-3.705,4.035c-1.22-.445-1.973-1.088-1.973-2.129a2.151,2.151,0,0,1,2.416-2.029,3.336,3.336,0,0,1,1.641.366l-.265.787a2.762,2.762,0,0,0-1.408-.356c-1.021,0-1.409.61-1.409,1.12,0,.7.455,1.043,1.486,1.442,1.263.488,1.9,1.1,1.9,2.2,0,1.153-.843,2.161-2.605,2.161a3.857,3.857,0,0,1-1.907-.488l.255-.809a3.275,3.275,0,0,0,1.718.488c.987,0,1.563-.52,1.563-1.275C690.319,1185.528,689.92,1185.117,688.911,1184.741Zm-7.209-4.035,1.053,2.062c.277.565.509,1.02.742,1.541h.022c.2-.488.466-.976.754-1.541l1.075-2.062h1.086l-2.493,4.29v3.182h-.976v-3.171l-2.372-4.3Zm-25.241,21.879c-1.009-.266-2-.565-2.86-.864l-.454-.112c-1.785-.067-3.292-1.374-3.292-3.792,0-2.395,1.452-3.936,3.469-3.936,2.04,0,3.359,1.575,3.359,3.781a3.489,3.489,0,0,1-2.129,3.59v.045c.743.189,1.552.366,2.183.478Zm.1-14.407h-1l2.549-7.471h1.153l2.55,7.471h-1.032l-.8-2.35h-2.649Zm6.88,10.205c0,2.3-1.208,3.226-2.827,3.226-1.53,0-2.682-.864-2.682-3.194v-4.4h.976v4.434c0,1.663.742,2.372,1.74,2.372,1.1,0,1.818-.732,1.818-2.372v-4.434h.975Zm.385-10.205h-.909v-7.471h1.064l2.384,3.779a21.054,21.054,0,0,1,1.33,2.427l.034-.01c-.088-1-.111-1.907-.111-3.072v-3.125h.909v7.471h-.975l-2.372-3.791a21.7,21.7,0,0,1-1.386-2.494l-.033.012c.055.941.066,1.84.066,3.08Zm2.258,13.31H665.1v-7.471h.976Zm5.123-.7a3.9,3.9,0,0,0,1.585-.309l.189.775a4.72,4.72,0,0,1-1.974.356,3.486,3.486,0,0,1-3.68-3.792,3.712,3.712,0,0,1,3.9-3.924,4.066,4.066,0,0,1,1.774.331l-.244.787a3.431,3.431,0,0,0-1.5-.309,2.777,2.777,0,0,0-2.915,3.082A2.707,2.707,0,0,0,671.2,1200.787Zm.217-14.96-.777,2.35h-1l2.549-7.471h1.153l2.55,7.471h-1.032l-.8-2.35Zm6.914,15.66-2.45-3.669-.721.821v2.848H674.2v-7.471h.965v3.6h.033c.2-.289.4-.555.587-.8l2.284-2.8h1.2l-2.7,3.169,2.915,4.3Zm2.823-13.31h-4.169v-7.471h.976v6.662h3.193Zm6.471,12.3a4.655,4.655,0,0,1-3.315,1.076,15.541,15.541,0,0,1-1.751-.09v-7.339a12.39,12.39,0,0,1,2.051-.167,4.337,4.337,0,0,1,3.026.931,3.414,3.414,0,0,1,1.064,2.683A4,4,0,0,1,687.628,1200.478Zm6.522,1.008h-4.212v-7.471h4.047v.809h-3.071v2.36h2.893v.8h-2.893v2.693h3.236Zm2.88-16.745c-1.22-.445-1.973-1.088-1.973-2.129a2.151,2.151,0,0,1,2.416-2.029,3.335,3.335,0,0,1,1.641.366l-.265.787a2.762,2.762,0,0,0-1.408-.356c-1.021,0-1.408.61-1.408,1.12,0,.7.454,1.043,1.485,1.442,1.263.488,1.9,1.1,1.9,2.2,0,1.153-.843,2.161-2.605,2.161a3.857,3.857,0,0,1-1.907-.488l.255-.809a3.274,3.274,0,0,0,1.718.488c.987,0,1.563-.52,1.563-1.275C698.437,1185.528,698.039,1185.117,697.03,1184.741Zm-.095,16.867a3.856,3.856,0,0,1-1.907-.488l.255-.809a3.275,3.275,0,0,0,1.718.488c.987,0,1.563-.521,1.563-1.275,0-.687-.4-1.1-1.408-1.474-1.22-.445-1.973-1.088-1.973-2.129a2.151,2.151,0,0,1,2.416-2.029,3.334,3.334,0,0,1,1.641.366l-.265.787a2.761,2.761,0,0,0-1.408-.356c-1.021,0-1.409.61-1.409,1.12,0,.7.455,1.043,1.486,1.441,1.263.488,1.9,1.1,1.9,2.2C699.54,1200.6,698.7,1201.608,696.935,1201.608Zm4.9-.122h-.976v-7.471h.976Zm1.6-19.063a1.815,1.815,0,0,1,1.9-1.852,1.548,1.548,0,0,1,1.652,1.586c0,.787-.454,1.407-1.641,2v.043c.631.732,1.341,1.541,1.817,2.074a5.453,5.453,0,0,0,.721-2.183h.887a5.684,5.684,0,0,1-1.075,2.761c.4.431.787.854,1.231,1.33h-1.154c-.21-.211-.41-.433-.7-.72a3.077,3.077,0,0,1-2.183.842,2.114,2.114,0,0,1-2.3-2.1,2.455,2.455,0,0,1,1.464-2.183v-.032A2.594,2.594,0,0,1,703.441,1182.423Zm5.782,18.729a6.745,6.745,0,0,1-2.306.411,3.508,3.508,0,0,1-3.835-3.769,3.742,3.742,0,0,1,4.045-3.859,4.7,4.7,0,0,1,1.874.344l-.244.789a3.705,3.705,0,0,0-1.652-.323,2.8,2.8,0,0,0-3,3,2.734,2.734,0,0,0,2.883,3.017,3.122,3.122,0,0,0,1.286-.2v-2.228h-1.507v-.775h2.461Zm1.467-7.138h1.064l2.384,3.779a21.064,21.064,0,0,1,1.33,2.427l.034-.01c-.088-1-.111-1.907-.111-3.072v-3.125h.909v7.471h-.975l-2.372-3.791a21.7,21.7,0,0,1-1.386-2.494l-.033.012c.055.941.066,1.84.066,3.082v3.192h-.909Z" transform="translate(0 -587)" fill="#21cbae"/>
      <path id="Trazado_622679" data-name="Trazado 622679" d="M1937.457,1539.735c1.74-.266,2.689-1.427,2.368-3.442a5.509,5.509,0,0,0-.276-1.1l-5.839.931a8.161,8.161,0,0,0,.11.972A2.868,2.868,0,0,0,1937.457,1539.735Z" transform="translate(-1166.435 -922.911)" fill="#fecb2f"/>
      <path id="Trazado_622680" data-name="Trazado 622680" d="M5364.641,1417.668c-1.606,0-2.4,1.486-2.4,3.116,0,1.606.864,3.037,2.395,3.037s2.4-1.409,2.4-3.1C5367.026,1419.221,5366.249,1417.668,5364.641,1417.668Z" transform="translate(-4266.337 -816.654)" fill="#ef3c79"/>
      <path id="Trazado_622681" data-name="Trazado 622681" d="M5446.922,1418.261a4.032,4.032,0,0,0-.909.077v2.9a3.134,3.134,0,0,0,.8.079c1.165,0,1.875-.578,1.875-1.586S5447.975,1418.261,5446.922,1418.261Z" transform="translate(-4342.084 -817.19)" fill="#ef3c79"/>
      <path id="Trazado_622682" data-name="Trazado 622682" d="M4955.353,1163.668v55.112h73.194l22.045-27.557-22.045-27.555Zm14.1,30.156a4.66,4.66,0,0,1-3.316,1.075,15.592,15.592,0,0,1-1.752-.089v-7.339a12.393,12.393,0,0,1,2.051-.167,4.336,4.336,0,0,1,3.027.931,3.409,3.409,0,0,1,1.063,2.683A4,4,0,0,1,4969.452,1193.824Zm6.521,1.008h-4.212v-7.471h4.046v.809h-3.07v2.36h2.893v.8h-2.893v2.694h3.236Zm4.06,0h-1.065l-2.45-7.471h1.053l1.165,3.68c.311,1.008.587,1.917.8,2.793h.023c.209-.864.508-1.807.852-2.783l1.265-3.69h1.031Zm7.685,0h-4.212v-7.471h4.045v.809h-3.07v2.36h2.893v.8h-2.893v2.694h3.236Zm5.412,0h-4.167v-7.471h.976v6.662h3.192Zm3.564.122c-1.986,0-3.36-1.541-3.36-3.8,0-2.373,1.464-3.926,3.46-3.926,2.051,0,3.368,1.563,3.368,3.791C5000.161,1193.58,4998.6,1194.954,4996.693,1194.954Zm8.75-3.869a3.112,3.112,0,0,1-2.283.819,3.365,3.365,0,0,1-.777-.065v2.992h-.966v-7.384a11.22,11.22,0,0,1,1.853-.144,3.064,3.064,0,0,1,2.1.622,2.046,2.046,0,0,1,.652,1.563A2.2,2.2,0,0,1,5005.442,1191.086Zm8.217,3.747-.177-3.281c-.055-1.043-.122-2.305-.122-3.226h-.022c-.267.864-.565,1.807-.943,2.838l-1.319,3.625h-.729l-1.22-3.558c-.356-1.065-.645-2.019-.854-2.9h-.022c-.022.931-.077,2.173-.144,3.3l-.2,3.2h-.92l.522-7.471h1.23l1.274,3.613c.312.921.555,1.74.755,2.517h.022c.2-.754.465-1.573.8-2.517l1.332-3.613h1.23l.465,7.471Zm6.644,0h-4.212v-7.471h4.045v.809h-3.069v2.36h2.893v.8h-2.893v2.694h3.236Zm6.867,0h-.976l-2.373-3.791a21.992,21.992,0,0,1-1.387-2.495l-.032.012c.055.941.067,1.84.067,3.082v3.192h-.911v-7.471h1.065l2.383,3.779a20.8,20.8,0,0,1,1.331,2.427l.033-.01c-.089-1-.11-1.907-.11-3.072v-3.125h.908Zm6.367-6.652h-2.285v6.652h-.976v-6.652h-2.271v-.819h5.531Z" transform="translate(-3898.453 -587)" fill="#ef3c79"/>
      <path id="Trazado_622683" data-name="Trazado 622683" d="M1779.725,1137.985a3.9,3.9,0,0,1,.277-4.458h0l13.35-16.795a45.819,45.819,0,0,1-27.122-13.092l0,0a45.946,45.946,0,0,1-9.952-50.249l-9.888-22.651-28.615,1.725a89.526,89.526,0,0,0-8.721,38.533v.081a89.533,89.533,0,0,0,84.425,89.448Zm-49.826-57.057a15.15,15.15,0,0,1-.189-1.746l7.251-1.155a12.7,12.7,0,0,1,.488,2,4.348,4.348,0,0,1-.443,3.139,3.411,3.411,0,0,1-2.484,1.472,4,4,0,0,1-3.039-.6A4.655,4.655,0,0,1,1729.9,1080.928Zm2.232,9.992-1.071-4.072,7.227-1.9,1.029,3.911-.785.205-.781-2.968-2.281.6.734,2.8-.771.205-.736-2.8-2.606.683.823,3.131Zm1.082,3.23,6.194-4.842.358.99-3.068,2.344c-.839.636-1.6,1.206-2.354,1.7l.008.02c.885-.1,1.872-.134,2.907-.142l3.9-.069.35.972-7.933.026Zm3.564,8.414-1.785-3.822,6.784-3.165,1.712,3.674-.734.341-1.3-2.785-2.145,1,1.226,2.625-.724.337-1.226-2.625-2.446,1.14,1.37,2.936Zm2.848,5.038-2.077-3.617,6.479-3.724.488.848-5.78,3.32,1.594,2.769Zm2.128,3.373c-1.146-1.624-.677-3.639,1.173-4.946,1.946-1.368,4.058-1.065,5.21.569,1.183,1.677.665,3.661-1.159,4.946C1744.879,1113.022,1742.853,1112.534,1741.753,1110.975Zm10.23,3.964a2.218,2.218,0,0,1-1.584.62,3.129,3.129,0,0,1-2.125-1.183,3.2,3.2,0,0,1-.459-.628l-2.257,1.972-.636-.726,5.566-4.867a11.277,11.277,0,0,1,1.325,1.3,3.069,3.069,0,0,1,.915,1.988A2.051,2.051,0,0,1,1751.983,1114.939Z" transform="translate(-963.309 -466.81)" fill="#fecb2f"/>
      <path id="Trazado_622684" data-name="Trazado 622684" d="M2906.4,766.543c.034-.514.1-.968.166-1.409l-.02-.008c-.27.356-.551.742-.868,1.1l-1.509,1.716,2.087.87Z" transform="translate(-2043.879 -226.659)" fill="#f15a29"/>
      <path id="Trazado_622685" data-name="Trazado 622685" d="M2329.523,768.341a5.313,5.313,0,0,0-1,.547l2.37,5.414a8.439,8.439,0,0,0,.911-.35,2.872,2.872,0,0,0,1.646-4.184C2332.754,768.148,2331.391,767.524,2329.523,768.341Z" transform="translate(-1523.407 -229.242)" fill="#f15a29"/>
      <path id="Trazado_622686" data-name="Trazado 622686" d="M2563.381,708.34c-1.6.13-2.278,1.677-2.147,3.3.128,1.6,1.1,2.958,2.63,2.834s2.275-1.594,2.14-3.285C2565.882,709.7,2564.985,708.214,2563.381,708.34Z" transform="translate(-1733.797 -175.309)" fill="#f15a29"/>
      <path id="Trazado_622687" data-name="Trazado 622687" d="M1922.919,514.439h-.037a89.429,89.429,0,0,0-76.588,43.13l26.431-1.593.237-.007a3.9,3.9,0,0,1,3.573,2.34l-.954.416.954-.416,8.591,19.681a45.808,45.808,0,0,1,75.949.508l24.421,4.3,14.358-24.757a89.5,89.5,0,0,0-76.89-43.6h-.046Zm-24.376,28.743a4.653,4.653,0,0,1-2.606,2.314,15.8,15.8,0,0,1-1.643.622l-2.942-6.727a12.866,12.866,0,0,1,1.813-.974,4.332,4.332,0,0,1,3.146-.36,3.413,3.413,0,0,1,2.052,2.031A4.017,4.017,0,0,1,1898.543,543.182Zm2.381.193-2.305-7.107,3.85-1.248.248.768-2.919.949.729,2.246,2.751-.894.247.76-2.753.892.831,2.562,3.08-1,.248.766Zm11.376-2.982-.848-3.177c-.267-1.01-.592-2.232-.78-3.135l-.02,0c-.083.9-.184,1.889-.342,2.972l-.549,3.824-.715.148-1.926-3.234c-.566-.97-1.045-1.842-1.432-2.671l-.022,0c.172.921.37,2.147.538,3.267l.461,3.18-.9.189-1.025-7.424,1.206-.254,1.989,3.277c.493.84.9,1.592,1.253,2.311l.023-.006c.042-.777.133-1.639.265-2.629l.562-3.812,1.205-.25,1.987,7.221Zm5.173-.435c-1.978.159-3.472-1.266-3.653-3.523-.188-2.364,1.146-4.029,3.134-4.188,2.044-.165,3.485,1.289,3.664,3.511C1920.822,538.311,1919.373,539.805,1917.472,539.958Zm45.231,4.253-.429.685-2.611-1.628-1.252,2.006,2.458,1.535-.424.679-2.458-1.537-1.432,2.289,2.751,1.718-.431.687-3.578-2.236,3.968-6.351Zm-9.871-4.633.377-.73,4.929,2.527-.377.732-2.036-1.045-3.039,5.928-.868-.445,3.04-5.928Zm-1.861-1.659-.523,7.88-.952-.4.168-2.476-2.448-1.025-1.621,1.874-.921-.384,5.235-5.918Zm-7.355-2.736a3.1,3.1,0,0,1,1.893,1.218,1.91,1.91,0,0,1,.144,1.541,1.966,1.966,0,0,1-1.895,1.4l-.009.032a1.873,1.873,0,0,1,.6,1.761,11.759,11.759,0,0,0-.048,2.135l-.956-.293a9.42,9.42,0,0,1,.056-1.852c.091-1.053-.189-1.545-1.017-1.832l-.869-.268-.951,3.1-.924-.283,2.162-7.06A11.376,11.376,0,0,1,1943.616,535.182Zm-8.514-2.013,5.417,1.155-.171.805-2.238-.478-1.39,6.516-.955-.2,1.391-6.516-2.226-.476Zm-5.972,5.572a3.267,3.267,0,0,0,1.643.7c.981.126,1.619-.319,1.715-1.067.087-.681-.259-1.138-1.213-1.641-1.154-.594-1.822-1.332-1.689-2.364a2.154,2.154,0,0,1,2.656-1.708,3.354,3.354,0,0,1,1.585.571l-.365.75a2.759,2.759,0,0,0-1.354-.535c-1.011-.128-1.473.427-1.539.933-.089.7.32,1.094,1.293,1.62,1.192.644,1.743,1.33,1.6,2.421-.146,1.143-1.11,2.039-2.86,1.813a3.868,3.868,0,0,1-1.831-.724Zm-5.859-6.611,2.264,3.863a20.983,20.983,0,0,1,1.252,2.472l.034-.006c-.058-1.006-.05-1.915-.012-3.08l.1-3.131.909.031-.243,7.479-.977-.031-2.252-3.873a21.884,21.884,0,0,1-1.306-2.541l-.034.008c.025.945.008,1.844-.032,3.088l-.106,3.2-.911-.032.245-7.479Z" transform="translate(-1087.398)" fill="#f15a29"/>
      <path id="Trazado_622688" data-name="Trazado 622688" d="M724.1,1490.135c0-1.508-.776-3.049-2.361-3.049-1.629,0-2.427,1.508-2.427,3.127,0,1.6.865,3.027,2.395,3.027S724.1,1491.831,724.1,1490.135Z" transform="translate(-68.434 -879.419)" fill="#21cbae"/>
      <path id="Trazado_622689" data-name="Trazado 622689" d="M5060.771,1418.261a5.369,5.369,0,0,0-1.13.1v5.908a7.749,7.749,0,0,0,.976.045,2.868,2.868,0,0,0,3.182-3.171C5063.808,1419.379,5062.81,1418.261,5060.771,1418.261Z" transform="translate(-3992.744 -817.19)" fill="#ef3c79"/>
      <path id="Trazado_622690" data-name="Trazado 622690" d="M2606.292,1078.657a3.941,3.941,0,0,1-.676-.059l-21.1-3.712a45.839,45.839,0,0,1-10.2,49.589l0,0a45.836,45.836,0,0,1-28.245,13.248l-15.39,19.36,14.867,24.369a89.567,89.567,0,0,0,85.948-89.541v-.08a89.433,89.433,0,0,0-8.532-38.05l-13.3,22.929-.9-.522.9.522A3.9,3.9,0,0,1,2606.292,1078.657Zm-18.586,64.965a9.012,9.012,0,0,1-1.525-1.047c-.837-.638-1.4-.673-2.089-.132l-.693.59,2.093,2.468-.736.624-4.766-5.623a11.242,11.242,0,0,1,1.312-1.315,3.079,3.079,0,0,1,2.043-.931,1.906,1.906,0,0,1,1.373.712,1.961,1.961,0,0,1,.158,2.348l.022.026a1.867,1.867,0,0,1,1.8.447,11.982,11.982,0,0,0,1.765,1.189Zm1.776-1.638-5.316-5.263,2.85-2.881.575.571-2.162,2.185,1.679,1.663,2.04-2.057.567.561-2.039,2.059,1.917,1.9,2.281-2.3.575.569Zm4.031-4.192-5.741-4.8,2.584-3.092.622.518-1.958,2.342,1.908,1.6,1.808-2.163.614.512-1.808,2.163,2.6,2.171Zm3.559-4.405-6.022-4.446.579-.789,6.024,4.448Zm4.247-6.335-4.478,0a22.1,22.1,0,0,1-2.853-.151l-.008.035c.828.453,1.6.921,2.651,1.58l2.711,1.7-.484.775-6.342-3.97.564-.9,4.475-.014a20.759,20.759,0,0,1,2.768.161l.009-.035c-.9-.453-1.677-.919-2.665-1.537l-2.654-1.661.483-.771,6.343,3.966Zm1.51-2.7-6.7-3.324,1.8-3.629.725.36-1.365,2.757,2.119,1.049,1.285-2.6.718.354-1.287,2.6,2.416,1.2,1.439-2.9.727.358Z" transform="translate(-1706.187 -487.649)" fill="#f7941e"/>
      <path id="Trazado_622691" data-name="Trazado 622691" d="M789.92,1350.306H789.9c-.111.433-.223.9-.377,1.354l-.732,2.161h2.262l-.743-2.151C790.143,1351.182,790.031,1350.739,789.92,1350.306Z" transform="translate(-131.256 -755.749)" fill="#21cbae"/>
    </g>
  </g>
</svg>
