<svg xmlns="http://www.w3.org/2000/svg" xmlns:xlink="http://www.w3.org/1999/xlink" width="505" height="352" viewBox="0 0 505 352">
  <defs>
    <filter id="Rect치ngulo_299086" x="0" y="0" width="505" height="352" filterUnits="userSpaceOnUse">
      <feOffset dy="5" input="SourceAlpha"/>
      <feGaussianBlur stdDeviation="3" result="blur"/>
      <feFlood flood-opacity="0.161"/>
      <feComposite operator="in" in2="blur"/>
      <feComposite in="SourceGraphic"/>
    </filter>
  </defs>
  <g id="Grupo_897741" data-name="Grupo 897741" transform="translate(-851 -2971)">
    <g id="Grupo_894344" data-name="Grupo 894344" transform="translate(860 2975)">
      <g transform="matrix(1, 0, 0, 1, -9, -4)" filter="url(#Rect치ngulo_299086)">
        <rect id="Rect치ngulo_299086-2" data-name="Rect치ngulo 299086" width="487" height="334" rx="10" transform="translate(9 4)" fill="#fdfdfd"/>
      </g>
    </g>
    <g id="layer1" transform="translate(1343.329 2633.398)">
      <rect id="rect2396" width="80.281" height="59.771" transform="translate(-413.559 551.866)" fill="#fff" stroke="#ef3c79" stroke-linecap="round" stroke-width="2.2"/>
      <path id="path3168" d="M-378.594,677c0,11.366-25.874,20.58-57.79,20.58s-57.791-9.214-57.791-20.58,25.874-20.58,57.791-20.58,57.791,9.214,57.791,20.58Z" transform="translate(66.013 -161.178)" fill="#fff" stroke="#fecb2f" stroke-linecap="round" stroke-width="2.681" fill-rule="evenodd"/>
      <g id="g3193" transform="translate(-386.996 379.602)">
        <path id="path3183" d="M-373.223,245.543l30.537-.044" transform="translate(373.239 -225.953)" fill="none" stroke="#21cbae" stroke-width="2.451" fill-rule="evenodd"/>
        <path id="path3185" d="M-356.807,240.672v23.067" transform="translate(371.985 -225.584)" fill="none" stroke="#21cbae" stroke-width="2.451" fill-rule="evenodd"/>
        <path id="path3189" d="M-373.241,289.631l15.178-24.147,15.408,24.223" transform="translate(373.241 -227.48)" fill="none" stroke="#21cbae" stroke-linejoin="bevel" stroke-width="2.451" fill-rule="evenodd"/>
        <path id="path3191" d="M-412.728,278.33a7.344,7.344,0,0,1-7.266,7.419,7.344,7.344,0,0,1-7.266-7.419,7.344,7.344,0,0,1,7.266-7.419A7.344,7.344,0,0,1-412.728,278.33Z" transform="translate(435.173 -270.911)" fill="#fff" stroke="#21cbae" stroke-linecap="round" stroke-linejoin="bevel" stroke-width="2.451" fill-rule="evenodd"/>
      </g>
      <path id="path3201" d="M-245.6,403.863h84.24" transform="translate(-14.423 -1.93)" fill="none" stroke="#0b5999" stroke-width="4.8" fill-rule="evenodd"/>
      <path id="text3213" d="M-403.3,463.343h-4.146l-1.142,3.234h-1.461L-406.2,455.8h1.773l3.785,10.779h-1.535l-1.117-3.234m-.386-1.158-1.65-4.909-1.772,4.909h3.423m10.179-.747h-1.239a1.976,1.976,0,0,0-.583-1.248,1.742,1.742,0,0,0-1.249-.443,1.823,1.823,0,0,0-1.576.821,3.943,3.943,0,0,0-.567,2.266,3.559,3.559,0,0,0,.584,2.159,1.881,1.881,0,0,0,1.6.789q1.568,0,1.888-1.864h1.24a3.267,3.267,0,0,1-.953,2.208,3.082,3.082,0,0,1-2.217.788,3.107,3.107,0,0,1-2.5-1.1,4.5,4.5,0,0,1-.927-2.98,4.719,4.719,0,0,1,.936-3.07,3.086,3.086,0,0,1,2.512-1.149,3.044,3.044,0,0,1,2.143.731,3,3,0,0,1,.912,2.093m4.187-2.6v1h-1.273v5.3a.827.827,0,0,0,.14.559.778.778,0,0,0,.541.139,2.223,2.223,0,0,0,.591-.057v1.034a5.72,5.72,0,0,1-1,.1,1.692,1.692,0,0,1-1.108-.32,1.1,1.1,0,0,1-.378-.9v-5.854h-1.059v-1h1.059v-2.127h1.215v2.127h1.273m4.37-.222a3.174,3.174,0,0,1,2.586,1.108,4.676,4.676,0,0,1,.927,3.1,4.453,4.453,0,0,1-.936,3,3.2,3.2,0,0,1-2.561,1.092,3.189,3.189,0,0,1-2.578-1.1,4.58,4.58,0,0,1-.928-3.046,4.579,4.579,0,0,1,.928-3.045,3.174,3.174,0,0,1,2.561-1.108m1.634,1.945a1.882,1.882,0,0,0-1.617-.813,1.923,1.923,0,0,0-1.634.813,3.682,3.682,0,0,0-.591,2.208,3.66,3.66,0,0,0,.591,2.209,1.93,1.93,0,0,0,1.634.8,1.9,1.9,0,0,0,1.609-.8,3.543,3.543,0,0,0,.6-2.167,3.755,3.755,0,0,0-.591-2.258m7.285-.64a4.146,4.146,0,0,0-1.026.123,2.051,2.051,0,0,0-.771.386,1.674,1.674,0,0,0-.517.813,4.451,4.451,0,0,0-.164,1.313v4.023h-1.239v-7.742h1.132v1.4a4.737,4.737,0,0,1,1.018-1.239,1.764,1.764,0,0,1,1.1-.378c.077,0,.232.013.467.041v1.264" transform="translate(19.618 -7.054)"/>
      <path id="text3217" d="M-411.968,526.4a8.025,8.025,0,0,1,.066-1.018,7.953,7.953,0,0,1,.222-1.083,6.476,6.476,0,0,1,.411-1.076,4.844,4.844,0,0,1,.632-.976,4.23,4.23,0,0,1,.887-.8,4.2,4.2,0,0,1,1.191-.533,5.368,5.368,0,0,1,1.518-.206,3.825,3.825,0,0,1,4.154,3.523H-404.3a2.846,2.846,0,0,0-.927-1.733,3.033,3.033,0,0,0-1.978-.575,2.942,2.942,0,0,0-2.472,1.2,5.238,5.238,0,0,0-.912,3.259,5.036,5.036,0,0,0,.945,3.218,3.1,3.1,0,0,0,2.553,1.191,2.67,2.67,0,0,0,2.037-.747,4.325,4.325,0,0,0,.968-2.315h1.42q-.5,4.27-4.433,4.27a5.264,5.264,0,0,1-1.708-.263,3.75,3.75,0,0,1-1.288-.7,5.334,5.334,0,0,1-.895-1,4.622,4.622,0,0,1-.583-1.206,9.078,9.078,0,0,1-.3-1.24,8,8,0,0,1-.091-1.19m10.942-.2a2.882,2.882,0,0,1,.213-1.059,2.1,2.1,0,0,1,.5-.722,2.3,2.3,0,0,1,.715-.435,3.475,3.475,0,0,1,.813-.23,5.924,5.924,0,0,1,.845-.057,3.656,3.656,0,0,1,2.176.542,1.8,1.8,0,0,1,.747,1.567v4.557a.6.6,0,0,0,.172.452.715.715,0,0,0,.493.156.789.789,0,0,0,.254-.042v.936a3.265,3.265,0,0,1-.837.132,1.29,1.29,0,0,1-.9-.28,1.314,1.314,0,0,1-.361-.853,4.412,4.412,0,0,1-1.281.862,3.357,3.357,0,0,1-1.355.272,2.664,2.664,0,0,1-1.855-.616,2.143,2.143,0,0,1-.682-1.674,1.97,1.97,0,0,1,.9-1.839,6.02,6.02,0,0,1,2.126-.591q.213-.025.813-.107a2.48,2.48,0,0,0,1.009-.279.653.653,0,0,0,.279-.583v-.32a.97.97,0,0,0-.452-.853,2.277,2.277,0,0,0-1.28-.3,2.116,2.116,0,0,0-1.306.336,1.411,1.411,0,0,0-.509,1.034h-1.239m2.463,4.72a2.51,2.51,0,0,0,1.666-.541,1.528,1.528,0,0,0,.657-1.166v-1.379a3.67,3.67,0,0,1-.878.247q-.55.09-1.034.163a6.875,6.875,0,0,0-.936.214,1.491,1.491,0,0,0-.722.435,1.136,1.136,0,0,0-.272.788,1.123,1.123,0,0,0,.394.912,1.731,1.731,0,0,0,1.125.328m6.571-1.568a2.844,2.844,0,0,0,.091.452,1.712,1.712,0,0,0,.188.4,1.139,1.139,0,0,0,.32.345,1.805,1.805,0,0,0,.526.222,2.894,2.894,0,0,0,.763.091,2.338,2.338,0,0,0,1.306-.329,1.024,1.024,0,0,0,.5-.887.844.844,0,0,0-.279-.665,2.212,2.212,0,0,0-.928-.418l-1.141-.271a4.469,4.469,0,0,1-1.921-.829,1.812,1.812,0,0,1-.542-1.4,2.072,2.072,0,0,1,.813-1.716,3.363,3.363,0,0,1,2.159-.648,3.1,3.1,0,0,1,2.069.616,2.2,2.2,0,0,1,.739,1.765h-1.3q-.048-1.248-1.543-1.248a2.05,2.05,0,0,0-1.207.32,1,1,0,0,0-.443.854.811.811,0,0,0,.337.665,2.955,2.955,0,0,0,1.092.443l1.182.271a3.623,3.623,0,0,1,1.674.8,1.836,1.836,0,0,1,.517,1.371,2.128,2.128,0,0,1-.87,1.782,3.708,3.708,0,0,1-2.323.665,3.445,3.445,0,0,1-2.282-.649,2.583,2.583,0,0,1-.805-1.995h1.306m9.605-5.656a3.174,3.174,0,0,1,2.586,1.108,4.681,4.681,0,0,1,.927,3.1,4.456,4.456,0,0,1-.936,3A3.2,3.2,0,0,1-382.37,532a3.191,3.191,0,0,1-2.579-1.1,4.588,4.588,0,0,1-.927-3.046,4.585,4.585,0,0,1,.927-3.046,3.176,3.176,0,0,1,2.562-1.108m1.634,1.946a1.879,1.879,0,0,0-1.617-.813,1.92,1.92,0,0,0-1.634.813,3.678,3.678,0,0,0-.591,2.208,3.66,3.66,0,0,0,.591,2.208,1.927,1.927,0,0,0,1.634.8,1.9,1.9,0,0,0,1.609-.8,3.553,3.553,0,0,0,.6-2.168,3.756,3.756,0,0,0-.591-2.257m13.945-4.762V531.66h-1.084v-1.026a3.174,3.174,0,0,1-1.083,1.043,2.841,2.841,0,0,1-1.387.321,2.981,2.981,0,0,1-2.463-1.133,4.82,4.82,0,0,1-.9-3.087,4.55,4.55,0,0,1,.9-2.964,2.946,2.946,0,0,1,2.414-1.117,2.677,2.677,0,0,1,2.388,1.2v-4.015h1.215m-3.382,3.965a1.937,1.937,0,0,0-1.634.829,3.536,3.536,0,0,0-.616,2.176,3.568,3.568,0,0,0,.616,2.183,1.963,1.963,0,0,0,1.641.821,1.845,1.845,0,0,0,1.568-.813,3.626,3.626,0,0,0,.591-2.168,3.7,3.7,0,0,0-.591-2.208,1.848,1.848,0,0,0-1.576-.821m11.858,3.358h-5.714a5.227,5.227,0,0,0,.1.952,2.149,2.149,0,0,0,.312.7,2.079,2.079,0,0,0,1.871,1.009,2.007,2.007,0,0,0,2.02-1.552h1.248a3.208,3.208,0,0,1-1.117,1.97,3.351,3.351,0,0,1-2.2.715,3.229,3.229,0,0,1-2.578-1.093,4.485,4.485,0,0,1-.936-3,4.586,4.586,0,0,1,.961-3.054,3.211,3.211,0,0,1,2.586-1.149,3.42,3.42,0,0,1,1.913.542,3.134,3.134,0,0,1,1.223,1.493,7.47,7.47,0,0,1,.312,2.472M-364,527.194h4.334a.155.155,0,0,0,.017-.082,2.272,2.272,0,0,0-.616-1.617,2,2,0,0,0-1.527-.665,2,2,0,0,0-1.535.648,2.689,2.689,0,0,0-.673,1.716m18.543-6.314h1.379v7.57a3.217,3.217,0,0,1-1.133,2.586,4.529,4.529,0,0,1-3.029.961,4.453,4.453,0,0,1-3.013-.952,3.255,3.255,0,0,1-1.1-2.594v-7.57h1.363v7.57a2.089,2.089,0,0,0,.747,1.757,3.189,3.189,0,0,0,2,.583,3.055,3.055,0,0,0,2.037-.624,2.114,2.114,0,0,0,.747-1.715v-7.57m4.324,8.472a3.061,3.061,0,0,0,.091.452,1.789,1.789,0,0,0,.188.4,1.151,1.151,0,0,0,.321.345,1.816,1.816,0,0,0,.526.222,2.9,2.9,0,0,0,.764.091,2.334,2.334,0,0,0,1.305-.329,1.022,1.022,0,0,0,.5-.887.844.844,0,0,0-.279-.665,2.2,2.2,0,0,0-.927-.418l-1.142-.271a4.469,4.469,0,0,1-1.921-.829,1.816,1.816,0,0,1-.542-1.4,2.074,2.074,0,0,1,.813-1.716,3.362,3.362,0,0,1,2.159-.648,3.1,3.1,0,0,1,2.069.616,2.2,2.2,0,0,1,.739,1.765h-1.3q-.05-1.248-1.543-1.248a2.047,2.047,0,0,0-1.207.32,1,1,0,0,0-.443.854.81.81,0,0,0,.336.665,2.955,2.955,0,0,0,1.093.443l1.182.271a3.628,3.628,0,0,1,1.674.8,1.84,1.84,0,0,1,.517,1.371,2.128,2.128,0,0,1-.87,1.782,3.711,3.711,0,0,1-2.324.665,3.447,3.447,0,0,1-2.282-.649,2.585,2.585,0,0,1-.8-1.995h1.305m9.605-5.656a3.172,3.172,0,0,1,2.586,1.108,4.676,4.676,0,0,1,.928,3.1,4.452,4.452,0,0,1-.937,3A3.194,3.194,0,0,1-331.515,532a3.19,3.19,0,0,1-2.578-1.1,4.583,4.583,0,0,1-.928-3.046,4.58,4.58,0,0,1,.928-3.046,3.174,3.174,0,0,1,2.561-1.108m1.634,1.946a1.878,1.878,0,0,0-1.617-.813,1.921,1.921,0,0,0-1.634.813,3.678,3.678,0,0,0-.591,2.208,3.659,3.659,0,0,0,.591,2.208,1.928,1.928,0,0,0,1.634.8,1.9,1.9,0,0,0,1.609-.8,3.546,3.546,0,0,0,.6-2.168,3.749,3.749,0,0,0-.591-2.257" transform="translate(-1.711 -10.858)"/>
      <path id="text3221" d="M-432.978,643.845v9.564h5.32v1.215h-6.7V643.845h1.379m8.017-.139h1.674l-2.2,2.183h-.887l1.412-2.183m.238,3.177v7.742h-1.232v-7.742h1.232m2.514,0h1.132v1.092a3.366,3.366,0,0,1,1.059-1.009,2.688,2.688,0,0,1,1.322-.3,2.442,2.442,0,0,1,1.248.287,2.306,2.306,0,0,1,.846.895,3.339,3.339,0,0,1,1.067-.92,2.945,2.945,0,0,1,1.306-.262,2.314,2.314,0,0,1,1.666.558,2.1,2.1,0,0,1,.583,1.593v5.812h-1.248v-5.336a1.619,1.619,0,0,0-.378-1.141,1.354,1.354,0,0,0-1.051-.411,1.676,1.676,0,0,0-1.288.591,2.058,2.058,0,0,0-.534,1.429v4.868h-1.239v-5.336a1.6,1.6,0,0,0-.378-1.141,1.34,1.34,0,0,0-1.051-.411,1.676,1.676,0,0,0-1.288.591,2.054,2.054,0,0,0-.534,1.429v4.868h-1.24v-7.742m13.477-3.038v1.56h-1.24v-1.56h1.24m.008,3.038v7.742h-1.231v-7.742h1.231m4.817,0v1h-1.273v5.3a.828.828,0,0,0,.139.559.777.777,0,0,0,.542.139,2.232,2.232,0,0,0,.591-.057v1.034a5.736,5.736,0,0,1-1,.1,1.7,1.7,0,0,1-1.108-.32,1.106,1.106,0,0,1-.378-.9v-5.854h-1.058v-1h1.058v-2.126h1.215v2.126h1.273m7.932,4.286h-5.713a5.249,5.249,0,0,0,.1.952,2.175,2.175,0,0,0,.312.7,2.081,2.081,0,0,0,1.872,1.01,2.008,2.008,0,0,0,2.02-1.552h1.248a3.211,3.211,0,0,1-1.117,1.97,3.35,3.35,0,0,1-2.2.714,3.232,3.232,0,0,1-2.579-1.092,4.49,4.49,0,0,1-.936-3,4.59,4.59,0,0,1,.961-3.054,3.213,3.213,0,0,1,2.586-1.149,3.417,3.417,0,0,1,1.913.541,3.142,3.142,0,0,1,1.224,1.494,7.475,7.475,0,0,1,.311,2.472m-5.673-1.01h4.335a.158.158,0,0,0,.016-.081,2.278,2.278,0,0,0-.615-1.618,2,2,0,0,0-1.528-.665,2,2,0,0,0-1.535.649,2.693,2.693,0,0,0-.673,1.715m17.69-6.313v10.779h-1.084V653.6a3.182,3.182,0,0,1-1.083,1.043,2.841,2.841,0,0,1-1.387.32,2.98,2.98,0,0,1-2.463-1.132,4.821,4.821,0,0,1-.9-3.088,4.548,4.548,0,0,1,.9-2.963,2.946,2.946,0,0,1,2.413-1.117,2.677,2.677,0,0,1,2.389,1.2v-4.014h1.215m-3.383,3.965a1.935,1.935,0,0,0-1.633.829,3.536,3.536,0,0,0-.616,2.176,3.572,3.572,0,0,0,.616,2.183,1.963,1.963,0,0,0,1.641.821,1.846,1.846,0,0,0,1.568-.813,3.628,3.628,0,0,0,.591-2.168,3.705,3.705,0,0,0-.591-2.208,1.848,1.848,0,0,0-1.577-.821m11.859,3.358H-381.2a5.241,5.241,0,0,0,.1.952,2.154,2.154,0,0,0,.312.7,2.079,2.079,0,0,0,1.871,1.01,2.007,2.007,0,0,0,2.02-1.552h1.248a3.211,3.211,0,0,1-1.117,1.97,3.351,3.351,0,0,1-2.2.714,3.23,3.23,0,0,1-2.578-1.092,4.485,4.485,0,0,1-.936-3,4.585,4.585,0,0,1,.961-3.054,3.211,3.211,0,0,1,2.586-1.149,3.419,3.419,0,0,1,1.913.541,3.14,3.14,0,0,1,1.223,1.494,7.47,7.47,0,0,1,.312,2.472m-5.673-1.01h4.334a.148.148,0,0,0,.017-.081,2.275,2.275,0,0,0-.616-1.618,2,2,0,0,0-1.527-.665,1.993,1.993,0,0,0-1.535.649,2.688,2.688,0,0,0-.673,1.715m17.509,4.466h-1.117v-1.083a3.459,3.459,0,0,1-1.133,1.092,2.938,2.938,0,0,1-1.444.328,2.656,2.656,0,0,1-1.8-.575,1.928,1.928,0,0,1-.665-1.535v-5.968h1.215v5.476a1.48,1.48,0,0,0,.435,1.117,1.629,1.629,0,0,0,1.166.41,1.871,1.871,0,0,0,1.535-.714,2.936,2.936,0,0,0,.574-1.9v-4.392h1.232v7.742m2.1-7.742h1.133v1.3a3.514,3.514,0,0,1,1.108-1.166,2.848,2.848,0,0,1,1.469-.353,2.629,2.629,0,0,1,1.782.575,1.927,1.927,0,0,1,.665,1.535v5.854h-1.224v-5.36a1.461,1.461,0,0,0-.435-1.117,1.6,1.6,0,0,0-1.157-.411,1.858,1.858,0,0,0-1.527.715,2.933,2.933,0,0,0-.575,1.9v4.277h-1.24v-7.742m13.067,5.435a2.95,2.95,0,0,0,.091.452,1.765,1.765,0,0,0,.188.4,1.15,1.15,0,0,0,.32.344,1.814,1.814,0,0,0,.526.222,2.9,2.9,0,0,0,.764.091,2.344,2.344,0,0,0,1.305-.329,1.026,1.026,0,0,0,.5-.887.844.844,0,0,0-.279-.665,2.184,2.184,0,0,0-.928-.418l-1.141-.272a4.474,4.474,0,0,1-1.921-.828,1.818,1.818,0,0,1-.542-1.4,2.073,2.073,0,0,1,.813-1.716,3.363,3.363,0,0,1,2.159-.648,3.1,3.1,0,0,1,2.069.615,2.2,2.2,0,0,1,.739,1.766h-1.3q-.05-1.248-1.544-1.249a2.046,2.046,0,0,0-1.206.32,1,1,0,0,0-.443.854.81.81,0,0,0,.336.665,2.957,2.957,0,0,0,1.092.443l1.182.271a3.623,3.623,0,0,1,1.675.8,1.837,1.837,0,0,1,.517,1.372,2.127,2.127,0,0,1-.87,1.781,3.711,3.711,0,0,1-2.324.665,3.452,3.452,0,0,1-2.282-.648,2.582,2.582,0,0,1-.8-1.995h1.305m7.8-8.472v1.56h-1.24v-1.56h1.24m.007,3.038v7.742H-341.9v-7.742h1.231m2.872,5.435a2.96,2.96,0,0,0,.09.452,1.776,1.776,0,0,0,.189.4,1.139,1.139,0,0,0,.32.344,1.808,1.808,0,0,0,.525.222,2.9,2.9,0,0,0,.764.091,2.34,2.34,0,0,0,1.305-.329,1.025,1.025,0,0,0,.5-.887.841.841,0,0,0-.28-.665,2.179,2.179,0,0,0-.927-.418l-1.142-.272a4.479,4.479,0,0,1-1.921-.828,1.817,1.817,0,0,1-.541-1.4,2.071,2.071,0,0,1,.813-1.716,3.361,3.361,0,0,1,2.159-.648,3.106,3.106,0,0,1,2.069.615,2.2,2.2,0,0,1,.739,1.766h-1.3q-.048-1.248-1.543-1.249a2.049,2.049,0,0,0-1.207.32,1,1,0,0,0-.443.854.811.811,0,0,0,.337.665,2.957,2.957,0,0,0,1.092.443l1.182.271a3.614,3.614,0,0,1,1.674.8,1.833,1.833,0,0,1,.517,1.372,2.128,2.128,0,0,1-.87,1.781,3.708,3.708,0,0,1-2.323.665,3.455,3.455,0,0,1-2.283-.648,2.585,2.585,0,0,1-.8-1.995h1.306m9.334-5.435v1h-1.272v5.3a.827.827,0,0,0,.139.559.774.774,0,0,0,.541.139,2.226,2.226,0,0,0,.591-.057v1.034a5.725,5.725,0,0,1-1,.1,1.692,1.692,0,0,1-1.108-.32,1.1,1.1,0,0,1-.378-.9v-5.854h-1.059v-1h1.059v-2.126h1.215v2.126h1.272m7.933,4.286h-5.714a5.241,5.241,0,0,0,.1.952,2.154,2.154,0,0,0,.312.7,2.079,2.079,0,0,0,1.871,1.01,2.007,2.007,0,0,0,2.02-1.552h1.248a3.211,3.211,0,0,1-1.117,1.97,3.351,3.351,0,0,1-2.2.714,3.23,3.23,0,0,1-2.578-1.092,4.485,4.485,0,0,1-.936-3,4.585,4.585,0,0,1,.961-3.054,3.211,3.211,0,0,1,2.586-1.149,3.419,3.419,0,0,1,1.913.541,3.14,3.14,0,0,1,1.223,1.494,7.471,7.471,0,0,1,.312,2.472m-5.673-1.01h4.334a.148.148,0,0,0,.017-.081,2.274,2.274,0,0,0-.616-1.618,2,2,0,0,0-1.527-.665,1.993,1.993,0,0,0-1.535.649,2.688,2.688,0,0,0-.673,1.715m7.319-3.275h1.132v1.092a3.366,3.366,0,0,1,1.059-1.009,2.688,2.688,0,0,1,1.322-.3,2.442,2.442,0,0,1,1.248.287,2.306,2.306,0,0,1,.846.895,3.34,3.34,0,0,1,1.067-.92,2.946,2.946,0,0,1,1.306-.262,2.314,2.314,0,0,1,1.666.558,2.1,2.1,0,0,1,.583,1.593v5.812H-309.9v-5.336a1.619,1.619,0,0,0-.378-1.141,1.354,1.354,0,0,0-1.051-.411,1.676,1.676,0,0,0-1.288.591,2.058,2.058,0,0,0-.534,1.429v4.868h-1.24v-5.336a1.6,1.6,0,0,0-.378-1.141,1.34,1.34,0,0,0-1.051-.411,1.676,1.676,0,0,0-1.288.591,2.053,2.053,0,0,0-.534,1.429v4.868h-1.239v-7.742m12.229,2.282a2.879,2.879,0,0,1,.213-1.059,2.089,2.089,0,0,1,.5-.722,2.256,2.256,0,0,1,.715-.435,3.391,3.391,0,0,1,.813-.23,5.924,5.924,0,0,1,.845-.057,3.658,3.658,0,0,1,2.176.541,1.807,1.807,0,0,1,.747,1.568v4.557a.593.593,0,0,0,.172.451.71.71,0,0,0,.493.156.815.815,0,0,0,.254-.041v.936a3.259,3.259,0,0,1-.837.131,1.291,1.291,0,0,1-.9-.279,1.312,1.312,0,0,1-.361-.853,4.45,4.45,0,0,1-1.281.862,3.357,3.357,0,0,1-1.355.271,2.667,2.667,0,0,1-1.855-.615A2.148,2.148,0,0,1-307,652.67a1.972,1.972,0,0,1,.9-1.839,6.053,6.053,0,0,1,2.127-.591c.142-.016.413-.052.813-.106a2.485,2.485,0,0,0,1.009-.279.657.657,0,0,0,.279-.584v-.32a.973.973,0,0,0-.452-.854,2.285,2.285,0,0,0-1.28-.3,2.115,2.115,0,0,0-1.306.337,1.41,1.41,0,0,0-.509,1.034h-1.239m2.463,4.721a2.512,2.512,0,0,0,1.666-.542,1.526,1.526,0,0,0,.657-1.165V650.8a3.711,3.711,0,0,1-.878.246q-.55.091-1.034.164a6.991,6.991,0,0,0-.936.213,1.5,1.5,0,0,0-.722.435,1.14,1.14,0,0,0-.272.789,1.12,1.12,0,0,0,.394.911,1.732,1.732,0,0,0,1.125.329" transform="translate(0 -20.256)"/>
      <g id="g3260" transform="translate(-266.025 461.514)">
        <path id="path3203" d="M-255.3,453.962h84.24" transform="translate(270.856 -446.323)" fill="none" stroke="#0b5999" stroke-width="4.8" fill-rule="evenodd"/>
        <path id="path3207" d="M-258.5,445.992l.279,13.918-13.918-6.958Z" transform="translate(272.143 -445.714)" fill="none" stroke="#0b5999" stroke-width="0" fill-rule="evenodd"/>
        <path id="path3225" d="M-256.7,445.691l.278,13.918-13.918-6.959Z" transform="translate(272.005 -445.691)" fill="none" stroke="#0b5999" stroke-width="3.9" fill-rule="evenodd"/>
      </g>
      <path id="text3227" d="M-228.857,462.925v-.89l6.314-2.679v1.027l-5.093,2.076,5.093,2.119v1.028l-6.314-2.68m7.55,0v-.89l6.315-2.679v1.027l-5.093,2.076,5.093,2.119v1.028l-6.315-2.68m13.6-.466h-5a4.507,4.507,0,0,0,.086.833,1.884,1.884,0,0,0,.273.611,1.819,1.819,0,0,0,1.638.884,1.756,1.756,0,0,0,1.767-1.358h1.092a2.814,2.814,0,0,1-.976,1.724,2.937,2.937,0,0,1-1.926.624,2.827,2.827,0,0,1-2.255-.955,3.929,3.929,0,0,1-.819-2.629,4.018,4.018,0,0,1,.84-2.672,2.81,2.81,0,0,1,2.263-1.006,2.994,2.994,0,0,1,1.674.474,2.741,2.741,0,0,1,1.069,1.308,6.526,6.526,0,0,1,.273,2.162m-4.963-.884h3.792a.127.127,0,0,0,.015-.072,1.992,1.992,0,0,0-.539-1.415,1.746,1.746,0,0,0-1.336-.582,1.748,1.748,0,0,0-1.344.568,2.354,2.354,0,0,0-.588,1.5m9.277.41,2.342,3.5h-1.257l-1.688-2.6-1.724,2.6h-1.228l2.392-3.448-2.27-3.326h1.236l1.624,2.457,1.63-2.457h1.215l-2.27,3.276m5.969-3.276v.876h-1.113v4.64a.725.725,0,0,0,.122.489.68.68,0,0,0,.474.122,1.946,1.946,0,0,0,.517-.05v.905a5.016,5.016,0,0,1-.876.086,1.48,1.48,0,0,1-.97-.28.965.965,0,0,1-.331-.791v-5.121h-.927v-.876h.927v-1.861h1.063v1.861h1.113m6.941,3.75h-5a4.591,4.591,0,0,0,.086.833,1.884,1.884,0,0,0,.273.611,1.82,1.82,0,0,0,1.638.884,1.757,1.757,0,0,0,1.768-1.358h1.092a2.811,2.811,0,0,1-.977,1.724,2.934,2.934,0,0,1-1.925.624,2.83,2.83,0,0,1-2.256-.955,3.929,3.929,0,0,1-.818-2.629,4.013,4.013,0,0,1,.84-2.672,2.809,2.809,0,0,1,2.263-1.006,2.993,2.993,0,0,1,1.674.474,2.743,2.743,0,0,1,1.07,1.308,6.53,6.53,0,0,1,.272,2.162m-4.963-.884h3.793a.137.137,0,0,0,.014-.072,1.991,1.991,0,0,0-.538-1.415,1.748,1.748,0,0,0-1.336-.582,1.745,1.745,0,0,0-1.343.568,2.355,2.355,0,0,0-.589,1.5m6.4-2.866h.992v1.135a3.058,3.058,0,0,1,.97-1.021,2.49,2.49,0,0,1,1.286-.309,2.3,2.3,0,0,1,1.559.5,1.687,1.687,0,0,1,.582,1.344v5.121h-1.07v-4.691a1.28,1.28,0,0,0-.381-.976,1.4,1.4,0,0,0-1.013-.359,1.629,1.629,0,0,0-1.336.624,2.57,2.57,0,0,0-.5,1.66v3.742h-1.085v-6.774m12.661-2.658v9.432h-.948v-.9a2.8,2.8,0,0,1-.949.913,2.487,2.487,0,0,1-1.215.28,2.608,2.608,0,0,1-2.155-.991,4.22,4.22,0,0,1-.79-2.7,3.983,3.983,0,0,1,.79-2.593,2.579,2.579,0,0,1,2.112-.977,2.341,2.341,0,0,1,2.09,1.048v-3.512h1.063m-2.959,3.47a1.7,1.7,0,0,0-1.43.725,3.1,3.1,0,0,0-.538,1.9,3.125,3.125,0,0,0,.538,1.911,1.718,1.718,0,0,0,1.437.719,1.616,1.616,0,0,0,1.372-.711,3.176,3.176,0,0,0,.517-1.9,3.242,3.242,0,0,0-.517-1.932,1.616,1.616,0,0,0-1.379-.719m5.319,3.944a2.579,2.579,0,0,0,.079.4,1.565,1.565,0,0,0,.165.352,1,1,0,0,0,.281.3,1.591,1.591,0,0,0,.459.194,2.537,2.537,0,0,0,.669.079,2.05,2.05,0,0,0,1.142-.287.9.9,0,0,0,.439-.776.734.734,0,0,0-.245-.582,1.916,1.916,0,0,0-.812-.367l-1-.237a3.912,3.912,0,0,1-1.681-.725,1.59,1.59,0,0,1-.474-1.228,1.816,1.816,0,0,1,.711-1.5,2.944,2.944,0,0,1,1.89-.567,2.715,2.715,0,0,1,1.81.538,1.931,1.931,0,0,1,.647,1.544h-1.135q-.043-1.092-1.351-1.092a1.785,1.785,0,0,0-1.056.281.876.876,0,0,0-.388.746.705.705,0,0,0,.295.582,2.567,2.567,0,0,0,.955.388l1.034.237a3.165,3.165,0,0,1,1.466.7,1.6,1.6,0,0,1,.453,1.2,1.862,1.862,0,0,1-.761,1.559,3.246,3.246,0,0,1-2.033.582,3.025,3.025,0,0,1-2-.567,2.263,2.263,0,0,1-.7-1.746h1.143m11.852-1.43v.89l-6.321,2.68v-1.028l5.093-2.075-5.093-2.12v-1.027l6.321,2.679m7.551,0v.89l-6.322,2.68v-1.028l5.094-2.075-5.094-2.12v-1.027l6.322,2.679" transform="translate(-15.702 -5.918)"/>
      <path id="text3231" d="M-228.857,538.872v-.89l6.314-2.679v1.027l-5.093,2.076,5.093,2.119v1.027l-6.314-2.679m7.55,0v-.89l6.315-2.679v1.027l-5.093,2.076,5.093,2.119v1.027l-6.315-2.679m8.9-6.874v1.365h-1.084V532h1.084m.007,2.658v6.774h-1.078v-6.774h1.078m1.838,0h.991v1.135a3.077,3.077,0,0,1,.97-1.021,2.49,2.49,0,0,1,1.286-.308,2.3,2.3,0,0,1,1.559.5,1.687,1.687,0,0,1,.582,1.344v5.121h-1.07v-4.691a1.276,1.276,0,0,0-.381-.976,1.4,1.4,0,0,0-1.013-.359,1.63,1.63,0,0,0-1.336.624,2.57,2.57,0,0,0-.5,1.66v3.742h-1.084v-6.774m12.351,2.277h-1.085a1.722,1.722,0,0,0-.51-1.092,1.52,1.52,0,0,0-1.092-.388,1.593,1.593,0,0,0-1.379.719,3.447,3.447,0,0,0-.5,1.983,3.115,3.115,0,0,0,.51,1.889,1.647,1.647,0,0,0,1.4.69q1.372,0,1.652-1.631h1.084a2.855,2.855,0,0,1-.833,1.932,2.7,2.7,0,0,1-1.94.69,2.716,2.716,0,0,1-2.191-.962,3.932,3.932,0,0,1-.812-2.607,4.121,4.121,0,0,1,.819-2.687,2.7,2.7,0,0,1,2.2-1.006,2.668,2.668,0,0,1,1.875.639,2.622,2.622,0,0,1,.8,1.831M-195.86,532v9.432h-1.092V532h1.092m7.146,9.432h-.976v-.948a3.034,3.034,0,0,1-.992.955,2.572,2.572,0,0,1-1.264.287,2.324,2.324,0,0,1-1.573-.5,1.687,1.687,0,0,1-.582-1.344v-5.222h1.063v4.792a1.294,1.294,0,0,0,.381.976,1.424,1.424,0,0,0,1.021.359,1.635,1.635,0,0,0,1.343-.624,2.568,2.568,0,0,0,.5-1.66v-3.843h1.077v6.774m7.331-9.432v9.432h-.948v-.9a2.8,2.8,0,0,1-.949.913,2.487,2.487,0,0,1-1.215.28,2.608,2.608,0,0,1-2.155-.991,4.222,4.222,0,0,1-.79-2.7,3.983,3.983,0,0,1,.79-2.593,2.576,2.576,0,0,1,2.112-.977,2.341,2.341,0,0,1,2.09,1.048V532h1.063m-2.959,3.47a1.7,1.7,0,0,0-1.43.725,3.1,3.1,0,0,0-.538,1.9,3.125,3.125,0,0,0,.538,1.911,1.718,1.718,0,0,0,1.437.719,1.616,1.616,0,0,0,1.372-.711,3.177,3.177,0,0,0,.517-1.9,3.247,3.247,0,0,0-.517-1.933,1.617,1.617,0,0,0-1.379-.718m10.376,2.938h-5a4.508,4.508,0,0,0,.086.833,1.884,1.884,0,0,0,.273.61,1.819,1.819,0,0,0,1.637.884,1.755,1.755,0,0,0,1.767-1.358h1.093a2.81,2.81,0,0,1-.977,1.723,2.932,2.932,0,0,1-1.926.625,2.83,2.83,0,0,1-2.255-.955,3.929,3.929,0,0,1-.818-2.629,4.011,4.011,0,0,1,.84-2.672,2.808,2.808,0,0,1,2.263-1.006,2.992,2.992,0,0,1,1.674.474,2.742,2.742,0,0,1,1.07,1.308,6.531,6.531,0,0,1,.272,2.162m-4.963-.884h3.792a.127.127,0,0,0,.015-.072,1.991,1.991,0,0,0-.538-1.415,1.747,1.747,0,0,0-1.336-.582,1.745,1.745,0,0,0-1.343.568,2.35,2.35,0,0,0-.589,1.5m12.467.46v.89l-6.322,2.679v-1.027l5.094-2.076-5.094-2.119V535.3l6.322,2.679m7.55,0v.89l-6.321,2.679v-1.027l5.093-2.076-5.093-2.119V535.3l6.321,2.679" transform="translate(-15.702 -11.721)"/>
      <path id="text3235" d="M-107.948,393.41h-4.146l-1.141,3.234H-114.7l3.842-10.779h1.773l3.785,10.779h-1.535l-1.117-3.234m-.386-1.157-1.65-4.91-1.773,4.91h3.423m5.032,2.085a2.889,2.889,0,0,0,.091.452,1.724,1.724,0,0,0,.188.4,1.127,1.127,0,0,0,.32.345,1.8,1.8,0,0,0,.526.222,2.856,2.856,0,0,0,.763.091,2.343,2.343,0,0,0,1.305-.328,1.025,1.025,0,0,0,.5-.887.84.84,0,0,0-.279-.665,2.195,2.195,0,0,0-.928-.419l-1.141-.271a4.46,4.46,0,0,1-1.921-.829,1.813,1.813,0,0,1-.542-1.4,2.073,2.073,0,0,1,.813-1.716,3.363,3.363,0,0,1,2.159-.648,3.1,3.1,0,0,1,2.068.616,2.2,2.2,0,0,1,.739,1.765h-1.3q-.049-1.248-1.544-1.248a2.043,2.043,0,0,0-1.207.32,1,1,0,0,0-.443.853.811.811,0,0,0,.337.665,2.924,2.924,0,0,0,1.092.443l1.182.271a3.618,3.618,0,0,1,1.675.8,1.835,1.835,0,0,1,.517,1.371,2.128,2.128,0,0,1-.87,1.782,3.708,3.708,0,0,1-2.323.665,3.45,3.45,0,0,1-2.282-.648,2.583,2.583,0,0,1-.805-1.995h1.306m9.605-5.657a3.173,3.173,0,0,1,2.586,1.108,4.677,4.677,0,0,1,.928,3.1,4.456,4.456,0,0,1-.936,3,3.2,3.2,0,0,1-2.561,1.092,3.189,3.189,0,0,1-2.578-1.1,4.584,4.584,0,0,1-.928-3.046,4.584,4.584,0,0,1,.928-3.046,3.175,3.175,0,0,1,2.561-1.108m1.634,1.946a1.879,1.879,0,0,0-1.617-.813,1.921,1.921,0,0,0-1.634.813,3.685,3.685,0,0,0-.591,2.208,3.662,3.662,0,0,0,.591,2.208,1.928,1.928,0,0,0,1.634.8,1.9,1.9,0,0,0,1.609-.8,3.549,3.549,0,0,0,.6-2.168,3.753,3.753,0,0,0-.591-2.257m9.494.878h-1.24a1.97,1.97,0,0,0-.583-1.248,1.74,1.74,0,0,0-1.248-.443,1.822,1.822,0,0,0-1.576.821,3.94,3.94,0,0,0-.567,2.266,3.561,3.561,0,0,0,.583,2.159,1.882,1.882,0,0,0,1.6.788q1.568,0,1.888-1.864h1.24a3.268,3.268,0,0,1-.952,2.209,3.088,3.088,0,0,1-2.217.788,3.106,3.106,0,0,1-2.5-1.1,4.5,4.5,0,0,1-.928-2.98,4.713,4.713,0,0,1,.936-3.07,3.087,3.087,0,0,1,2.512-1.15,3.048,3.048,0,0,1,2.143.731,3,3,0,0,1,.911,2.094m2.652-5.64v1.56h-1.24v-1.56h1.24m.008,3.038v7.742h-1.232V388.9h1.232m2.034,2.282a2.87,2.87,0,0,1,.213-1.058,2.092,2.092,0,0,1,.5-.723,2.287,2.287,0,0,1,.714-.435,3.487,3.487,0,0,1,.813-.23,5.929,5.929,0,0,1,.846-.057,3.656,3.656,0,0,1,2.176.542,1.8,1.8,0,0,1,.747,1.568v4.556a.6.6,0,0,0,.172.452.707.707,0,0,0,.493.156.791.791,0,0,0,.255-.042v.937a3.263,3.263,0,0,1-.837.131,1.3,1.3,0,0,1-.9-.279,1.319,1.319,0,0,1-.361-.854,4.431,4.431,0,0,1-1.281.863,3.373,3.373,0,0,1-1.355.271,2.662,2.662,0,0,1-1.855-.616,2.144,2.144,0,0,1-.681-1.674,1.971,1.971,0,0,1,.9-1.839,6.029,6.029,0,0,1,2.126-.591c.142-.017.413-.052.813-.107a2.484,2.484,0,0,0,1.01-.279.655.655,0,0,0,.279-.583v-.32a.97.97,0,0,0-.452-.853,2.285,2.285,0,0,0-1.281-.3,2.114,2.114,0,0,0-1.305.336,1.408,1.408,0,0,0-.509,1.034h-1.24m2.463,4.72a2.512,2.512,0,0,0,1.667-.541,1.526,1.526,0,0,0,.657-1.166v-1.38a3.67,3.67,0,0,1-.878.247q-.55.09-1.034.164a6.737,6.737,0,0,0-.936.213,1.508,1.508,0,0,0-.722.435,1.14,1.14,0,0,0-.271.788,1.122,1.122,0,0,0,.394.912,1.732,1.732,0,0,0,1.125.328m11.719-4.4h-1.24a1.97,1.97,0,0,0-.583-1.248,1.74,1.74,0,0,0-1.248-.443,1.822,1.822,0,0,0-1.576.821,3.94,3.94,0,0,0-.567,2.266,3.561,3.561,0,0,0,.583,2.159,1.882,1.882,0,0,0,1.6.788q1.568,0,1.888-1.864h1.24a3.268,3.268,0,0,1-.952,2.209,3.088,3.088,0,0,1-2.217.788,3.106,3.106,0,0,1-2.5-1.1,4.5,4.5,0,0,1-.928-2.98,4.713,4.713,0,0,1,.936-3.07,3.087,3.087,0,0,1,2.512-1.15,3.048,3.048,0,0,1,2.143.731,3,3,0,0,1,.911,2.094m2.652-5.64v1.56h-1.24v-1.56h1.24m.008,3.038v7.742h-1.232V388.9h1.232m5.466-3.194h1.675l-2.2,2.184h-.887l1.412-2.184m-.378,2.972a3.173,3.173,0,0,1,2.586,1.108,4.677,4.677,0,0,1,.928,3.1,4.456,4.456,0,0,1-.936,3,3.2,3.2,0,0,1-2.561,1.092,3.19,3.19,0,0,1-2.578-1.1,4.584,4.584,0,0,1-.928-3.046,4.584,4.584,0,0,1,.928-3.046,3.175,3.175,0,0,1,2.561-1.108m1.634,1.946a1.879,1.879,0,0,0-1.617-.813,1.921,1.921,0,0,0-1.634.813,3.685,3.685,0,0,0-.591,2.208,3.662,3.662,0,0,0,.591,2.208,1.928,1.928,0,0,0,1.634.8,1.9,1.9,0,0,0,1.609-.8,3.549,3.549,0,0,0,.6-2.168,3.753,3.753,0,0,0-.591-2.257m3.575-1.724H-49.6v1.3a3.516,3.516,0,0,1,1.108-1.167,2.858,2.858,0,0,1,1.47-.353,2.634,2.634,0,0,1,1.782.574,1.929,1.929,0,0,1,.665,1.536v5.853H-45.8v-5.361a1.461,1.461,0,0,0-.435-1.117,1.6,1.6,0,0,0-1.158-.41,1.86,1.86,0,0,0-1.527.714,2.936,2.936,0,0,0-.575,1.9v4.277h-1.24V388.9m18.567-3.038v10.779h-1.084v-1.026a3.182,3.182,0,0,1-1.084,1.043,2.841,2.841,0,0,1-1.387.321,2.98,2.98,0,0,1-2.463-1.133,4.821,4.821,0,0,1-.9-3.087,4.552,4.552,0,0,1,.9-2.964,2.946,2.946,0,0,1,2.414-1.117,2.677,2.677,0,0,1,2.389,1.2v-4.015h1.215m-3.382,3.966a1.937,1.937,0,0,0-1.634.828,3.539,3.539,0,0,0-.616,2.176,3.571,3.571,0,0,0,.616,2.183,1.963,1.963,0,0,0,1.642.821,1.846,1.846,0,0,0,1.568-.813,3.626,3.626,0,0,0,.591-2.167,3.7,3.7,0,0,0-.591-2.208,1.848,1.848,0,0,0-1.576-.821m11.858,3.357h-5.714a5.2,5.2,0,0,0,.1.952,2.153,2.153,0,0,0,.312.7,2.08,2.08,0,0,0,1.872,1.01,2.007,2.007,0,0,0,2.02-1.552h1.248a3.213,3.213,0,0,1-1.116,1.971,3.357,3.357,0,0,1-2.2.714,3.231,3.231,0,0,1-2.578-1.092,4.49,4.49,0,0,1-.936-3.005,4.586,4.586,0,0,1,.961-3.053,3.21,3.21,0,0,1,2.586-1.15,3.419,3.419,0,0,1,1.913.542,3.133,3.133,0,0,1,1.223,1.494,7.456,7.456,0,0,1,.312,2.471m-5.673-1.01h4.335a.153.153,0,0,0,.016-.082,2.276,2.276,0,0,0-.616-1.617,2,2,0,0,0-1.527-.665,2,2,0,0,0-1.535.648,2.694,2.694,0,0,0-.673,1.716m-84.879,17.676a8.03,8.03,0,0,1,.066-1.019,7.959,7.959,0,0,1,.222-1.083,6.439,6.439,0,0,1,.411-1.075,4.89,4.89,0,0,1,.632-.977,4.224,4.224,0,0,1,.887-.8,4.175,4.175,0,0,1,1.191-.534,5.372,5.372,0,0,1,1.519-.205,3.824,3.824,0,0,1,4.153,3.522h-1.411a2.849,2.849,0,0,0-.928-1.733,3.039,3.039,0,0,0-1.978-.574,2.942,2.942,0,0,0-2.472,1.2,5.246,5.246,0,0,0-.911,3.259,5.034,5.034,0,0,0,.944,3.218,3.1,3.1,0,0,0,2.553,1.19,2.667,2.667,0,0,0,2.037-.747,4.329,4.329,0,0,0,.969-2.315h1.42q-.5,4.268-4.433,4.269a5.261,5.261,0,0,1-1.707-.263,3.757,3.757,0,0,1-1.289-.7,5.336,5.336,0,0,1-.895-1,4.638,4.638,0,0,1-.583-1.206,9.071,9.071,0,0,1-.3-1.239,8.012,8.012,0,0,1-.091-1.19m14-2.7a3.173,3.173,0,0,1,2.586,1.108,4.678,4.678,0,0,1,.928,3.1,4.456,4.456,0,0,1-.936,3,3.2,3.2,0,0,1-2.561,1.092,3.188,3.188,0,0,1-2.578-1.1,4.582,4.582,0,0,1-.928-3.046,4.582,4.582,0,0,1,.928-3.046,3.174,3.174,0,0,1,2.561-1.108m1.634,1.946a1.879,1.879,0,0,0-1.617-.813,1.92,1.92,0,0,0-1.634.813,3.682,3.682,0,0,0-.591,2.208,3.66,3.66,0,0,0,.591,2.208,1.927,1.927,0,0,0,1.634.8,1.9,1.9,0,0,0,1.609-.8,3.549,3.549,0,0,0,.6-2.168,3.754,3.754,0,0,0-.591-2.257m3.575-1.724h1.133v1.092a3.37,3.37,0,0,1,1.059-1.009,2.7,2.7,0,0,1,1.322-.3,2.452,2.452,0,0,1,1.248.287,2.319,2.319,0,0,1,.846.895,3.325,3.325,0,0,1,1.067-.919,2.931,2.931,0,0,1,1.305-.263,2.315,2.315,0,0,1,1.667.559,2.1,2.1,0,0,1,.583,1.592v5.812h-1.248v-5.336a1.622,1.622,0,0,0-.378-1.142,1.357,1.357,0,0,0-1.051-.41,1.674,1.674,0,0,0-1.289.591,2.055,2.055,0,0,0-.534,1.428v4.868h-1.24v-5.336a1.605,1.605,0,0,0-.378-1.142,1.342,1.342,0,0,0-1.051-.41,1.674,1.674,0,0,0-1.289.591,2.055,2.055,0,0,0-.534,1.428v4.868h-1.24v-7.742m18.387,7.742H-77.77v-1.083a3.463,3.463,0,0,1-1.133,1.092,2.938,2.938,0,0,1-1.445.329,2.655,2.655,0,0,1-1.8-.574,1.928,1.928,0,0,1-.665-1.536v-5.968H-81.6v5.476a1.477,1.477,0,0,0,.435,1.117,1.63,1.63,0,0,0,1.166.41,1.869,1.869,0,0,0,1.535-.714,2.935,2.935,0,0,0,.575-1.9v-4.393h1.231v7.742m2.105-7.742h1.133v1.3a3.514,3.514,0,0,1,1.108-1.167,2.858,2.858,0,0,1,1.47-.353,2.634,2.634,0,0,1,1.782.574,1.928,1.928,0,0,1,.665,1.536v5.853h-1.223v-5.361a1.46,1.46,0,0,0-.435-1.117,1.6,1.6,0,0,0-1.158-.41,1.86,1.86,0,0,0-1.527.714,2.936,2.936,0,0,0-.575,1.9v4.277h-1.24v-7.742m9.379-3.038v1.56h-1.24v-1.56h1.24m.008,3.038v7.742h-1.231v-7.742h1.231m8.019,2.6h-1.24a1.97,1.97,0,0,0-.583-1.248,1.74,1.74,0,0,0-1.248-.443,1.822,1.822,0,0,0-1.576.821,3.939,3.939,0,0,0-.566,2.266,3.561,3.561,0,0,0,.583,2.159,1.882,1.882,0,0,0,1.6.788q1.568,0,1.888-1.864h1.24A3.269,3.269,0,0,1-58,414.665a3.088,3.088,0,0,1-2.217.788,3.106,3.106,0,0,1-2.5-1.1,4.5,4.5,0,0,1-.928-2.98,4.713,4.713,0,0,1,.936-3.07,3.086,3.086,0,0,1,2.512-1.15,3.048,3.048,0,0,1,2.143.731,3,3,0,0,1,.911,2.094m1.4-.32a2.872,2.872,0,0,1,.213-1.058,2.092,2.092,0,0,1,.5-.723,2.287,2.287,0,0,1,.714-.435,3.483,3.483,0,0,1,.813-.23,5.926,5.926,0,0,1,.846-.057,3.656,3.656,0,0,1,2.176.542,1.8,1.8,0,0,1,.747,1.568v4.556a.6.6,0,0,0,.172.452.707.707,0,0,0,.493.156.79.79,0,0,0,.254-.042v.937a3.261,3.261,0,0,1-.837.131,1.3,1.3,0,0,1-.9-.279,1.319,1.319,0,0,1-.361-.854,4.431,4.431,0,0,1-1.281.863,3.372,3.372,0,0,1-1.355.271,2.662,2.662,0,0,1-1.855-.616,2.144,2.144,0,0,1-.681-1.674,1.971,1.971,0,0,1,.9-1.839,6.027,6.027,0,0,1,2.126-.591c.142-.017.413-.052.813-.107a2.483,2.483,0,0,0,1.01-.279.655.655,0,0,0,.279-.583v-.32a.97.97,0,0,0-.451-.853,2.286,2.286,0,0,0-1.281-.3,2.114,2.114,0,0,0-1.305.336,1.409,1.409,0,0,0-.509,1.034h-1.24m2.463,4.72a2.512,2.512,0,0,0,1.667-.541,1.526,1.526,0,0,0,.657-1.166v-1.38a3.665,3.665,0,0,1-.878.247q-.55.09-1.034.164a6.733,6.733,0,0,0-.936.213,1.507,1.507,0,0,0-.722.435,1.139,1.139,0,0,0-.271.788,1.122,1.122,0,0,0,.394.912,1.732,1.732,0,0,0,1.125.328m11.719-4.4H-42.8a1.97,1.97,0,0,0-.583-1.248,1.74,1.74,0,0,0-1.248-.443,1.822,1.822,0,0,0-1.576.821,3.939,3.939,0,0,0-.566,2.266,3.56,3.56,0,0,0,.583,2.159,1.882,1.882,0,0,0,1.6.788q1.568,0,1.888-1.864h1.24a3.269,3.269,0,0,1-.952,2.209,3.088,3.088,0,0,1-2.217.788,3.106,3.106,0,0,1-2.5-1.1,4.5,4.5,0,0,1-.928-2.98,4.713,4.713,0,0,1,.936-3.07,3.086,3.086,0,0,1,2.512-1.15,3.048,3.048,0,0,1,2.143.731,3,3,0,0,1,.911,2.094m2.652-5.64v1.56h-1.24v-1.56h1.24m.008,3.038v7.742h-1.231v-7.742H-38.9m5.466-3.194h1.675l-2.2,2.184h-.887l1.412-2.184m-.378,2.972a3.173,3.173,0,0,1,2.586,1.108,4.678,4.678,0,0,1,.928,3.1,4.457,4.457,0,0,1-.936,3,3.2,3.2,0,0,1-2.561,1.092,3.189,3.189,0,0,1-2.578-1.1,4.583,4.583,0,0,1-.928-3.046,4.583,4.583,0,0,1,.928-3.046,3.175,3.175,0,0,1,2.561-1.108m1.634,1.946a1.879,1.879,0,0,0-1.617-.813,1.921,1.921,0,0,0-1.634.813,3.684,3.684,0,0,0-.591,2.208,3.661,3.661,0,0,0,.591,2.208,1.928,1.928,0,0,0,1.634.8,1.9,1.9,0,0,0,1.609-.8,3.549,3.549,0,0,0,.6-2.168,3.754,3.754,0,0,0-.591-2.257m3.575-1.724h1.133v1.3a3.515,3.515,0,0,1,1.108-1.167,2.858,2.858,0,0,1,1.47-.353,2.634,2.634,0,0,1,1.782.574,1.928,1.928,0,0,1,.665,1.536v5.853h-1.223v-5.361a1.461,1.461,0,0,0-.435-1.117,1.6,1.6,0,0,0-1.158-.41,1.86,1.86,0,0,0-1.527.714,2.936,2.936,0,0,0-.575,1.9v4.277H-28.6v-7.742" transform="translate(-24.425 -0.543)"/>
      <path id="text3241" d="M-100.106,474.915v3.694h6.363v1.215h-7.733V469.045h7.454v1.224h-6.083v3.439h5.87v1.207h-5.87m11.459.912,2.676,4h-1.437l-1.929-2.971-1.97,2.971h-1.4l2.734-3.94-2.594-3.8h1.412l1.855,2.808,1.864-2.808h1.387l-2.594,3.744m6.822-3.744v1H-83.1v5.3a.826.826,0,0,0,.14.558.776.776,0,0,0,.542.139,2.189,2.189,0,0,0,.591-.057v1.034a5.737,5.737,0,0,1-1,.1,1.694,1.694,0,0,1-1.108-.32,1.1,1.1,0,0,1-.378-.9v-5.853h-1.059v-1h1.059v-2.126H-83.1v2.126h1.273m7.932,4.285h-5.714a5.193,5.193,0,0,0,.1.952,2.154,2.154,0,0,0,.312.7,2.08,2.08,0,0,0,1.872,1.009,2.007,2.007,0,0,0,2.02-1.552h1.248a3.208,3.208,0,0,1-1.117,1.97,3.352,3.352,0,0,1-2.2.715,3.231,3.231,0,0,1-2.578-1.092,4.489,4.489,0,0,1-.936-3.005,4.586,4.586,0,0,1,.961-3.053,3.211,3.211,0,0,1,2.586-1.15,3.419,3.419,0,0,1,1.913.542A3.133,3.133,0,0,1-74.2,473.9a7.456,7.456,0,0,1,.312,2.471m-5.673-1.009h4.335a.156.156,0,0,0,.016-.082,2.276,2.276,0,0,0-.616-1.617,2,2,0,0,0-1.527-.665,2,2,0,0,0-1.535.648,2.7,2.7,0,0,0-.673,1.716m7.318-3.276h1.133v1.3a3.514,3.514,0,0,1,1.108-1.167,2.858,2.858,0,0,1,1.47-.353,2.634,2.634,0,0,1,1.782.574,1.928,1.928,0,0,1,.665,1.536v5.853h-1.223v-5.361a1.461,1.461,0,0,0-.435-1.117,1.6,1.6,0,0,0-1.158-.41,1.86,1.86,0,0,0-1.527.714,2.936,2.936,0,0,0-.575,1.9v4.277h-1.24v-7.742m14.116,2.6h-1.24a1.97,1.97,0,0,0-.583-1.248,1.74,1.74,0,0,0-1.248-.443,1.822,1.822,0,0,0-1.576.821,3.94,3.94,0,0,0-.566,2.266,3.561,3.561,0,0,0,.583,2.159,1.882,1.882,0,0,0,1.6.788q1.568,0,1.888-1.864h1.24a3.269,3.269,0,0,1-.952,2.209,3.088,3.088,0,0,1-2.217.788,3.106,3.106,0,0,1-2.5-1.1,4.5,4.5,0,0,1-.928-2.98,4.713,4.713,0,0,1,.936-3.07,3.086,3.086,0,0,1,2.512-1.15,3.048,3.048,0,0,1,2.143.731,3,3,0,0,1,.911,2.094m2.652-5.64v1.56h-1.24v-1.56h1.24m.008,3.038v7.742H-56.7v-7.742h1.231M-50,468.889h1.675l-2.2,2.184h-.887L-50,468.889m-.378,2.972a3.173,3.173,0,0,1,2.586,1.108,4.678,4.678,0,0,1,.928,3.1,4.458,4.458,0,0,1-.936,3,3.2,3.2,0,0,1-2.561,1.092,3.19,3.19,0,0,1-2.578-1.1,4.583,4.583,0,0,1-.928-3.046,4.583,4.583,0,0,1,.928-3.046,3.175,3.175,0,0,1,2.561-1.108m1.634,1.946a1.879,1.879,0,0,0-1.617-.813,1.921,1.921,0,0,0-1.634.813,3.684,3.684,0,0,0-.591,2.208A3.661,3.661,0,0,0-52,478.224a1.928,1.928,0,0,0,1.634.8,1.9,1.9,0,0,0,1.609-.8,3.549,3.549,0,0,0,.6-2.168,3.754,3.754,0,0,0-.591-2.257m3.575-1.724h1.133v1.3a3.514,3.514,0,0,1,1.108-1.167,2.858,2.858,0,0,1,1.47-.353,2.634,2.634,0,0,1,1.782.574,1.928,1.928,0,0,1,.665,1.536v5.853H-40.24v-5.361a1.461,1.461,0,0,0-.435-1.117,1.6,1.6,0,0,0-1.158-.41,1.86,1.86,0,0,0-1.527.714,2.936,2.936,0,0,0-.575,1.9v4.277h-1.24v-7.742" transform="translate(-25.435 -6.899)"/>
      <path id="text3245" d="M-101.135,542.581V553.36h-1.387V542.581h1.387m2.267,3.038h1.133v1.3a3.515,3.515,0,0,1,1.108-1.167,2.857,2.857,0,0,1,1.47-.353,2.634,2.634,0,0,1,1.782.574,1.928,1.928,0,0,1,.665,1.536v5.853h-1.223V548a1.46,1.46,0,0,0-.435-1.117,1.6,1.6,0,0,0-1.158-.41,1.86,1.86,0,0,0-1.527.714,2.934,2.934,0,0,0-.575,1.9v4.277h-1.24v-7.742m14.116,2.6h-1.24a1.971,1.971,0,0,0-.583-1.248,1.74,1.74,0,0,0-1.248-.443,1.822,1.822,0,0,0-1.576.821,3.94,3.94,0,0,0-.567,2.266,3.56,3.56,0,0,0,.583,2.159,1.882,1.882,0,0,0,1.6.788q1.568,0,1.888-1.864h1.24a3.265,3.265,0,0,1-.952,2.208,3.085,3.085,0,0,1-2.217.789,3.106,3.106,0,0,1-2.5-1.1,4.5,4.5,0,0,1-.928-2.981,4.713,4.713,0,0,1,.936-3.07,3.087,3.087,0,0,1,2.512-1.15,3.048,3.048,0,0,1,2.143.731,3,3,0,0,1,.911,2.094m2.685-5.64V553.36h-1.248V542.581h1.248M-73.9,553.36h-1.117v-1.083a3.462,3.462,0,0,1-1.133,1.092,2.937,2.937,0,0,1-1.445.329,2.66,2.66,0,0,1-1.8-.575,1.928,1.928,0,0,1-.665-1.536v-5.968h1.215v5.476a1.477,1.477,0,0,0,.435,1.117,1.63,1.63,0,0,0,1.166.41,1.869,1.869,0,0,0,1.535-.714,2.936,2.936,0,0,0,.575-1.9v-4.393H-73.9v7.742m2.877-2.306a3,3,0,0,0,.09.451,1.739,1.739,0,0,0,.189.4,1.132,1.132,0,0,0,.32.345,1.817,1.817,0,0,0,.525.222,2.9,2.9,0,0,0,.764.091,2.343,2.343,0,0,0,1.305-.328,1.025,1.025,0,0,0,.5-.887.84.84,0,0,0-.279-.665,2.2,2.2,0,0,0-.928-.419l-1.141-.271a4.462,4.462,0,0,1-1.921-.829,1.816,1.816,0,0,1-.542-1.4,2.074,2.074,0,0,1,.813-1.716,3.362,3.362,0,0,1,2.159-.648,3.1,3.1,0,0,1,2.069.616,2.2,2.2,0,0,1,.739,1.765h-1.3q-.049-1.248-1.543-1.248a2.047,2.047,0,0,0-1.207.32,1,1,0,0,0-.443.854.81.81,0,0,0,.337.665,2.923,2.923,0,0,0,1.092.443l1.182.271a3.628,3.628,0,0,1,1.675.8,1.839,1.839,0,0,1,.517,1.372,2.128,2.128,0,0,1-.87,1.782,3.708,3.708,0,0,1-2.323.665,3.451,3.451,0,0,1-2.282-.648,2.586,2.586,0,0,1-.8-1.995h1.305m7.8-8.473v1.56h-1.24v-1.56h1.24m.008,3.038v7.742h-1.231v-7.742h1.231m5.466-3.194h1.675l-2.2,2.184h-.887l1.412-2.184m-.378,2.972a3.173,3.173,0,0,1,2.586,1.108,4.678,4.678,0,0,1,.928,3.1,4.458,4.458,0,0,1-.936,3,3.2,3.2,0,0,1-2.561,1.092,3.19,3.19,0,0,1-2.578-1.1,4.584,4.584,0,0,1-.928-3.046,4.582,4.582,0,0,1,.928-3.046,3.175,3.175,0,0,1,2.561-1.108m1.634,1.946a1.879,1.879,0,0,0-1.617-.813,1.921,1.921,0,0,0-1.634.813,3.681,3.681,0,0,0-.591,2.208,3.662,3.662,0,0,0,.591,2.208,1.928,1.928,0,0,0,1.634.8,1.9,1.9,0,0,0,1.609-.8,3.55,3.55,0,0,0,.6-2.168,3.754,3.754,0,0,0-.591-2.257m3.575-1.724h1.133v1.3a3.515,3.515,0,0,1,1.108-1.167,2.857,2.857,0,0,1,1.47-.353,2.634,2.634,0,0,1,1.782.574,1.928,1.928,0,0,1,.665,1.536v5.853h-1.223V548a1.46,1.46,0,0,0-.435-1.117,1.6,1.6,0,0,0-1.158-.41,1.86,1.86,0,0,0-1.527.714,2.934,2.934,0,0,0-.575,1.9v4.277h-1.24v-7.742" transform="translate(-25.355 -12.518)"/>
      <path id="text3249" d="M-116.507,615.515a6.616,6.616,0,0,0,.1,1.133,5.252,5.252,0,0,0,.369,1.19,4.363,4.363,0,0,0,.689,1.083,3.175,3.175,0,0,0,1.117.772,3.919,3.919,0,0,0,1.577.3,3.309,3.309,0,0,0,2.422-.937,3.172,3.172,0,0,0,.961-2.373v-.3h-3.268V615.17h4.491v5.755h-.879l-.344-1.437a5.183,5.183,0,0,1-1.683,1.3,4.653,4.653,0,0,1-1.995.418,4.718,4.718,0,0,1-2.561-.706,4.794,4.794,0,0,1-1.749-1.995,6.579,6.579,0,0,1-.623-2.915,7.834,7.834,0,0,1,.131-1.42,6.574,6.574,0,0,1,.5-1.493,5.226,5.226,0,0,1,.928-1.38,4.177,4.177,0,0,1,1.493-.985,5.405,5.405,0,0,1,2.119-.394,4.865,4.865,0,0,1,3.038.9,3.871,3.871,0,0,1,1.469,2.544h-1.4a2.6,2.6,0,0,0-1.051-1.634,3.429,3.429,0,0,0-2.061-.6,3.468,3.468,0,0,0-2.75,1.2,4.7,4.7,0,0,0-1.034,3.185m17.045,1.9h-5.714a5.17,5.17,0,0,0,.1.953,2.154,2.154,0,0,0,.312.7,2.08,2.08,0,0,0,1.872,1.01,2.007,2.007,0,0,0,2.019-1.551h1.248a3.213,3.213,0,0,1-1.117,1.97,3.358,3.358,0,0,1-2.2.714,3.231,3.231,0,0,1-2.578-1.092,4.491,4.491,0,0,1-.936-3,4.59,4.59,0,0,1,.961-3.054,3.21,3.21,0,0,1,2.586-1.149,3.417,3.417,0,0,1,1.913.541,3.137,3.137,0,0,1,1.223,1.494,7.459,7.459,0,0,1,.312,2.471m-5.673-1.01h4.335a.154.154,0,0,0,.016-.082,2.274,2.274,0,0,0-.616-1.617,2,2,0,0,0-1.527-.665,2,2,0,0,0-1.535.648,2.693,2.693,0,0,0-.673,1.716m7.318-3.275h1.133v1.3a3.509,3.509,0,0,1,1.108-1.166,2.848,2.848,0,0,1,1.47-.353,2.629,2.629,0,0,1,1.782.575,1.927,1.927,0,0,1,.665,1.535v5.854h-1.223v-5.361a1.463,1.463,0,0,0-.435-1.117,1.6,1.6,0,0,0-1.158-.41,1.862,1.862,0,0,0-1.527.714,2.936,2.936,0,0,0-.575,1.9v4.277h-1.24v-7.742m14.748,4.285h-5.714a5.211,5.211,0,0,0,.1.953,2.158,2.158,0,0,0,.312.7,2.08,2.08,0,0,0,1.872,1.01,2.007,2.007,0,0,0,2.02-1.551h1.248a3.213,3.213,0,0,1-1.117,1.97,3.357,3.357,0,0,1-2.2.714,3.23,3.23,0,0,1-2.578-1.092,4.488,4.488,0,0,1-.936-3,4.589,4.589,0,0,1,.961-3.054,3.21,3.21,0,0,1,2.586-1.149,3.418,3.418,0,0,1,1.913.541,3.137,3.137,0,0,1,1.223,1.494,7.458,7.458,0,0,1,.312,2.471m-5.673-1.01h4.335a.154.154,0,0,0,.016-.082,2.276,2.276,0,0,0-.616-1.617,2,2,0,0,0-1.527-.665,2,2,0,0,0-1.535.648,2.7,2.7,0,0,0-.673,1.716m11.029-2.192a4.148,4.148,0,0,0-1.026.123,2.043,2.043,0,0,0-.772.386,1.673,1.673,0,0,0-.517.813,4.464,4.464,0,0,0-.164,1.313v4.023h-1.24v-7.742H-80.3v1.4a4.737,4.737,0,0,1,1.018-1.24,1.767,1.767,0,0,1,1.1-.377c.077,0,.233.013.468.041v1.264m1.13,1.2a2.873,2.873,0,0,1,.213-1.059,2.079,2.079,0,0,1,.5-.722,2.255,2.255,0,0,1,.714-.435,3.4,3.4,0,0,1,.813-.23,5.8,5.8,0,0,1,.846-.057,3.656,3.656,0,0,1,2.176.541,1.8,1.8,0,0,1,.747,1.568v4.556a.593.593,0,0,0,.172.452.708.708,0,0,0,.493.156.814.814,0,0,0,.254-.041v.936a3.261,3.261,0,0,1-.837.131,1.3,1.3,0,0,1-.9-.279,1.319,1.319,0,0,1-.361-.854,4.432,4.432,0,0,1-1.281.863,3.374,3.374,0,0,1-1.355.271,2.662,2.662,0,0,1-1.855-.616,2.142,2.142,0,0,1-.681-1.674,1.971,1.971,0,0,1,.9-1.839,6.028,6.028,0,0,1,2.126-.591c.142-.017.413-.052.813-.107a2.468,2.468,0,0,0,1.01-.279.654.654,0,0,0,.279-.583v-.32a.971.971,0,0,0-.452-.854,2.285,2.285,0,0,0-1.281-.3,2.114,2.114,0,0,0-1.305.337,1.408,1.408,0,0,0-.509,1.034h-1.24m2.463,4.721a2.512,2.512,0,0,0,1.667-.542,1.526,1.526,0,0,0,.657-1.166v-1.379a3.716,3.716,0,0,1-.878.246q-.55.09-1.034.164a6.737,6.737,0,0,0-.936.213,1.507,1.507,0,0,0-.722.435,1.14,1.14,0,0,0-.271.789,1.121,1.121,0,0,0,.394.911,1.732,1.732,0,0,0,1.125.329m7.015-10.04v10.779h-1.248V610.089H-67.1m3.257,0v1.56h-1.24v-1.56h1.24m.008,3.038v7.742H-65.07v-7.742h1.231m7.609,0v1.092l-4.589,5.566h4.8v1.084h-6.305v-1.1l4.63-5.558H-62v-1.083h5.771m1.814,2.282a2.873,2.873,0,0,1,.213-1.059,2.079,2.079,0,0,1,.5-.722,2.254,2.254,0,0,1,.714-.435,3.4,3.4,0,0,1,.813-.23,5.8,5.8,0,0,1,.846-.057,3.656,3.656,0,0,1,2.176.541,1.8,1.8,0,0,1,.747,1.568v4.556a.592.592,0,0,0,.172.452.708.708,0,0,0,.493.156.814.814,0,0,0,.254-.041v.936a3.261,3.261,0,0,1-.837.131,1.3,1.3,0,0,1-.9-.279,1.319,1.319,0,0,1-.361-.854,4.432,4.432,0,0,1-1.281.863,3.374,3.374,0,0,1-1.355.271,2.662,2.662,0,0,1-1.855-.616,2.142,2.142,0,0,1-.681-1.674,1.971,1.971,0,0,1,.9-1.839,6.028,6.028,0,0,1,2.126-.591c.142-.017.413-.052.813-.107a2.468,2.468,0,0,0,1.01-.279.654.654,0,0,0,.279-.583v-.32a.971.971,0,0,0-.452-.854,2.285,2.285,0,0,0-1.281-.3,2.114,2.114,0,0,0-1.305.337,1.408,1.408,0,0,0-.509,1.034h-1.24m2.463,4.721a2.512,2.512,0,0,0,1.667-.542,1.526,1.526,0,0,0,.657-1.166v-1.379a3.716,3.716,0,0,1-.878.246q-.55.09-1.034.164a6.737,6.737,0,0,0-.936.213,1.507,1.507,0,0,0-.722.435,1.14,1.14,0,0,0-.271.789,1.121,1.121,0,0,0,.394.911,1.732,1.732,0,0,0,1.125.329m11.719-4.4h-1.24a1.973,1.973,0,0,0-.583-1.248,1.74,1.74,0,0,0-1.248-.443,1.822,1.822,0,0,0-1.576.821,3.941,3.941,0,0,0-.566,2.266,3.56,3.56,0,0,0,.583,2.159,1.882,1.882,0,0,0,1.6.788q1.568,0,1.888-1.863h1.24a3.269,3.269,0,0,1-.952,2.208,3.084,3.084,0,0,1-2.217.788,3.106,3.106,0,0,1-2.5-1.1,4.494,4.494,0,0,1-.928-2.98,4.717,4.717,0,0,1,.936-3.07,3.086,3.086,0,0,1,2.512-1.149,3.044,3.044,0,0,1,2.143.731,3,3,0,0,1,.911,2.093m2.652-5.639v1.56h-1.24v-1.56h1.24m.008,3.038v7.742h-1.231v-7.742h1.231m5.466-3.194h1.675l-2.2,2.183h-.887l1.412-2.183m-.378,2.972a3.173,3.173,0,0,1,2.586,1.108,4.678,4.678,0,0,1,.928,3.1,4.456,4.456,0,0,1-.936,3,3.2,3.2,0,0,1-2.561,1.092,3.19,3.19,0,0,1-2.578-1.1,4.582,4.582,0,0,1-.928-3.046,4.581,4.581,0,0,1,.928-3.045,3.175,3.175,0,0,1,2.561-1.108m1.634,1.945a1.881,1.881,0,0,0-1.617-.813,1.923,1.923,0,0,0-1.634.813,3.684,3.684,0,0,0-.591,2.208,3.657,3.657,0,0,0,.591,2.208,1.928,1.928,0,0,0,1.634.8,1.9,1.9,0,0,0,1.609-.8,3.546,3.546,0,0,0,.6-2.167,3.757,3.757,0,0,0-.591-2.258m3.575-1.723h1.133v1.3a3.51,3.51,0,0,1,1.108-1.166,2.848,2.848,0,0,1,1.47-.353,2.629,2.629,0,0,1,1.782.575,1.927,1.927,0,0,1,.665,1.535v5.854h-1.223v-5.361a1.463,1.463,0,0,0-.435-1.117,1.6,1.6,0,0,0-1.158-.41,1.862,1.862,0,0,0-1.527.714,2.936,2.936,0,0,0-.575,1.9v4.277h-1.24v-7.742" transform="translate(-24.181 -17.675)"/>
      <g id="g3265" transform="translate(-266.027 528.318)">
        <path id="path3267" d="M-255.3,453.962h84.24" transform="translate(270.856 -446.323)" fill="none" stroke="#0b5999" stroke-width="4.8" fill-rule="evenodd"/>
        <path id="path3269" d="M-258.5,445.992l.279,13.918-13.918-6.958Z" transform="translate(272.143 -445.714)" fill="none" stroke="#0b5999" stroke-width="0" fill-rule="evenodd"/>
        <path id="path3271" d="M-256.7,445.691l.278,13.918-13.918-6.959Z" transform="translate(272.005 -445.691)" fill="none" stroke="#0b5999" stroke-width="3.9" fill-rule="evenodd"/>
      </g>
      <g id="g3275" transform="translate(-160.806 603.75) rotate(180)">
        <path id="path3277" d="M0,0H84.24" transform="translate(15.556 6.557)" fill="none" stroke="#0b5999" stroke-width="4.8" fill-rule="evenodd"/>
        <path id="path3279" d="M13.639,13.918,13.918,0,0,6.958Z" fill="none" stroke="#0b5999" stroke-width="0" fill-rule="evenodd"/>
        <path id="path3281" d="M13.64,13.918,13.918,0,0,6.959Z" transform="translate(1.67 0.278)" fill="none" stroke="#0b5999" stroke-width="3.9" fill-rule="evenodd"/>
      </g>
    </g>
  </g>
</svg>
