<svg xmlns="http://www.w3.org/2000/svg" width="145.708" height="111.214" viewBox="0 0 145.708 111.214">
  <g id="Grupo_897738" data-name="Grupo 897738" transform="translate(-834.478 -170.535)">
    <g id="Grupo_897737" data-name="Grupo 897737">
      <g id="Grupo_897576" data-name="Grupo 897576" transform="translate(554.021 -114.417)">
        <g id="Grupo_897549" data-name="Grupo 897549" transform="translate(298.407 284.952)">
          <path id="Trazado_624599" data-name="Trazado 624599" d="M387.193,304.756l-1.23-4.5-5.084.231a19.317,19.317,0,0,0-1.634-2.807l2.692-4.315-3.313-3.279-4.289,2.745a19.572,19.572,0,0,0-2.817-1.607l.175-5.091-4.507-1.182-2.339,4.516a19.317,19.317,0,0,0-3.246.023L359.21,285l-4.494,1.231.231,5.088a19.311,19.311,0,0,0-2.805,1.635l-4.312-2.693-3.277,3.315,2.743,4.292a19.585,19.585,0,0,0-1.606,2.819l-5.087-.175-1.181,4.511,4.513,2.341a19.342,19.342,0,0,0,.023,3.249L339.465,313l1.23,4.5,5.084-.231a19.3,19.3,0,0,0,1.634,2.807l-2.692,4.315,3.313,3.279,4.289-2.744a19.581,19.581,0,0,0,2.817,1.607l-.176,5.091,4.508,1.182,2.339-4.516a19.25,19.25,0,0,0,3.246-.023l2.391,4.5,4.494-1.232-.231-5.087a19.288,19.288,0,0,0,2.806-1.635l4.312,2.693,3.277-3.315-2.743-4.291a19.541,19.541,0,0,0,1.606-2.819l5.087.176,1.181-4.511-4.513-2.341a19.346,19.346,0,0,0-.023-3.249Zm-20.7,15.7a12,12,0,1,1,8.4-14.748A11.994,11.994,0,0,1,366.5,320.455Z" transform="translate(-339.421 -284.952)" fill="#fecb2f"/>
        </g>
        <g id="Grupo_897554" data-name="Grupo 897554" transform="translate(280.458 286.053)">
          <g id="Grupo_897551" data-name="Grupo 897551" transform="translate(47.753)">
            <path id="Trazado_624600" data-name="Trazado 624600" d="M529.693,364.337,446.715,352.8a4.172,4.172,0,0,1-3.645-4.139l-1.138-57.878a28.607,28.607,0,0,1,2.963-1.886,3.224,3.224,0,0,1,1.827-.3l82.732,10.551a4.172,4.172,0,0,1,3.644,4.139v56.847a3.229,3.229,0,0,1-1.184,2.505C531.253,363.181,529.693,364.337,529.693,364.337Z" transform="translate(-440.53 -288.568)" fill="#21cbae"/>
            <g id="Grupo_897550" data-name="Grupo 897550" transform="translate(0 1.504)">
              <path id="Trazado_624601" data-name="Trazado 624601" d="M524.54,369.123l-82.731-10.551a4.172,4.172,0,0,1-3.644-4.139V297.586a3.242,3.242,0,0,1,3.652-3.216l82.731,10.551a4.173,4.173,0,0,1,3.645,4.139v56.847A3.242,3.242,0,0,1,524.54,369.123Z" transform="translate(-437.909 -294.089)" fill="#fff"/>
              <path id="Trazado_624602" data-name="Trazado 624602" d="M524.367,368.823a3.483,3.483,0,0,1-.442-.028h0l-82.731-10.551a4.436,4.436,0,0,1-3.867-4.392V297a3.5,3.5,0,0,1,3.94-3.469L524,304.086a4.436,4.436,0,0,1,3.867,4.392v56.847a3.5,3.5,0,0,1-3.5,3.5Zm-.378-.534a2.987,2.987,0,0,0,3.365-2.963V308.478a3.925,3.925,0,0,0-3.422-3.886L441.2,294.041A2.988,2.988,0,0,0,437.836,297v56.847a3.926,3.926,0,0,0,3.422,3.886l82.731,10.551Z" transform="translate(-437.326 -293.508)"/>
            </g>
            <path id="Trazado_624603" data-name="Trazado 624603" d="M692.279,344.224a.255.255,0,0,1-.255-.255v-15.5a3.925,3.925,0,0,0-3.422-3.886l-14.317-1.826a.255.255,0,1,1,.065-.506l14.317,1.826a4.436,4.436,0,0,1,3.867,4.392v15.5A.255.255,0,0,1,692.279,344.224Z" transform="translate(-601.996 -311.999)"/>
            <path id="Trazado_624604" data-name="Trazado 624604" d="M437.581,309.833a.255.255,0,0,1-.255-.255V297a3.5,3.5,0,0,1,3.94-3.469l64.952,8.283a.255.255,0,0,1-.065.506L441.2,294.041A2.988,2.988,0,0,0,437.836,297v12.574A.255.255,0,0,1,437.581,309.833Z" transform="translate(-437.326 -292.004)"/>
            <path id="Trazado_624605" data-name="Trazado 624605" d="M529.571,372.154l-79-10.074a3.034,3.034,0,0,1-2.651-3.01V304.235a2.165,2.165,0,0,1,2.44-2.148l79,10.074a3.034,3.034,0,0,1,2.65,3.01v54.834A2.166,2.166,0,0,1,529.571,372.154Z" transform="translate(-444.698 -297.96)" fill="#99b9ff"/>
          </g>
          <g id="Grupo_897553" data-name="Grupo 897553" transform="translate(0 67.109)">
            <path id="Trazado_624606" data-name="Trazado 624606" d="M366.577,552.768l-85.086-10.973a1.173,1.173,0,0,1-1.033-1.2c.006-.385.037-3.093.037-3.093l44.989-25.719a12.865,12.865,0,0,1,7.745-1.455l84.012,10.837a1.44,1.44,0,0,1,1.14.862l.135.316s-.072,2.259-.043,2.786a1.155,1.155,0,0,1-.595,1.086l-43.86,25.077A11.945,11.945,0,0,1,366.577,552.768Z" transform="translate(-280.458 -509.86)" fill="#21cbae"/>
            <g id="Grupo_897552" data-name="Grupo 897552" transform="translate(0.049)">
              <path id="Trazado_624607" data-name="Trazado 624607" d="M367.271,549.492,282.489,538.54a1.182,1.182,0,0,1-.436-2.2l43.625-24.916a11.946,11.946,0,0,1,7.441-1.476L417.9,520.9a1.182,1.182,0,0,1,.436,2.2l-43.625,24.916A11.946,11.946,0,0,1,367.271,549.492Z" transform="translate(-281.201 -509.599)" fill="#fff"/>
              <path id="Trazado_624608" data-name="Trazado 624608" d="M368.186,549.263a12.039,12.039,0,0,1-1.53-.1h0l-84.782-10.952a1.437,1.437,0,0,1-.53-2.674l43.625-24.916a12.272,12.272,0,0,1,7.6-1.508l84.782,10.952a1.437,1.437,0,0,1,.53,2.674l-43.625,24.916A12.284,12.284,0,0,1,368.186,549.263Zm-1.466-.6A11.76,11.76,0,0,0,374,547.216L417.627,522.3a.927.927,0,0,0-.342-1.725L332.5,509.623a11.761,11.761,0,0,0-7.282,1.444L281.6,535.983a.927.927,0,0,0,.342,1.725l84.782,10.953Z" transform="translate(-280.618 -509.02)"/>
            </g>
            <path id="Trazado_624609" data-name="Trazado 624609" d="M447.768,542.662,374.252,533.1a1.068,1.068,0,0,1-.394-1.986l17.286-9.773A10.788,10.788,0,0,1,397.864,520l73.517,9.566a1.068,1.068,0,0,1,.394,1.987l-17.286,9.773A10.787,10.787,0,0,1,447.768,542.662Z" transform="translate(-345.05 -516.599)" fill="#99b9ff"/>
          </g>
        </g>
        <g id="Grupo_897557" data-name="Grupo 897557" transform="translate(309.538 294.81)">
          <path id="Trazado_624610" data-name="Trazado 624610" d="M412.738,321.746,379,317.361a2.586,2.586,0,0,0-3.01,2.619v44.831a3.535,3.535,0,0,0,3.01,3.4l33.741,4.384a2.586,2.586,0,0,0,3.01-2.619V325.147A3.534,3.534,0,0,0,412.738,321.746Z" transform="translate(-375.987 -317.336)" fill="#fff"/>
          <g id="Grupo_897555" data-name="Grupo 897555" transform="translate(4.727 8.333)">
            <path id="Trazado_624611" data-name="Trazado 624611" d="M400.176,395.48l-8.661-1.125V365.892l8.661,1.125Z" transform="translate(-391.514 -359.443)" fill="#21cbae"/>
            <path id="Trazado_624612" data-name="Trazado 624612" d="M435.73,382.152l-8.661-1.125V344.709l8.661,1.125Z" transform="translate(-416.245 -344.709)" fill="#21cbae"/>
            <path id="Trazado_624613" data-name="Trazado 624613" d="M471.284,430.984l-8.661-1.125V412.889l8.661,1.125Z" transform="translate(-440.976 -392.134)" fill="#21cbae"/>
          </g>
          <g id="Grupo_897556" data-name="Grupo 897556" transform="translate(6.114 7.328)">
            <path id="Trazado_624614" data-name="Trazado 624614" d="M396.325,381.1a.255.255,0,0,1-.255-.255v-18a.255.255,0,0,1,.087-.191.248.248,0,0,1,.2-.061l8.661,1.125a.255.255,0,0,1,.222.253v8.143a.255.255,0,0,1-.51,0V364.2l-8.151-1.059v17.708A.255.255,0,0,1,396.325,381.1Z" transform="translate(-396.07 -356.142)"/>
            <path id="Trazado_624615" data-name="Trazado 624615" d="M440.54,375.039a.255.255,0,0,1-.255-.255V343.013l-8.151-1.059v25.634a.255.255,0,0,1-.51,0V341.663a.256.256,0,0,1,.087-.192.252.252,0,0,1,.2-.061l8.661,1.126a.255.255,0,0,1,.222.253v32A.255.255,0,0,1,440.54,375.039Z" transform="translate(-420.801 -341.408)"/>
            <path id="Trazado_624616" data-name="Trazado 624616" d="M467.434,424.031a.255.255,0,0,1-.255-.255V409.844a.254.254,0,0,1,.087-.191.25.25,0,0,1,.2-.061l8.661,1.125a.255.255,0,0,1,.222.253v9.79a.255.255,0,1,1-.51,0v-9.566l-8.151-1.059v13.642A.255.255,0,0,1,467.434,424.031Z" transform="translate(-445.532 -388.833)"/>
          </g>
        </g>
      </g>
    </g>
    <g id="Grupo_897577" data-name="Grupo 897577">
      <g id="Grupo_897569" data-name="Grupo 897569" transform="translate(905.631 200.694)">
        <g id="Grupo_897564" data-name="Grupo 897564">
          <path id="Trazado_624625" data-name="Trazado 624625" d="M592.876,387.08a3.244,3.244,0,0,1,2.77,3.125v19.063a2.385,2.385,0,0,1-2.77,2.416l-68.5-8.764a3.244,3.244,0,0,1-2.77-3.125V380.732a2.385,2.385,0,0,1,2.77-2.416Z" transform="translate(-521.346 -378.038)" fill="#fff"/>
          <path id="Trazado_624626" data-name="Trazado 624626" d="M521.018,399.467a.255.255,0,0,1-.255-.255V380.149a2.668,2.668,0,0,1,.89-2.039,2.71,2.71,0,0,1,2.168-.63l10.367,1.326a.255.255,0,0,1-.065.506l-10.367-1.326a2.2,2.2,0,0,0-1.766.506,2.166,2.166,0,0,0-.717,1.657v19.063A.255.255,0,0,1,521.018,399.467Z" transform="translate(-520.763 -377.455)"/>
          <path id="Trazado_624627" data-name="Trazado 624627" d="M628.259,428.937a3.108,3.108,0,0,1-.391-.025l-55.691-7.124a.255.255,0,0,1,.065-.506l55.691,7.125a2.2,2.2,0,0,0,1.766-.506,2.165,2.165,0,0,0,.717-1.657V407.18a2.986,2.986,0,0,0-2.548-2.872l-8.615-1.1a.255.255,0,0,1,.065-.506l8.615,1.1a3.51,3.51,0,0,1,2.993,3.377v19.063a2.626,2.626,0,0,1-2.667,2.694Z" transform="translate(-556.371 -395.014)"/>
        </g>
        <g id="Grupo_897568" data-name="Grupo 897568" transform="translate(16.425 8.316)">
          <g id="Grupo_897565" data-name="Grupo 897565" transform="translate(0.458)">
            <path id="Trazado_624628" data-name="Trazado 624628" d="M634.266,414.282l-42.553-5.444a1.3,1.3,0,0,1-1.108-1.25h0a.954.954,0,0,1,1.108-.967l42.553,5.444a1.3,1.3,0,0,1,1.108,1.25h0A.954.954,0,0,1,634.266,414.282Z" transform="translate(-586.227 -406.053)" fill="#ef3c79"/>
            <path id="Trazado_624629" data-name="Trazado 624629" d="M578.439,406.032a.954.954,0,0,1-1.108.966,1.3,1.3,0,0,1-1.108-1.25.954.954,0,0,1,1.108-.967A1.3,1.3,0,0,1,578.439,406.032Z" transform="translate(-576.223 -404.773)" fill="#ef3c79"/>
          </g>
          <g id="Grupo_897566" data-name="Grupo 897566" transform="translate(0.458 4.773)" opacity="0.31">
            <path id="Trazado_624630" data-name="Trazado 624630" d="M634.266,429.961l-42.553-5.444a1.3,1.3,0,0,1-1.108-1.25h0a.954.954,0,0,1,1.108-.967l42.553,5.444a1.3,1.3,0,0,1,1.108,1.25h0A.954.954,0,0,1,634.266,429.961Z" transform="translate(-586.227 -421.732)" fill="#ef3c79"/>
            <path id="Trazado_624631" data-name="Trazado 624631" d="M578.439,421.711a.954.954,0,0,1-1.108.966,1.3,1.3,0,0,1-1.108-1.25.954.954,0,0,1,1.108-.966A1.3,1.3,0,0,1,578.439,421.711Z" transform="translate(-576.223 -420.452)" fill="#ef3c79"/>
          </g>
          <g id="Grupo_897567" data-name="Grupo 897567" transform="translate(0 9.091)" opacity="0.31">
            <path id="Trazado_624632" data-name="Trazado 624632" d="M634.266,445.64,591.713,440.2a1.3,1.3,0,0,1-1.108-1.25h0a.954.954,0,0,1,1.108-.967l42.553,5.444a1.3,1.3,0,0,1,1.108,1.25h0A.954.954,0,0,1,634.266,445.64Z" transform="translate(-585.769 -436.956)" fill="#ef3c79"/>
            <ellipse id="Elipse_6287" data-name="Elipse 6287" cx="1.039" cy="1.181" rx="1.039" ry="1.181" transform="matrix(0.729, -0.684, 0.684, 0.729, 0, 1.422)" fill="#ef3c79"/>
          </g>
        </g>
      </g>
      <g id="Grupo_897571" data-name="Grupo 897571" transform="translate(909.675 208.668)">
        <path id="Trazado_624633" data-name="Trazado 624633" d="M534.873,409.417a4.877,4.877,0,0,1,5.017-4.856,5.126,5.126,0,0,1,4.44,5.575,4.877,4.877,0,0,1-5.016,4.856,5.127,5.127,0,0,1-4.44-5.575Z" transform="translate(-534.615 -404.274)" fill="#fff"/>
        <path id="Trazado_624634" data-name="Trazado 624634" d="M538.716,414.638a5.4,5.4,0,0,1-4.659-5.866,5.923,5.923,0,0,1,.4-1.861.238.238,0,0,1,.328-.139.288.288,0,0,1,.128.362,5.34,5.34,0,0,0-.364,1.675,4.865,4.865,0,0,0,4.195,5.281h.013a4.171,4.171,0,0,0,3.247-1.206,5.081,5.081,0,0,0,1.505-3.4,5.286,5.286,0,0,0-1.119-3.594,4.363,4.363,0,0,0-3.075-1.687h-.013a4.23,4.23,0,0,0-3.561,1.541.233.233,0,0,1-.352.011.3.3,0,0,1-.013-.388,4.7,4.7,0,0,1,3.956-1.712h.014a4.845,4.845,0,0,1,3.416,1.874,5.867,5.867,0,0,1,1.243,3.992,5.643,5.643,0,0,1-1.672,3.771,4.636,4.636,0,0,1-3.608,1.34Z" transform="translate(-534.047 -403.647)"/>
        <path id="Trazado_624635" data-name="Trazado 624635" d="M539.083,432.67a4.6,4.6,0,0,0,3.165,1.669,4.406,4.406,0,0,0,3.322-1.176,10.209,10.209,0,0,0-3.215-.77,10.01,10.01,0,0,0-3.272.276Z" transform="translate(-537.55 -423.621)" fill="#99b9ff"/>
        <path id="Trazado_624636" data-name="Trazado 624636" d="M548.161,423.765h0a.809.809,0,0,1-.7-.88l.232-4.2,1.493.114-.232,4.2a.77.77,0,0,1-.792.767Z" transform="translate(-543.376 -414.109)" fill="#fff"/>
        <path id="Trazado_624637" data-name="Trazado 624637" d="M543.578,414.128c-.022-1.311.545-2.085-.543-3.647-1.126-1.617-2.221-.673-2.221-.673s-.822-.858-2.049.713c-1.083,1.387.129,2.795-.353,3.672a3.619,3.619,0,0,1-1.973,1.264,4.954,4.954,0,0,0,.968,1.57l6.173.469s1.36-1.435,1.384-1.869A1.591,1.591,0,0,1,543.578,414.128Z" transform="translate(-535.711 -407.742)"/>
        <g id="Grupo_897570" data-name="Grupo 897570" transform="translate(1.06 8.467)">
          <path id="Trazado_624638" data-name="Trazado 624638" d="M539.083,432.67a4.6,4.6,0,0,0,3.165,1.669,4.406,4.406,0,0,0,3.322-1.176,10.209,10.209,0,0,0-3.215-.77A10.01,10.01,0,0,0,539.083,432.67Z" transform="translate(-538.611 -432.088)" fill="#ef3c79"/>
          <path id="Trazado_624639" data-name="Trazado 624639" d="M541.139,433.984a4.838,4.838,0,0,1-3.317-1.756l-.291-.345.413-.108a10.182,10.182,0,0,1,3.346-.283l.034,0a10.373,10.373,0,0,1,3.253.784l.4.17-.327.3a4.634,4.634,0,0,1-3.5,1.238Zm-2.63-1.779a4.3,4.3,0,0,0,2.661,1.232h.013a4.129,4.129,0,0,0,2.788-.818,10.3,10.3,0,0,0-2.711-.58A9.878,9.878,0,0,0,538.509,432.205Z" transform="translate(-537.531 -431.461)" fill="#ef3c79"/>
        </g>
        <path id="Trazado_624640" data-name="Trazado 624640" d="M547.237,414.4l-.052,0-1.612,1.569-.051.924a1.757,1.757,0,0,0,.672,1.5l-.083,1.51a.809.809,0,0,0,.7.88.77.77,0,0,0,.792-.767l.082-1.482a1.67,1.67,0,0,0,.877-1.414l.055-.987A1.593,1.593,0,0,0,547.237,414.4Z" transform="translate(-542.027 -411.121)" fill="#fff"/>
        <path id="Trazado_624641" data-name="Trazado 624641" d="M547.575,429.658a.968.968,0,0,1-.683-.374,1.172,1.172,0,0,1-.248-.8l.081-1.464a.256.256,0,0,1,.263-.255h0a.269.269,0,0,1,.233.292l-.081,1.464a.591.591,0,0,0,.125.4.486.486,0,0,0,.342.188h0a.515.515,0,0,0,.528-.512l.079-1.439a.256.256,0,0,1,.263-.255h0a.27.27,0,0,1,.233.293l-.08,1.439a1.027,1.027,0,0,1-1.055,1.021Z" transform="translate(-542.808 -419.728)"/>
        <path id="Trazado_624642" data-name="Trazado 624642" d="M546.366,418.34a.269.269,0,0,1-.232-.292.256.256,0,0,1,.263-.255,1.314,1.314,0,0,0,1.349-1.306l.054-.987a1.333,1.333,0,0,0-1.048-1.428l-1.506,1.441-.043.781a1.459,1.459,0,0,0,.675,1.334.29.29,0,0,1,.1.372.236.236,0,0,1-.336.111,2.028,2.028,0,0,1-.938-1.854l.05-.9a.282.282,0,0,1,.084-.189l1.665-1.593a.3.3,0,0,1,.254-.058,1.868,1.868,0,0,1,1.538,2.017l-.054.987a1.825,1.825,0,0,1-1.876,1.816Z" transform="translate(-541.459 -410.512)"/>
      </g>
    </g>
    <g id="Grupo_897578" data-name="Grupo 897578">
      <g id="Grupo_897563" data-name="Grupo 897563" transform="translate(891.223 232.146)">
        <g id="Grupo_897558" data-name="Grupo 897558" transform="translate(0 0)">
          <path id="Trazado_624617" data-name="Trazado 624617" d="M545.546,490.394a3.244,3.244,0,0,1,2.77,3.125v19.063a2.385,2.385,0,0,1-2.77,2.416l-68.5-8.764a3.244,3.244,0,0,1-2.77-3.125V484.047a2.385,2.385,0,0,1,2.77-2.416Z" transform="translate(-474.016 -481.353)" fill="#fff"/>
          <path id="Trazado_624618" data-name="Trazado 624618" d="M473.688,502.781a.255.255,0,0,1-.255-.255V483.464a2.668,2.668,0,0,1,.89-2.04,2.708,2.708,0,0,1,2.167-.629l10.367,1.326a.255.255,0,0,1-.065.506L476.426,481.3a2.2,2.2,0,0,0-1.766.506,2.165,2.165,0,0,0-.717,1.657v19.063A.255.255,0,0,1,473.688,502.781Z" transform="translate(-473.433 -480.77)"/>
          <path id="Trazado_624619" data-name="Trazado 624619" d="M580.929,532.252a3.108,3.108,0,0,1-.391-.025L524.847,525.1a.255.255,0,0,1,.065-.506l55.692,7.125a2.2,2.2,0,0,0,1.766-.506,2.165,2.165,0,0,0,.717-1.657V510.5a2.986,2.986,0,0,0-2.548-2.872l-8.615-1.1a.255.255,0,1,1,.065-.506l8.615,1.1A3.51,3.51,0,0,1,583.6,510.5v19.063a2.625,2.625,0,0,1-2.666,2.694Z" transform="translate(-509.041 -498.329)"/>
        </g>
        <g id="Grupo_897562" data-name="Grupo 897562" transform="translate(14.468 7.965)">
          <g id="Grupo_897559" data-name="Grupo 897559" transform="translate(0.476)">
            <path id="Trazado_624620" data-name="Trazado 624620" d="M582.858,516.82l-44.231-5.659a1.349,1.349,0,0,1-1.152-1.3h0a.991.991,0,0,1,1.152-1l44.231,5.658a1.349,1.349,0,0,1,1.152,1.3h0A.992.992,0,0,1,582.858,516.82Z" transform="translate(-532.925 -508.266)" fill="#0b5999"/>
            <path id="Trazado_624621" data-name="Trazado 624621" d="M524.829,508.244a.992.992,0,0,1-1.152,1,1.349,1.349,0,0,1-1.152-1.3.992.992,0,0,1,1.152-1A1.349,1.349,0,0,1,524.829,508.244Z" transform="translate(-522.526 -506.936)" fill="#0b5999"/>
          </g>
          <g id="Grupo_897560" data-name="Grupo 897560" transform="translate(0.476 4.961)">
            <path id="Trazado_624622" data-name="Trazado 624622" d="M582.858,533.117l-44.231-5.658a1.349,1.349,0,0,1-1.152-1.3h0a.992.992,0,0,1,1.152-1l44.231,5.659a1.349,1.349,0,0,1,1.152,1.3h0A.991.991,0,0,1,582.858,533.117Z" transform="translate(-532.925 -524.564)" fill="#caddff"/>
            <path id="Trazado_624623" data-name="Trazado 624623" d="M524.829,524.542a.992.992,0,0,1-1.152,1,1.349,1.349,0,0,1-1.152-1.3.991.991,0,0,1,1.152-1A1.348,1.348,0,0,1,524.829,524.542Z" transform="translate(-522.526 -523.234)" fill="#caddff"/>
          </g>
          <g id="Grupo_897561" data-name="Grupo 897561" transform="translate(0 9.449)">
            <path id="Trazado_624624" data-name="Trazado 624624" d="M582.858,549.414l-44.231-5.659a1.349,1.349,0,0,1-1.152-1.3h0a.992.992,0,0,1,1.152-1l44.231,5.659a1.349,1.349,0,0,1,1.152,1.3h0A.992.992,0,0,1,582.858,549.414Z" transform="translate(-532.449 -540.387)" fill="#caddff"/>
            <ellipse id="Elipse_6286" data-name="Elipse 6286" cx="1.08" cy="1.228" rx="1.08" ry="1.228" transform="matrix(0.729, -0.684, 0.684, 0.729, 0, 1.478)" fill="#caddff"/>
          </g>
        </g>
      </g>
      <g id="Grupo_897575" data-name="Grupo 897575" transform="translate(893.77 238.91)">
        <ellipse id="Elipse_6288" data-name="Elipse 6288" cx="5.836" cy="5.253" rx="5.836" ry="5.253" transform="translate(0 11.647) rotate(-86.314)" fill="#fff"/>
        <path id="Trazado_624643" data-name="Trazado 624643" d="M489.862,528.6a9.033,9.033,0,0,0-2.954.013,4.819,4.819,0,0,0-1.961.938,5.1,5.1,0,0,0,4.284,3.156,5.2,5.2,0,0,0,5-3.252,7.256,7.256,0,0,0-2.891-.707C490.848,528.719,490.354,528.671,489.862,528.6Z" transform="translate(-483.989 -520.726)" fill="#0b5999"/>
        <g id="Grupo_897574" data-name="Grupo 897574" transform="translate(3.512 1.751)">
          <g id="Grupo_897572" data-name="Grupo 897572" transform="translate(0.4 3.32)">
            <path id="Trazado_624644" data-name="Trazado 624644" d="M496.073,521.589a2.032,2.032,0,0,1-.412,1.643.951.951,0,0,0-.009,1.282,2.2,2.2,0,0,0,1.438.6,1.9,1.9,0,0,0,1.239-.229.943.943,0,0,0,.055-1.5c-.406-.3-.812-.964-.491-2.467Z" transform="translate(-495.177 -520.532)" fill="#fff"/>
            <path id="Trazado_624645" data-name="Trazado 624645" d="M496.656,524.5l-.115-.009a2.425,2.425,0,0,1-1.574-.668,1.226,1.226,0,0,1,.014-1.654,1.749,1.749,0,0,0,.342-1.4l-.044-.226,2.406-.889-.094.44c-.231,1.08-.094,1.841.4,2.2a1.151,1.151,0,0,1,.447.98,1.172,1.172,0,0,1-.518.956A2.052,2.052,0,0,1,496.656,524.5Zm-.855-3.615a2.158,2.158,0,0,1-.511,1.655.646.646,0,0,0-.178.448.661.661,0,0,0,.173.462,2.015,2.015,0,0,0,1.3.532,1.713,1.713,0,0,0,1.1-.2.646.646,0,0,0,.284-.528.632.632,0,0,0-.244-.54,2.23,2.23,0,0,1-.663-2.3Z" transform="translate(-494.653 -519.652)"/>
          </g>
          <path id="Trazado_624646" data-name="Trazado 624646" d="M496.322,512.64a1.45,1.45,0,0,0,.973-.4,2.135,2.135,0,0,0,.472-1.259c0-.381-.061-1.451-.879-1.793a7.366,7.366,0,0,0-1.826-.24,1.848,1.848,0,0,0-1.117-.19.926.926,0,0,0,.125,1.774,1.1,1.1,0,0,0,.109.03l2.256.518Z" transform="translate(-493.338 -508.747)"/>
          <g id="Grupo_897573" data-name="Grupo 897573" transform="translate(0.461 1.476)">
            <path id="Trazado_624647" data-name="Trazado 624647" d="M497.949,515.484l.037-.58a.274.274,0,0,0-.24-.3l-1.983-.128s-.673,2.9.748,3.1a1.487,1.487,0,0,0,1.688-1.207.421.421,0,0,0,.457-.286c.108-.266.131-.742-.26-.74a.462.462,0,0,0-.388.171A.034.034,0,0,1,497.949,515.484Z" transform="translate(-495.376 -514.206)" fill="#fff"/>
            <path id="Trazado_624648" data-name="Trazado 624648" d="M496.118,517.233c-.052,0-.106-.009-.161-.016a1.083,1.083,0,0,1-.8-.539,4.856,4.856,0,0,1-.135-2.875l.048-.206,2.174.14a.518.518,0,0,1,.453.573l-.012.189a.828.828,0,0,1,.2-.023.51.51,0,0,1,.463.258,1.019,1.019,0,0,1,0,.839.667.667,0,0,1-.492.431A1.669,1.669,0,0,1,496.118,517.233Zm-.7-3.1a3.928,3.928,0,0,0,.114,2.258.643.643,0,0,0,.485.322,1.233,1.233,0,0,0,1.432-1l.047-.244.22.042a.19.19,0,0,0,.206-.137.511.511,0,0,0,.027-.356c0-.008-.017-.027-.08-.028a.253.253,0,0,0-.211.08.248.248,0,0,1-.3.084.292.292,0,0,1-.163-.29l.037-.58a.031.031,0,0,0-.027-.034Zm1.892.606,0,0Z" transform="translate(-494.853 -513.596)"/>
          </g>
        </g>
        <path id="Trazado_624649" data-name="Trazado 624649" d="M487.326,515.4c-3.017-.195-5.3-3.079-5.08-6.431s2.846-5.92,5.863-5.725,5.3,3.079,5.08,6.43S490.343,515.594,487.326,515.4Zm.75-11.647a5.612,5.612,0,1,0,4.655,5.892A5.33,5.33,0,0,0,488.077,503.752Z" transform="translate(-482.101 -503.16)"/>
      </g>
    </g>
  </g>
</svg>
