<svg xmlns="http://www.w3.org/2000/svg" width="515.839" height="205.372" viewBox="0 0 515.839 205.372">
  <g id="Grupo_894741" data-name="Grupo 894741" transform="translate(-864 -460)">
    <g id="Grupo_894740" data-name="Grupo 894740" transform="translate(518.12 263.141)">
      <g id="Grupo_894712" data-name="Grupo 894712" transform="translate(430.283 257.906)">
        <path id="Trazado_623330" data-name="Trazado 623330" d="M870.439,500.241v85.53c0,30.21-20.99,47.473-56.889,47.473s-56.89-17.263-56.89-47.473v-85.53c0-4.12,3.531-6.278,11.77-6.278h6.67c8.239,0,11.77,2.158,11.77,6.278v83.569c0,13.732,10.79,23.736,26.68,23.736s26.875-10,26.875-23.736V500.241c0-4.12,3.531-6.278,11.77-6.278h6.474C866.908,493.963,870.439,496.121,870.439,500.241Z" transform="translate(-756.66 -493.963)" fill="#21cbae"/>
        <path id="Trazado_623331" data-name="Trazado 623331" d="M1577.591,500.241V625.79c0,4.119-3.531,6.278-11.77,6.278h-5.689c-8.239,0-11.77-2.158-11.77-6.278V544.575l-.785-.2-28.444,50.808a9,9,0,0,1-7.847,3.727H1505.6a9,9,0,0,1-7.847-3.727L1469.3,544.379l-.784.2V625.79c0,4.119-3.531,6.278-11.771,6.278h-5.689c-8.239,0-11.77-2.158-11.77-6.278V500.241c0-4.12,3.531-6.278,11.77-6.278h10.4c5.689,0,10.2,1.373,12.359,5.3l32.957,58.655,1.569,2.746,1.766-3.335,33.153-58.066c2.158-3.923,6.67-5.3,12.359-5.3h10.2C1574.06,493.963,1577.591,496.121,1577.591,500.241Z" transform="translate(-1299.03 -493.963)" fill="#21cbae"/>
        <path id="Trazado_623332" data-name="Trazado 623332" d="M2274.336,500.241V605.976h43.746c4.12,0,5.885,2.943,5.885,9.809v6.081c0,6.866-1.765,9.809-5.885,9.809h-66.11c-5.493,0-7.847-2.354-7.847-7.847V500.241c0-4.12,3.531-6.278,11.771-6.278h6.67C2270.805,493.963,2274.336,496.121,2274.336,500.241Z" transform="translate(-1938.495 -493.963)" fill="#21cbae"/>
      </g>
      <g id="Grupo_894714" data-name="Grupo 894714" transform="translate(568.933 204.369)">
        <path id="Trazado_623333" data-name="Trazado 623333" d="M1466.426,339.673c.024-3.884-1.056-7.254-2.225-13.724-.4-2.208-.6-3.631-1.808-4.985a8.477,8.477,0,0,0-4.252-2.3,12.876,12.876,0,0,0-8.545.026,6.652,6.652,0,0,0-3.382,2.183c-.985,1.379-.783,3.411-.339,7.419.742,6.692.9,8.067.771,10.045a23.848,23.848,0,0,1-1.119,5.773,33.351,33.351,0,0,0,13.592.651c2.336.77,4.205,1,4.981.754a2.32,2.32,0,0,0,.847-.481,2.482,2.482,0,0,0,.531-.933C1466.642,341.013,1466.426,339.673,1466.426,339.673Zm-3.567-3.616c-.334,4.567-.511,5.974-.609,6.062-.025.023-.38.261-.381.262h0a1.6,1.6,0,0,1-.608.147,1.541,1.541,0,0,1-1.123-.69,26.7,26.7,0,0,1,.315-9.5,7.643,7.643,0,0,0,1.47-1.084Z" transform="translate(-1442.618 -300.569)" fill="#ef3c79"/>
        <path id="Trazado_623334" data-name="Trazado 623334" d="M1457.478,347.5c-1.527-.834-5.6-4.835-6.741-6.127-1.442-1.626-2.138-4.145-3.529-9.184-.968-3.506-1.072-5.284-.19-6.831a5.347,5.347,0,0,1,1.529-1.673,5.265,5.265,0,0,0-2.332,1.757c-.985,1.379-.783,3.411-.339,7.419.742,6.692.9,8.067.771,10.045a23.848,23.848,0,0,1-1.119,5.773l1.958.15c.179-.982.333-2.041.444-3.169a38.918,38.918,0,0,0,.175-4.715,33.048,33.048,0,0,0,4.568,4.79,12.78,12.78,0,0,0,3.8,2.391,11.372,11.372,0,0,0,1.3.416c.181-.062.4-.167.43-.334C1458.249,347.91,1457.618,347.58,1457.478,347.5Z" transform="translate(-1442.618 -305.139)" fill="#d3dee2" style="mix-blend-mode: multiply;isolation: isolate"/>
        <path id="Trazado_623335" data-name="Trazado 623335" d="M1477.814,463.706c-.271-4.913-.767-9.514-1.4-13.767q-2.091-.618-4.236-1.225c-.117-.033-2.146-.606-4.34-1.2-4.569-1.236-9.145-2.366-11.095-2.843a61.081,61.081,0,0,1-8.219.363c-1.4-.033-2.749-.113-4.026-.227a10.052,10.052,0,0,0,.187,5.414c.536,1.636,1.46,2.776,3.307,5.057a36.32,36.32,0,0,0,4.241,4.514,37.3,37.3,0,0,0,5.882,4.292,28.544,28.544,0,0,0,.628,6.8,30.978,30.978,0,0,0,6.588,13.235,1.03,1.03,0,0,0,.941.286.987.987,0,0,0,.706-.572q-1.547-10.716-3.094-21.432l-3.183-6.808a39.28,39.28,0,0,0,10.728-.907,17.857,17.857,0,0,0-.414,2.549c-.36,4.057.779,7.206,1.933,10.3a42.248,42.248,0,0,0,3.39,7,1.027,1.027,0,0,0,1.185.584.848.848,0,0,0,.49-.554C1478.078,471.136,1478.024,467.511,1477.814,463.706Z" transform="translate(-1441.594 -401.264)" fill="#4f6772"/>
        <path id="Trazado_623336" data-name="Trazado 623336" d="M1604.615,600.089a8.783,8.783,0,0,0,4.156,1.976.627.627,0,0,0,.141-.558,1.1,1.1,0,0,0-.262-.46,18.269,18.269,0,0,0-3.465-2.573c-.366-.27-1.026-.685-1.332.1C1603.585,599.273,1604.21,599.787,1604.615,600.089Z" transform="translate(-1568.377 -523.182)" fill="#4f6772"/>
        <path id="Trazado_623337" data-name="Trazado 623337" d="M1550.414,642.39a6.755,6.755,0,0,0,2.151,3.479.719.719,0,0,0,.457-.37.935.935,0,0,0,.071-.481,13.84,13.84,0,0,0-1.224-3.623c-.13-.381-.41-1.013-1.143-.539A1.2,1.2,0,0,0,1550.414,642.39Z" transform="translate(-1525.857 -557.003)" fill="#4f6772"/>
        <path id="Trazado_623338" data-name="Trazado 623338" d="M1500.813,431.7a1.561,1.561,0,0,0,.869,1.708,1.134,1.134,0,0,1,.42.257.858.858,0,0,1,.14.335l.322,1.249a.429.429,0,0,0,.577.381l1.316-.11a.483.483,0,0,0,.266-.076.473.473,0,0,0,.1-.125,18.453,18.453,0,0,0,1.456-2.836c.222-.543.4-1.23,0-1.665a1.154,1.154,0,0,0-.9-.322,5.1,5.1,0,0,0-.971.186,8.946,8.946,0,0,1-2.273.116A1.277,1.277,0,0,0,1500.813,431.7Z" transform="translate(-1486.53 -389.996)" fill="#ffd092"/>
        <path id="Trazado_623339" data-name="Trazado 623339" d="M1466.344,484.728a42.511,42.511,0,0,1-6.547-19.616,2.327,2.327,0,0,0-1.036-2.043,90.55,90.55,0,0,1-8.511-9.1,16.505,16.505,0,0,1-3.6-5.912c-.162-.582,0-1.9-.193-2.574q-1.011-.058-1.958-.15a10.053,10.053,0,0,0,.187,5.414c.536,1.636,1.46,2.776,3.307,5.057a36.318,36.318,0,0,0,4.241,4.514,37.3,37.3,0,0,0,5.882,4.293,28.545,28.545,0,0,0,.628,6.8,30.978,30.978,0,0,0,6.588,13.235,1.03,1.03,0,0,0,.941.286.975.975,0,0,0,.159-.047C1466.407,484.829,1466.376,484.778,1466.344,484.728Z" transform="translate(-1441.594 -401.789)" fill="#d3dee2" style="mix-blend-mode: multiply;isolation: isolate"/>
        <path id="Trazado_623340" data-name="Trazado 623340" d="M1530.531,494.614a43.6,43.6,0,0,1-.76-6.282,39.667,39.667,0,0,1,.3-6.74,34.4,34.4,0,0,1-14.445-.467q.426.761.85,1.558.5.949.966,1.872a39.393,39.393,0,0,0,10.727-.909,17.827,17.827,0,0,0-.414,2.549c-.36,4.057.778,7.206,1.933,10.3a42.224,42.224,0,0,0,3.39,7,1.129,1.129,0,0,0,.177.258A47.981,47.981,0,0,1,1530.531,494.614Z" transform="translate(-1498.329 -430.226)" fill="#d3dee2" style="mix-blend-mode: multiply;isolation: isolate"/>
        <path id="Trazado_623341" data-name="Trazado 623341" d="M1515.831,253.375a5.532,5.532,0,0,1-.6,1.587,3.935,3.935,0,0,1-3.1,1.589q.073-1.093.145-2.186a1.157,1.157,0,0,1,.126-.541c.226-.365.741-.364,1.167-.423a3.157,3.157,0,0,0,2.113-1.718,3.217,3.217,0,0,0,.372-1.237,5.391,5.391,0,0,1,.1,1.151A8.8,8.8,0,0,1,1515.831,253.375Z" transform="translate(-1495.555 -246.945)" fill="#936522"/>
        <path id="Trazado_623342" data-name="Trazado 623342" d="M1515.831,253.375a5.532,5.532,0,0,1-.6,1.587,3.935,3.935,0,0,1-3.1,1.589q.073-1.093.145-2.186a1.157,1.157,0,0,1,.126-.541c.226-.365.741-.364,1.167-.423a3.157,3.157,0,0,0,2.113-1.718,3.217,3.217,0,0,0,.372-1.237,5.391,5.391,0,0,1,.1,1.151A8.8,8.8,0,0,1,1515.831,253.375Z" transform="translate(-1495.555 -246.945)" fill="#d3dee2" style="mix-blend-mode: multiply;isolation: isolate"/>
        <path id="Trazado_623343" data-name="Trazado 623343" d="M1473.1,244.292h0a4.744,4.744,0,0,0-5.961,3.081l-1.039,3.26a4.745,4.745,0,0,0,3.081,5.961h0a4.745,4.745,0,0,0,5.961-3.081l1.039-3.26A4.745,4.745,0,0,0,1473.1,244.292Z" transform="translate(-1458.801 -241.877)" fill="#ffd092"/>
        <path id="Trazado_623344" data-name="Trazado 623344" d="M1451.757,236.453a3.25,3.25,0,0,0-1.871-1.178,13.491,13.491,0,0,0-2.876-.459c-2.455-.448-2.6-1.362-4.2-1.406a5.9,5.9,0,0,0-4.067,1.776,20.617,20.617,0,0,0-2.562,3.76,9.893,9.893,0,0,1-2.981,3.4,5.156,5.156,0,0,0-1.335.956c-.819,1-.3,2.532.506,3.56a8.4,8.4,0,0,0,6.891,3.148,3.417,3.417,0,0,0,2-.5,3.274,3.274,0,0,0,1.062-2.049c1.045-4.461.955-5.307,1.822-6.268a4.136,4.136,0,0,1,2.236-1.318c1.963-.366,2.938,1,4.19.44A3.044,3.044,0,0,0,1451.757,236.453Z" transform="translate(-1431.447 -233.409)" fill="#936522"/>
        <path id="Trazado_623345" data-name="Trazado 623345" d="M1523.018,354.572a9.613,9.613,0,0,0-2.558-4.383c.117,1.443,1.368,2.557,1.691,3.968a3.255,3.255,0,0,1-.556,2.633l-.109.144.926,4.748c-.013.182-.026.35-.039.522.291.3.587-.025,1.019-.221a4.506,4.506,0,0,0,1.054-.546.609.609,0,0,0,.2-.246c.15-.433-.49-.972-.552-1.023-.073-.357-.182-.9-.31-1.552C1523.262,355.968,1523.181,355.243,1523.018,354.572Z" transform="translate(-1502.17 -326.194)" fill="#d3dee2" style="mix-blend-mode: multiply;isolation: isolate"/>
        <path id="Trazado_623346" data-name="Trazado 623346" d="M1443.553,234.479c.979.066,1.959.307,2.941.393a7.862,7.862,0,0,0,1.01.015c-.157-.017-.318-.038-.494-.07-2.455-.448-2.6-1.362-4.2-1.406a5.9,5.9,0,0,0-4.067,1.776,20.617,20.617,0,0,0-2.562,3.76,9.894,9.894,0,0,1-2.981,3.4,5.151,5.151,0,0,0-1.335.956c-.819,1-.3,2.532.506,3.56a8.156,8.156,0,0,0,2.451,2.078,5.431,5.431,0,0,1-1.067-2.58,4.13,4.13,0,0,1,.2-2.269,7.616,7.616,0,0,1,1.885-2.167,10.291,10.291,0,0,0,1.816-2.393c.719-1.309,1.2-2.829,2.359-3.765a7.368,7.368,0,0,1,1.712-.934,3.564,3.564,0,0,1,1.469-.4A2.12,2.12,0,0,1,1443.553,234.479Z" transform="translate(-1431.447 -233.409)" fill="#d3dee2" style="mix-blend-mode: multiply;isolation: isolate"/>
        <path id="Trazado_623347" data-name="Trazado 623347" d="M1476.92,318.477a12.782,12.782,0,0,0-6.9-.082,9.833,9.833,0,0,1,5.116,5.642,18.655,18.655,0,0,0,1.783-5.56Z" transform="translate(-1462.095 -300.583)" fill="#ffd092"/>
        <g id="Grupo_894713" data-name="Grupo 894713" transform="translate(16.116 31.351)" style="mix-blend-mode: multiply;isolation: isolate">
          <path id="Trazado_623348" data-name="Trazado 623348" d="M1511.171,395.008a26.63,26.63,0,0,1,.431-8.6c.2-.115.426-.259.653-.421a2.743,2.743,0,0,1-2.372.068,1.379,1.379,0,0,0,.832.708,20.444,20.444,0,0,0,.456,8.241Z" transform="translate(-1509.883 -385.99)" fill="#d3dee2"/>
          <path id="Trazado_623349" data-name="Trazado 623349" d="M1517.835,435.58l-.012-.011.01.034C1517.834,435.6,1517.834,435.587,1517.835,435.58Z" transform="translate(-1516.192 -425.382)" fill="#d3dee2"/>
        </g>
        <path id="Trazado_623350" data-name="Trazado 623350" d="M1485.73,389.3l-2.586,12.132-8.821.277q.03.965.061,1.929l8.346-.263,20.869-.656q1.548-7.04,3.1-14.079Z" transform="translate(-1465.513 -356.747)" fill="#249fe2"/>
        <path id="Trazado_623351" data-name="Trazado 623351" d="M1474.323,404.163l8.881-.281,2.526-12.129.85-.025-2.962,14.067-9.235.3Q1474.353,405.128,1474.323,404.163Z" transform="translate(-1465.513 -359.198)" fill="#d3dee2" style="mix-blend-mode: multiply;isolation: isolate"/>
      </g>
      <g id="Grupo_894717" data-name="Grupo 894717" transform="translate(733.406 326.952)">
        <rect id="Rectángulo_301378" data-name="Rectángulo 301378" width="25.348" height="68.955" rx="9.87" fill="#0b5999"/>
        <path id="Trazado_623352" data-name="Trazado 623352" d="M2280.136,858.863a3.488,3.488,0,1,1,3.489-3.488A3.488,3.488,0,0,1,2280.136,858.863Z" transform="translate(-2267.457 -847.39)" fill="#ef3c79"/>
        <g id="Grupo_894715" data-name="Grupo 894715" transform="translate(2.925 36.01)">
          <path id="Trazado_623353" data-name="Trazado 623353" d="M2323.4,1009.315a2.027,2.027,0,1,1,2.027-2.027A2.027,2.027,0,0,1,2323.4,1009.315Z" transform="translate(-2305.917 -1005.262)" fill="#5f97cc"/>
          <path id="Trazado_623354" data-name="Trazado 623354" d="M2323.4,1034.389a2.027,2.027,0,1,1,2.027-2.027A2.027,2.027,0,0,1,2323.4,1034.389Z" transform="translate(-2305.917 -1025.183)" fill="#5f97cc"/>
          <path id="Trazado_623355" data-name="Trazado 623355" d="M2323.4,1059.462a2.027,2.027,0,1,1,2.027-2.027A2.027,2.027,0,0,1,2323.4,1059.462Z" transform="translate(-2305.917 -1045.105)" fill="#5f97cc"/>
          <path id="Trazado_623356" data-name="Trazado 623356" d="M2323.4,1084.536a2.027,2.027,0,1,1,2.027-2.027A2.027,2.027,0,0,1,2323.4,1084.536Z" transform="translate(-2305.917 -1065.026)" fill="#5f97cc"/>
          <path id="Trazado_623357" data-name="Trazado 623357" d="M2323.4,1109.609a2.027,2.027,0,1,1,2.027-2.027A2.027,2.027,0,0,1,2323.4,1109.609Z" transform="translate(-2305.917 -1084.948)" fill="#5f97cc"/>
          <path id="Trazado_623358" data-name="Trazado 623358" d="M2323.4,1134.683a2.027,2.027,0,1,1,2.027-2.027A2.027,2.027,0,0,1,2323.4,1134.683Z" transform="translate(-2305.917 -1104.87)" fill="#5f97cc"/>
          <path id="Trazado_623359" data-name="Trazado 623359" d="M2298.326,1009.315a2.027,2.027,0,1,1,2.027-2.027A2.027,2.027,0,0,1,2298.326,1009.315Z" transform="translate(-2285.995 -1005.262)" fill="#5f97cc"/>
          <path id="Trazado_623360" data-name="Trazado 623360" d="M2298.326,1034.389a2.027,2.027,0,1,1,2.027-2.027A2.027,2.027,0,0,1,2298.326,1034.389Z" transform="translate(-2285.995 -1025.183)" fill="#5f97cc"/>
          <path id="Trazado_623361" data-name="Trazado 623361" d="M2298.326,1059.462a2.027,2.027,0,1,1,2.027-2.027A2.027,2.027,0,0,1,2298.326,1059.462Z" transform="translate(-2285.995 -1045.105)" fill="#5f97cc"/>
          <path id="Trazado_623362" data-name="Trazado 623362" d="M2298.326,1084.536a2.027,2.027,0,1,1,2.027-2.027A2.027,2.027,0,0,1,2298.326,1084.536Z" transform="translate(-2285.995 -1065.026)" fill="#5f97cc"/>
          <path id="Trazado_623363" data-name="Trazado 623363" d="M2298.326,1109.609a2.027,2.027,0,1,1,2.027-2.027A2.027,2.027,0,0,1,2298.326,1109.609Z" transform="translate(-2285.995 -1084.948)" fill="#5f97cc"/>
          <circle id="Elipse_6252" data-name="Elipse 6252" cx="2.027" cy="2.027" r="2.027" transform="translate(10.304 25.759)" fill="#5f97cc"/>
          <path id="Trazado_623364" data-name="Trazado 623364" d="M2273.252,1009.315a2.027,2.027,0,1,1,2.026-2.027A2.027,2.027,0,0,1,2273.252,1009.315Z" transform="translate(-2266.073 -1005.262)" fill="#5f97cc"/>
          <path id="Trazado_623365" data-name="Trazado 623365" d="M2273.252,1034.389a2.027,2.027,0,1,1,2.026-2.027A2.027,2.027,0,0,1,2273.252,1034.389Z" transform="translate(-2266.073 -1025.183)" fill="#5f97cc"/>
          <path id="Trazado_623366" data-name="Trazado 623366" d="M2273.252,1059.462a2.027,2.027,0,1,1,2.026-2.027A2.027,2.027,0,0,1,2273.252,1059.462Z" transform="translate(-2266.073 -1045.105)" fill="#5f97cc"/>
          <path id="Trazado_623367" data-name="Trazado 623367" d="M2273.252,1084.536a2.027,2.027,0,1,1,2.026-2.027A2.027,2.027,0,0,1,2273.252,1084.536Z" transform="translate(-2266.073 -1065.026)" fill="#5f97cc"/>
          <path id="Trazado_623368" data-name="Trazado 623368" d="M2273.252,1109.609a2.027,2.027,0,1,1,2.026-2.027A2.027,2.027,0,0,1,2273.252,1109.609Z" transform="translate(-2266.073 -1084.948)" fill="#5f97cc"/>
          <path id="Trazado_623369" data-name="Trazado 623369" d="M2273.252,1134.683a2.027,2.027,0,1,1,2.026-2.027A2.027,2.027,0,0,1,2273.252,1134.683Z" transform="translate(-2266.073 -1104.87)" fill="#5f97cc"/>
          <path id="Trazado_623370" data-name="Trazado 623370" d="M2248.179,1009.315a2.027,2.027,0,1,1,2.027-2.027A2.027,2.027,0,0,1,2248.179,1009.315Z" transform="translate(-2246.152 -1005.262)" fill="#5f97cc"/>
          <path id="Trazado_623371" data-name="Trazado 623371" d="M2248.179,1034.389a2.027,2.027,0,1,1,2.027-2.027A2.027,2.027,0,0,1,2248.179,1034.389Z" transform="translate(-2246.152 -1025.183)" fill="#5f97cc"/>
          <path id="Trazado_623372" data-name="Trazado 623372" d="M2248.179,1059.462a2.027,2.027,0,1,1,2.027-2.027A2.027,2.027,0,0,1,2248.179,1059.462Z" transform="translate(-2246.152 -1045.105)" fill="#5f97cc"/>
          <path id="Trazado_623373" data-name="Trazado 623373" d="M2248.179,1084.536a2.027,2.027,0,1,1,2.027-2.027A2.027,2.027,0,0,1,2248.179,1084.536Z" transform="translate(-2246.152 -1065.026)" fill="#5f97cc"/>
          <path id="Trazado_623374" data-name="Trazado 623374" d="M2248.179,1109.609a2.027,2.027,0,1,1,2.027-2.027A2.027,2.027,0,0,1,2248.179,1109.609Z" transform="translate(-2246.152 -1084.948)" fill="#5f97cc"/>
          <path id="Trazado_623375" data-name="Trazado 623375" d="M2248.179,1134.683a2.027,2.027,0,1,1,2.027-2.027A2.027,2.027,0,0,1,2248.179,1134.683Z" transform="translate(-2246.152 -1104.87)" fill="#5f97cc"/>
        </g>
        <g id="Grupo_894716" data-name="Grupo 894716" transform="translate(4.178 13.796)">
          <path id="Trazado_623376" data-name="Trazado 623376" d="M2267.229,972.368h-12.948a2.027,2.027,0,0,0-2.027,2.027h0a2.027,2.027,0,0,0,2.027,2.026h12.948a2.027,2.027,0,0,0,2.027-2.026h0A2.027,2.027,0,0,0,2267.229,972.368Z" transform="translate(-2252.254 -956.912)" fill="#fecb2f"/>
          <path id="Rectángulo_301379" data-name="Rectángulo 301379" d="M2.027,0H14.975A2.027,2.027,0,0,1,17,2.027v0a2.027,2.027,0,0,1-2.027,2.027H2.027A2.027,2.027,0,0,1,0,2.027v0A2.027,2.027,0,0,1,2.027,0Z" transform="translate(0 10.304)" fill="#fecb2f"/>
          <path id="Trazado_623377" data-name="Trazado 623377" d="M2267.229,922.221h-12.948a2.027,2.027,0,0,0-2.027,2.027h0a2.027,2.027,0,0,0,2.027,2.027h12.948a2.027,2.027,0,0,0,2.027-2.027h0A2.027,2.027,0,0,0,2267.229,922.221Z" transform="translate(-2252.254 -917.069)" fill="#fecb2f"/>
          <path id="Trazado_623378" data-name="Trazado 623378" d="M2267.229,897.147h-12.948a2.027,2.027,0,0,0-2.027,2.027h0a2.027,2.027,0,0,0,2.027,2.027h12.948a2.027,2.027,0,0,0,2.027-2.027h0A2.027,2.027,0,0,0,2267.229,897.147Z" transform="translate(-2252.254 -897.147)" fill="#fecb2f"/>
        </g>
      </g>
      <g id="Grupo_894719" data-name="Grupo 894719" transform="translate(772.906 305.872)">
        <path id="Trazado_623379" data-name="Trazado 623379" d="M2492.237,1075.58a1.461,1.461,0,0,0,.2-.727.991.991,0,0,0-1.063-.794,2.235,2.235,0,0,0-1.293.635,12.233,12.233,0,0,0-3.041,5.112c-.876,2.314.279,3.079,1.883,1.251A23.737,23.737,0,0,0,2492.237,1075.58Z" transform="translate(-2473.876 -1002.832)" fill="#4f6772"/>
        <path id="Trazado_623380" data-name="Trazado 623380" d="M2475.458,993.5c-3.244-2.528-9.921.823-13.558,2.647-.679.341-1.239.645-1.91,1.055a1.376,1.376,0,0,0-.278-.461,1.755,1.755,0,0,0-1.126-.385,32.085,32.085,0,0,0-7.957.278,32.439,32.439,0,0,1-4.3.6,21.553,21.553,0,0,1-2.225-.1,8.267,8.267,0,0,0-2.383-.179.741.741,0,0,0-.412.3c-.653-.4-1.2-.7-1.868-1.029-3.637-1.825-10.314-5.175-13.558-2.647a4.8,4.8,0,0,0-1.6,4.745c.689,2.706,4.205,3.985,6.354,4.732,4.658,1.62,9.7,3.106,14.237,4.345l-.428.289a1.311,1.311,0,0,0,.8,2.5c1.4-.336,3.2-.774,5.263-1.3,2.193.559,4.105,1.026,5.58,1.378a1.311,1.311,0,0,0,.8-2.5l-.6-.4c4.581-1.249,9.689-2.751,14.406-4.392,2.149-.747,5.665-2.026,6.354-4.732A4.8,4.8,0,0,0,2475.458,993.5Z" transform="translate(-2424.159 -938.1)" fill="#4f6772"/>
        <path id="Trazado_623381" data-name="Trazado 623381" d="M2592.076,1075.972a1.461,1.461,0,0,1-.2-.727.992.992,0,0,1,1.063-.794,2.234,2.234,0,0,1,1.293.635,12.237,12.237,0,0,1,3.041,5.112c.875,2.314-.279,3.079-1.883,1.251A23.753,23.753,0,0,1,2592.076,1075.972Z" transform="translate(-2557.417 -1003.143)" fill="#4f6772"/>
        <g id="Grupo_894718" data-name="Grupo 894718" transform="translate(18.238)">
          <path id="Trazado_623382" data-name="Trazado 623382" d="M2525.847,727.5c-3.123.691-7.474-1.365-9.766,2.04-1.667,2.476-2.249,7.98.421,9.863.677.478,1.457-.4,1.1-1.149a9.3,9.3,0,0,1-.661-4.336.626.626,0,0,0,.194.106c.994.31,1.937-.4,2.917-.632a10.737,10.737,0,0,1,2.187-.285c.114.053.226.1.334.148a4.678,4.678,0,0,0,4.92-.436C2530.048,730.91,2529.115,726.772,2525.847,727.5Z" transform="translate(-2514.307 -727.411)" fill="#473d34"/>
          <path id="Trazado_623383" data-name="Trazado 623383" d="M2519.753,751.821a4.436,4.436,0,0,0-3.857,1.052c-.164.131-.325.267-.486.4a5.447,5.447,0,0,0-.169,1.325v2.211a1.929,1.929,0,1,0,.385,3.651,5.484,5.484,0,0,0,10.591-2V754.6a5.442,5.442,0,0,0-.875-2.957C2523.405,752.351,2521.911,752.12,2519.753,751.821Z" transform="translate(-2512.921 -746.664)" fill="#ffd092"/>
          <path id="Trazado_623384" data-name="Trazado 623384" d="M2524.394,743.609c-.241.087-.489.16-.736.223a6.455,6.455,0,0,1-2.419.268,5.156,5.156,0,0,1-3.36-2.2c-.156-.237-.551-.888-.862-3.311a29.547,29.547,0,0,1-.227-4.486,3.72,3.72,0,0,1,1.91-.884,8.893,8.893,0,0,1,2.309.314,5.824,5.824,0,0,0,2.879-.456,8.558,8.558,0,0,1-2.167-.114c-1.361-.251-1.892-.7-2.965-.684a4.127,4.127,0,0,0-1.839.493,6.3,6.3,0,0,1,2-4.07,5.5,5.5,0,0,1,1.315-.843c-2.115-.108-4.188,0-5.542,2.009a9.776,9.776,0,0,0-.838,8.265,1.924,1.924,0,0,0,1.768,3.409,5.464,5.464,0,0,0,8.769,2.067Z" transform="translate(-2512.921 -727.745)" fill="#d3dee2" style="mix-blend-mode: multiply;isolation: isolate"/>
        </g>
        <path id="Trazado_623385" data-name="Trazado 623385" d="M2621.974,993.495c-3.035-2.364-9.072.414-12.816,2.276-.8,1.381-.628,3.168-.411,4.784l1.787-2.235a4.894,4.894,0,0,1,.621-.682,5.031,5.031,0,0,1,.989-.606,21.3,21.3,0,0,0,3.148-1.886,10.369,10.369,0,0,1,1.962-1.352,5.613,5.613,0,0,1,1.739-.4,6.241,6.241,0,0,1,3.192.39c.081.037.157.082.235.124A3.924,3.924,0,0,0,2621.974,993.495Z" transform="translate(-2570.675 -938.1)" fill="#d3dee2" style="mix-blend-mode: multiply;isolation: isolate"/>
        <path id="Trazado_623386" data-name="Trazado 623386" d="M2442.445,1000.886a20.993,20.993,0,0,0-.2-4.662.813.813,0,0,0-.163-.441.845.845,0,0,0-.5-.2,29.745,29.745,0,0,1-4.261-1.062,5.973,5.973,0,0,1-2.548-1.4,5.9,5.9,0,0,0-4.654.77,4,4,0,0,0-.623.613,4.164,4.164,0,0,1,3.242-.32,2.246,2.246,0,0,1,.622.294,4.371,4.371,0,0,1,.573.568c1.309,1.378,3.371,1.695,5.271,1.75A21.776,21.776,0,0,0,2442.445,1000.886Z" transform="translate(-2428.404 -938.416)" fill="#d3dee2" style="mix-blend-mode: multiply;isolation: isolate"/>
        <path id="Trazado_623387" data-name="Trazado 623387" d="M2479.286,835.562a34.592,34.592,0,0,0-9.252-10.915c-2.927-2.1-5.808-4.162-9.928-4.3-4.665-.16-8.082,2.242-11.015,4.3a30.284,30.284,0,0,0-9.252,10.915c-2.179,3.926-3.78,8.357-3.39,12.83s3.146,8.94,7.419,10.32a11.139,11.139,0,0,0,6.229.041c.082.644.152,1.229.212,1.746a41.445,41.445,0,0,0,19.59-.1c.063-.423.135-.9.212-1.413a10.65,10.65,0,0,0,5.146-.275c4.272-1.381,7.029-5.847,7.419-10.32S2481.465,839.488,2479.286,835.562Zm-33.035,16.718A4.964,4.964,0,0,1,2445,849.7a8.162,8.162,0,0,1,1.059-5.794,10.111,10.111,0,0,1,1.19-1.534c.335,1.813.93,3.835,1.868,9.623q.129.794.244,1.545A4.818,4.818,0,0,1,2446.251,852.279Zm27.869-2.584a4.969,4.969,0,0,1-1.247,2.584,4.21,4.21,0,0,1-1.924,1.061c.013-.088.025-.173.038-.262.673-4.586,1.153-7.86,1.444-10.057a9.11,9.11,0,0,1,.63.88A8.164,8.164,0,0,1,2474.12,849.7Z" transform="translate(-2433.877 -801.243)" fill="#fecb2f"/>
        <path id="Trazado_623388" data-name="Trazado 623388" d="M2460.106,820.344c-4.665-.16-8.082,2.242-11.015,4.3a30.284,30.284,0,0,0-9.252,10.915c-2.179,3.926-3.78,8.357-3.39,12.83s3.146,8.94,7.419,10.32a10.774,10.774,0,0,0,5.446.219c-.137-.344-.3-.682-.457-1l-3.149-6.347a4.834,4.834,0,0,1-.388-.782l-.055-.11a31.908,31.908,0,0,0-.081,5.289c-4.259-1.378-6.818-6.07-6.815-10.546s2.1-8.7,4.688-12.354a36.026,36.026,0,0,1,11.253-10.528,20.72,20.72,0,0,1,4.192-1.787,20.11,20.11,0,0,1,2.177-.38C2460.489,820.365,2460.3,820.35,2460.106,820.344Z" transform="translate(-2433.877 -801.243)" fill="#d3dee2" style="mix-blend-mode: multiply;isolation: isolate"/>
        <path id="Trazado_623389" data-name="Trazado 623389" d="M2609.718,912.439q-.081,1.908-.161,3.815a8.9,8.9,0,0,1,.588.825,8.162,8.162,0,0,1,1.059,5.794,4.967,4.967,0,0,1-1.247,2.584,3.664,3.664,0,0,1-.465.39,5.638,5.638,0,0,0-.567,1.761,7.117,7.117,0,0,0,4.237-2.883,7.626,7.626,0,0,0,.518-6.67A15.139,15.139,0,0,0,2609.718,912.439Z" transform="translate(-2570.962 -874.421)" fill="#d3dee2" style="mix-blend-mode: multiply;isolation: isolate"/>
        <path id="Trazado_623390" data-name="Trazado 623390" d="M2491.019,917.646l-1.756,2.036c.254,1.371.656,2.865,1.243,6.014a2.227,2.227,0,0,0,.784.311l1.82.459c-.4-1.145-.79-2.4-1.133-3.763A43.128,43.128,0,0,1,2491.019,917.646Z" transform="translate(-2475.886 -878.558)" fill="#d3dee2" style="mix-blend-mode: multiply;isolation: isolate"/>
        <path id="Trazado_623391" data-name="Trazado 623391" d="M2529.176,1035.539l6.5-3.482-14.028.018Z" transform="translate(-2501.62 -969.461)" fill="#d3dee2" style="mix-blend-mode: multiply;isolation: isolate"/>
        <path id="Trazado_623392" data-name="Trazado 623392" d="M2542.773,848.324l-1.039,1.211.724.906-1.838,23.469,2.034,2.929,2.216-3.062q-.8-11.655-1.61-23.31l.905-.983Z" transform="translate(-2516.691 -823.48)" fill="#4f6772"/>
        <path id="Trazado_623393" data-name="Trazado 623393" d="M2474.025,952.157l3.033,17.2h25.574l3.033-17.2Z" transform="translate(-2463.779 -905.978)" fill="#249fe2"/>
      </g>
      <g id="Grupo_894728" data-name="Grupo 894728" transform="translate(606.704 196.859)">
        <g id="Grupo_894726" data-name="Grupo 894726" transform="translate(0 0)">
          <g id="Grupo_894720" data-name="Grupo 894720" transform="translate(0 14.95)">
            <path id="Trazado_623394" data-name="Trazado 623394" d="M1622.332,283.732a7.056,7.056,0,1,0-7.057-7.056A7.056,7.056,0,0,0,1622.332,283.732Z" transform="translate(-1615.275 -269.619)" fill="#fecb2f"/>
          </g>
          <g id="Grupo_894721" data-name="Grupo 894721" transform="translate(13.677 20.942)">
            <path id="Trazado_623395" data-name="Trazado 623395" d="M1730.194,323.06h-10.269c-10.329,0-15.2-5.834-19.911-11.476-4.582-5.489-8.911-10.673-18.176-10.673v-2.128c10.261,0,15.115,5.814,19.81,11.437,4.6,5.508,8.943,10.712,18.277,10.712h10.269Z" transform="translate(-1681.839 -298.783)" fill="#fecb2f"/>
          </g>
          <g id="Grupo_894722" data-name="Grupo 894722" transform="translate(13.677 8.841)">
            <path id="Trazado_623396" data-name="Trazado 623396" d="M1681.839,254.116v-2.128c5.583,0,8.2-2.772,10.979-5.707,2.973-3.144,6.046-6.394,12.588-6.394h6.354v2.128h-6.354c-5.625,0-8.256,2.782-11.041,5.729C1691.4,250.876,1688.339,254.116,1681.839,254.116Z" transform="translate(-1681.839 -239.886)" fill="#fecb2f"/>
          </g>
          <g id="Grupo_894723" data-name="Grupo 894723" transform="translate(33.693)">
            <circle id="Elipse_6253" data-name="Elipse 6253" cx="7.057" cy="7.057" r="7.057" transform="matrix(0.615, -0.788, 0.788, 0.615, 0, 11.124)" fill="#fecb2f"/>
          </g>
          <g id="Grupo_894724" data-name="Grupo 894724" transform="translate(55.387 37.098)">
            <path id="Trazado_623397" data-name="Trazado 623397" d="M1891.891,391.525a7.057,7.057,0,1,0-7.056-7.057A7.057,7.057,0,0,0,1891.891,391.525Z" transform="translate(-1884.835 -377.412)" fill="#fecb2f"/>
          </g>
          <g id="Grupo_894725" data-name="Grupo 894725" transform="translate(82.868 1.537)">
            <circle id="Elipse_6254" data-name="Elipse 6254" cx="7.056" cy="7.056" r="7.056" transform="matrix(0.978, -0.208, 0.208, 0.978, 0, 2.93)" fill="#fecb2f"/>
          </g>
        </g>
        <g id="Grupo_894727" data-name="Grupo 894727" transform="translate(43.598 8.841)">
          <rect id="Rectángulo_301380" data-name="Rectángulo 301380" width="47.638" height="2.128" fill="#fecb2f"/>
        </g>
      </g>
      <g id="Grupo_894729" data-name="Grupo 894729" transform="translate(397.594 253.74)">
        <path id="Trazado_623398" data-name="Trazado 623398" d="M640.039,493.937a.58.58,0,0,0-.365.254.569.569,0,0,0-.078.437l4.019,18.41H624.953a.628.628,0,0,0-.285-.016.607.607,0,0,0-.483.6A20.15,20.15,0,1,0,662,503.939a.538.538,0,0,0-.023-.06.593.593,0,0,0-.064-.093,20.3,20.3,0,0,0-5.467-6.26.547.547,0,0,0-.176-.13,20.04,20.04,0,0,0-11.937-3.929A20.29,20.29,0,0,0,640.039,493.937Z" transform="translate(-618.716 -489.404)" fill="#ef3c79"/>
        <path id="Trazado_623399" data-name="Trazado 623399" d="M613.419,473.7a20.253,20.253,0,0,0-15.853,19.669h0a.616.616,0,0,0,.309.513.58.58,0,0,0,.29.077h19.551a.58.58,0,0,0,.58-.58.572.572,0,0,0-.014-.123l-4.173-19.114A.58.58,0,0,0,613.419,473.7Z" transform="translate(-597.566 -473.691)" fill="#21cbae"/>
      </g>
      <g id="Grupo_894731" data-name="Grupo 894731" transform="translate(345.88 283.352)">
        <path id="Trazado_623400" data-name="Trazado 623400" d="M416.231,664.126a1.051,1.051,0,0,0-.976,0c-11.612,8.1-20.562,9.545-26.7,9.283-4.235-.181-10.272-1.307-18.694.694a29.572,29.572,0,0,0-9.154,3.3c-10.5,6.214-13.482,18.4-14.1,20.9a36.852,36.852,0,0,0-.731,3.859,30.635,30.635,0,0,0,19.167,8.4,1.414,1.414,0,0,0,.8-.848,1.4,1.4,0,0,0-.344-1.388,33.067,33.067,0,0,1-9.129-7.749,24.434,24.434,0,0,1,5.62-5.965q1.826,4.686,3.825,9.5,1.264,3.036,2.543,5.987c-1.545,10.646-2.748,22.2-3.369,34.567-.362,7.216-.5,14.158-.457,20.8.007.036.157.743.685.922a1.34,1.34,0,0,0,1.542-1.095q2.576-8.458,5.006-17.5,2.86-10.686,5.118-20.791a207.372,207.372,0,0,0,6.321,19.917c2.412,6.454,4.978,12.336,7.537,17.629a1.071,1.071,0,0,0,1.37.749.993.993,0,0,0,.343-1.037c-.473-8.192-1.27-16.958-2.512-26.213-1.13-8.421-2.512-16.352-4.037-23.77l1.432-.113a38.961,38.961,0,0,1,.488-14.142c.157-.639.448-1.723.9-3.622q1.1-4.66,1.891-9.019a30.935,30.935,0,0,0,15.557-6.461,31.557,31.557,0,0,0,10.529-15.74A1.019,1.019,0,0,0,416.231,664.126Z" transform="translate(-345.88 -654.509)" fill="#0b5999"/>
        <path id="Trazado_623401" data-name="Trazado 623401" d="M686.794,621.264c-.724.373-.891,1.379-1.06,2.4a3.85,3.85,0,0,0-.1,1.329,3.437,3.437,0,0,0,2.525,2.467,3.573,3.573,0,0,0,3.327-.793,2.342,2.342,0,0,0,.861-1.674c-.009-.2-.046-.131-.642-1.491a2.148,2.148,0,0,0-.61-.972,1.546,1.546,0,0,0-.707-.292c.508-.907.962-1.6,1.276-2.063.629-.922,1.115-1.509.908-1.988a.646.646,0,0,0-.385-.356c-.446-.137-.96.378-1.215.631-.744.738-1.7,1.644-2.9,2.772A1.641,1.641,0,0,0,686.794,621.264Z" transform="translate(-615.805 -617.806)" fill="#ffd092"/>
        <path id="Trazado_623402" data-name="Trazado 623402" d="M425.1,1171.167a10.764,10.764,0,0,0-2.251,2.355,3.4,3.4,0,0,0-.947,2.427,1.587,1.587,0,0,0,1.437-.433,16.922,16.922,0,0,0,2.431-2.223c.426-.473,1.292-1.469.946-2.184C426.385,1170.418,425.555,1170.845,425.1,1171.167Z" transform="translate(-406.267 -1057.126)" fill="#4f6772"/>
        <path id="Trazado_623403" data-name="Trazado 623403" d="M570.981,1164.257a10.763,10.763,0,0,1,2.251,2.354,3.4,3.4,0,0,1,.947,2.427,1.587,1.587,0,0,1-1.437-.433,16.92,16.92,0,0,1-2.431-2.223c-.426-.473-1.292-1.469-.946-2.185C569.7,1163.509,570.528,1163.936,570.981,1164.257Z" transform="translate(-523.382 -1051.636)" fill="#4f6772"/>
        <g id="Grupo_894730" data-name="Grupo 894730" transform="translate(21.21 0.066)">
          <path id="Trazado_623404" data-name="Trazado 623404" d="M456.348,620.813a3.057,3.057,0,0,1,.082-.863,2.12,2.12,0,0,1,1.095-1.224,4.246,4.246,0,0,1,1.632-.47c3.808-.282,3.967,0,6.726-.054a2.522,2.522,0,0,1,1.495.264c.474.294.872.858,1.127,2.445a13.606,13.606,0,0,1-.049,4.507,1.728,1.728,0,0,1-.253.713,2.177,2.177,0,0,1-1.092.795,12.738,12.738,0,0,1-2.96.721c-1.322.209-2.647.408-3.98.53a8.8,8.8,0,0,1-2.554-.045c-.344-.07-.636-.1-.8-.386a4.348,4.348,0,0,1-.164-1.377A54.139,54.139,0,0,1,456.348,620.813Z" transform="translate(-454.86 -618.128)" fill="#c96c27"/>
          <path id="Trazado_623405" data-name="Trazado 623405" d="M461.215,629.72a11.407,11.407,0,0,1-3.828,3.332c-1.576.857-3.963,1.95-5.893,1.765v1.142a1.972,1.972,0,0,0-.4-.042,2,2,0,0,0,0,4.007,1.957,1.957,0,0,0,.8-.172,5.639,5.639,0,0,0,10.9-2.079v-4.011A5.7,5.7,0,0,0,461.215,629.72Z" transform="translate(-449.107 -627.338)" fill="#ffd092"/>
          <path id="Trazado_623406" data-name="Trazado 623406" d="M455.123,633.491a4.04,4.04,0,0,1-.938-1.676,24.367,24.367,0,0,1-.945-5.433,12.9,12.9,0,0,0,1.845-.638,13.13,13.13,0,0,0,3.493-2.234,16.873,16.873,0,0,1-5.464,2.1,21.02,21.02,0,0,1-.212-5.547,2.16,2.16,0,0,1,.3-1.07,1.193,1.193,0,0,1,.305-.283l-.109.008a4.244,4.244,0,0,0-1.632.469,2.12,2.12,0,0,0-1.095,1.224,3.058,3.058,0,0,0-.082.863,54.148,54.148,0,0,0,.3,5.556c.01.1.014.223.017.357a2,2,0,0,0,.178,3.988,1.957,1.957,0,0,0,.8-.172,5.669,5.669,0,0,0,5.254,3.623,5.55,5.55,0,0,0,.776-.061,6.558,6.558,0,0,1-.8-.089A3.658,3.658,0,0,1,455.123,633.491Z" transform="translate(-449.107 -618.592)" fill="#d3dee2" style="mix-blend-mode: multiply;isolation: isolate"/>
        </g>
        <path id="Trazado_623407" data-name="Trazado 623407" d="M452.084,708.645c-.638.148-1.389.334-1.389.334-.452.111-.893.222-1.328.339q1.766,3.293,3.8,6.734c2.084,3.507,4.191,6.777,6.279,9.815,1.474-3.4,2.928-6.982,4.33-10.753q1.42-3.817,2.626-7.474a51.409,51.409,0,0,0-9.23.11C455.233,707.983,452.914,708.453,452.084,708.645Z" transform="translate(-428.103 -689.055)" fill="#21cbae"/>
        <path id="Trazado_623408" data-name="Trazado 623408" d="M491.517,735.156l-1.694-10.725,1.118-.709-1.957-1.827-1.465,2.013,1.139.574q-.319,5.449-.639,10.9a2.07,2.07,0,0,0,1.693,2.257A2.092,2.092,0,0,0,491.517,735.156Z" transform="translate(-458.416 -700.508)" fill="#4f6772"/>
        <path id="Trazado_623409" data-name="Trazado 623409" d="M377.13,707.859a42.757,42.757,0,0,0-7.269,1.087,29.57,29.57,0,0,0-9.154,3.3c-10.5,6.215-13.482,18.4-14.1,20.9A36.793,36.793,0,0,0,345.88,737a30.968,30.968,0,0,0,6.035,4.477,18.734,18.734,0,0,1-4.55-4.653,33.959,33.959,0,0,1,18.412-25.2A37.513,37.513,0,0,1,377.13,707.859Z" transform="translate(-345.88 -689.356)" fill="#d3dee2" style="mix-blend-mode: multiply;isolation: isolate"/>
        <path id="Trazado_623410" data-name="Trazado 623410" d="M432.344,824.222q-1.209-2.656-2.378-5.526c-1.573-3.877-2.894-7.617-4.006-11.175l-1.647,1.119q1.826,4.686,3.825,9.5,1.264,3.036,2.543,5.987C431.224,824.161,431.782,824.193,432.344,824.222Z" transform="translate(-408.197 -768.541)" fill="#d3dee2" style="mix-blend-mode: multiply;isolation: isolate"/>
        <path id="Trazado_623411" data-name="Trazado 623411" d="M583.7,679.491a29.013,29.013,0,0,1-14.315,9.309,26.629,26.629,0,0,1-5.243.887l-.534,2.647a30.931,30.931,0,0,0,15.557-6.461,31.536,31.536,0,0,0,10.494-15.622A61.5,61.5,0,0,1,583.7,679.491Z" transform="translate(-518.873 -659.475)" fill="#d3dee2" style="mix-blend-mode: multiply;isolation: isolate"/>
        <path id="Trazado_623412" data-name="Trazado 623412" d="M689.105,640.408a3.842,3.842,0,0,1-2.295-1.855,3.9,3.9,0,0,1,.067-3.688,1.12,1.12,0,0,1,.28-.349c.214-.16.778-.221.908-.458a1.638,1.638,0,0,0-1.272.036c-.724.373-.891,1.379-1.06,2.4a3.85,3.85,0,0,0-.1,1.329,3.437,3.437,0,0,0,2.525,2.467A3.616,3.616,0,0,0,689.105,640.408Z" transform="translate(-615.805 -630.636)" fill="#d3dee2" style="mix-blend-mode: multiply;isolation: isolate"/>
        <path id="Trazado_623413" data-name="Trazado 623413" d="M450.187,894.105l.3-3.907-1.187,2.621c-.968.1-2.009.174-3.116.2-.7.015-1.381.009-2.028-.013a12.441,12.441,0,0,0-.38-1.824,3.449,3.449,0,0,0-.76-1.6,2.521,2.521,0,0,0-.633-.472q-.309-.182-.651-.363-.422-.223-.82-.405c-.141-.009-.287-.016-.427-.025-1.545,10.646-2.748,22.2-3.369,34.567-.362,7.216-.5,14.158-.457,20.8.007.036.157.743.685.922a.882.882,0,0,0,.452.021q.227-5.817.551-11.741,1.093-19.888,3.135-38.533c1.555.019,3.173.006,4.847-.05Q448.316,894.238,450.187,894.105Z" transform="translate(-417.999 -832.736)" fill="#d3dee2" style="mix-blend-mode: multiply;isolation: isolate"/>
        <path id="Trazado_623414" data-name="Trazado 623414" d="M445.5,884.624a.483.483,0,0,0,.417.556,36.7,36.7,0,0,0,4.57,1.222,13.854,13.854,0,0,0-.334-2.562,4.139,4.139,0,0,0-.986-2.357,2.883,2.883,0,0,0-1.765-.7l-.658-1.471a1.257,1.257,0,0,0-.549.265c-.368.315-.373.757-.492,1.551A19.411,19.411,0,0,0,445.5,884.624Z" transform="translate(-425.02 -825.578)" fill="#ffd092"/>
        <path id="Trazado_623415" data-name="Trazado 623415" d="M506.644,985.317a223.324,223.324,0,0,1-8.576-26.933q.1-1.032.192-2.063l-.674,1.346-.791,1.578c.771,2.933,1.695,6.188,2.8,9.705,1.859,5.894,1.815,5.66,3.516,10.212,2.412,6.454,4.978,12.336,7.537,17.629a1.143,1.143,0,0,0,1.21.809C510.078,993.728,508.327,989.633,506.644,985.317Z" transform="translate(-465.786 -886.766)" fill="#d3dee2" style="mix-blend-mode: multiply;isolation: isolate"/>
      </g>
      <g id="Grupo_894735" data-name="Grupo 894735" transform="translate(468.058 228.502)">
        <g id="Grupo_894732" data-name="Grupo 894732" transform="translate(37.129 74.799)">
          <circle id="Elipse_6255" data-name="Elipse 6255" cx="7.578" cy="7.578" r="7.578" transform="matrix(0.981, -0.196, 0.196, 0.981, 1.844, 4.806)" fill="#fff"/>
          <circle id="Elipse_6256" data-name="Elipse 6256" cx="7.661" cy="7.661" r="7.661" transform="translate(0 10.834) rotate(-45)" fill="#5893eb" opacity="0.29"/>
          <path id="Trazado_623416" data-name="Trazado 623416" d="M1160.262,749.632a3.267,3.267,0,1,0-3.267-3.267A3.27,3.27,0,0,0,1160.262,749.632Z" transform="translate(-1149.641 -737.304)" fill="#5893eb" opacity="0.29"/>
          <path id="Trazado_623417" data-name="Trazado 623417" d="M1146.136,783.652a7.645,7.645,0,0,0,11.306.126,8.011,8.011,0,0,0-11.306-.126Z" transform="translate(-1141.013 -767.719)" fill="#5893eb" opacity="0.29"/>
        </g>
        <g id="Grupo_894733" data-name="Grupo 894733" transform="translate(18.036)">
          <circle id="Elipse_6257" data-name="Elipse 6257" cx="13.308" cy="13.308" r="13.308" transform="translate(0 26.583) rotate(-87.145)" fill="#fff"/>
          <circle id="Elipse_6258" data-name="Elipse 6258" cx="13.454" cy="13.454" r="13.454" transform="translate(0.629 0.646)" fill="#5893eb" opacity="0.29"/>
          <circle id="Elipse_6259" data-name="Elipse 6259" cx="5.737" cy="5.737" r="5.737" transform="translate(7.972 5.251)" fill="#5893eb" opacity="0.29"/>
          <path id="Trazado_623418" data-name="Trazado 623418" d="M1048.011,447.633a13.426,13.426,0,0,0,19.855.22,14.067,14.067,0,0,0-19.855-.22Z" transform="translate(-1043.957 -424.578)" fill="#5893eb" opacity="0.29"/>
        </g>
        <g id="Grupo_894734" data-name="Grupo 894734" transform="translate(0 48.067)">
          <circle id="Elipse_6260" data-name="Elipse 6260" cx="9.531" cy="9.531" r="9.531" transform="translate(1.538 1.526)" fill="#fff"/>
          <circle id="Elipse_6261" data-name="Elipse 6261" cx="9.635" cy="9.635" r="9.635" transform="translate(0 3.343) rotate(-9.992)" fill="#5893eb" opacity="0.29"/>
          <path id="Trazado_623419" data-name="Trazado 623419" d="M977.63,616.486a4.109,4.109,0,1,0-4.109-4.109A4.113,4.113,0,0,0,977.63,616.486Z" transform="translate(-966.737 -603.446)" fill="#5893eb" opacity="0.29"/>
          <path id="Trazado_623420" data-name="Trazado 623420" d="M959.864,659.274a9.616,9.616,0,0,0,14.22.158,10.075,10.075,0,0,0-14.22-.158Z" transform="translate(-955.886 -641.699)" fill="#5893eb" opacity="0.29"/>
        </g>
      </g>
      <g id="Grupo_894736" data-name="Grupo 894736" transform="translate(820.497 362.848)">
        <path id="Trazado_623421" data-name="Trazado 623421" d="M2658.518,1075.86h0a2.741,2.741,0,0,0-2.741,2.741v12.477a2.741,2.741,0,0,0,2.741,2.741h0a2.741,2.741,0,0,0,2.741-2.741V1078.6A2.741,2.741,0,0,0,2658.518,1075.86Z" transform="translate(-2655.777 -1061.24)" fill="#ef3c79"/>
        <path id="Trazado_623422" data-name="Trazado 623422" d="M2702,1046.212h0a2.741,2.741,0,0,0-2.741,2.741v18.569a2.741,2.741,0,0,0,2.741,2.741h0a2.742,2.742,0,0,0,2.741-2.741v-18.569A2.741,2.741,0,0,0,2702,1046.212Z" transform="translate(-2690.326 -1037.683)" fill="#ef3c79"/>
        <path id="Trazado_623423" data-name="Trazado 623423" d="M2745.487,1075.86h0a2.741,2.741,0,0,0-2.741,2.741v12.477a2.741,2.741,0,0,0,2.741,2.741h0a2.741,2.741,0,0,0,2.741-2.741V1078.6A2.741,2.741,0,0,0,2745.487,1075.86Z" transform="translate(-2724.876 -1061.24)" fill="#ef3c79"/>
        <path id="Trazado_623424" data-name="Trazado 623424" d="M2788.97,1004.7h0a2.741,2.741,0,0,0-2.741,2.741v27.1a2.741,2.741,0,0,0,2.741,2.741h0a2.741,2.741,0,0,0,2.741-2.741v-27.1A2.741,2.741,0,0,0,2788.97,1004.7Z" transform="translate(-2759.425 -1004.704)" fill="#ef3c79"/>
        <path id="Trazado_623425" data-name="Trazado 623425" d="M2832.455,1016.564h0a2.741,2.741,0,0,0-2.741,2.741v24.661a2.741,2.741,0,0,0,2.741,2.742h0a2.742,2.742,0,0,0,2.741-2.742v-24.661A2.741,2.741,0,0,0,2832.455,1016.564Z" transform="translate(-2793.975 -1014.127)" fill="#ef3c79"/>
      </g>
      <g id="Grupo_894739" data-name="Grupo 894739" transform="translate(506.816 330.643)">
        <path id="Trazado_623426" data-name="Trazado 623426" d="M1223.539,1072.4h-31.775l3.812,18.525c0,1.652,5.334,2.992,11.915,2.992s11.915-1.339,11.915-2.992h0Z" transform="translate(-1178.895 -1026.282)" fill="#eadfd9"/>
        <ellipse id="Elipse_6262" data-name="Elipse 6262" cx="15.888" cy="2.992" rx="15.888" ry="2.992" transform="translate(12.869 43.123)" fill="#dbc3b2"/>
        <g id="Grupo_894738" data-name="Grupo 894738">
          <g id="Grupo_894737" data-name="Grupo 894737">
            <path id="Trazado_623427" data-name="Trazado 623427" d="M1192.492,855.06c-.213-1.142-1.119-5.06-4.153-6.516-3.984-1.912-9.333,1.34-11.627,3.409a45.65,45.65,0,0,0-11.3,15.754c-.109-4.226-.27-8.649-2.36-12.323s-6.78-6.243-10.639-4.517c-4.51,2.018-5.181,8.083-4.813,13.011a97.637,97.637,0,0,0,1.773,12.6,12.7,12.7,0,0,0-14.356-8.958,7.349,7.349,0,0,0-5.21,3.311,6.894,6.894,0,0,0-.153,5.614c2.738,7.48,12.127,11.456,18.577,15.094,2.439,1.376,4.5,2.441,5.934,3.157l2.469-.023,3.1-.029,3.333-.031a169.722,169.722,0,0,0,16.616-16.283C1192.946,863.4,1193.028,857.932,1192.492,855.06Z" transform="translate(-1129.133 -847.964)" fill="#fecb2f"/>
          </g>
          <path id="Trazado_623428" data-name="Trazado 623428" d="M1211.049,902.309c-5.232,5.642-10.627,11.972-15.995,19.033q-4.443,5.845-8.227,11.47c-.01-3.226-.134-6.639-.41-10.215a138.812,138.812,0,0,0-2.712-18.6,128.706,128.706,0,0,1,1.474,19.211c.006,3.919-.167,7.615-.459,11.058-3.258-3.822-7-7.859-11.259-11.964-4.984-4.8-4.938-4.046-9.484-7.52-.209-.16,1.352.714,9.276,9.5,4.949,5.491,8.66,10.3,11.051,13.558l3.1-.029c2.059-3.835,5.241-9.481,9.55-16.059C1204.725,909.891,1211.233,902.11,1211.049,902.309Z" transform="translate(-1156.804 -891.139)" fill="#d7f0ff"/>
        </g>
      </g>
    </g>
  </g>
</svg>
