<svg xmlns="http://www.w3.org/2000/svg" xmlns:xlink="http://www.w3.org/1999/xlink" width="1047" height="374" viewBox="0 0 1047 374">
  <defs>
    <clipPath id="clip-path">
      <rect id="Rectángulo_302281" data-name="Rectángulo 302281" width="1047" height="373" rx="15" fill="#e8f7f3"/>
    </clipPath>
    <clipPath id="clip-path-2">
      <ellipse id="Elipse_6293" data-name="Elipse 6293" cx="91.505" cy="81.498" rx="91.505" ry="81.498" fill="none"/>
    </clipPath>
  </defs>
  <g id="Grupo_897743" data-name="Grupo 897743" transform="translate(8272 13593)">
    <g id="Grupo_897742" data-name="Grupo 897742" transform="translate(-8272 -13593)">
      <g id="Grupo_897741" data-name="Grupo 897741">
        <g id="Grupo_897740" data-name="Grupo 897740">
          <g id="Grupo_897739" data-name="Grupo 897739">
            <g id="Rectángulo_302280" data-name="Rectángulo 302280" transform="translate(1)" fill="#e8f9f6" stroke="#e8e8e8" stroke-width="1">
              <rect width="1046" height="372" stroke="none"/>
              <rect x="0.5" y="0.5" width="1045" height="371" fill="none"/>
            </g>
            <g id="Enmascarar_grupo_144" data-name="Enmascarar grupo 144" transform="translate(0 1)" clip-path="url(#clip-path)">
              <g id="Grupo_123" data-name="Grupo 123" transform="translate(0.718 -90.682)" opacity="0.5" style="mix-blend-mode: soft-light;isolation: isolate">
                <g id="Grupo_107" data-name="Grupo 107">
                  <g id="Grupo_103" data-name="Grupo 103" transform="translate(47.957)">
                    <path id="Trazado_87" data-name="Trazado 87" d="M86.812-92.943A3.7,3.7,0,0,1,82.9-96.371h0A3.7,3.7,0,0,1,86.812-99.8h0a3.7,3.7,0,0,1,3.916,3.428h0a3.7,3.7,0,0,1-3.916,3.428Z" transform="translate(-82.898 99.799)" fill="#fff"/>
                    <path id="Trazado_88" data-name="Trazado 88" d="M86.812-53.783A3.7,3.7,0,0,1,82.9-57.21h0a3.7,3.7,0,0,1,3.914-3.429h0a3.7,3.7,0,0,1,3.916,3.428h0a3.7,3.7,0,0,1-3.916,3.428Z" transform="translate(-82.898 89.563)" fill="#fff"/>
                    <ellipse id="Elipse_4" data-name="Elipse 4" cx="3.915" cy="3.429" rx="3.915" ry="3.429" transform="translate(0 57.853)" fill="#fff"/>
                    <ellipse id="Elipse_5" data-name="Elipse 5" cx="3.915" cy="3.429" rx="3.915" ry="3.429" transform="translate(0 86.779)" fill="#fff"/>
                    <path id="Trazado_89" data-name="Trazado 89" d="M86.839,63.712a3.453,3.453,0,1,1,3.916-3.428,3.7,3.7,0,0,1-3.916,3.428Z" transform="translate(-82.924 58.851)" fill="#fff"/>
                    <path id="Trazado_90" data-name="Trazado 90" d="M86.839,102.875a3.452,3.452,0,1,1,3.916-3.429,3.7,3.7,0,0,1-3.914,3.429Z" transform="translate(-82.925 48.614)" fill="#fff"/>
                    <ellipse id="Elipse_6" data-name="Elipse 6" cx="3.915" cy="3.429" rx="3.915" ry="3.429" transform="translate(0 173.558)" fill="#fff"/>
                    <ellipse id="Elipse_7" data-name="Elipse 7" cx="3.915" cy="3.429" rx="3.915" ry="3.429" transform="translate(0 202.485)" fill="#fff"/>
                  </g>
                  <g id="Grupo_104" data-name="Grupo 104" transform="translate(32.297 14.463)">
                    <path id="Trazado_91" data-name="Trazado 91" d="M67.933-73.361a3.7,3.7,0,0,1-3.914-3.428h0a3.7,3.7,0,0,1,3.914-3.428h0a3.7,3.7,0,0,1,3.915,3.428h0a3.7,3.7,0,0,1-3.914,3.429Z" transform="translate(-64.016 80.217)" fill="#fff"/>
                    <path id="Trazado_92" data-name="Trazado 92" d="M67.933-34.2a3.7,3.7,0,0,1-3.914-3.428h0a3.7,3.7,0,0,1,3.913-3.432h0a3.7,3.7,0,0,1,3.915,3.429h0A3.7,3.7,0,0,1,67.936-34.2Z" transform="translate(-64.016 69.981)" fill="#fff"/>
                    <ellipse id="Elipse_8" data-name="Elipse 8" cx="3.915" cy="3.429" rx="3.915" ry="3.429" transform="translate(0 57.853)" fill="#fff"/>
                    <ellipse id="Elipse_9" data-name="Elipse 9" cx="3.915" cy="3.429" rx="3.915" ry="3.429" transform="translate(0 86.779)" fill="#fff"/>
                    <path id="Trazado_93" data-name="Trazado 93" d="M67.96,83.293a3.452,3.452,0,1,1,3.915-3.429,3.7,3.7,0,0,1-3.914,3.429Z" transform="translate(-64.043 39.269)" fill="#fff"/>
                    <ellipse id="Elipse_10" data-name="Elipse 10" cx="3.915" cy="3.429" rx="3.915" ry="3.429" transform="translate(0 144.632)" fill="#fff"/>
                    <path id="Trazado_94" data-name="Trazado 94" d="M67.96,161.621a3.453,3.453,0,1,1,3.915-3.429A3.7,3.7,0,0,1,67.96,161.621Z" transform="translate(-64.042 18.796)" fill="#fff"/>
                    <ellipse id="Elipse_11" data-name="Elipse 11" cx="3.915" cy="3.429" rx="3.915" ry="3.429" transform="translate(0 202.485)" fill="#fff"/>
                  </g>
                  <g id="Grupo_105" data-name="Grupo 105" transform="translate(15.659 0)">
                    <path id="Trazado_95" data-name="Trazado 95" d="M47.867-92.943a3.7,3.7,0,0,1-3.914-3.428A3.7,3.7,0,0,1,47.867-99.8a3.7,3.7,0,0,1,3.915,3.428h0a3.7,3.7,0,0,1-3.914,3.428Z" transform="translate(-43.952 99.799)" fill="#fff"/>
                    <path id="Trazado_96" data-name="Trazado 96" d="M47.867-53.783a3.7,3.7,0,0,1-3.914-3.428,3.7,3.7,0,0,1,3.914-3.429,3.7,3.7,0,0,1,3.915,3.428h0a3.7,3.7,0,0,1-3.914,3.428Z" transform="translate(-43.952 89.563)" fill="#fff"/>
                    <ellipse id="Elipse_12" data-name="Elipse 12" cx="3.915" cy="3.429" rx="3.915" ry="3.429" transform="translate(0 57.853)" fill="#fff"/>
                    <ellipse id="Elipse_13" data-name="Elipse 13" cx="3.915" cy="3.429" rx="3.915" ry="3.429" transform="translate(0 86.779)" fill="#fff"/>
                    <path id="Trazado_97" data-name="Trazado 97" d="M47.894,63.712a3.453,3.453,0,1,1,3.915-3.428A3.7,3.7,0,0,1,47.894,63.712Z" transform="translate(-43.979 58.851)" fill="#fff"/>
                    <path id="Trazado_98" data-name="Trazado 98" d="M47.894,102.875a3.452,3.452,0,1,1,3.915-3.429A3.7,3.7,0,0,1,47.894,102.875Z" transform="translate(-43.979 48.614)" fill="#fff"/>
                    <ellipse id="Elipse_14" data-name="Elipse 14" cx="3.915" cy="3.429" rx="3.915" ry="3.429" transform="translate(0 173.558)" fill="#fff"/>
                    <ellipse id="Elipse_15" data-name="Elipse 15" cx="3.915" cy="3.429" rx="3.915" ry="3.429" transform="translate(0 202.485)" fill="#fff"/>
                  </g>
                  <g id="Grupo_106" data-name="Grupo 106" transform="translate(0 14.463)">
                    <path id="Trazado_99" data-name="Trazado 99" d="M28.984-73.361a3.7,3.7,0,0,1-3.914-3.428h0a3.7,3.7,0,0,1,3.914-3.428h0A3.7,3.7,0,0,1,32.9-76.789h0a3.7,3.7,0,0,1-3.914,3.429Z" transform="translate(-25.07 80.217)" fill="#fff"/>
                    <path id="Trazado_100" data-name="Trazado 100" d="M28.984-34.2a3.7,3.7,0,0,1-3.914-3.428h0a3.7,3.7,0,0,1,3.914-3.43h0A3.7,3.7,0,0,1,32.9-37.626h0A3.7,3.7,0,0,1,28.984-34.2Z" transform="translate(-25.07 69.98)" fill="#fff"/>
                    <path id="Trazado_101" data-name="Trazado 101" d="M28.984,4.971A3.7,3.7,0,0,1,25.07,1.543h0a3.741,3.741,0,0,1,3.994-3.415A3.721,3.721,0,0,1,32.9,1.543a3.7,3.7,0,0,1-3.914,3.428Z" transform="translate(-25.07 59.739)" fill="#fff"/>
                    <path id="Trazado_102" data-name="Trazado 102" d="M29.011,44.127a3.641,3.641,0,0,1-3.785-3.486A3.675,3.675,0,0,1,29.14,37.27,3.65,3.65,0,0,1,32.925,40.7,3.7,3.7,0,0,1,29.011,44.127Z" transform="translate(-25.097 49.507)" fill="#fff"/>
                    <path id="Trazado_103" data-name="Trazado 103" d="M29.011,83.293a3.452,3.452,0,1,1,.129-6.857,3.649,3.649,0,0,1,3.785,3.427,3.7,3.7,0,0,1-3.914,3.429Z" transform="translate(-25.097 39.269)" fill="#fff"/>
                    <path id="Trazado_104" data-name="Trazado 104" d="M29.01,122.457a3.453,3.453,0,1,1,.128-6.858,3.65,3.65,0,0,1,3.787,3.429,3.7,3.7,0,0,1-3.914,3.429Z" transform="translate(-25.096 29.032)" fill="#fff"/>
                    <path id="Trazado_105" data-name="Trazado 105" d="M29.01,161.621a3.453,3.453,0,1,1,.128-6.859,3.65,3.65,0,0,1,3.787,3.43A3.7,3.7,0,0,1,29.01,161.621Z" transform="translate(-25.096 18.796)" fill="#fff"/>
                    <path id="Trazado_106" data-name="Trazado 106" d="M29.01,200.785a3.453,3.453,0,1,1,.128-6.858,3.65,3.65,0,0,1,3.787,3.43A3.7,3.7,0,0,1,29.01,200.785Z" transform="translate(-25.096 8.558)" fill="#fff"/>
                  </g>
                </g>
                <g id="Grupo_122" data-name="Grupo 122" transform="translate(808.777 108.604)">
                  <g id="Grupo_118" data-name="Grupo 118" transform="translate(0 0)">
                    <path id="Trazado_144" data-name="Trazado 144" d="M1008.074,50.634a3.9,3.9,0,1,1-3.941-3.4h.064a3.658,3.658,0,0,1,3.877,3.388Z" transform="translate(-1000.321 -47.239)" fill="#fff"/>
                    <path id="Trazado_145" data-name="Trazado 145" d="M1047.507,50.634a3.9,3.9,0,1,1-3.939-3.4h.065a3.657,3.657,0,0,1,3.874,3.389Z" transform="translate(-1007.053 -47.239)" fill="#fff"/>
                    <path id="Trazado_146" data-name="Trazado 146" d="M1086.941,50.634a3.9,3.9,0,1,1-3.941-3.4h.065a3.658,3.658,0,0,1,3.876,3.389Z" transform="translate(-1013.783 -47.239)" fill="#fff"/>
                    <path id="Trazado_147" data-name="Trazado 147" d="M1126.375,50.634a3.9,3.9,0,1,1-3.941-3.4h.064a3.659,3.659,0,0,1,3.877,3.388Z" transform="translate(-1020.515 -47.239)" fill="#fff"/>
                    <path id="Trazado_148" data-name="Trazado 148" d="M1165.809,50.634a3.9,3.9,0,1,1-3.939-3.4h.064a3.658,3.658,0,0,1,3.875,3.389Z" transform="translate(-1027.247 -47.239)" fill="#fff"/>
                    <path id="Trazado_149" data-name="Trazado 149" d="M1205.243,50.634a3.9,3.9,0,1,1-3.941-3.4h.066a3.658,3.658,0,0,1,3.875,3.389Z" transform="translate(-1033.978 -47.239)" fill="#fff"/>
                    <path id="Trazado_150" data-name="Trazado 150" d="M1244.676,50.634a3.9,3.9,0,1,1-3.941-3.4h.065a3.658,3.658,0,0,1,3.875,3.389Z" transform="translate(-1040.709 -47.239)" fill="#fff"/>
                    <path id="Trazado_151" data-name="Trazado 151" d="M1284.111,50.634a3.9,3.9,0,1,1-3.94-3.4h.062a3.66,3.66,0,0,1,3.878,3.388Z" transform="translate(-1047.441 -47.239)" fill="#fff"/>
                  </g>
                  <g id="Grupo_119" data-name="Grupo 119" transform="translate(16.352 13.578)">
                    <path id="Trazado_152" data-name="Trazado 152" d="M1027.791,69.016a3.9,3.9,0,1,1-3.941-3.393h.066a3.659,3.659,0,0,1,3.875,3.391Z" transform="translate(-1020.039 -65.622)" fill="#fff"/>
                    <path id="Trazado_153" data-name="Trazado 153" d="M1067.226,69.016a3.9,3.9,0,1,1-3.943-3.393h.065a3.659,3.659,0,0,1,3.877,3.389Z" transform="translate(-1026.771 -65.622)" fill="#fff"/>
                    <path id="Trazado_154" data-name="Trazado 154" d="M1106.66,69.016a3.9,3.9,0,1,1-3.943-3.393h.066a3.659,3.659,0,0,1,3.877,3.389Z" transform="translate(-1033.502 -65.622)" fill="#fff"/>
                    <path id="Trazado_155" data-name="Trazado 155" d="M1146.092,69.016a3.9,3.9,0,1,1-3.941-3.393h.066a3.659,3.659,0,0,1,3.875,3.39Z" transform="translate(-1040.233 -65.622)" fill="#fff"/>
                    <path id="Trazado_156" data-name="Trazado 156" d="M1185.525,69.016a3.9,3.9,0,1,1-3.943-3.393h.066A3.664,3.664,0,0,1,1185.525,69.016Z" transform="translate(-1046.964 -65.622)" fill="#fff"/>
                    <path id="Trazado_157" data-name="Trazado 157" d="M1224.96,69.016a3.9,3.9,0,1,1-3.943-3.393h.065a3.659,3.659,0,0,1,3.877,3.389Z" transform="translate(-1053.696 -65.622)" fill="#fff"/>
                    <path id="Trazado_158" data-name="Trazado 158" d="M1264.393,69.016a3.9,3.9,0,1,1-3.941-3.393h.067a3.658,3.658,0,0,1,3.874,3.39Z" transform="translate(-1060.427 -65.622)" fill="#fff"/>
                    <path id="Trazado_159" data-name="Trazado 159" d="M1303.828,69.016a3.9,3.9,0,1,1-3.942-3.393h.066A3.663,3.663,0,0,1,1303.828,69.016Z" transform="translate(-1067.158 -65.622)" fill="#fff"/>
                  </g>
                  <g id="Grupo_120" data-name="Grupo 120" transform="translate(0 28.004)">
                    <path id="Trazado_160" data-name="Trazado 160" d="M1008.074,88.548a3.9,3.9,0,1,1-3.941-3.395h.064a3.659,3.659,0,0,1,3.877,3.389Z" transform="translate(-1000.321 -85.153)" fill="#fff"/>
                    <path id="Trazado_161" data-name="Trazado 161" d="M1047.507,88.548a3.9,3.9,0,1,1-3.939-3.395h.065a3.658,3.658,0,0,1,3.874,3.39Z" transform="translate(-1007.053 -85.153)" fill="#fff"/>
                    <path id="Trazado_162" data-name="Trazado 162" d="M1086.941,88.548A3.9,3.9,0,1,1,1083,85.154h.065a3.659,3.659,0,0,1,3.876,3.389Z" transform="translate(-1013.783 -85.153)" fill="#fff"/>
                    <path id="Trazado_163" data-name="Trazado 163" d="M1126.375,88.548a3.9,3.9,0,1,1-3.941-3.395h.064a3.659,3.659,0,0,1,3.877,3.389Z" transform="translate(-1020.515 -85.153)" fill="#fff"/>
                    <path id="Trazado_164" data-name="Trazado 164" d="M1165.809,88.548a3.9,3.9,0,1,1-3.939-3.395h.064a3.658,3.658,0,0,1,3.875,3.39Z" transform="translate(-1027.247 -85.153)" fill="#fff"/>
                    <path id="Trazado_165" data-name="Trazado 165" d="M1205.243,88.548a3.9,3.9,0,1,1-3.941-3.395h.066a3.658,3.658,0,0,1,3.875,3.39Z" transform="translate(-1033.978 -85.153)" fill="#fff"/>
                    <path id="Trazado_166" data-name="Trazado 166" d="M1244.676,88.548a3.9,3.9,0,1,1-3.941-3.395h.065a3.658,3.658,0,0,1,3.875,3.39Z" transform="translate(-1040.709 -85.153)" fill="#fff"/>
                    <path id="Trazado_167" data-name="Trazado 167" d="M1284.111,88.548a3.9,3.9,0,1,1-3.94-3.395h.062a3.66,3.66,0,0,1,3.878,3.389Z" transform="translate(-1047.441 -85.153)" fill="#fff"/>
                  </g>
                  <g id="Grupo_121" data-name="Grupo 121" transform="translate(16.352 41.582)">
                    <path id="Trazado_168" data-name="Trazado 168" d="M1027.791,106.931a3.9,3.9,0,1,1-3.941-3.393h.066a3.659,3.659,0,0,1,3.875,3.391Z" transform="translate(-1020.039 -103.537)" fill="#fff"/>
                    <path id="Trazado_169" data-name="Trazado 169" d="M1067.226,106.931a3.9,3.9,0,1,1-3.943-3.393h.065a3.659,3.659,0,0,1,3.877,3.389Z" transform="translate(-1026.771 -103.537)" fill="#fff"/>
                    <path id="Trazado_170" data-name="Trazado 170" d="M1106.66,106.931a3.9,3.9,0,1,1-3.943-3.393h.066a3.659,3.659,0,0,1,3.877,3.389Z" transform="translate(-1033.502 -103.537)" fill="#fff"/>
                    <path id="Trazado_171" data-name="Trazado 171" d="M1146.092,106.931a3.9,3.9,0,1,1-3.941-3.393h.066a3.658,3.658,0,0,1,3.875,3.39Z" transform="translate(-1040.233 -103.537)" fill="#fff"/>
                    <path id="Trazado_172" data-name="Trazado 172" d="M1185.525,106.931a3.9,3.9,0,1,1-3.943-3.393h.066A3.664,3.664,0,0,1,1185.525,106.931Z" transform="translate(-1046.964 -103.537)" fill="#fff"/>
                    <path id="Trazado_173" data-name="Trazado 173" d="M1224.96,106.931a3.9,3.9,0,1,1-3.943-3.393h.065a3.659,3.659,0,0,1,3.877,3.389Z" transform="translate(-1053.696 -103.537)" fill="#fff"/>
                    <path id="Trazado_174" data-name="Trazado 174" d="M1264.393,106.931a3.9,3.9,0,1,1-3.941-3.393h.067a3.658,3.658,0,0,1,3.874,3.39Z" transform="translate(-1060.427 -103.537)" fill="#fff"/>
                    <path id="Trazado_175" data-name="Trazado 175" d="M1303.828,106.931a3.9,3.9,0,1,1-3.942-3.393h.066A3.663,3.663,0,0,1,1303.828,106.931Z" transform="translate(-1067.158 -103.537)" fill="#fff"/>
                  </g>
                </g>
              </g>
              <g id="Grupo_872888" data-name="Grupo 872888" transform="translate(-22.421 -142.191)">
                <g id="Grupo_2" data-name="Grupo 2" transform="translate(362.336)" style="mix-blend-mode: soft-light;isolation: isolate">
                  <path id="Trazado_1" data-name="Trazado 1" d="M548.609-167.987,435.637-67.369a78.874,78.874,0,0,0,2.03,8.482L558.133-166.179Q553.461-167.286,548.609-167.987Z" transform="translate(-434.351 169.132)" fill="none" stroke="#fff" stroke-miterlimit="10" stroke-width="1.062"/>
                  <path id="Trazado_2" data-name="Trazado 2" d="M558.551-165.539,438.085-58.245a81.063,81.063,0,0,0,2.778,7.82L567.33-163.067Q563.032-164.482,558.551-165.539Z" transform="translate(-434.769 168.492)" fill="none" stroke="#fff" stroke-miterlimit="10" stroke-width="1.062"/>
                  <path id="Trazado_3" data-name="Trazado 3" d="M600.6-141.668,461.955-18.184c1.757,1.858,3.59,3.658,5.513,5.381L606.643-136.758C604.71-138.472,602.689-140.1,600.6-141.668Z" transform="translate(-438.843 162.252)" fill="none" stroke="#fff" stroke-miterlimit="10" stroke-width="1.062"/>
                  <path id="Trazado_4" data-name="Trazado 4" d="M593.042-147.734,455.888-25.579q2.386,3,5.031,5.81L599.566-143.254Q596.418-145.615,593.042-147.734Z" transform="translate(-437.807 163.838)" fill="none" stroke="#fff" stroke-miterlimit="10" stroke-width="1.062"/>
                  <path id="Trazado_5" data-name="Trazado 5" d="M576.73-158.054,445.569-41.237c1.226,2.3,2.578,4.531,4.017,6.712L584.268-154.473C581.818-155.758,579.31-156.96,576.73-158.054Z" transform="translate(-436.046 166.535)" fill="none" stroke="#fff" stroke-miterlimit="10" stroke-width="1.062"/>
                  <path id="Trazado_6" data-name="Trazado 6" d="M585.095-153.206,450.413-33.259q2.125,3.215,4.54,6.247L592.107-149.164Q588.7-151.314,585.095-153.206Z" transform="translate(-436.873 165.268)" fill="none" stroke="#fff" stroke-miterlimit="10" stroke-width="1.062"/>
                  <path id="Trazado_7" data-name="Trazado 7" d="M567.9-162.192,441.43-49.553q1.536,3.7,3.432,7.235L576.024-159.136Q572.057-160.819,567.9-162.192Z" transform="translate(-435.34 167.617)" fill="none" stroke="#fff" stroke-miterlimit="10" stroke-width="1.062"/>
                  <path id="Trazado_8" data-name="Trazado 8" d="M442.248-111.687l55.79-49.687C472.494-152.441,452.279-134.438,442.248-111.687Z" transform="translate(-435.479 167.403)" fill="none" stroke="#fff" stroke-miterlimit="10" stroke-width="1.062"/>
                  <path id="Trazado_9" data-name="Trazado 9" d="M497.043-162.9,441.253-113.21a79.908,79.908,0,0,0-4.834,14.6L513.43-167.2A106.779,106.779,0,0,0,497.043-162.9Z" transform="translate(-434.484 168.926)" fill="none" stroke="#fff" stroke-miterlimit="10" stroke-width="1.062"/>
                  <path id="Trazado_10" data-name="Trazado 10" d="M537.953-169.35,434.272-77.009a78.773,78.773,0,0,0,1.132,9.284L548.376-168.343Q543.2-169.093,537.953-169.35Z" transform="translate(-434.118 169.488)" fill="none" stroke="#fff" stroke-miterlimit="10" stroke-width="1.062"/>
                  <path id="Trazado_11" data-name="Trazado 11" d="M532.5-169.537c-2.082,0-4.146.077-6.2.191L434.3-87.4c-.128,1.827-.214,3.664-.214,5.52,0,1.619.057,3.226.154,4.823L537.921-169.4C536.127-169.484,534.319-169.537,532.5-169.537Z" transform="translate(-434.086 169.537)" fill="none" stroke="#fff" stroke-miterlimit="10" stroke-width="1.062"/>
                  <path id="Trazado_12" data-name="Trazado 12" d="M513.076-167.743,436.065-99.157a78.667,78.667,0,0,0-1.721,11.824l92.01-81.946A110.2,110.2,0,0,0,513.076-167.743Z" transform="translate(-434.13 169.47)" fill="none" stroke="#fff" stroke-miterlimit="10" stroke-width="1.062"/>
                  <path id="Trazado_13" data-name="Trazado 13" d="M646.366-70.8,532.819,30.325q5.143.777,10.356,1.067L647.564-61.577A78.622,78.622,0,0,0,646.366-70.8Z" transform="translate(-450.94 143.729)" fill="none" stroke="#fff" stroke-miterlimit="10" stroke-width="1.062"/>
                  <path id="Trazado_14" data-name="Trazado 14" d="M649.909-52.809c0-1.852-.087-3.684-.213-5.507L545.307,34.656c2.047.114,4.1.191,6.182.191,1.781,0,3.548-.047,5.3-.131l92.969-82.8C649.856-49.651,649.909-51.224,649.909-52.809Z" transform="translate(-453.071 140.465)" fill="none" stroke="#fff" stroke-miterlimit="10" stroke-width="1.062"/>
                  <path id="Trazado_15" data-name="Trazado 15" d="M652.128-44.464l-92.969,82.8A109.954,109.954,0,0,0,572.322,36.9l78.2-69.643A78.746,78.746,0,0,0,652.128-44.464Z" transform="translate(-455.436 136.844)" fill="none" stroke="#fff" stroke-miterlimit="10" stroke-width="1.062"/>
                  <path id="Trazado_16" data-name="Trazado 16" d="M653.228-28.59l-78.2,69.643a107.18,107.18,0,0,0,16.031-3.987l57.688-51.379A79.79,79.79,0,0,0,653.228-28.59Z" transform="translate(-458.145 132.695)" fill="none" stroke="#fff" stroke-miterlimit="10" stroke-width="1.062"/>
                  <path id="Trazado_17" data-name="Trazado 17" d="M652.051-9.26,594.367,42.119C621.014,33.2,642.042,14.474,652.051-9.26Z" transform="translate(-461.446 127.642)" fill="none" stroke="#fff" stroke-miterlimit="10" stroke-width="1.062"/>
                  <path id="Trazado_18" data-name="Trazado 18" d="M642.329-82.22,521.4,25.482q4.647,1.131,9.466,1.859L644.418-73.788A78.424,78.424,0,0,0,642.329-82.22Z" transform="translate(-448.991 146.713)" fill="none" stroke="#fff" stroke-miterlimit="10" stroke-width="1.062"/>
                  <path id="Trazado_19" data-name="Trazado 19" d="M620.965-119.953,483.674,2.323c2.257,1.443,4.576,2.809,6.973,4.081l134.9-120.148C624.118-115.876,622.584-117.943,620.965-119.953Z" transform="translate(-442.551 156.576)" fill="none" stroke="#fff" stroke-miterlimit="10" stroke-width="1.062"/>
                  <path id="Trazado_20" data-name="Trazado 20" d="M614.557-127.771,475.852-4.234q3.132,2.375,6.483,4.516L619.626-121.994Q617.226-124.979,614.557-127.771Z" transform="translate(-441.215 158.62)" fill="none" stroke="#fff" stroke-miterlimit="10" stroke-width="1.062"/>
                  <path id="Trazado_21" data-name="Trazado 21" d="M637.707-92.744,510.876,20.216q4.274,1.437,8.729,2.518l120.927-107.7A80.743,80.743,0,0,0,637.707-92.744Z" transform="translate(-447.194 149.464)" fill="none" stroke="#fff" stroke-miterlimit="10" stroke-width="1.062"/>
                  <path id="Trazado_22" data-name="Trazado 22" d="M607.778-135.02,468.6-11.065c1.922,1.722,3.936,3.361,6.012,4.937L613.32-129.666C611.553-131.515,609.712-133.309,607.778-135.02Z" transform="translate(-439.978 160.515)" fill="none" stroke="#fff" stroke-miterlimit="10" stroke-width="1.062"/>
                  <path id="Trazado_23" data-name="Trazado 23" d="M632.58-102.5,501.12,14.58c2.632,1.136,5.337,2.157,8.09,3.084L636.041-95.3C635-97.751,633.856-100.159,632.58-102.5Z" transform="translate(-445.529 152.015)" fill="none" stroke="#fff" stroke-miterlimit="10" stroke-width="1.062"/>
                  <path id="Trazado_24" data-name="Trazado 24" d="M626.982-111.546,492.081,8.6c2.435,1.294,4.933,2.5,7.5,3.611L631.037-104.867C629.795-107.153,628.434-109.376,626.982-111.546Z" transform="translate(-443.986 154.379)" fill="none" stroke="#fff" stroke-miterlimit="10" stroke-width="1.062"/>
                </g>
                <g id="Grupo_3" data-name="Grupo 3" transform="translate(35.309 163.032)">
                  <path id="Trazado_25" data-name="Trazado 25" d="M80.417,238.478l-4.956-4.414L68.235,240.5l-7.227-6.436-4.955,4.414,7.227,6.436-7.227,6.436,4.955,4.413,7.227-6.436,7.227,6.436,4.956-4.413-7.227-6.436Z" transform="translate(-56.053 -234.064)" fill="#fff"/>
                  <path id="Trazado_26" data-name="Trazado 26" d="M80.417,292.929l-4.956-4.414-7.227,6.436-7.227-6.436-4.955,4.414,7.227,6.436L56.053,305.8l4.955,4.413,7.227-6.436,7.227,6.436,4.956-4.413-7.227-6.436Z" transform="translate(-56.053 -248.297)" fill="#fff"/>
                  <path id="Trazado_27" data-name="Trazado 27" d="M80.417,347.379l-4.956-4.414L68.235,349.4l-7.227-6.436-4.955,4.414,7.227,6.436-7.227,6.436,4.955,4.413,7.227-6.436,7.227,6.436,4.956-4.413-7.227-6.436Z" transform="translate(-56.053 -262.53)" fill="#fff"/>
                </g>
                <g id="Grupo_12" data-name="Grupo 12" transform="translate(323.077 359.395)" style="mix-blend-mode: soft-light;isolation: isolate">
                  <path id="Trazado_29" data-name="Trazado 29" d="M609.338,416.038,436.032,570.391a16.484,16.484,0,0,1-21.411,0h0a12.469,12.469,0,0,1,0-19.069l118.87-105.873,54.435-48.482a16.486,16.486,0,0,1,21.411,0h0A12.471,12.471,0,0,1,609.338,416.038Z" transform="translate(-410.188 -393.017)" fill="none" stroke="#fff" stroke-miterlimit="10" stroke-width="1.971"/>
                  <path id="Trazado_30" data-name="Trazado 30" d="M606.317,507.475,474.036,625.291a12.585,12.585,0,0,1-16.344,0h0a9.517,9.517,0,0,1,0-14.557h0l132.281-117.82a12.585,12.585,0,0,1,16.344,0h0a9.519,9.519,0,0,1,0,14.559Z" transform="translate(-417.719 -418.342)" fill="none" stroke="#fff" stroke-miterlimit="10" stroke-width="1.971"/>
                </g>
                <g id="Grupo_13" data-name="Grupo 13" transform="translate(608.541 155.826)">
                  <path id="Trazado_31" data-name="Trazado 31" d="M744.985,48.642l-14.017-7.206V55.849Z" transform="translate(-730.968 -41.436)" fill="#fefefe"/>
                  <path id="Trazado_32" data-name="Trazado 32" d="M773.3,48.642l-14.018-7.206V55.849Z" transform="translate(-735.801 -41.436)" fill="#fefefe"/>
                  <path id="Trazado_33" data-name="Trazado 33" d="M801.6,48.642l-14.017-7.206V55.849Z" transform="translate(-740.633 -41.436)" fill="#21cbae" stroke="#21cbae" stroke-miterlimit="10" stroke-width="0.985"/>
                </g>
                <g id="Grupo_14" data-name="Grupo 14" transform="translate(1042.472 334.758)">
                  <path id="Trazado_34" data-name="Trazado 34" d="M1245.043,376.114l-8.09,12.484h16.186Z" transform="translate(-1236.953 -271.196)" fill="#db4d79" stroke="#fff" stroke-miterlimit="10" stroke-width="0.985"/>
                  <path id="Trazado_35" data-name="Trazado 35" d="M1245.043,347.8l-8.09,12.484h16.186Z" transform="translate(-1236.953 -263.796)" fill="#db4d79" stroke="#fff" stroke-miterlimit="10" stroke-width="0.985"/>
                  <path id="Trazado_36" data-name="Trazado 36" d="M1245.043,319.5l-8.09,12.483h16.186Z" transform="translate(-1236.953 -256.396)" fill="#db4d79" stroke="#fff" stroke-miterlimit="10" stroke-width="0.985"/>
                  <path id="Trazado_37" data-name="Trazado 37" d="M1245.742,234.065l-4.695,7.243h9.39Z" transform="translate(-1237.651 -234.065)" fill="#db4d79" stroke="#fff" stroke-miterlimit="10" stroke-width="0.985"/>
                </g>
                <g id="Grupo_16" data-name="Grupo 16" transform="translate(968.367 494.436)">
                  <g id="Grupo_15" data-name="Grupo 15">
                    <line id="Línea_1" data-name="Línea 1" x1="11.097" y2="9.883" fill="none" stroke="#fecb2f" stroke-miterlimit="10" stroke-width="0.769"/>
                    <line id="Línea_2" data-name="Línea 2" x1="11.097" y2="9.883" transform="translate(5.407)" fill="none" stroke="#fecb2f" stroke-miterlimit="10" stroke-width="0.769"/>
                    <line id="Línea_3" data-name="Línea 3" x1="11.097" y2="9.883" transform="translate(10.812)" fill="none" stroke="#fecb2f" stroke-miterlimit="10" stroke-width="0.769"/>
                    <line id="Línea_4" data-name="Línea 4" x1="11.097" y2="9.883" transform="translate(16.219)" fill="none" stroke="#fecb2f" stroke-miterlimit="10" stroke-width="0.769"/>
                    <line id="Línea_5" data-name="Línea 5" x1="11.097" y2="9.883" transform="translate(21.625)" fill="none" stroke="#fecb2f" stroke-miterlimit="10" stroke-width="0.769"/>
                    <line id="Línea_6" data-name="Línea 6" x1="11.097" y2="9.883" transform="translate(27.032)" fill="none" stroke="#fecb2f" stroke-miterlimit="10" stroke-width="0.769"/>
                    <line id="Línea_7" data-name="Línea 7" x1="11.097" y2="9.883" transform="translate(32.438)" fill="none" stroke="#fecb2f" stroke-miterlimit="10" stroke-width="0.769"/>
                    <line id="Línea_8" data-name="Línea 8" x1="11.097" y2="9.883" transform="translate(37.844)" fill="none" stroke="#fecb2f" stroke-miterlimit="10" stroke-width="0.769"/>
                    <line id="Línea_9" data-name="Línea 9" x1="11.097" y2="9.883" transform="translate(43.251)" fill="none" stroke="#fecb2f" stroke-miterlimit="10" stroke-width="0.769"/>
                    <line id="Línea_10" data-name="Línea 10" x1="11.097" y2="9.883" transform="translate(48.656)" fill="none" stroke="#fecb2f" stroke-miterlimit="10" stroke-width="0.769"/>
                    <line id="Línea_11" data-name="Línea 11" x1="11.097" y2="9.883" transform="translate(54.063)" fill="none" stroke="#fecb2f" stroke-miterlimit="10" stroke-width="0.769"/>
                    <line id="Línea_12" data-name="Línea 12" x1="11.097" y2="9.883" transform="translate(59.47)" fill="none" stroke="#fecb2f" stroke-miterlimit="10" stroke-width="0.769"/>
                    <line id="Línea_13" data-name="Línea 13" x1="11.097" y2="9.883" transform="translate(64.876)" fill="none" stroke="#fecb2f" stroke-miterlimit="10" stroke-width="0.769"/>
                  </g>
                </g>
                <rect id="Rectángulo_46" data-name="Rectángulo 46" width="48.942" height="3.656" transform="translate(968.367 484.824)" fill="#f6cc53" stroke="#fff" stroke-miterlimit="10" stroke-width="0.985"/>
                <rect id="Rectángulo_47" data-name="Rectángulo 47" width="20.403" height="3.656" transform="translate(1023.937 484.824)" fill="#f6cc53"/>
                <g id="Grupo_19" data-name="Grupo 19" transform="translate(957.441 145.578)">
                  <g id="Grupo_17" data-name="Grupo 17" transform="translate(12.519 0)">
                    <path id="Trazado_38" data-name="Trazado 38" d="M1170.2,29.083a1.719,1.719,0,1,1-1.707-1.522,1.622,1.622,0,0,1,1.707,1.522Z" transform="translate(-1166.781 -27.561)" fill="#21cbae" stroke="#21cbae" stroke-miterlimit="10" stroke-width="0.985"/>
                    <path id="Trazado_39" data-name="Trazado 39" d="M1185.293,29.083a1.718,1.718,0,1,1-1.708-1.522,1.623,1.623,0,0,1,1.708,1.522Z" transform="translate(-1169.358 -27.561)" fill="none" stroke="#d8d9da" stroke-miterlimit="10" stroke-width="0.769"/>
                    <path id="Trazado_40" data-name="Trazado 40" d="M1200.391,29.083a1.719,1.719,0,1,1-1.707-1.522,1.622,1.622,0,0,1,1.707,1.522Z" transform="translate(-1171.935 -27.561)" fill="none" stroke="#d8d9da" stroke-miterlimit="10" stroke-width="0.769"/>
                  </g>
                  <g id="Grupo_18" data-name="Grupo 18" transform="translate(0 9.631)">
                    <ellipse id="Elipse_1" data-name="Elipse 1" cx="1.707" cy="1.52" rx="1.707" ry="1.52" transform="translate(0 0)" fill="none" stroke="#d8d9da" stroke-miterlimit="10" stroke-width="0.769"/>
                    <path id="Trazado_41" data-name="Trazado 41" d="M1170.2,42.121a1.719,1.719,0,1,1-1.707-1.521h0A1.622,1.622,0,0,1,1170.2,42.121Z" transform="translate(-1154.261 -40.6)" fill="none" stroke="#d8d9da" stroke-miterlimit="10" stroke-width="0.769"/>
                    <path id="Trazado_42" data-name="Trazado 42" d="M1185.293,42.121a1.718,1.718,0,1,1-1.708-1.521,1.623,1.623,0,0,1,1.708,1.521Z" transform="translate(-1156.838 -40.6)" fill="none" stroke="#d8d9da" stroke-miterlimit="10" stroke-width="0.769"/>
                    <path id="Trazado_43" data-name="Trazado 43" d="M1185.293,54.244a1.718,1.718,0,1,1-1.708-1.521,1.623,1.623,0,0,1,1.708,1.521Z" transform="translate(-1156.838 -43.769)" fill="none" stroke="#21cbae" stroke-miterlimit="10" stroke-width="0.985"/>
                  </g>
                </g>
                <path id="Trazado_47" data-name="Trazado 47" d="M1129.732,213.761a3.639,3.639,0,1,1-3.614-3.22h0A3.434,3.434,0,0,1,1129.732,213.761Z" transform="translate(-189.262 70.187)" fill="none" stroke="#fff" stroke-linecap="round" stroke-linejoin="round" stroke-width="0.985"/>
                <path id="Trazado_48" data-name="Trazado 48" d="M1294.862,263.174c-11.668,0-21.127,8.426-21.127,18.818s9.46,18.817,21.129,18.817,21.127-8.425,21.127-18.818-9.459-18.817-21.128-18.817Zm0,27.617c-5.457,0-9.88-3.94-9.88-8.8s4.424-8.8,9.88-8.8,9.88,3.94,9.88,8.8-4.424,8.8-9.88,8.8Z" transform="translate(-223.17 -13.641)" fill="#fefefe"/>
                <g id="Grupo_93" data-name="Grupo 93" transform="translate(0 319.604)">
                  <g id="Grupo_897738" data-name="Grupo 897738" transform="translate(0 0)">
                    <g id="Grupo_897737" data-name="Grupo 897737" clip-path="url(#clip-path-2)">
                      <g id="Grupo_92" data-name="Grupo 92" transform="translate(-10.158 -3.898)">
                        <path id="Trazado_49" data-name="Trazado 49" d="M1044.767,126.176c-25.309,23.926-52.48,46.194-77.8,70.215" transform="translate(-966.649 -126.1)" fill="none" stroke="#fff" stroke-miterlimit="10" stroke-width="0.645"/>
                        <path id="Trazado_50" data-name="Trazado 50" d="M1056.37,126.125c-28.19,26.906-59.715,53.048-89.439,79.621" transform="translate(-966.675 -126.125)" fill="none" stroke="#fff" stroke-miterlimit="10" stroke-width="0.645"/>
                        <path id="Trazado_51" data-name="Trazado 51" d="M1067.164,126.132c-33.463,29.8-67.161,59.809-100.359,89.4" transform="translate(-966.761 -126.122)" fill="none" stroke="#fff" stroke-miterlimit="10" stroke-width="0.645"/>
                        <path id="Trazado_52" data-name="Trazado 52" d="M1077.743,126.279q-54.7,48.728-110.888,98.746" transform="translate(-966.727 -126.048)" fill="none" stroke="#fff" stroke-miterlimit="10" stroke-width="0.645"/>
                        <path id="Trazado_53" data-name="Trazado 53" d="M1090.7,126.219c-40.779,35.48-82.086,71.3-123.773,108.185" transform="translate(-966.675 -126.078)" fill="none" stroke="#fff" stroke-miterlimit="10" stroke-width="0.645"/>
                        <path id="Trazado_54" data-name="Trazado 54" d="M1099.306,126.308c-42.78,39.219-85.176,76.009-128.658,115.7-1.086.968-3.26.968-3.836,2.3" transform="translate(-966.756 -126.033)" fill="none" stroke="#fff" stroke-miterlimit="10" stroke-width="0.645"/>
                        <path id="Trazado_55" data-name="Trazado 55" d="M1110.98,126.192c-26.334,24.869-54.6,47.138-82.862,72.311-20.654,19.363-41.308,35.822-61.1,55.149" transform="translate(-966.614 -126.091)" fill="none" stroke="#fff" stroke-miterlimit="10" stroke-width="0.645"/>
                        <path id="Trazado_56" data-name="Trazado 56" d="M1118.379,127.477c-49.976,45.21-102.155,88.777-151.45,135.2" transform="translate(-966.676 -125.448)" fill="none" stroke="#fff" stroke-miterlimit="10" stroke-width="0.645"/>
                        <path id="Trazado_57" data-name="Trazado 57" d="M1118.2,133.866c-49.871,44.333-100.963,89.837-151.164,134.8" transform="translate(-966.602 -122.247)" fill="none" stroke="#fff" stroke-miterlimit="10" stroke-width="0.645"/>
                        <path id="Trazado_58" data-name="Trazado 58" d="M1123.667,137.333c-52.089,46.874-105.354,92.378-156.611,139.335" transform="translate(-966.588 -120.509)" fill="none" stroke="#fff" stroke-miterlimit="10" stroke-width="0.645"/>
                        <path id="Trazado_59" data-name="Trazado 59" d="M1134.682,137.3c-56.393,49.825-110.746,101.138-167.9,149.41" transform="translate(-966.779 -120.525)" fill="none" stroke="#fff" stroke-miterlimit="10" stroke-width="0.645"/>
                        <path id="Trazado_60" data-name="Trazado 60" d="M1142.295,137.533,970.309,290.7" transform="translate(-964.36 -120.409)" fill="none" stroke="#fff" stroke-miterlimit="10" stroke-width="0.645"/>
                        <path id="Trazado_61" data-name="Trazado 61" d="M1148.522,137.537c-57.418,50.438-113.945,101.754-171.89,153.251" transform="translate(-960.026 -120.407)" fill="none" stroke="#fff" stroke-miterlimit="10" stroke-width="0.645"/>
                        <path id="Trazado_62" data-name="Trazado 62" d="M1149.858,140.433c-55.495,49-109.846,99.343-166.88,148.949" transform="translate(-955.677 -118.956)" fill="none" stroke="#fff" stroke-miterlimit="10" stroke-width="0.645"/>
                        <path id="Trazado_63" data-name="Trazado 63" d="M1145.816,146.52c-52.561,46.639-102.565,95.048-156.46,139.8" transform="translate(-951.306 -115.906)" fill="none" stroke="#fff" stroke-miterlimit="10" stroke-width="0.645"/>
                        <path id="Trazado_64" data-name="Trazado 64" d="M1141.03,153.5c-48.9,42.943-96.734,86.51-145.267,129.276" transform="translate(-946.915 -112.411)" fill="none" stroke="#fff" stroke-miterlimit="10" stroke-width="0.645"/>
                        <path id="Trazado_65" data-name="Trazado 65" d="M1136.937,159.4c-44.869,39.887-89.44,80.55-134.747,120.333" transform="translate(-942.51 -109.452)" fill="none" stroke="#fff" stroke-miterlimit="10" stroke-width="0.645"/>
                        <path id="Trazado_66" data-name="Trazado 66" d="M1132.5,165.906Q1070.267,221.26,1008.486,276.6" transform="translate(-938.195 -106.194)" fill="none" stroke="#fff" stroke-miterlimit="10" stroke-width="0.645"/>
                        <path id="Trazado_67" data-name="Trazado 67" d="M1128.194,172.282c-37.266,34.11-75.314,68-113.238,100.976" transform="translate(-933.761 -102.999)" fill="none" stroke="#fff" stroke-miterlimit="10" stroke-width="0.645"/>
                        <path id="Trazado_68" data-name="Trazado 68" d="M1123.721,178.785c-33.881,30.157-68.656,61.139-102.434,91.281" transform="translate(-929.422 -99.74)" fill="none" stroke="#fff" stroke-miterlimit="10" stroke-width="0.645"/>
                        <path id="Trazado_69" data-name="Trazado 69" d="M1119.087,185.391q-45.487,40.53-91.457,81.411" transform="translate(-925.075 -96.431)" fill="none" stroke="#fff" stroke-miterlimit="10" stroke-width="0.645"/>
                        <path id="Trazado_70" data-name="Trazado 70" d="M1115.066,191.366q-31.651,28.07-63.133,56.287-8.987,8.079-17.949,16.183" transform="translate(-920.72 -93.437)" fill="none" stroke="#fff" stroke-miterlimit="10" stroke-width="0.645"/>
                        <path id="Trazado_71" data-name="Trazado 71" d="M1110.625,198.511c-22.968,20.879-46.882,42.179-70.278,61.762" transform="translate(-916.36 -89.857)" fill="none" stroke="#fff" stroke-miterlimit="10" stroke-width="0.645"/>
                      </g>
                    </g>
                  </g>
                </g>
                <ellipse id="Elipse_3" data-name="Elipse 3" cx="4.383" cy="3.903" rx="4.383" ry="3.903" transform="translate(902.828 287.167)" fill="none" stroke="#fff" stroke-miterlimit="10" stroke-width="0.645"/>
                <path id="Trazado_72" data-name="Trazado 72" d="M694.358,443.208a4.412,4.412,0,1,1-4.383-3.9,4.164,4.164,0,0,1,4.383,3.9Z" transform="translate(-114.682 10.39)" fill="none" stroke="#8f9294" stroke-miterlimit="10" stroke-width="0.985"/>
              </g>
            </g>
          </g>
        </g>
      </g>
    </g>
  </g>
</svg>
