<svg xmlns="http://www.w3.org/2000/svg" xmlns:xlink="http://www.w3.org/1999/xlink" width="536" height="344" viewBox="0 0 536 344">
  <defs>
    <filter id="Rectángulo_300539" x="0" y="0" width="536" height="344" filterUnits="userSpaceOnUse">
      <feOffset dy="3" input="SourceAlpha"/>
      <feGaussianBlur stdDeviation="3" result="blur"/>
      <feFlood flood-opacity="0.161"/>
      <feComposite operator="in" in2="blur"/>
      <feComposite in="SourceGraphic"/>
    </filter>
  </defs>
  <g id="Grupo_897736" data-name="Grupo 897736" transform="translate(6749 7626)">
    <g id="Grupo_894057" data-name="Grupo 894057" transform="translate(-7004.666 -10198)">
      <g transform="matrix(1, 0, 0, 1, 255.67, 2572)" filter="url(#Rectángulo_300539)">
        <rect id="Rectángulo_300539-2" data-name="Rectángulo 300539" width="518" height="326" rx="20" transform="translate(9 6)" fill="#fff"/>
      </g>
    </g>
    <g id="Grupo_894465" data-name="Grupo 894465" transform="translate(-136 -23.596)">
      <g id="Grupo_894468" data-name="Grupo 894468" transform="translate(-6383.085 -7516.236)">
        <line id="Línea_144" data-name="Línea 144" y1="0.331" x2="11.533" transform="translate(0 113.999)" fill="none" stroke="#12263f" stroke-width="3"/>
        <line id="Línea_145" data-name="Línea 145" x1="9.144" y2="0.116" transform="translate(8.533 1.884)" fill="none" stroke="#12263f" stroke-width="3"/>
        <line id="Línea_146" data-name="Línea 146" y1="113" transform="translate(10.033 1.499)" fill="none" stroke="#12263f" stroke-width="3"/>
        <path id="Polígono_5" data-name="Polígono 5" d="M3,0,6,6H0Z" transform="matrix(-0.017, 1, -1, -0.017, 23.085, -1.063)" fill="#12263f"/>
      </g>
      <g id="Grupo_894469" data-name="Grupo 894469" transform="translate(-6491.085 -7516.236)">
        <line id="Línea_144-2" data-name="Línea 144" y1="0.331" x2="11.533" transform="translate(0 113.999)" fill="none" stroke="#12263f" stroke-width="3"/>
        <line id="Línea_145-2" data-name="Línea 145" x1="9.144" y2="0.116" transform="translate(8.533 1.884)" fill="none" stroke="#12263f" stroke-width="3"/>
        <line id="Línea_146-2" data-name="Línea 146" y1="113" transform="translate(10.033 1.499)" fill="none" stroke="#12263f" stroke-width="3"/>
        <path id="Polígono_5-2" data-name="Polígono 5" d="M3,0,6,6H0Z" transform="matrix(-0.017, 1, -1, -0.017, 23.085, -1.063)" fill="#12263f"/>
      </g>
      <g id="Grupo_894464" data-name="Grupo 894464" transform="translate(-6574 -7527.373)">
        <rect id="Rectángulo_301191" data-name="Rectángulo 301191" width="87" height="31" rx="10" transform="translate(0 -0.031)" fill="#fecb2f"/>
        <text id="Análisis" transform="translate(9 7.969)" fill="#12263f" font-size="11" font-family="Roboto-Bold, Roboto" font-weight="700"><tspan x="15.369" y="12">Análisis</tspan></text>
        <rect id="Rectángulo_301192" data-name="Rectángulo 301192" width="87" height="30" rx="10" transform="translate(0 35.969)" fill="#21cbae" opacity="0.87"/>
        <text id="Diseño" transform="translate(9 46.969)" fill="#12263f" font-size="11" font-family="Roboto-Bold, Roboto" font-weight="700"><tspan x="17.976" y="12">Diseño</tspan></text>
        <rect id="Rectángulo_301193" data-name="Rectángulo 301193" width="87" height="30" rx="10" transform="translate(0 72.969)" fill="#ef3c79"/>
        <text id="Programación" transform="translate(9 80.969)" fill="#12263f" font-size="11" font-family="Roboto-Bold, Roboto" font-weight="700"><tspan x="0.193" y="12">Programación</tspan></text>
        <rect id="Rectángulo_301194" data-name="Rectángulo 301194" width="87" height="31" rx="10" transform="translate(0 107.969)" fill="#0b5999"/>
        <text id="Pruebas" transform="translate(9 115.969)" fill="#12263f" font-size="11" font-family="Roboto-Bold, Roboto" font-weight="700"><tspan x="14.523" y="12">Pruebas</tspan></text>
      </g>
      <text id="Iteración_1" data-name="Iteración 1" transform="translate(-6565 -7378.404)" fill="#12263f" font-size="12" font-family="Roboto-Bold, Roboto" font-weight="700"><tspan x="6.254" y="13">Iteración 1</tspan></text>
      <text id="Iteración_2" data-name="Iteración 2" transform="translate(-6458 -7378.404)" fill="#12263f" font-size="12" font-family="Roboto-Bold, Roboto" font-weight="700"><tspan x="6.254" y="13">Iteración 2</tspan></text>
      <text id="Iteración_3" data-name="Iteración 3" transform="translate(-6351 -7378.404)" fill="#12263f" font-size="12" font-family="Roboto-Bold, Roboto" font-weight="700"><tspan x="6.254" y="13">Iteración 3</tspan></text>
      <text id="_Continúa_" data-name="(Continúa)" transform="translate(-6270 -7378.404)" fill="#12263f" font-size="12" font-family="Roboto-Bold, Roboto" font-weight="700"><tspan x="6.547" y="13">(Continúa)</tspan></text>
      <text id="Iteración_n" data-name="Iteración n" transform="translate(-6186 -7378.404)" fill="#12263f" font-size="12" font-family="Roboto-Bold, Roboto" font-weight="700"><tspan x="6.336" y="13">Iteración n</tspan></text>
      <g id="Grupo_894463" data-name="Grupo 894463" transform="translate(-6467.109 -7527.373)">
        <rect id="Rectángulo_301195" data-name="Rectángulo 301195" width="88" height="31" rx="10" transform="translate(0.109 -0.031)" fill="#fecb2f"/>
        <text id="Análisis-2" data-name="Análisis" transform="translate(7.109 7.969)" fill="#12263f" font-size="11" font-family="Roboto-Bold, Roboto" font-weight="700"><tspan x="15.369" y="12">Análisis</tspan></text>
        <rect id="Rectángulo_301196" data-name="Rectángulo 301196" width="88" height="30" rx="10" transform="translate(0.109 35.969)" fill="#21cbae" opacity="0.87"/>
        <text id="Diseño-2" data-name="Diseño" transform="translate(7.109 46.969)" fill="#12263f" font-size="11" font-family="Roboto-Bold, Roboto" font-weight="700"><tspan x="17.976" y="12">Diseño</tspan></text>
        <rect id="Rectángulo_301197" data-name="Rectángulo 301197" width="88" height="30" rx="10" transform="translate(0.109 72.969)" fill="#ef3c79"/>
        <text id="Programación-2" data-name="Programación" transform="translate(7.109 80.969)" fill="#12263f" font-size="11" font-family="Roboto-Bold, Roboto" font-weight="700"><tspan x="0.193" y="12">Programación</tspan></text>
        <rect id="Rectángulo_301198" data-name="Rectángulo 301198" width="88" height="31" rx="10" transform="translate(0.109 107.969)" fill="#0b5999"/>
        <text id="Pruebas-2" data-name="Pruebas" transform="translate(7.109 115.969)" fill="#12263f" font-size="11" font-family="Roboto-Bold, Roboto" font-weight="700"><tspan x="14.523" y="12">Pruebas</tspan></text>
      </g>
      <g id="Grupo_894462" data-name="Grupo 894462" transform="translate(-6360.218 -7527.373)">
        <rect id="Rectángulo_301199" data-name="Rectángulo 301199" width="88" height="31" rx="10" transform="translate(0.218 -0.031)" fill="#fecb2f"/>
        <text id="Análisis-3" data-name="Análisis" transform="translate(8.218 7.969)" fill="#12263f" font-size="11" font-family="Roboto-Bold, Roboto" font-weight="700"><tspan x="15.369" y="12">Análisis</tspan></text>
        <rect id="Rectángulo_301200" data-name="Rectángulo 301200" width="88" height="30" rx="10" transform="translate(0.218 35.969)" fill="#21cbae" opacity="0.87"/>
        <text id="Diseño-3" data-name="Diseño" transform="translate(8.218 46.969)" fill="#12263f" font-size="11" font-family="Roboto-Bold, Roboto" font-weight="700"><tspan x="17.976" y="12">Diseño</tspan></text>
        <rect id="Rectángulo_301201" data-name="Rectángulo 301201" width="88" height="30" rx="10" transform="translate(0.218 72.969)" fill="#ef3c79"/>
        <text id="Programación-3" data-name="Programación" transform="translate(8.218 80.969)" fill="#12263f" font-size="11" font-family="Roboto-Bold, Roboto" font-weight="700"><tspan x="0.193" y="12">Programación</tspan></text>
        <rect id="Rectángulo_301202" data-name="Rectángulo 301202" width="88" height="31" rx="10" transform="translate(0.218 107.969)" fill="#0b5999"/>
        <text id="Pruebas-3" data-name="Pruebas" transform="translate(8.218 115.969)" fill="#12263f" font-size="11" font-family="Roboto-Bold, Roboto" font-weight="700"><tspan x="14.523" y="12">Pruebas</tspan></text>
      </g>
      <g id="Grupo_894461" data-name="Grupo 894461" transform="translate(-6194.173 -7527.373)">
        <rect id="Rectángulo_301203" data-name="Rectángulo 301203" width="87" height="31" rx="10" transform="translate(0.173 -0.031)" fill="#fecb2f"/>
        <text id="Análisis-4" data-name="Análisis" transform="translate(5.173 7.969)" fill="#12263f" font-size="11" font-family="Roboto-Bold, Roboto" font-weight="700"><tspan x="15.369" y="12">Análisis</tspan></text>
        <rect id="Rectángulo_301204" data-name="Rectángulo 301204" width="87" height="30" rx="10" transform="translate(0.173 35.969)" fill="#21cbae" opacity="0.87"/>
        <text id="Diseño-4" data-name="Diseño" transform="translate(5.173 46.969)" fill="#12263f" font-size="11" font-family="Roboto-Bold, Roboto" font-weight="700"><tspan x="17.976" y="12">Diseño</tspan></text>
        <rect id="Rectángulo_301205" data-name="Rectángulo 301205" width="87" height="30" rx="10" transform="translate(0.173 72.969)" fill="#ef3c79"/>
        <text id="Programación-4" data-name="Programación" transform="translate(5.173 80.969)" fill="#12263f" font-size="11" font-family="Roboto-Bold, Roboto" font-weight="700"><tspan x="0.193" y="12">Programación</tspan></text>
        <rect id="Rectángulo_301206" data-name="Rectángulo 301206" width="87" height="31" rx="10" transform="translate(0.173 107.969)" fill="#0b5999"/>
        <text id="Pruebas-4" data-name="Pruebas" transform="translate(5.173 115.969)" fill="#12263f" font-size="11" font-family="Roboto-Bold, Roboto" font-weight="700"><tspan x="14.523" y="12">Pruebas</tspan></text>
      </g>
      <g id="Grupo_894458" data-name="Grupo 894458" transform="translate(-6272.033 -7516.236)">
        <line id="Línea_144-3" data-name="Línea 144" y1="0.331" x2="11.533" transform="translate(0 113.999)" fill="none" stroke="#12263f" stroke-width="3"/>
        <line id="Línea_145-3" data-name="Línea 145" x1="9.144" y2="0.116" transform="translate(8.533 1.884)" fill="none" stroke="#12263f" stroke-width="3"/>
        <line id="Línea_146-3" data-name="Línea 146" y1="113" transform="translate(10.033 1.499)" fill="none" stroke="#12263f" stroke-width="3"/>
        <path id="Polígono_5-3" data-name="Polígono 5" d="M3,0,6,6H0Z" transform="matrix(-0.017, 1, -1, -0.017, 23.085, -1.063)" fill="#12263f"/>
      </g>
      <g id="Grupo_894467" data-name="Grupo 894467" transform="translate(-6217.085 -7517.236)">
        <line id="Línea_144-4" data-name="Línea 144" y1="0.331" x2="11.533" transform="translate(0 114.833)" fill="none" stroke="#12263f" stroke-width="3"/>
        <line id="Línea_145-4" data-name="Línea 145" x1="9.144" y2="0.116" transform="translate(8.533 1.884)" fill="none" stroke="#12263f" stroke-width="3"/>
        <line id="Línea_146-4" data-name="Línea 146" y1="113.833" transform="translate(10.033 1.5)" fill="none" stroke="#12263f" stroke-width="3"/>
        <path id="Polígono_5-4" data-name="Polígono 5" d="M3,0,6,6H0Z" transform="matrix(-0.017, 1, -1, -0.017, 23.085, -1.063)" fill="#12263f"/>
      </g>
      <g id="Grupo_894466" data-name="Grupo 894466" transform="translate(6)">
        <circle id="Elipse_6233" data-name="Elipse 6233" cx="2.5" cy="2.5" r="2.5" transform="translate(-6251 -7462.404)" fill="#12263f"/>
        <circle id="Elipse_6234" data-name="Elipse 6234" cx="2.5" cy="2.5" r="2.5" transform="translate(-6243 -7462.404)" fill="#12263f"/>
        <circle id="Elipse_6235" data-name="Elipse 6235" cx="2.5" cy="2.5" r="2.5" transform="translate(-6236 -7462.404)" fill="#12263f"/>
      </g>
    </g>
  </g>
</svg>
