<svg xmlns="http://www.w3.org/2000/svg" xmlns:xlink="http://www.w3.org/1999/xlink" width="536" height="344" viewBox="0 0 536 344">
  <defs>
    <filter id="Rectángulo_300539" x="0" y="0" width="536" height="344" filterUnits="userSpaceOnUse">
      <feOffset dy="3" input="SourceAlpha"/>
      <feGaussianBlur stdDeviation="3" result="blur"/>
      <feFlood flood-opacity="0.161"/>
      <feComposite operator="in" in2="blur"/>
      <feComposite in="SourceGraphic"/>
    </filter>
  </defs>
  <g id="Grupo_897746" data-name="Grupo 897746" transform="translate(-214 -7210.413)">
    <g id="Grupo_894079" data-name="Grupo 894079" transform="translate(-41.666 4638.413)">
      <g transform="matrix(1, 0, 0, 1, 255.67, 2572)" filter="url(#Rectángulo_300539)">
        <rect id="Rectángulo_300539-2" data-name="Rectángulo 300539" width="518" height="326" rx="20" transform="translate(9 6)" fill="#fff"/>
      </g>
    </g>
    <g id="Grupo_894673" data-name="Grupo 894673" transform="translate(2683.517 7148.213)">
      <path id="Trazado_623159" data-name="Trazado 623159" d="M-1099.211,279.689a9.854,9.854,0,0,0-9.854-9.854,9.839,9.839,0,0,0-7.916,3.985,13.314,13.314,0,0,0-5.549-6.83,16.787,16.787,0,0,0,.135-2.135,16.675,16.675,0,0,0-16.675-16.675,16.678,16.678,0,0,0-16.557,14.685,15.043,15.043,0,0,0-6.554-1.493,15.1,15.1,0,0,0-14.867,12.444,9.845,9.845,0,0,0-3.07-.488,9.854,9.854,0,0,0-9.854,9.854c0,2.4.062,6.4,2.288,6.312,25.521-.987,50.984-.592,83.74,0C-1100.295,289.559-1099.211,283.255-1099.211,279.689Z" transform="translate(-934.524 -108.274)" fill="#dee4f0" opacity="0.67"/>
      <path id="Trazado_623160" data-name="Trazado 623160" d="M-2298.757,373.188a9.854,9.854,0,0,0-9.854-9.854,9.84,9.84,0,0,0-7.916,3.985,13.312,13.312,0,0,0-5.549-6.829,16.839,16.839,0,0,0,.136-2.135,16.675,16.675,0,0,0-16.676-16.675,16.677,16.677,0,0,0-16.556,14.685,15.041,15.041,0,0,0-6.555-1.493,15.1,15.1,0,0,0-14.867,12.444,9.84,9.84,0,0,0-3.071-.488,9.854,9.854,0,0,0-9.854,9.854c0,2.4.062,6.4,2.288,6.312,25.521-.987,50.984-.592,83.74,0C-2299.841,383.058-2298.757,376.754-2298.757,373.188Z" transform="translate(0 -181.116)" fill="#dee4f0" opacity="0.67"/>
      <path id="Trazado_623161" data-name="Trazado 623161" d="M-1719.385,128.869c-3.979-2.211-10.758-.749-14.222-3.227-2.759-1.974-.972-5.228-2.568-7.431-1.5-2.07-4.342-2.453-6.341-3.489-6.566-3.4-7.288-2.26-13.4.5-1.742.786-4.988,1.6-6.736,1.157-3.007-.766-2.639-3.436-4.044-4.878-3.658-3.757-9.489-2.594-12.593,1.211-2.458,3.013-3.628,8.244-6.261,10.949-4.629,4.755-7.027-.065-11.723-1.5-3.288-1.006-10.618.1-12.66,2.488-2.682,3.135-2.858,11.061.554,13.709,3.3,2.564,10.664,1.354,15.8,2.105,4.859.71,9.869.526,14.854.526h29.856c9.2,0,20.827,2.055,28.589-2.514C-1715.971,135.934-1713.281,132.261-1719.385,128.869Z" transform="translate(-449.964 0)" fill="#dee4f0" opacity="0.67"/>
      <g id="Grupo_894657" data-name="Grupo 894657" transform="translate(-2372.844 147.994)">
        <path id="Trazado_623162" data-name="Trazado 623162" d="M-2263.546,304.9q1.065,1.016,2.092,2.043.388.387.77.776c9.234,9.392,16.032,19.277,19.531,27.747q.271.657.515,1.3h0c2.906,7.663,2.976,14.043-.467,17.651-.042.044-.085.088-.128.13a8.26,8.26,0,0,1-.811.715c-4.016,3.106-10.962,2.735-19.216-.467q-.772-.3-1.559-.633c-8.89-3.755-19.126-10.629-28.795-19.857q-1.134-1.083-2.193-2.209h0q-.451-.479-.889-.966h0c-8.178-9.08-12.95-19.932-15.709-28.85q-.169-.547-.328-1.084a91.9,91.9,0,0,1-3.232-15.5c-.064-.589-.088-.9-.088-.9s.246.008.709.034a93.662,93.662,0,0,1,20.414,3.768q.492.148.99.3C-2282.735,291.771-2272.2,296.645-2263.546,304.9Z" transform="translate(2314.054 -284.791)" fill="#21cbae"/>
        <path id="Trazado_623163" data-name="Trazado 623163" d="M-2260.685,307.723l-10.865,22.015a276.093,276.093,0,0,0,23.46,19.936l6.936-14.2q.271.657.515,1.3h0l-6.607,13.53q3.005,2.219,6.012,4.25a8.26,8.26,0,0,1-.811.715q-2.925-1.974-5.965-4.221l-13.251,3.753q-.772-.3-1.559-.633l13.765-3.9q-4.159-3.116-8.519-6.729-7.147-5.921-14.8-13.137l-21.436,1.7h0q-.451-.479-.889-.966l21.315-1.688q-7.492-7.118-15.364-15.376c-3.336-3.5-6.514-6.939-9.484-10.224l-12.177-1.562q-.169-.547-.328-1.084l11.443,1.467c-5.9-6.564-10.928-12.464-14.675-16.97-.064-.589-.088-.9-.088-.9s.246.008.709.034c3.833,4.613,9.045,10.735,15.187,17.554l5.227-13.786q.492.148.99.3l-5.439,14.344c2.942,3.254,6.089,6.657,9.391,10.121,4.706,4.939,10,10.285,15.653,15.634l10.882-22.048Q-2261.066,307.335-2260.685,307.723Z" transform="translate(2314.054 -284.791)" style="mix-blend-mode: overlay;isolation: isolate"/>
      </g>
      <g id="Grupo_894658" data-name="Grupo 894658" transform="translate(-2389.517 203.382)">
        <path id="Trazado_623164" data-name="Trazado 623164" d="M-2335.588,537.486q1.424.373,2.819.774.528.151,1.05.306c12.627,3.744,23.363,9.1,30.527,14.814q.554.443,1.08.888h0c6.255,5.3,9.406,10.844,8.141,15.668-.015.059-.031.118-.048.175a8.312,8.312,0,0,1-.363,1.018c-2.009,4.663-8.266,7.7-17.037,8.9q-.821.112-1.671.2c-9.6,1.021-21.881-.034-34.81-3.424q-1.516-.4-2.989-.87h0q-.627-.2-1.246-.415h0c-11.553-3.982-20.985-11.164-27.718-17.63q-.413-.4-.812-.789a91.856,91.856,0,0,1-10.337-12c-.342-.484-.516-.749-.516-.749s.219-.113.637-.313a93.689,93.689,0,0,1,19.684-6.592q.5-.109,1.013-.214C-2358.737,535.292-2347.157,534.452-2335.588,537.486Z" transform="translate(2389.517 -535.488)" fill="#fecb2f"/>
        <path id="Trazado_623165" data-name="Trazado 623165" d="M-2331.719,544.734l1.159,24.523a276.071,276.071,0,0,0,30.181,6.077l-.813-15.786q.554.443,1.08.888h0l.774,15.037q3.7.486,7.319.806a8.317,8.317,0,0,1-.363,1.018q-3.515-.31-7.262-.8l-9.774,9.7q-.821.112-1.671.2l10.154-10.079q-5.148-.711-10.712-1.76c-6.081-1.146-12.532-2.591-19.31-4.325l-17.93,11.869h0q-.627-.2-1.246-.415l17.83-11.8q-10-2.6-20.889-6.01c-4.615-1.447-9.06-2.915-13.25-4.351l-11.409,4.533q-.413-.4-.812-.789l10.722-4.259c-8.342-2.884-15.6-5.611-21.058-7.738-.342-.484-.516-.749-.516-.749s.219-.113.637-.313c5.587,2.179,13.113,5.01,21.789,8l-2.1-14.593q.5-.109,1.013-.214l2.19,15.183c4.15,1.422,8.551,2.874,13.118,4.306,6.51,2.041,13.732,4.153,21.268,6.095l-1.161-24.561Q-2332.241,544.579-2331.719,544.734Z" transform="translate(2389.517 -541.656)" style="mix-blend-mode: overlay;isolation: isolate"/>
      </g>
      <g id="Grupo_894659" data-name="Grupo 894659" transform="translate(-2111.132 202.673)">
        <path id="Trazado_623166" data-name="Trazado 623166" d="M-1075.263,573.611q-1.423.377-2.835.715-.533.129-1.064.251c-12.833,2.963-24.814,3.592-33.864,2.147q-.7-.112-1.378-.241h0c-8.052-1.527-13.528-4.8-14.8-9.624q-.024-.088-.045-.177a8.357,8.357,0,0,1-.185-1.065c-.549-5.047,3.4-10.775,10.443-16.137q.66-.5,1.354-1c7.848-5.615,19.059-10.75,31.98-14.168q1.516-.4,3.03-.715h0q.645-.134,1.289-.253h0c12.016-2.226,23.762-.622,32.807,1.688q.554.142,1.1.287a91.847,91.847,0,0,1,14.905,5.348c.536.253.818.4.818.4s-.135.206-.4.586A93.672,93.672,0,0,1-1046,557.085q-.383.342-.776.685C-1054.037,564.117-1063.7,570.552-1075.263,573.611Z" transform="translate(1129.488 -532.28)" fill="#21cbae"/>
        <path id="Trazado_623167" data-name="Trazado 623167" d="M-1078.984,578.333l-13.089-20.769a276.074,276.074,0,0,0-29.259,9.579l8.484,13.337q-.7-.112-1.378-.241h0l-8.081-12.7q-3.463,1.4-6.766,2.9a8.38,8.38,0,0,1-.185-1.065q3.211-1.462,6.716-2.879l3.727-13.258q.66-.5,1.354-1l-3.871,13.773q4.83-1.917,10.189-3.745c5.856-2,12.182-3.919,18.935-5.749l9.757-19.162h0q.645-.134,1.289-.253l-9.7,19.054q9.984-2.667,21.139-5.06c4.729-1.014,9.32-1.927,13.674-2.741l7.7-9.565q.554.142,1.1.287l-7.232,8.988c8.68-1.6,16.338-2.8,22.137-3.64.536.253.818.4.818.4s-.135.206-.4.586c-5.936.856-13.88,2.1-22.9,3.771l9.02,11.662q-.383.342-.776.685l-9.385-12.135c-4.312.808-8.857,1.711-13.537,2.716-6.67,1.431-14,3.151-21.51,5.173l13.109,20.8Q-1078.453,578.212-1078.984,578.333Z" transform="translate(1129.31 -536.037)" style="mix-blend-mode: overlay;isolation: isolate"/>
      </g>
      <g id="Grupo_894660" data-name="Grupo 894660" transform="translate(-2134.854 163.659)">
        <path id="Trazado_623168" data-name="Trazado 623168" d="M-1183.761,405.257q-1.063,1.019-2.134,2-.4.371-.81.735c-9.792,8.809-19.968,15.162-28.586,18.282q-.667.241-1.322.456h0c-7.784,2.564-14.161,2.351-17.613-1.249-.042-.044-.084-.088-.124-.133a8.388,8.388,0,0,1-.678-.842c-2.924-4.15-2.246-11.073,1.319-19.176q.334-.759.7-1.53c4.146-8.714,11.466-18.636,21.115-27.886q1.131-1.085,2.3-2.093h0q.5-.429,1.005-.846h0c9.433-7.768,20.486-12.054,29.518-14.415q.554-.144,1.1-.279a91.767,91.767,0,0,1,15.63-2.541c.591-.038.907-.048.907-.048s-.018.246-.066.707a93.689,93.689,0,0,1-4.669,20.226q-.17.485-.347.976C-1169.791,386.67-1175.128,396.98-1183.761,405.257Z" transform="translate(1236.859 -355.691)" fill="#fecb2f"/>
        <path id="Trazado_623169" data-name="Trazado 623169" d="M-1180.247,407.991l-21.512-11.83a276.089,276.089,0,0,0-20.956,22.553l13.882,7.559q-.668.241-1.322.456h0l-13.224-7.2q-2.351,2.9-4.513,5.818a8.371,8.371,0,0,1-.678-.842q2.1-2.834,4.481-5.771l-3.162-13.4q.334-.759.7-1.53l3.285,13.925q3.3-4.016,7.1-8.213,6.232-6.877,13.78-14.2l-.746-21.49h0q.5-.429,1.005-.846l.742,21.369q7.443-7.169,16.042-14.667c3.646-3.178,7.221-6.2,10.635-9.022l2.1-12.1q.554-.144,1.1-.279l-1.973,11.366c6.819-5.6,12.936-10.365,17.6-13.908.591-.038.907-.048.907-.048s-.018.246-.066.707c-4.778,3.624-11.125,8.56-18.21,14.393l13.541,5.833q-.17.485-.347.976l-14.089-6.07c-3.381,2.8-6.92,5.788-10.528,8.933-5.142,4.483-10.717,9.536-16.312,14.945l21.545,11.848Q-1179.842,407.627-1180.247,407.991Z" transform="translate(1230.401 -355.691)" style="mix-blend-mode: overlay;isolation: isolate"/>
      </g>
      <path id="Trazado_623170" data-name="Trazado 623170" d="M-2282.169,670.921c-9.632-3.443-30.325-18.82-20.743-35.268s24.092-16.786,33.021-25.546,6.325-20.294-2.232-28.851-6.206-18.934,7.8-22.117,116.841-20.3,135.072-21.413,114.584,3.548,132.08,9.3c36.834,12.112,44.647,32.653,30.881,37.534s-22.88,20.091-11.534,25.547c19.347,9.3,35.381,36.468,16.016,48.269s-66.243,28.544-152.561,28.544C-2160.879,686.919-2242.488,685.1-2282.169,670.921Z" transform="translate(-65.544 -333.719)" fill="#d2e1f1"/>
      <g id="Grupo_894664" data-name="Grupo 894664" transform="translate(-2320.178 156.183)">
        <g id="Grupo_894663" data-name="Grupo 894663" transform="translate(0)">
          <path id="Trazado_623171" data-name="Trazado 623171" d="M-1702.5,741.647l-2.374,51.093h31.839l-2.5-51.093Z" transform="translate(1786.799 -648.9)" fill="#013b6a"/>
          <g id="Grupo_894662" data-name="Grupo 894662">
            <path id="Rectángulo_301351" data-name="Rectángulo 301351" d="M42.076,0H153.6a42.08,42.08,0,0,1,42.08,42.08V63.289a42.08,42.08,0,0,1-42.08,42.08H42.076A42.076,42.076,0,0,1,0,63.293V42.076A42.076,42.076,0,0,1,42.076,0Z" fill="#0b5999"/>
            <rect id="Rectángulo_301352" data-name="Rectángulo 301352" width="182.402" height="92.087" transform="translate(6.641 6.641)" fill="#21cbae"/>
            <g id="Grupo_894661" data-name="Grupo 894661" transform="translate(10.201 8.286)">
              <rect id="Rectángulo_301353" data-name="Rectángulo 301353" width="34.214" height="14.23" fill="#e8e8e8"/>
              <rect id="Rectángulo_301354" data-name="Rectángulo 301354" width="82.835" height="14.23" transform="translate(40.967)" fill="#eafff3"/>
              <rect id="Rectángulo_301355" data-name="Rectángulo 301355" width="45.019" height="14.23" transform="translate(130.105)" fill="#e8e8e8"/>
              <rect id="Rectángulo_301356" data-name="Rectángulo 301356" width="34.214" height="20.709" transform="translate(0 64.377)" fill="#d2e1f1"/>
              <rect id="Rectángulo_301357" data-name="Rectángulo 301357" width="40.115" height="20.709" transform="translate(39.166 64.377)" fill="#d2e1f1"/>
              <rect id="Rectángulo_301358" data-name="Rectángulo 301358" width="36.943" height="20.709" transform="translate(84.234 64.377)" fill="#acd9ea"/>
              <rect id="Rectángulo_301359" data-name="Rectángulo 301359" width="48.058" height="20.709" transform="translate(125.603 64.377)" fill="#acd9ea"/>
              <rect id="Rectángulo_301360" data-name="Rectángulo 301360" width="59.224" height="37.478" transform="translate(0 20.146)" fill="#e8e8e8"/>
              <rect id="Rectángulo_301361" data-name="Rectángulo 301361" width="112.097" height="37.478" transform="translate(63.027 20.146)" fill="#18898d"/>
            </g>
            <path id="Trazado_623172" data-name="Trazado 623172" d="M-1863.216,444V351.91L-2045.618,444Z" transform="translate(2052.259 -345.269)" opacity="0.2" style="mix-blend-mode: overlay;isolation: isolate"/>
          </g>
          <path id="Trazado_623173" data-name="Trazado 623173" d="M-1727.256,952.191h-59.863a5.338,5.338,0,0,0-5.338,5.339v.382a5.34,5.34,0,0,0,5.338,5.339h59.863a5.338,5.338,0,0,0,5.338-5.339v-.382A5.337,5.337,0,0,0-1727.256,952.191Z" transform="translate(1855.03 -812.927)" fill="#0b5999"/>
        </g>
      </g>
      <g id="Grupo_894665" data-name="Grupo 894665" transform="translate(-2313.604 245.432)">
        <path id="Trazado_623174" data-name="Trazado 623174" d="M-1995.4,1107.87c-.807.538-2.029,2.772-1.492,3.579.476.714,1.582.61,2.716.757,1.427.185,1.774.312,2.046-.734.166-.638-.684-.281-1.293-.533-1.119-.463.032-2.778-.582-3.018C-1994.558,1107.7-1994.9,1107.539-1995.4,1107.87Z" transform="translate(2007.824 -1023.315)" fill="#f7b691"/>
        <path id="Trazado_623175" data-name="Trazado 623175" d="M-1997.9,1112.87a3.419,3.419,0,0,0,.5.6.917.917,0,0,0,.851.068,2.347,2.347,0,0,0,.589-.231,3.832,3.832,0,0,0,.74-.591c.113-.124.415-.6.415-.6a13.347,13.347,0,0,0,1.211,1.712c.366.366,1.693-.012,1.777.286a5.775,5.775,0,0,1,.056,1.154c0,.11-.035.443-.035.443l-3.352.961a3.7,3.7,0,0,1-.528-.285,5.012,5.012,0,0,0-.816-.51l-.045.685-1.866-.149a4.045,4.045,0,0,0,.049-.87,4.89,4.89,0,0,1-.079-1.156,4.964,4.964,0,0,1,.267-.943C-1998.1,1113.288-1997.9,1112.87-1997.9,1112.87Z" transform="translate(2008.923 -1026.768)"/>
        <path id="Trazado_623176" data-name="Trazado 623176" d="M-1921.261,1108.972c-.308.467.319,1.778,0,2.237-.181.262-.729.321-.437,1.5.229.927,1.922.322,2.779.322a37.769,37.769,0,0,0,5.057-.129c.531-.088.431-.094.077-.5-.3-.348-1.424-.1-2.162-.319-.756-.228-1.129-.924-1.576-1.071-.374-.123-.8-.841-1.053-1.142-.3-.361-.167-1.6-.6-1.79C-1919.691,1107.845-1920.949,1108.5-1921.261,1108.972Z" transform="translate(1949.208 -1023.584)" fill="#f7b691"/>
        <path id="Trazado_623177" data-name="Trazado 623177" d="M-1922.294,1119.077a4.341,4.341,0,0,0,.71.472,2.174,2.174,0,0,0,1.157.092,4.714,4.714,0,0,0,.787-.145,5.24,5.24,0,0,0,.974-.407,6.2,6.2,0,0,0,.533-.429,14.752,14.752,0,0,0,1.724,1.344c.515.293,2.294.073,2.422.3a2.53,2.53,0,0,1,.132.87c0,.083-.026.331-.026.331l-4.495.559a7.609,7.609,0,0,1-.729-.239,9.776,9.776,0,0,0-1.13-.423l-.027.512-2.535-.2a1.666,1.666,0,0,0,.024-.65,2.164,2.164,0,0,1-.163-.872,2.324,2.324,0,0,1,.316-.695C-1922.552,1119.381-1922.294,1119.077-1922.294,1119.077Z" transform="translate(1950.11 -1031.867)"/>
        <path id="Trazado_623178" data-name="Trazado 623178" d="M-1991.947,923.56a59.011,59.011,0,0,0-1.014,9.768c-.091,5.446.649,11.74.268,14.841-.535,4.356-3.729,17.152-3.729,17.152l4.475.895s4.135-15.02,5-20.135c.653-3.876,1.622-12.468,1.622-12.468s4.565,8.826,5.164,13.064c.684,4.84-.746,19.538-.746,19.538h5.369s1.446-16.775.655-22.294a53.475,53.475,0,0,0-2.064-10.094,74.184,74.184,0,0,0-4.556-10.268Z" transform="translate(2007.358 -879.872)" fill="#ef3c79"/>
        <path id="Trazado_623179" data-name="Trazado 623179" d="M-1966.484,777.516c-.817-.817.173-3.481,0-4.624-.17-1.12-1.173-3.206-1.342-4.325-.157-1.032-.62-3.336,0-4.176.452-.612,2.149-.846,2.908-.895.872-.055,2.839-.035,3.443.6.485.509.586,1.7.514,3-.006.115-.128.4-.137.511-.03.392.095,1.091.043,1.477a13.616,13.616,0,0,1-.582,2.351c-.172.665-.747.283-1.118.862a13.658,13.658,0,0,0-1.193,4.176c-.036.258.184.859,0,1.044A2.558,2.558,0,0,1-1966.484,777.516Z" transform="translate(1985.324 -755.156)" fill="#f7b691"/>
        <path id="Trazado_623180" data-name="Trazado 623180" d="M-1875.931,891.817a7.816,7.816,0,0,0,1.962.211c1.766-.125,3.169.035,3.062.552-.047.228-.6.073-1.008.146s-.52.254-.251.4c1,.55,3.221,1.307,2.775,1.69a12.264,12.264,0,0,1-2.682-.926,11.861,11.861,0,0,0,1.084.566c.779.354,1.705.719,1.637.888-.033.082-.076.078-.184.16a19.6,19.6,0,0,1-2.846-.863,5.3,5.3,0,0,0,.785.428c.663.291,1.519.6,1.466.717-.212.471-2.961-.617-2.961-.617a9.915,9.915,0,0,0,1.015.453c.516.187.937.281.9.406-.169.585-3.006-.528-3.969-1.3a13.128,13.128,0,0,0-1.133-1.092c-1.281-.734-3.737-1.066-5.928-1.747l1.165-2.539A27.338,27.338,0,0,0-1875.931,891.817Z" transform="translate(1918.375 -853.217)" fill="#f7b691"/>
        <path id="Trazado_623181" data-name="Trazado 623181" d="M-2042.464,733.069a6.656,6.656,0,0,1,.16-1.84c.494-1.722.67-3.291.136-3.293-.236,0-.2.578-.356.967s-.36.461-.45.164c-.336-1.1-.62-3.462-1.092-3.1a12.412,12.412,0,0,0,.356,2.849,11.994,11.994,0,0,1-.333-1.192c-.187-.845-.355-1.839-.537-1.807-.088.016-.093.059-.2.149a19.87,19.87,0,0,0,.259,3,5.342,5.342,0,0,1-.259-.865c-.15-.717-.275-1.629-.4-1.6-.511.111-.009,3.06-.009,3.06a10.123,10.123,0,0,1-.236-1.1c-.078-.55-.082-.986-.214-.976-.614.044-.106,3.086.46,4.2a13.211,13.211,0,0,1,.844,1.35,34.13,34.13,0,0,1,.99,6.192l2.257-.58A27.672,27.672,0,0,1-2042.464,733.069Z" transform="translate(2045.918 -725.817)" fill="#f7b691"/>
        <path id="Trazado_623182" data-name="Trazado 623182" d="M-1990.414,819.816c-.3.368-1.111,3.28.409,4.6,2.525,2.193,2.023,6.313,2.11,7.869.145,2.568.058,10.273.058,10.273s4.257.694,5.613.694c1.418,0,5.675-.695,5.675-.695s-.125-7.443-.125-9.924c0-2.963,1.423-10.02.811-11.852-.371-1.11-3.5-.248-4.392-1-.343-.29-.38-1.532-.38-1.532a17.741,17.741,0,0,1-2.457.463,13.041,13.041,0,0,1-2.085-.463s-.262.809-.381,1.044C-1986.055,820.274-1989.714,818.967-1990.414,819.816Z" transform="translate(2003.056 -797.826)" fill="#0b5999"/>
        <path id="Trazado_623183" data-name="Trazado 623183" d="M-1939.374,829.8c.736,2.583,2.292,6.512,3.814,8.176,2.149,2.351,8.728,4.878,11.018,6.4.714.474-.815,3.177-1.624,2.894a46.916,46.916,0,0,1-8.958-3.946,35.95,35.95,0,0,1-7.633-7.661c-.624-.927-2.186-3.1-1.727-4.122C-1943.931,830.3-1939.744,828.5-1939.374,829.8Z" transform="translate(1966.96 -806.473)" fill="#0b5999"/>
        <path id="Trazado_623184" data-name="Trazado 623184" d="M-2025.9,773.9c-1.077-2.3-8.536-5.52-8.536-5.52s-3.464-7.81-4.167-11.264c-.287-1.412-3.547.124-3.059,1.479,1.462,4.056,1.65,9.679,3.829,11.953,2.32,2.422,6.962,5.9,11.5,6.917C-2025.456,777.659-2025.517,774.711-2025.9,773.9Z" transform="translate(2042.639 -749.761)" fill="#0b5999"/>
        <path id="Trazado_623185" data-name="Trazado 623185" d="M-1964.5,760.2c-.853-1.5-4.339-2.357-6.23-1.71-2.036.7-2.076,5.193-2.011,5.2.027.728.486,1.259.6,2.065a4.3,4.3,0,0,0,.579,1.969l.347.695a1.969,1.969,0,0,0,2.661,0c.816-.7.956-.339,1.971-.84.613-.3.574-1.577.579-2.261.007-1.034.322-.941.663-1.7C-1964.949,762.744-1963.987,761.1-1964.5,760.2Z" transform="translate(1988.919 -751.102)" fill="#3a1200"/>
      </g>
      <g id="Grupo_894667" data-name="Grupo 894667" transform="translate(-2299.782 119.714)">
        <path id="Trazado_623186" data-name="Trazado 623186" d="M-1961.561,151.3c-.541-.963-1.488-1.595-1.313-2.775.059-.392.129-.815.154-1.257.028-.5.2-.822.2-1.358.006-1.4-1.205-5.009-3.073-3.5a3.424,3.424,0,0,0-1.4,2.152c-.1.436.012.9-.058,1.347a4.178,4.178,0,0,0-.1,1.358c.189,1.379.522,2.713.756,4.083l-.084.668a21.666,21.666,0,0,0,2.953-.013c.489,0,.977,0,1.466,0C-1961.458,152-1961.224,151.9-1961.561,151.3Z" transform="translate(1978.753 -138.798)" fill="#b26600"/>
        <path id="Trazado_623187" data-name="Trazado 623187" d="M-1925.518,282.248s6.154-1.018,7.4-.463,2.637,1.48,2.267,8.282-1.1,12.215-1.1,12.215-.03,2.406,1.158,3.192a3.017,3.017,0,0,1,1.374,1.619l-1.435,1.064-3.1-4.118-.324-9.531-1.018-8.051-5.691,1.064Z" transform="translate(1946.658 -247.535)" fill="#eaa481"/>
        <path id="Trazado_623188" data-name="Trazado 623188" d="M-1893.42,386.993a1.964,1.964,0,0,0,.4-.452s1.379.342,1.55.73c.22.5-.416,1.041-.416,1.041a23.672,23.672,0,0,1-2.695.113c-.448-.031-.827-.718-1.03-.98a10.5,10.5,0,0,0-.941-.9l-.062,2.006h-.849l-.208-1.011a7.848,7.848,0,0,1-.3-2.3,4.014,4.014,0,0,1,.527-.7s.339-.062.987.4a7.747,7.747,0,0,1,1.184,1.083,4.749,4.749,0,0,0,.9.9A1.513,1.513,0,0,0-1893.42,386.993Z" transform="translate(1924.867 -327.713)" fill="#221a1a"/>
        <path id="Trazado_623189" data-name="Trazado 623189" d="M-1918.846,311.477c-.1.2-.368.22-.716.146a10.513,10.513,0,0,1-2.384-1.062l-1.551-1.5s.185,0-.046-1.619-.574-5.78-1.268-7.329-1.046-4.783-.583-5.893c.376-.9,1.12-1.723-.359-1.571a10.645,10.645,0,0,0-1.4.264,4.549,4.549,0,0,1-1.433.143,2.2,2.2,0,0,1-2.106-1.854l.455-4.743,6.091.486h.555s2.823.092,2.591,5.136-.972,11.289-.972,11.289a18.686,18.686,0,0,0,.232,3.979,16.314,16.314,0,0,0,1.712,2.638C-1919.7,310.4-1918.634,311.033-1918.846,311.477Z" transform="translate(1950.328 -251.303)" fill="#f7b691"/>
        <path id="Trazado_623190" data-name="Trazado 623190" d="M-1943.14,213.489l-.266-.093-3.065-1.064a18.77,18.77,0,0,1-3.887-1.851c-1.017-.833-.771-.544-1.249-1.99a46.053,46.053,0,0,1-.971-5.6l-.416-3.748.392-2.552.013-.085a4.788,4.788,0,0,1,2.048,1.3c.694.879.879,3.377.879,6.339s-.462,4.21,1.11,5.135,4.951,2.637,5.09,2.823A7.2,7.2,0,0,1-1943.14,213.489Z" transform="translate(1967.704 -181.229)" fill="#bdd5e4"/>
        <path id="Trazado_623191" data-name="Trazado 623191" d="M-1943.406,213.7l-3.065-1.064a18.769,18.769,0,0,1-3.887-1.851c-1.017-.833-.771-.544-1.249-1.99a46.053,46.053,0,0,1-.971-5.6l-.416-3.747.392-2.552a4.471,4.471,0,0,1,1.808,1.211c.694.879.879,3.377.879,6.339s-.462,4.21,1.111,5.135,4.95,2.637,5.09,2.823A6.1,6.1,0,0,1-1943.406,213.7Z" transform="translate(1967.704 -181.528)" fill="#ef3c79"/>
        <path id="Trazado_623192" data-name="Trazado 623192" d="M-1986.456,205.885a20.474,20.474,0,0,1,1,5.269c0,.022,0,.042-.006.061a.03.03,0,0,0,0,.013c-.015.1-.044.169-.094.194a.144.144,0,0,1-.03.013.139.139,0,0,1-.03,0,2.849,2.849,0,0,0-.346.033c-1.168.18-4.1.985-4.1.985l-4.164.74-.006-.032c-.1-.553-1.471-8.213-1.382-8.482s-1.573-8.884-1.573-8.884,1.388-.648,3.054-1.573c.054-.03.109-.059.165-.087h0a26.935,26.935,0,0,1,3.72-.561s.837.076,2.164.3l.427.074c.1.017.191.035.279.055,1.316.285,1.484.74,1.484.74l-.006.128v.006l-.092,2.032a5.523,5.523,0,0,0,.718,3.609c.9,1.612-.721,3.734-1.335,4.542C-1986.734,205.229-1986.523,205.687-1986.456,205.885Z" transform="translate(2002.132 -178.947)" fill="#bdd5e4"/>
        <path id="Trazado_623193" data-name="Trazado 623193" d="M-1987.25,205.441c.346,1.173,1.345,4.688,1.249,5.713,0,.022,0,.043-.005.061a.025.025,0,0,0,0,.013.287.287,0,0,1-.095.195.15.15,0,0,1-.029.013.123.123,0,0,1-.029,0,2.863,2.863,0,0,0-.346.033c-1.2.178-4.281.985-4.281.985l-3.985.709-.179.032s-1.168-7.106-1.209-7.4a9.2,9.2,0,0,0-.878-2.57c-.479-1.117-.844-7.615-.844-7.615a9,9,0,0,1,3.022-1.39c.115-.03.232-.06.35-.087h0a26.98,26.98,0,0,1,3.721-.561s.836.076,2.163.3l.427.074c.1.017.191.037.279.056,1.272.291,1.466.831,1.479.868v.006l-.277,2.032a5.524,5.524,0,0,0,.718,3.609c1.086,1.943-1.365,4.534-1.365,4.534S-1987.321,205.2-1987.25,205.441Z" transform="translate(2002.675 -178.947)" fill="#ef3c79"/>
        <path id="Trazado_623194" data-name="Trazado 623194" d="M-2015.791,206.815s-3.053,5.922,0,6.94a28.806,28.806,0,0,0,6.2,1.2,7.172,7.172,0,0,0,1.758-.185l.127-1.782a16.291,16.291,0,0,1-4.2-1.087c-.989-.4-2.2-.49-2.521-1.065-.427-.771.428-1.856,1.248-3.122,1.432-2.212,2.383-3.956,2.383-5.252s-.75-2.709-1.305-2.433a4.63,4.63,0,0,0-1.841,2.34C-2014.5,203.668-2015.791,206.815-2015.791,206.815Z" transform="translate(2017.683 -183.946)" fill="#bdd5e4"/>
        <path id="Trazado_623195" data-name="Trazado 623195" d="M-2018.164,207.128s-3.054,5.367-.162,6.315a36.875,36.875,0,0,0,6.662,1.342,13.183,13.183,0,0,0,1.943,0l.127-1.6a16.663,16.663,0,0,1-4.384-1.087c-.989-.4-2.2-.49-2.521-1.065-.427-.771.313-2.11,1.133-3.377,1.431-2.212,2.5-3.7,2.5-5s-.565-2.894-1.12-2.618a2.658,2.658,0,0,0-1.612,1.721C-2016.154,203.061-2018.164,207.128-2018.164,207.128Z" transform="translate(2019.57 -183.959)" fill="#ef3c79"/>
        <path id="Trazado_623196" data-name="Trazado 623196" d="M-1986.716,274.806a20.014,20.014,0,0,0-.576,3.883c-.046,1.851.812,5.335,2.57,5.828,2.315.65,6.175.418,8.951-.137a30.756,30.756,0,0,0,4.673-1.3s-1.434-1.018-1.342-2.221.478-3.27,1.018-3.563c.627-.34,2.36-1.665,2.36-1.665a28.11,28.11,0,0,1-4.783,0,26.242,26.242,0,0,1-3.782-1.789l-3.418.264Z" transform="translate(1994.425 -241.478)" fill="#3b4167"/>
        <path id="Trazado_623197" data-name="Trazado 623197" d="M-1987.4,274.806a20.024,20.024,0,0,0-.576,3.883c-.046,1.851.812,5.335,2.57,5.828,2.315.65,6.175.418,8.951-.137a30.744,30.744,0,0,0,4.673-1.3s-1.434-1.018-1.342-2.221.478-3.27,1.018-3.563c.627-.34,2.36-1.665,2.36-1.665a28.108,28.108,0,0,1-4.783,0,26.246,26.246,0,0,1-3.782-1.789l-3.419.264Z" transform="translate(1994.958 -241.478)" fill="#fecb2f"/>
        <path id="Trazado_623198" data-name="Trazado 623198" d="M-1971.726,145.755c-.369,1.765-.811,2.146-1.327,2.242a2.019,2.019,0,0,0-1.42,2.115c.057,1.079.334,1.655.814,1.735a8.881,8.881,0,0,1-.54,3,26.469,26.469,0,0,1-1.275,3.2s-.534-2.372-.824-3.185c-.266-.745-1.368-3.028-1.368-3.028a34.262,34.262,0,0,0,.48-4.637c-.139-.694-1.342-2.406-1.2-3.378s-.416-2.637.741-3.47,4.118-.647,4.118-.647l1.8.925A19.393,19.393,0,0,1-1971.726,145.755Z" transform="translate(1987.499 -136.952)" fill="#f7b691"/>
        <path id="Trazado_623199" data-name="Trazado 623199" d="M-1896.46,390.033a2.14,2.14,0,0,0,.421-.452s1.362.342,1.533.73c.22.5-.416,1.041-.416,1.041a23.594,23.594,0,0,1-2.695.113c-.449-.032-.828-.719-1.03-.981a10.549,10.549,0,0,0-.941-.9l-.062,2.006h-.848l-.208-1.01a7.851,7.851,0,0,1-.3-2.3,4.014,4.014,0,0,1,.527-.7s.339-.062.987.4a7.747,7.747,0,0,1,1.183,1.083,4.751,4.751,0,0,0,.9.9A1.512,1.512,0,0,0-1896.46,390.033Z" transform="translate(1927.235 -330.081)" fill="#302e2e"/>
        <path id="Trazado_623200" data-name="Trazado 623200" d="M-1980.736,259.71a1.021,1.021,0,0,1,.821-.162c.578.142,1.331.317,1.816.393.879.139,2.857.636,3.366.636a4.744,4.744,0,0,1,1.168.2c1.341.283,1.476.555,1.654,1.133.191.619-.063,1.045-.157.983-.065-.043.053-.682-.178-1.1a1.179,1.179,0,0,0-.53-.532,1.163,1.163,0,0,1,.38.532c.091.334.2.953.035.939-.269-.023.014-.285-.415-.939a1.628,1.628,0,0,0-.326-.371,1.9,1.9,0,0,1,.284.525,1.328,1.328,0,0,1,0,.832c-.087-.034-.1-.45-.293-.83-.205-.4-.372-.342-.372-.342a1.7,1.7,0,0,1,.238,1.078c-.134.449-.249-.488-.481-.812s-.292-.328-.914-.289c-.37.023-.439-.236-.439-.236l-6.4-.528Z" transform="translate(1989.892 -230.318)" fill="#f7b691"/>
        <g id="Grupo_894666" data-name="Grupo 894666" transform="translate(13.65 22.728)">
          <path id="Trazado_623201" data-name="Trazado 623201" d="M-1957.419,279.664a.348.348,0,0,1-.37-.351v-.972a.391.391,0,0,1,.37-.386l8.051-.339a.353.353,0,0,1,.37.355v.879a.4.4,0,0,1-.37.39Z" transform="translate(1957.789 -267.145)" fill="#5a5a59"/>
          <path id="Trazado_623202" data-name="Trazado 623202" d="M-1956.562,273.837l8.1-1.524,2.684.669-2.637,1.528Z" transform="translate(1956.833 -263.013)" fill="#6b6968"/>
          <path id="Trazado_623203" data-name="Trazado 623203" d="M-1919.73,232.652l7.866-2.433h.37l-2.5,9.809-7.357,2.287Z" transform="translate(1929.4 -230.22)" fill="#5a5a59"/>
          <path id="Trazado_623204" data-name="Trazado 623204" d="M-1918.055,232.837l7.866-2.618-2.128,9.809-7.357,2.287Z" transform="translate(1928.096 -230.22)" fill="#6b6968"/>
        </g>
        <path id="Trazado_623205" data-name="Trazado 623205" d="M-1980.952,259.229l-.633.4-.594.833-.224.246,1.434.208-1.149-.031-.547-.146.262-.478.594-.856Z" transform="translate(1990.818 -230.091)" fill="#bdd5e4"/>
        <path id="Trazado_623206" data-name="Trazado 623206" d="M-1986.98,131.63a2.554,2.554,0,0,1,1.08.863,15.367,15.367,0,0,1,.463,2.013,3.9,3.9,0,0,0,.972-1.758,4.725,4.725,0,0,0-.37-2.961,6.3,6.3,0,0,0-2.267-1.365c-1.822-.622-4.149-1.825-5.934-.426a3.883,3.883,0,0,0-1.072,1.388,8.44,8.44,0,0,0-.607,3.579c.024,1.307.342,2.581.442,3.88a6.236,6.236,0,0,1,0,2.406c-.278.563-1.959.687-1.966,1.314-.01.844,4.592.375,5.186.138,1-.4.017-1.884.512-2.84a18.085,18.085,0,0,0,.564-2.337c.109-.386-.1-.937-.009-1.3.185-.732.712-.022.74-.076a15.743,15.743,0,0,1,1.079-1.975A1.384,1.384,0,0,1-1986.98,131.63Z" transform="translate(2001.395 -127.346)" fill="#b26600"/>
        <path id="Trazado_623207" data-name="Trazado 623207" d="M-1899.881,253.012c.057.291-.254.6-.693.682s-.842-.081-.9-.372.254-.6.693-.682S-1899.937,252.721-1899.881,253.012Z" transform="translate(1927.57 -224.941)" fill="#afafaf"/>
      </g>
      <g id="Grupo_894669" data-name="Grupo 894669" transform="translate(-2229.715 217.037)">
        <g id="Grupo_894668" data-name="Grupo 894668" transform="translate(0 0)">
          <path id="Trazado_623208" data-name="Trazado 623208" d="M-1389.068,597.91l.866,1.688.611,1.191.422.821.488.952.405.789,2.059,4.015.434.846.362.7.422.822,2.259,4.4.038.073.409.8.552,1.075,2.585,5.038.461.9,3.235,6.305.476.928,3.339,6.508.491.957,3.446,6.718.507.989,3.561,6.94.524,1.022,3.679,7.172.542,1.056,3.8,7.417.561,1.093,3.937,7.674.58,1.13,4.075,7.945.6,1.17,4.223,8.23.622,1.214,5.963,11.625,2.255-.144-6-11.6,17.918-.961,6.289,11.4,2.175-.139-6.323-11.373-.66-1.187-4.479-8.058-.638-1.146-4.326-7.783-.617-1.108-4.182-7.522-.6-1.072-4.044-7.275-.576-1.037-3.913-7.039-.557-1-3.789-6.815-.54-.972-3.669-6.6-.523-.942-3.557-6.4-.507-.912-3.448-6.2-.492-.885-3.345-6.017-.477-.859-3.246-5.839-.463-.834-3.152-5.67-.451-.81-1.924-3.461-.313-.562-1.271.04-.246.475.96,1.74.948,1.718-1.8-.049-1.84-.051-11.741-.323-1.546-2.99-.02-.038-1.788.057Zm47.917,89.043,17.682-.8,4.455,8.074-17.889.94Zm-4.706-9.1,17.451-.651,4.3,7.8-17.653.781Zm-4.546-8.787,17.225-.512,4.159,7.537-17.421.634Zm-4.393-8.493,17-.38,4.022,7.288-17.2.495Zm-4.248-8.214,16.788-.258,3.892,7.052-16.977.365Zm-4.111-7.947,16.576-.143,3.768,6.827-16.761.243Zm-3.979-7.694,16.371-.035,3.648,6.613-16.55.129Zm-3.855-7.453,16.169.066,3.536,6.409-16.344.021Zm-3.735-7.221,15.972.161,3.429,6.213-16.144-.078Zm-3.621-7,15.78.251,3.325,6.026-15.948-.173Zm-3.193-6.171-.321-.621,4.193.09,1.877.04,9.522.2,3.227,5.848-15.72-.261h-.036l-.943-1.823-1.373-2.654Zm-3.291-6.363-.44-.85,10.909.293,1.845.05,2.655.071,3.133,5.679-8.639-.192-1.874-.041-5.055-.112-2.124-4.107Z" transform="translate(1450.301 -597.293)" fill="#12263f"/>
          <path id="Trazado_623209" data-name="Trazado 623209" d="M-1666.219,708.059l2.175.14,6.289-11.4,17.918.961-6,11.6,2.255.145,5.963-11.625.623-1.214,4.222-8.23.6-1.17,4.076-7.945.58-1.13,3.937-7.674.56-1.093,3.8-7.417.542-1.056,3.679-7.172.524-1.022,3.561-6.939.507-.989,3.447-6.718.491-.957,3.339-6.507.476-.927,3.234-6.306.461-.9,3.136-6.114.159-.31.288-.562.694-1.352,2.349-4.578.434-.846.189-.368.422-.822,2.342-4.566.422-.821.088-.17.4-.789.856-1.669.869-1.692-.313-.562-1.271.04-.245.475-1.736,3.357-.408.79-.141.273-10.328.284-1.852.051-3.206.088,1.685-3.053.964-1.746.021-.039h-.041l-1.788.057-.022.039-2.664,4.791-.45.81-3.152,5.67-.463.834-3.247,5.839-.478.859-3.344,6.017-.492.885-3.448,6.2-.507.912-3.556,6.4-.523.942-3.67,6.6-.54.971-3.789,6.815-.558,1-3.913,7.039-.575,1.037-4.045,7.275-.6,1.072-4.182,7.523-.616,1.108-4.327,7.783-.638,1.146-4.48,8.057-.66,1.188Zm72.4-99.265-3.64.081-1.883.042-10.046.223,3.133-5.679,4.058-.109,1.856-.05,9.494-.254-2.314,4.473-.426.823Zm-3.5,6.767-15.756.261,3.227-5.848,10.928-.235,1.888-.04,2.776-.06-1.4,2.713-.964,1.864Zm-3.609,6.974-15.948.174,3.325-6.027,15.78-.251Zm-3.721,7.194-16.144.078,3.428-6.213,15.972-.161Zm-3.839,7.423-16.345-.022,3.536-6.409,16.169-.066Zm-3.963,7.662-16.551-.129,3.649-6.613,16.371.035Zm-4.094,7.915-16.76-.243,3.767-6.828,16.577.143Zm-4.23,8.179-16.975-.365,3.891-7.052,16.787.258Zm-4.374,8.457-17.2-.5,4.022-7.288,17,.381Zm-4.526,8.749-17.421-.634,4.159-7.538,17.224.512Zm-4.685,9.057-17.652-.781,4.3-7.8,17.45.651Zm-22.741,8.441,4.455-8.074,17.682.8-4.249,8.212Z" transform="translate(1666.219 -597.293)" fill="#12263f"/>
        </g>
      </g>
      <g id="Grupo_894672" data-name="Grupo 894672" transform="translate(-2171.648 141.688)">
        <path id="Trazado_623210" data-name="Trazado 623210" d="M-1326.048,588.343s-.184,1.785-.184,2.381c0,.4.184,1.613.184,1.613l1.886-.006v-.943s-.145.435,1.668.943a21.077,21.077,0,0,0,4.568.508s.028-.847-.176-1.078c-.553-.629-2.072-.445-3.015-1.17a23.837,23.837,0,0,1-2.32-2.248Z" transform="translate(1343.28 -514.971)" fill="#2c1f1d"/>
        <path id="Trazado_623211" data-name="Trazado 623211" d="M-1393.141,589.656s.19,1.583.169,2.113c-.018.443-.281,1.752-.281,1.752l-1.773.123V592.7s.145.435-1.668.943a21.078,21.078,0,0,1-4.568.508s-.076-.653.127-.884c.553-.629,2.121-.639,3.064-1.364a23.838,23.838,0,0,0,2.32-2.248Z" transform="translate(1401.745 -515.994)" fill="#2c1f1d"/>
        <path id="Trazado_623212" data-name="Trazado 623212" d="M-1373.189,419.363a63.333,63.333,0,0,1-1.958,12.254,83.959,83.959,0,0,0-3.118,17.983,45.823,45.823,0,0,0,0,7.541h-4.568s.072-15.012.8-19.4,1.885-13.667,1.885-13.667l.334-5.445Z" transform="translate(1387.376 -382.755)" fill="#475389"/>
        <path id="Trazado_623213" data-name="Trazado 623213" d="M-1348.089,417.633l-.58,6.526s1.456-.073,1.522,5.076,2.433,14.792,2.433,14.792.244,7.614.389,9.862l.145,2.248h4.068s-.653-12.834-1.088-16.46a96.42,96.42,0,0,1-.508-11.312c.073-2.1-.434-11.024-.434-11.024Z" transform="translate(1360.76 -381.749)" fill="#2c3863"/>
        <path id="Trazado_623214" data-name="Trazado 623214" d="M-1339.487,456.137h-4.206l-.145-2.248c-.145-2.248-.435-9.862-.435-9.862s-2.32-9.644-2.386-14.793-1.384-5.075-1.384-5.075l.58-6.526,5.441-.267.506-.025s.506,8.921.434,11.024a96.417,96.417,0,0,0,.508,11.312C-1340.14,443.3-1339.487,456.137-1339.487,456.137Z" transform="translate(1360.273 -381.75)" fill="#344170"/>
        <path id="Trazado_623215" data-name="Trazado 623215" d="M-1339.994,456.225h-3.7l-.145-2.248c-.145-2.248-.435-9.862-.435-9.862s-2.32-9.644-2.386-14.793-1.384-5.075-1.384-5.075l.58-6.526,5.441-.267c.029.517.5,8.96.432,11a96.584,96.584,0,0,0,.508,11.312C-1340.647,443.391-1339.994,456.225-1339.994,456.225Z" transform="translate(1360.273 -381.838)" fill="#475389"/>
        <path id="Trazado_623216" data-name="Trazado 623216" d="M-1370.979,324.864l-3.239,2.755s-.131-.125-.327-.31c-.387-.366-1.028-.964-1.413-1.285-.113-.094-.211.051-.3.345a34.862,34.862,0,0,0-.479,5.021l-.29,9.813s-4.834.387-5.995.532a5.61,5.61,0,0,1-.844.014h0c-1.624-.064-4.395-.479-4.395-.479l.336-6.641s-.411-7.4-.894-8.025c-.165-.215-.411-.141-.661.049a5.437,5.437,0,0,0-.983,1.159l-.4-.411-2.689-2.732s2.755-4.834,4.931-6.042a14.64,14.64,0,0,1,5.77-1.153h0c.35-.01.561-.007.561-.007a56.689,56.689,0,0,1,5.994.677C-1373.2,318.676-1370.979,324.864-1370.979,324.864Z" transform="translate(1395.728 -303.942)" fill="#aacc9e"/>
        <path id="Trazado_623217" data-name="Trazado 623217" d="M-1371.333,325.191l-2.885,2.455c-.387-.366-1.355-1.274-1.74-1.6a.569.569,0,0,0-.692,0c-.511.556-.774,5.366-.774,5.366l-.29,9.813s-4.834.387-5.994.532c-.047.006-.1.011-.153.014h0c-1.624-.065-4.395-.479-4.395-.479l.336-6.641s-.609-7.285-.894-8.025c-.218-.565-1.673.3-2.048.8l-2.689-2.732s2.755-4.834,4.931-6.042a14.642,14.642,0,0,1,5.77-1.153h0a57.1,57.1,0,0,1,5.863.669C-1373.894,318.7-1371.333,325.191-1371.333,325.191Z" transform="translate(1395.728 -303.968)" fill="#fecb2f"/>
        <path id="Trazado_623218" data-name="Trazado 623218" d="M-1357.981,267.5s3-.387,3.287,2.079-1.16,4.738-.918,6.091.468,2.251.6,3.471c.128,1.171-2.246,2.514-3.31,1.5s-.5-1.351-.308-3.043-.969-1.355-1.6-1.782-.945-3.384-.945-4.158.387-3.384.628-3.432,2.272-.747,2.272-.747Z" transform="translate(1370.5 -264.999)" fill="#f7b691"/>
        <path id="Trazado_623219" data-name="Trazado 623219" d="M-1392.527,364.8s1.526.8,2.016,1.028c.28.133.267-.357.039-.489a23.69,23.69,0,0,1-2.9-1.775c-.065-.063.247-.074.588.138.432.27.626.567.673.524.156-.142-.235-1-1.376-1.665-1.088-.63-2.03.145-2.61-.58a21.34,21.34,0,0,1-2.369-3.916c-.58-1.353-1.767-2.581-.677-3.577.278-.254.911-.976.911-.976l-2.878-2.922s-3.736,4.253-1.658,6.863,4.01,4.286,4.88,5.833a5.78,5.78,0,0,0,3,2.8,22.96,22.96,0,0,1,2.739.989c.295.127.814.072.541-.133-.656-.492-1.547-1.085-1.547-1.085s1.5.756,2.067,1.056c.216.115.664-.005.462-.156-.762-.57-2.237-1.4-2.237-1.4a25.569,25.569,0,0,0,2.375,1.169c.217.076.336-.257.172-.363C-1391.09,365.67-1392.527,364.8-1392.527,364.8Z" transform="translate(1403.396 -329.744)" fill="#f7b691"/>
        <g id="Grupo_894670" data-name="Grupo 894670" transform="translate(7.138 37.698)">
          <path id="Trazado_623220" data-name="Trazado 623220" d="M-1370.888,431.194a1.379,1.379,0,0,1-.2-.012l.021-.137a2.308,2.308,0,0,0,1.593-.486,5.3,5.3,0,0,0,1.7-3.683l.137.018a5.417,5.417,0,0,1-1.757,3.777A2.516,2.516,0,0,1-1370.888,431.194Z" transform="translate(1371.088 -426.877)" fill="#2c3863"/>
        </g>
        <g id="Grupo_894671" data-name="Grupo 894671" transform="translate(15.698 37.494)">
          <path id="Trazado_623221" data-name="Trazado 623221" d="M-1328.993,429.845a4.363,4.363,0,0,1-2.929-1.783,2.9,2.9,0,0,1-.281-.613,2.925,2.925,0,0,1-.119-1.263,1.8,1.8,0,0,1,.041-.223l.135-.01a.245.245,0,0,0-.006.026,2.937,2.937,0,0,0,.2,1.737,2.63,2.63,0,0,0,.146.276,4.137,4.137,0,0,0,2.8,1.7Z" transform="translate(1332.345 -425.953)" fill="#2c3863"/>
        </g>
        <path id="Trazado_623222" data-name="Trazado 623222" d="M-1360.92,257.055a2.509,2.509,0,0,0-2.786-.632c-1.751.632-2.754.533-3.015,1.313-.284.849,1.034,2.248,2.125,2.88.818.474,1.4,2.727,1.9,2.875.17.049.331-1.283.491-1.464.982-1.106,1.632-.008,1.091,1.02-.691,1.314.128.839-.01,2.314-.156,1.665.529,1.01.931,1.3s1.911.39,2.314-3.4.2-4.783-.817-5.521A3.887,3.887,0,0,0-1360.92,257.055Z" transform="translate(1374.854 -256.247)" fill="#473128"/>
        <path id="Trazado_623223" data-name="Trazado 623223" d="M-1322.476,361.013c-2.368,2.272-4.286,3.84-4.527,4.469a4.391,4.391,0,0,1-1.452,2.247,17.725,17.725,0,0,1-2.411,1.855c-.114.089-.706.279-.645.092a.053.053,0,0,1,.007-.012,19.7,19.7,0,0,1,1.558-1.229c-.1.057-1.66,1-1.965,1.192-.079.049-.258-.175-.15-.246.279-.182,1.748-1.292,1.839-1.361l-2.085,1.235c-.224.133-.391-.167-.222-.28.542-.362,1.987-1.4,2.077-1.461a20.537,20.537,0,0,1-1.935,1.088c-.189.071-.109-.227.024-.35a11.866,11.866,0,0,0,2.065-1.759c.008-.013.015-.023.019-.032.169-.282-.183.027-.511.194h0c-.178.091-.35.141-.427.028a.144.144,0,0,1-.015-.026h0c-.04-.088.5-.758.684-.955.677-.725,1.394-.532,2.07-1.015a18.943,18.943,0,0,0,3.1-4.447c.484-1.112,1.579-2.357.29-4.3q-.438-.661-.8-1.164c-.276-.389-.539-.742-.539-.742l2.475-2.105.257-.219.593,1.168,1.732,3.413A4.073,4.073,0,0,1-1322.476,361.013Z" transform="translate(1348.241 -330.616)" fill="#f7b691"/>
      </g>
    </g>
  </g>
</svg>
