<svg xmlns="http://www.w3.org/2000/svg" xmlns:xlink="http://www.w3.org/1999/xlink" width="458" height="319" viewBox="0 0 458 319">
  <defs>
    <filter id="Rect치ngulo_299086" x="0" y="0" width="458" height="319" filterUnits="userSpaceOnUse">
      <feOffset dy="5" input="SourceAlpha"/>
      <feGaussianBlur stdDeviation="3" result="blur"/>
      <feFlood flood-opacity="0.161"/>
      <feComposite operator="in" in2="blur"/>
      <feComposite in="SourceGraphic"/>
    </filter>
  </defs>
  <g id="Grupo_897739" data-name="Grupo 897739" transform="translate(-877 -7406)">
    <g id="Grupo_894227" data-name="Grupo 894227" transform="translate(886 7410)">
      <g transform="matrix(1, 0, 0, 1, -9, -4)" filter="url(#Rect치ngulo_299086)">
        <rect id="Rect치ngulo_299086-2" data-name="Rect치ngulo 299086" width="440" height="301" rx="10" transform="translate(9 4)" fill="#fdfdfd"/>
      </g>
    </g>
    <g id="layer1" transform="translate(1980.69 7042.618)">
      <rect id="rect2396" width="130.52" height="211.783" transform="translate(-945.987 412.382)" fill="#e9eef4" stroke="#12263f" stroke-linecap="round" stroke-width="2.241"/>
      <g id="g3193" transform="translate(-1013.927 469.312)">
        <path id="path3183" d="M-483.932,318.365l30.309-.044" transform="translate(483.948 -298.921)" fill="rgba(0,0,0,0)" stroke="#0b5999" stroke-width="2.241" fill-rule="evenodd"/>
        <path id="path3185" d="M-462.646,312.062v22.895" transform="translate(477.711 -297.087)" fill="rgba(0,0,0,0)" stroke="#0b5999" stroke-width="2.241" fill-rule="evenodd"/>
        <path id="path3189" d="M-483.954,368.2l15.065-23.966,15.293,24.042" transform="translate(483.954 -306.514)" fill="rgba(0,0,0,0)" stroke="#0b5999" stroke-linejoin="bevel" stroke-width="2.241" fill-rule="evenodd"/>
        <path id="path3191" d="M-539.574,358.635A7.289,7.289,0,0,1-546.786,366,7.289,7.289,0,0,1-554,358.635a7.289,7.289,0,0,1,7.212-7.364A7.289,7.289,0,0,1-539.574,358.635Z" transform="translate(561.852 -351.271)" fill="#fff" stroke="#0b5999" stroke-linecap="round" stroke-linejoin="bevel" stroke-width="2.241" fill-rule="evenodd"/>
      </g>
      <g id="g2423" transform="translate(-757.381 466.425)">
        <path id="path2425" d="M-483.932,318.365l30.309-.044" transform="translate(483.948 -298.921)" fill="rgba(0,0,0,0)" stroke="#21cbae" stroke-width="2.241" fill-rule="evenodd"/>
        <path id="path2427" d="M-462.646,312.062v22.895" transform="translate(477.711 -297.087)" fill="rgba(0,0,0,0)" stroke="#21cbae" stroke-width="2.241" fill-rule="evenodd"/>
        <path id="path2429" d="M-483.954,368.2l15.065-23.966,15.293,24.042" transform="translate(483.954 -306.514)" fill="rgba(0,0,0,0)" stroke="#21cbae" stroke-linejoin="bevel" stroke-width="2.241" fill-rule="evenodd"/>
        <path id="path2431" d="M-539.574,358.635A7.289,7.289,0,0,1-546.786,366,7.289,7.289,0,0,1-554,358.635a7.289,7.289,0,0,1,7.212-7.364A7.289,7.289,0,0,1-539.574,358.635Z" transform="translate(561.852 -351.271)" fill="#fff" stroke="#21cbae" stroke-linecap="round" stroke-linejoin="bevel" stroke-width="2.241" fill-rule="evenodd"/>
      </g>
      <path id="path3205" d="M-400.88,344.421c0,10.34-17.232,18.722-38.488,18.722s-38.488-8.382-38.488-18.722,17.232-18.722,38.488-18.722S-400.88,334.081-400.88,344.421Z" transform="translate(-442.309 157.359)" fill="#fecb2f" stroke="#12263f" stroke-linecap="round" stroke-linejoin="bevel" stroke-width="1.84" fill-rule="evenodd"/>
      <path id="path3210" d="M-400.88,344.421c0,10.34-17.232,18.722-38.488,18.722s-38.488-8.382-38.488-18.722,17.232-18.722,38.488-18.722S-400.88,334.081-400.88,344.421Z" transform="translate(-440.817 111.862)" fill="#21cbae" stroke="#12263f" stroke-linecap="round" stroke-linejoin="bevel" stroke-width="1.84" fill-rule="evenodd"/>
      <path id="path3212" d="M-400.88,344.421c0,10.34-17.232,18.722-38.488,18.722s-38.488-8.382-38.488-18.722,17.232-18.722,38.488-18.722S-400.88,334.081-400.88,344.421Z" transform="translate(-441.563 202.857)" fill="#0b5999" stroke="#12263f" stroke-linecap="round" stroke-linejoin="bevel" stroke-width="1.84" fill-rule="evenodd"/>
      <path id="path3214" d="M-400.88,344.421c0,10.34-17.232,18.722-38.488,18.722s-38.488-8.382-38.488-18.722,17.232-18.722,38.488-18.722S-400.88,334.081-400.88,344.421Z" transform="translate(-441.563 247.609)" fill="#ef3c79" stroke="#12263f" stroke-linecap="round" stroke-linejoin="bevel" stroke-width="1.84" fill-rule="evenodd"/>
      <path id="path3216" d="M-504.283,145.633-451.327,124" transform="translate(-472.863 335.263)" fill="rgba(0,0,0,0)" stroke="#12263f" stroke-width="2.241" fill-rule="evenodd"/>
      <path id="path3218" d="M-452.51,181.973l-50.718-5.221" transform="translate(-473.172 319.807)" fill="rgba(0,0,0,0)" stroke="#12263f" stroke-width="2.241" fill-rule="evenodd"/>
      <path id="path3220" d="M-501.118,208.4l49.227,23.867" transform="translate(-473.79 310.533)" fill="rgba(0,0,0,0)" stroke="#12263f" stroke-width="2.241" fill-rule="evenodd"/>
      <path id="path3222" d="M-308.056,273.694l79.062-84.282" transform="translate(-530.36 316.097)" fill="rgba(0,0,0,0)" stroke="#12263f" stroke-width="2.241" fill-rule="evenodd"/>
      <path id="text3224" d="M-906.576,420.4a1.673,1.673,0,0,1,.583.39,1.2,1.2,0,0,1,.3.489,2.331,2.331,0,0,1,.093.534c.011.187.013.374.006.561s0,.359.005.528a1.326,1.326,0,0,0,.11.473.9.9,0,0,0,.313.363v.226h-1.116a3.042,3.042,0,0,1-.2-1.177v-.643a1.4,1.4,0,0,0-.286-.978,1.179,1.179,0,0,0-.9-.308h-2.375v3.107h-.918v-7.22h3.327a2.361,2.361,0,0,1,1.622.5,1.812,1.812,0,0,1,.567,1.435,1.826,1.826,0,0,1-.264,1.023,2.121,2.121,0,0,1-.869.7m.176-1.595a1.582,1.582,0,0,0-.109-.626.773.773,0,0,0-.314-.38,1.3,1.3,0,0,0-.44-.182,2.509,2.509,0,0,0-.555-.055h-2.222v2.48h2.222a1.618,1.618,0,0,0,1.078-.3,1.185,1.185,0,0,0,.341-.94m6.752,2.843h-3.828a3.519,3.519,0,0,0,.067.638,1.449,1.449,0,0,0,.208.467,1.394,1.394,0,0,0,1.254.676,1.345,1.345,0,0,0,1.352-1.039h.836a2.148,2.148,0,0,1-.748,1.32,2.245,2.245,0,0,1-1.473.479,2.163,2.163,0,0,1-1.727-.732,3.006,3.006,0,0,1-.627-2.012,3.072,3.072,0,0,1,.643-2.046,2.15,2.15,0,0,1,1.732-.77,2.291,2.291,0,0,1,1.281.363,2.1,2.1,0,0,1,.819,1,5,5,0,0,1,.209,1.655m-3.8-.676h2.9a.108.108,0,0,0,.011-.055,1.523,1.523,0,0,0-.412-1.083,1.338,1.338,0,0,0-1.023-.445,1.338,1.338,0,0,0-1.028.434,1.805,1.805,0,0,0-.451,1.15m5.419,1.446a1.95,1.95,0,0,0,.06.3,1.2,1.2,0,0,0,.126.269.767.767,0,0,0,.214.231,1.23,1.23,0,0,0,.352.148,1.945,1.945,0,0,0,.512.06,1.564,1.564,0,0,0,.874-.22.685.685,0,0,0,.336-.594.564.564,0,0,0-.187-.445,1.467,1.467,0,0,0-.621-.28l-.764-.182a2.985,2.985,0,0,1-1.287-.556,1.216,1.216,0,0,1-.363-.94,1.388,1.388,0,0,1,.544-1.149,2.249,2.249,0,0,1,1.446-.435,2.079,2.079,0,0,1,1.386.413,1.477,1.477,0,0,1,.495,1.182h-.869q-.033-.836-1.034-.836a1.371,1.371,0,0,0-.808.214.671.671,0,0,0-.3.572.542.542,0,0,0,.226.445,1.964,1.964,0,0,0,.731.3l.792.182a2.426,2.426,0,0,1,1.122.533,1.23,1.23,0,0,1,.346.918,1.426,1.426,0,0,1-.583,1.193,2.487,2.487,0,0,1-1.557.445,2.31,2.31,0,0,1-1.529-.435,1.73,1.73,0,0,1-.539-1.336h.875m6.252-3.64v.671h-.853V423a.556.556,0,0,0,.094.374.52.52,0,0,0,.363.093,1.453,1.453,0,0,0,.4-.039v.693a3.787,3.787,0,0,1-.671.066,1.132,1.132,0,0,1-.742-.215.74.74,0,0,1-.253-.6v-3.921h-.709v-.671h.709v-1.424h.814v1.424h.853m.881,1.529a1.943,1.943,0,0,1,.143-.71,1.4,1.4,0,0,1,.336-.484,1.512,1.512,0,0,1,.479-.291,2.288,2.288,0,0,1,.544-.154,3.946,3.946,0,0,1,.566-.039,2.45,2.45,0,0,1,1.457.363,1.208,1.208,0,0,1,.5,1.05v3.052a.4.4,0,0,0,.115.3.473.473,0,0,0,.33.1.517.517,0,0,0,.17-.027v.626a2.2,2.2,0,0,1-.561.088.863.863,0,0,1-.6-.187.877.877,0,0,1-.242-.572,2.969,2.969,0,0,1-.858.578,2.255,2.255,0,0,1-.907.182,1.784,1.784,0,0,1-1.243-.413,1.435,1.435,0,0,1-.456-1.121,1.321,1.321,0,0,1,.6-1.232,4.056,4.056,0,0,1,1.425-.4q.142-.016.544-.071a1.663,1.663,0,0,0,.676-.187.437.437,0,0,0,.187-.39v-.215a.651.651,0,0,0-.3-.572,1.534,1.534,0,0,0-.858-.2,1.414,1.414,0,0,0-.875.226.94.94,0,0,0-.341.693h-.831m1.65,3.162a1.678,1.678,0,0,0,1.116-.363,1.022,1.022,0,0,0,.44-.781V421.4a2.481,2.481,0,0,1-.589.165q-.368.06-.693.11a4.515,4.515,0,0,0-.626.144,1,1,0,0,0-.484.291.762.762,0,0,0-.181.527.752.752,0,0,0,.264.611,1.162,1.162,0,0,0,.754.22m7.964.495h-.748v-.726a2.324,2.324,0,0,1-.759.732,1.97,1.97,0,0,1-.968.22,1.779,1.779,0,0,1-1.2-.385,1.29,1.29,0,0,1-.445-1.028v-4h.814v3.668a.989.989,0,0,0,.291.748,1.093,1.093,0,0,0,.781.275,1.253,1.253,0,0,0,1.028-.479,1.971,1.971,0,0,0,.385-1.27v-2.942h.824v5.186m3.9-4.46a2.75,2.75,0,0,0-.687.083,1.374,1.374,0,0,0-.517.258,1.123,1.123,0,0,0-.346.544,2.99,2.99,0,0,0-.11.88v2.694h-.83v-5.186h.759v.935a3.173,3.173,0,0,1,.682-.831,1.183,1.183,0,0,1,.737-.253c.051,0,.156.009.313.028v.847m.757.8a1.928,1.928,0,0,1,.143-.71,1.4,1.4,0,0,1,.336-.484,1.509,1.509,0,0,1,.478-.291,2.3,2.3,0,0,1,.544-.154,3.958,3.958,0,0,1,.566-.039,2.447,2.447,0,0,1,1.457.363,1.208,1.208,0,0,1,.5,1.05v3.052a.4.4,0,0,0,.116.3.471.471,0,0,0,.329.1.51.51,0,0,0,.17-.027v.626a2.19,2.19,0,0,1-.561.088.864.864,0,0,1-.605-.187.886.886,0,0,1-.242-.572,2.955,2.955,0,0,1-.858.578,2.255,2.255,0,0,1-.907.182,1.784,1.784,0,0,1-1.243-.413,1.433,1.433,0,0,1-.457-1.121,1.32,1.32,0,0,1,.605-1.232,4.051,4.051,0,0,1,1.424-.4q.143-.016.544-.071a1.663,1.663,0,0,0,.677-.187.438.438,0,0,0,.187-.39v-.215a.651.651,0,0,0-.3-.572,1.537,1.537,0,0,0-.858-.2,1.412,1.412,0,0,0-.874.226.943.943,0,0,0-.342.693h-.83m1.649,3.162a1.68,1.68,0,0,0,1.116-.363,1.021,1.021,0,0,0,.44-.781V421.4a2.464,2.464,0,0,1-.588.165q-.368.06-.693.11a4.525,4.525,0,0,0-.627.144,1,1,0,0,0-.484.291.763.763,0,0,0-.182.527.752.752,0,0,0,.264.611,1.161,1.161,0,0,0,.753.22m3.885-4.691h.759v.869a2.358,2.358,0,0,1,.742-.781,1.91,1.91,0,0,1,.984-.237,1.763,1.763,0,0,1,1.193.385,1.291,1.291,0,0,1,.445,1.028v3.921h-.819v-3.591a.978.978,0,0,0-.291-.748,1.073,1.073,0,0,0-.776-.275,1.247,1.247,0,0,0-1.022.479,1.966,1.966,0,0,0-.385,1.27v2.865h-.83v-5.186m7.31,0v.671h-.853V423a.552.552,0,0,0,.094.374.52.52,0,0,0,.363.093,1.452,1.452,0,0,0,.4-.039v.693a3.791,3.791,0,0,1-.671.066,1.132,1.132,0,0,1-.742-.215.738.738,0,0,1-.253-.6v-3.921h-.709v-.671h.709v-1.424h.814v1.424h.853m5.313,2.87H-862.3a3.509,3.509,0,0,0,.066.638,1.449,1.449,0,0,0,.208.467,1.394,1.394,0,0,0,1.254.676,1.344,1.344,0,0,0,1.352-1.039h.836a2.15,2.15,0,0,1-.747,1.32,2.248,2.248,0,0,1-1.474.479,2.162,2.162,0,0,1-1.726-.732,3.005,3.005,0,0,1-.627-2.012,3.076,3.076,0,0,1,.643-2.046,2.151,2.151,0,0,1,1.732-.77,2.289,2.289,0,0,1,1.281.363,2.1,2.1,0,0,1,.819,1,5,5,0,0,1,.209,1.655m-3.8-.676h2.9a.107.107,0,0,0,.011-.055,1.524,1.524,0,0,0-.413-1.083,1.337,1.337,0,0,0-1.022-.445,1.34,1.34,0,0,0-1.029.434,1.808,1.808,0,0,0-.451,1.15m9.291-4.229h.539a9.341,9.341,0,0,0-1,2.271,8.47,8.47,0,0,0-.352,2.386,8.673,8.673,0,0,0,.346,2.4,9.243,9.243,0,0,0,1.006,2.265h-.539a7.882,7.882,0,0,1-1.176-2.233,7.429,7.429,0,0,1-.435-2.431,7.368,7.368,0,0,1,.435-2.419,7.969,7.969,0,0,1,1.176-2.238m4.337,6.637a3.158,3.158,0,0,0,.786-.088,1.716,1.716,0,0,0,.534-.22,1.135,1.135,0,0,0,.319-.314,1.16,1.16,0,0,0,.16-.346,1.445,1.445,0,0,0,.038-.336.914.914,0,0,0-.325-.715,2.4,2.4,0,0,0-1-.462l-1.787-.473a1.637,1.637,0,0,1-1.419-1.678,1.9,1.9,0,0,1,.687-1.55,2.867,2.867,0,0,1,1.88-.572,2.9,2.9,0,0,1,1.936.589,2.084,2.084,0,0,1,.7,1.655h-.875a1.355,1.355,0,0,0-.473-1.089,2.036,2.036,0,0,0-1.325-.38,1.909,1.909,0,0,0-1.177.335,1.046,1.046,0,0,0-.44.88.833.833,0,0,0,.264.654,2.328,2.328,0,0,0,.924.413l1.815.489a2.158,2.158,0,0,1,1.133.671,1.688,1.688,0,0,1,.4,1.138,2.17,2.17,0,0,1-.077.572,1.981,1.981,0,0,1-.269.583,2.126,2.126,0,0,1-.506.534,2.485,2.485,0,0,1-.814.368,4.1,4.1,0,0,1-1.154.148,4.44,4.44,0,0,1-.781-.066,2.968,2.968,0,0,1-.753-.236,2.388,2.388,0,0,1-.666-.445,2.156,2.156,0,0,1-.467-.732,2.881,2.881,0,0,1-.187-1.044h.875v.054a1.732,1.732,0,0,0,.093.572,1.71,1.71,0,0,0,.307.528,1.486,1.486,0,0,0,.633.407,2.952,2.952,0,0,0,1.006.153m4.689-6.637v1.044h-.83v-1.044h.83m.006,2.034v5.186h-.825v-5.186h.825m1.406,0h.759v.732a2.256,2.256,0,0,1,.709-.677,1.805,1.805,0,0,1,.885-.2,1.639,1.639,0,0,1,.836.193,1.55,1.55,0,0,1,.566.6,2.239,2.239,0,0,1,.715-.616,1.964,1.964,0,0,1,.874-.176,1.552,1.552,0,0,1,1.116.374,1.406,1.406,0,0,1,.391,1.067v3.893h-.836v-3.575a1.088,1.088,0,0,0-.252-.764.911.911,0,0,0-.7-.275,1.123,1.123,0,0,0-.863.4,1.38,1.38,0,0,0-.358.957v3.261h-.83v-3.575a1.073,1.073,0,0,0-.253-.764.9.9,0,0,0-.7-.275,1.124,1.124,0,0,0-.864.4,1.379,1.379,0,0,0-.357.957v3.261h-.831v-5.186m8.076,7.341v-7.341h.759v.776a1.866,1.866,0,0,1,1.655-.924,1.953,1.953,0,0,1,1.627.759,3.248,3.248,0,0,1,.6,2.067,3.05,3.05,0,0,1-.611,1.991,1.966,1.966,0,0,1-1.605.742,1.973,1.973,0,0,1-.885-.187,2.133,2.133,0,0,1-.709-.577v2.694h-.831m2.277-6.72a1.233,1.233,0,0,0-1.05.55,2.449,2.449,0,0,0-.4,1.463,2.449,2.449,0,0,0,.4,1.463,1.233,1.233,0,0,0,1.05.55,1.306,1.306,0,0,0,1.089-.55,2.3,2.3,0,0,0,.418-1.43,2.431,2.431,0,0,0-.412-1.485,1.285,1.285,0,0,0-1.094-.561m4.187-2.655v7.22h-.836v-7.22H-828m2.182,0v1.044h-.831v-1.044h.831m.005,2.034v5.186h-.824v-5.186h.824m3.266,0v.671h-.863v4.515h-.819v-4.515h-.693v-.671h.693v-.885a1.155,1.155,0,0,1,.319-.863,1.237,1.237,0,0,1,.9-.313,2.431,2.431,0,0,1,.467.054v.682c-.125-.007-.219-.011-.281-.011q-.583,0-.583.522v.814h.863m1.678-2.034v1.044h-.831v-1.044h.831m0,2.034v5.186h-.824v-5.186h.824m5.372,1.743h-.831a1.319,1.319,0,0,0-.39-.836,1.166,1.166,0,0,0-.836-.3,1.22,1.22,0,0,0-1.056.55,2.643,2.643,0,0,0-.379,1.517,2.387,2.387,0,0,0,.39,1.447,1.26,1.26,0,0,0,1.073.527q1.05,0,1.265-1.248h.83a2.19,2.19,0,0,1-.638,1.479,2.066,2.066,0,0,1-1.485.528,2.08,2.08,0,0,1-1.677-.737,3.013,3.013,0,0,1-.621-2,3.16,3.16,0,0,1,.626-2.057,2.069,2.069,0,0,1,1.683-.77,2.038,2.038,0,0,1,1.435.49,2.008,2.008,0,0,1,.611,1.4m.94-.214a1.913,1.913,0,0,1,.143-.71,1.409,1.409,0,0,1,.335-.484,1.52,1.52,0,0,1,.479-.291,2.289,2.289,0,0,1,.544-.154,3.961,3.961,0,0,1,.566-.039,2.447,2.447,0,0,1,1.457.363,1.208,1.208,0,0,1,.5,1.05v3.052a.4.4,0,0,0,.115.3.474.474,0,0,0,.33.1.513.513,0,0,0,.17-.027v.626a2.191,2.191,0,0,1-.561.088.864.864,0,0,1-.605-.187.882.882,0,0,1-.242-.572,2.965,2.965,0,0,1-.858.578,2.256,2.256,0,0,1-.908.182,1.783,1.783,0,0,1-1.242-.413,1.432,1.432,0,0,1-.457-1.121,1.32,1.32,0,0,1,.605-1.232,4.051,4.051,0,0,1,1.424-.4c.1-.011.276-.035.544-.071a1.671,1.671,0,0,0,.677-.187.438.438,0,0,0,.187-.39v-.215a.65.65,0,0,0-.3-.572,1.533,1.533,0,0,0-.858-.2,1.415,1.415,0,0,0-.875.226.945.945,0,0,0-.341.693h-.83m1.649,3.162a1.68,1.68,0,0,0,1.116-.363,1.021,1.021,0,0,0,.44-.781V421.4a2.474,2.474,0,0,1-.588.165c-.246.04-.477.077-.693.11a4.529,4.529,0,0,0-.627.144,1,1,0,0,0-.484.291.763.763,0,0,0-.182.527.754.754,0,0,0,.264.611,1.164,1.164,0,0,0,.754.22m8.086-6.725v7.22h-.726v-.687a2.13,2.13,0,0,1-.726.7,1.9,1.9,0,0,1-.929.215,2,2,0,0,1-1.649-.759,3.224,3.224,0,0,1-.605-2.067,3.045,3.045,0,0,1,.605-1.985,1.972,1.972,0,0,1,1.616-.748,1.794,1.794,0,0,1,1.6.8v-2.689h.814m-2.266,2.655a1.3,1.3,0,0,0-1.094.556,2.367,2.367,0,0,0-.413,1.457,2.394,2.394,0,0,0,.413,1.463,1.316,1.316,0,0,0,1.1.55,1.239,1.239,0,0,0,1.051-.544,2.434,2.434,0,0,0,.4-1.452,2.485,2.485,0,0,0-.4-1.479,1.24,1.24,0,0,0-1.056-.55m5.556-.77a2.124,2.124,0,0,1,1.732.742,3.133,3.133,0,0,1,.621,2.079,2.984,2.984,0,0,1-.626,2.007,2.142,2.142,0,0,1-1.716.732,2.137,2.137,0,0,1-1.727-.737,3.07,3.07,0,0,1-.621-2.04,3.07,3.07,0,0,1,.621-2.04,2.126,2.126,0,0,1,1.715-.742m1.094,1.3a1.257,1.257,0,0,0-1.083-.544,1.286,1.286,0,0,0-1.094.544,2.467,2.467,0,0,0-.4,1.479,2.453,2.453,0,0,0,.4,1.479,1.292,1.292,0,0,0,1.094.539,1.269,1.269,0,0,0,1.077-.533,2.374,2.374,0,0,0,.4-1.451,2.516,2.516,0,0,0-.4-1.512m2.625,6.131h-.549a8.848,8.848,0,0,0,1-2.26,8.523,8.523,0,0,0,.352-2.392,8.507,8.507,0,0,0-.352-2.4,9.029,9.029,0,0,0-1-2.271h.549a7.99,7.99,0,0,1,1.177,2.238,7.4,7.4,0,0,1,.434,2.431,7.418,7.418,0,0,1-.434,2.425,7.927,7.927,0,0,1-1.177,2.227" transform="translate(-32.446 -1.244)"/>
      <path id="text3228" d="M-1021.69,590.291a5.516,5.516,0,0,1,.042-.682,4.929,4.929,0,0,1,.148-.725,5.182,5.182,0,0,1,.276-.72,3.542,3.542,0,0,1,.424-.655,2.857,2.857,0,0,1,.594-.533,2.8,2.8,0,0,1,.8-.358,3.606,3.606,0,0,1,1.018-.137,2.56,2.56,0,0,1,2.778,2.359h-.94a1.929,1.929,0,0,0-.622-1.161,2.041,2.041,0,0,0-1.329-.385,1.975,1.975,0,0,0-1.654.8,3.533,3.533,0,0,0-.608,2.182,3.4,3.4,0,0,0,.629,2.156,2.078,2.078,0,0,0,1.711.8,1.793,1.793,0,0,0,1.365-.5,2.9,2.9,0,0,0,.65-1.55h.947q-.329,2.859-2.969,2.859a3.477,3.477,0,0,1-1.138-.176,2.55,2.55,0,0,1-.87-.467,3.475,3.475,0,0,1-.594-.671,3.088,3.088,0,0,1-.4-.808,5.759,5.759,0,0,1-.2-.83,5.087,5.087,0,0,1-.064-.8m9.855-.935a2.82,2.82,0,0,0-.686.082,1.389,1.389,0,0,0-.516.259,1.115,1.115,0,0,0-.346.544,3.1,3.1,0,0,0-.106.88v2.694h-.834V588.63h.756v.935a3.155,3.155,0,0,1,.686-.83,1.179,1.179,0,0,1,.735-.253c.05,0,.156.009.311.028v.847m1.7-2.854h1.124l-1.47,1.463h-.594l.94-1.463m.163,2.128v5.185h-.827V588.63h.827m3.5,0v.671h-.848v3.552a.547.547,0,0,0,.092.374.521.521,0,0,0,.361.093,1.436,1.436,0,0,0,.4-.038v.693a3.767,3.767,0,0,1-.665.066,1.125,1.125,0,0,1-.742-.214.738.738,0,0,1-.255-.605V589.3h-.714v-.671h.714v-1.424h.813v1.424h.848m1.72-2.035v1.045h-.83V586.6h.83m.006,2.035v5.185h-.825V588.63h.825m5.371,1.743h-.83a1.323,1.323,0,0,0-.391-.836,1.163,1.163,0,0,0-.836-.3,1.221,1.221,0,0,0-1.056.55,2.639,2.639,0,0,0-.38,1.518,2.383,2.383,0,0,0,.39,1.446,1.262,1.262,0,0,0,1.073.528q1.05,0,1.265-1.249h.83a2.188,2.188,0,0,1-.638,1.48,2.066,2.066,0,0,1-1.485.527,2.08,2.08,0,0,1-1.677-.737,3.01,3.01,0,0,1-.621-2,3.158,3.158,0,0,1,.627-2.057,2.067,2.067,0,0,1,1.683-.77,2.042,2.042,0,0,1,1.435.489,2.009,2.009,0,0,1,.61,1.4m2.986-1.892a2.124,2.124,0,0,1,1.732.742,3.133,3.133,0,0,1,.621,2.079,2.985,2.985,0,0,1-.626,2.007,2.142,2.142,0,0,1-1.716.731,2.136,2.136,0,0,1-1.726-.737,3.069,3.069,0,0,1-.621-2.04,3.07,3.07,0,0,1,.621-2.04,2.126,2.126,0,0,1,1.715-.742m1.094,1.3a1.259,1.259,0,0,0-1.083-.544,1.289,1.289,0,0,0-1.094.544,2.47,2.47,0,0,0-.4,1.48,2.453,2.453,0,0,0,.4,1.479,1.293,1.293,0,0,0,1.094.539,1.27,1.27,0,0,0,1.078-.534,2.373,2.373,0,0,0,.4-1.451,2.512,2.512,0,0,0-.4-1.512m9.341-3.189v7.22h-.726v-.687a2.136,2.136,0,0,1-.725.7,1.905,1.905,0,0,1-.93.214,2,2,0,0,1-1.649-.759,3.23,3.23,0,0,1-.605-2.067,3.05,3.05,0,0,1,.605-1.985,1.973,1.973,0,0,1,1.617-.748,1.794,1.794,0,0,1,1.6.8V586.6h.814m-2.265,2.656a1.3,1.3,0,0,0-1.094.555,2.371,2.371,0,0,0-.413,1.458,2.391,2.391,0,0,0,.413,1.462,1.314,1.314,0,0,0,1.1.55,1.236,1.236,0,0,0,1.051-.544,2.432,2.432,0,0,0,.4-1.451,2.484,2.484,0,0,0-.4-1.479,1.237,1.237,0,0,0-1.056-.55m7.942,2.249H-984.1a3.453,3.453,0,0,0,.066.638,1.442,1.442,0,0,0,.209.467,1.392,1.392,0,0,0,1.253.677,1.344,1.344,0,0,0,1.353-1.039h.836a2.153,2.153,0,0,1-.748,1.32,2.248,2.248,0,0,1-1.474.478,2.164,2.164,0,0,1-1.726-.731,3.007,3.007,0,0,1-.627-2.013,3.075,3.075,0,0,1,.643-2.045,2.151,2.151,0,0,1,1.732-.77,2.292,2.292,0,0,1,1.282.363,2.1,2.1,0,0,1,.819,1,5,5,0,0,1,.209,1.655m-3.8-.677h2.9a.1.1,0,0,0,.011-.054,1.528,1.528,0,0,0-.412-1.084,1.339,1.339,0,0,0-1.023-.445,1.339,1.339,0,0,0-1.029.435,1.8,1.8,0,0,0-.45,1.149m-30.688,11.922h-.827a1.332,1.332,0,0,0-.389-.836,1.176,1.176,0,0,0-.841-.3,1.217,1.217,0,0,0-1.053.55,2.629,2.629,0,0,0-.382,1.518,2.374,2.374,0,0,0,.4,1.446,1.248,1.248,0,0,0,1.068.528c.7,0,1.124-.416,1.266-1.249h.834a2.215,2.215,0,0,1-.643,1.48,2.06,2.06,0,0,1-1.485.527,2.086,2.086,0,0,1-1.676-.737,3.033,3.033,0,0,1-.622-2,3.163,3.163,0,0,1,.629-2.057,2.071,2.071,0,0,1,1.682-.77,2.039,2.039,0,0,1,1.435.489,1.981,1.981,0,0,1,.608,1.4m2.991-1.892a2.127,2.127,0,0,1,1.732.742,3.155,3.155,0,0,1,.615,2.079,2.988,2.988,0,0,1-.622,2.007,2.143,2.143,0,0,1-1.718.731,2.139,2.139,0,0,1-1.725-.737,3.054,3.054,0,0,1-.622-2.04,3.055,3.055,0,0,1,.622-2.04,2.127,2.127,0,0,1,1.718-.742m1.089,1.3a1.252,1.252,0,0,0-1.082-.544,1.3,1.3,0,0,0-1.1.544,2.485,2.485,0,0,0-.4,1.48,2.468,2.468,0,0,0,.4,1.479,1.3,1.3,0,0,0,1.1.539,1.287,1.287,0,0,0,1.082-.534,2.415,2.415,0,0,0,.4-1.451,2.482,2.482,0,0,0-.4-1.512m2.4-1.155h.756v.731a2.308,2.308,0,0,1,.714-.676,1.782,1.782,0,0,1,.883-.2,1.643,1.643,0,0,1,.836.192,1.544,1.544,0,0,1,.567.6,2.229,2.229,0,0,1,.715-.616,1.964,1.964,0,0,1,.874-.176,1.548,1.548,0,0,1,1.116.374,1.406,1.406,0,0,1,.39,1.067v3.893h-.836v-3.574a1.084,1.084,0,0,0-.253-.764.906.906,0,0,0-.7-.275,1.122,1.122,0,0,0-.863.4,1.377,1.377,0,0,0-.358.957v3.261h-.83v-3.574a1.072,1.072,0,0,0-.253-.764.9.9,0,0,0-.7-.275,1.121,1.121,0,0,0-.863.4,1.369,1.369,0,0,0-.361.957v3.261h-.827V601m9.027-2.035v1.045h-.831v-1.045h.831m.006,2.035v5.185h-.825V601h.825m5.607-2.035v7.22h-.725V605.5a2.144,2.144,0,0,1-.726.7,1.9,1.9,0,0,1-.93.214,1.994,1.994,0,0,1-1.649-.759,3.229,3.229,0,0,1-.6-2.067,3.049,3.049,0,0,1,.6-1.985,1.974,1.974,0,0,1,1.617-.748,1.793,1.793,0,0,1,1.6.8v-2.689h.814m-2.265,2.656a1.3,1.3,0,0,0-1.094.555,2.371,2.371,0,0,0-.412,1.458A2.392,2.392,0,0,0-997,605.1a1.315,1.315,0,0,0,1.1.55,1.235,1.235,0,0,0,1.051-.544,2.431,2.431,0,0,0,.4-1.451,2.483,2.483,0,0,0-.4-1.479,1.237,1.237,0,0,0-1.056-.55m3.51.907a1.924,1.924,0,0,1,.144-.709,1.387,1.387,0,0,1,.335-.484,1.526,1.526,0,0,1,.479-.291,2.324,2.324,0,0,1,.544-.154,3.963,3.963,0,0,1,.566-.038,2.45,2.45,0,0,1,1.457.363,1.209,1.209,0,0,1,.5,1.051v3.052a.4.4,0,0,0,.115.3.474.474,0,0,0,.33.1.533.533,0,0,0,.17-.028v.627a2.19,2.19,0,0,1-.561.088.866.866,0,0,1-.6-.187.879.879,0,0,1-.242-.572,2.976,2.976,0,0,1-.858.578,2.253,2.253,0,0,1-.907.181,1.787,1.787,0,0,1-1.243-.412,1.437,1.437,0,0,1-.456-1.122,1.32,1.32,0,0,1,.6-1.232,4.055,4.055,0,0,1,1.425-.4c.1-.011.276-.035.544-.071a1.663,1.663,0,0,0,.676-.187.439.439,0,0,0,.187-.391v-.214a.652.652,0,0,0-.3-.572,1.529,1.529,0,0,0-.858-.2,1.419,1.419,0,0,0-.875.226.944.944,0,0,0-.341.693h-.831m1.65,3.162a1.684,1.684,0,0,0,1.116-.363,1.023,1.023,0,0,0,.44-.781v-.924a2.478,2.478,0,0,1-.588.165c-.246.04-.476.077-.693.11a4.6,4.6,0,0,0-.627.143,1.006,1.006,0,0,0-.484.291.761.761,0,0,0-.182.528.75.75,0,0,0,.264.61,1.158,1.158,0,0,0,.754.22m4.4-1.05a2.071,2.071,0,0,0,.061.3,1.171,1.171,0,0,0,.127.269.764.764,0,0,0,.214.23,1.223,1.223,0,0,0,.352.148,1.935,1.935,0,0,0,.511.061,1.572,1.572,0,0,0,.875-.22.687.687,0,0,0,.335-.594.563.563,0,0,0-.187-.445,1.467,1.467,0,0,0-.621-.281l-.764-.181a3,3,0,0,1-1.287-.556,1.217,1.217,0,0,1-.363-.94,1.388,1.388,0,0,1,.544-1.15,2.253,2.253,0,0,1,1.446-.434,2.077,2.077,0,0,1,1.386.412,1.474,1.474,0,0,1,.495,1.183h-.869q-.033-.837-1.034-.836a1.366,1.366,0,0,0-.808.215.67.67,0,0,0-.3.572.542.542,0,0,0,.226.445,1.983,1.983,0,0,0,.731.3l.792.181a2.426,2.426,0,0,1,1.122.534,1.231,1.231,0,0,1,.346.918,1.424,1.424,0,0,1-.583,1.193,2.483,2.483,0,0,1-1.556.445,2.313,2.313,0,0,1-1.529-.434,1.732,1.732,0,0,1-.539-1.336h.874" transform="translate(0 -51.013)"/>
      <path id="text3234" d="M-639.41,588.181a5.39,5.39,0,0,1,.044-.682,5.332,5.332,0,0,1,.148-.725,4.3,4.3,0,0,1,.275-.72,3.238,3.238,0,0,1,.423-.655,2.825,2.825,0,0,1,.594-.533,2.8,2.8,0,0,1,.8-.358,3.6,3.6,0,0,1,1.017-.137,2.562,2.562,0,0,1,2.782,2.359h-.946a1.906,1.906,0,0,0-.621-1.161,2.033,2.033,0,0,0-1.325-.385,1.969,1.969,0,0,0-1.655.8,3.5,3.5,0,0,0-.61,2.182,3.372,3.372,0,0,0,.632,2.156,2.077,2.077,0,0,0,1.71.8,1.787,1.787,0,0,0,1.364-.5,2.9,2.9,0,0,0,.649-1.55h.951q-.335,2.859-2.969,2.859a3.533,3.533,0,0,1-1.144-.176,2.519,2.519,0,0,1-.863-.467,3.58,3.58,0,0,1-.6-.67,3.131,3.131,0,0,1-.39-.809,6.207,6.207,0,0,1-.2-.83,5.357,5.357,0,0,1-.06-.8m10.666-.066a1.1,1.1,0,0,0-.1-.5.736.736,0,0,0-.275-.319,1.147,1.147,0,0,0-.341-.154,1.251,1.251,0,0,0-.352-.049,1.24,1.24,0,0,0-1.017.479,1.989,1.989,0,0,0-.379,1.27V591.7h-.825v-7.22h.825v2.744a2.327,2.327,0,0,1,.731-.665,2.023,2.023,0,0,1,.93-.192,1.763,1.763,0,0,1,1.193.38,1.294,1.294,0,0,1,.44,1.034v3.92h-.825v-3.59m6.584,1.275h-3.827a3.517,3.517,0,0,0,.066.638,1.435,1.435,0,0,0,.209.467,1.393,1.393,0,0,0,1.253.677,1.345,1.345,0,0,0,1.353-1.039h.836a2.15,2.15,0,0,1-.748,1.32,2.246,2.246,0,0,1-1.473.478,2.164,2.164,0,0,1-1.727-.731,3.007,3.007,0,0,1-.626-2.013,3.072,3.072,0,0,1,.643-2.045,2.15,2.15,0,0,1,1.732-.77,2.291,2.291,0,0,1,1.281.363,2.1,2.1,0,0,1,.819,1,5,5,0,0,1,.209,1.655m-3.8-.677h2.9a.1.1,0,0,0,.011-.054,1.525,1.525,0,0,0-.412-1.084,1.338,1.338,0,0,0-1.023-.445,1.336,1.336,0,0,0-1.028.435,1.8,1.8,0,0,0-.451,1.149m6.76-2.194v.671h-.863V591.7h-.819v-4.514h-.693v-.671h.693v-.885a1.156,1.156,0,0,1,.319-.863,1.236,1.236,0,0,1,.9-.314,2.376,2.376,0,0,1,.467.055v.682c-.124-.008-.218-.011-.28-.011q-.583,0-.583.522v.814h.863" transform="translate(-112.013 -50.395)"/>
      <path id="text3238" d="M-846.562,462.173a1.982,1.982,0,0,1-.561,1.473,1.982,1.982,0,0,1-1.458.556h-2.271v3.063h-.923v-7.22h2.986a2.275,2.275,0,0,1,1.644.556,2.057,2.057,0,0,1,.583,1.572m-4.289,1.226h1.919a1.494,1.494,0,0,0,1.034-.335,1.2,1.2,0,0,0,.374-.935,1.188,1.188,0,0,0-.374-.93,1.494,1.494,0,0,0-1.034-.335h-1.919V463.4m7.951-.594a2.827,2.827,0,0,0-.688.083,1.374,1.374,0,0,0-.517.259,1.119,1.119,0,0,0-.346.544,2.987,2.987,0,0,0-.11.88v2.694h-.831V462.08h.759v.935a3.167,3.167,0,0,1,.682-.83,1.18,1.18,0,0,1,.737-.253q.077,0,.314.028v.846m2.8-.874a2.126,2.126,0,0,1,1.732.742,3.137,3.137,0,0,1,.621,2.079,2.985,2.985,0,0,1-.626,2.007,2.142,2.142,0,0,1-1.716.731,2.136,2.136,0,0,1-1.726-.737,3.07,3.07,0,0,1-.621-2.04,3.068,3.068,0,0,1,.621-2.04,2.126,2.126,0,0,1,1.716-.742m1.094,1.3a1.259,1.259,0,0,0-1.083-.544,1.289,1.289,0,0,0-1.094.544,2.469,2.469,0,0,0-.4,1.479,2.456,2.456,0,0,0,.4,1.48,1.293,1.293,0,0,0,1.094.539,1.272,1.272,0,0,0,1.078-.534,2.378,2.378,0,0,0,.4-1.451,2.512,2.512,0,0,0-.4-1.512m2.235-3.189h.824v2.733a1.846,1.846,0,0,1,.671-.638,1.943,1.943,0,0,1,.93-.209,1.978,1.978,0,0,1,1.622.731,3.069,3.069,0,0,1,.594,1.991,3.228,3.228,0,0,1-.616,2.067,2,2,0,0,1-1.644.77,1.849,1.849,0,0,1-1.633-.885v.66h-.747v-7.22m2.265,2.656a1.235,1.235,0,0,0-1.051.549,2.463,2.463,0,0,0-.39,1.463,2.489,2.489,0,0,0,.39,1.468,1.239,1.239,0,0,0,1.051.544,1.31,1.31,0,0,0,1.094-.55,2.278,2.278,0,0,0,.423-1.43,2.445,2.445,0,0,0-.413-1.49,1.308,1.308,0,0,0-1.1-.555m3.34.907a1.921,1.921,0,0,1,.143-.709,1.388,1.388,0,0,1,.335-.484,1.527,1.527,0,0,1,.479-.291,2.322,2.322,0,0,1,.544-.154,3.959,3.959,0,0,1,.566-.038,2.45,2.45,0,0,1,1.457.363,1.209,1.209,0,0,1,.5,1.051V466.4a.4.4,0,0,0,.115.3.475.475,0,0,0,.33.1.535.535,0,0,0,.17-.028v.627a2.187,2.187,0,0,1-.561.088.868.868,0,0,1-.605-.187.879.879,0,0,1-.242-.572,2.955,2.955,0,0,1-.858.577,2.24,2.24,0,0,1-.907.182,1.786,1.786,0,0,1-1.243-.412,1.437,1.437,0,0,1-.456-1.122,1.32,1.32,0,0,1,.6-1.232,4.041,4.041,0,0,1,1.425-.4c.1-.011.276-.035.544-.071a1.651,1.651,0,0,0,.676-.187.437.437,0,0,0,.187-.39v-.214a.651.651,0,0,0-.3-.572,1.529,1.529,0,0,0-.858-.2,1.415,1.415,0,0,0-.875.226.943.943,0,0,0-.341.693h-.831m1.65,3.162a1.683,1.683,0,0,0,1.116-.363,1.021,1.021,0,0,0,.44-.781V464.7a2.476,2.476,0,0,1-.588.165c-.246.04-.477.077-.693.11a4.5,4.5,0,0,0-.627.143,1.006,1.006,0,0,0-.484.291.761.761,0,0,0-.182.528.75.75,0,0,0,.264.61,1.158,1.158,0,0,0,.754.22m6.37-3.965a2.817,2.817,0,0,0-.687.083,1.37,1.37,0,0,0-.517.259,1.114,1.114,0,0,0-.346.544,2.98,2.98,0,0,0-.11.88v2.694h-.83V462.08h.759v.935a3.165,3.165,0,0,1,.682-.83,1.18,1.18,0,0,1,.737-.253c.051,0,.156.009.313.028v.846m4.36-2.76v7.22h-.836v-7.22h.836m1.346,3.563a1.909,1.909,0,0,1,.143-.709,1.4,1.4,0,0,1,.335-.484,1.525,1.525,0,0,1,.479-.291,2.322,2.322,0,0,1,.544-.154,3.958,3.958,0,0,1,.566-.038,2.45,2.45,0,0,1,1.457.363,1.208,1.208,0,0,1,.5,1.051V466.4a.4.4,0,0,0,.115.3.475.475,0,0,0,.33.1.534.534,0,0,0,.17-.028v.627a2.186,2.186,0,0,1-.561.088.868.868,0,0,1-.605-.187.88.88,0,0,1-.242-.572,2.96,2.96,0,0,1-.858.577,2.246,2.246,0,0,1-.908.182,1.786,1.786,0,0,1-1.243-.412,1.437,1.437,0,0,1-.456-1.122,1.32,1.32,0,0,1,.6-1.232,4.046,4.046,0,0,1,1.425-.4c.1-.011.276-.035.544-.071a1.651,1.651,0,0,0,.676-.187.437.437,0,0,0,.187-.39v-.214a.651.651,0,0,0-.3-.572,1.526,1.526,0,0,0-.858-.2,1.415,1.415,0,0,0-.875.226.943.943,0,0,0-.341.693h-.83m1.649,3.162a1.684,1.684,0,0,0,1.116-.363,1.021,1.021,0,0,0,.44-.781V464.7a2.476,2.476,0,0,1-.588.165c-.246.04-.477.077-.693.11a4.5,4.5,0,0,0-.627.143,1.007,1.007,0,0,0-.484.291.765.765,0,0,0-.182.528.75.75,0,0,0,.264.61,1.159,1.159,0,0,0,.754.22m-28.118,9.425h-.83a1.323,1.323,0,0,0-.391-.836,1.164,1.164,0,0,0-.836-.3,1.22,1.22,0,0,0-1.056.55,2.639,2.639,0,0,0-.38,1.518,2.386,2.386,0,0,0,.39,1.446,1.262,1.262,0,0,0,1.073.528q1.05,0,1.265-1.249h.83a2.186,2.186,0,0,1-.638,1.479,2.064,2.064,0,0,1-1.485.528,2.08,2.08,0,0,1-1.677-.737,3.01,3.01,0,0,1-.621-2,3.159,3.159,0,0,1,.627-2.057,2.067,2.067,0,0,1,1.683-.77,2.042,2.042,0,0,1,1.435.489,2.007,2.007,0,0,1,.61,1.4m2.986-1.891a2.125,2.125,0,0,1,1.732.742,3.133,3.133,0,0,1,.621,2.079,2.985,2.985,0,0,1-.626,2.007,2.142,2.142,0,0,1-1.716.731,2.136,2.136,0,0,1-1.727-.737,3.07,3.07,0,0,1-.621-2.04,3.068,3.068,0,0,1,.621-2.04,2.126,2.126,0,0,1,1.715-.742m1.094,1.3a1.259,1.259,0,0,0-1.083-.544,1.289,1.289,0,0,0-1.094.544,2.469,2.469,0,0,0-.4,1.479,2.456,2.456,0,0,0,.4,1.48,1.293,1.293,0,0,0,1.094.539,1.27,1.27,0,0,0,1.077-.534,2.373,2.373,0,0,0,.4-1.451,2.51,2.51,0,0,0-.4-1.512m2.395-1.155h.759v.731a2.247,2.247,0,0,1,.71-.676,1.8,1.8,0,0,1,.885-.2,1.642,1.642,0,0,1,.836.192,1.548,1.548,0,0,1,.566.6,2.233,2.233,0,0,1,.715-.616,1.968,1.968,0,0,1,.875-.176,1.549,1.549,0,0,1,1.116.374,1.407,1.407,0,0,1,.39,1.067v3.893h-.836v-3.574a1.084,1.084,0,0,0-.253-.764.906.906,0,0,0-.7-.275,1.121,1.121,0,0,0-.864.4,1.376,1.376,0,0,0-.357.957v3.261h-.831v-3.574a1.075,1.075,0,0,0-.252-.764.9.9,0,0,0-.7-.275,1.12,1.12,0,0,0-.863.4,1.377,1.377,0,0,0-.358.957v3.261h-.83v-5.185m9.027-2.035v1.045h-.83v-1.045h.83m.006,2.035v5.185h-.825v-5.185h.825m5.608-2.035v7.22h-.726v-.687a2.131,2.131,0,0,1-.726.7,1.9,1.9,0,0,1-.929.214,2,2,0,0,1-1.649-.759,3.228,3.228,0,0,1-.605-2.068,3.044,3.044,0,0,1,.605-1.985,1.97,1.97,0,0,1,1.616-.748,1.793,1.793,0,0,1,1.6.8v-2.689h.814m-2.266,2.656a1.3,1.3,0,0,0-1.094.555,2.37,2.37,0,0,0-.413,1.457,2.392,2.392,0,0,0,.413,1.463,1.314,1.314,0,0,0,1.1.55,1.239,1.239,0,0,0,1.051-.544,2.433,2.433,0,0,0,.4-1.451,2.485,2.485,0,0,0-.4-1.48,1.239,1.239,0,0,0-1.056-.549m3.511.907a1.924,1.924,0,0,1,.143-.709,1.4,1.4,0,0,1,.336-.484,1.521,1.521,0,0,1,.478-.291,2.333,2.333,0,0,1,.544-.154,3.965,3.965,0,0,1,.566-.038,2.451,2.451,0,0,1,1.458.363,1.209,1.209,0,0,1,.5,1.051v3.051a.4.4,0,0,0,.116.3.473.473,0,0,0,.329.1.531.531,0,0,0,.17-.028v.627a2.186,2.186,0,0,1-.561.088.865.865,0,0,1-.6-.187.883.883,0,0,1-.243-.572,2.952,2.952,0,0,1-.858.577,2.243,2.243,0,0,1-.907.182,1.783,1.783,0,0,1-1.243-.412,1.435,1.435,0,0,1-.457-1.122,1.319,1.319,0,0,1,.605-1.232,4.036,4.036,0,0,1,1.424-.4c.1-.011.277-.035.544-.071a1.65,1.65,0,0,0,.677-.187.438.438,0,0,0,.187-.39v-.214a.65.65,0,0,0-.3-.572,1.531,1.531,0,0,0-.858-.2,1.412,1.412,0,0,0-.874.226.943.943,0,0,0-.342.693h-.83m1.649,3.162a1.682,1.682,0,0,0,1.116-.363,1.021,1.021,0,0,0,.44-.781v-.923a2.466,2.466,0,0,1-.588.165q-.368.06-.693.11a4.494,4.494,0,0,0-.626.143,1.006,1.006,0,0,0-.484.291.765.765,0,0,0-.182.528.75.75,0,0,0,.264.61,1.157,1.157,0,0,0,.753.22" transform="translate(-49.787 -13.966)"/>
      <path id="text3244" d="M-844.979,525.472a1.982,1.982,0,0,1-.561,1.474A1.984,1.984,0,0,1-847,527.5h-2.271v3.063h-.924v-7.22h2.986a2.276,2.276,0,0,1,1.644.556,2.057,2.057,0,0,1,.583,1.572m-4.289,1.227h1.919a1.5,1.5,0,0,0,1.034-.336,1.2,1.2,0,0,0,.373-.935,1.187,1.187,0,0,0-.373-.93,1.5,1.5,0,0,0-1.034-.335h-1.919V526.7m4.977.209a1.909,1.909,0,0,1,.143-.709,1.4,1.4,0,0,1,.335-.484,1.527,1.527,0,0,1,.479-.291,2.321,2.321,0,0,1,.544-.154,3.964,3.964,0,0,1,.566-.038,2.45,2.45,0,0,1,1.457.363,1.208,1.208,0,0,1,.5,1.051v3.051a.4.4,0,0,0,.115.3.474.474,0,0,0,.33.1.535.535,0,0,0,.17-.028v.627a2.186,2.186,0,0,1-.561.088.868.868,0,0,1-.605-.187.88.88,0,0,1-.242-.572,2.98,2.98,0,0,1-.858.578,2.256,2.256,0,0,1-.908.181,1.786,1.786,0,0,1-1.243-.412,1.437,1.437,0,0,1-.456-1.122,1.32,1.32,0,0,1,.6-1.232,4.046,4.046,0,0,1,1.425-.4c.1-.011.276-.035.544-.071a1.658,1.658,0,0,0,.677-.187.438.438,0,0,0,.187-.39v-.214a.651.651,0,0,0-.3-.572,1.528,1.528,0,0,0-.858-.2,1.419,1.419,0,0,0-.875.226.944.944,0,0,0-.341.693h-.83m1.649,3.162a1.684,1.684,0,0,0,1.116-.363,1.021,1.021,0,0,0,.44-.781V528a2.47,2.47,0,0,1-.588.165c-.246.04-.477.077-.693.11a4.511,4.511,0,0,0-.627.143,1.006,1.006,0,0,0-.484.291.764.764,0,0,0-.182.528.75.75,0,0,0,.264.61,1.159,1.159,0,0,0,.754.22m5.622.72a1.9,1.9,0,0,1-1.529-.748,3.04,3.04,0,0,1-.61-1.984,3.239,3.239,0,0,1,.6-2.04,1.931,1.931,0,0,1,1.6-.786,1.844,1.844,0,0,1,1.584.9v-.753h.764v4.333a7.911,7.911,0,0,1-.055,1.006,3.488,3.488,0,0,1-.2.825,1.68,1.68,0,0,1-.4.638,1.751,1.751,0,0,1-.677.39,2.98,2.98,0,0,1-.995.148,2.346,2.346,0,0,1-1.457-.418,1.521,1.521,0,0,1-.605-1.144h.836a1.025,1.025,0,0,0,.165.413.921.921,0,0,0,.264.258,1.036,1.036,0,0,0,.325.132,1.581,1.581,0,0,0,.286.055,2.179,2.179,0,0,0,.22.011,1.758,1.758,0,0,0,.715-.127.907.907,0,0,0,.445-.379,1.679,1.679,0,0,0,.22-.589,4.115,4.115,0,0,0,.066-.8v-.264a2.445,2.445,0,0,1-.72.7,1.616,1.616,0,0,1-.847.22m.154-4.8a1.23,1.23,0,0,0-1.051.544,2.52,2.52,0,0,0-.385,1.479,2.541,2.541,0,0,0,.38,1.485,1.242,1.242,0,0,0,1.066.534,1.193,1.193,0,0,0,1.029-.528,2.5,2.5,0,0,0,.374-1.457,2.625,2.625,0,0,0-.374-1.512,1.193,1.193,0,0,0-1.039-.544m3.555.918a1.923,1.923,0,0,1,.143-.709,1.405,1.405,0,0,1,.335-.484,1.535,1.535,0,0,1,.479-.291,2.33,2.33,0,0,1,.544-.154,3.962,3.962,0,0,1,.566-.038,2.447,2.447,0,0,1,1.457.363,1.208,1.208,0,0,1,.5,1.051v3.051a.4.4,0,0,0,.115.3.475.475,0,0,0,.33.1.534.534,0,0,0,.17-.028v.627a2.185,2.185,0,0,1-.561.088.868.868,0,0,1-.605-.187.887.887,0,0,1-.242-.572,2.971,2.971,0,0,1-.858.578,2.256,2.256,0,0,1-.908.181,1.783,1.783,0,0,1-1.242-.412,1.435,1.435,0,0,1-.457-1.122,1.319,1.319,0,0,1,.605-1.232,4.036,4.036,0,0,1,1.424-.4c.1-.011.277-.035.544-.071a1.65,1.65,0,0,0,.677-.187.438.438,0,0,0,.187-.39v-.214a.649.649,0,0,0-.3-.572,1.528,1.528,0,0,0-.858-.2,1.42,1.42,0,0,0-.875.226.946.946,0,0,0-.341.693h-.83m1.649,3.162a1.684,1.684,0,0,0,1.116-.363,1.021,1.021,0,0,0,.44-.781V528a2.461,2.461,0,0,1-.588.165q-.368.061-.693.11a4.536,4.536,0,0,0-.627.143,1.006,1.006,0,0,0-.484.291.764.764,0,0,0-.182.528.751.751,0,0,0,.264.61,1.157,1.157,0,0,0,.753.22m6.37-3.964a2.787,2.787,0,0,0-.687.082,1.386,1.386,0,0,0-.517.259,1.12,1.12,0,0,0-.346.544,2.983,2.983,0,0,0-.11.88v2.694h-.83v-5.185h.759v.935a3.165,3.165,0,0,1,.682-.83,1.178,1.178,0,0,1,.737-.253c.051,0,.156.009.313.028v.847m4.36-2.761v7.22h-.836v-7.22h.836m1.346,3.563a1.924,1.924,0,0,1,.143-.709,1.4,1.4,0,0,1,.336-.484,1.522,1.522,0,0,1,.478-.291,2.33,2.33,0,0,1,.544-.154,3.963,3.963,0,0,1,.566-.038,2.447,2.447,0,0,1,1.457.363,1.208,1.208,0,0,1,.5,1.051v3.051a.4.4,0,0,0,.116.3.471.471,0,0,0,.329.1.531.531,0,0,0,.17-.028v.627a2.186,2.186,0,0,1-.561.088.868.868,0,0,1-.605-.187.887.887,0,0,1-.242-.572,2.971,2.971,0,0,1-.858.578,2.255,2.255,0,0,1-.907.181,1.783,1.783,0,0,1-1.243-.412,1.435,1.435,0,0,1-.457-1.122,1.319,1.319,0,0,1,.605-1.232,4.035,4.035,0,0,1,1.424-.4c.1-.011.277-.035.544-.071a1.651,1.651,0,0,0,.677-.187.438.438,0,0,0,.187-.39v-.214a.65.65,0,0,0-.3-.572,1.531,1.531,0,0,0-.858-.2,1.417,1.417,0,0,0-.874.226.944.944,0,0,0-.341.693h-.83m1.649,3.162a1.684,1.684,0,0,0,1.116-.363,1.021,1.021,0,0,0,.44-.781V528a2.462,2.462,0,0,1-.588.165q-.368.061-.693.11a4.534,4.534,0,0,0-.627.143,1.006,1.006,0,0,0-.484.291.764.764,0,0,0-.182.528.751.751,0,0,0,.264.61,1.157,1.157,0,0,0,.753.22m-26.252,9.425h-.83a1.322,1.322,0,0,0-.391-.836,1.164,1.164,0,0,0-.836-.3,1.22,1.22,0,0,0-1.055.55,2.64,2.64,0,0,0-.38,1.518,2.384,2.384,0,0,0,.39,1.446,1.262,1.262,0,0,0,1.072.528q1.05,0,1.265-1.249h.83a2.189,2.189,0,0,1-.638,1.48,2.067,2.067,0,0,1-1.485.527,2.08,2.08,0,0,1-1.677-.737,3.01,3.01,0,0,1-.621-2,3.159,3.159,0,0,1,.627-2.057,2.067,2.067,0,0,1,1.683-.77,2.042,2.042,0,0,1,1.435.489,2.009,2.009,0,0,1,.61,1.4m2.986-1.891a2.125,2.125,0,0,1,1.732.742,3.134,3.134,0,0,1,.621,2.078,2.985,2.985,0,0,1-.626,2.007,2.142,2.142,0,0,1-1.716.731,2.136,2.136,0,0,1-1.727-.737,3.069,3.069,0,0,1-.621-2.04,3.069,3.069,0,0,1,.621-2.04,2.126,2.126,0,0,1,1.715-.742m1.094,1.3a1.259,1.259,0,0,0-1.083-.544,1.289,1.289,0,0,0-1.094.544,2.47,2.47,0,0,0-.4,1.479,2.456,2.456,0,0,0,.4,1.48,1.293,1.293,0,0,0,1.094.539,1.27,1.27,0,0,0,1.077-.534,2.372,2.372,0,0,0,.4-1.451,2.511,2.511,0,0,0-.4-1.512m2.395-1.154h.759v.731a2.255,2.255,0,0,1,.71-.676,1.8,1.8,0,0,1,.885-.2,1.643,1.643,0,0,1,.836.192,1.547,1.547,0,0,1,.566.6,2.231,2.231,0,0,1,.715-.616,1.966,1.966,0,0,1,.875-.176,1.55,1.55,0,0,1,1.116.374,1.407,1.407,0,0,1,.39,1.067v3.893h-.836v-3.574a1.084,1.084,0,0,0-.253-.764.906.906,0,0,0-.7-.275,1.121,1.121,0,0,0-.864.4,1.376,1.376,0,0,0-.357.957v3.261h-.831v-3.574a1.075,1.075,0,0,0-.252-.764.9.9,0,0,0-.7-.275,1.12,1.12,0,0,0-.863.4,1.377,1.377,0,0,0-.358.957v3.261h-.83v-5.185m9.027-2.035v1.045h-.83v-1.045h.83m.006,2.035v5.185h-.824v-5.185h.824m5.608-2.035v7.22h-.726v-.687a2.131,2.131,0,0,1-.726.7,1.9,1.9,0,0,1-.929.214,2,2,0,0,1-1.649-.759,3.226,3.226,0,0,1-.605-2.068,3.045,3.045,0,0,1,.605-1.984,1.972,1.972,0,0,1,1.616-.748,1.794,1.794,0,0,1,1.6.8v-2.689h.814m-2.266,2.656a1.3,1.3,0,0,0-1.094.555,2.371,2.371,0,0,0-.413,1.457,2.393,2.393,0,0,0,.413,1.463,1.314,1.314,0,0,0,1.1.55,1.239,1.239,0,0,0,1.051-.544,2.431,2.431,0,0,0,.4-1.451,2.481,2.481,0,0,0-.4-1.479,1.238,1.238,0,0,0-1.056-.55m3.511.907a1.924,1.924,0,0,1,.143-.709,1.4,1.4,0,0,1,.336-.484,1.521,1.521,0,0,1,.478-.291,2.333,2.333,0,0,1,.544-.154,3.973,3.973,0,0,1,.566-.038,2.451,2.451,0,0,1,1.458.363,1.209,1.209,0,0,1,.5,1.051v3.051a.4.4,0,0,0,.116.3.473.473,0,0,0,.329.1.532.532,0,0,0,.17-.028v.627a2.185,2.185,0,0,1-.561.088.865.865,0,0,1-.6-.187.883.883,0,0,1-.243-.572,2.973,2.973,0,0,1-.858.578,2.255,2.255,0,0,1-.907.181,1.783,1.783,0,0,1-1.243-.412,1.435,1.435,0,0,1-.457-1.122,1.319,1.319,0,0,1,.605-1.232,4.036,4.036,0,0,1,1.424-.4c.1-.011.277-.035.544-.071a1.65,1.65,0,0,0,.677-.187.438.438,0,0,0,.187-.39v-.214a.65.65,0,0,0-.3-.572,1.531,1.531,0,0,0-.858-.2,1.417,1.417,0,0,0-.874.226.944.944,0,0,0-.341.693h-.83m1.649,3.162a1.683,1.683,0,0,0,1.116-.363,1.021,1.021,0,0,0,.44-.781v-.924a2.468,2.468,0,0,1-.588.165q-.368.06-.693.11a4.478,4.478,0,0,0-.626.143,1,1,0,0,0-.484.291.764.764,0,0,0-.182.528.75.75,0,0,0,.264.61,1.157,1.157,0,0,0,.753.22" transform="translate(-50.251 -32.513)"/>
      <path id="text3250" d="M-845.23,653.125a1.982,1.982,0,0,1-.561,1.474,1.984,1.984,0,0,1-1.457.555h-2.271v3.063h-.924V651h2.986a2.275,2.275,0,0,1,1.644.556,2.056,2.056,0,0,1,.583,1.572m-4.289,1.227h1.919a1.492,1.492,0,0,0,1.034-.336,1.2,1.2,0,0,0,.374-.935,1.185,1.185,0,0,0-.374-.929,1.492,1.492,0,0,0-1.034-.336h-1.919v2.535m7.95-.594a2.8,2.8,0,0,0-.687.082,1.386,1.386,0,0,0-.517.259,1.119,1.119,0,0,0-.346.544,2.986,2.986,0,0,0-.11.88v2.7h-.83v-5.186h.759v.935a3.167,3.167,0,0,1,.682-.83,1.179,1.179,0,0,1,.737-.253c.052,0,.156.009.313.028v.847m5.189,2.144h-3.827a3.443,3.443,0,0,0,.066.638,1.433,1.433,0,0,0,.209.467,1.394,1.394,0,0,0,1.254.677,1.345,1.345,0,0,0,1.352-1.039h.836a2.153,2.153,0,0,1-.747,1.32,2.248,2.248,0,0,1-1.474.478,2.162,2.162,0,0,1-1.726-.731,3.008,3.008,0,0,1-.627-2.013,3.075,3.075,0,0,1,.643-2.045,2.151,2.151,0,0,1,1.732-.77,2.288,2.288,0,0,1,1.281.363,2.1,2.1,0,0,1,.819,1,5,5,0,0,1,.209,1.655m-3.8-.677h2.9a.1.1,0,0,0,.011-.054,1.525,1.525,0,0,0-.413-1.084,1.337,1.337,0,0,0-1.022-.445,1.338,1.338,0,0,0-1.029.435,1.806,1.806,0,0,0-.451,1.149m4.742,5.147v-7.341h.759v.776a1.866,1.866,0,0,1,1.655-.924,1.954,1.954,0,0,1,1.627.759,3.252,3.252,0,0,1,.6,2.068,3.049,3.049,0,0,1-.611,1.99,1.966,1.966,0,0,1-1.606.742,1.983,1.983,0,0,1-.885-.187,2.128,2.128,0,0,1-.709-.578v2.694h-.831m2.277-6.719a1.232,1.232,0,0,0-1.05.55,2.448,2.448,0,0,0-.4,1.463,2.45,2.45,0,0,0,.4,1.463,1.233,1.233,0,0,0,1.05.549,1.305,1.305,0,0,0,1.089-.549,2.3,2.3,0,0,0,.418-1.43,2.434,2.434,0,0,0-.412-1.485,1.284,1.284,0,0,0-1.094-.561m3.329.907a1.939,1.939,0,0,1,.143-.709,1.4,1.4,0,0,1,.336-.484,1.513,1.513,0,0,1,.479-.292,2.284,2.284,0,0,1,.544-.153,3.851,3.851,0,0,1,.566-.039,2.45,2.45,0,0,1,1.457.363,1.209,1.209,0,0,1,.5,1.051v3.052a.4.4,0,0,0,.115.3.473.473,0,0,0,.33.1.534.534,0,0,0,.17-.028v.627a2.193,2.193,0,0,1-.561.088.867.867,0,0,1-.6-.187.879.879,0,0,1-.242-.572,2.959,2.959,0,0,1-.858.578,2.253,2.253,0,0,1-.907.181,1.785,1.785,0,0,1-1.243-.412,1.437,1.437,0,0,1-.456-1.122,1.32,1.32,0,0,1,.6-1.232,4.056,4.056,0,0,1,1.425-.4q.142-.016.544-.071a1.664,1.664,0,0,0,.676-.187.439.439,0,0,0,.187-.391v-.214a.652.652,0,0,0-.3-.572,1.528,1.528,0,0,0-.858-.2,1.419,1.419,0,0,0-.875.226.941.941,0,0,0-.341.693h-.831m1.65,3.162a1.681,1.681,0,0,0,1.116-.363,1.022,1.022,0,0,0,.44-.78v-.924a2.488,2.488,0,0,1-.589.165q-.368.06-.693.11a4.618,4.618,0,0,0-.626.143,1.012,1.012,0,0,0-.484.291.764.764,0,0,0-.181.528.75.75,0,0,0,.264.61,1.157,1.157,0,0,0,.754.221m6.37-3.965a2.8,2.8,0,0,0-.688.082,1.386,1.386,0,0,0-.517.259,1.125,1.125,0,0,0-.346.544,3.015,3.015,0,0,0-.11.88v2.7h-.831v-5.186h.759v.935a3.167,3.167,0,0,1,.682-.83,1.18,1.18,0,0,1,.737-.253q.077,0,.314.028v.847m.757.8a1.923,1.923,0,0,1,.143-.709,1.384,1.384,0,0,1,.335-.484,1.513,1.513,0,0,1,.479-.292,2.284,2.284,0,0,1,.544-.153,3.865,3.865,0,0,1,.566-.039,2.45,2.45,0,0,1,1.457.363,1.209,1.209,0,0,1,.5,1.051v3.052a.4.4,0,0,0,.115.3.473.473,0,0,0,.33.1.535.535,0,0,0,.17-.028v.627a2.193,2.193,0,0,1-.561.088.867.867,0,0,1-.6-.187.88.88,0,0,1-.242-.572,2.958,2.958,0,0,1-.858.578,2.253,2.253,0,0,1-.907.181,1.786,1.786,0,0,1-1.243-.412,1.437,1.437,0,0,1-.456-1.122,1.32,1.32,0,0,1,.6-1.232,4.056,4.056,0,0,1,1.425-.4q.142-.016.544-.071a1.664,1.664,0,0,0,.676-.187.439.439,0,0,0,.187-.391v-.214a.651.651,0,0,0-.3-.572,1.529,1.529,0,0,0-.858-.2,1.419,1.419,0,0,0-.875.226.941.941,0,0,0-.341.693h-.831m1.65,3.162a1.684,1.684,0,0,0,1.116-.363,1.023,1.023,0,0,0,.44-.78v-.924a2.479,2.479,0,0,1-.588.165q-.369.06-.693.11a4.6,4.6,0,0,0-.627.143,1.016,1.016,0,0,0-.484.291.764.764,0,0,0-.181.528.75.75,0,0,0,.264.61,1.158,1.158,0,0,0,.754.221m6.37-3.965a2.8,2.8,0,0,0-.688.082,1.387,1.387,0,0,0-.517.259,1.125,1.125,0,0,0-.346.544,3.013,3.013,0,0,0-.11.88v2.7h-.831v-5.186h.759v.935a3.167,3.167,0,0,1,.682-.83,1.18,1.18,0,0,1,.737-.253q.077,0,.314.028v.847m-38.74,9.612v7.22h-.836v-7.22h.836m1.345,3.563a1.922,1.922,0,0,1,.143-.709,1.384,1.384,0,0,1,.335-.484,1.515,1.515,0,0,1,.479-.292,2.284,2.284,0,0,1,.544-.153,3.856,3.856,0,0,1,.566-.039,2.45,2.45,0,0,1,1.457.363,1.209,1.209,0,0,1,.5,1.051v3.052a.4.4,0,0,0,.115.3.474.474,0,0,0,.33.1.535.535,0,0,0,.17-.028v.627a2.188,2.188,0,0,1-.561.088.867.867,0,0,1-.605-.187.88.88,0,0,1-.242-.572,2.958,2.958,0,0,1-.858.578,2.252,2.252,0,0,1-.907.181,1.786,1.786,0,0,1-1.243-.412,1.437,1.437,0,0,1-.456-1.122,1.32,1.32,0,0,1,.6-1.232,4.054,4.054,0,0,1,1.425-.4c.1-.011.276-.035.544-.071a1.669,1.669,0,0,0,.677-.187.44.44,0,0,0,.187-.391v-.214a.651.651,0,0,0-.3-.572,1.528,1.528,0,0,0-.858-.2,1.419,1.419,0,0,0-.875.226.944.944,0,0,0-.341.693h-.831m1.65,3.162a1.684,1.684,0,0,0,1.116-.363,1.021,1.021,0,0,0,.44-.781v-.924a2.473,2.473,0,0,1-.588.165c-.246.04-.477.077-.693.11a4.6,4.6,0,0,0-.627.143,1.012,1.012,0,0,0-.484.291.761.761,0,0,0-.182.528.75.75,0,0,0,.264.61,1.159,1.159,0,0,0,.754.221m10.594-2.947h-.831a1.319,1.319,0,0,0-.39-.836,1.164,1.164,0,0,0-.836-.3,1.221,1.221,0,0,0-1.055.55,2.64,2.64,0,0,0-.38,1.518,2.383,2.383,0,0,0,.39,1.446,1.261,1.261,0,0,0,1.073.528q1.05,0,1.265-1.248h.83a2.186,2.186,0,0,1-.638,1.479,2.066,2.066,0,0,1-1.485.527,2.079,2.079,0,0,1-1.677-.737,3.01,3.01,0,0,1-.621-2,3.156,3.156,0,0,1,.627-2.057,2.067,2.067,0,0,1,1.683-.77,2.042,2.042,0,0,1,1.435.489,2.01,2.01,0,0,1,.61,1.4m2.986-1.892a2.125,2.125,0,0,1,1.732.742,3.133,3.133,0,0,1,.621,2.079,2.982,2.982,0,0,1-.627,2.007,2.139,2.139,0,0,1-1.715.731,2.136,2.136,0,0,1-1.726-.737,3.068,3.068,0,0,1-.621-2.04,3.07,3.07,0,0,1,.621-2.04,2.126,2.126,0,0,1,1.715-.742m1.094,1.3a1.259,1.259,0,0,0-1.083-.544,1.288,1.288,0,0,0-1.094.544,2.471,2.471,0,0,0-.4,1.48,2.454,2.454,0,0,0,.4,1.479,1.292,1.292,0,0,0,1.094.539,1.27,1.27,0,0,0,1.078-.533,2.375,2.375,0,0,0,.4-1.452,2.519,2.519,0,0,0-.4-1.512m2.395-1.155h.759v.732a2.264,2.264,0,0,1,.709-.677,1.807,1.807,0,0,1,.886-.2,1.642,1.642,0,0,1,.836.192,1.553,1.553,0,0,1,.566.6,2.232,2.232,0,0,1,.715-.616,1.966,1.966,0,0,1,.875-.176,1.551,1.551,0,0,1,1.116.374,1.409,1.409,0,0,1,.39,1.067v3.893h-.836v-3.575a1.088,1.088,0,0,0-.253-.764.911.911,0,0,0-.7-.275,1.122,1.122,0,0,0-.863.4,1.376,1.376,0,0,0-.357.957v3.261h-.831v-3.575a1.072,1.072,0,0,0-.253-.764.9.9,0,0,0-.7-.275,1.122,1.122,0,0,0-.863.4,1.377,1.377,0,0,0-.358.957v3.261h-.83V665.4m9.027-2.035v1.045h-.83v-1.045h.83m.006,2.035v5.186h-.825V665.4h.825m5.608-2.035v7.22h-.726V669.9a2.125,2.125,0,0,1-.726.7,1.9,1.9,0,0,1-.929.214,1.994,1.994,0,0,1-1.649-.759,3.224,3.224,0,0,1-.605-2.067A3.046,3.046,0,0,1-821.1,666a1.972,1.972,0,0,1,1.616-.748,1.794,1.794,0,0,1,1.6.8v-2.689h.814m-2.266,2.656a1.3,1.3,0,0,0-1.094.556,2.372,2.372,0,0,0-.412,1.457,2.4,2.4,0,0,0,.412,1.463,1.316,1.316,0,0,0,1.1.549,1.237,1.237,0,0,0,1.051-.544,2.432,2.432,0,0,0,.4-1.451,2.483,2.483,0,0,0-.4-1.479,1.239,1.239,0,0,0-1.056-.55m3.511.907a1.922,1.922,0,0,1,.143-.709,1.4,1.4,0,0,1,.335-.484,1.522,1.522,0,0,1,.479-.292,2.293,2.293,0,0,1,.544-.153,3.854,3.854,0,0,1,.566-.039,2.448,2.448,0,0,1,1.457.363,1.209,1.209,0,0,1,.5,1.051v3.052a.4.4,0,0,0,.115.3.475.475,0,0,0,.33.1.535.535,0,0,0,.17-.028v.627a2.188,2.188,0,0,1-.561.088.867.867,0,0,1-.605-.187.887.887,0,0,1-.242-.572,2.965,2.965,0,0,1-.858.578,2.256,2.256,0,0,1-.908.181,1.783,1.783,0,0,1-1.242-.412,1.435,1.435,0,0,1-.457-1.122,1.319,1.319,0,0,1,.605-1.232,4.049,4.049,0,0,1,1.424-.4q.143-.016.544-.071a1.665,1.665,0,0,0,.677-.187.44.44,0,0,0,.187-.391v-.214a.65.65,0,0,0-.3-.572,1.526,1.526,0,0,0-.858-.2,1.419,1.419,0,0,0-.875.226.946.946,0,0,0-.341.693h-.83m1.649,3.162a1.684,1.684,0,0,0,1.116-.363,1.021,1.021,0,0,0,.44-.781v-.924a2.464,2.464,0,0,1-.588.165q-.368.061-.693.11a4.627,4.627,0,0,0-.627.143,1.012,1.012,0,0,0-.484.291.765.765,0,0,0-.182.528.751.751,0,0,0,.264.61,1.157,1.157,0,0,0,.753.221" transform="translate(-49.542 -69.918)"/>
      <path id="text3256" d="M-849.863,602.356a1.992,1.992,0,0,1-.583,1.5,2.136,2.136,0,0,1-1.546.561h-3.256v-7.22h2.925a2.821,2.821,0,0,1,.88.127,1.849,1.849,0,0,1,.616.308,1.6,1.6,0,0,1,.38.44,1.682,1.682,0,0,1,.209.489,2.033,2.033,0,0,1,.055.473,1.6,1.6,0,0,1-1,1.567,2.233,2.233,0,0,1,1,.687,1.74,1.74,0,0,1,.313,1.072m-1.237-3.194a1.279,1.279,0,0,0-.115-.572.773.773,0,0,0-.325-.358,1.5,1.5,0,0,0-.451-.17,2.692,2.692,0,0,0-.55-.049h-1.782v2.3h1.782a1.834,1.834,0,0,0,1.067-.264,1.016,1.016,0,0,0,.374-.885m-.978,4.437a1.61,1.61,0,0,0,.638-.115.932.932,0,0,0,.4-.313,1.452,1.452,0,0,0,.2-.4,1.387,1.387,0,0,0,.06-.407,1.245,1.245,0,0,0-.335-.913,1.289,1.289,0,0,0-.962-.341h-2.244V603.6h2.244m7.724-1.5h-3.827a3.454,3.454,0,0,0,.066.638,1.44,1.44,0,0,0,.209.467,1.394,1.394,0,0,0,1.254.677,1.344,1.344,0,0,0,1.352-1.039h.836a2.155,2.155,0,0,1-.747,1.32,2.248,2.248,0,0,1-1.474.478,2.164,2.164,0,0,1-1.727-.731,3.007,3.007,0,0,1-.627-2.013,3.075,3.075,0,0,1,.643-2.045,2.151,2.151,0,0,1,1.732-.77,2.291,2.291,0,0,1,1.282.363,2.1,2.1,0,0,1,.819,1,5,5,0,0,1,.209,1.655m-3.8-.677h2.9a.1.1,0,0,0,.011-.055,1.525,1.525,0,0,0-.413-1.083,1.337,1.337,0,0,0-1.022-.445,1.338,1.338,0,0,0-1.029.435,1.806,1.806,0,0,0-.451,1.149m4.742-4.229h.825v2.733a1.847,1.847,0,0,1,.671-.638,1.942,1.942,0,0,1,.929-.209,1.979,1.979,0,0,1,1.623.731,3.068,3.068,0,0,1,.594,1.991,3.233,3.233,0,0,1-.616,2.067,2,2,0,0,1-1.644.77,1.849,1.849,0,0,1-1.633-.885v.66h-.748v-7.22m2.266,2.656a1.234,1.234,0,0,0-1.051.55,2.462,2.462,0,0,0-.39,1.462,2.488,2.488,0,0,0,.39,1.468,1.239,1.239,0,0,0,1.051.544,1.31,1.31,0,0,0,1.094-.55,2.277,2.277,0,0,0,.423-1.43,2.444,2.444,0,0,0-.412-1.49,1.308,1.308,0,0,0-1.1-.555m7.772,2.249H-837.2a3.454,3.454,0,0,0,.066.638,1.444,1.444,0,0,0,.209.467,1.392,1.392,0,0,0,1.254.677,1.344,1.344,0,0,0,1.352-1.039h.836a2.155,2.155,0,0,1-.748,1.32,2.248,2.248,0,0,1-1.474.478,2.165,2.165,0,0,1-1.726-.731,3.007,3.007,0,0,1-.626-2.013,3.072,3.072,0,0,1,.643-2.045,2.149,2.149,0,0,1,1.731-.77,2.292,2.292,0,0,1,1.282.363,2.1,2.1,0,0,1,.819,1,5,5,0,0,1,.208,1.655m-3.8-.677h2.9a.1.1,0,0,0,.011-.055,1.524,1.524,0,0,0-.412-1.083,1.339,1.339,0,0,0-1.023-.445,1.336,1.336,0,0,0-1.028.435,1.8,1.8,0,0,0-.451,1.149m7.387-1.468a2.8,2.8,0,0,0-.688.082,1.385,1.385,0,0,0-.517.259,1.125,1.125,0,0,0-.346.544,3.01,3.01,0,0,0-.11.88v2.694h-.831v-5.185h.759v.935a3.167,3.167,0,0,1,.682-.83,1.18,1.18,0,0,1,.737-.253q.077,0,.314.028v.847m5.679,4.459h-.907l-1.82-5.185h.93l1.386,4.207,1.468-4.207h.93l-1.985,5.185m3.607-7.22v1.045h-.83v-1.045h.83m.006,2.035v5.185h-.825v-5.185h.825m1.407,0h.759v.869a2.356,2.356,0,0,1,.742-.781,1.909,1.909,0,0,1,.984-.236,1.762,1.762,0,0,1,1.193.385,1.291,1.291,0,0,1,.445,1.029v3.92h-.819v-3.591a.978.978,0,0,0-.291-.747,1.07,1.07,0,0,0-.776-.275,1.248,1.248,0,0,0-1.023.478,1.972,1.972,0,0,0-.385,1.271v2.865h-.83v-5.185m7.491-.148a2.124,2.124,0,0,1,1.732.742,3.134,3.134,0,0,1,.621,2.079,2.985,2.985,0,0,1-.626,2.007,2.143,2.143,0,0,1-1.716.731,2.136,2.136,0,0,1-1.727-.737,3.07,3.07,0,0,1-.621-2.04,3.069,3.069,0,0,1,.621-2.04,2.126,2.126,0,0,1,1.715-.742m1.094,1.3a1.259,1.259,0,0,0-1.083-.544,1.289,1.289,0,0,0-1.094.544,2.47,2.47,0,0,0-.4,1.479,2.456,2.456,0,0,0,.4,1.48,1.293,1.293,0,0,0,1.094.539,1.27,1.27,0,0,0,1.077-.534,2.372,2.372,0,0,0,.4-1.451,2.517,2.517,0,0,0-.4-1.512" transform="translate(-48.77 -54.152)"/>
    </g>
  </g>
</svg>
