<svg xmlns="http://www.w3.org/2000/svg" width="543.966" height="664.538" viewBox="0 0 543.966 664.538">
  <g id="Grupo_897736" data-name="Grupo 897736" transform="translate(-136 -9728.42)">
    <g id="Grupo_894906" data-name="Grupo 894906" transform="translate(6 411)">
      <g id="Grupo_880763" data-name="Grupo 880763" transform="translate(-765 7927.659)">
        <g id="Grupo_879317" data-name="Grupo 879317" transform="translate(895 2050.444) rotate(-90)">
          <path id="Trazado_601212" data-name="Trazado 601212" d="M261.467,33.937,33.937,261.467a19.878,19.878,0,0,1-28.114,0h0a19.88,19.88,0,0,1,0-28.114L233.352,5.823a19.88,19.88,0,0,1,28.114,0h0A19.88,19.88,0,0,1,261.467,33.937Z" fill="#edfbf9"/>
          <path id="Trazado_601213" data-name="Trazado 601213" d="M199.575,25.9,25.9,199.575a15.174,15.174,0,0,1-21.459,0h0a15.173,15.173,0,0,1,0-21.46L178.114,4.444a15.175,15.175,0,0,1,21.46,0h0A15.175,15.175,0,0,1,199.575,25.9Z" transform="translate(48.04 105.489)" fill="#edfbf9"/>
        </g>
        <g id="Grupo_873686" data-name="Grupo 873686" transform="translate(1003.192 1390.3)" opacity="0.502">
          <path id="Trazado_1" data-name="Trazado 1" d="M81.906-75.2-45.679,52.386q.886,5.472,2.293,10.756L92.662-72.906Q87.382-74.31,81.906-75.2Z" transform="translate(47.132 76.652)" fill="none" stroke="#275894" stroke-miterlimit="10" stroke-width="1.078"/>
          <path id="Trazado_2" data-name="Trazado 2" d="M92.853-72.715-43.195,63.333q1.344,5.054,3.134,9.915L102.768-69.581Q97.915-71.375,92.853-72.715Z" transform="translate(46.94 76.46)" fill="none" stroke="#275894" stroke-miterlimit="10" stroke-width="1.078"/>
          <path id="Trazado_3" data-name="Trazado 3" d="M137.61-48.491-18.971,108.09c1.984,2.357,4.054,4.639,6.226,6.823L144.433-42.265C142.249-44.436,139.967-46.507,137.61-48.491Z" transform="translate(45.073 74.593)" fill="none" stroke="#275894" stroke-miterlimit="10" stroke-width="1.078"/>
          <path id="Trazado_4" data-name="Trazado 4" d="M129.767-54.647l-154.9,154.9q2.694,3.8,5.682,7.367L137.135-48.966Q133.578-51.96,129.767-54.647Z" transform="translate(45.547 75.067)" fill="none" stroke="#275894" stroke-miterlimit="10" stroke-width="1.078"/>
          <path id="Trazado_5" data-name="Trazado 5" d="M112.528-65.12-35.6,83.008c1.387,2.913,2.911,5.746,4.537,8.512l152.1-152.1C118.274-62.209,115.44-63.733,112.528-65.12Z" transform="translate(46.355 75.875)" fill="none" stroke="#275894" stroke-miterlimit="10" stroke-width="1.078"/>
          <path id="Trazado_6" data-name="Trazado 6" d="M121.419-60.2-30.684,91.9q2.4,4.077,5.128,7.921l154.9-154.9Q125.495-57.8,121.419-60.2Z" transform="translate(45.976 75.496)" fill="none" stroke="#275894" stroke-miterlimit="10" stroke-width="1.078"/>
          <path id="Trazado_7" data-name="Trazado 7" d="M103.03-69.319-39.8,73.51q1.735,4.692,3.875,9.174L112.2-65.444Q107.723-67.577,103.03-69.319Z" transform="translate(46.678 76.198)" fill="none" stroke="#275894" stroke-miterlimit="10" stroke-width="1.078"/>
          <path id="Trazado_8" data-name="Trazado 8" d="M-38.97-5.484l63-63A111.455,111.455,0,0,0-38.97-5.484Z" transform="translate(46.614 76.134)" fill="none" stroke="#275894" stroke-miterlimit="10" stroke-width="1.078"/>
          <path id="Trazado_9" data-name="Trazado 9" d="M23.579-68.945l-63,63a110.174,110.174,0,0,0-5.459,18.508L42.088-74.4A110.213,110.213,0,0,0,23.579-68.945Z" transform="translate(47.07 76.59)" fill="none" stroke="#275894" stroke-miterlimit="10" stroke-width="1.078"/>
          <path id="Trazado_10" data-name="Trazado 10" d="M70.028-76.583-47.064,40.508A111.431,111.431,0,0,0-45.786,52.28L81.8-75.306A111.459,111.459,0,0,0,70.028-76.583Z" transform="translate(47.238 76.758)" fill="none" stroke="#275894" stroke-miterlimit="10" stroke-width="1.078"/>
          <path id="Trazado_11" data-name="Trazado 11" d="M63.9-76.773c-2.353,0-4.682.1-7,.242L-47.011,27.378c-.144,2.317-.242,4.646-.242,7,0,2.053.065,4.09.174,6.116L70.013-76.6C67.987-76.707,65.95-76.773,63.9-76.773Z" transform="translate(47.253 76.773)" fill="none" stroke="#275894" stroke-miterlimit="10" stroke-width="1.078"/>
          <path id="Trazado_12" data-name="Trazado 12" d="M41.925-74.567-45.047,12.405A111.2,111.2,0,0,0-46.991,27.4L56.917-76.511A111.347,111.347,0,0,0,41.925-74.567Z" transform="translate(47.233 76.753)" fill="none" stroke="#275894" stroke-miterlimit="10" stroke-width="1.078"/>
          <path id="Trazado_13" data-name="Trazado 13" d="M181.176,23.422,52.941,151.656a111.246,111.246,0,0,0,11.7,1.353L182.529,35.118A111.193,111.193,0,0,0,181.176,23.422Z" transform="translate(39.529 69.049)" fill="none" stroke="#275894" stroke-miterlimit="10" stroke-width="1.078"/>
          <path id="Trazado_14" data-name="Trazado 14" d="M183.747,43.078c0-2.348-.1-4.672-.241-6.983L65.614,153.986c2.312.144,4.636.241,6.983.241,2.011,0,4.006-.06,5.991-.165L183.582,49.068C183.687,47.084,183.747,45.088,183.747,43.078Z" transform="translate(38.552 68.072)" fill="none" stroke="#275894" stroke-miterlimit="10" stroke-width="1.078"/>
          <path id="Trazado_15" data-name="Trazado 15" d="M184.665,50.152,79.671,155.145a111.2,111.2,0,0,0,14.866-1.817l88.311-88.31A111.374,111.374,0,0,0,184.665,50.152Z" transform="translate(37.469 66.989)" fill="none" stroke="#275894" stroke-miterlimit="10" stroke-width="1.078"/>
          <path id="Trazado_16" data-name="Trazado 16" d="M184.09,66.26,95.779,154.57a110.257,110.257,0,0,0,18.1-5.056l65.15-65.149A110.459,110.459,0,0,0,184.09,66.26Z" transform="translate(36.227 65.747)" fill="none" stroke="#275894" stroke-miterlimit="10" stroke-width="1.078"/>
          <path id="Trazado_17" data-name="Trazado 17" d="M180.546,85.877,115.4,151.026A111.463,111.463,0,0,0,180.546,85.877Z" transform="translate(34.715 64.235)" fill="none" stroke="#275894" stroke-miterlimit="10" stroke-width="1.078"/>
          <path id="Trazado_18" data-name="Trazado 18" d="M177.925,11.837,41.357,148.406q5.248,1.434,10.691,2.357L180.283,22.529Q179.363,17.088,177.925,11.837Z" transform="translate(40.422 69.942)" fill="none" stroke="#275894" stroke-miterlimit="10" stroke-width="1.078"/>
          <path id="Trazado_19" data-name="Trazado 19" d="M158.118-26.455,3.065,128.6c2.549,1.829,5.17,3.562,7.874,5.175L163.293-18.581C161.681-21.285,159.947-23.906,158.118-26.455Z" transform="translate(43.374 72.894)" fill="none" stroke="#275894" stroke-miterlimit="10" stroke-width="1.078"/>
          <path id="Trazado_20" data-name="Trazado 20" d="M151.779-34.388-4.869,122.26q3.537,3.012,7.322,5.727L157.507-27.067Q154.792-30.849,151.779-34.388Z" transform="translate(43.986 73.506)" fill="none" stroke="#275894" stroke-miterlimit="10" stroke-width="1.078"/>
          <path id="Trazado_21" data-name="Trazado 21" d="M173.91,1.157,30.676,144.39q4.826,1.822,9.858,3.192L177.1,11.014Q175.728,5.987,173.91,1.157Z" transform="translate(41.246 70.766)" fill="none" stroke="#275894" stroke-miterlimit="10" stroke-width="1.078"/>
          <path id="Trazado_22" data-name="Trazado 22" d="M144.953-41.745-12.225,115.433c2.17,2.184,4.445,4.262,6.789,6.26L151.212-34.955C149.214-37.3,147.136-39.574,144.953-41.745Z" transform="translate(44.553 74.073)" fill="none" stroke="#275894" stroke-miterlimit="10" stroke-width="1.078"/>
          <path id="Trazado_23" data-name="Trazado 23" d="M169.237-8.746,20.773,139.717c2.973,1.44,6.027,2.735,9.14,3.909L173.147.394C171.972-2.72,170.676-5.774,169.237-8.746Z" transform="translate(42.009 71.529)" fill="none" stroke="#275894" stroke-miterlimit="10" stroke-width="1.078"/>
          <path id="Trazado_24" data-name="Trazado 24" d="M163.951-17.923,11.6,134.431c2.75,1.641,5.571,3.177,8.469,4.58L168.53-9.453C167.127-12.352,165.591-15.172,163.951-17.923Z" transform="translate(42.716 72.236)" fill="none" stroke="#275894" stroke-miterlimit="10" stroke-width="1.078"/>
        </g>
        <g id="Grupo_873687" data-name="Grupo 873687" transform="translate(1215.92 1831.253)">
          <g id="Grupo_68" data-name="Grupo 68" transform="translate(98.044 0)">
            <g id="Grupo_67" data-name="Grupo 67" transform="translate(0)">
              <rect id="Rectángulo_193" data-name="Rectángulo 193" width="3.921" height="3.921" transform="translate(119.458 122.23) rotate(-44.999)" fill="#8f9294"/>
              <rect id="Rectángulo_194" data-name="Rectángulo 194" width="3.721" height="3.721" transform="translate(108.598 111.229) rotate(-45)" fill="#8f9294"/>
              <rect id="Rectángulo_195" data-name="Rectángulo 195" width="3.521" height="3.521" transform="translate(97.738 100.228) rotate(-45)" fill="#8f9294"/>
              <rect id="Rectángulo_196" data-name="Rectángulo 196" width="3.322" height="3.322" transform="matrix(0.707, -0.707, 0.707, 0.707, 86.878, 89.227)" fill="#8f9294"/>
              <rect id="Rectángulo_197" data-name="Rectángulo 197" width="3.122" height="3.122" transform="translate(76.019 78.226) rotate(-45)" fill="#8f9294"/>
              <rect id="Rectángulo_198" data-name="Rectángulo 198" width="2.922" height="2.922" transform="matrix(0.707, -0.707, 0.707, 0.707, 65.159, 67.225)" fill="#8f9294"/>
              <rect id="Rectángulo_199" data-name="Rectángulo 199" width="2.723" height="2.723" transform="translate(54.299 56.224) rotate(-45)" fill="#8f9294"/>
              <rect id="Rectángulo_200" data-name="Rectángulo 200" width="2.523" height="2.523" transform="translate(43.439 45.223) rotate(-45.001)" fill="#8f9294"/>
              <rect id="Rectángulo_201" data-name="Rectángulo 201" width="2.324" height="2.324" transform="translate(32.579 34.222) rotate(-45)" fill="#8f9294"/>
              <rect id="Rectángulo_202" data-name="Rectángulo 202" width="2.124" height="2.124" transform="matrix(0.707, -0.707, 0.707, 0.707, 21.72, 23.222)" fill="#8f9294"/>
              <rect id="Rectángulo_203" data-name="Rectángulo 203" width="1.924" height="1.924" transform="translate(10.86 12.221) rotate(-45)" fill="#8f9294"/>
              <rect id="Rectángulo_204" data-name="Rectángulo 204" width="1.725" height="1.725" transform="matrix(0.707, -0.707, 0.707, 0.707, 0, 1.22)" fill="#8f9294"/>
            </g>
          </g>
          <g id="Grupo_70" data-name="Grupo 70" transform="translate(89.131 8.913)">
            <g id="Grupo_69" data-name="Grupo 69" transform="translate(0 0)">
              <rect id="Rectángulo_205" data-name="Rectángulo 205" width="3.921" height="3.921" transform="translate(119.458 122.23) rotate(-44.999)" fill="#8f9294"/>
              <rect id="Rectángulo_206" data-name="Rectángulo 206" width="3.721" height="3.721" transform="translate(108.598 111.229) rotate(-45)" fill="#8f9294"/>
              <rect id="Rectángulo_207" data-name="Rectángulo 207" width="3.521" height="3.521" transform="translate(97.738 100.228) rotate(-44.999)" fill="#8f9294"/>
              <rect id="Rectángulo_208" data-name="Rectángulo 208" width="3.322" height="3.322" transform="translate(86.878 89.227) rotate(-45)" fill="#8f9294"/>
              <rect id="Rectángulo_209" data-name="Rectángulo 209" width="3.122" height="3.122" transform="translate(76.019 78.226) rotate(-45)" fill="#8f9294"/>
              <rect id="Rectángulo_210" data-name="Rectángulo 210" width="2.922" height="2.922" transform="translate(65.159 67.225) rotate(-45)" fill="#8f9294"/>
              <rect id="Rectángulo_211" data-name="Rectángulo 211" width="2.723" height="2.723" transform="translate(54.299 56.224) rotate(-45)" fill="#8f9294"/>
              <rect id="Rectángulo_212" data-name="Rectángulo 212" width="2.523" height="2.523" transform="translate(43.439 45.223) rotate(-45)" fill="#8f9294"/>
              <rect id="Rectángulo_213" data-name="Rectángulo 213" width="2.324" height="2.324" transform="translate(32.579 34.222) rotate(-45)" fill="#8f9294"/>
              <rect id="Rectángulo_214" data-name="Rectángulo 214" width="2.124" height="2.124" transform="translate(21.72 23.221) rotate(-45)" fill="#8f9294"/>
              <rect id="Rectángulo_215" data-name="Rectángulo 215" width="1.924" height="1.924" transform="translate(10.86 12.221) rotate(-45)" fill="#8f9294"/>
              <rect id="Rectángulo_216" data-name="Rectángulo 216" width="1.725" height="1.725" transform="matrix(0.707, -0.707, 0.707, 0.707, 0, 1.22)" fill="#8f9294"/>
            </g>
          </g>
          <g id="Grupo_72" data-name="Grupo 72" transform="translate(80.218 17.826)">
            <g id="Grupo_71" data-name="Grupo 71" transform="translate(0 0)">
              <rect id="Rectángulo_217" data-name="Rectángulo 217" width="3.921" height="3.921" transform="translate(119.458 122.23) rotate(-44.999)" fill="#8f9294"/>
              <rect id="Rectángulo_218" data-name="Rectángulo 218" width="3.721" height="3.721" transform="translate(108.598 111.229) rotate(-44.999)" fill="#8f9294"/>
              <rect id="Rectángulo_219" data-name="Rectángulo 219" width="3.521" height="3.521" transform="translate(97.738 100.228) rotate(-44.999)" fill="#8f9294"/>
              <rect id="Rectángulo_220" data-name="Rectángulo 220" width="3.322" height="3.322" transform="matrix(0.707, -0.707, 0.707, 0.707, 86.878, 89.227)" fill="#8f9294"/>
              <rect id="Rectángulo_221" data-name="Rectángulo 221" width="3.122" height="3.122" transform="translate(76.019 78.226) rotate(-44.999)" fill="#8f9294"/>
              <rect id="Rectángulo_222" data-name="Rectángulo 222" width="2.923" height="2.923" transform="matrix(0.707, -0.707, 0.707, 0.707, 65.159, 67.225)" fill="#8f9294"/>
              <rect id="Rectángulo_223" data-name="Rectángulo 223" width="2.723" height="2.723" transform="matrix(0.707, -0.707, 0.707, 0.707, 54.299, 56.224)" fill="#8f9294"/>
              <rect id="Rectángulo_224" data-name="Rectángulo 224" width="2.523" height="2.523" transform="translate(43.439 45.223) rotate(-44.999)" fill="#8f9294"/>
              <rect id="Rectángulo_225" data-name="Rectángulo 225" width="2.324" height="2.324" transform="translate(32.579 34.222) rotate(-45)" fill="#8f9294"/>
              <rect id="Rectángulo_226" data-name="Rectángulo 226" width="2.124" height="2.124" transform="translate(21.72 23.221) rotate(-44.998)" fill="#8f9294"/>
              <rect id="Rectángulo_227" data-name="Rectángulo 227" width="1.924" height="1.924" transform="translate(10.86 12.221) rotate(-45)" fill="#8f9294"/>
              <rect id="Rectángulo_228" data-name="Rectángulo 228" width="1.725" height="1.725" transform="matrix(0.707, -0.707, 0.707, 0.707, 0, 1.22)" fill="#8f9294"/>
            </g>
          </g>
          <g id="Grupo_74" data-name="Grupo 74" transform="translate(71.305 26.739)">
            <g id="Grupo_73" data-name="Grupo 73" transform="translate(0 0)">
              <rect id="Rectángulo_229" data-name="Rectángulo 229" width="3.921" height="3.921" transform="translate(119.458 122.23) rotate(-45.001)" fill="#8f9294"/>
              <rect id="Rectángulo_230" data-name="Rectángulo 230" width="3.721" height="3.721" transform="translate(108.598 111.229) rotate(-45.001)" fill="#8f9294"/>
              <rect id="Rectángulo_231" data-name="Rectángulo 231" width="3.521" height="3.521" transform="translate(97.738 100.228) rotate(-45)" fill="#8f9294"/>
              <rect id="Rectángulo_232" data-name="Rectángulo 232" width="3.322" height="3.322" transform="matrix(0.707, -0.707, 0.707, 0.707, 86.878, 89.227)" fill="#8f9294"/>
              <rect id="Rectángulo_233" data-name="Rectángulo 233" width="3.122" height="3.122" transform="translate(76.019 78.226) rotate(-45)" fill="#8f9294"/>
              <rect id="Rectángulo_234" data-name="Rectángulo 234" width="2.923" height="2.923" transform="matrix(0.707, -0.707, 0.707, 0.707, 65.159, 67.225)" fill="#8f9294"/>
              <rect id="Rectángulo_235" data-name="Rectángulo 235" width="2.723" height="2.723" transform="translate(54.299 56.224) rotate(-45)" fill="#8f9294"/>
              <rect id="Rectángulo_236" data-name="Rectángulo 236" width="2.523" height="2.523" transform="translate(43.439 45.223) rotate(-45.001)" fill="#8f9294"/>
              <rect id="Rectángulo_237" data-name="Rectángulo 237" width="2.324" height="2.324" transform="translate(32.579 34.222) rotate(-45)" fill="#8f9294"/>
              <rect id="Rectángulo_238" data-name="Rectángulo 238" width="2.124" height="2.124" transform="translate(21.72 23.221) rotate(-45)" fill="#8f9294"/>
              <rect id="Rectángulo_239" data-name="Rectángulo 239" width="1.924" height="1.924" transform="translate(10.86 12.221) rotate(-45)" fill="#8f9294"/>
              <rect id="Rectángulo_240" data-name="Rectángulo 240" width="1.725" height="1.725" transform="translate(0 1.22) rotate(-44.998)" fill="#8f9294"/>
            </g>
          </g>
          <g id="Grupo_76" data-name="Grupo 76" transform="translate(62.392 35.653)">
            <g id="Grupo_75" data-name="Grupo 75" transform="translate(0 0)">
              <rect id="Rectángulo_241" data-name="Rectángulo 241" width="3.921" height="3.921" transform="translate(119.458 122.23) rotate(-45.001)" fill="#8f9294"/>
              <rect id="Rectángulo_242" data-name="Rectángulo 242" width="3.721" height="3.721" transform="translate(108.598 111.229) rotate(-45.001)" fill="#8f9294"/>
              <rect id="Rectángulo_243" data-name="Rectángulo 243" width="3.521" height="3.521" transform="translate(97.738 100.228) rotate(-45)" fill="#8f9294"/>
              <rect id="Rectángulo_244" data-name="Rectángulo 244" width="3.322" height="3.322" transform="matrix(0.707, -0.707, 0.707, 0.707, 86.878, 89.227)" fill="#8f9294"/>
              <rect id="Rectángulo_245" data-name="Rectángulo 245" width="3.122" height="3.122" transform="translate(76.019 78.226) rotate(-45)" fill="#8f9294"/>
              <rect id="Rectángulo_246" data-name="Rectángulo 246" width="2.923" height="2.923" transform="translate(65.159 67.225) rotate(-45.001)" fill="#8f9294"/>
              <rect id="Rectángulo_247" data-name="Rectángulo 247" width="2.723" height="2.723" transform="translate(54.299 56.224) rotate(-45)" fill="#8f9294"/>
              <rect id="Rectángulo_248" data-name="Rectángulo 248" width="2.523" height="2.523" transform="translate(43.439 45.223) rotate(-45.001)" fill="#8f9294"/>
              <rect id="Rectángulo_249" data-name="Rectángulo 249" width="2.324" height="2.324" transform="translate(32.579 34.222) rotate(-45)" fill="#8f9294"/>
              <rect id="Rectángulo_250" data-name="Rectángulo 250" width="2.124" height="2.124" transform="matrix(0.707, -0.707, 0.707, 0.707, 21.72, 23.222)" fill="#8f9294"/>
              <rect id="Rectángulo_251" data-name="Rectángulo 251" width="1.924" height="1.924" transform="translate(10.86 12.22) rotate(-45)" fill="#8f9294"/>
              <rect id="Rectángulo_252" data-name="Rectángulo 252" width="1.725" height="1.725" transform="matrix(0.707, -0.707, 0.707, 0.707, 0, 1.22)" fill="#8f9294"/>
            </g>
          </g>
          <g id="Grupo_78" data-name="Grupo 78" transform="translate(53.479 44.566)">
            <g id="Grupo_77" data-name="Grupo 77" transform="translate(0 0)">
              <rect id="Rectángulo_253" data-name="Rectángulo 253" width="3.921" height="3.921" transform="translate(119.458 122.23) rotate(-45)" fill="#8f9294"/>
              <rect id="Rectángulo_254" data-name="Rectángulo 254" width="3.721" height="3.721" transform="translate(108.598 111.229) rotate(-45)" fill="#8f9294"/>
              <rect id="Rectángulo_255" data-name="Rectángulo 255" width="3.521" height="3.521" transform="translate(97.738 100.228) rotate(-45.001)" fill="#8f9294"/>
              <rect id="Rectángulo_256" data-name="Rectángulo 256" width="3.322" height="3.322" transform="matrix(0.707, -0.707, 0.707, 0.707, 86.878, 89.227)" fill="#8f9294"/>
              <rect id="Rectángulo_257" data-name="Rectángulo 257" width="3.122" height="3.122" transform="matrix(0.707, -0.707, 0.707, 0.707, 76.019, 78.226)" fill="#8f9294"/>
              <rect id="Rectángulo_258" data-name="Rectángulo 258" width="2.922" height="2.922" transform="matrix(0.707, -0.707, 0.707, 0.707, 65.159, 67.225)" fill="#8f9294"/>
              <rect id="Rectángulo_259" data-name="Rectángulo 259" width="2.723" height="2.723" transform="translate(54.299 56.224) rotate(-45)" fill="#8f9294"/>
              <rect id="Rectángulo_260" data-name="Rectángulo 260" width="2.523" height="2.523" transform="translate(43.439 45.223) rotate(-45.001)" fill="#8f9294"/>
              <rect id="Rectángulo_261" data-name="Rectángulo 261" width="2.324" height="2.324" transform="translate(32.579 34.222) rotate(-45)" fill="#8f9294"/>
              <rect id="Rectángulo_262" data-name="Rectángulo 262" width="2.124" height="2.124" transform="matrix(0.707, -0.707, 0.707, 0.707, 21.72, 23.221)" fill="#8f9294"/>
              <rect id="Rectángulo_263" data-name="Rectángulo 263" width="1.924" height="1.924" transform="translate(10.86 12.221) rotate(-45)" fill="#8f9294"/>
              <rect id="Rectángulo_264" data-name="Rectángulo 264" width="1.725" height="1.725" transform="matrix(0.707, -0.707, 0.707, 0.707, 0, 1.22)" fill="#8f9294"/>
            </g>
          </g>
          <g id="Grupo_80" data-name="Grupo 80" transform="translate(44.566 53.479)">
            <g id="Grupo_79" data-name="Grupo 79" transform="translate(0 0)">
              <rect id="Rectángulo_265" data-name="Rectángulo 265" width="3.921" height="3.921" transform="translate(119.458 122.23) rotate(-44.999)" fill="#8f9294"/>
              <rect id="Rectángulo_266" data-name="Rectángulo 266" width="3.721" height="3.721" transform="translate(108.598 111.229) rotate(-45)" fill="#8f9294"/>
              <rect id="Rectángulo_267" data-name="Rectángulo 267" width="3.521" height="3.521" transform="translate(97.738 100.228) rotate(-44.999)" fill="#8f9294"/>
              <rect id="Rectángulo_268" data-name="Rectángulo 268" width="3.322" height="3.322" transform="translate(86.878 89.227) rotate(-45)" fill="#8f9294"/>
              <rect id="Rectángulo_269" data-name="Rectángulo 269" width="3.122" height="3.122" transform="translate(76.018 78.226) rotate(-44.999)" fill="#8f9294"/>
              <rect id="Rectángulo_270" data-name="Rectángulo 270" width="2.922" height="2.922" transform="matrix(0.707, -0.707, 0.707, 0.707, 65.159, 67.225)" fill="#8f9294"/>
              <rect id="Rectángulo_271" data-name="Rectángulo 271" width="2.723" height="2.723" transform="matrix(0.707, -0.707, 0.707, 0.707, 54.299, 56.224)" fill="#8f9294"/>
              <rect id="Rectángulo_272" data-name="Rectángulo 272" width="2.523" height="2.523" transform="translate(43.439 45.223) rotate(-45.001)" fill="#8f9294"/>
              <rect id="Rectángulo_273" data-name="Rectángulo 273" width="2.324" height="2.324" transform="translate(32.579 34.222) rotate(-45)" fill="#8f9294"/>
              <rect id="Rectángulo_274" data-name="Rectángulo 274" width="2.124" height="2.124" transform="translate(21.72 23.221) rotate(-45.002)" fill="#8f9294"/>
              <rect id="Rectángulo_275" data-name="Rectángulo 275" width="1.924" height="1.924" transform="translate(10.86 12.221) rotate(-45)" fill="#8f9294"/>
              <rect id="Rectángulo_276" data-name="Rectángulo 276" width="1.725" height="1.725" transform="matrix(0.707, -0.707, 0.707, 0.707, 0, 1.22)" fill="#8f9294"/>
            </g>
          </g>
          <g id="Grupo_82" data-name="Grupo 82" transform="translate(35.652 62.392)">
            <g id="Grupo_81" data-name="Grupo 81" transform="translate(0 0)">
              <rect id="Rectángulo_277" data-name="Rectángulo 277" width="3.921" height="3.921" transform="translate(119.458 122.23) rotate(-44.999)" fill="#8f9294"/>
              <rect id="Rectángulo_278" data-name="Rectángulo 278" width="3.721" height="3.721" transform="translate(108.598 111.229) rotate(-45)" fill="#8f9294"/>
              <rect id="Rectángulo_279" data-name="Rectángulo 279" width="3.521" height="3.521" transform="translate(97.738 100.228) rotate(-44.999)" fill="#8f9294"/>
              <rect id="Rectángulo_280" data-name="Rectángulo 280" width="3.322" height="3.322" transform="translate(86.878 89.227) rotate(-45)" fill="#8f9294"/>
              <rect id="Rectángulo_281" data-name="Rectángulo 281" width="3.122" height="3.122" transform="translate(76.019 78.226) rotate(-44.999)" fill="#8f9294"/>
              <rect id="Rectángulo_282" data-name="Rectángulo 282" width="2.922" height="2.922" transform="translate(65.159 67.225) rotate(-45)" fill="#8f9294"/>
              <rect id="Rectángulo_283" data-name="Rectángulo 283" width="2.723" height="2.723" transform="matrix(0.707, -0.707, 0.707, 0.707, 54.299, 56.224)" fill="#8f9294"/>
              <rect id="Rectángulo_284" data-name="Rectángulo 284" width="2.523" height="2.523" transform="translate(43.439 45.223) rotate(-45)" fill="#8f9294"/>
              <rect id="Rectángulo_285" data-name="Rectángulo 285" width="2.324" height="2.324" transform="translate(32.579 34.222) rotate(-45)" fill="#8f9294"/>
              <rect id="Rectángulo_286" data-name="Rectángulo 286" width="2.124" height="2.124" transform="translate(21.72 23.221) rotate(-45)" fill="#8f9294"/>
              <rect id="Rectángulo_287" data-name="Rectángulo 287" width="1.924" height="1.924" transform="translate(10.86 12.221) rotate(-45)" fill="#8f9294"/>
              <rect id="Rectángulo_288" data-name="Rectángulo 288" width="1.725" height="1.725" transform="matrix(0.707, -0.707, 0.707, 0.707, 0, 1.22)" fill="#8f9294"/>
            </g>
          </g>
          <g id="Grupo_84" data-name="Grupo 84" transform="translate(26.739 71.305)">
            <g id="Grupo_83" data-name="Grupo 83" transform="translate(0 0)">
              <rect id="Rectángulo_289" data-name="Rectángulo 289" width="3.921" height="3.921" transform="translate(119.458 122.23) rotate(-44.999)" fill="#8f9294"/>
              <rect id="Rectángulo_290" data-name="Rectángulo 290" width="3.721" height="3.721" transform="translate(108.598 111.229) rotate(-44.999)" fill="#8f9294"/>
              <rect id="Rectángulo_291" data-name="Rectángulo 291" width="3.521" height="3.521" transform="translate(97.738 100.228) rotate(-44.999)" fill="#8f9294"/>
              <rect id="Rectángulo_292" data-name="Rectángulo 292" width="3.322" height="3.322" transform="matrix(0.707, -0.707, 0.707, 0.707, 86.878, 89.227)" fill="#8f9294"/>
              <rect id="Rectángulo_293" data-name="Rectángulo 293" width="3.122" height="3.122" transform="translate(76.019 78.226) rotate(-44.999)" fill="#8f9294"/>
              <rect id="Rectángulo_294" data-name="Rectángulo 294" width="2.923" height="2.923" transform="matrix(0.707, -0.707, 0.707, 0.707, 65.159, 67.225)" fill="#8f9294"/>
              <rect id="Rectángulo_295" data-name="Rectángulo 295" width="2.723" height="2.723" transform="matrix(0.707, -0.707, 0.707, 0.707, 54.299, 56.224)" fill="#8f9294"/>
              <rect id="Rectángulo_296" data-name="Rectángulo 296" width="2.523" height="2.523" transform="translate(43.439 45.223) rotate(-44.999)" fill="#8f9294"/>
              <rect id="Rectángulo_297" data-name="Rectángulo 297" width="2.324" height="2.324" transform="matrix(0.707, -0.707, 0.707, 0.707, 32.579, 34.222)" fill="#8f9294"/>
              <rect id="Rectángulo_298" data-name="Rectángulo 298" width="2.124" height="2.124" transform="translate(21.72 23.221) rotate(-44.998)" fill="#8f9294"/>
              <rect id="Rectángulo_299" data-name="Rectángulo 299" width="1.924" height="1.924" transform="translate(10.86 12.22) rotate(-44.998)" fill="#8f9294"/>
              <rect id="Rectángulo_300" data-name="Rectángulo 300" width="1.725" height="1.725" transform="translate(0 1.22) rotate(-44.998)" fill="#8f9294"/>
            </g>
          </g>
          <g id="Grupo_86" data-name="Grupo 86" transform="translate(17.826 80.218)">
            <g id="Grupo_85" data-name="Grupo 85" transform="translate(0 0)">
              <rect id="Rectángulo_301" data-name="Rectángulo 301" width="3.921" height="3.921" transform="matrix(0.707, -0.707, 0.707, 0.707, 119.458, 122.23)" fill="#8f9294"/>
              <rect id="Rectángulo_302" data-name="Rectángulo 302" width="3.721" height="3.721" transform="translate(108.598 111.229) rotate(-45.001)" fill="#8f9294"/>
              <rect id="Rectángulo_303" data-name="Rectángulo 303" width="3.521" height="3.521" transform="translate(97.738 100.228) rotate(-45.001)" fill="#8f9294"/>
              <rect id="Rectángulo_304" data-name="Rectángulo 304" width="3.322" height="3.322" transform="matrix(0.707, -0.707, 0.707, 0.707, 86.878, 89.227)" fill="#8f9294"/>
              <rect id="Rectángulo_305" data-name="Rectángulo 305" width="3.122" height="3.122" transform="translate(76.019 78.226) rotate(-45)" fill="#8f9294"/>
              <rect id="Rectángulo_306" data-name="Rectángulo 306" width="2.923" height="2.923" transform="translate(65.159 67.225) rotate(-45.001)" fill="#8f9294"/>
              <rect id="Rectángulo_307" data-name="Rectángulo 307" width="2.723" height="2.723" transform="translate(54.299 56.224) rotate(-45)" fill="#8f9294"/>
              <rect id="Rectángulo_308" data-name="Rectángulo 308" width="2.523" height="2.523" transform="translate(43.439 45.223) rotate(-45.001)" fill="#8f9294"/>
              <rect id="Rectángulo_309" data-name="Rectángulo 309" width="2.324" height="2.324" transform="translate(32.579 34.222) rotate(-45)" fill="#8f9294"/>
              <rect id="Rectángulo_310" data-name="Rectángulo 310" width="2.124" height="2.124" transform="translate(21.72 23.222) rotate(-45)" fill="#8f9294"/>
              <rect id="Rectángulo_311" data-name="Rectángulo 311" width="1.924" height="1.924" transform="translate(10.86 12.221) rotate(-45)" fill="#8f9294"/>
              <rect id="Rectángulo_312" data-name="Rectángulo 312" width="1.725" height="1.725" transform="translate(0 1.22) rotate(-45)" fill="#8f9294"/>
            </g>
          </g>
          <g id="Grupo_88" data-name="Grupo 88" transform="translate(8.913 89.131)">
            <g id="Grupo_87" data-name="Grupo 87" transform="translate(0 0)">
              <rect id="Rectángulo_313" data-name="Rectángulo 313" width="3.921" height="3.921" transform="translate(119.458 122.23) rotate(-45)" fill="#8f9294"/>
              <rect id="Rectángulo_314" data-name="Rectángulo 314" width="3.721" height="3.721" transform="translate(108.598 111.229) rotate(-45)" fill="#8f9294"/>
              <rect id="Rectángulo_315" data-name="Rectángulo 315" width="3.521" height="3.521" transform="translate(97.738 100.228) rotate(-45)" fill="#8f9294"/>
              <rect id="Rectángulo_316" data-name="Rectángulo 316" width="3.322" height="3.322" transform="matrix(0.707, -0.707, 0.707, 0.707, 86.878, 89.227)" fill="#8f9294"/>
              <rect id="Rectángulo_317" data-name="Rectángulo 317" width="3.122" height="3.122" transform="translate(76.018 78.226) rotate(-45.001)" fill="#8f9294"/>
              <rect id="Rectángulo_318" data-name="Rectángulo 318" width="2.923" height="2.923" transform="matrix(0.707, -0.707, 0.707, 0.707, 65.159, 67.225)" fill="#8f9294"/>
              <rect id="Rectángulo_319" data-name="Rectángulo 319" width="2.723" height="2.723" transform="translate(54.299 56.224) rotate(-45)" fill="#8f9294"/>
              <rect id="Rectángulo_320" data-name="Rectángulo 320" width="2.523" height="2.523" transform="translate(43.439 45.223) rotate(-45.001)" fill="#8f9294"/>
              <rect id="Rectángulo_321" data-name="Rectángulo 321" width="2.324" height="2.324" transform="translate(32.579 34.222) rotate(-45)" fill="#8f9294"/>
              <rect id="Rectángulo_322" data-name="Rectángulo 322" width="2.124" height="2.124" transform="matrix(0.707, -0.707, 0.707, 0.707, 21.72, 23.221)" fill="#8f9294"/>
              <rect id="Rectángulo_323" data-name="Rectángulo 323" width="1.924" height="1.924" transform="translate(10.86 12.221) rotate(-45)" fill="#8f9294"/>
              <rect id="Rectángulo_324" data-name="Rectángulo 324" width="1.725" height="1.725" transform="matrix(0.707, -0.707, 0.707, 0.707, 0, 1.22)" fill="#8f9294"/>
            </g>
          </g>
          <g id="Grupo_90" data-name="Grupo 90" transform="translate(0 98.044)">
            <g id="Grupo_89" data-name="Grupo 89" transform="translate(0 0)">
              <rect id="Rectángulo_325" data-name="Rectángulo 325" width="3.921" height="3.921" transform="translate(119.458 122.23) rotate(-45)" fill="#8f9294"/>
              <rect id="Rectángulo_326" data-name="Rectángulo 326" width="3.721" height="3.721" transform="translate(108.598 111.229) rotate(-45)" fill="#8f9294"/>
              <rect id="Rectángulo_327" data-name="Rectángulo 327" width="3.521" height="3.521" transform="translate(97.738 100.228) rotate(-45)" fill="#8f9294"/>
              <rect id="Rectángulo_328" data-name="Rectángulo 328" width="3.322" height="3.322" transform="translate(86.878 89.227) rotate(-45)" fill="#8f9294"/>
              <rect id="Rectángulo_329" data-name="Rectángulo 329" width="3.122" height="3.122" transform="translate(76.019 78.226) rotate(-45)" fill="#8f9294"/>
              <rect id="Rectángulo_330" data-name="Rectángulo 330" width="2.922" height="2.922" transform="translate(65.159 67.225) rotate(-45)" fill="#8f9294"/>
              <rect id="Rectángulo_331" data-name="Rectángulo 331" width="2.723" height="2.723" transform="matrix(0.707, -0.707, 0.707, 0.707, 54.299, 56.224)" fill="#8f9294"/>
              <rect id="Rectángulo_332" data-name="Rectángulo 332" width="2.523" height="2.523" transform="translate(43.439 45.223) rotate(-45.001)" fill="#8f9294"/>
              <rect id="Rectángulo_333" data-name="Rectángulo 333" width="2.324" height="2.324" transform="translate(32.579 34.222) rotate(-45.002)" fill="#8f9294"/>
              <rect id="Rectángulo_334" data-name="Rectángulo 334" width="2.124" height="2.124" transform="translate(21.72 23.221) rotate(-45.002)" fill="#8f9294"/>
              <rect id="Rectángulo_335" data-name="Rectángulo 335" width="1.924" height="1.924" transform="matrix(0.707, -0.707, 0.707, 0.707, 10.86, 12.221)" fill="#8f9294"/>
              <rect id="Rectángulo_336" data-name="Rectángulo 336" width="1.725" height="1.725" transform="matrix(0.707, -0.707, 0.707, 0.707, 0, 1.22)" fill="#8f9294"/>
            </g>
          </g>
        </g>
        <g id="Grupo_879320" data-name="Grupo 879320" transform="translate(1348.782 1736.728)">
          <path id="Trazado_34" data-name="Trazado 34" d="M696.457,390.082l-9.14,15.83H705.6Z" transform="translate(-687.318 -257.043)" fill="#fdfdfd"/>
          <path id="Trazado_35" data-name="Trazado 35" d="M696.457,361.354l-9.14,15.83H705.6Z" transform="translate(-687.318 -254.828)" fill="#fdfdfd"/>
          <path id="Trazado_36" data-name="Trazado 36" d="M696.457,332.626l-9.14,15.83H705.6Z" transform="translate(-687.318 -252.614)" fill="#fdfdfd"/>
          <path id="Trazado_37" data-name="Trazado 37" d="M696.778,245.931l-5.3,9.184h10.6Z" transform="translate(-687.638 -245.931)" fill="#f13b76"/>
        </g>
      </g>
      <g id="Software_requirement_description" data-name="Software requirement description" transform="translate(-1129.485 9238.359)">
        <path id="Trazado_623556" data-name="Trazado 623556" d="M1446.148,303.833c48.39-48.7,34.536-79.225,67.647-101.774,50.948-34.7,146.034-4.846,202.131,42.877,68.707,58.451,104.156,165.175,63.774,261.725-43,102.823-156.156,156.2-257.122,140.112-90.162-14.364-178.794-85.424-187.676-170.65-.963-9.238-5.212-59.173,24.591-102.226C1384.127,338.313,1407.79,342.439,1446.148,303.833Z" fill="#dae6f0"/>
        <g id="Grupo_894875" data-name="Grupo 894875" transform="translate(1360.257 336.429)">
          <g id="Grupo_894867" data-name="Grupo 894867">
            <g id="Grupo_894860" data-name="Grupo 894860">
              <path id="Trazado_623557" data-name="Trazado 623557" d="M1782.682,467.15l-385.074-11.89c-9.158,0-16.608,5.959-16.608,13.283V683.53c0,7.324,7.45,13.283,16.608,13.283l139.14-7.538-17.864,52.145-18.9.119c-5.894,0-10.689,3.834-10.689,8.548s4.8,8.549,10.689,8.549l158.292-6.038c5.894,0-5.135-55.784-5.135-55.784S1791.84,467.15,1782.682,467.15Z" transform="translate(-1381 -455.175)" fill="#0b5999"/>
              <path id="Trazado_623558" data-name="Trazado 623558" d="M1764.7,839.341h-98.2l-27.857,81.316h153.91Z" transform="translate(-1495.047 -625.189)" fill="#fff"/>
              <g id="Grupo_894858" data-name="Grupo 894858" transform="translate(8.004)">
                <path id="Trazado_623559" data-name="Trazado 623559" d="M1804.618,456.608H1412.53c-8.654,0-15.669,5.61-15.669,12.531V684.126c0,6.921,7.016,12.532,15.669,12.532h392.088c8.654,0,15.669-5.611,15.669-12.532V469.139C1820.288,462.218,1813.272,456.608,1804.618,456.608Z" transform="translate(-1396.024 -455.771)" fill="#fff"/>
                <path id="Trazado_623560" data-name="Trazado 623560" d="M1803.954,696.83H1411.866c-9.1,0-16.506-6-16.506-13.368V468.475c0-7.371,7.4-13.368,16.506-13.368h392.088c9.1,0,16.505,6,16.505,13.368V683.462C1820.459,690.833,1813.055,696.83,1803.954,696.83ZM1411.866,456.779c-8.179,0-14.834,5.247-14.834,11.7V683.462c0,6.449,6.655,11.7,14.834,11.7h392.088c8.179,0,14.833-5.247,14.833-11.7V468.475c0-6.449-6.654-11.7-14.833-11.7Z" transform="translate(-1395.36 -455.107)"/>
              </g>
              <path id="Trazado_623561" data-name="Trazado 623561" d="M1788.252,970.25H1600.913c-5.385,0-9.75,3.491-9.75,7.8s4.365,7.8,9.75,7.8h187.339c5.385,0,9.75-3.491,9.75-7.8S1793.637,970.25,1788.252,970.25Z" transform="translate(-1474.029 -683.136)" fill="#fff"/>
              <g id="Grupo_894859" data-name="Grupo 894859" transform="translate(284.911 260.3)">
                <path id="Trazado_623562" data-name="Trazado 623562" d="M1901.518,946.49l-7.827-22.848Z" transform="translate(-1892.854 -922.805)" fill="#fff"/>
                <path id="Trazado_623563" data-name="Trazado 623563" d="M1900.853,946.661a.837.837,0,0,1-.791-.565l-7.827-22.848a.836.836,0,0,1,1.582-.542l7.827,22.848a.836.836,0,0,1-.791,1.107Z" transform="translate(-1892.19 -922.14)"/>
              </g>
              <path id="Trazado_623564" data-name="Trazado 623564" d="M1913.671,986.017a.836.836,0,1,1,0-1.672c4.916,0,8.914-3.123,8.914-6.961s-4-6.961-8.914-6.961h-38.335a.836.836,0,0,1,0-1.672h38.335c5.838,0,10.586,3.873,10.586,8.633S1919.509,986.017,1913.671,986.017Z" transform="translate(-1599.448 -682.472)"/>
              <path id="Trazado_623565" data-name="Trazado 623565" d="M1880.421,998.4H1831a.836.836,0,1,1,0-1.672h49.417a.836.836,0,1,1,0,1.672Z" transform="translate(-1579.825 -694.857)"/>
            </g>
            <g id="Grupo_894866" data-name="Grupo 894866" transform="translate(21.932 11.14)">
              <g id="Grupo_894861" data-name="Grupo 894861" transform="translate(0 126.833)">
                <path id="Trazado_623566" data-name="Trazado 623566" d="M1421.851,788.867c0,3.441,3.489,6.231,7.792,6.231H1809.63c4.3,0,7.791-2.79,7.791-6.231V704.159Z" transform="translate(-1421.015 -703.322)" fill="#fff"/>
                <path id="Trazado_623567" data-name="Trazado 623567" d="M1808.966,795.269H1428.979c-4.758,0-8.628-3.17-8.628-7.067a.836.836,0,0,1,1.672,0c0,2.975,3.12,5.395,6.956,5.395h379.987c3.835,0,6.956-2.42,6.956-5.395V703.494a.836.836,0,0,1,1.672,0V788.2C1817.594,792.1,1813.724,795.269,1808.966,795.269Z" transform="translate(-1420.351 -702.658)"/>
              </g>
              <g id="Grupo_894862" data-name="Grupo 894862" transform="translate(0 16.721)">
                <path id="Trazado_623568" data-name="Trazado 623568" d="M1421.851,506.594v0Z" transform="translate(-1421.015 -505.759)" fill="#fff"/>
                <path id="Trazado_623569" data-name="Trazado 623569" d="M1421.187,519.985a.836.836,0,0,1-.836-.836V505.931a.836.836,0,0,1,1.672,0v13.218A.836.836,0,0,1,1421.187,519.985Z" transform="translate(-1420.351 -505.095)"/>
              </g>
              <g id="Grupo_894863" data-name="Grupo 894863">
                <path id="Trazado_623570" data-name="Trazado 623570" d="M1452.24,476.594h-22.6c-4.3,0-7.792,2.79-7.792,6.231Z" transform="translate(-1421.015 -475.758)" fill="#fff"/>
                <path id="Trazado_623571" data-name="Trazado 623571" d="M1421.187,483a.836.836,0,0,1-.836-.836c0-3.9,3.87-7.067,8.628-7.067h22.6a.836.836,0,1,1,0,1.672h-22.6c-3.836,0-6.956,2.42-6.956,5.395A.836.836,0,0,1,1421.187,483Z" transform="translate(-1420.351 -475.094)"/>
              </g>
              <g id="Grupo_894864" data-name="Grupo 894864" transform="translate(364.54)">
                <path id="Trazado_623572" data-name="Trazado 623572" d="M2106.942,493.315v-10.49c0-3.441-3.488-6.231-7.791-6.231h-23.239Z" transform="translate(-2075.076 -475.758)" fill="#fff"/>
                <path id="Trazado_623573" data-name="Trazado 623573" d="M2106.279,493.487a.836.836,0,0,1-.836-.836v-10.49c0-2.975-3.121-5.395-6.956-5.395h-23.239a.836.836,0,0,1,0-1.672h23.239c4.758,0,8.628,3.17,8.628,7.067v10.49A.836.836,0,0,1,2106.279,493.487Z" transform="translate(-2074.412 -475.094)"/>
              </g>
              <g id="Grupo_894865" data-name="Grupo 894865" transform="translate(395.571 31.392)">
                <path id="Trazado_623574" data-name="Trazado 623574" d="M2131.587,547.528v0Z" transform="translate(-2130.751 -532.082)" fill="#fff"/>
                <path id="Trazado_623575" data-name="Trazado 623575" d="M2130.923,547.7a.837.837,0,0,1-.836-.836v-14.61a.836.836,0,0,1,1.672,0v14.61A.836.836,0,0,1,2130.923,547.7Z" transform="translate(-2130.087 -531.418)"/>
              </g>
            </g>
          </g>
          <g id="Grupo_894874" data-name="Grupo 894874" transform="translate(70.581 12.52)">
            <rect id="Rectángulo_301435" data-name="Rectángulo 301435" width="335.806" height="216.411" fill="#a9c5db"/>
            <g id="Grupo_894873" data-name="Grupo 894873" transform="translate(24.796 12.933)">
              <g id="Grupo_894868" data-name="Grupo 894868">
                <rect id="Rectángulo_301436" data-name="Rectángulo 301436" width="162.105" height="5.402" fill="#99b9ff"/>
              </g>
              <rect id="Rectángulo_301437" data-name="Rectángulo 301437" width="189.486" height="5.623" transform="translate(54.529 9.161)" fill="#fff"/>
              <rect id="Rectángulo_301438" data-name="Rectángulo 301438" width="189.486" height="5.623" transform="translate(96.729 18.432)" fill="#fff"/>
              <rect id="Rectángulo_301439" data-name="Rectángulo 301439" width="97.941" height="5.623" transform="translate(165.425 27.703)" fill="#fff"/>
              <g id="Grupo_894869" data-name="Grupo 894869" transform="translate(0 74.169)">
                <rect id="Rectángulo_301440" data-name="Rectángulo 301440" width="162.105" height="5.402" fill="#99b9ff"/>
              </g>
              <rect id="Rectángulo_301441" data-name="Rectángulo 301441" width="189.486" height="5.623" transform="translate(54.529 83.33)" fill="#fff"/>
              <rect id="Rectángulo_301442" data-name="Rectángulo 301442" width="189.486" height="5.623" transform="translate(96.729 92.601)" fill="#fff"/>
              <rect id="Rectángulo_301443" data-name="Rectángulo 301443" width="120.79" height="5.623" transform="translate(165.425 101.872)" fill="#fff"/>
              <rect id="Rectángulo_301444" data-name="Rectángulo 301444" width="189.486" height="5.623" transform="translate(54.529 36.974)" fill="#fff"/>
              <rect id="Rectángulo_301445" data-name="Rectángulo 301445" width="189.486" height="5.623" transform="translate(96.729 46.245)" fill="#fff"/>
              <rect id="Rectángulo_301446" data-name="Rectángulo 301446" width="75.093" height="5.623" transform="translate(165.425 64.788)" fill="#fff"/>
              <rect id="Rectángulo_301447" data-name="Rectángulo 301447" width="120.79" height="5.623" transform="translate(165.425 55.517)" fill="#fff"/>
              <g id="Grupo_894870" data-name="Grupo 894870" transform="translate(0 111.254)">
                <rect id="Rectángulo_301448" data-name="Rectángulo 301448" width="162.105" height="5.402" fill="#99b9ff"/>
              </g>
              <rect id="Rectángulo_301449" data-name="Rectángulo 301449" width="89.106" height="5.623" transform="translate(154.908 120.415)" fill="#fff"/>
              <rect id="Rectángulo_301450" data-name="Rectángulo 301450" width="163.35" height="5.623" transform="translate(116.771 129.686)" fill="#fff"/>
              <g id="Grupo_894871" data-name="Grupo 894871" transform="translate(165.425 138.957)">
                <rect id="Rectángulo_301451" data-name="Rectángulo 301451" width="120.79" height="5.623" fill="#99b9ff"/>
              </g>
              <g id="Grupo_894872" data-name="Grupo 894872" transform="translate(96.729 185.313)">
                <rect id="Rectángulo_301452" data-name="Rectángulo 301452" width="102.388" height="5.623" fill="#99b9ff"/>
              </g>
              <rect id="Rectángulo_301453" data-name="Rectángulo 301453" width="189.486" height="5.623" transform="translate(54.529 148.228)" fill="#fff"/>
              <rect id="Rectángulo_301454" data-name="Rectángulo 301454" width="189.486" height="5.623" transform="translate(96.729 157.499)" fill="#fff"/>
              <rect id="Rectángulo_301455" data-name="Rectángulo 301455" width="120.79" height="5.623" transform="translate(165.425 176.042)" fill="#fff"/>
              <rect id="Rectángulo_301456" data-name="Rectángulo 301456" width="69.152" height="5.623" transform="translate(165.425 166.771)" fill="#fff"/>
            </g>
          </g>
        </g>
        <g id="Grupo_894885" data-name="Grupo 894885" transform="translate(1430.813 205.924)">
          <g id="Grupo_894878" data-name="Grupo 894878" transform="translate(0)">
            <rect id="Rectángulo_301457" data-name="Rectángulo 301457" width="174.446" height="84.234" rx="17.82" fill="#21cbae"/>
            <g id="Grupo_894877" data-name="Grupo 894877" transform="translate(18.535 12.782)">
              <rect id="Rectángulo_301458" data-name="Rectángulo 301458" width="117.206" height="10.023" fill="#fff"/>
              <g id="Grupo_894876" data-name="Grupo 894876" transform="translate(27.802 22.117)">
                <rect id="Rectángulo_301459" data-name="Rectángulo 301459" width="109.574" height="6.946" fill="#0b5999"/>
                <rect id="Rectángulo_301460" data-name="Rectángulo 301460" width="109.574" height="6.946" transform="translate(0 14.803)" fill="#0b5999"/>
                <rect id="Rectángulo_301461" data-name="Rectángulo 301461" width="109.574" height="6.946" transform="translate(0 29.606)" fill="#0b5999"/>
              </g>
            </g>
          </g>
          <g id="Grupo_894881" data-name="Grupo 894881" transform="translate(0 97.476)">
            <path id="Trazado_623621" data-name="Trazado 623621" d="M17.82,0H156.627a17.82,17.82,0,0,1,17.82,17.82V66.414a17.82,17.82,0,0,1-17.82,17.82H17.82A17.82,17.82,0,0,1,0,66.414V17.82A17.82,17.82,0,0,1,17.82,0Z" fill="#21cbae"/>
            <g id="Grupo_894880" data-name="Grupo 894880" transform="translate(18.535 12.782)">
              <rect id="Rectángulo_301463" data-name="Rectángulo 301463" width="117.206" height="10.023" fill="#fff"/>
              <g id="Grupo_894879" data-name="Grupo 894879" transform="translate(27.802 22.117)">
                <rect id="Rectángulo_301464" data-name="Rectángulo 301464" width="109.574" height="6.946" fill="#0b5999"/>
                <rect id="Rectángulo_301465" data-name="Rectángulo 301465" width="109.574" height="6.946" transform="translate(0 14.803)" fill="#0b5999"/>
                <rect id="Rectángulo_301466" data-name="Rectángulo 301466" width="109.574" height="6.946" transform="translate(0 29.606)" fill="#0b5999"/>
              </g>
            </g>
          </g>
          <g id="Grupo_894884" data-name="Grupo 894884" transform="translate(0 194.952)">
            <path id="Trazado_623622" data-name="Trazado 623622" d="M17.82,0H156.627a17.82,17.82,0,0,1,17.82,17.82V66.414a17.82,17.82,0,0,1-17.82,17.82H17.82A17.82,17.82,0,0,1,0,66.414V17.82A17.82,17.82,0,0,1,17.82,0Z" fill="#21cbae"/>
            <g id="Grupo_894883" data-name="Grupo 894883" transform="translate(18.535 12.782)">
              <rect id="Rectángulo_301468" data-name="Rectángulo 301468" width="117.206" height="10.023" fill="#fff"/>
              <g id="Grupo_894882" data-name="Grupo 894882" transform="translate(27.802 22.117)">
                <rect id="Rectángulo_301469" data-name="Rectángulo 301469" width="109.574" height="6.946" fill="#0b5999"/>
                <rect id="Rectángulo_301470" data-name="Rectángulo 301470" width="109.574" height="6.946" transform="translate(0 14.803)" fill="#0b5999"/>
                <rect id="Rectángulo_301471" data-name="Rectángulo 301471" width="109.574" height="6.946" transform="translate(0 29.606)" fill="#0b5999"/>
              </g>
            </g>
          </g>
        </g>
        <g id="Grupo_894896" data-name="Grupo 894896" transform="translate(1337.123 469.18)">
          <g id="Grupo_894886" data-name="Grupo 894886" transform="translate(149.157 92.931)">
            <path id="Trazado_623576" data-name="Trazado 623576" d="M1792.62,930.938H1733.4l40.918-67.521a7.167,7.167,0,0,1,6.181-3.389h48.062a3.908,3.908,0,0,1,3.532,5.774Z" transform="translate(-1663.013 -860.028)"/>
            <path id="Trazado_623577" data-name="Trazado 623577" d="M1848.748,898.253c-1.793,2.96-5.825,5.358-9.006,5.358s-4.306-2.4-2.512-5.358,5.826-5.358,9.007-5.358S1850.542,895.294,1848.748,898.253Z" transform="translate(-1708.596 -874.577)" fill="#caddff"/>
            <path id="Rectángulo_301472" data-name="Rectángulo 301472" d="M0,0H130.972a0,0,0,0,1,0,0V0a7.233,7.233,0,0,1-7.233,7.233H7.233A7.233,7.233,0,0,1,0,0V0A0,0,0,0,1,0,0Z" transform="translate(0 70.339)"/>
            <path id="Trazado_623578" data-name="Trazado 623578" d="M1786.726,987.557h-60.1a.836.836,0,0,1,0-1.672h60.1a.836.836,0,0,1,0,1.672Z" transform="translate(-1659.646 -915.739)" fill="#fff"/>
          </g>
          <g id="Grupo_894895" data-name="Grupo 894895" transform="translate(0)">
            <g id="Grupo_894888" data-name="Grupo 894888" transform="translate(75.992 2.41)">
              <path id="Trazado_623579" data-name="Trazado 623579" d="M1497.43,740.889s-12.251-11.328-16.746-13.964-10.094-13.447,5.013-20.068c4.9-2.146,5.859-8.093,15.289-9.108s17.261,3.77,18.276,9.717-4.623,11.1-8.838,11.785S1497.43,740.889,1497.43,740.889Z" transform="translate(-1475.838 -697.613)"/>
              <g id="Grupo_894887" data-name="Grupo 894887" transform="translate(2.844 11.094)">
                <path id="Trazado_623580" data-name="Trazado 623580" d="M1521.649,736.387l1.313-1.9-5.193-6.645-3.56-8.728c-10.06-.682-14.093,2.067-14.225,9.785-.085,4.947-2.69,5.065-2.69,5.065s-3.825-4.117-5.8.767,6.247,8.277,6.247,8.277h0a6.786,6.786,0,0,1-.667,6.926l-14.63,19.88s27.432,7.263,27.72,2.936a4.7,4.7,0,0,0-.974-3.145c-3.162-4.307,2.55-15.951,2.55-15.951l9.156-3.7a3.527,3.527,0,0,0,2.066-4.255l-1.811-6.23A3.638,3.638,0,0,1,1521.649,736.387Z" transform="translate(-1481.604 -718.181)" fill="#fff"/>
                <path id="Trazado_623581" data-name="Trazado 623581" d="M1505.542,774.279c-7.223,0-20.771-3.468-23.98-4.318a.836.836,0,0,1-.459-1.3l14.63-19.88a5.942,5.942,0,0,0,.708-5.795c-1.6-.724-8.438-4.171-6.389-9.227.676-1.669,1.651-2.631,2.9-2.86a4.962,4.962,0,0,1,3.926,1.481c.516-.241,1.556-1.1,1.608-4.152.062-3.677,1.006-6.3,2.884-8.028,2.355-2.164,6.242-2.984,12.233-2.577a.836.836,0,0,1,.717.518l3.517,8.62,5.122,6.554a.838.838,0,0,1,.029.991l-1.312,1.9a2.79,2.79,0,0,0-.386,2.376l1.811,6.231a4.351,4.351,0,0,1-2.556,5.263l-8.857,3.578c-1.584,3.333-4.767,11.7-2.489,14.8a5.5,5.5,0,0,1,1.135,3.695,1.806,1.806,0,0,1-.8,1.377A7.454,7.454,0,0,1,1505.542,774.279Zm-22.361-5.624c9.093,2.334,23.093,5.143,25.376,3.507.1-.073.1-.11.106-.129a3.877,3.877,0,0,0-.814-2.594c-3.365-4.583,1.866-15.575,2.473-16.814a.841.841,0,0,1,.438-.407l9.156-3.7a2.684,2.684,0,0,0,1.577-3.247l-1.811-6.23a4.457,4.457,0,0,1,.616-3.793h0l.963-1.392-4.814-6.161a.827.827,0,0,1-.115-.2l-3.363-8.242c-5.2-.3-8.537.4-10.469,2.172-1.544,1.418-2.288,3.587-2.344,6.825-.1,5.668-3.35,5.88-3.489,5.886a.826.826,0,0,1-.65-.266c-.41-.436-1.711-1.529-2.768-1.331-.647.12-1.2.741-1.648,1.843-1.648,4.067,5.716,7.16,5.791,7.191a.833.833,0,0,1,.436.415,7.61,7.61,0,0,1-.749,7.779Z" transform="translate(-1480.94 -717.518)"/>
              </g>
              <path id="Trazado_623582" data-name="Trazado 623582" d="M1508.553,733.971l6.959,9.413a10.157,10.157,0,0,0,12.778,3.011l3.779-1.926,6.981,12.855a3.389,3.389,0,0,1-2.1,4.51l-10.148,4.209a8.077,8.077,0,0,1-8.214-2.02l-10.909-11.057s4.136-3.839.141-12.484S1508.553,733.971,1508.553,733.971Z" transform="translate(-1489.284 -713.604)"/>
            </g>
            <g id="Grupo_894894" data-name="Grupo 894894">
              <g id="Grupo_894889" data-name="Grupo 894889" transform="translate(0 50.382)">
                <path id="Trazado_623583" data-name="Trazado 623583" d="M1552.591,785.187l-19.875,2.91s-8.064,30.966-28.288,31.982a36.447,36.447,0,0,1-22.113-5.818,54.558,54.558,0,0,0-25.324-8.772l-36.346-2.993a50.407,50.407,0,0,0-48.676,26.611c-10.1,19.04-22.608,44.436-30.595,67.031a6.393,6.393,0,0,0,6.016,8.538h96.451l21.222-53.14c10.573,4.5,26.866,8.475,49.753,6.367C1563.2,853.447,1552.591,785.187,1552.591,785.187Z" transform="translate(-1340.16 -784.35)" fill="#fecb2f"/>
                <path id="Trazado_623584" data-name="Trazado 623584" d="M1443.173,904.849h-96.451a7.228,7.228,0,0,1-6.8-9.652c8.19-23.173,21.185-49.3,30.644-67.144A51.2,51.2,0,0,1,1420.045,801l36.346,2.993A55.6,55.6,0,0,1,1482.1,812.9a35.508,35.508,0,0,0,21.615,5.682c19.388-.974,27.442-31.054,27.521-31.358a.836.836,0,0,1,.688-.616l19.875-2.91a.835.835,0,0,1,.947.7c.058.377,5.672,37.962-10.928,59.248-6.628,8.5-15.913,13.354-27.6,14.43-23.191,2.136-39.539-2.052-49.369-6.1l-20.907,52.351A.836.836,0,0,1,1443.173,904.849ZM1415.807,802.5a49.508,49.508,0,0,0-43.769,26.338c-9.432,17.791-22.389,43.841-30.545,66.918a5.556,5.556,0,0,0,5.227,7.423h95.885l21.012-52.614a.836.836,0,0,1,1.1-.459c9.556,4.068,25.874,8.466,49.349,6.3,11.206-1.032,20.1-5.673,26.432-13.793,14.815-19,11.419-51.565,10.706-57.141l-18.5,2.708c-1.214,4.3-9.552,31.1-28.909,32.069a37.127,37.127,0,0,1-22.612-5.953,53.928,53.928,0,0,0-24.936-8.638l-36.346-2.993C1418.536,802.553,1417.166,802.5,1415.807,802.5Z" transform="translate(-1339.493 -783.686)"/>
              </g>
              <g id="Grupo_894891" data-name="Grupo 894891" transform="translate(60.635 98.987)">
                <path id="Trazado_623585" data-name="Trazado 623585" d="M1517.174,900.724c-15.027-4.975-23.144-28.331-23.144-28.331l-44.246,8.91s30.667,48.938,51.8,53.418c13.172,2.793,39.636-9.633,57.708-19.393-2.317-5.123-5.647-12.474-8.119-17.881C1537.96,900.658,1524,902.984,1517.174,900.724Z" transform="translate(-1448.948 -871.557)" fill="#fecb2f"/>
                <path id="Trazado_623586" data-name="Trazado 623586" d="M1505.112,935.291a21.118,21.118,0,0,1-4.365-.415c-21.237-4.5-51.076-51.783-52.336-53.792a.836.836,0,1,1,1.417-.888c.3.487,30.719,48.689,51.266,53.045,9.814,2.085,29.846-4.642,56.452-18.941-2.229-4.928-5.2-11.487-7.51-16.54-16.588,3.986-27.954,5.027-33.789,3.095-15.243-5.046-23.334-27.88-23.672-28.85a.836.836,0,0,1,1.58-.55c.08.23,8.161,23.026,22.618,27.813,5.531,1.832,17.129.692,33.54-3.3a.838.838,0,0,1,.958.465c2.456,5.371,5.771,12.69,8.121,17.884a.836.836,0,0,1-.365,1.08C1541.67,924.773,1519.079,935.291,1505.112,935.291Z" transform="translate(-1448.284 -870.893)"/>
                <g id="Grupo_894890" data-name="Grupo 894890" transform="translate(101.39 17.199)">
                  <path id="Trazado_623587" data-name="Trazado 623587" d="M1687.879,916.27,1667.4,904.891a13.061,13.061,0,0,0-10.351-1.017c-5.71,1.842-15.313,4.791-25.349,7.229,2.472,5.408,5.8,12.759,8.119,17.881,10.926-5.9,18.786-10.827,18.786-10.827l13.221,6.964s-.737,11.605,1.889,11.924,3.612-10.388,3.612-10.388,2.257,13.292,6.156,10.388l1.5-16.054s2.589,7.11,4.074,7.4l1.486.294Z" transform="translate(-1630.862 -902.413)" fill="#fff"/>
                  <path id="Trazado_623588" data-name="Trazado 623588" d="M1681.717,937.636a2.36,2.36,0,0,1-.88-.174c-1.858-.745-3.167-3.984-3.986-6.854-.481,2.48-1.263,5.188-2.471,6.163a1.884,1.884,0,0,1-1.431.443c-2.936-.357-2.872-8.3-2.654-12.266l-12.321-6.49c-1.758,1.087-8.992,5.507-18.423,10.6a.836.836,0,0,1-1.159-.391c-2.349-5.193-5.663-12.509-8.118-17.878a.836.836,0,0,1,.563-1.16c9.813-2.385,19.168-5.239,25.29-7.213a13.946,13.946,0,0,1,11.014,1.082l20.481,11.378a.838.838,0,0,1,.411.556l2.658,12.42a.836.836,0,0,1-.979.995l-1.486-.294c-1.13-.224-2.385-2.425-3.4-4.7l-1.175,12.61a.837.837,0,0,1-.333.594A2.652,2.652,0,0,1,1681.717,937.636Zm-5.055-12.476a.836.836,0,0,1,.824.7c.641,3.77,2.3,9.382,3.973,10.054a.671.671,0,0,0,.565-.019l1.457-15.639a.836.836,0,0,1,1.618-.209c1.248,3.425,2.847,6.576,3.493,6.883l.2.038-2.314-10.81-20.149-11.193a12.262,12.262,0,0,0-9.688-.953c-5.943,1.917-14.924,4.659-24.425,7.005,2.273,4.978,5.149,11.325,7.331,16.147,10.371-5.633,17.874-10.325,17.95-10.373a.838.838,0,0,1,.834-.031l13.221,6.964a.835.835,0,0,1,.444.792c-.38,5.993.322,10.94,1.155,11.041a.292.292,0,0,0,.178-.084c1.206-.973,2.188-6.171,2.5-9.551a.836.836,0,0,1,.8-.759Z" transform="translate(-1630.198 -901.752)"/>
                </g>
              </g>
              <g id="Grupo_894892" data-name="Grupo 894892" transform="translate(45.636 53.075)">
                <path id="Trazado_623589" data-name="Trazado 623589" d="M1491.079,809.31l.9-5.477a3.46,3.46,0,0,0-2.7-3.952c-9.042-1.906-34.106-7.336-37.368-9.636-3.991-2.814-32.9,24.42-28.563,23.706C1455.618,808.633,1491.079,809.31,1491.079,809.31Z" transform="translate(-1422.053 -789.192)" fill="#0b5999"/>
                <path id="Trazado_623590" data-name="Trazado 623590" d="M1422.519,814.126a1.077,1.077,0,0,1-1.028-.618c-.244-.535-.614-1.345,4.674-6.761,3.035-3.109,7.068-6.806,10.786-9.89,11.978-9.933,14.075-8.456,14.764-7.969,2.523,1.778,20.8,6.073,37.059,9.5a4.29,4.29,0,0,1,3.352,4.906l-.9,5.477a.855.855,0,0,1-.841.7c-.353-.007-35.758-.614-67.576,4.63A1.8,1.8,0,0,1,1422.519,814.126Zm27.946-23.921a3.888,3.888,0,0,0-1.348.333c-6.971,2.726-22.8,17.673-25.63,21.758,29.2-4.695,61.03-4.558,66.2-4.506l.785-4.767a2.621,2.621,0,0,0-2.048-3c-12.688-2.674-34.455-7.5-37.677-9.77A.564.564,0,0,0,1450.465,790.2Z" transform="translate(-1421.373 -788.517)" fill="#0b5999"/>
              </g>
              <g id="Grupo_894893" data-name="Grupo 894893" transform="translate(191.72)">
                <path id="Trazado_623591" data-name="Trazado 623591" d="M1694.89,712.471a25.844,25.844,0,0,1,4.573-5.331l13.283-12.35s1.726,5.951-.367,9.46a45.861,45.861,0,0,1,7.3.83s6.068-5.346,7.58-6.268,3.484-2.383,5.516-2.356a8.045,8.045,0,0,1,4.057,1.584l-11.668,14.788-21.217,5.839,1.188,32.172-20.16-2.757Z" transform="translate(-1684.142 -693.954)" fill="#fff"/>
                <path id="Trazado_623592" data-name="Trazado 623592" d="M1704.475,751.011a.87.87,0,0,1-.113-.008l-20.16-2.756a.837.837,0,0,1-.692-1.053l9.912-35.612a.827.827,0,0,1,.059-.151,26.427,26.427,0,0,1,4.782-5.6l13.251-12.322a.837.837,0,0,1,1.372.38c.067.231,1.47,5.176.114,8.917a47.454,47.454,0,0,1,5.778.705c1.277-1.119,6.014-5.245,7.386-6.081.206-.127.422-.263.645-.4,1.479-.936,3.326-2.088,5.317-2.074a8.846,8.846,0,0,1,4.556,1.759.836.836,0,0,1,.146,1.179l-11.668,14.788a.837.837,0,0,1-.435.289l-20.579,5.663,1.164,31.51a.836.836,0,0,1-.835.867Zm-19.1-4.291,18.226,2.492-1.151-31.178a.835.835,0,0,1,.614-.837l20.952-5.766,10.935-13.858a6.216,6.216,0,0,0-2.848-.946h-.043c-1.488,0-3.078,1.006-4.357,1.815-.231.147-.454.288-.669.419-1.189.726-5.791,4.708-7.463,6.182a.833.833,0,0,1-.729.191,45.348,45.348,0,0,0-7.156-.812.836.836,0,0,1-.69-1.264c1.311-2.2.943-5.564.592-7.432l-12.221,11.363a.716.716,0,0,1-.069.056,25.8,25.8,0,0,0-4.292,4.971Z" transform="translate(-1683.478 -693.29)"/>
              </g>
            </g>
          </g>
        </g>
        <g id="Grupo_894902" data-name="Grupo 894902" transform="translate(1568.927 189.73)">
          <path id="Trazado_623593" data-name="Trazado 623593" d="M1920.4,235.153c5.223,8.911,17.481,10.666,20.231,10.974a32.162,32.162,0,0,0,21.652-5.685,42.9,42.9,0,0,0,25.484,6.447c9.676-.741,25.978-5.57,29.136-16.884,3.78-13.545-13.262-29.271-27.88-34.825-12.262-4.658-30.952-5.252-39.9,4.176-3.288,3.464-3.794,6.737-7.675,7.868-6.966,2.03-12.088-6.54-21.117-6.105-5.415.261-9.644,3.637-12.256,6.262-6.664,2.2-10.748,6.626-10.25,10.184.518,3.707,5.938,5.954,7,6.393,5.488,2.276,8.4-.021,11.651,2.363C1919.358,228.434,1918.19,231.374,1920.4,235.153Z" transform="translate(-1818.427 -191.898)"/>
          <g id="Grupo_894897" data-name="Grupo 894897" transform="translate(0 8.948)">
            <path id="Trazado_623594" data-name="Trazado 623594" d="M1865.846,252.084s-27.42,8.759-40.75,0c-6.267-4.118-29.6-33.2-34.656-35.893-3.077-1.635-7.856-4.091-11.13-5.765a8.9,8.9,0,0,0-7.34-.344l-13.625,5.419a13.243,13.243,0,0,0,10.428,1.91,19.778,19.778,0,0,1,12.318,1.417l.262.124-12.24,3.808s1.854,3.092,8.415,1.9c3.465-.627,7.638.152,10.806,1.026l.224.116s11.7,32.487,28.863,42.654c24.971,14.793,51.21,5.494,51.21,5.494Z" transform="translate(-1756.702 -208.615)" fill="#fff"/>
            <path id="Trazado_623595" data-name="Trazado 623595" d="M1847.65,276.966a62.257,62.257,0,0,1-31.96-8.451c-16.464-9.753-27.716-39.013-29.1-42.741-2.882-.779-6.921-1.548-10.222-.951-7.048,1.276-9.193-2.15-9.281-2.3l-.547-.912,11.055-3.44a19.137,19.137,0,0,0-9.969-.608c-6.765,1.332-10.939-1.937-11.113-2.078l-1.12-.9,14.959-5.948a9.734,9.734,0,0,1,8.03.376c3.392,1.734,8.079,4.143,11.142,5.772,2.678,1.423,9.755,9.354,17.248,17.75,7.106,7.963,14.454,16.2,17.476,18.182,12.84,8.438,39.766-.011,40.036-.1l.956-.305,3,23.535-.635.226A66.613,66.613,0,0,1,1847.65,276.966Zm-68.711-54.026a32.542,32.542,0,0,1,8.313,1.281l.163.064.513.266.111.308c.116.322,11.8,32.322,28.5,42.218,22.2,13.153,45.725,6.894,49.866,5.631l-2.572-20.2c-5.07,1.492-28.259,7.658-40.505-.389-3.2-2.106-10.3-10.053-17.8-18.467-7.065-7.917-14.371-16.1-16.785-17.387-3.054-1.624-7.731-4.027-11.119-5.759a8.061,8.061,0,0,0-6.65-.312l-12.043,4.789a13.3,13.3,0,0,0,8.376.942,20.513,20.513,0,0,1,12.837,1.482l2.2,1.042-12.924,4.021c1.018.653,3.031,1.363,6.656.707A16.154,16.154,0,0,1,1778.939,222.94Z" transform="translate(-1755.397 -207.951)"/>
          </g>
          <path id="Trazado_623596" data-name="Trazado 623596" d="M2009.717,382.327s-23.851,16.193-57.126,11.425c0,0,4.5-8.688,12.187-11.806S2009.717,382.327,2009.717,382.327Z" transform="translate(-1842.685 -275.45)"/>
          <path id="Trazado_623597" data-name="Trazado 623597" d="M2047.756,417.471c-1.481-36.322-22.419-49.71-22.419-49.71l-43.152,10.764-17.8,38.946Z" transform="translate(-1847.906 -269.744)" fill="#0b5999"/>
          <path id="Trazado_623598" data-name="Trazado 623598" d="M1947.023,269.624l22.687-11.333a14.334,14.334,0,0,1,17.03,3.191c9.9,10.928,26.949,32.05,35.522,56.1,0,0-15.415,19.663-35.8,18.293s-32.4-2.68-39.608,3.046c0,0-6-30.148-7.209-56.774A13.333,13.333,0,0,1,1947.023,269.624Z" transform="translate(-1836.949 -220.617)" fill="#ef3c79"/>
          <path id="Trazado_623599" data-name="Trazado 623599" d="M1986.013,357.754a.835.835,0,0,1-.831-.758c-.765-8.178-3.316-13.989-7.584-17.274-3.255-2.5-6.706-3-10.36-3.525-3.886-.558-7.9-1.135-12-4.11-4.3-3.123-7.369-7.948-9.112-14.341a.836.836,0,0,1,1.614-.44c1.64,6.016,4.494,10.534,8.481,13.428,3.766,2.732,7.575,3.279,11.259,3.809,3.707.532,7.54,1.082,11.142,3.855,4.651,3.579,7.419,9.784,8.228,18.443a.835.835,0,0,1-.755.91A.743.743,0,0,1,1986.013,357.754Z" transform="translate(-1839.809 -247.136)"/>
          <g id="Grupo_894898" data-name="Grupo 894898" transform="translate(132.328 36.169)">
            <path id="Trazado_623600" data-name="Trazado 623600" d="M2043.038,367.776l-47.909-97.947a8.007,8.007,0,0,1,3.647-10.7h0a8.006,8.006,0,0,1,10.318,2.907c6.391,10.126,18.629,30.515,21.377,42.27,3.76,16.086,9.222,24.05,12.568,29.174,2.161,3.309,4.866,15.059,6.511,22.967a6.92,6.92,0,0,0,8.854,5.2l.014,0a11.426,11.426,0,0,1,10.252,1.728l5.153,3.831a.713.713,0,0,1-.442,1.285Z" transform="translate(-1993.482 -257.461)" fill="#fff"/>
            <path id="Trazado_623601" data-name="Trazado 623601" d="M2072.737,368.653h-.037l-30.85-.721-.224-.456-47.908-97.947a8.843,8.843,0,0,1,15.422-8.6c6.847,10.849,18.743,30.8,21.484,42.526,3.594,15.375,8.707,23.185,12.091,28.353l.362.554c2.174,3.328,4.8,14.482,6.631,23.254a6.083,6.083,0,0,0,7.784,4.568,12.3,12.3,0,0,1,11.015,1.85l5.153,3.831a1.549,1.549,0,0,1-.923,2.792Zm-29.832-2.369,29.448.688-4.843-3.6a10.623,10.623,0,0,0-9.5-1.6,7.756,7.756,0,0,1-9.938-5.818c-2.539-12.2-4.809-20.254-6.393-22.68l-.362-.553c-3.448-5.266-8.66-13.225-12.32-28.888-2.685-11.488-14.479-31.254-21.269-42.015a7.171,7.171,0,0,0-12.506,6.976Z" transform="translate(-1992.821 -256.793)"/>
          </g>
          <g id="Grupo_894901" data-name="Grupo 894901" transform="translate(91.604 21.619)">
            <g id="Grupo_894900" data-name="Grupo 894900">
              <g id="Grupo_894899" data-name="Grupo 894899">
                <path id="Trazado_623602" data-name="Trazado 623602" d="M1939.3,239.786c.036-.041,2.355-2.695,1.082-4.639s-3.818.635-3.818.635a8.039,8.039,0,0,0-7.06-3.592,8.376,8.376,0,0,1-7.447,4.737,64.275,64.275,0,0,0,3.026,5.88l.584,3.33a.729.729,0,0,0,1.089.5h0a.755.755,0,0,1,.984.2,12.286,12.286,0,0,0,4.168,3.83c1.973.884,3.738-.025,5.066-1.722,3.128,3.793,7.748,10.245,5.594,13.035,0,0,7.039,2.038,14-7.533Z" transform="translate(-1920.772 -231.35)" fill="#fff"/>
                <path id="Trazado_623603" data-name="Trazado 623603" d="M1943.277,262.343a7.5,7.5,0,0,1-1.963-.222l-1.181-.341.751-.973c1.249-1.617-.6-5.786-4.959-11.234a4.64,4.64,0,0,1-5.38,1.2,12.784,12.784,0,0,1-4.453-4.035,1.566,1.566,0,0,1-2.271-1.115l-.557-3.184a64.5,64.5,0,0,1-2.995-5.835l-.516-1.178,1.285.006h.037a7.555,7.555,0,0,0,6.641-4.238l.214-.484.529-.014a8.88,8.88,0,0,1,7.224,3.2,4.07,4.07,0,0,1,2.651-.967,2.285,2.285,0,0,1,1.726,1.1c1.172,1.792.08,3.906-.64,4.97l17.257,14.654-.456.627C1951.149,261.252,1946,262.343,1943.277,262.343Zm-.488-1.682c2.013.121,6.731-.392,11.616-6.748l-17.315-14.7.56-.639c.019-.022,1.913-2.252,1.011-3.63a.639.639,0,0,0-.489-.351c-.644-.07-1.667.738-2.033,1.112l-.77.789-.551-.955a7.123,7.123,0,0,0-5.827-3.174,9.147,9.147,0,0,1-6.684,4.659c.516,1.082,1.393,2.842,2.477,4.7l.075.13.584,3.333a1.591,1.591,0,0,1,1.94.483,11.349,11.349,0,0,0,3.846,3.573c1.782.8,3.194-.361,4.065-1.474l.641-.82.663.8C1941.463,253.648,1943.538,257.979,1942.79,260.661Z" transform="translate(-1919.754 -230.687)"/>
              </g>
              <path id="Trazado_623604" data-name="Trazado 623604" d="M1948.155,259.292a.836.836,0,0,1-.639-1.375,12.635,12.635,0,0,0,1.687-3.646.836.836,0,1,1,1.6.47,14.416,14.416,0,0,1-2.013,4.254A.837.837,0,0,1,1948.155,259.292Z" transform="translate(-1931.956 -240.861)"/>
            </g>
          </g>
        </g>
        <g id="Grupo_894904" data-name="Grupo 894904" transform="translate(1685.449 451.517)">
          <g id="Grupo_894903" data-name="Grupo 894903">
            <path id="Trazado_623605" data-name="Trazado 623605" d="M2038.378,865.638s11.106-3.472,29.3-38.77c15.356-29.8,1.666-58.594-1.1-77.854a1.879,1.879,0,0,0-3.637-.38c-4.6,12.941-12.01,36.475-10.812,50.964C2053.855,820.479,2038.378,865.638,2038.378,865.638Z" transform="translate(-1997.181 -699.568)" fill="#1aa28b"/>
            <path id="Trazado_623606" data-name="Trazado 623606" d="M2034.581,808.37l3.955-31.278a71.332,71.332,0,0,0-6.4-39.695h0a71.354,71.354,0,0,1-1.856-57.24l6.354-15.873a1.929,1.929,0,0,0-3.2-2.042l-8.923,9.816a84.609,84.609,0,0,0-17.9,82.563l16.441,51.532Z" transform="translate(-1981.346 -661.599)" fill="#21cbae"/>
            <path id="Trazado_623607" data-name="Trazado 623607" d="M2062.734,865.484a.849.849,0,0,1-.106-.006.837.837,0,0,1-.725-.935l2.05-16.207a70.333,70.333,0,0,0-1.206-24.53.836.836,0,0,1,1.631-.371,72.013,72.013,0,0,1,1.234,25.111l-2.049,16.207A.836.836,0,0,1,2062.734,865.484Z" transform="translate(-2007.592 -732.949)" fill="#caddff"/>
            <path id="Trazado_623608" data-name="Trazado 623608" d="M2012.6,880.193l-13.722-35.05a34.814,34.814,0,0,0-22.292-20.669l-9.357-2.834a2.155,2.155,0,0,0-1.918,3.774l5.751,4.473a26.3,26.3,0,0,1,10.114,20.221h0a26.4,26.4,0,0,0,3.848,13.194l9.3,15.251Z" transform="translate(-1964.463 -732.397)" fill="#21cbae"/>
            <path id="Trazado_623609" data-name="Trazado 623609" d="M2037.107,802.48a.767.767,0,0,1-.079,0,.835.835,0,0,1-.754-.91c2.086-22.318-2.4-36.7-6.356-49.379a135.093,135.093,0,0,1-4.6-17.437c-4.876-28.3,11.747-52.852,11.915-53.1a.836.836,0,0,1,1.377.949c-.164.239-16.4,24.251-11.644,51.864a133.855,133.855,0,0,0,4.551,17.223c4,12.834,8.542,27.381,6.424,50.033A.836.836,0,0,1,2037.107,802.48Z" transform="translate(-1991.003 -670.316)" fill="#caddff"/>
            <path id="Trazado_623610" data-name="Trazado 623610" d="M2028.987,867.1a.838.838,0,0,1-.794-.574c-1.757-5.323-5.74-10.866-8.773-14.579a.836.836,0,0,1,1.3-1.058c3.121,3.822,7.228,9.547,9.066,15.112a.837.837,0,0,1-.532,1.057A.86.86,0,0,1,2028.987,867.1Z" transform="translate(-1988.706 -745.252)" fill="#caddff"/>
            <path id="Trazado_623611" data-name="Trazado 623611" d="M2079.314,825.613a.8.8,0,0,1-.14-.012.834.834,0,0,1-.685-.963c3.734-22.073,2.439-56.068,2.426-56.408a.837.837,0,0,1,.8-.869.823.823,0,0,1,.869.8c.013.343,1.314,34.511-2.449,56.753A.836.836,0,0,1,2079.314,825.613Z" transform="translate(-2014.931 -708.414)" fill="#caddff"/>
            <path id="Trazado_623612" data-name="Trazado 623612" d="M2002.46,871.5a.835.835,0,0,1-.836-.828c-.263-27.306-22.085-39.333-22.306-39.451a.836.836,0,0,1,.79-1.474c.229.123,22.915,12.588,23.188,40.909a.836.836,0,0,1-.828.844Z" transform="translate(-1970.843 -735.984)" fill="#caddff"/>
            <path id="Trazado_623613" data-name="Trazado 623613" d="M2019.095,796.745a.832.832,0,0,1-.66-.323c-6-7.7-8.575-17.788-8.682-18.214a.836.836,0,0,1,1.622-.407c.025.1,2.6,10.174,8.379,17.594a.836.836,0,0,1-.659,1.349Z" transform="translate(-1984.499 -712.757)" fill="#caddff"/>
          </g>
          <path id="Trazado_623614" data-name="Trazado 623614" d="M2024.349,960.774h0a26,26,0,0,1-26-26v-23.2h51.992v23.2A26,26,0,0,1,2024.349,960.774Z" transform="translate(-1979.464 -772.25)" fill="#0b5999"/>
          <path id="Trazado_623615" data-name="Trazado 623615" d="M2048.629,927.328h-41.8a.836.836,0,0,1,0-1.672h41.8a.836.836,0,0,1,0,1.672Z" transform="translate(-1982.847 -778.484)" fill="#99b9ff"/>
        </g>
        <g id="Grupo_894905" data-name="Grupo 894905" transform="translate(1342.616 235.27)">
          <path id="Trazado_623616" data-name="Trazado 623616" d="M1350.185,355.27a.836.836,0,0,1-.591-1.427l54.363-54.363a.836.836,0,0,1,1.182,1.182l-54.363,54.363A.834.834,0,0,1,1350.185,355.27Z" transform="translate(-1349.349 -284.951)" fill="#0b5999"/>
          <path id="Trazado_623617" data-name="Trazado 623617" d="M1403.2,341.97a.836.836,0,0,1-.591-1.427l49.635-49.635a.836.836,0,0,1,1.182,1.182l-49.635,49.635A.834.834,0,0,1,1403.2,341.97Z" transform="translate(-1372.814 -281.157)" fill="#0b5999"/>
          <path id="Trazado_623618" data-name="Trazado 623618" d="M1460.3,283.511a4.957,4.957,0,0,1-4.952-4.952.836.836,0,1,1,1.672,0,3.28,3.28,0,1,0,3.28-3.28.836.836,0,0,1,0-1.672,4.952,4.952,0,1,1,0,9.9Z" transform="translate(-1396.27 -273.607)" fill="#0b5999"/>
          <path id="Trazado_623619" data-name="Trazado 623619" d="M1862.956,388.049a.836.836,0,0,1-.591-1.427l23.779-23.779a.836.836,0,0,1,1.182,1.182L1863.548,387.8A.835.835,0,0,1,1862.956,388.049Z" transform="translate(-1576.328 -312.999)" fill="#0b5999"/>
          <path id="Trazado_623620" data-name="Trazado 623620" d="M1850.219,420.287a.836.836,0,0,1-.591-1.427l23.145-23.144a.836.836,0,0,1,1.182,1.182l-23.145,23.145A.832.832,0,0,1,1850.219,420.287Z" transform="translate(-1570.689 -327.55)" fill="#0b5999"/>
        </g>
      </g>
    </g>
  </g>
</svg>
