<svg xmlns="http://www.w3.org/2000/svg" xmlns:xlink="http://www.w3.org/1999/xlink" width="536" height="344" viewBox="0 0 536 344">
  <defs>
    <filter id="Rectángulo_300539" x="0" y="0" width="536" height="344" filterUnits="userSpaceOnUse">
      <feOffset dy="3" input="SourceAlpha"/>
      <feGaussianBlur stdDeviation="3" result="blur"/>
      <feFlood flood-opacity="0.161"/>
      <feComposite operator="in" in2="blur"/>
      <feComposite in="SourceGraphic"/>
    </filter>
  </defs>
  <g id="Grupo_897747" data-name="Grupo 897747" transform="translate(-214 -7783.413)">
    <g id="Grupo_894082" data-name="Grupo 894082" transform="translate(-41.666 5211.413)">
      <g transform="matrix(1, 0, 0, 1, 255.67, 2572)" filter="url(#Rectángulo_300539)">
        <rect id="Rectángulo_300539-2" data-name="Rectángulo 300539" width="518" height="326" rx="20" transform="translate(9 6)" fill="#fff"/>
      </g>
    </g>
    <g id="Grupo_894711" data-name="Grupo 894711" transform="translate(60.881 7717.85)">
      <path id="Trazado_623224" data-name="Trazado 623224" d="M284.684,228.789c52.335-19.429,105.528-2.252,141.6,35.16s111.786-25.823,151.939,11.529c27.4,25.491,14.851,91.027-22.723,119.413-51.071,38.583-206.385,19.005-239.982,12.439-38.706-7.565-67-30.516-78.5-58.372C209.319,281.84,261.556,237.376,284.684,228.789Z" transform="translate(0 -82.295)" fill="#d2e1f1"/>
      <g id="Grupo_894682" data-name="Grupo 894682" transform="translate(268.803 126.563)">
        <g id="Grupo_894677" data-name="Grupo 894677" transform="translate(109.11 0)">
          <path id="Trazado_623225" data-name="Trazado 623225" d="M1496,173.487a43.407,43.407,0,0,0,.271-4.824c0-.861-.028-1.715-.078-2.563l-7.97-2.579a35.04,35.04,0,0,0-2.822-9.55l5.285-6.5a43.058,43.058,0,0,0-4.187-6.086l-7.972,2.6a35.415,35.415,0,0,0-7.892-6.066l.454-8.375a42.651,42.651,0,0,0-6.959-2.466l-4.922,6.793a35.443,35.443,0,0,0-9.951-.261l-4.557-7.044a42.633,42.633,0,0,0-7.08,2.092l.01,8.388a35.366,35.366,0,0,0-8.2,5.642l-7.821-3.018a43.109,43.109,0,0,0-4.5,5.856l4.935,6.775a35.033,35.033,0,0,0-3.327,9.387l-8.095,2.154a43.411,43.411,0,0,0-.271,4.824c0,.861.028,1.715.078,2.563l7.971,2.579a35.034,35.034,0,0,0,2.822,9.55l-5.285,6.5a43.031,43.031,0,0,0,4.186,6.086l7.972-2.6a35.412,35.412,0,0,0,7.892,6.066l-.454,8.375a42.65,42.65,0,0,0,6.959,2.466l4.922-6.793a35.441,35.441,0,0,0,9.951.261l4.557,7.044a42.62,42.62,0,0,0,7.08-2.092l-.01-8.388a35.357,35.357,0,0,0,8.2-5.642l7.821,3.018a43.126,43.126,0,0,0,4.5-5.856l-4.936-6.775a35.032,35.032,0,0,0,3.327-9.387Zm-42.692,12.027a16.851,16.851,0,1,1,16.851-16.851A16.851,16.851,0,0,1,1453.307,185.514Z" transform="translate(-1410.344 -126.563)" fill="#21cbae"/>
          <g id="Grupo_894674" data-name="Grupo 894674" transform="translate(65.317 31.992)">
            <path id="Trazado_623226" data-name="Trazado 623226" d="M1929.5,409.864a.63.63,0,0,1-.484-1.033,28.507,28.507,0,0,0,5.023-27.459.63.63,0,0,1,1.191-.41,29.77,29.77,0,0,1-5.245,28.675A.629.629,0,0,1,1929.5,409.864Z" transform="translate(-1928.874 -380.537)" fill="#fff"/>
          </g>
          <g id="Grupo_894675" data-name="Grupo 894675" transform="translate(52.862 14.116)">
            <path id="Trazado_623227" data-name="Trazado 623227" d="M1840.643,246.052a.627.627,0,0,1-.432-.171,28.3,28.3,0,0,0-9.8-6.037.63.63,0,0,1,.43-1.184,29.55,29.55,0,0,1,10.232,6.3.63.63,0,0,1-.432,1.088Z" transform="translate(-1829.999 -238.622)" fill="#fff"/>
          </g>
          <g id="Grupo_894676" data-name="Grupo 894676" transform="translate(35.798 12.38)">
            <path id="Trazado_623228" data-name="Trazado 623228" d="M1695.159,226.984a.63.63,0,0,1-.154-1.241,29.838,29.838,0,0,1,7.3-.9.63.63,0,0,1,0,1.26,28.573,28.573,0,0,0-6.988.864A.634.634,0,0,1,1695.159,226.984Z" transform="translate(-1694.53 -224.841)" fill="#fff"/>
          </g>
        </g>
        <g id="Grupo_894681" data-name="Grupo 894681" transform="translate(0 121.12)">
          <path id="Trazado_623229" data-name="Trazado 623229" d="M603.482,1120.6a30.076,30.076,0,0,0,.188-3.341c0-.6-.02-1.187-.054-1.775l-5.521-1.786a24.268,24.268,0,0,0-1.955-6.615l3.661-4.5a29.836,29.836,0,0,0-2.9-4.215l-5.522,1.8a24.539,24.539,0,0,0-5.466-4.2l.314-5.8a29.537,29.537,0,0,0-4.82-1.708l-3.41,4.7a24.558,24.558,0,0,0-6.893-.181l-3.157-4.879a29.512,29.512,0,0,0-4.9,1.449l.007,5.81a24.489,24.489,0,0,0-5.681,3.907l-5.417-2.09a29.88,29.88,0,0,0-3.12,4.056l3.418,4.693a24.266,24.266,0,0,0-2.3,6.5l-5.607,1.492a30.041,30.041,0,0,0-.188,3.341c0,.6.019,1.188.054,1.775l5.521,1.786a24.262,24.262,0,0,0,1.955,6.615l-3.661,4.5a29.832,29.832,0,0,0,2.9,4.215l5.522-1.8a24.536,24.536,0,0,0,5.466,4.2l-.314,5.8a29.523,29.523,0,0,0,4.82,1.708l3.41-4.705a24.541,24.541,0,0,0,6.893.181l3.156,4.879a29.54,29.54,0,0,0,4.9-1.449l-.007-5.81a24.491,24.491,0,0,0,5.681-3.908l5.417,2.09a29.867,29.867,0,0,0,3.12-4.056l-3.419-4.693a24.268,24.268,0,0,0,2.3-6.5Zm-29.57,8.331a11.672,11.672,0,1,1,11.672-11.672A11.672,11.672,0,0,1,573.911,1128.927Z" transform="translate(-544.153 -1088.095)" fill="#0b5999"/>
          <g id="Grupo_894678" data-name="Grupo 894678" transform="translate(45.048 21.965)">
            <path id="Trazado_623230" data-name="Trazado 623230" d="M902.4,1283.172a.63.63,0,0,1-.484-1.033,19.552,19.552,0,0,0,3.445-18.832.63.63,0,1,1,1.191-.41,20.811,20.811,0,0,1-3.667,20.048A.628.628,0,0,1,902.4,1283.172Z" transform="translate(-901.771 -1262.472)" fill="#fff"/>
          </g>
          <g id="Grupo_894679" data-name="Grupo 894679" transform="translate(36.421 9.583)">
            <path id="Trazado_623231" data-name="Trazado 623231" d="M840.852,1169.708a.628.628,0,0,1-.432-.171,19.408,19.408,0,0,0-6.72-4.141.63.63,0,0,1,.43-1.184,20.654,20.654,0,0,1,7.154,4.407.63.63,0,0,1-.432,1.088Z" transform="translate(-833.286 -1164.174)" fill="#fff"/>
          </g>
          <g id="Grupo_894680" data-name="Grupo 894680" transform="translate(24.601 8.381)">
            <path id="Trazado_623232" data-name="Trazado 623232" d="M740.083,1156.5a.63.63,0,0,1-.154-1.24,20.853,20.853,0,0,1,5.1-.631.63.63,0,1,1,0,1.26,19.6,19.6,0,0,0-4.793.593A.625.625,0,0,1,740.083,1156.5Z" transform="translate(-739.454 -1154.63)" fill="#fff"/>
          </g>
        </g>
        <path id="Trazado_623233" data-name="Trazado 623233" d="M2018.067,604.641q0-.488-.027-.97l4.136-3.321a22.016,22.016,0,0,0-1.5-4.752l-5.341-.4a17.774,17.774,0,0,0-4.623-4.906l-.018-5.322a22.045,22.045,0,0,0-4.736-1.827l-3.65,3.929a17.756,17.756,0,0,0-6.564.515l-4.186-3.315a22.171,22.171,0,0,0-4.427,2.568l.792,5.276a17.707,17.707,0,0,0-3.729,5.441l-5.208,1.207a22.175,22.175,0,0,0-.769,5.02l4.586,2.652a17.56,17.56,0,0,0,1.962,6.481l-2.3,4.81a22.327,22.327,0,0,0,3.375,3.672l4.918-1.926a17.572,17.572,0,0,0,6.484,2.573l2.318,4.773c.276.01.553.017.832.017a22.324,22.324,0,0,0,4.067-.373l1.563-5.055a17.662,17.662,0,0,0,6.1-3.543l5.169,1.161a22.239,22.239,0,0,0,2.754-4.067l-3-4.4A17.644,17.644,0,0,0,2018.067,604.641ZM2000.2,612.43a7.445,7.445,0,1,1,7.446-7.445A7.445,7.445,0,0,1,2000.2,612.43Z" transform="translate(-1797.572 -525.626)" fill="#fecb2f"/>
      </g>
      <g id="Grupo_894687" data-name="Grupo 894687" transform="translate(503.245 139.491)">
        <g id="Grupo_894683" data-name="Grupo 894683" transform="translate(30.11 1.874)" opacity="0.8">
          <path id="Trazado_623234" data-name="Trazado 623234" d="M2655.221,259.432h-6.4a4.486,4.486,0,0,1-4.481-4.481v-6.4a4.486,4.486,0,0,1,4.481-4.481h6.4a4.487,4.487,0,0,1,4.481,4.481v6.4A4.487,4.487,0,0,1,2655.221,259.432Zm-6.4-13.6a2.721,2.721,0,0,0-2.718,2.718v6.4a2.721,2.721,0,0,0,2.718,2.718h6.4a2.721,2.721,0,0,0,2.718-2.718v-6.4a2.721,2.721,0,0,0-2.718-2.718Z" transform="translate(-2644.341 -244.07)" fill="#9ec8ff"/>
        </g>
        <g id="Grupo_894684" data-name="Grupo 894684" transform="translate(0 1.874)" opacity="0.8">
          <path id="Trazado_623235" data-name="Trazado 623235" d="M2416.186,259.432h-6.4a4.487,4.487,0,0,1-4.481-4.481v-6.4a4.487,4.487,0,0,1,4.481-4.481h6.4a4.486,4.486,0,0,1,4.481,4.481v6.4A4.486,4.486,0,0,1,2416.186,259.432Zm-6.4-13.6a2.721,2.721,0,0,0-2.718,2.718v6.4a2.721,2.721,0,0,0,2.718,2.718h6.4a2.721,2.721,0,0,0,2.718-2.718v-6.4a2.721,2.721,0,0,0-2.718-2.718Z" transform="translate(-2405.306 -244.07)" fill="#9ec8ff"/>
        </g>
        <g id="Grupo_894685" data-name="Grupo 894685" transform="translate(2.726 0)">
          <path id="Trazado_623236" data-name="Trazado 623236" d="M2432.3,242.7h-.036a.756.756,0,0,1-.563-.3l-4.6-6a.756.756,0,1,1,1.2-.92l4.056,5.291,10.59-11.346a.756.756,0,0,1,1.105,1.031l-11.2,12A.756.756,0,0,1,2432.3,242.7Z" transform="translate(-2426.943 -229.195)" fill="#fecb2f"/>
        </g>
        <g id="Grupo_894686" data-name="Grupo 894686" transform="translate(32.836 0.126)">
          <path id="Trazado_623237" data-name="Trazado 623237" d="M2671.334,243.7h-.037a.756.756,0,0,1-.563-.3l-4.6-6a.756.756,0,1,1,1.2-.92l4.056,5.291,10.59-11.346a.756.756,0,0,1,1.1,1.031l-11.2,12A.756.756,0,0,1,2671.334,243.7Z" transform="translate(-2665.979 -230.195)" fill="#fecb2f"/>
        </g>
      </g>
      <path id="Trazado_623238" data-name="Trazado 623238" d="M760.821,1702.2c-26.2-1.281-115.317.889-142.421,1.735s-58.566-1.116-74.908-4-110.809.245-106.522,8,42.089,3.47,84.957,6.588,139.28-.39,161.027,0,41.69-.779,69.715-2.338S776.006,1702.938,760.821,1702.2Z" transform="translate(-181.545 -1374.252)" fill="#e8e8e8"/>
      <g id="Grupo_894692" data-name="Grupo 894692" transform="translate(256.742 165.743)">
        <rect id="Rectángulo_301362" data-name="Rectángulo 301362" width="54.763" height="89.76" transform="translate(0 0)" fill="#fecb2f"/>
        <rect id="Rectángulo_301363" data-name="Rectángulo 301363" width="50.095" height="84.51" transform="translate(2.868 1.829)" fill="#fff"/>
        <g id="Grupo_894691" data-name="Grupo 894691" transform="translate(5.771 5.264)">
          <g id="Grupo_894688" data-name="Grupo 894688" transform="translate(12.081 5.188)">
            <path id="Trazado_623239" data-name="Trazado 623239" d="M590.122,683.986c1.885-4.056,5.077-5.355,10.317-5.355,6.24,0,9.479,2.26,10.4,5.551C599.663,684.335,590.122,683.986,590.122,683.986Z" transform="translate(-590.122 -658.721)" fill="#0b5999"/>
            <path id="Trazado_623240" data-name="Trazado 623240" d="M600.012,520.757c-2.641.741-2.526,2.226-3.406,3.6s-2.793,2.3-3.023,3.214.589,2.832-.383,3.9-1.3,1.607-.918,2.679,1.224,2.755,1.3,2.985a4.289,4.289,0,0,0,2.449,2.066,27.6,27.6,0,0,1,4.974,1.148c1.224.536,5.162-.686,7.347-.609s3.674-1.534,3.52-2.605,1.612-3.214,1.607-5.051c0-1.972-2.3-3.444-2.908-4.745s.077-3.6-2.219-4.957c-1.451-.859-2.449-.783-3.6-1.166A8.516,8.516,0,0,0,600.012,520.757Z" transform="translate(-591.874 -520.576)" fill="#3a384d"/>
            <path id="Trazado_623241" data-name="Trazado 623241" d="M657.94,613c-.6.882-1.035.918-1.684,0a8.385,8.385,0,0,1-1.531-3.231v-8.4a1.535,1.535,0,0,1,1.531-1.531h1.684a1.535,1.535,0,0,1,1.531,1.531v8.4A8.5,8.5,0,0,1,657.94,613Z" transform="translate(-646.588 -589.851)" fill="#f09959"/>
            <path id="Trazado_623242" data-name="Trazado 623242" d="M657.94,599.835h-1.684a1.535,1.535,0,0,0-1.531,1.531v7.5c1.891.6,3.616-.595,4.745-1.943v-5.554A1.535,1.535,0,0,0,657.94,599.835Z" transform="translate(-646.588 -589.851)" fill="#e38540"/>
            <ellipse id="Elipse_6248" data-name="Elipse 6248" cx="5.089" cy="6.935" rx="5.089" ry="6.935" transform="translate(5.421 3.134)" fill="#f09959"/>
            <path id="Trazado_623243" data-name="Trazado 623243" d="M637.167,537.7c-3.214,5.434-7.959,4.9-7.959,4.9s.115-7.194,3.884-7.577,5.989,1.13,6.754,3.626a6.16,6.16,0,0,1,0,4.142,6.607,6.607,0,0,1-1.837-2.487A17.877,17.877,0,0,1,637.167,537.7Z" transform="translate(-624.285 -533.153)" fill="#3a384d"/>
            <ellipse id="Elipse_6249" data-name="Elipse 6249" cx="1.339" cy="2.009" rx="1.339" ry="2.009" transform="translate(2.661 9.297) rotate(-25.405)" fill="#f09959"/>
            <path id="Trazado_623244" data-name="Trazado 623244" d="M706.092,590.438c-.476,1-.32,2.072.348,2.389s1.6-.238,2.072-1.24.32-2.072-.348-2.389S706.568,589.435,706.092,590.438Z" transform="translate(-691.242 -580.475)" fill="#f09959"/>
            <path id="Trazado_623245" data-name="Trazado 623245" d="M662.2,630.368a2.2,2.2,0,0,1-3.826,0Z" transform="translate(-649.775 -616.538)" fill="#fff"/>
          </g>
          <path id="Trazado_623246" data-name="Trazado 623246" d="M622.107,787.739H609.254a1.495,1.495,0,0,1,0-2.989h12.853a1.495,1.495,0,0,1,0,2.989Z" transform="translate(-593.457 -746.285)" fill="#99bbeb"/>
          <path id="Trazado_623247" data-name="Trazado 623247" d="M608.132,824.191H590.573a1.494,1.494,0,0,1,0-2.989h17.559a1.494,1.494,0,1,1,0,2.989Z" transform="translate(-577.13 -778.145)" fill="#99bbeb"/>
          <path id="Trazado_623248" data-name="Trazado 623248" d="M537.8,963.991H495.084a.867.867,0,1,1,0-1.734H537.8a.867.867,0,1,1,0,1.734Z" transform="translate(-494.217 -901.432)" fill="#99bbeb"/>
          <path id="Trazado_623249" data-name="Trazado 623249" d="M537.8,995.987H495.084a.867.867,0,1,1,0-1.734H537.8a.867.867,0,0,1,0,1.734Z" transform="translate(-494.217 -929.398)" fill="#99bbeb"/>
          <path id="Trazado_623250" data-name="Trazado 623250" d="M537.8,1027.983H495.084a.867.867,0,1,1,0-1.734H537.8a.867.867,0,1,1,0,1.734Z" transform="translate(-494.217 -957.363)" fill="#99bbeb"/>
          <g id="Grupo_894689" data-name="Grupo 894689" transform="translate(5.293)">
            <path id="Trazado_623251" data-name="Trazado 623251" d="M568.548,510.837H537.783a1.55,1.55,0,0,1-1.548-1.548V480.935a1.55,1.55,0,0,1,1.548-1.548h30.764a1.55,1.55,0,0,1,1.548,1.548v28.354A1.55,1.55,0,0,1,568.548,510.837Zm-30.764-30.191a.292.292,0,0,0-.289.289v28.354a.293.293,0,0,0,.289.289h30.764a.293.293,0,0,0,.289-.289V480.935a.292.292,0,0,0-.289-.289Z" transform="translate(-536.235 -479.387)" fill="#99bbeb"/>
          </g>
          <g id="Grupo_894690" data-name="Grupo 894690" transform="translate(8.398 49.945)">
            <path id="Trazado_623252" data-name="Trazado 623252" d="M563.769,875.882l.891,1.8,1.992.289-1.441,1.4.34,1.983-1.781-.936-1.781.936.34-1.983-1.441-1.4,1.992-.289Z" transform="translate(-560.887 -875.882)" fill="#99bbeb"/>
            <path id="Trazado_623253" data-name="Trazado 623253" d="M621.683,875.882l.891,1.8,1.992.289-1.441,1.4.34,1.983-1.781-.936-1.781.936.34-1.983-1.441-1.4,1.992-.289Z" transform="translate(-611.506 -875.882)" fill="#99bbeb"/>
            <path id="Trazado_623254" data-name="Trazado 623254" d="M679.6,875.882l.891,1.8,1.992.289-1.441,1.4.34,1.983-1.781-.936-1.781.936.34-1.983-1.441-1.4,1.992-.289Z" transform="translate(-662.125 -875.882)" fill="#99bbeb"/>
            <path id="Trazado_623255" data-name="Trazado 623255" d="M737.512,875.882l.891,1.8,1.992.289-1.441,1.4.34,1.983-1.781-.936-1.781.936.34-1.983-1.441-1.4,1.992-.289Z" transform="translate(-712.744 -875.882)" fill="#99bbeb"/>
          </g>
        </g>
      </g>
      <g id="Grupo_894697" data-name="Grupo 894697" transform="translate(378.83 165.743)">
        <rect id="Rectángulo_301364" data-name="Rectángulo 301364" width="54.763" height="89.76" transform="translate(0 0)" fill="#ef3c79"/>
        <rect id="Rectángulo_301365" data-name="Rectángulo 301365" width="50.095" height="84.51" transform="translate(2.868 1.829)" fill="#fff"/>
        <g id="Grupo_894696" data-name="Grupo 894696" transform="translate(5.771 5.264)">
          <g id="Grupo_894693" data-name="Grupo 894693" transform="translate(12.081 5.728)">
            <path id="Trazado_623256" data-name="Trazado 623256" d="M1578.225,596.877c0,4.02,2.421,10.507,8.131,10.3s6.973-6.391,7.194-8.136S1578.225,596.877,1578.225,596.877Z" transform="translate(-1575.845 -587.805)" fill="#7a4e34"/>
            <path id="Trazado_623257" data-name="Trazado 623257" d="M1559.335,683.986c1.886-4.056,5.077-5.355,10.317-5.355,6.239,0,9.479,2.26,10.4,5.551C1568.876,684.335,1559.335,683.986,1559.335,683.986Z" transform="translate(-1559.335 -659.261)" fill="#ef3c79"/>
            <path id="Trazado_623258" data-name="Trazado 623258" d="M1627.154,613c-.6.882-1.035.918-1.684,0a8.385,8.385,0,0,1-1.531-3.231v-8.4a1.535,1.535,0,0,1,1.531-1.531h1.684a1.535,1.535,0,0,1,1.531,1.531v8.4A8.5,8.5,0,0,1,1627.154,613Z" transform="translate(-1615.802 -590.391)" fill="#f09959"/>
            <path id="Trazado_623259" data-name="Trazado 623259" d="M1627.154,599.835h-1.684a1.535,1.535,0,0,0-1.531,1.531v7.5c1.891.6,3.616-.595,4.745-1.943v-5.554A1.535,1.535,0,0,0,1627.154,599.835Z" transform="translate(-1615.802 -590.391)" fill="#e38540"/>
            <ellipse id="Elipse_6250" data-name="Elipse 6250" cx="5.089" cy="6.935" rx="5.089" ry="6.935" transform="translate(5.421 2.595)" fill="#f09959"/>
            <path id="Trazado_623260" data-name="Trazado 623260" d="M1589.034,529.118c-.6,2.133-1.93,2.108-3.778,2.808s-2.731,1.405-3.336,2.769c-.771,1.74.35,6.812.35,6.812s-4.679-3.5-4.138-9.008,3.788-7.64,6.844-7.64a4.9,4.9,0,0,1,4.218,1.862,4.577,4.577,0,0,1,3.167,1.83c2.069,2.451,1.432,8.4,0,10.536s-2.387,2.8-2.356,2.706,1.337-4.993.637-8.021A19.35,19.35,0,0,0,1589.034,529.118Z" transform="translate(-1575.726 -524.86)" fill="#7a4e34"/>
            <path id="Trazado_623261" data-name="Trazado 623261" d="M1631.411,630.368a2.2,2.2,0,0,1-3.827,0Z" transform="translate(-1618.988 -617.078)" fill="#fff"/>
          </g>
          <path id="Trazado_623262" data-name="Trazado 623262" d="M1591.321,787.739h-12.852a1.495,1.495,0,1,1,0-2.989h12.852a1.495,1.495,0,0,1,0,2.989Z" transform="translate(-1562.671 -746.285)" fill="#99bbeb"/>
          <path id="Trazado_623263" data-name="Trazado 623263" d="M1577.345,824.191h-17.559a1.494,1.494,0,0,1,0-2.989h17.559a1.494,1.494,0,1,1,0,2.989Z" transform="translate(-1546.343 -778.145)" fill="#99bbeb"/>
          <path id="Trazado_623264" data-name="Trazado 623264" d="M1507.01,963.991H1464.3a.867.867,0,1,1,0-1.734h42.712a.867.867,0,0,1,0,1.734Z" transform="translate(-1463.431 -901.432)" fill="#99bbeb"/>
          <path id="Trazado_623265" data-name="Trazado 623265" d="M1507.01,995.987H1464.3a.867.867,0,0,1,0-1.734h42.712a.867.867,0,0,1,0,1.734Z" transform="translate(-1463.431 -929.398)" fill="#99bbeb"/>
          <path id="Trazado_623266" data-name="Trazado 623266" d="M1507.01,1027.983H1464.3a.867.867,0,1,1,0-1.734h42.712a.867.867,0,0,1,0,1.734Z" transform="translate(-1463.431 -957.363)" fill="#99bbeb"/>
          <g id="Grupo_894694" data-name="Grupo 894694" transform="translate(5.293)">
            <path id="Trazado_623267" data-name="Trazado 623267" d="M1537.761,510.837H1507a1.55,1.55,0,0,1-1.548-1.548V480.935a1.55,1.55,0,0,1,1.548-1.548h30.764a1.55,1.55,0,0,1,1.548,1.548v28.354A1.55,1.55,0,0,1,1537.761,510.837ZM1507,480.647a.292.292,0,0,0-.289.289v28.354a.292.292,0,0,0,.289.289h30.764a.292.292,0,0,0,.289-.289V480.935a.292.292,0,0,0-.289-.289Z" transform="translate(-1505.449 -479.387)" fill="#99bbeb"/>
          </g>
          <g id="Grupo_894695" data-name="Grupo 894695" transform="translate(8.398 49.945)">
            <path id="Trazado_623268" data-name="Trazado 623268" d="M1532.983,875.882l.891,1.8,1.992.289-1.441,1.4.34,1.983-1.781-.936-1.781.936.34-1.983-1.441-1.4,1.992-.289Z" transform="translate(-1530.101 -875.882)" fill="#99bbeb"/>
            <path id="Trazado_623269" data-name="Trazado 623269" d="M1590.9,875.882l.891,1.8,1.992.289-1.441,1.4.34,1.983-1.781-.936-1.781.936.34-1.983-1.441-1.4,1.992-.289Z" transform="translate(-1580.72 -875.882)" fill="#99bbeb"/>
            <path id="Trazado_623270" data-name="Trazado 623270" d="M1648.811,875.882l.891,1.8,1.992.289-1.441,1.4.34,1.983-1.781-.936-1.781.936.34-1.983-1.441-1.4,1.992-.289Z" transform="translate(-1631.339 -875.882)" fill="#99bbeb"/>
            <path id="Trazado_623271" data-name="Trazado 623271" d="M1706.726,875.882l.891,1.8,1.992.289-1.441,1.4.34,1.983-1.781-.936-1.781.936.34-1.983-1.441-1.4,1.991-.289Z" transform="translate(-1681.958 -875.882)" fill="#99bbeb"/>
          </g>
        </g>
      </g>
      <path id="Trazado_623272" data-name="Trazado 623272" d="M866.818,528.77H780.393l6.113-88.528h83.427Z" transform="translate(-481.832 -274.166)" fill="#99bbeb" opacity="0.2"/>
      <g id="Grupo_894702" data-name="Grupo 894702" transform="translate(307.64 149.323)">
        <rect id="Rectángulo_301366" data-name="Rectángulo 301366" width="74.798" height="122.598" transform="translate(0 0)" fill="#21cbae"/>
        <rect id="Rectángulo_301367" data-name="Rectángulo 301367" width="68.422" height="115.427" transform="translate(3.917 2.498)" fill="#fff"/>
        <g id="Grupo_894701" data-name="Grupo 894701" transform="translate(7.882 7.421)">
          <g id="Grupo_894698" data-name="Grupo 894698" transform="translate(15.636 5.333)">
            <path id="Trazado_623273" data-name="Trazado 623273" d="M1094.867,422.486c-.048-.143-1.245-7.019-1.389-9.693s4.3-3.056,4.3-3.056,3.629-1.958,6.255-.955a10.586,10.586,0,0,1,5.607,4.791c1.194,2.1-1.05,8.648-1.05,8.648Z" transform="translate(-1086.634 -408.497)" fill="#2e2d3d"/>
            <path id="Trazado_623274" data-name="Trazado 623274" d="M1039.168,623.953c-.017-.113.307-2.819.318-2.928.6-5.7,7.628-7.3,14.637-7.3,8.234,0,13.821,1.507,14.712,7.428.026.173.5,2.886.478,3.069C1054.051,624.429,1039.168,623.953,1039.168,623.953Z" transform="translate(-1039.167 -587.872)" fill="#d5e1e8"/>
            <path id="Trazado_623275" data-name="Trazado 623275" d="M1131.961,524.08c-.816,1.2-1.414,1.254-2.3,0-.7-1-3.056-3.273-3.056-4.422l.965-11.466a2.1,2.1,0,0,1,2.091-2.091h2.3a2.1,2.1,0,0,1,2.091,2.091l.448,11.466C1134.5,520.808,1132.693,523,1131.961,524.08Z" transform="translate(-1115.592 -493.806)" fill="#f09959"/>
            <path id="Trazado_623276" data-name="Trazado 623276" d="M1132.845,506.1h-2.3a2.1,2.1,0,0,0-2.091,2.091l-.838,10.172c2.582.822,6.069-.849,7.611-2.69l-.292-7.482A2.1,2.1,0,0,0,1132.845,506.1Z" transform="translate(-1116.475 -493.806)" fill="#e38540"/>
            <path id="Trazado_623277" data-name="Trazado 623277" d="M1097.339,618.832l3.687,6.814s1.973-1.623,2.165-1.3a29.149,29.149,0,0,1-.35,4.335,37.8,37.8,0,0,0,4.584-.131c.191-.191-.891-4.363-.446-4.363s1.786,1.21,1.786,1.21l4.116-6.56-.9-.22-6.745,3.629-7.214-3.549Z" transform="translate(-1090.011 -592.145)" fill="#bdccd4"/>
            <path id="Trazado_623278" data-name="Trazado 623278" d="M1130.81,638.316l2.738,1.837-.848,4.876,3.693-.206-.922-4.435,2.269-2.072-1.066-1h-4.8Z" transform="translate(-1119.266 -608.489)" fill="#ef3c79"/>
            <path id="Trazado_623279" data-name="Trazado 623279" d="M1104.625,591.638l-3.386,3.222s3.45,6.136,3.641,6.136,2.928-3.383,2.928-3.383l1.752-.031,2.768,2.9,3.217-5.691-3.28-3.477s-2.8,5.411-3.311,5.539-.513.191-.925-.127S1104.625,591.638,1104.625,591.638Z" transform="translate(-1093.419 -568.291)" fill="#d5e1e8"/>
            <ellipse id="Elipse_6251" data-name="Elipse 6251" cx="6.951" cy="9.472" rx="6.951" ry="9.472" transform="translate(8.268 2.939)" fill="#f09959"/>
            <path id="Trazado_623280" data-name="Trazado 623280" d="M1084.913,493.265c.65,1.369.438,2.83-.475,3.263s-2.179-.325-2.83-1.694-.437-2.83.475-3.263S1084.263,491.9,1084.913,493.265Z" transform="translate(-1075.933 -481)" fill="#f09959"/>
            <path id="Trazado_623281" data-name="Trazado 623281" d="M1204.424,493.265c-.65,1.369-.437,2.83.475,3.263s2.179-.325,2.829-1.694.438-2.83-.475-3.263S1205.074,491.9,1204.424,493.265Z" transform="translate(-1183.278 -481)" fill="#f09959"/>
            <path id="Trazado_623282" data-name="Trazado 623282" d="M1141.678,537.875s-1.381,2.236-3.084,2.236-3.084-2.236-3.084-2.236Z" transform="translate(-1123.374 -521.578)" fill="#fff"/>
            <path id="Trazado_623283" data-name="Trazado 623283" d="M1107.436,428.86c2.865-2.005,4.154-1.671,6.3,1.623s4.727,3.353,4.727,3.353l.334-3.416s-3.2-6.191-7.5-5.379a11.339,11.339,0,0,0-6.74,4.679s-.209,7.249.39,7.5.668-2.34,1.1-2.865-.43-3.008.143-4.154S1107.436,428.86,1107.436,428.86Z" transform="translate(-1096.294 -422.892)" fill="#2e2d3d"/>
            <path id="Trazado_623284" data-name="Trazado 623284" d="M1200.773,485.439c1,1.1.621,5.443,1.146,5.4s.716-4.154.573-4.584S1200.773,485.439,1200.773,485.439Z" transform="translate(-1180.416 -475.747)" fill="#2e2d3d"/>
          </g>
          <path id="Trazado_623285" data-name="Trazado 623285" d="M1047.03,785.491H1015.1a2.041,2.041,0,0,1,0-4.082h31.93a2.041,2.041,0,1,1,0,4.082Z" transform="translate(-1000.712 -729.102)" fill="#99bbeb"/>
          <path id="Trazado_623286" data-name="Trazado 623286" d="M1070.627,835.279h-23.983a2.041,2.041,0,0,1,0-4.082h23.983a2.041,2.041,0,0,1,0,4.082Z" transform="translate(-1028.282 -772.618)" fill="#99bbeb"/>
          <path id="Trazado_623287" data-name="Trazado 623287" d="M974.559,1026.225H916.221a1.184,1.184,0,0,1,0-2.369h58.338a1.184,1.184,0,1,1,0,2.369Z" transform="translate(-915.037 -941.009)" fill="#99bbeb"/>
          <path id="Trazado_623288" data-name="Trazado 623288" d="M974.559,1069.927H916.221a1.184,1.184,0,0,1,0-2.369h58.338a1.184,1.184,0,1,1,0,2.369Z" transform="translate(-915.037 -979.206)" fill="#99bbeb"/>
          <path id="Trazado_623289" data-name="Trazado 623289" d="M974.559,1113.628H916.221a1.184,1.184,0,0,1,0-2.369h58.338a1.184,1.184,0,1,1,0,2.369Z" transform="translate(-915.037 -1017.402)" fill="#99bbeb"/>
          <g id="Grupo_894699" data-name="Grupo 894699" transform="translate(7.46)">
            <path id="Trazado_623290" data-name="Trazado 623290" d="M1018.16,408.655H976.14a1.886,1.886,0,0,1-1.884-1.884V368.044a1.886,1.886,0,0,1,1.884-1.884h42.019a1.886,1.886,0,0,1,1.884,1.884v38.727A1.886,1.886,0,0,1,1018.16,408.655ZM976.14,367.42a.625.625,0,0,0-.625.625v38.727a.625.625,0,0,0,.625.625h42.019a.625.625,0,0,0,.625-.625V368.044a.625.625,0,0,0-.625-.625Z" transform="translate(-974.256 -366.16)" fill="#99bbeb"/>
          </g>
          <g id="Grupo_894700" data-name="Grupo 894700" transform="translate(6.409 67.986)">
            <path id="Trazado_623291" data-name="Trazado 623291" d="M969.855,905.881l1.217,2.465,2.72.4-1.968,1.919.465,2.709-2.433-1.279-2.433,1.279.465-2.709-1.968-1.919,2.72-.4Z" transform="translate(-965.918 -905.881)" fill="#99bbeb"/>
            <path id="Trazado_623292" data-name="Trazado 623292" d="M1048.957,905.881l1.217,2.465,2.72.4-1.968,1.919.465,2.709-2.433-1.279-2.433,1.279.465-2.709-1.968-1.919,2.72-.4Z" transform="translate(-1035.056 -905.881)" fill="#99bbeb"/>
            <path id="Trazado_623293" data-name="Trazado 623293" d="M1128.059,905.881l1.217,2.465,2.72.4-1.969,1.919.465,2.709-2.433-1.279-2.433,1.279.465-2.709-1.968-1.919,2.72-.4Z" transform="translate(-1104.194 -905.881)" fill="#99bbeb"/>
            <path id="Trazado_623294" data-name="Trazado 623294" d="M1207.161,905.881l1.217,2.465,2.72.4-1.968,1.919.465,2.709-2.433-1.279-2.433,1.279.465-2.709-1.968-1.919,2.72-.4Z" transform="translate(-1173.332 -905.881)" fill="#99bbeb"/>
            <path id="Trazado_623295" data-name="Trazado 623295" d="M1287.52,905.881l1.217,2.465,2.72.4-1.968,1.919.465,2.709-2.433-1.279-2.433,1.279.465-2.709-1.968-1.919,2.72-.4Z" transform="translate(-1243.568 -905.881)" fill="#99bbeb"/>
          </g>
        </g>
      </g>
      <rect id="Rectángulo_301368" data-name="Rectángulo 301368" width="98.07" height="3.654" rx="1.827" transform="translate(405.539 264.326)" fill="#2e5b9a"/>
      <g id="Grupo_894707" data-name="Grupo 894707" transform="translate(444.282 201.884)">
        <path id="Trazado_623296" data-name="Trazado 623296" d="M2505.238,784.928c1.3,4.585-1.875,9.31-5.375,10.3s-6-2.123-7.3-6.708.481-9.106,3.98-10.1S2503.937,780.343,2505.238,784.928Z" transform="translate(-2422.24 -771.463)" fill="#f09959"/>
        <path id="Trazado_623297" data-name="Trazado 623297" d="M2412.255,1536.709s8.968,13.928,10.179,14.533,4.239.757,3.1,3.028-1.59,11.2-2.649,11.657-10.143,1.514-8.781,0,2.2-.757,2.888-3.482,1.654-7.872.367-8.932-9.159-10.6-9.159-10.6Z" transform="translate(-2348.875 -1434.4)" fill="#f09959"/>
        <path id="Trazado_623298" data-name="Trazado 623298" d="M1955.466,1584.192s-10.9,17.966-12.919,19.581-8.68,4.037-3.23,4.441,8.074-1.817,11.506-2.826,7.671-1.615,6.056-4.239-.944-8.353,2.537-11.987S1955.466,1584.192,1955.466,1584.192Z" transform="translate(-1937.219 -1475.902)" fill="#f09959"/>
        <path id="Trazado_623299" data-name="Trazado 623299" d="M2105.581,1253.369s-26.985-.706-37.684,8.074c-6.258,9.488-21.4,37.481-22.573,40.566.807.808,5.349,2.264,7.368,2.063,5.955-7.1,13.826-13.239,16.957-18.809,3.857-6.863,5.046-10.295,11.3-10.9s20.388-2.624,24.628-2.624S2105.581,1253.369,2105.581,1253.369Z" transform="translate(-2031.706 -1186.739)" fill="#0d416b"/>
        <path id="Trazado_623300" data-name="Trazado 623300" d="M2630.294,1481.641h-1.414l-10.143-42.319h3.112Z" transform="translate(-2532.888 -1349.281)" fill="#2e5b9a"/>
        <path id="Trazado_623301" data-name="Trazado 623301" d="M2374.111,1471.26h1.415l11.639-43.815h-3.112Z" transform="translate(-2319.078 -1338.9)" fill="#2e5b9a"/>
        <path id="Trazado_623302" data-name="Trazado 623302" d="M2277.582,1238.789l-15.689,2.708s-20.848.192-30.378,1.967c-8.67,1.615-9.948,11.466,0,25.031,5.651,7.706,10.429,13.853,20.2,20.783,2.486-1.825,3.436-2.515,4.123-6.906-.707-.97-2.538-7.038-3.106-8.226-5.4-11.3-12.618-15.405-12.718-16.516,1.211-1.968,32.081,10.259,38.219,3.066C2284.094,1253.83,2277.582,1238.789,2277.582,1238.789Z" transform="translate(-2188.335 -1174.008)" fill="#0b5999"/>
        <path id="Trazado_623303" data-name="Trazado 623303" d="M2512,955.589a16.416,16.416,0,0,0-12.276,3.055c-3.439,3.506-7.33,9.287-7.092,18.823.3,12.111-1.874,12.889.4,16.22,9.471,3.911,25.67,20.716,21.855,2.7-2.762-13.045,6.058-22.768-1.057-37.238C2513.243,957.971,2512.52,956.829,2512,955.589Z" transform="translate(-2422.097 -926.325)" fill="#ef3c79"/>
        <path id="Trazado_623304" data-name="Trazado 623304" d="M2492.628,1003.019c-.184,6.314-1.076,8.174-.394,10.153,3.861.394,10.924,1.939,12.689,4.41,2.019,2.826,4.037,3.23,3.1,1.144s-3.432-5.047.4-15.207,5.652-17.024,1.884-24.089Z" transform="translate(-2422.1 -947.319)" fill="#e10f57"/>
        <path id="Trazado_623305" data-name="Trazado 623305" d="M2565.717,868.079a49.272,49.272,0,0,1-3.169-12.79l-6.661,1.968s3.785,8.478.152,11.506a34.691,34.691,0,0,0-2.6,2.371A16.417,16.417,0,0,1,2565.717,868.079Z" transform="translate(-2475.818 -838.815)" fill="#f09959"/>
        <path id="Trazado_623306" data-name="Trazado 623306" d="M2579.787,859.365c-.395-.351-.888-.789-1.407-1.248l-5.433,1.605-.011.029a22.191,22.191,0,0,1,1.7,6.636,19.162,19.162,0,0,0,5.419-5.382C2579.941,860.386,2579.854,859.832,2579.787,859.365Z" transform="translate(-2492.857 -841.288)" fill="#e38540"/>
        <path id="Trazado_623307" data-name="Trazado 623307" d="M2332.92,970.543c-6.861,2.4-6.1,9.627-12.414,20.286-3.268,5.516-6.3,5.434-6.3,5.434a146.187,146.187,0,0,1-16.933-1.072c-5.8-.71-6.173,1.018-2.136,2.462,8.142,2.911,16.591,6.044,23.4,5.287S2337,984.8,2337.6,980.277C2338.434,974.019,2336.375,969.335,2332.92,970.543Z" transform="translate(-2247.705 -939.385)" fill="#f09959"/>
        <g id="Grupo_894703" data-name="Grupo 894703" transform="translate(57.564 46.09)">
          <path id="Trazado_623308" data-name="Trazado 623308" d="M2418.318,1136.121q-.64,0-1.311-.017a65.256,65.256,0,0,1-12.456-1.533c-3.571-.726-5.538-1.125-7.827-.032a1.763,1.763,0,0,1-1.521-3.182c3.355-1.6,6.164-1.032,10.05-.242a62.145,62.145,0,0,0,11.84,1.463c5.91.147,9.514-.729,11.34-2.755,1.627-1.8,2.1-4.837,1.5-9.542-.207-1.61-.414-2.95-.6-4.132a28.6,28.6,0,0,1-.434-8.941c.391-3.162,1.438-7.374,3.863-15.54a1.764,1.764,0,1,1,3.381,1c-4.519,15.218-4.29,16.7-3.325,22.939.186,1.2.4,2.566.61,4.221.746,5.8-.01,9.728-2.377,12.354C2428.615,1134.89,2424.657,1136.121,2418.318,1136.121Z" transform="translate(-2394.199 -1090.406)" fill="#2e5b9a"/>
        </g>
        <path id="Trazado_623309" data-name="Trazado 623309" d="M1956.206,1704.4c-7.233,3.538-11.126,5.565-13.444,5.371-.547-.045-1-.1-1.382-.161-2.579,1.524-6.7,3.326-2.064,3.669,5.45.4,8.074-1.817,11.506-2.826s7.671-1.615,6.056-4.239A5.52,5.52,0,0,1,1956.206,1704.4Z" transform="translate(-1937.219 -1580.968)" fill="#d54a41"/>
        <path id="Trazado_623310" data-name="Trazado 623310" d="M2463.225,1654.431c-.177,5.727-.964,11.4-4.466,12.473a5.887,5.887,0,0,1-2.523.225c-.551.681-1.223.689-2.125,1.691-1.363,1.514,7.721.454,8.781,0s1.514-9.386,2.65-11.657C2466.473,1655.3,2464.6,1654.863,2463.225,1654.431Z" transform="translate(-2388.878 -1537.293)" fill="#d54a41"/>
        <g id="Grupo_894704" data-name="Grupo 894704" transform="translate(12.459 39.431)">
          <path id="Trazado_623311" data-name="Trazado 623311" d="M2070.157,1061.054h-22.978a1.763,1.763,0,0,1-1.6-1.02l-9.286-19.984a1.764,1.764,0,1,1,3.2-1.486l8.811,18.964h21.853a1.763,1.763,0,0,1,0,3.527Z" transform="translate(-2036.13 -1037.542)" fill="#75a1de"/>
        </g>
        <path id="Trazado_623312" data-name="Trazado 623312" d="M2202.658,1151.984c-4.643-.067-9.248-2.835-11.535-2.431s-9.757,5.585-8.815,5.787,6.863-2.867,7.065-2.914a9.955,9.955,0,0,0,4.643,2.924c3.163.8.022-2.37,9.826.59C2210.216,1157.865,2202.658,1151.984,2202.658,1151.984Z" transform="translate(-2151.364 -1095.977)" fill="#f09959"/>
        <path id="Trazado_623313" data-name="Trazado 623313" d="M2536.42,913.192l.683,5.5s-6.008.358-9,2.04-7.4,6.542-7.4,6.542l3.6-6.206.519-3.97Z" transform="translate(-2447.205 -889.425)" fill="#f2e5de"/>
        <path id="Trazado_623314" data-name="Trazado 623314" d="M2382.339,965.847c-4.462-.836-6.527,3.163-9.42,9.689s-7.833,14.454-8.815,15.476-16.553,0-16.553,0-.471,4.508,0,5.047,3.163.471,3.163.471,1.077.86,2.086,1.54,9.555,1.959,13.525,1.757,7.6-.538,8.142-1.144,11.372-17.293,12.044-23.282S2384.617,966.273,2382.339,965.847Z" transform="translate(-2295.68 -935.351)" fill="#f2e5de"/>
        <path id="Trazado_623315" data-name="Trazado 623315" d="M2470.8,727.554c-8.44.4-7.116,13.1-7.116,13.1s2.192.677,6.784-.08a25.341,25.341,0,0,1-.2-4.845,31.745,31.745,0,0,0,1.211,4.542c.971.445,2.069.05,3.937-.4a8.3,8.3,0,0,0,5.523,6.322c2.05.644,4.219,1.413,6.642.2s1.09-13.592-.2-16.082c-1.931-3.737-5.14-7.082-10.691-5.316A41.237,41.237,0,0,0,2470.8,727.554Z" transform="translate(-2397.304 -724.512)" fill="#303c60"/>
        <path id="Trazado_623316" data-name="Trazado 623316" d="M2637.22,862.072l3.45,5.04s-3.824,9.555,7.3,13.884c8.71,3.39,7.684,9.364,3.748,15.371s2.355,11.254,2.355,11.254.959-6.655,9.423-7.911c11.54-1.713,14.807-17.206,6.188-24.953-7.132-6.411-9.3-1.1-14.13-6.854s-13.942-1.867-13.942-1.867l-3.34-4.872Z" transform="translate(-2549.043 -843.95)" fill="#303c60"/>
        <g id="Grupo_894705" data-name="Grupo 894705" transform="translate(92.26 19.89)">
          <path id="Trazado_623317" data-name="Trazado 623317" d="M2701.986,908.933a.307.307,0,0,1-.269-.454c2.9-5.3.534-11.727-.657-13.468-.126-.185-.246-.371-.373-.569-1.17-1.827-2.626-4.1-10.4-5.5a12.366,12.366,0,0,1-4.99-2.627c-3.313-2.432-7.069-5.19-15.229-1.434a.307.307,0,0,1-.257-.558c8.488-3.907,12.4-1.036,15.848,1.5a11.923,11.923,0,0,0,4.736,2.517c8.033,1.446,9.57,3.844,10.8,5.771.124.194.241.377.363.554,1.248,1.823,3.729,8.554.689,14.109A.307.307,0,0,1,2701.986,908.933Z" transform="translate(-2669.636 -882.409)" fill="#303c60"/>
        </g>
        <g id="Grupo_894706" data-name="Grupo 894706" transform="translate(77.316 11.281)">
          <path id="Trazado_623318" data-name="Trazado 623318" d="M2560.023,826.076a12.144,12.144,0,0,1-1.792-.144c-2.953-.442-6.914-2.12-7.225-11.543a.307.307,0,1,1,.613-.02c.128,3.884.9,6.758,2.29,8.542a6.438,6.438,0,0,0,4.412,2.415c2.732.409,4.544-.1,5.383-1.5a.307.307,0,1,1,.527.315C2563.462,825.428,2562.05,826.076,2560.023,826.076Z" transform="translate(-2551.006 -814.072)" fill="#303c60"/>
        </g>
      </g>
      <path id="Trazado_623319" data-name="Trazado 623319" d="M1711.333,1307.406h2.268l8.821-67.43h-4.989Z" transform="translate(-1295.505 -973.162)" fill="#2e5b9a"/>
      <path id="Trazado_623320" data-name="Trazado 623320" d="M2245.243,1307.406h-2.267l-8.821-67.43h4.989Z" transform="translate(-1752.469 -973.162)" fill="#2e5b9a"/>
      <g id="Grupo_894708" data-name="Grupo 894708" transform="translate(554.294 261.62)">
        <path id="Trazado_623321" data-name="Trazado 623321" d="M2999.731,1323.431c3.923,3.582,2.217,7.164-.682,13.816s-3.411,31.215-3.411,31.215l2.388-.341s-.341-25.245,2.9-32.068,4.605-10.234,7.505-8.017S2999.731,1323.431,2999.731,1323.431Z" transform="translate(-2972.325 -1307.723)" fill="#74b570"/>
        <path id="Trazado_623322" data-name="Trazado 623322" d="M3009.557,1209.8c.477-2.123,3.306-4.42,7.09-6.368-.563,3.131-2.366,8.25-.5,9.3,2.517,1.416.245-5.731,1.217-9.66a46.751,46.751,0,0,1,11.763-3.859c-.006.015-.01.029-.016.043-2.217,5.629-5.117,7.846-3.923,8.7.9.641,3.824-5.861,7.688-9.194,2.9-.155,5.354.239,6.8,1.388,2.243,1.776,3.749,3.351,1.493,8.76a10.137,10.137,0,0,1-4.9,1.776c-5.117.512-7.505.682-3.923,2.388,1.754.835,4.694-.047,7.078-.585-.773,1.425-1.724,3.038-2.879,4.875a18.114,18.114,0,0,1-2.4,3.051,7.568,7.568,0,0,1-3.848-.007c-2.388-1.024-8.529-4.264-10.064-2.9-1.5,1.336,11.373,2.181,10.48,5.576-6.24,3.6-13.382,1.885-14.644-1.417C3014.382,1217.236,3008.123,1216.193,3009.557,1209.8Z" transform="translate(-2984.307 -1198.733)" fill="#21cbae"/>
        <path id="Trazado_623323" data-name="Trazado 623323" d="M2979.479,1464.008c-6.823-5.117-13.817-.341-17.4,5.117s-1.024,17.74-1.024,17.74,1.365,0,1.365-.512-3.753-14.5,5.117-20.81c5.549-3.948,9.552-2.047,10.064-.171s-2.218,5.288-2.218,5.288Z" transform="translate(-2941.327 -1428.684)" fill="#74b570"/>
        <path id="Trazado_623324" data-name="Trazado 623324" d="M2986.762,1395.649c6.823,0,9.041,10.576,7.164,16.716s-4.435,17.569-4.435,17.569l-1.706-1.706s6.482-16.034,4.947-23.2-5.288-8.358-5.971-8.358S2986.762,1395.649,2986.762,1395.649Z" transform="translate(-2964.302 -1370.844)" fill="#9cd499"/>
        <path id="Trazado_623325" data-name="Trazado 623325" d="M3022.415,1518.26a4.944,4.944,0,0,1,1.8-1.509,13.539,13.539,0,0,1-.355,1.462c-.855,2.8-1.851,6.693-2.683,10.105l-.372-2.149c-.042-.245-.076-.512-.1-.794A66.125,66.125,0,0,0,3022.415,1518.26Z" transform="translate(-2994.233 -1476.692)" fill="#74b570"/>
        <path id="Trazado_623326" data-name="Trazado 623326" d="M3024.627,1462.407c12.964-5.458,6.134-12.949,17.562-8a1.989,1.989,0,1,1-.853,2.729c-3.411-.512-2.218,2.218,3.411,2.9a12.626,12.626,0,0,1,2.638.557c2.681,5.15,3.89,11.928-1.785,14.283a12.848,12.848,0,0,1-4.039.829c-1.751-1.392.427-9.446-2.272-8.334-2.592,1.067.812,6.9.346,8.375a37.387,37.387,0,0,1-8.1-1.135,4.031,4.031,0,0,1-2.141-2.464c-.853-3.582,4.776-5.8,4.947-8.87.157-2.822-2.063,6.21-7.944,7.539C3021.08,1468.33,3018.567,1464.959,3024.627,1462.407Z" transform="translate(-2994.58 -1420.787)" fill="#21cbae"/>
        <path id="Trazado_623327" data-name="Trazado 623327" d="M2831.381,1366.722c1.365-2.9-2.218-3.582-2.047-1.365.151,1.965.168,6.741-1.847,8.042a31.624,31.624,0,0,1-11.779-3.912,1.45,1.45,0,0,1,.151-.889c1.535-3.07,11.428-5.629,8.358-6.653-2.445-.815-6.73,4-10.183,6.419-2.074-1.573-3.463-3.449-3.463-5.543,0-2.834,3.443-6.042,7.9-7.575,2,.2,3.865,1.3,6.773,2.945,4.3,2.434,3.3-1.5-.759-3.837a12.233,12.233,0,0,1,9.58,5.258s-.244,1.53,1.375,3.9c4.417,6.455-.68,10.223-6.773,9.979A40.032,40.032,0,0,1,2831.381,1366.722Z" transform="translate(-2810.571 -1334.753)" fill="#21cbae"/>
        <path id="Trazado_623328" data-name="Trazado 623328" d="M3099.6,1476.558c3.336,2.578,7.041,5.591,11.59,7.638s3.639,8.719,3.639,8.719.682-5.762-3.108-7.733-6.293-4.321-9.174-4.776a41.759,41.759,0,0,1-4.473-.91s.91-1.82.379-2.5S3099.6,1476.558,3099.6,1476.558Z" transform="translate(-3061.859 -1441.524)" fill="#74b570"/>
        <path id="Trazado_623329" data-name="Trazado 623329" d="M3070.8,1236.565c-12.206,3.26-21.152,11.069-22.82,12.964s-1.668,2.426-1.668,2.426l1.289,2.426.606-.3s-.986-2.047,1.592-4.7a46.656,46.656,0,0,1,13.571-9.78C3067.088,1238.005,3070.8,1236.565,3070.8,1236.565Z" transform="translate(-3016.619 -1231.799)" fill="#74b570"/>
        <path id="Rectángulo_301369" data-name="Rectángulo 301369" d="M8.336,0h0a8.336,8.336,0,0,1,8.336,8.336v8.383a0,0,0,0,1,0,0H0a0,0,0,0,1,0,0V8.336A8.336,8.336,0,0,1,8.336,0Z" transform="translate(31.158 72.329) rotate(180)" fill="#0b5999"/>
        <rect id="Rectángulo_301370" data-name="Rectángulo 301370" width="16.672" height="1.174" transform="translate(14.486 57.526)" fill="#fff"/>
        <rect id="Rectángulo_301371" data-name="Rectángulo 301371" width="16.672" height="0.69" transform="translate(14.486 59.666)" fill="#fff"/>
      </g>
      <g id="Grupo_894709" data-name="Grupo 894709" transform="translate(243.609 313.044)">
        <rect id="Rectángulo_301372" data-name="Rectángulo 301372" width="7.02" height="6.318" rx="3.159" transform="translate(32.548 6.318) rotate(180)" fill="#fecb2f"/>
        <rect id="Rectángulo_301373" data-name="Rectángulo 301373" width="7.02" height="6.318" rx="3.159" transform="translate(19.784 6.318) rotate(180)" fill="#fecb2f"/>
        <rect id="Rectángulo_301374" data-name="Rectángulo 301374" width="7.02" height="6.318" rx="3.159" transform="translate(7.02 6.318) rotate(180)" fill="#fecb2f"/>
      </g>
      <g id="Grupo_894710" data-name="Grupo 894710" transform="translate(602.06 196.121)">
        <path id="Rectángulo_301375" data-name="Rectángulo 301375" d="M3.159,0h.7A3.159,3.159,0,0,1,7.02,3.159v0A3.159,3.159,0,0,1,3.861,6.318h-.7A3.159,3.159,0,0,1,0,3.159v0A3.159,3.159,0,0,1,3.159,0Z" transform="translate(6.318) rotate(90)" fill="#21cbae"/>
        <path id="Rectángulo_301376" data-name="Rectángulo 301376" d="M3.159,0h.7A3.159,3.159,0,0,1,7.02,3.159v0A3.159,3.159,0,0,1,3.861,6.318h-.7A3.159,3.159,0,0,1,0,3.159v0A3.159,3.159,0,0,1,3.159,0Z" transform="translate(6.318 12.764) rotate(90)" fill="#21cbae"/>
        <path id="Rectángulo_301377" data-name="Rectángulo 301377" d="M3.159,0h.7A3.159,3.159,0,0,1,7.02,3.159v0A3.159,3.159,0,0,1,3.861,6.318h-.7A3.159,3.159,0,0,1,0,3.159v0A3.159,3.159,0,0,1,3.159,0Z" transform="translate(6.318 25.528) rotate(90)" fill="#21cbae"/>
      </g>
    </g>
  </g>
</svg>
