<svg xmlns="http://www.w3.org/2000/svg" xmlns:xlink="http://www.w3.org/1999/xlink" width="536" height="344" viewBox="0 0 536 344">
  <defs>
    <filter id="Rectángulo_300539" x="0" y="0" width="536" height="344" filterUnits="userSpaceOnUse">
      <feOffset dy="3" input="SourceAlpha"/>
      <feGaussianBlur stdDeviation="3" result="blur"/>
      <feFlood flood-opacity="0.161"/>
      <feComposite operator="in" in2="blur"/>
      <feComposite in="SourceGraphic"/>
    </filter>
  </defs>
  <g id="Grupo_897736" data-name="Grupo 897736" transform="translate(6738 7139)">
    <g id="Grupo_894061" data-name="Grupo 894061" transform="translate(-6993.666 -9711)">
      <g transform="matrix(1, 0, 0, 1, 255.67, 2572)" filter="url(#Rectángulo_300539)">
        <rect id="Rectángulo_300539-2" data-name="Rectángulo 300539" width="518" height="326" rx="20" transform="translate(9 6)" fill="#fff"/>
      </g>
    </g>
    <g id="Grupo_894481" data-name="Grupo 894481" transform="translate(-6704.001 -7081.073)">
      <path id="Trazado_622692" data-name="Trazado 622692" d="M1884.467,842.683l-15.379-17.84h-131.1v35.724h131.1Z" transform="translate(-1621.16 -769.395)" fill="#21cbae"/>
      <g id="Grupo_894470" data-name="Grupo 894470" transform="translate(171.947 64.054)">
        <path id="Trazado_622693" data-name="Trazado 622693" d="M2628.908,952.865l.069,4.285a2.193,2.193,0,0,1-.64,1.7,2.576,2.576,0,0,1-1.815.651,2.6,2.6,0,0,1-1.819-.574,2.156,2.156,0,0,1-.71-1.646l-.07-4.334,1.34-.022.07,4.293a1.24,1.24,0,0,0,.321.927,1.174,1.174,0,0,0,.851.279q1.13-.018,1.129-1.207l-.07-4.329Z" transform="translate(-2619.483 -952.865)" fill="#fff"/>
        <path id="Trazado_622694" data-name="Trazado 622694" d="M2713.589,979.273a.416.416,0,0,0-.24-.369,2.665,2.665,0,0,0-.757-.231q-1.73-.334-1.748-1.437a1.328,1.328,0,0,1,.516-1.083,2.153,2.153,0,0,1,1.389-.454,2.318,2.318,0,0,1,1.479.409,1.367,1.367,0,0,1,.57,1.117l-1.291.021a.626.626,0,0,0-.186-.455.756.756,0,0,0-.562-.172.773.773,0,0,0-.5.156.466.466,0,0,0-.172.378.4.4,0,0,0,.209.343,2.093,2.093,0,0,0,.689.217,5.6,5.6,0,0,1,.817.2,1.336,1.336,0,0,1,1.044,1.284,1.26,1.26,0,0,1-.55,1.079,2.448,2.448,0,0,1-1.459.433,2.559,2.559,0,0,1-1.083-.2,1.806,1.806,0,0,1-.749-.582,1.378,1.378,0,0,1-.281-.811l1.224-.02a.674.674,0,0,0,.263.523,1.01,1.01,0,0,0,.637.173.935.935,0,0,0,.558-.15A.437.437,0,0,0,2713.589,979.273Z" transform="translate(-2700.448 -974.163)" fill="#fff"/>
        <path id="Trazado_622695" data-name="Trazado 622695" d="M2783.988,979.516a2.372,2.372,0,0,1-1.742-.624,2.319,2.319,0,0,1-.7-1.727l0-.125a2.922,2.922,0,0,1,.26-1.307,2.066,2.066,0,0,1,.783-.9,2.24,2.24,0,0,1,1.172-.33,2.007,2.007,0,0,1,1.572.6,2.542,2.542,0,0,1,.6,1.764l.009.527-3.078.05a1.2,1.2,0,0,0,.39.753,1.142,1.142,0,0,0,.8.273,1.394,1.394,0,0,0,1.157-.559l.646.7a1.939,1.939,0,0,1-.776.654A2.581,2.581,0,0,1,2783.988,979.516Zm-.212-3.969a.807.807,0,0,0-.619.27,1.35,1.35,0,0,0-.294.75l1.8-.029v-.1a.963.963,0,0,0-.243-.663A.833.833,0,0,0,2783.776,975.546Z" transform="translate(-2766.512 -973.05)" fill="#fff"/>
        <path id="Trazado_622696" data-name="Trazado 622696" d="M2859.875,974.549a3.5,3.5,0,0,0-.465-.028.946.946,0,0,0-.952.511l.051,3.163-1.291.021-.078-4.834,1.219-.02.045.576a1.2,1.2,0,0,1,1.066-.683,1.356,1.356,0,0,1,.4.052Z" transform="translate(-2837.022 -971.884)" fill="#fff"/>
        <path id="Trazado_622697" data-name="Trazado 622697" d="M2557.989,1124.564l-.105-6.5,2-.032a3.042,3.042,0,0,1,1.541.362,2.7,2.7,0,0,1,1.074,1.082,3.392,3.392,0,0,1,.406,1.613l0,.3a3.4,3.4,0,0,1-.347,1.619,2.673,2.673,0,0,1-1.034,1.112,3.062,3.062,0,0,1-1.526.418Zm1.252-5.441.07,4.343.648-.01a1.456,1.456,0,0,0,1.193-.533,2.321,2.321,0,0,0,.4-1.477l-.006-.344a2.359,2.359,0,0,0-.435-1.5,1.451,1.451,0,0,0-1.21-.492Z" transform="translate(-2557.883 -1106.924)" fill="#fff"/>
        <path id="Trazado_622698" data-name="Trazado 622698" d="M2645.905,1145.133a2.373,2.373,0,0,1-1.742-.624,2.319,2.319,0,0,1-.7-1.727l0-.125a2.922,2.922,0,0,1,.26-1.307,2.067,2.067,0,0,1,.783-.9,2.241,2.241,0,0,1,1.172-.33,2.008,2.008,0,0,1,1.572.6,2.543,2.543,0,0,1,.6,1.765l.009.527-3.078.05a1.2,1.2,0,0,0,.39.753,1.142,1.142,0,0,0,.8.273,1.394,1.394,0,0,0,1.157-.559l.646.7a1.939,1.939,0,0,1-.776.654A2.579,2.579,0,0,1,2645.905,1145.133Zm-.212-3.969a.807.807,0,0,0-.619.27,1.348,1.348,0,0,0-.294.75l1.8-.029v-.1a.963.963,0,0,0-.243-.663A.833.833,0,0,0,2645.693,1141.163Z" transform="translate(-2637.712 -1127.534)" fill="#fff"/>
        <path id="Trazado_622699" data-name="Trazado 622699" d="M2719.062,1142.563a.416.416,0,0,0-.24-.369,2.666,2.666,0,0,0-.757-.231q-1.73-.334-1.748-1.437a1.328,1.328,0,0,1,.517-1.083,2.153,2.153,0,0,1,1.389-.454,2.319,2.319,0,0,1,1.479.41,1.366,1.366,0,0,1,.57,1.117l-1.291.021a.624.624,0,0,0-.186-.455.757.757,0,0,0-.562-.172.773.773,0,0,0-.5.156.466.466,0,0,0-.173.378.4.4,0,0,0,.209.343,2.088,2.088,0,0,0,.689.217,5.609,5.609,0,0,1,.817.2,1.336,1.336,0,0,1,1.044,1.283,1.261,1.261,0,0,1-.55,1.079,2.449,2.449,0,0,1-1.459.433,2.56,2.56,0,0,1-1.083-.2,1.811,1.811,0,0,1-.749-.582,1.38,1.38,0,0,1-.281-.811l1.224-.02a.674.674,0,0,0,.263.523,1.009,1.009,0,0,0,.637.173.936.936,0,0,0,.558-.15A.438.438,0,0,0,2719.062,1142.563Z" transform="translate(-2705.553 -1126.476)" fill="#fff"/>
        <path id="Trazado_622700" data-name="Trazado 622700" d="M2788.6,1111.623a.636.636,0,0,1,.187-.481.838.838,0,0,1,1.057-.017.683.683,0,0,1,.013.961.829.829,0,0,1-1.05.017A.634.634,0,0,1,2788.6,1111.623Zm1.47,6.063-1.3.021-.078-4.834,1.3-.021Z" transform="translate(-2773.094 -1100.319)" fill="#fff"/>
        <path id="Trazado_622701" data-name="Trazado 622701" d="M2822.9,1139.789a2.835,2.835,0,0,1,.5-1.8,1.716,1.716,0,0,1,1.417-.7,1.5,1.5,0,0,1,1.246.525l.046-.457,1.17-.019.076,4.673a2.065,2.065,0,0,1-.271,1.108,1.852,1.852,0,0,1-.8.728,2.852,2.852,0,0,1-1.22.265,2.649,2.649,0,0,1-1.04-.2,1.838,1.838,0,0,1-.773-.535l.559-.8a1.512,1.512,0,0,0,1.179.522,1.107,1.107,0,0,0,.8-.288,1.031,1.031,0,0,0,.273-.784l0-.259a1.5,1.5,0,0,1-1.167.524,1.712,1.712,0,0,1-1.42-.659,2.832,2.832,0,0,1-.568-1.8Zm1.293.075a1.765,1.765,0,0,0,.28,1.027.839.839,0,0,0,.73.362.9.9,0,0,0,.837-.457l-.033-2.036a.9.9,0,0,0-.843-.429.844.844,0,0,0-.724.392A1.987,1.987,0,0,0,2824.194,1139.864Z" transform="translate(-2805.086 -1124.889)" fill="#fff"/>
        <path id="Trazado_622702" data-name="Trazado 622702" d="M2903.637,1135.935l.049.558a1.688,1.688,0,0,1,1.379-.67,1.4,1.4,0,0,1,1.151.433,2.107,2.107,0,0,1,.406,1.343l.051,3.123-1.291.021-.05-3.092a.838.838,0,0,0-.188-.594.8.8,0,0,0-.6-.176.889.889,0,0,0-.81.478l.055,3.409-1.291.021-.078-4.834Z" transform="translate(-2879.261 -1123.523)" fill="#fff"/>
      </g>
      <g id="Grupo_894474" data-name="Grupo 894474" transform="translate(130.754 18.073)">
        <g id="Grupo_894471" data-name="Grupo 894471" transform="translate(52.063 24.184)">
          <path id="Trazado_622703" data-name="Trazado 622703" d="M2750.74,641.405l12.371,3.158.027.007.009-.026,5.3-15.932a55.244,55.244,0,0,1-38.38,85.8l-10.48-11.807,10-10.241a33.409,33.409,0,0,0,21.152-50.958Z" transform="translate(-2719.587 -628.612)" fill="#9f7e18"/>
        </g>
        <g id="Grupo_894472" data-name="Grupo 894472" transform="translate(5.631)">
          <path id="Trazado_622704" data-name="Trazado 622704" d="M2030.324,297.04a55.653,55.653,0,0,1,6.429-9.155,54.928,54.928,0,0,1,16.916-13.149,55.391,55.391,0,0,1,30.985-5.547,54.956,54.956,0,0,1,10.615,2.271,55.762,55.762,0,0,1,19.264,10.777,54.973,54.973,0,0,1,7.368,7.7l-5.094,15.307-13.42-3.426a33.426,33.426,0,0,0-54.033,5.911c-.328.585-.644,1.188-.938,1.794l-3.635-12.951-.007-.026-.027.005-15.875,3.257c.462-.941.95-1.872,1.453-2.767Z" transform="translate(-2028.871 -268.847)" fill="#fecb2f"/>
        </g>
        <g id="Grupo_894473" data-name="Grupo 894473" transform="translate(0 31.342)">
          <path id="Trazado_622705" data-name="Trazado 622705" d="M1949.155,738.226l15.255-3.13,3.971,14.146a33.416,33.416,0,0,0,33.77,43.107l-9.238,9.46-.019.02.018.02,10.89,12.268a54.969,54.969,0,0,1-30.51-6.972,55.7,55.7,0,0,1-8.509-5.878,54.877,54.877,0,0,1-12.643-15.292,55.117,55.117,0,0,1-2.985-47.75Z" transform="translate(-1945.099 -735.096)" fill="#d8a814"/>
        </g>
      </g>
      <path id="Trazado_622706" data-name="Trazado 622706" d="M406.48,824.843H331.419v35.724H406.48l15.269-17.884Z" transform="translate(-309.14 -769.395)" fill="#ef3c79"/>
      <g id="Grupo_894475" data-name="Grupo 894475" transform="translate(33.913 63.742)">
        <path id="Trazado_622707" data-name="Trazado 622707" d="M506.9,956.007h-1.068v2.382h-1.34v-6.506h2.417a2.733,2.733,0,0,1,1.778.514,1.774,1.774,0,0,1,.626,1.452,2,2,0,0,1-.288,1.11,1.966,1.966,0,0,1-.874.708l1.408,2.659v.063h-1.439Zm-1.068-1.086h1.081a1.107,1.107,0,0,0,.782-.257.919.919,0,0,0,.277-.708.983.983,0,0,0-.261-.724,1.086,1.086,0,0,0-.8-.264h-1.077Z" transform="translate(-504.488 -951.637)" fill="#fff"/>
        <path id="Trazado_622708" data-name="Trazado 622708" d="M589.908,980.427a2.373,2.373,0,0,1-1.732-.652,2.319,2.319,0,0,1-.668-1.738v-.125a2.921,2.921,0,0,1,.281-1.3,2.067,2.067,0,0,1,.8-.885,2.24,2.24,0,0,1,1.177-.31,2.006,2.006,0,0,1,1.562.625,2.542,2.542,0,0,1,.57,1.774v.527h-3.079a1.2,1.2,0,0,0,.378.76,1.141,1.141,0,0,0,.8.286,1.394,1.394,0,0,0,1.166-.541l.635.71a1.938,1.938,0,0,1-.786.641A2.582,2.582,0,0,1,589.908,980.427Zm-.147-3.972a.807.807,0,0,0-.623.26,1.348,1.348,0,0,0-.306.745h1.8v-.1a.962.962,0,0,0-.232-.666A.833.833,0,0,0,589.761,976.455Z" transform="translate(-581.928 -973.586)" fill="#fff"/>
        <path id="Trazado_622709" data-name="Trazado 622709" d="M660.692,977.876a2.89,2.89,0,0,1,.507-1.8,1.658,1.658,0,0,1,1.392-.661,1.485,1.485,0,0,1,1.238.594l.085-.5h1.135V982.2h-1.3v-2.274a1.488,1.488,0,0,1-1.171.5,1.646,1.646,0,0,1-1.376-.67A3.031,3.031,0,0,1,660.692,977.876Zm1.291.092a1.9,1.9,0,0,0,.243,1.056.779.779,0,0,0,.686.362.868.868,0,0,0,.84-.474v-2a.862.862,0,0,0-.831-.456.789.789,0,0,0-.693.362A2.094,2.094,0,0,0,661.983,977.968Z" transform="translate(-650.192 -973.586)" fill="#fff"/>
        <path id="Trazado_622710" data-name="Trazado 622710" d="M743.051,981.086a1.619,1.619,0,0,1-1.323.581,1.527,1.527,0,0,1-1.186-.447,1.907,1.907,0,0,1-.418-1.309v-3.168h1.291v3.127q0,.756.688.756a.932.932,0,0,0,.9-.456v-3.427h1.3v4.835h-1.215Z" transform="translate(-724.284 -974.826)" fill="#fff"/>
        <path id="Trazado_622711" data-name="Trazado 622711" d="M816.63,948.893a.636.636,0,0,1,.194-.478.838.838,0,0,1,1.057,0,.682.682,0,0,1,0,.961.828.828,0,0,1-1.05,0A.634.634,0,0,1,816.63,948.893ZM818,954.979h-1.3v-4.835H818Z" transform="translate(-795.647 -948.227)" fill="#fff"/>
        <path id="Trazado_622712" data-name="Trazado 622712" d="M855.574,976.714a3.513,3.513,0,0,0-.465-.036.946.946,0,0,0-.961.5v3.163h-1.291V975.5h1.22l.036.576a1.2,1.2,0,0,1,1.077-.666,1.352,1.352,0,0,1,.4.058Z" transform="translate(-829.439 -973.586)" fill="#fff"/>
        <path id="Trazado_622713" data-name="Trazado 622713" d="M901.984,980.427a2.373,2.373,0,0,1-1.731-.652,2.319,2.319,0,0,1-.668-1.738v-.125a2.921,2.921,0,0,1,.281-1.3,2.066,2.066,0,0,1,.8-.885,2.24,2.24,0,0,1,1.177-.31,2.007,2.007,0,0,1,1.562.625,2.542,2.542,0,0,1,.57,1.774v.527h-3.079a1.2,1.2,0,0,0,.378.76,1.141,1.141,0,0,0,.8.286,1.394,1.394,0,0,0,1.166-.541l.634.71a1.938,1.938,0,0,1-.786.641A2.582,2.582,0,0,1,901.984,980.427Zm-.147-3.972a.807.807,0,0,0-.623.26,1.348,1.348,0,0,0-.306.745h1.8v-.1a.962.962,0,0,0-.232-.666A.833.833,0,0,0,901.837,976.455Z" transform="translate(-873.026 -973.586)" fill="#fff"/>
        <path id="Trazado_622714" data-name="Trazado 622714" d="M976.97,975.5l.04.541a1.7,1.7,0,0,1,1.39-.63,1.289,1.289,0,0,1,1.282.737,1.66,1.66,0,0,1,1.452-.737,1.442,1.442,0,0,1,1.171.458,2.106,2.106,0,0,1,.384,1.379v3.088h-1.3v-3.083a.921.921,0,0,0-.161-.6.713.713,0,0,0-.568-.19.806.806,0,0,0-.8.554l0,3.32h-1.291v-3.079a.909.909,0,0,0-.165-.608.72.72,0,0,0-.563-.188.837.837,0,0,0-.8.456v3.418h-1.291V975.5Z" transform="translate(-944.079 -973.586)" fill="#fff"/>
        <path id="Trazado_622715" data-name="Trazado 622715" d="M1093.417,980.427a2.373,2.373,0,0,1-1.732-.652,2.319,2.319,0,0,1-.668-1.738v-.125a2.92,2.92,0,0,1,.282-1.3,2.065,2.065,0,0,1,.8-.885,2.24,2.24,0,0,1,1.177-.31,2.006,2.006,0,0,1,1.562.625,2.542,2.542,0,0,1,.57,1.774v.527h-3.079a1.2,1.2,0,0,0,.378.76,1.142,1.142,0,0,0,.8.286,1.394,1.394,0,0,0,1.166-.541l.635.71a1.937,1.937,0,0,1-.786.641A2.581,2.581,0,0,1,1093.417,980.427Zm-.147-3.972a.807.807,0,0,0-.623.26,1.348,1.348,0,0,0-.306.745h1.8v-.1a.961.961,0,0,0-.232-.666A.833.833,0,0,0,1093.27,976.455Z" transform="translate(-1051.59 -973.586)" fill="#fff"/>
        <path id="Trazado_622716" data-name="Trazado 622716" d="M1168.009,975.5l.04.559a1.688,1.688,0,0,1,1.39-.648,1.4,1.4,0,0,1,1.144.451,2.106,2.106,0,0,1,.384,1.349v3.123h-1.291v-3.092a.838.838,0,0,0-.179-.6.8.8,0,0,0-.594-.185.888.888,0,0,0-.818.465v3.409h-1.291V975.5Z" transform="translate(-1122.272 -973.586)" fill="#fff"/>
        <path id="Trazado_622717" data-name="Trazado 622717" d="M1238.717,959.062v1.189h.827v.947h-.827v2.413a.576.576,0,0,0,.1.384.516.516,0,0,0,.393.116,2.057,2.057,0,0,0,.38-.031v.979a2.658,2.658,0,0,1-.782.116,1.233,1.233,0,0,1-1.385-1.372v-2.6h-.706v-.947h.706v-1.189Z" transform="translate(-1187.498 -958.334)" fill="#fff"/>
        <path id="Trazado_622718" data-name="Trazado 622718" d="M1288.639,979a.416.416,0,0,0-.235-.373,2.667,2.667,0,0,0-.753-.244q-1.725-.362-1.725-1.466a1.328,1.328,0,0,1,.534-1.075,2.153,2.153,0,0,1,1.4-.431,2.318,2.318,0,0,1,1.472.433,1.366,1.366,0,0,1,.552,1.126h-1.291a.625.625,0,0,0-.179-.458.757.757,0,0,0-.558-.181.772.772,0,0,0-.505.147.465.465,0,0,0-.179.375.4.4,0,0,0,.2.346,2.092,2.092,0,0,0,.686.228,5.615,5.615,0,0,1,.813.217,1.336,1.336,0,0,1,1.023,1.3,1.261,1.261,0,0,1-.568,1.07,2.449,2.449,0,0,1-1.466.409,2.558,2.558,0,0,1-1.079-.217,1.81,1.81,0,0,1-.74-.594,1.381,1.381,0,0,1-.268-.815H1287a.674.674,0,0,0,.255.527,1.01,1.01,0,0,0,.635.183.935.935,0,0,0,.561-.141A.438.438,0,0,0,1288.639,979Z" transform="translate(-1233.255 -973.586)" fill="#fff"/>
        <path id="Trazado_622719" data-name="Trazado 622719" d="M505.828,1119.454v2.292h-1.34v-6.506h2.538a2.937,2.937,0,0,1,1.289.268,1.975,1.975,0,0,1,.856.762,2.124,2.124,0,0,1,.3,1.124,1.868,1.868,0,0,1-.655,1.508,2.726,2.726,0,0,1-1.812.552Zm0-1.086h1.2a1.177,1.177,0,0,0,.811-.25.91.91,0,0,0,.279-.715,1.073,1.073,0,0,0-.281-.773,1.051,1.051,0,0,0-.777-.3h-1.229Z" transform="translate(-504.488 -1104.013)" fill="#fff"/>
        <path id="Trazado_622720" data-name="Trazado 622720" d="M593.325,1116.785h-1.3v-6.863h1.3Z" transform="translate(-586.144 -1099.052)" fill="#fff"/>
        <path id="Trazado_622721" data-name="Trazado 622721" d="M627.26,1143.694a1.435,1.435,0,0,1-.13-.433,1.563,1.563,0,0,1-1.22.523,1.716,1.716,0,0,1-1.177-.411,1.322,1.322,0,0,1-.467-1.037,1.366,1.366,0,0,1,.57-1.18,2.812,2.812,0,0,1,1.647-.416h.594v-.277a.8.8,0,0,0-.172-.536.677.677,0,0,0-.543-.2.769.769,0,0,0-.512.156.531.531,0,0,0-.185.429h-1.291a1.3,1.3,0,0,1,.259-.777,1.712,1.712,0,0,1,.733-.561,2.669,2.669,0,0,1,1.063-.2,2.11,2.11,0,0,1,1.419.449,1.571,1.571,0,0,1,.525,1.262v2.1a2.31,2.31,0,0,0,.192,1.041v.076Zm-1.068-.9a1.111,1.111,0,0,0,.527-.127.836.836,0,0,0,.357-.342v-.831h-.483q-.97,0-1.032.67l0,.076a.517.517,0,0,0,.17.4A.659.659,0,0,0,626.192,1142.8Z" transform="translate(-616.214 -1125.961)" fill="#fff"/>
        <path id="Trazado_622722" data-name="Trazado 622722" d="M700.925,1138.859l.04.559a1.688,1.688,0,0,1,1.39-.648,1.4,1.4,0,0,1,1.144.451,2.106,2.106,0,0,1,.384,1.349v3.123h-1.291V1140.6a.838.838,0,0,0-.179-.6.8.8,0,0,0-.594-.185.888.888,0,0,0-.818.465v3.409H699.71v-4.835Z" transform="translate(-686.587 -1125.961)" fill="#fff"/>
        <path id="Trazado_622723" data-name="Trazado 622723" d="M777.166,1138.859l.04.559a1.688,1.688,0,0,1,1.39-.648,1.4,1.4,0,0,1,1.144.451,2.106,2.106,0,0,1,.384,1.349v3.123h-1.291V1140.6a.838.838,0,0,0-.179-.6.8.8,0,0,0-.594-.185.888.888,0,0,0-.818.465v3.409h-1.291v-4.835Z" transform="translate(-757.703 -1125.961)" fill="#fff"/>
        <path id="Trazado_622724" data-name="Trazado 622724" d="M852.458,1112.25a.636.636,0,0,1,.194-.478.838.838,0,0,1,1.057,0,.682.682,0,0,1,0,.961.828.828,0,0,1-1.05,0A.634.634,0,0,1,852.458,1112.25Zm1.372,6.086h-1.3V1113.5h1.3Z" transform="translate(-829.067 -1100.603)" fill="#fff"/>
        <path id="Trazado_622725" data-name="Trazado 622725" d="M889.5,1138.859l.04.559a1.688,1.688,0,0,1,1.39-.648,1.4,1.4,0,0,1,1.144.451,2.106,2.106,0,0,1,.384,1.349v3.123h-1.291V1140.6a.838.838,0,0,0-.179-.6.8.8,0,0,0-.594-.185.888.888,0,0,0-.818.465v3.409h-1.291v-4.835Z" transform="translate(-862.485 -1125.961)" fill="#fff"/>
        <path id="Trazado_622726" data-name="Trazado 622726" d="M962.133,1141.241a2.834,2.834,0,0,1,.529-1.792,1.716,1.716,0,0,1,1.428-.679,1.5,1.5,0,0,1,1.238.545l.054-.456h1.171v4.674a2.066,2.066,0,0,1-.288,1.1,1.851,1.851,0,0,1-.811.715,2.851,2.851,0,0,1-1.224.246,2.651,2.651,0,0,1-1.037-.212,1.84,1.84,0,0,1-.764-.547l.572-.786a1.513,1.513,0,0,0,1.171.541,1.108,1.108,0,0,0,.8-.275,1.031,1.031,0,0,0,.286-.78v-.259a1.494,1.494,0,0,1-1.175.5,1.712,1.712,0,0,1-1.41-.681,2.833,2.833,0,0,1-.538-1.807Zm1.291.1a1.764,1.764,0,0,0,.264,1.031.839.839,0,0,0,.724.374.9.9,0,0,0,.844-.443v-2.036a.9.9,0,0,0-.836-.443.844.844,0,0,0-.731.38A1.988,1.988,0,0,0,963.424,1141.337Z" transform="translate(-931.369 -1125.961)" fill="#fff"/>
      </g>
      <path id="Trazado_622727" data-name="Trazado 622727" d="M4055.819,824.843h-75.061v35.724h75.061l15.269-17.884Z" transform="translate(-3713.163 -769.395)" fill="#ef3c79"/>
      <g id="Grupo_894476" data-name="Grupo 894476" transform="translate(280.764 69.233)">
        <path id="Trazado_622728" data-name="Trazado 622728" d="M4181.95,1036.66a2.3,2.3,0,0,1-.775,1.653,2.724,2.724,0,0,1-1.844.6,2.447,2.447,0,0,1-1.968-.842,3.451,3.451,0,0,1-.717-2.312v-.4a3.9,3.9,0,0,1,.331-1.653,2.48,2.48,0,0,1,.945-1.1,2.953,2.953,0,0,1,3.242.221,2.477,2.477,0,0,1,.8,1.693h-1.341a1.358,1.358,0,0,0-.351-.914,1.3,1.3,0,0,0-.918-.284,1.139,1.139,0,0,0-1,.48,2.69,2.69,0,0,0-.342,1.49v.491a2.882,2.882,0,0,0,.319,1.542,1.118,1.118,0,0,0,1.007.487,1.325,1.325,0,0,0,.928-.284,1.283,1.283,0,0,0,.351-.878Z" transform="translate(-4176.646 -1032.076)" fill="#fff"/>
        <path id="Trazado_622729" data-name="Trazado 622729" d="M4264.386,1059.554a2.869,2.869,0,0,1,.277-1.282,2.028,2.028,0,0,1,.8-.871,2.326,2.326,0,0,1,1.208-.308,2.2,2.2,0,0,1,1.6.6,2.4,2.4,0,0,1,.69,1.626l.009.331a2.527,2.527,0,0,1-.622,1.785,2.407,2.407,0,0,1-3.335,0,2.571,2.571,0,0,1-.623-1.823Zm1.292.092a1.807,1.807,0,0,0,.259,1.054.931.931,0,0,0,1.475,0,1.977,1.977,0,0,0,.264-1.152,1.789,1.789,0,0,0-.264-1.047.857.857,0,0,0-.742-.371.843.843,0,0,0-.733.369A2.011,2.011,0,0,0,4265.678,1059.646Z" transform="translate(-4258.488 -1055.265)" fill="#fff"/>
        <path id="Trazado_622730" data-name="Trazado 622730" d="M4345.166,1057.181l.041.559a1.688,1.688,0,0,1,1.39-.648,1.4,1.4,0,0,1,1.144.451,2.1,2.1,0,0,1,.384,1.349v3.123h-1.292v-3.092a.838.838,0,0,0-.179-.6.8.8,0,0,0-.594-.185.888.888,0,0,0-.818.465v3.409h-1.292v-4.835Z" transform="translate(-4332.704 -1055.265)" fill="#fff"/>
        <path id="Trazado_622731" data-name="Trazado 622731" d="M4419.8,1060.68a.416.416,0,0,0-.234-.373,2.675,2.675,0,0,0-.753-.244q-1.725-.362-1.725-1.466a1.329,1.329,0,0,1,.534-1.075,2.154,2.154,0,0,1,1.4-.431,2.319,2.319,0,0,1,1.472.433,1.367,1.367,0,0,1,.552,1.126h-1.292a.625.625,0,0,0-.179-.458.756.756,0,0,0-.559-.181.773.773,0,0,0-.5.147.465.465,0,0,0-.179.375.4.4,0,0,0,.2.346,2.094,2.094,0,0,0,.687.228,5.611,5.611,0,0,1,.813.217,1.336,1.336,0,0,1,1.023,1.3,1.261,1.261,0,0,1-.567,1.07,2.447,2.447,0,0,1-1.465.409,2.555,2.555,0,0,1-1.079-.217,1.81,1.81,0,0,1-.74-.594,1.381,1.381,0,0,1-.268-.815h1.224a.674.674,0,0,0,.255.527,1.009,1.009,0,0,0,.635.183.935.935,0,0,0,.561-.141A.437.437,0,0,0,4419.8,1060.68Z" transform="translate(-4400.781 -1055.265)" fill="#fff"/>
        <path id="Trazado_622732" data-name="Trazado 622732" d="M4485.866,1040.74v1.189h.827v.947h-.827v2.413a.574.574,0,0,0,.1.384.516.516,0,0,0,.393.116,2.06,2.06,0,0,0,.38-.031v.979a2.66,2.66,0,0,1-.782.116,1.233,1.233,0,0,1-1.385-1.372v-2.6h-.706v-.947h.706v-1.189Z" transform="translate(-4463.217 -1040.012)" fill="#fff"/>
        <path id="Trazado_622733" data-name="Trazado 622733" d="M4539.3,1058.392a3.511,3.511,0,0,0-.465-.036.946.946,0,0,0-.96.5v3.163h-1.292v-4.835h1.22l.036.576a1.2,1.2,0,0,1,1.077-.666,1.351,1.351,0,0,1,.4.058Z" transform="translate(-4512.384 -1055.265)" fill="#fff"/>
        <path id="Trazado_622734" data-name="Trazado 622734" d="M4588.695,1062.764a1.619,1.619,0,0,1-1.323.581,1.527,1.527,0,0,1-1.186-.447,1.9,1.9,0,0,1-.418-1.309v-3.168h1.292v3.127q0,.756.688.756a.933.933,0,0,0,.9-.456v-3.427h1.3v4.835h-1.215Z" transform="translate(-4558.266 -1056.504)" fill="#fff"/>
        <path id="Trazado_622735" data-name="Trazado 622735" d="M4661.628,1061.064a.848.848,0,0,0,.581-.2.69.69,0,0,0,.232-.523h1.211a1.656,1.656,0,0,1-.268.9,1.767,1.767,0,0,1-.722.635,2.258,2.258,0,0,1-1.012.226,2.1,2.1,0,0,1-1.635-.659,2.609,2.609,0,0,1-.6-1.821v-.085a2.579,2.579,0,0,1,.594-1.783,2.074,2.074,0,0,1,1.631-.666,2.033,2.033,0,0,1,1.455.516,1.827,1.827,0,0,1,.556,1.374h-1.211a.889.889,0,0,0-.232-.613.864.864,0,0,0-1.271.093,1.907,1.907,0,0,0-.23,1.067v.134a1.931,1.931,0,0,0,.228,1.074A.788.788,0,0,0,4661.628,1061.064Z" transform="translate(-4626.963 -1055.265)" fill="#fff"/>
        <path id="Trazado_622736" data-name="Trazado 622736" d="M4728.682,1040.74v1.189h.826v.947h-.826v2.413a.577.577,0,0,0,.1.384.516.516,0,0,0,.394.116,2.054,2.054,0,0,0,.379-.031v.979a2.658,2.658,0,0,1-.782.116,1.233,1.233,0,0,1-1.385-1.372v-2.6h-.706v-.947h.706v-1.189Z" transform="translate(-4689.709 -1040.012)" fill="#fff"/>
        <path id="Trazado_622737" data-name="Trazado 622737" d="M4779.261,1030.572a.637.637,0,0,1,.194-.478.838.838,0,0,1,1.057,0,.682.682,0,0,1,0,.961.829.829,0,0,1-1.05,0A.635.635,0,0,1,4779.261,1030.572Zm1.372,6.086h-1.3v-4.835h1.3Z" transform="translate(-4738.752 -1029.906)" fill="#fff"/>
        <path id="Trazado_622738" data-name="Trazado 622738" d="M4812.5,1059.554a2.869,2.869,0,0,1,.277-1.282,2.027,2.027,0,0,1,.8-.871,2.327,2.327,0,0,1,1.208-.308,2.2,2.2,0,0,1,1.6.6,2.4,2.4,0,0,1,.69,1.626l.009.331a2.527,2.527,0,0,1-.621,1.785,2.407,2.407,0,0,1-3.335,0,2.571,2.571,0,0,1-.624-1.823Zm1.292.092a1.807,1.807,0,0,0,.259,1.054.931.931,0,0,0,1.475,0,1.977,1.977,0,0,0,.264-1.152,1.789,1.789,0,0,0-.264-1.047.858.858,0,0,0-.742-.371.842.842,0,0,0-.732.369A2.01,2.01,0,0,0,4813.788,1059.646Z" transform="translate(-4769.753 -1055.265)" fill="#fff"/>
        <path id="Trazado_622739" data-name="Trazado 622739" d="M4893.276,1057.181l.041.559a1.687,1.687,0,0,1,1.39-.648,1.4,1.4,0,0,1,1.144.451,2.1,2.1,0,0,1,.384,1.349v3.123h-1.291v-3.092a.838.838,0,0,0-.179-.6.8.8,0,0,0-.595-.185.888.888,0,0,0-.817.465v3.409h-1.292v-4.835Z" transform="translate(-4843.969 -1055.265)" fill="#fff"/>
      </g>
      <path id="Trazado_622740" data-name="Trazado 622740" d="M5472.535,824.843h-75.061v35.724h75.061l15.269-17.884Z" transform="translate(-5034.643 -769.395)" fill="#21cbae"/>
      <g id="Grupo_894477" data-name="Grupo 894477" transform="translate(388.024 69.389)">
        <path id="Trazado_622741" data-name="Trazado 622741" d="M5777.554,1036.66a2.3,2.3,0,0,1-.775,1.653,2.723,2.723,0,0,1-1.843.6,2.448,2.448,0,0,1-1.968-.842,3.454,3.454,0,0,1-.717-2.312v-.4a3.9,3.9,0,0,1,.331-1.653,2.476,2.476,0,0,1,.945-1.1,2.953,2.953,0,0,1,3.242.221,2.472,2.472,0,0,1,.795,1.693h-1.34a1.361,1.361,0,0,0-.351-.914,1.3,1.3,0,0,0-.918-.284,1.139,1.139,0,0,0-1,.48,2.694,2.694,0,0,0-.342,1.49v.491a2.882,2.882,0,0,0,.319,1.542,1.118,1.118,0,0,0,1.008.487,1.323,1.323,0,0,0,.927-.284,1.283,1.283,0,0,0,.351-.878Z" transform="translate(-5772.25 -1032.232)" fill="#fff"/>
        <path id="Trazado_622742" data-name="Trazado 622742" d="M5865.443,1062.764a1.619,1.619,0,0,1-1.323.581,1.528,1.528,0,0,1-1.187-.447,1.907,1.907,0,0,1-.417-1.309v-3.168h1.292v3.127q0,.756.688.756a.933.933,0,0,0,.9-.456v-3.427h1.3v4.835h-1.215Z" transform="translate(-5856.448 -1056.661)" fill="#fff"/>
        <path id="Trazado_622743" data-name="Trazado 622743" d="M5934.439,1040.74v1.189h.826v.947h-.826v2.413a.577.577,0,0,0,.1.384.516.516,0,0,0,.394.116,2.054,2.054,0,0,0,.379-.031v.979a2.662,2.662,0,0,1-.782.116,1.234,1.234,0,0,1-1.386-1.372v-2.6h-.706v-.947h.706v-1.189Z" transform="translate(-5921.673 -1040.168)" fill="#fff"/>
        <path id="Trazado_622744" data-name="Trazado 622744" d="M5980.633,1059.554a2.863,2.863,0,0,1,.277-1.282,2.029,2.029,0,0,1,.8-.871,2.329,2.329,0,0,1,1.209-.308,2.2,2.2,0,0,1,1.6.6,2.406,2.406,0,0,1,.69,1.626l.009.331a2.527,2.527,0,0,1-.621,1.785,2.407,2.407,0,0,1-3.336,0,2.573,2.573,0,0,1-.623-1.823Zm1.292.092a1.807,1.807,0,0,0,.259,1.054.931.931,0,0,0,1.474,0,1.976,1.976,0,0,0,.264-1.152,1.789,1.789,0,0,0-.264-1.047.857.857,0,0,0-.742-.371.842.842,0,0,0-.732.369A2.01,2.01,0,0,0,5981.924,1059.646Z" transform="translate(-5966.625 -1055.421)" fill="#fff"/>
        <path id="Trazado_622745" data-name="Trazado 622745" d="M6055.2,1061.678l.9-3.257h1.35l-1.631,4.835h-1.233l-1.631-4.835h1.35Z" transform="translate(-6034.083 -1056.661)" fill="#fff"/>
        <path id="Trazado_622746" data-name="Trazado 622746" d="M6127.072,1062.105a2.373,2.373,0,0,1-1.731-.652,2.319,2.319,0,0,1-.668-1.738v-.125a2.917,2.917,0,0,1,.282-1.3,2.067,2.067,0,0,1,.8-.885,2.239,2.239,0,0,1,1.178-.311,2.007,2.007,0,0,1,1.562.625,2.542,2.542,0,0,1,.569,1.774v.527h-3.078a1.2,1.2,0,0,0,.377.76,1.142,1.142,0,0,0,.8.286,1.393,1.393,0,0,0,1.166-.541l.635.71a1.939,1.939,0,0,1-.786.641A2.582,2.582,0,0,1,6127.072,1062.105Zm-.147-3.972a.806.806,0,0,0-.623.26,1.348,1.348,0,0,0-.306.745h1.8v-.1a.962.962,0,0,0-.232-.667A.834.834,0,0,0,6126.925,1058.133Z" transform="translate(-6100.982 -1055.421)" fill="#fff"/>
        <path id="Trazado_622747" data-name="Trazado 622747" d="M6203.564,1058.392a3.5,3.5,0,0,0-.464-.036.945.945,0,0,0-.96.5v3.163h-1.292v-4.835h1.22l.036.576a1.2,1.2,0,0,1,1.077-.666,1.353,1.353,0,0,1,.4.058Z" transform="translate(-6172.037 -1055.421)" fill="#fff"/>
      </g>
      <g id="Grupo_894478" data-name="Grupo 894478" transform="translate(164.897 26.466)">
        <path id="Trazado_622748" data-name="Trazado 622748" d="M2455.921,443.164l.913,2.1-1.229.534-2.592-5.967,2.328-1.011a2.937,2.937,0,0,1,1.289-.268,1.975,1.975,0,0,1,1.088.358,2.122,2.122,0,0,1,.722.911,1.868,1.868,0,0,1,0,1.644A2.728,2.728,0,0,1,2457,442.7Zm-.433-1,1.1-.477a1.177,1.177,0,0,0,.644-.553.911.911,0,0,0-.029-.767,1.073,1.073,0,0,0-.566-.6,1.052,1.052,0,0,0-.834.031l-1.127.489Z" transform="translate(-2453.013 -435.537)" fill="#fff"/>
        <path id="Trazado_622749" data-name="Trazado 622749" d="M2550.945,434.5a3.514,3.514,0,0,0-.454.1q-.7.217-.771.758l.936,3.022-1.233.382-1.431-4.618,1.165-.361.2.54a1.2,1.2,0,0,1,.832-.955,1.356,1.356,0,0,1,.4-.064Z" transform="translate(-2541.607 -430.646)" fill="#fff"/>
        <path id="Trazado_622750" data-name="Trazado 622750" d="M2602.679,424.664a2.867,2.867,0,0,1,.014-1.312,2.028,2.028,0,0,1,.607-1.014,2.326,2.326,0,0,1,1.122-.544,2.2,2.2,0,0,1,1.685.266,2.4,2.4,0,0,1,1,1.455l.075.322a2.529,2.529,0,0,1-.251,1.873,2.407,2.407,0,0,1-3.267.671,2.57,2.57,0,0,1-.976-1.661Zm1.283-.169a1.806,1.806,0,0,0,.465.98.931.931,0,0,0,1.446-.291A1.979,1.979,0,0,0,2605.9,424a1.79,1.79,0,0,0-.469-.973.856.856,0,0,0-.8-.215.843.843,0,0,0-.644.509A2.011,2.011,0,0,0,2603.962,424.495Z" transform="translate(-2592.554 -419.851)" fill="#fff"/>
        <path id="Trazado_622751" data-name="Trazado 622751" d="M2674.454,395.424l.127,1.182.822-.088.1.942-.822.088.257,2.4a.574.574,0,0,0,.143.371.515.515,0,0,0,.4.074,2.054,2.054,0,0,0,.374-.072l.1.973a2.659,2.659,0,0,1-.765.2,1.233,1.233,0,0,1-1.523-1.216l-.278-2.59-.7.075-.1-.942.7-.075-.127-1.182Z" transform="translate(-2657.834 -395.308)" fill="#fff"/>
        <path id="Trazado_622752" data-name="Trazado 622752" d="M2725.549,411.1a2.866,2.866,0,0,1,.261-1.286,2.029,2.029,0,0,1,.787-.881,2.327,2.327,0,0,1,1.2-.323,2.2,2.2,0,0,1,1.6.579,2.4,2.4,0,0,1,.71,1.618l.013.331a2.528,2.528,0,0,1-.6,1.793,2.407,2.407,0,0,1-3.335.043,2.572,2.572,0,0,1-.646-1.815Zm1.292.076a1.807,1.807,0,0,0,.272,1.051.931.931,0,0,0,1.475-.014,1.978,1.978,0,0,0,.249-1.155,1.79,1.79,0,0,0-.276-1.044.857.857,0,0,0-.746-.362.842.842,0,0,0-.728.378A2.009,2.009,0,0,0,2726.842,411.179Z" transform="translate(-2707.229 -407.611)" fill="#fff"/>
        <path id="Trazado_622753" data-name="Trazado 622753" d="M2803.622,393.813l-.1,1.184.824.07-.08.944-.824-.07-.2,2.4a.573.573,0,0,0,.07.392.515.515,0,0,0,.382.149,2.058,2.058,0,0,0,.381,0l-.083.975a2.66,2.66,0,0,1-.789.05,1.233,1.233,0,0,1-1.264-1.484l.221-2.6-.7-.06.08-.944.7.06.1-1.184Z" transform="translate(-2778.028 -393.704)" fill="#fff"/>
        <path id="Trazado_622754" data-name="Trazado 622754" d="M2844.978,417.742l1.406-2.8,1.364.242-2.891,5.159-.15.232a1.474,1.474,0,0,1-1.573.682,2.033,2.033,0,0,1-.548-.184l.171-.964.193.039a1.065,1.065,0,0,0,.559-.014.734.734,0,0,0,.344-.316l.219-.365-.819-5.07,1.368.243Z" transform="translate(-2816.397 -412.991)" fill="#fff"/>
        <path id="Trazado_622755" data-name="Trazado 622755" d="M2909.032,433.116a2.9,2.9,0,0,1-1,1.568,1.626,1.626,0,0,1-1.5.251,1.506,1.506,0,0,1-.988-.828l-.655,2.183-1.237-.371,1.922-6.411,1.147.344-.093.467a1.518,1.518,0,0,1,1.334-.188,1.637,1.637,0,0,1,1.141,1.033,2.977,2.977,0,0,1-.048,1.889Zm-1.21-.461a1.9,1.9,0,0,0,.07-1.066.778.778,0,0,0-.56-.55.845.845,0,0,0-.934.205l-.569,1.9a.86.86,0,0,0,.672.7Q2907.387,434.106,2907.822,432.655Z" transform="translate(-2873.355 -427.101)" fill="#fff"/>
        <path id="Trazado_622756" data-name="Trazado 622756" d="M2991.364,467.425a2.373,2.373,0,0,1-1.327-1.289,2.32,2.32,0,0,1,.081-1.86l.05-.115a2.921,2.921,0,0,1,.778-1.082,2.066,2.066,0,0,1,1.084-.493,2.239,2.239,0,0,1,1.2.185,2.007,2.007,0,0,1,1.182,1.2,2.542,2.542,0,0,1-.185,1.854l-.21.483-2.823-1.228a1.2,1.2,0,0,0,.043.847,1.142,1.142,0,0,0,.617.58,1.394,1.394,0,0,0,1.285-.031l.3.9a1.941,1.941,0,0,1-.977.274A2.582,2.582,0,0,1,2991.364,467.425Zm1.449-3.7a.807.807,0,0,0-.676-.01,1.347,1.347,0,0,0-.578.561l1.647.717.041-.095a.963.963,0,0,0,.053-.7A.833.833,0,0,0,2992.813,463.724Z" transform="translate(-2953.789 -457.938)" fill="#fff"/>
      </g>
      <g id="Grupo_894479" data-name="Grupo 894479" transform="translate(140.517 82.447)">
        <path id="Trazado_622757" data-name="Trazado 622757" d="M2093.278,1229.928l-.3-1.018-2.271.667-.375-1.278,6.2-1.823.677,2.3a2.715,2.715,0,0,1,.009,1.839,1.762,1.762,0,0,1-1.209,1,1.988,1.988,0,0,1-1.139.036,1.953,1.953,0,0,1-.92-.634l-2.14,2.087-.06.017-.4-1.372Zm.736-1.322.3,1.031a1.1,1.1,0,0,0,.464.673.913.913,0,0,0,.753.066.977.977,0,0,0,.617-.452,1.08,1.08,0,0,0,.027-.839l-.3-1.026Z" transform="translate(-2090.333 -1226.477)" fill="#fff"/>
        <path id="Trazado_622758" data-name="Trazado 622758" d="M2126.723,1324.595a2.359,2.359,0,0,1-.092-1.836,2.3,2.3,0,0,1,1.319-1.3l.114-.05a2.9,2.9,0,0,1,1.3-.26,2.052,2.052,0,0,1,1.122.376,2.225,2.225,0,0,1,.75.949,1.994,1.994,0,0,1,.05,1.671,2.527,2.527,0,0,1-1.39,1.223l-.48.209-1.221-2.8a1.191,1.191,0,0,0-.542.645,1.134,1.134,0,0,0,.056.84,1.385,1.385,0,0,0,.955.848l-.4.86a1.926,1.926,0,0,1-.9-.462A2.561,2.561,0,0,1,2126.723,1324.595Zm3.56-1.709a.8.8,0,0,0-.484-.465,1.339,1.339,0,0,0-.8.017l.712,1.636.094-.041a.955.955,0,0,0,.515-.476A.827.827,0,0,0,2130.283,1322.885Z" transform="translate(-2124.056 -1314.784)" fill="#fff"/>
        <path id="Trazado_622759" data-name="Trazado 622759" d="M2153.458,1376.851l3.378-1.872-.347-.625.823-.456.347.625.357-.2a1.658,1.658,0,0,1,1.322-.2,1.8,1.8,0,0,1,1.02.92,3.021,3.021,0,0,1,.239.614l-.876.47a1.643,1.643,0,0,0-.155-.361.621.621,0,0,0-.945-.3l-.338.187.463.835-.823.456-.463-.835-3.378,1.872Z" transform="translate(-2149.215 -1363.987)" fill="#fff"/>
        <path id="Trazado_622760" data-name="Trazado 622760" d="M2178.279,1412.705l-.7-1.082,4.038-2.6.7,1.082Zm4.344-4.422a.632.632,0,0,1,.5-.1.832.832,0,0,1,.569.883.678.678,0,0,1-.8.515.824.824,0,0,1-.565-.877A.631.631,0,0,1,2182.623,1408.284Z" transform="translate(-2171.716 -1395.957)" fill="#fff"/>
        <path id="Trazado_622761" data-name="Trazado 622761" d="M2203.594,1450l-.414.372a1.677,1.677,0,0,1,1.356.695,1.394,1.394,0,0,1,.344,1.172,2.093,2.093,0,0,1-.824,1.124l-2.45,1.905-.788-1.013,2.425-1.886a.834.834,0,0,0,.359-.5.8.8,0,0,0-.217-.579.882.882,0,0,0-.863-.358l-2.674,2.079-.788-1.013,3.792-2.949Z" transform="translate(-2191.751 -1434.088)" fill="#fff"/>
        <path id="Trazado_622762" data-name="Trazado 622762" d="M2262.94,1522.651a2.357,2.357,0,0,1-.747-1.68,2.3,2.3,0,0,1,.763-1.686l.089-.087a2.9,2.9,0,0,1,1.117-.71,2.053,2.053,0,0,1,1.182-.054,2.224,2.224,0,0,1,1.041.616,1.993,1.993,0,0,1,.648,1.541,2.525,2.525,0,0,1-.857,1.641l-.373.368-2.149-2.177a1.193,1.193,0,0,0-.274.8,1.136,1.136,0,0,0,.354.764,1.386,1.386,0,0,0,1.2.447l-.06.944a1.926,1.926,0,0,1-1-.108A2.565,2.565,0,0,1,2262.94,1522.651Zm2.706-2.877a.8.8,0,0,0-.619-.259,1.341,1.341,0,0,0-.74.3l1.254,1.27.073-.072a.957.957,0,0,0,.309-.629A.827.827,0,0,0,2265.646,1519.774Z" transform="translate(-2250.64 -1498.75)" fill="#fff"/>
        <path id="Trazado_622763" data-name="Trazado 622763" d="M3200.031,1451.659l-1.288,1.5,4.091,3.5-.866,1.012-4.091-3.5-1.271,1.484-.819-.7,3.424-4Z" transform="translate(-3121.476 -1435.867)" fill="#fff"/>
        <path id="Trazado_622764" data-name="Trazado 622764" d="M3280.882,1428.517a2.358,2.358,0,0,1-1.5,1.059,2.3,2.3,0,0,1-1.8-.421l-.1-.07a2.9,2.9,0,0,1-.914-.958,2.053,2.053,0,0,1-.282-1.149,2.224,2.224,0,0,1,.4-1.141,1.994,1.994,0,0,1,1.386-.935,2.526,2.526,0,0,1,1.776.521l.433.294-1.718,2.531a1.192,1.192,0,0,0,.835.113,1.134,1.134,0,0,0,.68-.5,1.385,1.385,0,0,0,.206-1.26l.938-.125a1.923,1.923,0,0,1,.088,1A2.564,2.564,0,0,1,3280.882,1428.517Zm-3.348-2.1a.8.8,0,0,0-.134.658,1.339,1.339,0,0,0,.442.667l1-1.477-.085-.058a.954.954,0,0,0-.677-.181A.827.827,0,0,0,3277.534,1426.422Z" transform="translate(-3196.553 -1411.546)" fill="#fff"/>
        <path id="Trazado_622765" data-name="Trazado 622765" d="M3316.38,1365.132a.413.413,0,0,0-.437.033,2.644,2.644,0,0,0-.564.548q-1.119,1.347-2.088.834a1.32,1.32,0,0,1-.7-.968,2.14,2.14,0,0,1,.27-1.427,2.3,2.3,0,0,1,1.065-1.092,1.357,1.357,0,0,1,1.245.038l-.6,1.134a.621.621,0,0,0-.485-.056.752.752,0,0,0-.418.406.771.771,0,0,0-.1.512.463.463,0,0,0,.247.331.4.4,0,0,0,.4-.018,2.081,2.081,0,0,0,.519-.5,5.524,5.524,0,0,1,.568-.614,1.327,1.327,0,0,1,1.617-.295,1.253,1.253,0,0,1,.676,1,2.432,2.432,0,0,1-.322,1.477,2.543,2.543,0,0,1-.692.847,1.8,1.8,0,0,1-.865.373,1.372,1.372,0,0,1-.841-.143l.569-1.075a.67.67,0,0,0,.582.021,1,1,0,0,0,.456-.472.929.929,0,0,0,.137-.558A.435.435,0,0,0,3316.38,1365.132Z" transform="translate(-3230.402 -1353.755)" fill="#fff"/>
        <path id="Trazado_622766" data-name="Trazado 622766" d="M3322.238,1312.719l1.089.456.317-.758.868.363-.317.758,2.212.925a.573.573,0,0,0,.392.053.514.514,0,0,0,.257-.316,2.038,2.038,0,0,0,.117-.36l.9.375a2.642,2.642,0,0,1-.193.761,1.225,1.225,0,0,1-1.789.744l-2.388-1-.271.647-.868-.363.271-.647-1.09-.456Z" transform="translate(-3238.965 -1306.64)" fill="#fff"/>
      </g>
      <rect id="Rectángulo_301208" data-name="Rectángulo 301208" width="471.999" height="39.184" transform="translate(0.001 147.657)" fill="#0b5999"/>
      <g id="Grupo_894480" data-name="Grupo 894480" transform="translate(32.284 155.055)">
        <path id="Trazado_622767" data-name="Trazado 622767" d="M486.6,2345.506h-2.815v6.278h-3.534v-17.15h6.372a7.2,7.2,0,0,1,4.688,1.354,4.675,4.675,0,0,1,1.649,3.828,5.276,5.276,0,0,1-.76,2.927,5.181,5.181,0,0,1-2.3,1.867l3.71,7.008v.165h-3.793Zm-2.815-2.862h2.85a2.918,2.918,0,0,0,2.061-.677,2.421,2.421,0,0,0,.73-1.867,2.591,2.591,0,0,0-.689-1.908,2.864,2.864,0,0,0-2.114-.7h-2.839Z" transform="translate(-480.251 -2332.75)" fill="#a8c9d6"/>
        <path id="Trazado_622768" data-name="Trazado 622768" d="M706.29,2409.641a3.772,3.772,0,0,1-.342-1.142,4.119,4.119,0,0,1-3.216,1.378,4.525,4.525,0,0,1-3.1-1.083,3.485,3.485,0,0,1-1.231-2.733,3.6,3.6,0,0,1,1.5-3.11,7.414,7.414,0,0,1,4.34-1.1h1.567v-.73a2.1,2.1,0,0,0-.453-1.413,1.784,1.784,0,0,0-1.431-.53,2.029,2.029,0,0,0-1.349.412,1.4,1.4,0,0,0-.489,1.131h-3.4a3.42,3.42,0,0,1,.683-2.05,4.516,4.516,0,0,1,1.932-1.478,7.042,7.042,0,0,1,2.8-.536,5.563,5.563,0,0,1,3.74,1.184,4.142,4.142,0,0,1,1.384,3.328v5.524a6.09,6.09,0,0,0,.506,2.744v.2Zm-2.815-2.367a2.931,2.931,0,0,0,1.39-.336,2.206,2.206,0,0,0,.942-.9v-2.191h-1.272q-2.556,0-2.721,1.767l-.012.2a1.362,1.362,0,0,0,.448,1.048A1.737,1.737,0,0,0,703.475,2407.273Z" transform="translate(-683.734 -2390.607)" fill="#a8c9d6"/>
        <path id="Trazado_622769" data-name="Trazado 622769" d="M909.794,2403.386a7.644,7.644,0,0,1-1.337,4.717,4.286,4.286,0,0,1-3.61,1.773,3.97,3.97,0,0,1-3.121-1.343v6.007h-3.4V2396.9h3.157l.118,1.249a4,4,0,0,1,3.227-1.484,4.316,4.316,0,0,1,3.663,1.743,7.85,7.85,0,0,1,1.307,4.806Zm-3.4-.247a5.017,5.017,0,0,0-.63-2.744,2.053,2.053,0,0,0-1.832-.966,2.229,2.229,0,0,0-2.2,1.225v5.218a2.267,2.267,0,0,0,2.226,1.26Q906.39,2407.132,906.39,2403.139Z" transform="translate(-870.218 -2390.607)" fill="#a8c9d6"/>
        <path id="Trazado_622770" data-name="Trazado 622770" d="M1100,2326.752a1.677,1.677,0,0,1,.512-1.26,2.208,2.208,0,0,1,2.786,0,1.8,1.8,0,0,1-.006,2.532,2.183,2.183,0,0,1-2.768,0A1.671,1.671,0,0,1,1100,2326.752Zm3.616,16.042H1100.2V2330.05h3.416Z" transform="translate(-1058.338 -2323.76)" fill="#a8c9d6"/>
        <path id="Trazado_622771" data-name="Trazado 622771" d="M1187.608,2332.241a7.681,7.681,0,0,1,1.337-4.747,4.338,4.338,0,0,1,3.657-1.767,3.9,3.9,0,0,1,3.074,1.39v-6.5h3.416v18.092h-3.074l-.165-1.354a4.006,4.006,0,0,1-3.274,1.59,4.325,4.325,0,0,1-3.61-1.772A7.927,7.927,0,0,1,1187.608,2332.241Zm3.4.253a5.031,5.031,0,0,0,.624,2.749,2.033,2.033,0,0,0,1.814.956,2.278,2.278,0,0,0,2.226-1.333v-5.037a2.245,2.245,0,0,0-2.2-1.333Q1191.012,2328.5,1191.012,2332.495Z" transform="translate(-1140.058 -2319.674)" fill="#a8c9d6"/>
        <path id="Trazado_622772" data-name="Trazado 622772" d="M1479.964,2348.25h-6.2l-1.178,3.534h-3.757l6.384-17.15h3.274l6.419,17.15h-3.757Zm-5.241-2.862h4.287l-2.156-6.419Z" transform="translate(-1402.378 -2332.75)" fill="#a8c9d6"/>
        <path id="Trazado_622773" data-name="Trazado 622773" d="M1737.7,2403.386a7.644,7.644,0,0,1-1.337,4.717,4.286,4.286,0,0,1-3.61,1.773,3.97,3.97,0,0,1-3.121-1.343v6.007h-3.4V2396.9h3.157l.118,1.249a4,4,0,0,1,3.227-1.484,4.316,4.316,0,0,1,3.663,1.743,7.85,7.85,0,0,1,1.307,4.806Zm-3.4-.247a5.017,5.017,0,0,0-.63-2.744,2.053,2.053,0,0,0-1.832-.966,2.229,2.229,0,0,0-2.2,1.225v5.218a2.267,2.267,0,0,0,2.226,1.26Q1734.3,2407.132,1734.3,2403.139Z" transform="translate(-1642.471 -2390.607)" fill="#a8c9d6"/>
        <path id="Trazado_622774" data-name="Trazado 622774" d="M1939.728,2403.386a7.644,7.644,0,0,1-1.337,4.717,4.286,4.286,0,0,1-3.61,1.773,3.97,3.97,0,0,1-3.121-1.343v6.007h-3.4V2396.9h3.157l.118,1.249a4,4,0,0,1,3.227-1.484,4.316,4.316,0,0,1,3.663,1.743,7.85,7.85,0,0,1,1.307,4.806Zm-3.4-.247a5.016,5.016,0,0,0-.63-2.744,2.053,2.053,0,0,0-1.832-.966,2.23,2.23,0,0,0-2.2,1.225v5.218a2.267,2.267,0,0,0,2.226,1.26Q1936.324,2407.132,1936.324,2403.139Z" transform="translate(-1830.918 -2390.607)" fill="#a8c9d6"/>
        <path id="Trazado_622775" data-name="Trazado 622775" d="M2136.327,2338.708h-3.416v-18.092h3.416Z" transform="translate(-2021.815 -2319.674)" fill="#a8c9d6"/>
        <path id="Trazado_622776" data-name="Trazado 622776" d="M2225.076,2326.752a1.677,1.677,0,0,1,.512-1.26,2.208,2.208,0,0,1,2.786,0,1.8,1.8,0,0,1-.006,2.532,2.183,2.183,0,0,1-2.768,0A1.672,1.672,0,0,1,2225.076,2326.752Zm3.616,16.042h-3.416V2330.05h3.416Z" transform="translate(-2107.785 -2323.76)" fill="#a8c9d6"/>
        <path id="Trazado_622777" data-name="Trazado 622777" d="M2318.516,2407.132a2.233,2.233,0,0,0,1.531-.518,1.815,1.815,0,0,0,.612-1.378h3.192a4.367,4.367,0,0,1-.707,2.373,4.663,4.663,0,0,1-1.9,1.673,5.954,5.954,0,0,1-2.668.595,5.532,5.532,0,0,1-4.311-1.737,6.875,6.875,0,0,1-1.578-4.8v-.224a6.8,6.8,0,0,1,1.567-4.7,5.468,5.468,0,0,1,4.3-1.755,5.361,5.361,0,0,1,3.834,1.361,4.816,4.816,0,0,1,1.466,3.622h-3.192a2.339,2.339,0,0,0-.612-1.616,2.276,2.276,0,0,0-3.351.245,5.023,5.023,0,0,0-.607,2.813v.354a5.087,5.087,0,0,0,.6,2.831A2.075,2.075,0,0,0,2318.516,2407.132Z" transform="translate(-2189.505 -2390.607)" fill="#a8c9d6"/>
        <path id="Trazado_622778" data-name="Trazado 622778" d="M2508.061,2409.641a3.776,3.776,0,0,1-.342-1.142,4.119,4.119,0,0,1-3.216,1.378,4.524,4.524,0,0,1-3.1-1.083,3.485,3.485,0,0,1-1.231-2.733,3.6,3.6,0,0,1,1.5-3.11,7.414,7.414,0,0,1,4.341-1.1h1.566v-.73a2.1,2.1,0,0,0-.453-1.413,1.784,1.784,0,0,0-1.431-.53,2.029,2.029,0,0,0-1.349.412,1.4,1.4,0,0,0-.489,1.131h-3.4a3.419,3.419,0,0,1,.683-2.05,4.517,4.517,0,0,1,1.932-1.478,7.042,7.042,0,0,1,2.8-.536,5.563,5.563,0,0,1,3.74,1.184,4.141,4.141,0,0,1,1.384,3.328v5.524a6.091,6.091,0,0,0,.506,2.744v.2Zm-2.815-2.367a2.931,2.931,0,0,0,1.39-.336,2.2,2.2,0,0,0,.942-.9v-2.191h-1.272q-2.556,0-2.721,1.767l-.012.2a1.362,1.362,0,0,0,.448,1.048A1.738,1.738,0,0,0,2505.246,2407.273Z" transform="translate(-2364.385 -2390.607)" fill="#a8c9d6"/>
        <path id="Trazado_622779" data-name="Trazado 622779" d="M2687.661,2353.557v3.133h2.179v2.5h-2.179v6.36a1.518,1.518,0,0,0,.271,1.013,1.36,1.36,0,0,0,1.037.306,5.412,5.412,0,0,0,1-.083v2.58a7,7,0,0,1-2.061.306q-3.581,0-3.651-3.616v-6.867H2682.4v-2.5h1.861v-3.133Z" transform="translate(-2534.363 -2350.4)" fill="#a8c9d6"/>
        <path id="Trazado_622780" data-name="Trazado 622780" d="M2820.994,2326.752a1.677,1.677,0,0,1,.512-1.26,2.208,2.208,0,0,1,2.786,0,1.8,1.8,0,0,1-.006,2.532,2.183,2.183,0,0,1-2.768,0A1.672,1.672,0,0,1,2820.994,2326.752Zm3.616,16.042h-3.416V2330.05h3.416Z" transform="translate(-2663.644 -2323.76)" fill="#a8c9d6"/>
        <path id="Trazado_622781" data-name="Trazado 622781" d="M2908.6,2403.151a7.555,7.555,0,0,1,.73-3.38,5.348,5.348,0,0,1,2.1-2.3,6.135,6.135,0,0,1,3.186-.813,5.8,5.8,0,0,1,4.211,1.578,6.335,6.335,0,0,1,1.82,4.288l.024.872a6.661,6.661,0,0,1-1.637,4.705,6.346,6.346,0,0,1-8.793.006,6.779,6.779,0,0,1-1.643-4.806Zm3.4.242a4.763,4.763,0,0,0,.683,2.778,2.454,2.454,0,0,0,3.887.012,5.213,5.213,0,0,0,.695-3.037,4.717,4.717,0,0,0-.695-2.76,2.26,2.26,0,0,0-1.955-.979,2.223,2.223,0,0,0-1.932.973A5.3,5.3,0,0,0,2912.007,2403.393Z" transform="translate(-2745.364 -2390.607)" fill="#a8c9d6"/>
        <path id="Trazado_622782" data-name="Trazado 622782" d="M3121.544,2396.9l.106,1.472a4.45,4.45,0,0,1,3.663-1.708,3.7,3.7,0,0,1,3.015,1.19,5.551,5.551,0,0,1,1.013,3.557v8.233h-3.4v-8.151a2.209,2.209,0,0,0-.471-1.573,2.11,2.11,0,0,0-1.567-.489,2.342,2.342,0,0,0-2.155,1.225v8.987h-3.4V2396.9Z" transform="translate(-2941.002 -2390.607)" fill="#a8c9d6"/>
        <path id="Trazado_622783" data-name="Trazado 622783" d="M3413.057,2351.784v-17.15h5.277a8.015,8.015,0,0,1,4.046,1.019,7.106,7.106,0,0,1,2.786,2.9,8.94,8.94,0,0,1,1,4.27v.789a8.964,8.964,0,0,1-.983,4.252,7.045,7.045,0,0,1-2.774,2.886,8.074,8.074,0,0,1-4.04,1.037Zm3.533-14.288v11.449h1.708a3.837,3.837,0,0,0,3.168-1.354,6.121,6.121,0,0,0,1.119-3.875v-.907a6.22,6.22,0,0,0-1.083-3.964,3.825,3.825,0,0,0-3.168-1.349Z" transform="translate(-3215.907 -2332.75)" fill="#a8c9d6"/>
        <path id="Trazado_622784" data-name="Trazado 622784" d="M3642.435,2409.876a6.254,6.254,0,0,1-4.564-1.72,6.112,6.112,0,0,1-1.761-4.582v-.33a7.7,7.7,0,0,1,.742-3.433,5.448,5.448,0,0,1,2.1-2.332,5.9,5.9,0,0,1,3.1-.819,5.289,5.289,0,0,1,4.117,1.649,6.7,6.7,0,0,1,1.5,4.676v1.39h-8.116a3.163,3.163,0,0,0,1,2,3.01,3.01,0,0,0,2.1.754,3.675,3.675,0,0,0,3.074-1.425l1.672,1.873a5.109,5.109,0,0,1-2.073,1.69A6.8,6.8,0,0,1,3642.435,2409.876Zm-.389-10.471a2.126,2.126,0,0,0-1.643.687,3.554,3.554,0,0,0-.807,1.964h4.735v-.272a2.534,2.534,0,0,0-.612-1.757A2.2,2.2,0,0,0,3642.046,2399.405Z" transform="translate(-3423.966 -2390.607)" fill="#a8c9d6"/>
        <path id="Trazado_622785" data-name="Trazado 622785" d="M3823.036,2408.753l2.367-8.587h3.557l-4.3,12.744h-3.251l-4.3-12.744h3.557Z" transform="translate(-3592.8 -2393.876)" fill="#a8c9d6"/>
        <path id="Trazado_622786" data-name="Trazado 622786" d="M4012.5,2409.876a6.255,6.255,0,0,1-4.564-1.72,6.112,6.112,0,0,1-1.761-4.582v-.33a7.7,7.7,0,0,1,.742-3.433,5.449,5.449,0,0,1,2.1-2.332,5.9,5.9,0,0,1,3.1-.819,5.289,5.289,0,0,1,4.116,1.649,6.7,6.7,0,0,1,1.5,4.676v1.39h-8.115a3.162,3.162,0,0,0,1,2,3.009,3.009,0,0,0,2.1.754,3.674,3.674,0,0,0,3.074-1.425l1.672,1.873a5.108,5.108,0,0,1-2.073,1.69A6.8,6.8,0,0,1,4012.5,2409.876Zm-.389-10.471a2.126,2.126,0,0,0-1.643.687,3.552,3.552,0,0,0-.807,1.964h4.735v-.272a2.534,2.534,0,0,0-.612-1.757A2.195,2.195,0,0,0,4012.109,2399.405Z" transform="translate(-3769.152 -2390.607)" fill="#a8c9d6"/>
        <path id="Trazado_622787" data-name="Trazado 622787" d="M4213.017,2338.708H4209.6v-18.092h3.416Z" transform="translate(-3958.906 -2319.674)" fill="#a8c9d6"/>
        <path id="Trazado_622788" data-name="Trazado 622788" d="M4294.231,2403.151a7.558,7.558,0,0,1,.73-3.38,5.348,5.348,0,0,1,2.1-2.3,6.133,6.133,0,0,1,3.186-.813,5.8,5.8,0,0,1,4.211,1.578,6.335,6.335,0,0,1,1.82,4.288l.023.872a6.661,6.661,0,0,1-1.637,4.705,6.346,6.346,0,0,1-8.793.006,6.779,6.779,0,0,1-1.643-4.806Zm3.4.242a4.763,4.763,0,0,0,.683,2.778,2.454,2.454,0,0,0,3.887.012,5.21,5.21,0,0,0,.7-3.037,4.715,4.715,0,0,0-.7-2.76,2.259,2.259,0,0,0-1.955-.979,2.223,2.223,0,0,0-1.932.973A5.3,5.3,0,0,0,4297.635,2403.393Z" transform="translate(-4037.846 -2390.607)" fill="#a8c9d6"/>
        <path id="Trazado_622789" data-name="Trazado 622789" d="M4516.492,2403.386a7.641,7.641,0,0,1-1.337,4.717,4.285,4.285,0,0,1-3.61,1.773,3.97,3.97,0,0,1-3.121-1.343v6.007h-3.4V2396.9h3.157l.118,1.249a4,4,0,0,1,3.228-1.484,4.316,4.316,0,0,1,3.663,1.743,7.85,7.85,0,0,1,1.308,4.806Zm-3.4-.247a5.013,5.013,0,0,0-.631-2.744,2.052,2.052,0,0,0-1.831-.966,2.229,2.229,0,0,0-2.2,1.225v5.218a2.266,2.266,0,0,0,2.226,1.26Q4513.088,2407.132,4513.088,2403.139Z" transform="translate(-4234.465 -2390.607)" fill="#a8c9d6"/>
        <path id="Trazado_622790" data-name="Trazado 622790" d="M4710.238,2396.9l.106,1.425a4.478,4.478,0,0,1,3.663-1.661,3.4,3.4,0,0,1,3.38,1.944,4.375,4.375,0,0,1,3.828-1.944,3.8,3.8,0,0,1,3.086,1.207,5.55,5.55,0,0,1,1.013,3.634v8.139H4721.9v-8.127a2.427,2.427,0,0,0-.424-1.584,1.878,1.878,0,0,0-1.5-.5,2.125,2.125,0,0,0-2.12,1.461l.012,8.751h-3.4v-8.115a2.4,2.4,0,0,0-.436-1.6,1.9,1.9,0,0,0-1.484-.495,2.206,2.206,0,0,0-2.1,1.2v9.01h-3.4V2396.9Z" transform="translate(-4422.911 -2390.607)" fill="#a8c9d6"/>
        <path id="Trazado_622791" data-name="Trazado 622791" d="M5017.2,2409.876a6.254,6.254,0,0,1-4.564-1.72,6.111,6.111,0,0,1-1.761-4.582v-.33a7.7,7.7,0,0,1,.742-3.433,5.445,5.445,0,0,1,2.1-2.332,5.9,5.9,0,0,1,3.1-.819,5.289,5.289,0,0,1,4.117,1.649,6.7,6.7,0,0,1,1.5,4.676v1.39h-8.115a3.161,3.161,0,0,0,1,2,3.008,3.008,0,0,0,2.1.754,3.674,3.674,0,0,0,3.074-1.425l1.673,1.873a5.109,5.109,0,0,1-2.073,1.69A6.8,6.8,0,0,1,5017.2,2409.876Zm-.389-10.471a2.126,2.126,0,0,0-1.643.687,3.554,3.554,0,0,0-.807,1.964h4.735v-.272a2.537,2.537,0,0,0-.612-1.757A2.2,2.2,0,0,0,5016.812,2399.405Z" transform="translate(-4706.316 -2390.607)" fill="#a8c9d6"/>
        <path id="Trazado_622792" data-name="Trazado 622792" d="M5213.828,2396.9l.106,1.472a4.451,4.451,0,0,1,3.663-1.708,3.7,3.7,0,0,1,3.016,1.19,5.55,5.55,0,0,1,1.013,3.557v8.233h-3.4v-8.151a2.209,2.209,0,0,0-.471-1.573,2.109,2.109,0,0,0-1.566-.489,2.341,2.341,0,0,0-2.155,1.225v8.987h-3.4V2396.9Z" transform="translate(-4892.637 -2390.607)" fill="#a8c9d6"/>
        <path id="Trazado_622793" data-name="Trazado 622793" d="M5400.22,2353.557v3.133h2.179v2.5h-2.179v6.36a1.515,1.515,0,0,0,.271,1.013,1.358,1.358,0,0,0,1.036.306,5.413,5.413,0,0,0,1-.083v2.58a7,7,0,0,1-2.061.306q-3.582,0-3.651-3.616v-6.867h-1.861v-2.5h1.861v-3.133Z" transform="translate(-5064.577 -2350.4)" fill="#a8c9d6"/>
        <path id="Trazado_622794" data-name="Trazado 622794" d="M5625.541,2318.66a18.06,18.06,0,0,1,.719-5.135,13.538,13.538,0,0,1,2.12-4.317,7.915,7.915,0,0,1,3.039-2.609l.66,1.837a8.2,8.2,0,0,0-2.686,3.934,18.213,18.213,0,0,0-.966,6.219v.365a18.573,18.573,0,0,0,.954,6.243,8.357,8.357,0,0,0,2.7,3.993l-.66,1.8a7.922,7.922,0,0,1-2.986-2.538,13.322,13.322,0,0,1-2.114-4.2,17.965,17.965,0,0,1-.777-4.971Z" transform="translate(-5279.663 -2306.599)" fill="#a8c9d6"/>
        <path id="Trazado_622795" data-name="Trazado 622795" d="M5758.924,2345.506h-2.815v6.278h-3.534v-17.15h6.372a7.2,7.2,0,0,1,4.688,1.354,4.676,4.676,0,0,1,1.649,3.828,5.273,5.273,0,0,1-.76,2.927,5.179,5.179,0,0,1-2.3,1.867l3.71,7.008v.165h-3.792Zm-2.815-2.862h2.85a2.919,2.919,0,0,0,2.062-.677,2.421,2.421,0,0,0,.73-1.867,2.591,2.591,0,0,0-.689-1.908,2.864,2.864,0,0,0-2.114-.7h-2.838Z" transform="translate(-5398.157 -2332.75)" fill="#a8c9d6"/>
        <path id="Trazado_622796" data-name="Trazado 622796" d="M5972.392,2348.25h-6.2l-1.178,3.534h-3.757l6.384-17.15h3.275l6.419,17.15h-3.757Zm-5.241-2.862h4.287l-2.155-6.419Z" transform="translate(-5592.815 -2332.75)" fill="#a8c9d6"/>
        <path id="Trazado_622797" data-name="Trazado 622797" d="M6224.263,2351.784v-17.15h5.277a8.013,8.013,0,0,1,4.046,1.019,7.11,7.11,0,0,1,2.786,2.9,8.943,8.943,0,0,1,1,4.27v.789a8.967,8.967,0,0,1-.983,4.252,7.049,7.049,0,0,1-2.774,2.886,8.073,8.073,0,0,1-4.04,1.037Zm3.534-14.288v11.449h1.708a3.836,3.836,0,0,0,3.168-1.354,6.12,6.12,0,0,0,1.119-3.875v-.907a6.22,6.22,0,0,0-1.083-3.964,3.825,3.825,0,0,0-3.168-1.349Z" transform="translate(-5838.137 -2332.75)" fill="#a8c9d6"/>
        <path id="Trazado_622798" data-name="Trazado 622798" d="M6448.411,2318.931a17.142,17.142,0,0,1-.766,5.124,13.906,13.906,0,0,1-2.2,4.346,7.945,7.945,0,0,1-3.074,2.591l-.66-1.8a8.281,8.281,0,0,0,2.639-3.887,18,18,0,0,0,1-6.042v-.624a18.4,18.4,0,0,0-.96-6.207,8.63,8.63,0,0,0-2.68-4.028l.66-1.8a7.944,7.944,0,0,1,3.021,2.521,13.744,13.744,0,0,1,2.2,4.252,17.035,17.035,0,0,1,.818,5.03Z" transform="translate(-6040.966 -2306.599)" fill="#a8c9d6"/>
      </g>
    </g>
  </g>
</svg>
