<svg xmlns="http://www.w3.org/2000/svg" xmlns:xlink="http://www.w3.org/1999/xlink" width="505" height="352" viewBox="0 0 505 352">
  <defs>
    <filter id="Trazado_624095" x="0" y="0" width="505" height="352" filterUnits="userSpaceOnUse">
      <feOffset dy="5" input="SourceAlpha"/>
      <feGaussianBlur stdDeviation="3" result="blur"/>
      <feFlood flood-opacity="0.161"/>
      <feComposite operator="in" in2="blur"/>
      <feComposite in="SourceGraphic"/>
    </filter>
  </defs>
  <g id="Grupo_897742" data-name="Grupo 897742" transform="translate(-851 -3529)">
    <g id="Grupo_894341" data-name="Grupo 894341" transform="translate(860 3533)">
      <g transform="matrix(1, 0, 0, 1, -9, -4)" filter="url(#Trazado_624095)">
        <path id="Trazado_624095-2" data-name="Trazado 624095" d="M10,0H477a10,10,0,0,1,10,10V324a10,10,0,0,1-10,10H10A10,10,0,0,1,0,324V10A10,10,0,0,1,10,0Z" transform="translate(9 4)" fill="#fdfdfd"/>
      </g>
    </g>
    <path id="Trazado_624094" data-name="Trazado 624094" d="M2980.963,854.63a20.427,20.427,0,0,0-14.533-6.041h-28.054v-9.655a3.912,3.912,0,0,0-3.907-3.907h-21.418a2.452,2.452,0,0,1-2.4-1.925,20.968,20.968,0,0,0-41.015,0,2.452,2.452,0,0,1-2.4,1.925h-21.418a3.911,3.911,0,0,0-3.907,3.907v9.655h-28.054a20.629,20.629,0,0,0-20.576,20.574v215.769a20.629,20.629,0,0,0,20.576,20.574H2966.43a20.629,20.629,0,0,0,20.576-20.574V869.163A20.43,20.43,0,0,0,2980.963,854.63ZM2846.8,839.91h20.441a7.359,7.359,0,0,0,7.173-5.8,16.084,16.084,0,0,1,31.459,0,7.359,7.359,0,0,0,7.173,5.8h20.441v25.13H2846.8Zm135.318,245.022a15.709,15.709,0,0,1-15.692,15.69H2813.866a15.709,15.709,0,0,1-15.692-15.69V869.163a15.709,15.709,0,0,1,15.692-15.691h28.054v12.544a3.911,3.911,0,0,0,3.907,3.907h88.642a3.912,3.912,0,0,0,3.907-3.907V853.472h28.054a15.709,15.709,0,0,1,15.692,15.691ZM2881.555,837.309a8.593,8.593,0,1,1,8.593,8.593A8.593,8.593,0,0,1,2881.555,837.309Zm-15.427,61.641c.02.247.033.5.033.747v26.787a9.117,9.117,0,0,1-9.107,9.107h-26.787a9.118,9.118,0,0,1-9.107-9.107V899.7a9.118,9.118,0,0,1,9.107-9.107h26.787l.117,0-3.866,4.881h-23.038a4.228,4.228,0,0,0-4.223,4.223v26.787a4.228,4.228,0,0,0,4.223,4.223h26.787a4.228,4.228,0,0,0,4.223-4.223V905.073Zm-23.215,23.405L2832.039,909.2a2.442,2.442,0,0,1,3.764-3.111l7.03,8.5,3.433-4.333,18.243-23.027a2.442,2.442,0,0,1,3.828,3.033Zm113.781-22.52h-68.554a2.442,2.442,0,0,1,0-4.884h68.554a2.442,2.442,0,0,1,0,4.884Zm0,15.7h-68.554a2.442,2.442,0,1,1,0-4.884h68.554a2.442,2.442,0,1,1,0,4.884Zm-17.094,15.7h-51.461a2.442,2.442,0,1,1,0-4.884H2939.6a2.442,2.442,0,1,1,0,4.884Zm-73.472,36.314c.02.247.033.5.033.747v26.787a9.118,9.118,0,0,1-9.107,9.107h-26.787a9.118,9.118,0,0,1-9.107-9.107V968.292a9.118,9.118,0,0,1,9.107-9.107h26.787l.117,0-3.866,4.881h-23.038a4.228,4.228,0,0,0-4.223,4.223v26.787a4.228,4.228,0,0,0,4.223,4.223h26.787a4.228,4.228,0,0,0,4.223-4.223V973.668Zm-23.215,23.405-10.875-13.157a2.442,2.442,0,1,1,3.764-3.111l7.03,8.5,21.676-27.361a2.442,2.442,0,0,1,3.828,3.033Zm113.781-22.52h-68.554a2.442,2.442,0,0,1,0-4.884h68.554a2.442,2.442,0,0,1,0,4.884Zm0,15.7h-68.554a2.442,2.442,0,0,1,0-4.884h68.554a2.442,2.442,0,0,1,0,4.884Zm-17.094,15.7h-51.461a2.442,2.442,0,1,1,0-4.884H2939.6a2.442,2.442,0,1,1,0,4.884Zm-73.472,36.314c.02.247.033.5.033.748v26.787a9.118,9.118,0,0,1-9.107,9.107h-26.787a9.118,9.118,0,0,1-9.107-9.107v-26.787a9.118,9.118,0,0,1,9.107-9.107h26.787l.117,0-3.866,4.881h-23.038a4.228,4.228,0,0,0-4.223,4.223v26.787a4.228,4.228,0,0,0,4.223,4.223h26.787a4.228,4.228,0,0,0,4.223-4.223v-21.411Zm-23.215,23.405-10.875-13.156a2.442,2.442,0,1,1,3.764-3.111l7.03,8.5,21.676-27.361a2.442,2.442,0,0,1,3.828,3.033Zm113.781-22.52h-68.554a2.442,2.442,0,0,1,0-4.884h68.554a2.442,2.442,0,0,1,0,4.884Zm0,15.7h-68.554a2.442,2.442,0,1,1,0-4.884h68.554a2.442,2.442,0,1,1,0,4.884Zm-17.094,15.7h-51.461a2.442,2.442,0,0,1,0-4.884H2939.6a2.442,2.442,0,0,1,0,4.884Z" transform="translate(-1786.648 2730.495)" fill="#0b5999"/>
  </g>
</svg>
