<svg xmlns="http://www.w3.org/2000/svg" width="336.578" height="381.579" viewBox="0 0 336.578 381.579">
  <g id="Grupo_897746" data-name="Grupo 897746" transform="translate(-257.234 -5749.21)">
    <g id="Grupo_897731" data-name="Grupo 897731" transform="translate(0 9)">
      <g id="Grupo_897677" data-name="Grupo 897677" transform="translate(257.773 5740.75)">
        <g id="Grupo_140420" data-name="Grupo 140420" transform="translate(0 0)">
          <g id="Rectángulo_293060" data-name="Rectángulo 293060" transform="translate(48.156 31.933)" fill="none" stroke="#ef3c79" stroke-width="5">
            <rect width="248.265" height="305.742" rx="30" stroke="none"/>
            <rect x="2.5" y="2.5" width="243.265" height="300.742" rx="27.5" fill="none"/>
          </g>
          <g id="Grupo_873686" data-name="Grupo 873686" transform="translate(0 0)">
            <path id="Trazado_1" data-name="Trazado 1" d="M52.145-75.2-45.679,22.625q.679,4.2,1.758,8.247L60.392-73.441Q56.343-74.518,52.145-75.2Z" transform="translate(46.793 76.313)" fill="none" stroke="#8f9294" stroke-miterlimit="10" stroke-width="1.078"/>
            <path id="Trazado_2" data-name="Trazado 2" d="M61.118-72.715-43.195,31.6q1.031,3.875,2.4,7.6L68.72-70.312Q65-71.688,61.118-72.715Z" transform="translate(46.067 75.587)" fill="none" stroke="#8f9294" stroke-miterlimit="10" stroke-width="1.078"/>
            <path id="Trazado_3" data-name="Trazado 3" d="M101.085-48.491-18.971,71.565c1.521,1.807,3.109,3.557,4.774,5.232L106.316-43.717C104.642-45.382,102.892-46.97,101.085-48.491Z" transform="translate(38.984 68.504)" fill="none" stroke="#8f9294" stroke-miterlimit="10" stroke-width="1.078"/>
            <path id="Trazado_4" data-name="Trazado 4" d="M93.635-54.647-25.128,64.117q2.066,2.915,4.357,5.648L99.285-50.291Q96.558-52.587,93.635-54.647Z" transform="translate(40.784 70.304)" fill="none" stroke="#8f9294" stroke-miterlimit="10" stroke-width="1.078"/>
            <path id="Trazado_5" data-name="Trazado 5" d="M77.974-65.12-35.6,48.454c1.064,2.233,2.232,4.406,3.479,6.526L84.5-61.641C82.38-62.888,80.208-64.056,77.974-65.12Z" transform="translate(43.846 73.366)" fill="none" stroke="#8f9294" stroke-miterlimit="10" stroke-width="1.078"/>
            <path id="Trazado_6" data-name="Trazado 6" d="M85.938-60.2-30.684,56.419q1.838,3.126,3.932,6.074L92.011-56.271Q89.063-58.361,85.938-60.2Z" transform="translate(42.409 71.928)" fill="none" stroke="#8f9294" stroke-miterlimit="10" stroke-width="1.078"/>
            <path id="Trazado_7" data-name="Trazado 7" d="M69.713-69.319-39.8,40.193q1.33,3.6,2.971,7.034L76.747-66.348Q73.311-67.983,69.713-69.319Z" transform="translate(45.074 74.594)" fill="none" stroke="#8f9294" stroke-miterlimit="10" stroke-width="1.078"/>
            <path id="Trazado_8" data-name="Trazado 8" d="M-38.97-20.181,9.338-68.489A85.457,85.457,0,0,0-38.97-20.181Z" transform="translate(44.831 74.351)" fill="none" stroke="#8f9294" stroke-miterlimit="10" stroke-width="1.078"/>
            <path id="Trazado_9" data-name="Trazado 9" d="M7.608-70.219-40.7-21.911A84.474,84.474,0,0,0-44.885-7.72L21.8-74.4A84.5,84.5,0,0,0,7.608-70.219Z" transform="translate(46.561 76.081)" fill="none" stroke="#8f9294" stroke-miterlimit="10" stroke-width="1.078"/>
            <path id="Trazado_10" data-name="Trazado 10" d="M42.714-76.583-47.064,13.195a85.437,85.437,0,0,0,.98,9.026L51.74-75.6A85.461,85.461,0,0,0,42.714-76.583Z" transform="translate(47.198 76.717)" fill="none" stroke="#8f9294" stroke-miterlimit="10" stroke-width="1.078"/>
            <path id="Trazado_11" data-name="Trazado 11" d="M37.969-76.773c-1.8,0-3.59.075-5.367.185L-47.068,3.083c-.11,1.776-.185,3.562-.185,5.367,0,1.574.05,3.136.134,4.689L42.659-76.639C41.106-76.723,39.543-76.773,37.969-76.773Z" transform="translate(47.253 76.773)" fill="none" stroke="#8f9294" stroke-miterlimit="10" stroke-width="1.078"/>
            <path id="Trazado_12" data-name="Trazado 12" d="M21.184-75.021-45.5-8.336a85.258,85.258,0,0,0-1.49,11.5l79.67-79.671A85.374,85.374,0,0,0,21.184-75.021Z" transform="translate(47.176 76.696)" fill="none" stroke="#8f9294" stroke-miterlimit="10" stroke-width="1.078"/>
            <path id="Trazado_13" data-name="Trazado 13" d="M151.263,23.422,52.941,121.744a85.3,85.3,0,0,0,8.968,1.037L152.3,32.39A85.254,85.254,0,0,0,151.263,23.422Z" transform="translate(17.959 47.479)" fill="none" stroke="#8f9294" stroke-miterlimit="10" stroke-width="1.078"/>
            <path id="Trazado_14" data-name="Trazado 14" d="M156.191,41.449c0-1.8-.075-3.582-.185-5.354L65.614,126.486c1.773.11,3.554.185,5.354.185,1.542,0,3.072-.046,4.593-.127l80.5-80.5C156.145,44.521,156.191,42.99,156.191,41.449Z" transform="translate(14.254 43.774)" fill="none" stroke="#8f9294" stroke-miterlimit="10" stroke-width="1.078"/>
            <path id="Trazado_15" data-name="Trazado 15" d="M160.174,50.152l-80.5,80.5a85.266,85.266,0,0,0,11.4-1.393L158.78,61.55A85.393,85.393,0,0,0,160.174,50.152Z" transform="translate(10.144 39.664)" fill="none" stroke="#8f9294" stroke-miterlimit="10" stroke-width="1.078"/>
            <path id="Trazado_16" data-name="Trazado 16" d="M163.49,66.26,95.779,133.97a84.538,84.538,0,0,0,13.882-3.876l49.953-49.952A84.693,84.693,0,0,0,163.49,66.26Z" transform="translate(5.435 34.954)" fill="none" stroke="#8f9294" stroke-miterlimit="10" stroke-width="1.078"/>
            <path id="Trazado_17" data-name="Trazado 17" d="M165.349,85.877,115.4,135.829A85.463,85.463,0,0,0,165.349,85.877Z" transform="translate(-0.301 29.219)" fill="none" stroke="#8f9294" stroke-miterlimit="10" stroke-width="1.078"/>
            <path id="Trazado_18" data-name="Trazado 18" d="M146.068,11.837,41.357,116.549q4.024,1.1,8.2,1.807l98.322-98.322Q147.171,15.863,146.068,11.837Z" transform="translate(21.346 50.866)" fill="none" stroke="#8f9294" stroke-miterlimit="10" stroke-width="1.078"/>
            <path id="Trazado_19" data-name="Trazado 19" d="M121.95-26.455,3.065,92.43c1.954,1.4,3.964,2.731,6.037,3.968L125.917-20.418C124.681-22.491,123.352-24.5,121.95-26.455Z" transform="translate(32.541 62.061)" fill="none" stroke="#8f9294" stroke-miterlimit="10" stroke-width="1.078"/>
            <path id="Trazado_20" data-name="Trazado 20" d="M115.238-34.388-4.869,85.719q2.712,2.31,5.614,4.391L119.63-28.774Q117.548-31.674,115.238-34.388Z" transform="translate(34.861 64.381)" fill="none" stroke="#8f9294" stroke-miterlimit="10" stroke-width="1.078"/>
            <path id="Trazado_21" data-name="Trazado 21" d="M140.5,1.157,30.676,110.979q3.7,1.4,7.558,2.448L142.946,8.714Q141.893,4.86,140.5,1.157Z" transform="translate(24.469 53.989)" fill="none" stroke="#8f9294" stroke-miterlimit="10" stroke-width="1.078"/>
            <path id="Trazado_22" data-name="Trazado 22" d="M108.288-41.745-12.225,78.769c1.664,1.674,3.408,3.268,5.205,4.8L113.088-36.539C111.556-38.337,109.963-40.081,108.288-41.745Z" transform="translate(37.012 66.532)" fill="none" stroke="#8f9294" stroke-miterlimit="10" stroke-width="1.078"/>
            <path id="Trazado_23" data-name="Trazado 23" d="M134.606-8.746,20.773,105.086c2.279,1.1,4.621,2.1,7.008,3L137.6-1.738C136.7-4.126,135.709-6.467,134.606-8.746Z" transform="translate(27.364 56.884)" fill="none" stroke="#8f9294" stroke-miterlimit="10" stroke-width="1.078"/>
            <path id="Trazado_24" data-name="Trazado 24" d="M128.412-17.923,11.6,98.892c2.109,1.258,4.271,2.436,6.493,3.511L131.923-11.429C130.847-13.652,129.669-15.814,128.412-17.923Z" transform="translate(30.047 59.567)" fill="none" stroke="#8f9294" stroke-miterlimit="10" stroke-width="1.078"/>
          </g>
          <g id="Grupo_873687" data-name="Grupo 873687" transform="translate(165.022 201.982)">
            <g id="Grupo_68" data-name="Grupo 68" transform="translate(75.174 0)">
              <g id="Grupo_67" data-name="Grupo 67" transform="translate(0)">
                <rect id="Rectángulo_193" data-name="Rectángulo 193" width="3.006" height="3.006" transform="translate(91.592 93.718) rotate(-44.999)" fill="#8f9294"/>
                <rect id="Rectángulo_194" data-name="Rectángulo 194" width="2.853" height="2.853" transform="translate(83.266 85.283) rotate(-45)" fill="#8f9294"/>
                <rect id="Rectángulo_195" data-name="Rectángulo 195" width="2.7" height="2.7" transform="translate(74.939 76.848) rotate(-45)" fill="#8f9294"/>
                <rect id="Rectángulo_196" data-name="Rectángulo 196" width="2.547" height="2.547" transform="matrix(0.707, -0.707, 0.707, 0.707, 66.613, 68.414)" fill="#8f9294"/>
                <rect id="Rectángulo_197" data-name="Rectángulo 197" width="2.394" height="2.394" transform="translate(58.286 59.979) rotate(-45)" fill="#8f9294"/>
                <rect id="Rectángulo_198" data-name="Rectángulo 198" width="2.241" height="2.241" transform="matrix(0.707, -0.707, 0.707, 0.707, 49.959, 51.544)" fill="#8f9294"/>
                <rect id="Rectángulo_199" data-name="Rectángulo 199" width="2.088" height="2.088" transform="translate(41.633 43.109) rotate(-45)" fill="#8f9294"/>
                <rect id="Rectángulo_200" data-name="Rectángulo 200" width="1.935" height="1.935" transform="translate(33.306 34.674) rotate(-45.001)" fill="#8f9294"/>
                <rect id="Rectángulo_201" data-name="Rectángulo 201" width="1.782" height="1.782" transform="translate(24.98 26.239) rotate(-45)" fill="#8f9294"/>
                <rect id="Rectángulo_202" data-name="Rectángulo 202" width="1.629" height="1.629" transform="matrix(0.707, -0.707, 0.707, 0.707, 16.653, 17.805)" fill="#8f9294"/>
                <rect id="Rectángulo_203" data-name="Rectángulo 203" width="1.475" height="1.475" transform="translate(8.327 9.37) rotate(-45)" fill="#8f9294"/>
                <rect id="Rectángulo_204" data-name="Rectángulo 204" width="1.322" height="1.322" transform="matrix(0.707, -0.707, 0.707, 0.707, 0, 0.935)" fill="#8f9294"/>
              </g>
            </g>
            <g id="Grupo_70" data-name="Grupo 70" transform="translate(68.34 6.834)">
              <g id="Grupo_69" data-name="Grupo 69" transform="translate(0 0)">
                <rect id="Rectángulo_205" data-name="Rectángulo 205" width="3.006" height="3.006" transform="translate(91.592 93.718) rotate(-44.999)" fill="#8f9294"/>
                <rect id="Rectángulo_206" data-name="Rectángulo 206" width="2.853" height="2.853" transform="translate(83.266 85.283) rotate(-45)" fill="#8f9294"/>
                <rect id="Rectángulo_207" data-name="Rectángulo 207" width="2.7" height="2.7" transform="translate(74.939 76.848) rotate(-44.999)" fill="#8f9294"/>
                <rect id="Rectángulo_208" data-name="Rectángulo 208" width="2.547" height="2.547" transform="translate(66.613 68.414) rotate(-45)" fill="#8f9294"/>
                <rect id="Rectángulo_209" data-name="Rectángulo 209" width="2.394" height="2.394" transform="translate(58.286 59.979) rotate(-45)" fill="#8f9294"/>
                <rect id="Rectángulo_210" data-name="Rectángulo 210" width="2.241" height="2.241" transform="translate(49.959 51.544) rotate(-45)" fill="#8f9294"/>
                <rect id="Rectángulo_211" data-name="Rectángulo 211" width="2.088" height="2.088" transform="translate(41.633 43.109) rotate(-45)" fill="#8f9294"/>
                <rect id="Rectángulo_212" data-name="Rectángulo 212" width="1.935" height="1.935" transform="translate(33.306 34.674) rotate(-45)" fill="#8f9294"/>
                <rect id="Rectángulo_213" data-name="Rectángulo 213" width="1.782" height="1.782" transform="translate(24.98 26.24) rotate(-45)" fill="#8f9294"/>
                <rect id="Rectángulo_214" data-name="Rectángulo 214" width="1.629" height="1.629" transform="translate(16.653 17.805) rotate(-45)" fill="#8f9294"/>
                <rect id="Rectángulo_215" data-name="Rectángulo 215" width="1.475" height="1.475" transform="translate(8.327 9.37) rotate(-45)" fill="#8f9294"/>
                <rect id="Rectángulo_216" data-name="Rectángulo 216" width="1.322" height="1.322" transform="matrix(0.707, -0.707, 0.707, 0.707, 0, 0.935)" fill="#8f9294"/>
              </g>
            </g>
            <g id="Grupo_72" data-name="Grupo 72" transform="translate(61.506 13.668)">
              <g id="Grupo_71" data-name="Grupo 71" transform="translate(0 0)">
                <rect id="Rectángulo_217" data-name="Rectángulo 217" width="3.006" height="3.006" transform="translate(91.592 93.718) rotate(-44.999)" fill="#8f9294"/>
                <rect id="Rectángulo_218" data-name="Rectángulo 218" width="2.853" height="2.853" transform="translate(83.266 85.283) rotate(-44.999)" fill="#8f9294"/>
                <rect id="Rectángulo_219" data-name="Rectángulo 219" width="2.7" height="2.7" transform="translate(74.939 76.848) rotate(-44.999)" fill="#8f9294"/>
                <rect id="Rectángulo_220" data-name="Rectángulo 220" width="2.547" height="2.547" transform="matrix(0.707, -0.707, 0.707, 0.707, 66.613, 68.413)" fill="#8f9294"/>
                <rect id="Rectángulo_221" data-name="Rectángulo 221" width="2.394" height="2.394" transform="translate(58.286 59.979) rotate(-44.999)" fill="#8f9294"/>
                <rect id="Rectángulo_222" data-name="Rectángulo 222" width="2.241" height="2.241" transform="matrix(0.707, -0.707, 0.707, 0.707, 49.959, 51.544)" fill="#8f9294"/>
                <rect id="Rectángulo_223" data-name="Rectángulo 223" width="2.088" height="2.088" transform="matrix(0.707, -0.707, 0.707, 0.707, 41.633, 43.109)" fill="#8f9294"/>
                <rect id="Rectángulo_224" data-name="Rectángulo 224" width="1.935" height="1.935" transform="translate(33.306 34.674) rotate(-44.999)" fill="#8f9294"/>
                <rect id="Rectángulo_225" data-name="Rectángulo 225" width="1.782" height="1.782" transform="translate(24.98 26.24) rotate(-45)" fill="#8f9294"/>
                <rect id="Rectángulo_226" data-name="Rectángulo 226" width="1.629" height="1.629" transform="translate(16.653 17.805) rotate(-44.998)" fill="#8f9294"/>
                <rect id="Rectángulo_227" data-name="Rectángulo 227" width="1.475" height="1.475" transform="translate(8.327 9.37) rotate(-45)" fill="#8f9294"/>
                <rect id="Rectángulo_228" data-name="Rectángulo 228" width="1.322" height="1.322" transform="matrix(0.707, -0.707, 0.707, 0.707, 0, 0.935)" fill="#8f9294"/>
              </g>
            </g>
            <g id="Grupo_74" data-name="Grupo 74" transform="translate(54.672 20.502)">
              <g id="Grupo_73" data-name="Grupo 73" transform="translate(0 0)">
                <rect id="Rectángulo_229" data-name="Rectángulo 229" width="3.006" height="3.006" transform="translate(91.592 93.718) rotate(-45.001)" fill="#8f9294"/>
                <rect id="Rectángulo_230" data-name="Rectángulo 230" width="2.853" height="2.853" transform="translate(83.266 85.283) rotate(-45.001)" fill="#8f9294"/>
                <rect id="Rectángulo_231" data-name="Rectángulo 231" width="2.7" height="2.7" transform="translate(74.939 76.848) rotate(-45)" fill="#8f9294"/>
                <rect id="Rectángulo_232" data-name="Rectángulo 232" width="2.547" height="2.547" transform="matrix(0.707, -0.707, 0.707, 0.707, 66.613, 68.414)" fill="#8f9294"/>
                <rect id="Rectángulo_233" data-name="Rectángulo 233" width="2.394" height="2.394" transform="translate(58.286 59.979) rotate(-45)" fill="#8f9294"/>
                <rect id="Rectángulo_234" data-name="Rectángulo 234" width="2.241" height="2.241" transform="matrix(0.707, -0.707, 0.707, 0.707, 49.959, 51.544)" fill="#8f9294"/>
                <rect id="Rectángulo_235" data-name="Rectángulo 235" width="2.088" height="2.088" transform="translate(41.633 43.109) rotate(-45)" fill="#8f9294"/>
                <rect id="Rectángulo_236" data-name="Rectángulo 236" width="1.935" height="1.935" transform="translate(33.306 34.674) rotate(-45.001)" fill="#8f9294"/>
                <rect id="Rectángulo_237" data-name="Rectángulo 237" width="1.782" height="1.782" transform="translate(24.98 26.239) rotate(-45)" fill="#8f9294"/>
                <rect id="Rectángulo_238" data-name="Rectángulo 238" width="1.629" height="1.629" transform="translate(16.653 17.805) rotate(-45)" fill="#8f9294"/>
                <rect id="Rectángulo_239" data-name="Rectángulo 239" width="1.475" height="1.475" transform="translate(8.327 9.37) rotate(-45)" fill="#8f9294"/>
                <rect id="Rectángulo_240" data-name="Rectángulo 240" width="1.322" height="1.322" transform="translate(0 0.935) rotate(-44.998)" fill="#8f9294"/>
              </g>
            </g>
            <g id="Grupo_76" data-name="Grupo 76" transform="translate(47.838 27.336)">
              <g id="Grupo_75" data-name="Grupo 75" transform="translate(0 0)">
                <rect id="Rectángulo_241" data-name="Rectángulo 241" width="3.006" height="3.006" transform="translate(91.592 93.718) rotate(-45.001)" fill="#8f9294"/>
                <rect id="Rectángulo_242" data-name="Rectángulo 242" width="2.853" height="2.853" transform="translate(83.266 85.283) rotate(-45.001)" fill="#8f9294"/>
                <rect id="Rectángulo_243" data-name="Rectángulo 243" width="2.7" height="2.7" transform="translate(74.939 76.848) rotate(-45)" fill="#8f9294"/>
                <rect id="Rectángulo_244" data-name="Rectángulo 244" width="2.547" height="2.547" transform="matrix(0.707, -0.707, 0.707, 0.707, 66.613, 68.413)" fill="#8f9294"/>
                <rect id="Rectángulo_245" data-name="Rectángulo 245" width="2.394" height="2.394" transform="translate(58.286 59.979) rotate(-45)" fill="#8f9294"/>
                <rect id="Rectángulo_246" data-name="Rectángulo 246" width="2.241" height="2.241" transform="translate(49.959 51.544) rotate(-45.001)" fill="#8f9294"/>
                <rect id="Rectángulo_247" data-name="Rectángulo 247" width="2.088" height="2.088" transform="translate(41.633 43.109) rotate(-45)" fill="#8f9294"/>
                <rect id="Rectángulo_248" data-name="Rectángulo 248" width="1.935" height="1.935" transform="translate(33.306 34.674) rotate(-45.001)" fill="#8f9294"/>
                <rect id="Rectángulo_249" data-name="Rectángulo 249" width="1.782" height="1.782" transform="translate(24.98 26.239) rotate(-45)" fill="#8f9294"/>
                <rect id="Rectángulo_250" data-name="Rectángulo 250" width="1.629" height="1.629" transform="matrix(0.707, -0.707, 0.707, 0.707, 16.653, 17.805)" fill="#8f9294"/>
                <rect id="Rectángulo_251" data-name="Rectángulo 251" width="1.475" height="1.475" transform="translate(8.327 9.37) rotate(-45)" fill="#8f9294"/>
                <rect id="Rectángulo_252" data-name="Rectángulo 252" width="1.322" height="1.322" transform="matrix(0.707, -0.707, 0.707, 0.707, 0, 0.935)" fill="#8f9294"/>
              </g>
            </g>
            <g id="Grupo_78" data-name="Grupo 78" transform="translate(41.004 34.17)">
              <g id="Grupo_77" data-name="Grupo 77" transform="translate(0 0)">
                <rect id="Rectángulo_253" data-name="Rectángulo 253" width="3.006" height="3.006" transform="translate(91.592 93.718) rotate(-45)" fill="#8f9294"/>
                <rect id="Rectángulo_254" data-name="Rectángulo 254" width="2.853" height="2.853" transform="translate(83.266 85.283) rotate(-45)" fill="#8f9294"/>
                <rect id="Rectángulo_255" data-name="Rectángulo 255" width="2.7" height="2.7" transform="translate(74.939 76.848) rotate(-45.001)" fill="#8f9294"/>
                <rect id="Rectángulo_256" data-name="Rectángulo 256" width="2.547" height="2.547" transform="matrix(0.707, -0.707, 0.707, 0.707, 66.613, 68.413)" fill="#8f9294"/>
                <rect id="Rectángulo_257" data-name="Rectángulo 257" width="2.394" height="2.394" transform="matrix(0.707, -0.707, 0.707, 0.707, 58.286, 59.979)" fill="#8f9294"/>
                <rect id="Rectángulo_258" data-name="Rectángulo 258" width="2.241" height="2.241" transform="matrix(0.707, -0.707, 0.707, 0.707, 49.959, 51.544)" fill="#8f9294"/>
                <rect id="Rectángulo_259" data-name="Rectángulo 259" width="2.088" height="2.088" transform="translate(41.633 43.109) rotate(-45)" fill="#8f9294"/>
                <rect id="Rectángulo_260" data-name="Rectángulo 260" width="1.935" height="1.935" transform="translate(33.306 34.674) rotate(-45.001)" fill="#8f9294"/>
                <rect id="Rectángulo_261" data-name="Rectángulo 261" width="1.782" height="1.782" transform="translate(24.98 26.239) rotate(-45)" fill="#8f9294"/>
                <rect id="Rectángulo_262" data-name="Rectángulo 262" width="1.629" height="1.629" transform="matrix(0.707, -0.707, 0.707, 0.707, 16.653, 17.805)" fill="#8f9294"/>
                <rect id="Rectángulo_263" data-name="Rectángulo 263" width="1.475" height="1.475" transform="translate(8.327 9.37) rotate(-45)" fill="#8f9294"/>
                <rect id="Rectángulo_264" data-name="Rectángulo 264" width="1.322" height="1.322" transform="matrix(0.707, -0.707, 0.707, 0.707, 0, 0.935)" fill="#8f9294"/>
              </g>
            </g>
            <g id="Grupo_80" data-name="Grupo 80" transform="translate(34.17 41.004)">
              <g id="Grupo_79" data-name="Grupo 79" transform="translate(0 0)">
                <rect id="Rectángulo_265" data-name="Rectángulo 265" width="3.006" height="3.006" transform="translate(91.592 93.718) rotate(-44.999)" fill="#8f9294"/>
                <rect id="Rectángulo_266" data-name="Rectángulo 266" width="2.853" height="2.853" transform="translate(83.266 85.283) rotate(-45)" fill="#8f9294"/>
                <rect id="Rectángulo_267" data-name="Rectángulo 267" width="2.7" height="2.7" transform="translate(74.939 76.848) rotate(-44.999)" fill="#8f9294"/>
                <rect id="Rectángulo_268" data-name="Rectángulo 268" width="2.547" height="2.547" transform="translate(66.613 68.413) rotate(-45)" fill="#8f9294"/>
                <rect id="Rectángulo_269" data-name="Rectángulo 269" width="2.394" height="2.394" transform="translate(58.286 59.979) rotate(-44.999)" fill="#8f9294"/>
                <rect id="Rectángulo_270" data-name="Rectángulo 270" width="2.241" height="2.241" transform="matrix(0.707, -0.707, 0.707, 0.707, 49.959, 51.544)" fill="#8f9294"/>
                <rect id="Rectángulo_271" data-name="Rectángulo 271" width="2.088" height="2.088" transform="matrix(0.707, -0.707, 0.707, 0.707, 41.633, 43.109)" fill="#8f9294"/>
                <rect id="Rectángulo_272" data-name="Rectángulo 272" width="1.935" height="1.935" transform="translate(33.306 34.674) rotate(-45.001)" fill="#8f9294"/>
                <rect id="Rectángulo_273" data-name="Rectángulo 273" width="1.782" height="1.782" transform="translate(24.98 26.239) rotate(-45)" fill="#8f9294"/>
                <rect id="Rectángulo_274" data-name="Rectángulo 274" width="1.629" height="1.629" transform="translate(16.653 17.805) rotate(-45.002)" fill="#8f9294"/>
                <rect id="Rectángulo_275" data-name="Rectángulo 275" width="1.475" height="1.475" transform="translate(8.326 9.37) rotate(-45)" fill="#8f9294"/>
                <rect id="Rectángulo_276" data-name="Rectángulo 276" width="1.322" height="1.322" transform="matrix(0.707, -0.707, 0.707, 0.707, 0, 0.935)" fill="#8f9294"/>
              </g>
            </g>
            <g id="Grupo_82" data-name="Grupo 82" transform="translate(27.336 47.838)">
              <g id="Grupo_81" data-name="Grupo 81" transform="translate(0 0)">
                <rect id="Rectángulo_277" data-name="Rectángulo 277" width="3.006" height="3.006" transform="translate(91.592 93.718) rotate(-44.999)" fill="#8f9294"/>
                <rect id="Rectángulo_278" data-name="Rectángulo 278" width="2.853" height="2.853" transform="translate(83.266 85.283) rotate(-45)" fill="#8f9294"/>
                <rect id="Rectángulo_279" data-name="Rectángulo 279" width="2.7" height="2.7" transform="translate(74.939 76.848) rotate(-44.999)" fill="#8f9294"/>
                <rect id="Rectángulo_280" data-name="Rectángulo 280" width="2.547" height="2.547" transform="translate(66.613 68.413) rotate(-45)" fill="#8f9294"/>
                <rect id="Rectángulo_281" data-name="Rectángulo 281" width="2.394" height="2.394" transform="translate(58.286 59.979) rotate(-44.999)" fill="#8f9294"/>
                <rect id="Rectángulo_282" data-name="Rectángulo 282" width="2.241" height="2.241" transform="translate(49.959 51.544) rotate(-45)" fill="#8f9294"/>
                <rect id="Rectángulo_283" data-name="Rectángulo 283" width="2.088" height="2.088" transform="matrix(0.707, -0.707, 0.707, 0.707, 41.633, 43.109)" fill="#8f9294"/>
                <rect id="Rectángulo_284" data-name="Rectángulo 284" width="1.935" height="1.935" transform="translate(33.306 34.674) rotate(-45)" fill="#8f9294"/>
                <rect id="Rectángulo_285" data-name="Rectángulo 285" width="1.782" height="1.782" transform="translate(24.98 26.239) rotate(-45)" fill="#8f9294"/>
                <rect id="Rectángulo_286" data-name="Rectángulo 286" width="1.629" height="1.629" transform="translate(16.653 17.805) rotate(-45)" fill="#8f9294"/>
                <rect id="Rectángulo_287" data-name="Rectángulo 287" width="1.475" height="1.475" transform="translate(8.327 9.37) rotate(-45)" fill="#8f9294"/>
                <rect id="Rectángulo_288" data-name="Rectángulo 288" width="1.322" height="1.322" transform="matrix(0.707, -0.707, 0.707, 0.707, 0, 0.935)" fill="#8f9294"/>
              </g>
            </g>
            <g id="Grupo_84" data-name="Grupo 84" transform="translate(20.502 54.672)">
              <g id="Grupo_83" data-name="Grupo 83" transform="translate(0 0)">
                <rect id="Rectángulo_289" data-name="Rectángulo 289" width="3.006" height="3.006" transform="translate(91.592 93.718) rotate(-44.999)" fill="#8f9294"/>
                <rect id="Rectángulo_290" data-name="Rectángulo 290" width="2.853" height="2.853" transform="translate(83.266 85.283) rotate(-44.999)" fill="#8f9294"/>
                <rect id="Rectángulo_291" data-name="Rectángulo 291" width="2.7" height="2.7" transform="translate(74.939 76.848) rotate(-44.999)" fill="#8f9294"/>
                <rect id="Rectángulo_292" data-name="Rectángulo 292" width="2.547" height="2.547" transform="matrix(0.707, -0.707, 0.707, 0.707, 66.613, 68.413)" fill="#8f9294"/>
                <rect id="Rectángulo_293" data-name="Rectángulo 293" width="2.394" height="2.394" transform="translate(58.286 59.979) rotate(-44.999)" fill="#8f9294"/>
                <rect id="Rectángulo_294" data-name="Rectángulo 294" width="2.241" height="2.241" transform="matrix(0.707, -0.707, 0.707, 0.707, 49.959, 51.544)" fill="#8f9294"/>
                <rect id="Rectángulo_295" data-name="Rectángulo 295" width="2.088" height="2.088" transform="matrix(0.707, -0.707, 0.707, 0.707, 41.633, 43.109)" fill="#8f9294"/>
                <rect id="Rectángulo_296" data-name="Rectángulo 296" width="1.935" height="1.935" transform="translate(33.306 34.674) rotate(-44.999)" fill="#8f9294"/>
                <rect id="Rectángulo_297" data-name="Rectángulo 297" width="1.782" height="1.782" transform="matrix(0.707, -0.707, 0.707, 0.707, 24.98, 26.239)" fill="#8f9294"/>
                <rect id="Rectángulo_298" data-name="Rectángulo 298" width="1.629" height="1.629" transform="translate(16.653 17.805) rotate(-44.998)" fill="#8f9294"/>
                <rect id="Rectángulo_299" data-name="Rectángulo 299" width="1.475" height="1.475" transform="translate(8.327 9.37) rotate(-44.998)" fill="#8f9294"/>
                <rect id="Rectángulo_300" data-name="Rectángulo 300" width="1.322" height="1.322" transform="translate(0 0.935) rotate(-44.998)" fill="#8f9294"/>
              </g>
            </g>
            <g id="Grupo_86" data-name="Grupo 86" transform="translate(13.668 61.506)">
              <g id="Grupo_85" data-name="Grupo 85" transform="translate(0 0)">
                <rect id="Rectángulo_301" data-name="Rectángulo 301" width="3.006" height="3.006" transform="matrix(0.707, -0.707, 0.707, 0.707, 91.592, 93.718)" fill="#8f9294"/>
                <rect id="Rectángulo_302" data-name="Rectángulo 302" width="2.853" height="2.853" transform="translate(83.266 85.283) rotate(-45.001)" fill="#8f9294"/>
                <rect id="Rectángulo_303" data-name="Rectángulo 303" width="2.7" height="2.7" transform="translate(74.939 76.848) rotate(-45.001)" fill="#8f9294"/>
                <rect id="Rectángulo_304" data-name="Rectángulo 304" width="2.547" height="2.547" transform="matrix(0.707, -0.707, 0.707, 0.707, 66.613, 68.414)" fill="#8f9294"/>
                <rect id="Rectángulo_305" data-name="Rectángulo 305" width="2.394" height="2.394" transform="translate(58.286 59.979) rotate(-45)" fill="#8f9294"/>
                <rect id="Rectángulo_306" data-name="Rectángulo 306" width="2.241" height="2.241" transform="translate(49.959 51.544) rotate(-45.001)" fill="#8f9294"/>
                <rect id="Rectángulo_307" data-name="Rectángulo 307" width="2.088" height="2.088" transform="translate(41.633 43.109) rotate(-45)" fill="#8f9294"/>
                <rect id="Rectángulo_308" data-name="Rectángulo 308" width="1.935" height="1.935" transform="translate(33.306 34.674) rotate(-45.001)" fill="#8f9294"/>
                <rect id="Rectángulo_309" data-name="Rectángulo 309" width="1.782" height="1.782" transform="translate(24.98 26.24) rotate(-45)" fill="#8f9294"/>
                <rect id="Rectángulo_310" data-name="Rectángulo 310" width="1.629" height="1.629" transform="translate(16.653 17.805) rotate(-45)" fill="#8f9294"/>
                <rect id="Rectángulo_311" data-name="Rectángulo 311" width="1.475" height="1.475" transform="translate(8.327 9.37) rotate(-45)" fill="#8f9294"/>
                <rect id="Rectángulo_312" data-name="Rectángulo 312" width="1.322" height="1.322" transform="translate(0 0.935) rotate(-45)" fill="#8f9294"/>
              </g>
            </g>
            <g id="Grupo_88" data-name="Grupo 88" transform="translate(6.834 68.34)">
              <g id="Grupo_87" data-name="Grupo 87" transform="translate(0 0)">
                <rect id="Rectángulo_313" data-name="Rectángulo 313" width="3.006" height="3.006" transform="translate(91.592 93.718) rotate(-45)" fill="#8f9294"/>
                <rect id="Rectángulo_314" data-name="Rectángulo 314" width="2.853" height="2.853" transform="translate(83.266 85.283) rotate(-45)" fill="#8f9294"/>
                <rect id="Rectángulo_315" data-name="Rectángulo 315" width="2.7" height="2.7" transform="translate(74.939 76.848) rotate(-45)" fill="#8f9294"/>
                <rect id="Rectángulo_316" data-name="Rectángulo 316" width="2.547" height="2.547" transform="matrix(0.707, -0.707, 0.707, 0.707, 66.613, 68.414)" fill="#8f9294"/>
                <rect id="Rectángulo_317" data-name="Rectángulo 317" width="2.394" height="2.394" transform="translate(58.286 59.979) rotate(-45.001)" fill="#8f9294"/>
                <rect id="Rectángulo_318" data-name="Rectángulo 318" width="2.241" height="2.241" transform="matrix(0.707, -0.707, 0.707, 0.707, 49.959, 51.544)" fill="#8f9294"/>
                <rect id="Rectángulo_319" data-name="Rectángulo 319" width="2.088" height="2.088" transform="translate(41.633 43.109) rotate(-45)" fill="#8f9294"/>
                <rect id="Rectángulo_320" data-name="Rectángulo 320" width="1.935" height="1.935" transform="translate(33.306 34.674) rotate(-45.001)" fill="#8f9294"/>
                <rect id="Rectángulo_321" data-name="Rectángulo 321" width="1.782" height="1.782" transform="translate(24.98 26.239) rotate(-45)" fill="#8f9294"/>
                <rect id="Rectángulo_322" data-name="Rectángulo 322" width="1.629" height="1.629" transform="matrix(0.707, -0.707, 0.707, 0.707, 16.653, 17.805)" fill="#8f9294"/>
                <rect id="Rectángulo_323" data-name="Rectángulo 323" width="1.475" height="1.475" transform="translate(8.327 9.37) rotate(-45)" fill="#8f9294"/>
                <rect id="Rectángulo_324" data-name="Rectángulo 324" width="1.322" height="1.322" transform="matrix(0.707, -0.707, 0.707, 0.707, 0, 0.935)" fill="#8f9294"/>
              </g>
            </g>
            <g id="Grupo_90" data-name="Grupo 90" transform="translate(0 75.174)">
              <g id="Grupo_89" data-name="Grupo 89" transform="translate(0 0)">
                <rect id="Rectángulo_325" data-name="Rectángulo 325" width="3.006" height="3.006" transform="translate(91.592 93.718) rotate(-45)" fill="#8f9294"/>
                <rect id="Rectángulo_326" data-name="Rectángulo 326" width="2.853" height="2.853" transform="translate(83.266 85.283) rotate(-45)" fill="#8f9294"/>
                <rect id="Rectángulo_327" data-name="Rectángulo 327" width="2.7" height="2.7" transform="translate(74.939 76.848) rotate(-45)" fill="#8f9294"/>
                <rect id="Rectángulo_328" data-name="Rectángulo 328" width="2.547" height="2.547" transform="translate(66.613 68.413) rotate(-45)" fill="#8f9294"/>
                <rect id="Rectángulo_329" data-name="Rectángulo 329" width="2.394" height="2.394" transform="translate(58.286 59.979) rotate(-45)" fill="#8f9294"/>
                <rect id="Rectángulo_330" data-name="Rectángulo 330" width="2.241" height="2.241" transform="translate(49.959 51.544) rotate(-45)" fill="#8f9294"/>
                <rect id="Rectángulo_331" data-name="Rectángulo 331" width="2.088" height="2.088" transform="matrix(0.707, -0.707, 0.707, 0.707, 41.633, 43.109)" fill="#8f9294"/>
                <rect id="Rectángulo_332" data-name="Rectángulo 332" width="1.935" height="1.935" transform="translate(33.306 34.674) rotate(-45.001)" fill="#8f9294"/>
                <rect id="Rectángulo_333" data-name="Rectángulo 333" width="1.782" height="1.782" transform="translate(24.98 26.239) rotate(-45.002)" fill="#8f9294"/>
                <rect id="Rectángulo_334" data-name="Rectángulo 334" width="1.629" height="1.629" transform="translate(16.653 17.805) rotate(-45.002)" fill="#8f9294"/>
                <rect id="Rectángulo_335" data-name="Rectángulo 335" width="1.475" height="1.475" transform="matrix(0.707, -0.707, 0.707, 0.707, 8.327, 9.37)" fill="#8f9294"/>
                <rect id="Rectángulo_336" data-name="Rectángulo 336" width="1.322" height="1.322" transform="matrix(0.707, -0.707, 0.707, 0.707, 0, 0.935)" fill="#8f9294"/>
              </g>
            </g>
          </g>
          <ellipse id="Elipse_4760" data-name="Elipse 4760" cx="143.291" cy="143.291" rx="143.291" ry="143.291" transform="translate(3.453 54.285)" fill="#21cbae"/>
          <g id="Grupo_873688" data-name="Grupo 873688" transform="translate(69.804 56.302)">
            <path id="Trazado_34" data-name="Trazado 34" d="M694.325,390.082l-7.008,12.138h14.015Z" transform="translate(-687.318 -288.076)" fill="#fdfdfd"/>
            <path id="Trazado_35" data-name="Trazado 35" d="M694.325,361.354l-7.008,12.138h14.015Z" transform="translate(-687.318 -279.677)" fill="#fdfdfd"/>
            <path id="Trazado_36" data-name="Trazado 36" d="M694.325,332.626l-7.008,12.138h14.015Z" transform="translate(-687.318 -271.278)" fill="#fdfdfd"/>
            <path id="Trazado_37" data-name="Trazado 37" d="M695.541,245.931l-4.065,7.041h8.131Z" transform="translate(-688.533 -245.931)" fill="#f13b76"/>
          </g>
        </g>
        <g id="Grupo_140419" data-name="Grupo 140419" transform="translate(0 277.004)">
          <g id="Grupo_4" data-name="Grupo 4" transform="translate(0)">
            <rect id="Rectángulo_4" data-name="Rectángulo 4" width="3.006" height="3.006" fill="none" stroke="#fecb27" stroke-miterlimit="10" stroke-width="1.078"/>
            <rect id="Rectángulo_5" data-name="Rectángulo 5" width="3.006" height="3.006" transform="translate(22.975)" fill="none" stroke="#fecb27" stroke-miterlimit="10" stroke-width="1.078"/>
            <rect id="Rectángulo_6" data-name="Rectángulo 6" width="3.006" height="3.006" transform="translate(45.951)" fill="none" stroke="#fecb27" stroke-miterlimit="10" stroke-width="1.078"/>
            <rect id="Rectángulo_7" data-name="Rectángulo 7" width="3.006" height="3.006" transform="translate(68.926)" fill="none" stroke="#fecb27" stroke-miterlimit="10" stroke-width="1.078"/>
            <rect id="Rectángulo_8" data-name="Rectángulo 8" width="3.006" height="3.006" transform="translate(91.902)" fill="none" stroke="#fecb27" stroke-miterlimit="10" stroke-width="1.078"/>
            <rect id="Rectángulo_9" data-name="Rectángulo 9" width="3.006" height="3.006" transform="translate(114.877)" fill="none" stroke="#fecb27" stroke-miterlimit="10" stroke-width="1.078"/>
          </g>
          <g id="Grupo_5" data-name="Grupo 5" transform="translate(0 16.748)">
            <rect id="Rectángulo_10" data-name="Rectángulo 10" width="3.006" height="3.006" fill="none" stroke="#fecb27" stroke-miterlimit="10" stroke-width="1.078"/>
            <rect id="Rectángulo_11" data-name="Rectángulo 11" width="3.006" height="3.006" transform="translate(22.975)" fill="none" stroke="#fecb27" stroke-miterlimit="10" stroke-width="1.078"/>
            <rect id="Rectángulo_12" data-name="Rectángulo 12" width="3.006" height="3.006" transform="translate(45.951)" fill="none" stroke="#fecb27" stroke-miterlimit="10" stroke-width="1.078"/>
            <rect id="Rectángulo_13" data-name="Rectángulo 13" width="3.006" height="3.006" transform="translate(68.926)" fill="none" stroke="#fecb27" stroke-miterlimit="10" stroke-width="1.078"/>
            <rect id="Rectángulo_14" data-name="Rectángulo 14" width="3.006" height="3.006" transform="translate(91.902)" fill="none" stroke="#fecb27" stroke-miterlimit="10" stroke-width="1.078"/>
            <rect id="Rectángulo_15" data-name="Rectángulo 15" width="3.006" height="3.006" transform="translate(114.877)" fill="none" stroke="#fecb27" stroke-miterlimit="10" stroke-width="1.078"/>
          </g>
          <g id="Grupo_6" data-name="Grupo 6" transform="translate(0 33.497)">
            <rect id="Rectángulo_16" data-name="Rectángulo 16" width="3.006" height="3.006" fill="none" stroke="#fecb27" stroke-miterlimit="10" stroke-width="1.078"/>
            <rect id="Rectángulo_17" data-name="Rectángulo 17" width="3.006" height="3.006" transform="translate(22.975)" fill="none" stroke="#fecb27" stroke-miterlimit="10" stroke-width="1.078"/>
            <rect id="Rectángulo_18" data-name="Rectángulo 18" width="3.006" height="3.006" transform="translate(45.951)" fill="none" stroke="#fecb27" stroke-miterlimit="10" stroke-width="1.078"/>
            <rect id="Rectángulo_19" data-name="Rectángulo 19" width="3.006" height="3.006" transform="translate(68.926)" fill="none" stroke="#fecb27" stroke-miterlimit="10" stroke-width="1.078"/>
            <rect id="Rectángulo_20" data-name="Rectángulo 20" width="3.006" height="3.006" transform="translate(91.902)" fill="none" stroke="#fecb27" stroke-miterlimit="10" stroke-width="1.078"/>
            <rect id="Rectángulo_21" data-name="Rectángulo 21" width="3.006" height="3.006" transform="translate(114.877)" fill="none" stroke="#fecb27" stroke-miterlimit="10" stroke-width="1.078"/>
          </g>
          <g id="Grupo_7" data-name="Grupo 7" transform="translate(0 50.245)">
            <rect id="Rectángulo_22" data-name="Rectángulo 22" width="3.006" height="3.006" fill="none" stroke="#fecb27" stroke-miterlimit="10" stroke-width="1.078"/>
            <rect id="Rectángulo_23" data-name="Rectángulo 23" width="3.006" height="3.006" transform="translate(22.975)" fill="none" stroke="#fecb27" stroke-miterlimit="10" stroke-width="1.078"/>
            <rect id="Rectángulo_24" data-name="Rectángulo 24" width="3.006" height="3.006" transform="translate(45.951)" fill="none" stroke="#fecb27" stroke-miterlimit="10" stroke-width="1.078"/>
            <rect id="Rectángulo_25" data-name="Rectángulo 25" width="3.006" height="3.006" transform="translate(68.926)" fill="none" stroke="#fecb27" stroke-miterlimit="10" stroke-width="1.078"/>
            <rect id="Rectángulo_26" data-name="Rectángulo 26" width="3.006" height="3.006" transform="translate(91.902)" fill="none" stroke="#fecb27" stroke-miterlimit="10" stroke-width="1.078"/>
            <rect id="Rectángulo_27" data-name="Rectángulo 27" width="3.006" height="3.006" transform="translate(114.877)" fill="none" stroke="#fecb27" stroke-miterlimit="10" stroke-width="1.078"/>
          </g>
          <g id="Grupo_8" data-name="Grupo 8" transform="translate(0 66.994)">
            <rect id="Rectángulo_28" data-name="Rectángulo 28" width="3.006" height="3.006" fill="none" stroke="#fecb27" stroke-miterlimit="10" stroke-width="1.078"/>
            <rect id="Rectángulo_29" data-name="Rectángulo 29" width="3.006" height="3.006" transform="translate(22.975)" fill="none" stroke="#fecb27" stroke-width="1"/>
            <rect id="Rectángulo_30" data-name="Rectángulo 30" width="3.006" height="3.006" transform="translate(45.951)" fill="none" stroke="#fecb27" stroke-width="1"/>
            <rect id="Rectángulo_31" data-name="Rectángulo 31" width="3.006" height="3.006" transform="translate(68.926)" fill="none" stroke="#fecb27" stroke-miterlimit="10" stroke-width="1.078"/>
            <rect id="Rectángulo_32" data-name="Rectángulo 32" width="3.006" height="3.006" transform="translate(91.902)" fill="none" stroke="#fecb27" stroke-miterlimit="10" stroke-width="1.078"/>
            <rect id="Rectángulo_33" data-name="Rectángulo 33" width="3.006" height="3.006" transform="translate(114.877)" fill="none" stroke="#fecb27" stroke-miterlimit="10" stroke-width="1.078"/>
          </g>
          <g id="Grupo_9" data-name="Grupo 9" transform="translate(0 83.742)">
            <rect id="Rectángulo_34" data-name="Rectángulo 34" width="3.006" height="3.006" fill="none" stroke="#fecb27" stroke-miterlimit="10" stroke-width="1.078"/>
            <rect id="Rectángulo_35" data-name="Rectángulo 35" width="3.006" height="3.006" transform="translate(22.975)" fill="none" stroke="#fecb27" stroke-miterlimit="10" stroke-width="1.078"/>
            <rect id="Rectángulo_36" data-name="Rectángulo 36" width="3.006" height="3.006" transform="translate(45.951)" fill="none" stroke="#fecb27" stroke-miterlimit="10" stroke-width="1.078"/>
            <rect id="Rectángulo_37" data-name="Rectángulo 37" width="3.006" height="3.006" transform="translate(68.926)" fill="none" stroke="#fecb27" stroke-width="1"/>
            <rect id="Rectángulo_38" data-name="Rectángulo 38" width="3.006" height="3.006" transform="translate(91.902)" fill="none" stroke="#fecb27" stroke-miterlimit="10" stroke-width="1.078"/>
            <rect id="Rectángulo_39" data-name="Rectángulo 39" width="3.006" height="3.006" transform="translate(114.877)" fill="none" stroke="#fecb27" stroke-miterlimit="10" stroke-width="1.078"/>
          </g>
          <g id="Grupo_10" data-name="Grupo 10" transform="translate(0 100.49)">
            <rect id="Rectángulo_40" data-name="Rectángulo 40" width="3.006" height="3.006" fill="none" stroke="#fecb27" stroke-miterlimit="10" stroke-width="1.078"/>
            <rect id="Rectángulo_41" data-name="Rectángulo 41" width="3.006" height="3.006" transform="translate(22.975)" fill="none" stroke="#fecb27" stroke-miterlimit="10" stroke-width="1.078"/>
            <rect id="Rectángulo_42" data-name="Rectángulo 42" width="3.006" height="3.006" transform="translate(45.951)" fill="none" stroke="#fecb27" stroke-miterlimit="10" stroke-width="1.078"/>
            <rect id="Rectángulo_43" data-name="Rectángulo 43" width="3.006" height="3.006" transform="translate(68.926)" fill="none" stroke="#fecb27" stroke-miterlimit="10" stroke-width="1.078"/>
            <rect id="Rectángulo_44" data-name="Rectángulo 44" width="3.006" height="3.006" transform="translate(91.902)" fill="none" stroke="#fecb27" stroke-width="1"/>
            <rect id="Rectángulo_45" data-name="Rectángulo 45" width="3.006" height="3.006" transform="translate(114.877)" fill="none" stroke="#fecb27" stroke-miterlimit="10" stroke-width="1.078"/>
          </g>
        </g>
      </g>
      <g id="Business_analysis" data-name="Business analysis" transform="translate(48.931 5613)">
        <g id="Grupo_897678" data-name="Grupo 897678" transform="translate(291.313 220.533)">
          <path id="Trazado_624731" data-name="Trazado 624731" d="M482.252,324.833l-2.478-9.057-10.238.466a38.876,38.876,0,0,0-3.29-5.654l5.421-8.689-6.672-6.6-8.636,5.527a39.358,39.358,0,0,0-5.673-3.236l.353-10.253-9.077-2.381-4.711,9.095a38.894,38.894,0,0,0-6.538.047L425.9,285.04l-9.051,2.48.465,10.246a38.878,38.878,0,0,0-5.649,3.292l-8.683-5.425-6.6,6.676,5.523,8.642a39.456,39.456,0,0,0-3.234,5.677l-10.245-.354-2.379,9.084,9.088,4.714a38.908,38.908,0,0,0,.047,6.543l-9.047,4.819,2.478,9.057,10.238-.466a38.859,38.859,0,0,0,3.29,5.654l-5.421,8.69,6.672,6.6,8.636-5.527a39.374,39.374,0,0,0,5.673,3.237l-.353,10.253,9.077,2.381,4.711-9.095a38.85,38.85,0,0,0,6.537-.047l4.816,9.054,9.051-2.48-.465-10.246a38.882,38.882,0,0,0,5.65-3.293l8.684,5.424,6.6-6.676-5.523-8.642a39.406,39.406,0,0,0,3.234-5.677l10.245.354,2.379-9.084-9.088-4.714a38.952,38.952,0,0,0-.047-6.542Zm-41.68,31.616a24.172,24.172,0,1,1,16.919-29.7A24.154,24.154,0,0,1,440.573,356.449Z" transform="translate(-386.046 -284.952)" fill="#fecb2f"/>
        </g>
        <g id="Grupo_897703" data-name="Grupo 897703" transform="translate(242.779 191.057)">
          <g id="Grupo_897683" data-name="Grupo 897683" transform="translate(0 58.192)">
            <g id="Grupo_897680" data-name="Grupo 897680" transform="translate(96.168)">
              <path id="Trazado_624732" data-name="Trazado 624732" d="M710.172,521.417,543.066,498.178a8.4,8.4,0,0,1-7.339-8.335l-2.292-116.557a57.612,57.612,0,0,1,5.968-3.8,6.49,6.49,0,0,1,3.68-.6L709.69,390.132a8.4,8.4,0,0,1,7.34,8.335V512.948a6.5,6.5,0,0,1-2.384,5.045C713.312,519.089,710.172,521.417,710.172,521.417Z" transform="translate(-530.61 -368.831)" fill="#0b5999"/>
              <g id="Grupo_897679" data-name="Grupo 897679" transform="translate(0 3.028)">
                <path id="Trazado_624733" data-name="Trazado 624733" d="M700.634,529.766,534.026,508.519a8.4,8.4,0,0,1-7.34-8.335V385.7a6.53,6.53,0,0,1,7.355-6.477L700.65,400.473a8.4,8.4,0,0,1,7.34,8.335V523.289A6.529,6.529,0,0,1,700.634,529.766Z" transform="translate(-526.172 -378.66)" fill="#fff"/>
                <path id="Trazado_624734" data-name="Trazado 624734" d="M700.472,529.349a7.081,7.081,0,0,1-.89-.057h0L532.973,508.045a8.934,8.934,0,0,1-7.788-8.844V384.719a7.044,7.044,0,0,1,7.934-6.987l166.608,21.247a8.935,8.935,0,0,1,7.788,8.845V522.306a7.044,7.044,0,0,1-7.044,7.043Zm-.761-1.076a6.016,6.016,0,0,0,6.777-5.968V407.824A7.905,7.905,0,0,0,699.6,400L532.989,378.751a6.017,6.017,0,0,0-6.777,5.968V499.2a7.9,7.9,0,0,0,6.891,7.826l166.608,21.248Z" transform="translate(-525.185 -377.676)"/>
              </g>
              <path id="Trazado_624735" data-name="Trazado 624735" d="M985.805,473.4a.513.513,0,0,1-.513-.514V441.677a7.905,7.905,0,0,0-6.891-7.826l-28.833-3.677a.514.514,0,0,1,.13-1.019l28.833,3.677a8.935,8.935,0,0,1,7.788,8.845v31.207A.513.513,0,0,1,985.805,473.4Z" transform="translate(-803.988 -408.501)"/>
              <path id="Trazado_624736" data-name="Trazado 624736" d="M525.7,410.554a.514.514,0,0,1-.514-.514V384.718a7.044,7.044,0,0,1,7.934-6.987l130.8,16.681a.514.514,0,0,1-.13,1.019l-130.8-16.681a6.017,6.017,0,0,0-6.777,5.968V410.04A.513.513,0,0,1,525.7,410.554Z" transform="translate(-525.185 -374.648)"/>
              <path id="Trazado_624737" data-name="Trazado 624737" d="M708.588,534.147,549.5,513.859a6.111,6.111,0,0,1-5.338-6.061V397.369a4.361,4.361,0,0,1,4.913-4.326l159.086,20.288a6.11,6.11,0,0,1,5.337,6.061V529.821A4.361,4.361,0,0,1,708.588,534.147Z" transform="translate(-537.667 -384.731)" fill="#99b9ff"/>
            </g>
            <g id="Grupo_897682" data-name="Grupo 897682" transform="translate(0 135.147)">
              <path id="Trazado_624738" data-name="Trazado 624738" d="M417.7,851.435l-171.35-22.1a2.362,2.362,0,0,1-2.08-2.418c.012-.775.075-6.229.075-6.229l90.6-51.8a25.915,25.915,0,0,1,15.6-2.93l169.186,21.825a2.9,2.9,0,0,1,2.3,1.737l.272.637s-.146,4.549-.087,5.611a2.325,2.325,0,0,1-1.2,2.186l-88.327,50.5A24.052,24.052,0,0,1,417.7,851.435Z" transform="translate(-244.274 -765.026)" fill="#0b5999"/>
              <g id="Grupo_897681" data-name="Grupo 897681" transform="translate(0.098)">
                <path id="Trazado_624739" data-name="Trazado 624739" d="M418.881,844.923,248.144,822.867a2.381,2.381,0,0,1-.878-4.429l87.853-50.177a24.056,24.056,0,0,1,14.985-2.972l170.737,22.056a2.381,2.381,0,0,1,.879,4.429l-87.853,50.177A24.057,24.057,0,0,1,418.881,844.923Z" transform="translate(-245.549 -764.583)" fill="#fff"/>
                <path id="Trazado_624740" data-name="Trazado 624740" d="M420.91,844.647a24.311,24.311,0,0,1-3.082-.2h0L247.09,822.4a2.895,2.895,0,0,1-1.067-5.385l87.853-50.177a24.714,24.714,0,0,1,15.305-3.035l170.738,22.056a2.894,2.894,0,0,1,1.067,5.384l-87.853,50.177A24.736,24.736,0,0,1,420.91,844.647Zm-2.952-1.215a23.678,23.678,0,0,0,14.665-2.909l87.853-50.177a1.868,1.868,0,0,0-.689-3.474L349.05,764.817a23.686,23.686,0,0,0-14.665,2.909L246.532,817.9a1.867,1.867,0,0,0,.689,3.474l170.738,22.056Z" transform="translate(-244.561 -763.603)"/>
              </g>
              <path id="Trazado_624741" data-name="Trazado 624741" d="M560.5,828.922,412.444,809.657a2.151,2.151,0,0,1-.794-4l34.811-19.681A21.726,21.726,0,0,1,460,783.291l148.051,19.265a2.151,2.151,0,0,1,.794,4L574.03,826.238A21.726,21.726,0,0,1,560.5,828.922Z" transform="translate(-353.637 -776.435)" fill="#99b9ff"/>
            </g>
          </g>
          <g id="Grupo_897693" data-name="Grupo 897693" transform="translate(111.092 0)">
            <g id="Grupo_897686" data-name="Grupo 897686">
              <path id="Trazado_624742" data-name="Trazado 624742" d="M699.531,214.793,577.408,198.924a7.412,7.412,0,0,0-8.628,7.507V341.172a10.129,10.129,0,0,0,8.628,9.749L699.531,366.79a7.412,7.412,0,0,0,8.628-7.507V224.542A10.129,10.129,0,0,0,699.531,214.793Z" transform="translate(-568.78 -198.85)" fill="#fff"/>
              <path id="Trazado_624743" data-name="Trazado 624743" d="M860.808,255.513a.513.513,0,0,1-.514-.513V241.506a9.614,9.614,0,0,0-8.181-9.241l-50.777-6.6a.514.514,0,1,1,.133-1.018l50.777,6.6a10.669,10.669,0,0,1,9.076,10.259V255A.513.513,0,0,1,860.808,255.513Z" transform="translate(-721.428 -215.814)"/>
              <g id="Grupo_897685" data-name="Grupo 897685" transform="translate(6.345 4.537)">
                <path id="Trazado_624744" data-name="Trazado 624744" d="M713.6,255.622a.5.5,0,0,1-.067,0L587.762,239.274a.513.513,0,0,1,.132-1.018L713.667,254.6a.513.513,0,0,1-.065,1.023Z" transform="translate(-587.314 -229.299)" fill="#99b9ff"/>
                <g id="Grupo_897684" data-name="Grupo 897684" transform="translate(0.513)">
                  <path id="Trazado_624745" data-name="Trazado 624745" d="M593.239,214.621a1.9,1.9,0,0,1-2.213,1.925,2.6,2.6,0,0,1-2.212-2.5,1.9,1.9,0,0,1,2.212-1.925A2.6,2.6,0,0,1,593.239,214.621Z" transform="translate(-588.814 -212.102)" fill="#99b9ff"/>
                  <path id="Trazado_624746" data-name="Trazado 624746" d="M619.089,217.98a1.9,1.9,0,0,1-2.213,1.925,2.6,2.6,0,0,1-2.212-2.5,1.9,1.9,0,0,1,2.212-1.925A2.6,2.6,0,0,1,619.089,217.98Z" transform="translate(-605.814 -214.311)" fill="#99b9ff"/>
                  <path id="Trazado_624747" data-name="Trazado 624747" d="M644.938,221.339a1.9,1.9,0,0,1-2.212,1.925,2.6,2.6,0,0,1-2.213-2.5,1.9,1.9,0,0,1,2.213-1.925A2.6,2.6,0,0,1,644.938,221.339Z" transform="translate(-622.814 -216.52)" fill="#99b9ff"/>
                </g>
                <path id="Trazado_624748" data-name="Trazado 624748" d="M931.276,261.936a.494.494,0,0,1-.067,0l-12.463-1.62a.513.513,0,1,1,.133-1.018l12.463,1.619a.514.514,0,0,1-.065,1.023Z" transform="translate(-804.988 -243.135)" fill="#99b9ff"/>
                <path id="Trazado_624749" data-name="Trazado 624749" d="M803.274,245.3a.5.5,0,0,1-.067,0l-51.622-6.708a.514.514,0,0,1,.133-1.018l51.622,6.708a.513.513,0,0,1-.065,1.023Z" transform="translate(-695.054 -228.848)" fill="#99b9ff"/>
                <path id="Trazado_624750" data-name="Trazado 624750" d="M690.906,230.7a.494.494,0,0,1-.067,0l-10.988-1.428a.513.513,0,0,1,.133-1.018l10.988,1.428a.513.513,0,0,1-.065,1.023Z" transform="translate(-647.878 -222.719)" fill="#99b9ff"/>
              </g>
            </g>
            <g id="Grupo_897692" data-name="Grupo 897692" transform="translate(6.662 17.122)">
              <g id="Grupo_897690" data-name="Grupo 897690" transform="translate(0 20.759)">
                <g id="Grupo_897687" data-name="Grupo 897687" transform="translate(5.362)">
                  <path id="Trazado_624751" data-name="Trazado 624751" d="M638.421,352.473c3.83-6.2,10.955-10.008,19.234-9.789l.576-32.676c-23.782-3.011-44.771,7.661-54.33,26.223Z" transform="translate(-603.901 -309.503)" fill="#a1e9dc"/>
                </g>
                <path id="Trazado_624752" data-name="Trazado 624752" d="M699,324.762a.514.514,0,0,1-.136-1.009,54.469,54.469,0,0,1,16.809-1.845.514.514,0,0,1,.491.535.52.52,0,0,1-.535.491,53.371,53.371,0,0,0-16.493,1.809A.507.507,0,0,1,699,324.762Z" transform="translate(-660.745 -317.626)" fill="#fff"/>
                <path id="Trazado_624753" data-name="Trazado 624753" d="M643.66,341.815a.514.514,0,0,1-.342-.9,46.731,46.731,0,0,1,13.987-8.558.514.514,0,0,1,.377.955A45.7,45.7,0,0,0,644,341.685.511.511,0,0,1,643.66,341.815Z" transform="translate(-624.349 -324.512)" fill="#fff"/>
                <g id="Grupo_897688" data-name="Grupo 897688" transform="translate(33.145 63.446)" opacity="0.42">
                  <path id="Trazado_624754" data-name="Trazado 624754" d="M737.672,494.832c-1.95,10.508-11.753,17.694-23.762,16.507a27.878,27.878,0,0,1-10.107-3.03L685.057,534.9a67.154,67.154,0,0,0,28.853,9.018c29.943,2.17,53.484-17.311,56.1-44.107Z" transform="translate(-685.057 -494.832)" fill="#21cbae"/>
                </g>
                <path id="Trazado_624755" data-name="Trazado 624755" d="M726.205,613.094h-.038c-1.137-.083-2.285-.2-3.411-.345a62.044,62.044,0,0,1-18.3-5.345.513.513,0,0,1,.435-.93,61.024,61.024,0,0,0,18,5.257c1.108.144,2.236.258,3.354.339a.514.514,0,0,1-.037,1.026Z" transform="translate(-664.476 -504.775)" fill="#fff"/>
                <path id="Trazado_624756" data-name="Trazado 624756" d="M802.144,555.306a.514.514,0,0,1-.072-1.022c19.656-2.805,34.836-16.436,38.673-34.725a.514.514,0,0,1,1.005.211c-3.927,18.718-19.445,32.664-39.533,35.532A.54.54,0,0,1,802.144,555.306Z" transform="translate(-728.578 -447.379)" fill="#fff"/>
                <g id="Grupo_897689" data-name="Grupo 897689" transform="translate(0 32.486)">
                  <path id="Trazado_624757" data-name="Trazado 624757" d="M615.516,471.606l18.918-26.652c-5.659-4.925-9.3-11.918-9.3-19.313a21.239,21.239,0,0,1,.618-5.126L591.1,404.4a50.118,50.118,0,0,0-2.866,16.9C588.239,441.213,599.165,459.777,615.516,471.606Z" transform="translate(-588.239 -404.398)" fill="#a1e9dc"/>
                </g>
              </g>
              <g id="Grupo_897691" data-name="Grupo 897691" transform="translate(66.945)">
                <path id="Trazado_624758" data-name="Trazado 624758" d="M783.789,302.963c10.936,3.049,19.345,12.616,20.344,23.22l52.879,8.4c0-.022,0-.045,0-.067,0-38.792-30.908-76.006-72.276-85.655Z" transform="translate(-783.789 -248.865)" fill="#5479f7"/>
              </g>
            </g>
          </g>
          <g id="Grupo_897696" data-name="Grupo 897696" transform="translate(58.564 75.828)">
            <path id="Trazado_624759" data-name="Trazado 624759" d="M489.354,429.227,421.406,420.4a5.208,5.208,0,0,0-6.063,5.275v90.282a7.118,7.118,0,0,0,6.063,6.851l67.948,8.829a5.208,5.208,0,0,0,6.063-5.275V436.077A7.117,7.117,0,0,0,489.354,429.227Z" transform="translate(-415.343 -420.346)" fill="#fff"/>
            <g id="Grupo_897694" data-name="Grupo 897694" transform="translate(9.519 16.781)">
              <path id="Trazado_624760" data-name="Trazado 624760" d="M460.591,566.884l-17.443-2.267V507.3l17.443,2.267Z" transform="translate(-443.149 -494.311)" fill="#ef3c79"/>
              <path id="Trazado_624761" data-name="Trazado 624761" d="M524.259,544.77,506.817,542.5V469.365l17.443,2.267Z" transform="translate(-485.02 -469.365)" fill="#ef3c79"/>
              <path id="Trazado_624762" data-name="Trazado 624762" d="M587.927,627.9l-17.443-2.267V591.458l17.443,2.267Z" transform="translate(-526.892 -549.66)" fill="#ef3c79"/>
            </g>
            <g id="Grupo_897695" data-name="Grupo 897695" transform="translate(12.312 14.758)">
              <path id="Trazado_624763" data-name="Trazado 624763" d="M451.822,538.659a.513.513,0,0,1-.513-.514V501.9a.514.514,0,0,1,.175-.386.5.5,0,0,1,.4-.124l17.442,2.267a.513.513,0,0,1,.447.509v16.4a.514.514,0,1,1-1.027,0V504.617l-16.415-2.133v35.662A.514.514,0,0,1,451.822,538.659Z" transform="translate(-451.308 -488.399)"/>
              <path id="Trazado_624764" data-name="Trazado 624764" d="M532.932,531.182a.514.514,0,0,1-.514-.513V466.685L516,464.552v51.624a.514.514,0,0,1-1.027,0V463.968a.514.514,0,0,1,.175-.386.506.506,0,0,1,.405-.123L533,465.725a.513.513,0,0,1,.447.509v64.434A.513.513,0,0,1,532.932,531.182Z" transform="translate(-493.18 -463.454)"/>
              <path id="Trazado_624765" data-name="Trazado 624765" d="M579.157,614.632a.513.513,0,0,1-.514-.513V586.061a.514.514,0,0,1,.175-.386.506.506,0,0,1,.405-.124l17.443,2.267a.513.513,0,0,1,.447.509v19.715a.514.514,0,1,1-1.027,0V588.778l-16.415-2.133v27.473A.513.513,0,0,1,579.157,614.632Z" transform="translate(-535.051 -543.749)"/>
            </g>
          </g>
          <g id="Grupo_897702" data-name="Grupo 897702" transform="translate(118.304 176.02)">
            <g id="Grupo_897697" data-name="Grupo 897697">
              <path id="Trazado_624766" data-name="Trazado 624766" d="M734.881,732.209a6.533,6.533,0,0,1,5.578,6.293v38.389a4.8,4.8,0,0,1-5.578,4.865L596.924,764.107a6.533,6.533,0,0,1-5.579-6.292v-38.39a4.8,4.8,0,0,1,5.579-4.865Z" transform="translate(-590.831 -714.001)" fill="#fff"/>
              <path id="Trazado_624767" data-name="Trazado 624767" d="M590.358,757.342a.514.514,0,0,1-.514-.513v-38.39a5.374,5.374,0,0,1,1.792-4.107A5.456,5.456,0,0,1,596,713.065l20.877,2.671a.514.514,0,0,1-.13,1.019l-20.877-2.671a4.431,4.431,0,0,0-3.557,1.019,4.361,4.361,0,0,0-1.443,3.336v38.39A.514.514,0,0,1,590.358,757.342Z" transform="translate(-589.845 -713.014)"/>
              <path id="Trazado_624768" data-name="Trazado 624768" d="M794.9,811.058a6.208,6.208,0,0,1-.787-.05L681.962,796.661a.514.514,0,1,1,.13-1.019l112.154,14.348a4.436,4.436,0,0,0,3.556-1.019,4.362,4.362,0,0,0,1.444-3.336V767.244a6.013,6.013,0,0,0-5.13-5.783l-17.349-2.219a.514.514,0,0,1,.13-1.019l17.349,2.22a7.068,7.068,0,0,1,6.027,6.8v38.389a5.287,5.287,0,0,1-5.37,5.425Z" transform="translate(-650.132 -742.743)"/>
            </g>
            <g id="Grupo_897701" data-name="Grupo 897701" transform="translate(16.089 13.702)">
              <g id="Grupo_897698" data-name="Grupo 897698" transform="translate(1.08)">
                <path id="Trazado_624769" data-name="Trazado 624769" d="M773.008,774.964,672.741,762.137a3.058,3.058,0,0,1-2.611-2.945h0a2.248,2.248,0,0,1,2.611-2.277l100.267,12.827a3.058,3.058,0,0,1,2.611,2.945h0A2.248,2.248,0,0,1,773.008,774.964Z" transform="translate(-659.813 -755.574)" fill="#0b5999"/>
                <path id="Trazado_624770" data-name="Trazado 624770" d="M645.216,756.005a2.248,2.248,0,0,1-2.611,2.277,3.057,3.057,0,0,1-2.611-2.944,2.248,2.248,0,0,1,2.611-2.277A3.058,3.058,0,0,1,645.216,756.005Z" transform="translate(-639.994 -753.039)" fill="#0b5999"/>
              </g>
              <g id="Grupo_897699" data-name="Grupo 897699" transform="translate(1.08 11.246)">
                <path id="Trazado_624771" data-name="Trazado 624771" d="M773.008,807.816,672.741,794.989a3.057,3.057,0,0,1-2.611-2.945h0a2.248,2.248,0,0,1,2.611-2.276l100.267,12.827a3.058,3.058,0,0,1,2.611,2.945h0A2.248,2.248,0,0,1,773.008,807.816Z" transform="translate(-659.813 -788.426)" fill="#caddff"/>
                <path id="Trazado_624772" data-name="Trazado 624772" d="M645.216,788.856a2.248,2.248,0,0,1-2.611,2.277,3.057,3.057,0,0,1-2.611-2.945,2.248,2.248,0,0,1,2.611-2.277A3.057,3.057,0,0,1,645.216,788.856Z" transform="translate(-639.994 -785.89)" fill="#caddff"/>
              </g>
              <g id="Grupo_897700" data-name="Grupo 897700" transform="translate(0 21.42)">
                <path id="Trazado_624773" data-name="Trazado 624773" d="M773.008,840.667,672.741,827.84a3.057,3.057,0,0,1-2.611-2.945h0a2.248,2.248,0,0,1,2.611-2.277l100.267,12.827a3.058,3.058,0,0,1,2.611,2.945h0A2.248,2.248,0,0,1,773.008,840.667Z" transform="translate(-658.734 -820.204)" fill="#caddff"/>
                <ellipse id="Elipse_6292" data-name="Elipse 6292" cx="2.449" cy="2.783" rx="2.449" ry="2.783" transform="matrix(0.729, -0.684, 0.684, 0.729, 0, 3.351)" fill="#caddff"/>
              </g>
            </g>
          </g>
        </g>
        <g id="Grupo_897716" data-name="Grupo 897716" transform="translate(429.015 301.789)">
          <g id="Grupo_897707" data-name="Grupo 897707" transform="translate(0 0)">
            <g id="Grupo_897704" data-name="Grupo 897704" transform="translate(0 4.316)">
              <path id="Trazado_624774" data-name="Trazado 624774" d="M827.562,556.338a19.16,19.16,0,0,1-13.825-3.3c-6.839-4.77-11.164-8.1-11.164-8.1s-.012-2.624-1.477-3.721-2.333-4.834-3.481-4.809l.411,4.236s-3.474-1.687-5.253-2.717a3.286,3.286,0,0,0-3-.418s6.157,7.779,8.14,8.5,3.027,3.708,4.132,5.227l1.106,1.519s8.185,14.148,24.406,12.783Z" transform="translate(-789.265 -535.898)" fill="#fff"/>
              <path id="Trazado_624775" data-name="Trazado 624775" d="M824.412,565.161c-14.594,0-22.277-12.449-22.671-13.105l-1.091-1.5a16.976,16.976,0,0,1-.989-1.625c-.781-1.392-1.667-2.971-2.9-3.421-2.06-.75-7.727-7.857-8.367-8.665a.514.514,0,0,1,.172-.778,3.785,3.785,0,0,1,3.483.433c1.216.7,3.259,1.731,4.4,2.294l-.322-3.319a.513.513,0,0,1,.5-.563h.025c.918,0,1.5,1.142,2.167,2.462a7.775,7.775,0,0,0,1.609,2.449c1.376,1.031,1.627,3.132,1.672,3.87.908.691,5,3.784,10.954,7.938a18.822,18.822,0,0,0,13.426,3.218.513.513,0,0,1,.619.5v9.2a.514.514,0,0,1-.47.512C825.868,565.131,825.13,565.161,824.412,565.161Zm-34.7-28.3c2.467,3.059,6.131,7.227,7.393,7.687,1.6.58,2.58,2.335,3.449,3.883a16.47,16.47,0,0,0,.923,1.523l1.105,1.519c.01.014.02.029.029.045.08.138,8.059,13.576,23.448,12.564v-8.124a19.782,19.782,0,0,1-13.6-3.481c-6.771-4.722-11.14-8.079-11.183-8.112a.516.516,0,0,1-.2-.4c0-.024-.032-2.384-1.271-3.313a8.169,8.169,0,0,1-1.909-2.806c-.155-.305-.393-.774-.628-1.169l.285,2.942a.513.513,0,0,1-.735.511c-.143-.069-3.512-1.708-5.286-2.735A3.434,3.434,0,0,0,789.715,536.859Z" transform="translate(-788.279 -534.912)"/>
            </g>
            <path id="Trazado_624776" data-name="Trazado 624776" d="M886.3,587.453l3.622,14.906s7.567-1.186,7.956,2.095-.605,13.811-1.019,17.6-1.088,8.426,3.7,9.627,22.237-2.454,26.809-.441,6.194-.168,5.816-3.716-1.3-19.776-1.3-19.776l3.2,10.7,8.73-.949s-1.929-23.411-13.518-27.886-16.693-4.676-25.351-3.938S890.256,588.481,886.3,587.453Z" transform="translate(-852.745 -563.762)" fill="#ef3c79"/>
            <g id="Grupo_897706" data-name="Grupo 897706" transform="translate(60.237)">
              <path id="Trazado_624777" data-name="Trazado 624777" d="M969.573,525.775a2.986,2.986,0,0,1-.89,3.861,11.572,11.572,0,0,0-3.809,4.132c-1.844,3.721.353,6.193,6,5.823s5.821.517,10.927,3.042,7.251,1.128,7.354-3.431-4.839-10.141-7.175-11a6.039,6.039,0,0,1-1.069-.651c-1.967-1.38-2.429-2.808-3.3-3.707-2.168-2.236-7.518-1.847-8.293-.031A2.274,2.274,0,0,0,969.573,525.775Z" transform="translate(-964.235 -522.305)"/>
              <path id="Trazado_624778" data-name="Trazado 624778" d="M1010.576,523.614c-1.5,1.245-2.348,3.56-1.537,4.536s2.978.242,4.475-1,1.757-2.53.946-3.506S1012.073,522.369,1010.576,523.614Z" transform="translate(-993.494 -522.624)"/>
              <g id="Grupo_897705" data-name="Grupo 897705" transform="translate(0.006 5.265)">
                <path id="Trazado_624779" data-name="Trazado 624779" d="M981.067,544.781a1.171,1.171,0,0,0-1.169-.084c-.117-.734-.278-1.35-.278-1.35.147-3.085-5.418-4.16-5.418-4.16h-.215a17.837,17.837,0,0,0-1.814,2.9,1.621,1.621,0,0,1-.5.6l-.93.676a.677.677,0,0,0-.119.985l.534.631c-1.238,3.859,1.052,4.265,1.052,4.265a7.565,7.565,0,0,0,.965.175c-.761,2.061-2.714,5.8-6.945,6.154a.5.5,0,0,0-.3.881,15,15,0,0,0,13.037,3.06.591.591,0,0,0,.248-1.043c-1.36-1.1-3.086-3.82-1.064-10.274.232-.151.44-.3.614-.437.561.4,1.507.1,2.139-.7C981.549,546.24,981.623,545.221,981.067,544.781Z" transform="translate(-965.24 -538.673)" fill="#fff"/>
                <path id="Trazado_624780" data-name="Trazado 624780" d="M974.513,559.393a15.19,15.19,0,0,1-9.908-3.537.993.993,0,0,1-.3-1.075,1.027,1.027,0,0,1,.9-.706c3.556-.3,5.4-3.184,6.274-5.235-.124-.025-.245-.052-.364-.082a2.233,2.233,0,0,1-1.4-1.049,4.5,4.5,0,0,1-.111-3.6l-.353-.418a1.19,1.19,0,0,1,.21-1.731l.93-.676a1.121,1.121,0,0,0,.341-.414,18.474,18.474,0,0,1,1.865-2.982.514.514,0,0,1,.41-.2h.215a.5.5,0,0,1,.1.01c.243.047,5.912,1.182,5.837,4.609.032.13.1.418.173.784a1.5,1.5,0,0,1,1.077.3h0a1.635,1.635,0,0,1,.562,1.436,2.9,2.9,0,0,1-.643,1.561,2.368,2.368,0,0,1-2.486.985c-.076.055-.154.109-.234.163-1.873,6.126-.214,8.61.95,9.548a1.1,1.1,0,0,1-.469,1.946A18.192,18.192,0,0,1,974.513,559.393Zm-1.27-20.663a17.1,17.1,0,0,0-1.6,2.593,2.145,2.145,0,0,1-.659.793l-.93.676a.163.163,0,0,0-.029.238l.534.631a.514.514,0,0,1,.1.488,3.913,3.913,0,0,0-.084,3.009,1.231,1.231,0,0,0,.743.594,7.272,7.272,0,0,0,.928.17.514.514,0,0,1,.421.688c-.836,2.262-2.907,6.114-7.384,6.488a14.44,14.44,0,0,0,12.593,2.926.066.066,0,0,0,.057-.054.08.08,0,0,0-.031-.086c-1.379-1.111-3.372-3.994-1.232-10.828a.514.514,0,0,1,.21-.277c.205-.134.4-.276.577-.41a.513.513,0,0,1,.615-.014c.291.207.952.01,1.438-.6a1.9,1.9,0,0,0,.424-1,.659.659,0,0,0-.176-.558.729.729,0,0,0-.665-.008.514.514,0,0,1-.693-.4c-.112-.7-.266-1.3-.267-1.3a.516.516,0,0,1-.016-.154C978.219,540.236,974.749,539.05,973.243,538.73Z" transform="translate(-964.252 -537.686)"/>
              </g>
              <path id="Trazado_624781" data-name="Trazado 624781" d="M987.288,567.185a6.119,6.119,0,0,1-.923-.073.514.514,0,0,1,.154-1.015c1.935.294,2.685-.56,2.717-.6a.516.516,0,0,1,.72-.068.509.509,0,0,1,.079.713A3.492,3.492,0,0,1,987.288,567.185Z" transform="translate(-978.502 -550.592)"/>
            </g>
          </g>
          <g id="Grupo_897712" data-name="Grupo 897712" transform="translate(26.738 61.664)">
            <g id="Grupo_897708" data-name="Grupo 897708" transform="translate(31.906 79.772)">
              <path id="Trazado_624782" data-name="Trazado 624782" d="M961.082,937.339l.276,10.283,3.632.393,1.8-11.066Z" transform="translate(-960.569 -936.435)" fill="#fff"/>
              <path id="Trazado_624783" data-name="Trazado 624783" d="M964,947.541a.521.521,0,0,1-.056,0l-3.632-.393a.513.513,0,0,1-.458-.5l-.277-10.283a.513.513,0,0,1,.478-.526l5.705-.391a.514.514,0,0,1,.542.595l-1.8,11.066A.513.513,0,0,1,964,947.541Zm-3.131-1.368,2.7.292,1.615-9.946-4.568.313Z" transform="translate(-959.582 -935.448)"/>
            </g>
            <g id="Grupo_897709" data-name="Grupo 897709" transform="translate(10.718 83.539)">
              <path id="Trazado_624784" data-name="Trazado 624784" d="M899.771,947.95l-.579,8.19,4.8.393,1.713-8.583Z" transform="translate(-898.678 -947.437)" fill="#fff"/>
              <path id="Trazado_624785" data-name="Trazado 624785" d="M903,956.06h-.042l-4.8-.393a.513.513,0,0,1-.47-.548l.58-8.191a.513.513,0,0,1,.512-.478h5.933a.514.514,0,0,1,.5.614l-1.713,8.583A.514.514,0,0,1,903,956.06Zm-4.251-1.376,3.837.314,1.5-7.521h-4.829Z" transform="translate(-897.691 -946.45)"/>
            </g>
            <g id="Grupo_897710" data-name="Grupo 897710" transform="translate(0 87.827)">
              <path id="Trazado_624786" data-name="Trazado 624786" d="M884.682,968.264a1.233,1.233,0,0,0,.546-.994c.031-1.2.035-3.762-.449-4.724-.643-1.276-3.3.5-3.3.5a11.824,11.824,0,0,0-2.462-2.605c-.471-.234-3.224,1.6-6,4.1-3.042,2.739-4.416,3.612-5.072,5.974a1.84,1.84,0,0,0,1.653,2.3C872.394,973.021,878.034,972.687,884.682,968.264Z" transform="translate(-867.368 -959.929)" fill="#fff"/>
              <path id="Trazado_624787" data-name="Trazado 624787" d="M869.843,972.426c-.47,0-.892-.017-1.265-.044a2.362,2.362,0,0,1-1.767-1,2.308,2.308,0,0,1-.345-1.954c.593-2.136,1.771-3.172,3.909-5.052.4-.351.836-.735,1.315-1.166.217-.2,5.343-4.789,6.573-4.176a9.775,9.775,0,0,1,2.365,2.381,4.337,4.337,0,0,1,2.77-.739,1.3,1.3,0,0,1,.854.688c.5.989.55,3.247.5,4.968a1.746,1.746,0,0,1-.775,1.408A25.573,25.573,0,0,1,869.843,972.426Zm8.038-12.432a22.281,22.281,0,0,0-5.5,3.979c-.482.433-.922.82-1.323,1.174-2.119,1.863-3.086,2.714-3.6,4.556a1.284,1.284,0,0,0,.194,1.087,1.34,1.34,0,0,0,1,.568c2.711.192,8.233-.129,14.761-4.472h0a.717.717,0,0,0,.317-.58,12.647,12.647,0,0,0-.395-4.479.275.275,0,0,0-.2-.158,4.257,4.257,0,0,0-2.355.856.513.513,0,0,1-.7-.126A11.615,11.615,0,0,0,877.881,959.994Z" transform="translate(-866.382 -958.977)"/>
            </g>
            <path id="Trazado_624788" data-name="Trazado 624788" d="M874.076,981.586a14.06,14.06,0,0,1-2.972-.277.514.514,0,0,1,.233-1,18.292,18.292,0,0,0,14.418-3.957.514.514,0,0,1,.641.8A19.639,19.639,0,0,1,874.076,981.586Z" transform="translate(-869.227 -882.503)"/>
            <g id="Grupo_897711" data-name="Grupo 897711" transform="translate(30.472 86.235)">
              <path id="Trazado_624789" data-name="Trazado 624789" d="M956.892,962.538l.053-5.63a1.7,1.7,0,0,1,2.676-.32s1.431-2.006,4.087.495c0,0,3.737,6.967,5.392,11.111a1.713,1.713,0,0,1-1.543,2.353c-1.715.04-3.934-.052-4.9-.706-1.51-1.021-4.1-4.24-5.222-5.69A2.585,2.585,0,0,1,956.892,962.538Z" transform="translate(-956.378 -955.313)" fill="#fff"/>
              <path id="Trazado_624790" data-name="Trazado 624790" d="M965.894,970.081c-2.207,0-3.722-.269-4.51-.8-1.527-1.032-4-4.077-5.34-5.8a3.114,3.114,0,0,1-.652-1.932l.053-5.63a.516.516,0,0,1,.085-.279,2.54,2.54,0,0,1,1.646-1.078,2.051,2.051,0,0,1,1.415.359,2.536,2.536,0,0,1,1.373-.58,4.084,4.084,0,0,1,3.11,1.384.522.522,0,0,1,.1.131c.037.07,3.77,7.04,5.416,11.163a2.226,2.226,0,0,1-2.007,3.057Q966.228,970.081,965.894,970.081ZM956.47,956.1l-.051,5.458a2.082,2.082,0,0,0,.436,1.293c1.048,1.349,3.643,4.592,5.1,5.58.668.452,2.3.674,4.6.617a1.173,1.173,0,0,0,.964-.534,1.194,1.194,0,0,0,.113-1.115c-1.533-3.841-4.921-10.221-5.328-10.983a3.131,3.131,0,0,0-2.246-1.053,1.517,1.517,0,0,0-1.011.539.513.513,0,0,1-.761.084,1.273,1.273,0,0,0-.981-.406A1.434,1.434,0,0,0,956.47,956.1Zm-.565,5.453h0Z" transform="translate(-955.392 -954.326)"/>
            </g>
            <rect id="Rectángulo_302275" data-name="Rectángulo 302275" width="1.027" height="4.062" rx="0.514" transform="translate(33.201 86.997)"/>
            <path id="Trazado_624791" data-name="Trazado 624791" d="M895.834,786.947s-1.369-20.675.877-39.271,10.605-45.152,10.605-45.152a106.589,106.589,0,0,1,15.538.472c6.546.879,9.136-.025,9.136-.025s4.887,5.6,4.488,16.114-11.8,54.891-11.369,65.3a14.937,14.937,0,0,1-8.8.969l2.059-59.8s-4.26,12.31-6.259,20.744a40.382,40.382,0,0,1-4.458,11.323s.12,15.983-3.548,29.247A15.429,15.429,0,0,1,895.834,786.947Z" transform="translate(-885.48 -702.429)"/>
            <path id="Trazado_624792" data-name="Trazado 624792" d="M916.644,874.448a.513.513,0,0,1-.422-.8l3.14-4.57a.514.514,0,1,1,.847.582l-3.14,4.57A.513.513,0,0,1,916.644,874.448Z" transform="translate(-899.1 -811.878)" fill="#fff"/>
            <path id="Trazado_624793" data-name="Trazado 624793" d="M974.878,848.823a8.407,8.407,0,0,1-1.919-.212.513.513,0,0,1,.253-1h0c.028.008,2.891.706,4.829-.732a.514.514,0,0,1,.612.825A6.31,6.31,0,0,1,974.878,848.823Z" transform="translate(-936.219 -797.364)" fill="#fff"/>
          </g>
          <g id="Grupo_897715" data-name="Grupo 897715" transform="translate(48.934 38.998)">
            <g id="Grupo_897713" data-name="Grupo 897713">
              <path id="Trazado_624794" data-name="Trazado 624794" d="M956.611,663.706H932.719l10.555-25.985h23.893Z" transform="translate(-932.205 -637.208)" fill="#fff"/>
              <path id="Trazado_624795" data-name="Trazado 624795" d="M955.625,663.233H931.732a.514.514,0,0,1-.476-.707l10.555-25.985a.514.514,0,0,1,.476-.32H966.18a.514.514,0,0,1,.476.707L956.1,662.913A.514.514,0,0,1,955.625,663.233Zm-23.13-1.027h22.784l10.137-24.958H942.633Z" transform="translate(-931.219 -636.221)"/>
            </g>
            <g id="Grupo_897714" data-name="Grupo 897714" transform="translate(2.583 14.652)">
              <path id="Trazado_624796" data-name="Trazado 624796" d="M952.551,683.669a39.687,39.687,0,0,0-6.054-2.957c-1.892-.518-.458,1.079.9,1.731s1.4,1.509,1.4,1.509-7.446-.24-8.281-.283.417,1.117,2.644,1.488a5.5,5.5,0,0,0,2.234,2.783c1.611.9,6.858,0,6.858,0s6.178,2.58,16.413,2.171c6.771-.27,10.093-5.716,9.656-9.593l-6.518.6S969.1,687.245,952.551,683.669Z" transform="translate(-939.749 -680.005)" fill="#fff"/>
              <path id="Trazado_624797" data-name="Trazado 624797" d="M965.474,689.684a41.168,41.168,0,0,1-14.26-2.2c-.986.161-5.434.821-7.051-.082a5.852,5.852,0,0,1-2.359-2.779c-1.415-.295-3.129-1.058-3.039-1.891.03-.276.258-.586.8-.561.648.033,5.383.189,7.383.254a2.808,2.808,0,0,0-.755-.5c-.494-.236-2.415-1.4-2.062-2.344.257-.69,1.2-.431,1.516-.345a38.157,38.157,0,0,1,6.106,2.967c15.883,3.412,18.576-2.214,18.6-2.271a.513.513,0,0,1,.422-.3l6.518-.6a.512.512,0,0,1,.558.454A8.816,8.816,0,0,1,975.621,686a10.817,10.817,0,0,1-7.916,3.641Q966.555,689.685,965.474,689.684Zm-14.2-3.243a.513.513,0,0,1,.2.04c.061.025,6.209,2.531,16.195,2.132a9.8,9.8,0,0,0,7.177-3.283,7.971,7.971,0,0,0,2.023-5.237l-5.727.53c-.773,1.223-4.749,5.79-19.682,2.563a.509.509,0,0,1-.151-.059,42.346,42.346,0,0,0-5.748-2.851,4.931,4.931,0,0,0,1.078.718c1.592.762,1.689,1.828,1.695,1.947a.512.512,0,0,1-.146.385.492.492,0,0,1-.383.153c-.24-.008-4.742-.153-7.041-.235a6.936,6.936,0,0,0,1.506.42.513.513,0,0,1,.4.345,5.014,5.014,0,0,0,2,2.5c1.058.59,4.561.278,6.521-.058A.5.5,0,0,1,951.272,686.441Z" transform="translate(-938.763 -679.019)"/>
            </g>
          </g>
        </g>
        <g id="Grupo_897717" data-name="Grupo 897717" transform="translate(263.911 204.546)">
          <path id="Trazado_624798" data-name="Trazado 624798" d="M308.87,331.21a2.861,2.861,0,1,1,1.4-.369A2.864,2.864,0,0,1,308.87,331.21Zm-.008-4.7a1.826,1.826,0,0,0-.9.238h0a1.835,1.835,0,0,0,1.8,3.2,1.835,1.835,0,0,0-.409-3.366A1.858,1.858,0,0,0,308.863,326.513Zm-1.152-.209h0Z" transform="translate(-306.002 -295.622)"/>
          <path id="Trazado_624799" data-name="Trazado 624799" d="M329.783,308.531a.5.5,0,0,1-.09-.008.513.513,0,0,1-.387-.315c-.821-2.055-1.468-4.192-1.475-4.213a.514.514,0,0,1,.561-.657l4.638.634a.514.514,0,0,1,.313.852l-3.178,3.536A.514.514,0,0,1,329.783,308.531Zm-.726-4.066c.205.632.525,1.586.9,2.587l1.972-2.194Z" transform="translate(-320.344 -281.053)"/>
          <path id="Trazado_624800" data-name="Trazado 624800" d="M345.506,272.027a.513.513,0,0,1-.51-.466,4.3,4.3,0,0,1,1.441-3.58,4.127,4.127,0,0,1,2.138-.544,4.589,4.589,0,0,0,2.168-.518,3.9,3.9,0,0,0,.933-1.749,4.554,4.554,0,0,1,1.529-2.487,3.6,3.6,0,0,1,2.481-.09,3.416,3.416,0,0,0,1.722.066c.433-.243.673-.977.886-1.623a3.578,3.578,0,0,1,.6-1.285.513.513,0,1,1,.757.694,3.484,3.484,0,0,0-.378.911,3.668,3.668,0,0,1-1.358,2.2,3.775,3.775,0,0,1-2.406.05,3.255,3.255,0,0,0-1.75-.053,3.92,3.92,0,0,0-1.112,1.966,4.469,4.469,0,0,1-1.309,2.242,5.368,5.368,0,0,1-2.673.7,3.7,3.7,0,0,0-1.6.337,3.312,3.312,0,0,0-1.04,2.67.515.515,0,0,1-.466.557Z" transform="translate(-331.64 -252.28)"/>
          <path id="Trazado_624801" data-name="Trazado 624801" d="M341.871,273.842a.513.513,0,0,1-.414-.817,97.623,97.623,0,0,1,17.7-17.385c10.347-7.932,27-17.387,47.562-17.387a.514.514,0,0,1,0,1.027c-20.276,0-36.716,9.34-46.938,17.175a96.484,96.484,0,0,0-17.5,17.177A.513.513,0,0,1,341.871,273.842Z" transform="translate(-329.254 -238.252)"/>
          <path id="Trazado_624802" data-name="Trazado 624802" d="M320.24,346.458a.513.513,0,0,1-.469-.723,76.252,76.252,0,0,1,24-30.133.513.513,0,0,1,.568.855,75.187,75.187,0,0,0-23.633,29.7A.514.514,0,0,1,320.24,346.458Z" transform="translate(-315.028 -289.065)"/>
        </g>
        <g id="Grupo_897730" data-name="Grupo 897730" transform="translate(243.762 266.884)">
          <g id="Grupo_897724" data-name="Grupo 897724" transform="translate(8.893 68.181)">
            <g id="Grupo_897720" data-name="Grupo 897720" transform="translate(0 81.335)">
              <g id="Grupo_897718" data-name="Grupo 897718" transform="translate(4.173)">
                <path id="Trazado_624803" data-name="Trazado 624803" d="M292.2,858.588l-1.464,10.28-3.746.014-.177-10.11Z" transform="translate(-286.303 -858.074)" fill="#fff"/>
                <path id="Trazado_624804" data-name="Trazado 624804" d="M286.006,868.408a.514.514,0,0,1-.514-.5l-.177-10.111a.514.514,0,0,1,.5-.522l5.387-.183a.506.506,0,0,1,.4.17.512.512,0,0,1,.126.416l-1.465,10.28a.513.513,0,0,1-.506.441l-3.746.014Zm.346-10.128.159,9.1,2.8-.011,1.316-9.234Z" transform="translate(-285.316 -857.087)"/>
              </g>
              <g id="Grupo_897719" data-name="Grupo 897719" transform="translate(0 7.809)">
                <path id="Trazado_624805" data-name="Trazado 624805" d="M282.846,893.684a34.644,34.644,0,0,1-6.584-.037,1.807,1.807,0,0,1-1.615-2.1c.454-2.79,1.722-7.711,3.72-9.969l.987,1.407.586-1.454c.094-.157,2.577-.261,2.629.034l.151,1.419,1.409-1.58-.077,5.187a7.866,7.866,0,0,0,.161,1.706l.37,1.793a3.412,3.412,0,0,1-.807,3.026A1.631,1.631,0,0,1,282.846,893.684Z" transform="translate(-274.11 -880.872)" fill="#fecb2f"/>
                <path id="Trazado_624806" data-name="Trazado 624806" d="M279.016,893.359c-1.057,0-2.316-.047-3.784-.176a2.279,2.279,0,0,1-1.616-.881,2.344,2.344,0,0,1-.461-1.81c.12-.738,1.249-7.3,3.842-10.227a.521.521,0,0,1,.414-.172.514.514,0,0,1,.391.218l.444.632.232-.576a.519.519,0,0,1,.036-.073c.362-.6,2.865-.34,2.889-.336.4.075.635.259.686.546,0,.012,0,.023.005.035l.028.267.638-.715a.514.514,0,0,1,.9.35l-.077,5.187a7.354,7.354,0,0,0,.151,1.594l.37,1.793a3.922,3.922,0,0,1-.935,3.481,2.1,2.1,0,0,1-1.25.726h0A27.461,27.461,0,0,1,279.016,893.359Zm2.846-.65h0Zm-4.506-11.247c-1.713,2.386-2.8,6.81-3.187,9.194a1.3,1.3,0,0,0,.258,1.015,1.264,1.264,0,0,0,.9.489,33.916,33.916,0,0,0,6.485.038,1.2,1.2,0,0,0,.611-.407,2.894,2.894,0,0,0,.678-2.571l-.37-1.793a8.417,8.417,0,0,1-.172-1.818l.057-3.809-.492.552a.514.514,0,0,1-.894-.288l-.119-1.118a9.12,9.12,0,0,0-1.765.029l-.494,1.227a.513.513,0,0,1-.9.1Z" transform="translate(-273.125 -879.897)" fill="#fecb2f"/>
              </g>
              <path id="Trazado_624807" data-name="Trazado 624807" d="M282.733,911.262a21.953,21.953,0,0,1-3.784-.336.514.514,0,1,1,.178-1.012,18.385,18.385,0,0,0,6.147.125.513.513,0,0,1,.2,1.007A14.949,14.949,0,0,1,282.733,911.262Z" transform="translate(-276.676 -891.825)"/>
              <path id="Trazado_624808" data-name="Trazado 624808" d="M286.8,900.378h-3.4a.514.514,0,1,1,0-1.027h3.4a.514.514,0,0,1,0,1.027Z" transform="translate(-279.548 -884.882)"/>
            </g>
            <g id="Grupo_897723" data-name="Grupo 897723" transform="translate(35.592 81.241)">
              <g id="Grupo_897721" data-name="Grupo 897721" transform="translate(0.858)">
                <path id="Trazado_624809" data-name="Trazado 624809" d="M381.1,859.324l1.318,11.981,5.04,1.055-.307-14.048Z" transform="translate(-380.583 -857.799)" fill="#fff"/>
                <path id="Trazado_624810" data-name="Trazado 624810" d="M386.468,871.888a.493.493,0,0,1-.105-.011l-5.039-1.055a.513.513,0,0,1-.405-.446L379.6,858.395a.514.514,0,0,1,.426-.563l6.051-1.012a.513.513,0,0,1,.6.495l.307,14.048a.513.513,0,0,1-.513.525Zm-4.57-2,4.042.846-.28-12.809-4.987.834Z" transform="translate(-379.596 -856.813)"/>
              </g>
              <g id="Grupo_897722" data-name="Grupo 897722" transform="translate(0 10.793)">
                <path id="Trazado_624811" data-name="Trazado 624811" d="M378.635,897.754c-.111-2.1-.114-5.966,1.165-7.83l4.032,1.435V890.5a.5.5,0,0,1,.451-.521l2.248-.129a4.889,4.889,0,0,1,2.442.5c2.26,1.111,9.137,3.962,10.091,7.167a1.522,1.522,0,0,1-1.444,1.919c-2.263.065-7.705.136-17.47-.2A1.569,1.569,0,0,1,378.635,897.754Z" transform="translate(-378.077 -889.327)" fill="#fecb2f"/>
                <path id="Trazado_624812" data-name="Trazado 624812" d="M392.123,899.018c-3,0-7.245-.057-12.978-.253a2.071,2.071,0,0,1-2.009-1.971c-.116-2.191-.106-6.164,1.255-8.147a.513.513,0,0,1,.6-.193l3.346,1.191v-.133a1.016,1.016,0,0,1,.935-1.034l2.248-.129a5.4,5.4,0,0,1,2.7.554c.268.132.6.289.984.468,2.959,1.388,8.467,3.971,9.372,7.013a1.961,1.961,0,0,1-.3,1.72,2.087,2.087,0,0,1-1.621.858C395.676,898.991,394.2,899.018,392.123,899.018Zm-13.086-9.456c-.728,1.378-1.046,3.953-.875,7.178h0a1.05,1.05,0,0,0,1.018,1c9.661.33,15.072.265,17.438.2a1.054,1.054,0,0,0,.819-.434.931.931,0,0,0,.148-.825c-.774-2.6-6.211-5.151-8.824-6.376-.389-.182-.728-.342-1-.476a4.417,4.417,0,0,0-2.186-.451l-2.209.127-.005.871a.513.513,0,0,1-.686.484Z" transform="translate(-377.091 -888.34)" fill="#fecb2f"/>
              </g>
              <path id="Trazado_624813" data-name="Trazado 624813" d="M394.493,910.566a96.569,96.569,0,0,1-10.97-.617.514.514,0,0,1,.118-1.02,92.514,92.514,0,0,0,15.717.471.514.514,0,0,1,.078,1.025C399.4,910.426,397.5,910.566,394.493,910.566Z" transform="translate(-381.022 -891.085)"/>
              <path id="Trazado_624814" data-name="Trazado 624814" d="M404.345,896.363a.512.512,0,0,1-.3-.1l-3.881-2.791a.514.514,0,0,1,.6-.834l3.881,2.792a.514.514,0,0,1-.3.93Z" transform="translate(-392.125 -880.312)"/>
            </g>
            <path id="Trazado_624815" data-name="Trazado 624815" d="M315.288,619.5s8.1,54.584,6.561,87.661l-2.254.225a24.353,24.353,0,0,1-3.648.09l-2.137-.107c-9.6-56.012-12.04-58.658-13.909-64.829,0,0-10.706,50.922-11.157,63.027,0,0-5.2.523-7.272-.223-1.113-11.682-1.435-23.775-1.491-31.366-.159-21.727,1.917-31.6,3.055-36.278,1.045-4.3,2.167-7.793,2.986-10.156l2.735-7.8Z" transform="translate(-277.628 -619.504)"/>
            <path id="Trazado_624816" data-name="Trazado 624816" d="M337.232,674.767a.514.514,0,0,1-.5-.612l1.19-6.115c0-.013.005-.026.009-.038a3.746,3.746,0,0,1,2.866-2.687l1.125-.232a.514.514,0,0,1,.208,1.006l-1.124.232a2.723,2.723,0,0,0-2.078,1.935l-1.187,6.1A.514.514,0,0,1,337.232,674.767Z" transform="translate(-314.947 -649.472)" fill="#caddff"/>
            <path id="Trazado_624817" data-name="Trazado 624817" d="M295.533,651.816a.514.514,0,0,1-.084-1.02,8.919,8.919,0,0,0,7.177-5.266.513.513,0,1,1,.95.39,9.926,9.926,0,0,1-7.958,5.889A.515.515,0,0,1,295.533,651.816Z" transform="translate(-287.524 -636.411)" fill="#caddff"/>
            <path id="Trazado_624818" data-name="Trazado 624818" d="M373.919,643.41a.515.515,0,0,1-.2-.042,7.234,7.234,0,0,1-4.464-5.412.514.514,0,0,1,1.02-.123,6.215,6.215,0,0,0,3.853,4.592.514.514,0,0,1-.2.985Z" transform="translate(-336.34 -631.261)" fill="#caddff"/>
          </g>
          <g id="Grupo_897727" data-name="Grupo 897727" transform="translate(0 23.58)">
            <path id="Trazado_624819" data-name="Trazado 624819" d="M287.206,489.225c-4.807.112-15.044.533-21.908,2.117a14.178,14.178,0,0,0-6.334,3.767c-4.147,4.7-11.8,14.841-11.816,25.763a3.062,3.062,0,0,0,2.812,3.053l8.441.7s-1.511,13.319-.944,15.506,7.851,5.047,15.893.789c6.271-3.32,14.287-7.017,20.5-5.738.059.012.678,4.836.737,4.836,1.942.017,5.395-.831,4.985-3.5l-2.8-13.778,10.663-2.915.926-.456a5.447,5.447,0,0,0,2.352-7.546c-3.437-6.145-8.719-16.132-16.64-20.965A15.077,15.077,0,0,0,287.206,489.225Z" transform="translate(-247.147 -489.223)" fill="#fecb2f"/>
            <path id="Trazado_624820" data-name="Trazado 624820" d="M363.26,558.515l16.968-2.315a1.619,1.619,0,0,0,1.391-1.43L384.26,530.3a1.619,1.619,0,0,0-1.828-1.777l-16.969,2.315a1.619,1.619,0,0,0-1.391,1.43l-2.642,24.473A1.618,1.618,0,0,0,363.26,558.515Z" transform="translate(-322.301 -515.058)" fill="#99b9ff"/>
            <g id="Grupo_897725" data-name="Grupo 897725" transform="translate(50.612 24.507)">
              <path id="Trazado_624821" data-name="Trazado 624821" d="M405.939,563.015l-.244,2.466-2.144-.4a16.119,16.119,0,0,1-3.438-1.055l-1.274-.553a1.631,1.631,0,0,0-2.245,1.175c-.445,2.159.169,5.589,7.853,6.748,4.242.64,4.7-4.744,3.773-7.574a2.458,2.458,0,0,0-1.08-1.4A.8.8,0,0,0,405.939,563.015Z" transform="translate(-395.971 -561.796)" fill="#fff"/>
              <path id="Trazado_624822" data-name="Trazado 624822" d="M404.124,570.973a5,5,0,0,1-.739-.057c-3.782-.571-6.324-1.756-7.557-3.524a4.837,4.837,0,0,1-.723-3.836,2.144,2.144,0,0,1,2.952-1.543l1.274.553a15.618,15.618,0,0,0,3.329,1.021l1.594.3.189-1.909v-.008a1.309,1.309,0,0,1,1.974-.974,2.994,2.994,0,0,1,1.3,1.677c.693,2.124.636,5.319-.835,7.057A3.483,3.483,0,0,1,404.124,570.973Zm-6.919-8.11a1.106,1.106,0,0,0-.51.125,1.123,1.123,0,0,0-.584.775,3.784,3.784,0,0,0,.559,3.041c1.065,1.528,3.376,2.569,6.868,3.1a2.627,2.627,0,0,0,2.565-.832c1.171-1.383,1.245-4.23.643-6.075a1.957,1.957,0,0,0-.856-1.115.282.282,0,0,0-.426.207l-.244,2.462a.511.511,0,0,1-.2.36.52.52,0,0,1-.4.094l-2.144-.4a16.661,16.661,0,0,1-3.548-1.089l-1.274-.553A1.106,1.106,0,0,0,397.2,562.863Z" transform="translate(-394.986 -560.81)"/>
            </g>
            <g id="Grupo_897726" data-name="Grupo 897726" transform="translate(1.026 14.8)">
              <path id="Trazado_624823" data-name="Trazado 624823" d="M269.6,536.019a13.12,13.12,0,0,1-2.568,2.607c-3.285,2.514-11.125,8.586-13,10.684-2.383,2.672-3.556,3.708-.58,9.34,4.851,9.181,17.943-17.872,17.943-17.872s4.958.215,5.467-4.174c0,0,2.586.129,3.575-.47a1,1,0,0,0-.56-1.826l-7.138-.348a2.966,2.966,0,0,0-2.506,1.2Z" transform="translate(-251.155 -533.443)" fill="#fff"/>
              <path id="Trazado_624824" data-name="Trazado 624824" d="M255.008,560.077a3.43,3.43,0,0,1-3.019-2.175c-2.937-5.558-2.045-6.907.441-9.687l.21-.235c1.9-2.129,9.771-8.227,13.067-10.75a12.6,12.6,0,0,0,2.468-2.505h0l.639-.862a3.464,3.464,0,0,1,2.939-1.4l7.142.349a1.467,1.467,0,0,1,1.437,1.087,1.5,1.5,0,0,1-.637,1.692,7.827,7.827,0,0,1-3.4.557c-.636,3.243-3.722,4.134-5.586,4.165-1.265,2.564-9.915,19.668-15.64,19.769ZM269,535.337a13.662,13.662,0,0,1-2.669,2.709c-3.273,2.5-11.085,8.554-12.925,10.617l-.211.236c-2.2,2.456-3.018,3.375-.3,8.522.579,1.095,1.27,1.628,2.113,1.628h.036c4.508-.08,12.268-14.091,14.878-19.483a.516.516,0,0,1,.484-.29c.184.01,4.488.135,4.935-3.719a.513.513,0,0,1,.536-.454,8.01,8.01,0,0,0,3.284-.4.477.477,0,0,0,.179-.538.443.443,0,0,0-.474-.335l-7.161-.349a2.466,2.466,0,0,0-2.068.99Z" transform="translate(-250.145 -532.456)"/>
            </g>
          </g>
          <g id="Grupo_897729" data-name="Grupo 897729" transform="translate(20.301 0)">
            <g id="Grupo_897728" data-name="Grupo 897728" transform="translate(3.011 7.384)">
              <path id="Trazado_624825" data-name="Trazado 624825" d="M327.126,459.089l-.338-3.246a.921.921,0,0,1,.666-.846l2.854-.78a.848.848,0,0,0,.615-.819l0-3.459,1.155-.9a.212.212,0,0,0,.042-.293l-1.6-2.2c-.517-.826-.967-2.755-1.439-2.655,0,0-10.434-2.168-11.22,2.74a2.992,2.992,0,0,0,.44,2.049l.8,1.277c.8,1.282.981,7.036.624,8.35a3.206,3.206,0,0,1-1.308,1.823c-.807.542-1.79,1.234-1.641,1.292a14.663,14.663,0,0,0,2.722,1.677c2.983,1.443,7,.189,9.837-1.54C329.326,461.562,327.051,459.932,327.126,459.089Z" transform="translate(-316.236 -442.902)" fill="#fff"/>
              <path id="Trazado_624826" data-name="Trazado 624826" d="M321.45,463.253a7.247,7.247,0,0,1-3.177-.677,15.105,15.105,0,0,1-2.826-1.744h0a.555.555,0,0,1-.2-.355c-.039-.35.036-.52,1.88-1.758a2.7,2.7,0,0,0,1.1-1.531c.341-1.254.113-6.859-.564-7.944l-.8-1.277a3.5,3.5,0,0,1-.511-2.4,3.547,3.547,0,0,1,1.561-2.43c3.01-2.074,9.347-.914,10.187-.748.624-.04.943.757,1.331,1.741a8.432,8.432,0,0,0,.513,1.147l1.589,2.186a.722.722,0,0,1-.142,1l-.956.741,0,3.207a1.366,1.366,0,0,1-.988,1.314l-2.858.782a.4.4,0,0,0-.286.342l.333,3.2a.5.5,0,0,1,0,.1c.01.315.956,1.273,1.987,2.014a.513.513,0,0,1-.032.856A14.494,14.494,0,0,1,321.45,463.253Zm-4.9-2.876a15.539,15.539,0,0,0,2.168,1.273c2.595,1.256,6.07.294,8.688-1.136-.8-.646-1.8-1.615-1.789-2.4l-.334-3.207a.515.515,0,0,1,0-.076,1.43,1.43,0,0,1,1.039-1.317l2.858-.782a.335.335,0,0,0,.236-.323l0-3.459a.515.515,0,0,1,.2-.407l.924-.716-1.429-1.966c-.007-.01-.014-.019-.02-.03a8.711,8.711,0,0,1-.606-1.328,7.152,7.152,0,0,0-.5-1.1h-.005c-.067-.014-6.683-1.357-9.48.572a2.523,2.523,0,0,0-1.129,1.747,2.476,2.476,0,0,0,.368,1.7l.8,1.276c.9,1.441,1.062,7.365.684,8.757a3.722,3.722,0,0,1-1.517,2.114C317.132,459.953,316.775,460.209,316.552,460.377Z" transform="translate(-315.243 -441.913)"/>
            </g>
            <path id="Trazado_624827" data-name="Trazado 624827" d="M323.091,421.225c-2.239-.254.459,2.222-7.717-.67-3.255-1.151-1.792,2.817-2.637,2.521-3.122-1.095-3.014-1.061-4.585-.738-1.04.214-1.81,2.075-1.694,3.5.153,1.885,2.079,4.981,3.774,8.233.878,1.684,2.6,1.938,4.845-.349.239-.243-.807-1.828-.172-2.445,1.651-1.6,2.179,1,3.476.291a18.677,18.677,0,0,0,3.108-2.218c1.618-1.3,4.057,1.028,5.138-2.047C327.192,425.7,326.157,421.572,323.091,421.225Z" transform="translate(-306.447 -420.345)"/>
          </g>
        </g>
      </g>
    </g>
  </g>
</svg>
