<svg xmlns="http://www.w3.org/2000/svg" width="336.578" height="381.579" viewBox="0 0 336.578 381.579">
  <g id="Grupo_897745" data-name="Grupo 897745" transform="translate(-1050.922 -5346.78)">
    <g id="Grupo_894378" data-name="Grupo 894378" transform="translate(1051.461 5347.319)">
      <g id="Grupo_140420" data-name="Grupo 140420" transform="translate(0 0)">
        <g id="Rectángulo_293060" data-name="Rectángulo 293060" transform="translate(48.156 31.933)" fill="none" stroke="#ef3c79" stroke-width="5">
          <rect width="248.265" height="305.742" rx="30" stroke="none"/>
          <rect x="2.5" y="2.5" width="243.265" height="300.742" rx="27.5" fill="none"/>
        </g>
        <g id="Grupo_873686" data-name="Grupo 873686" transform="translate(0 0)">
          <path id="Trazado_1" data-name="Trazado 1" d="M52.145-75.2-45.679,22.625q.679,4.2,1.758,8.247L60.392-73.441Q56.343-74.518,52.145-75.2Z" transform="translate(46.793 76.313)" fill="none" stroke="#8f9294" stroke-miterlimit="10" stroke-width="1.078"/>
          <path id="Trazado_2" data-name="Trazado 2" d="M61.118-72.715-43.195,31.6q1.031,3.875,2.4,7.6L68.72-70.312Q65-71.688,61.118-72.715Z" transform="translate(46.067 75.587)" fill="none" stroke="#8f9294" stroke-miterlimit="10" stroke-width="1.078"/>
          <path id="Trazado_3" data-name="Trazado 3" d="M101.085-48.491-18.971,71.565c1.521,1.807,3.109,3.557,4.774,5.232L106.316-43.717C104.642-45.382,102.892-46.97,101.085-48.491Z" transform="translate(38.984 68.504)" fill="none" stroke="#8f9294" stroke-miterlimit="10" stroke-width="1.078"/>
          <path id="Trazado_4" data-name="Trazado 4" d="M93.635-54.647-25.128,64.117q2.066,2.915,4.357,5.648L99.285-50.291Q96.558-52.587,93.635-54.647Z" transform="translate(40.784 70.304)" fill="none" stroke="#8f9294" stroke-miterlimit="10" stroke-width="1.078"/>
          <path id="Trazado_5" data-name="Trazado 5" d="M77.974-65.12-35.6,48.454c1.064,2.233,2.232,4.406,3.479,6.526L84.5-61.641C82.38-62.888,80.208-64.056,77.974-65.12Z" transform="translate(43.846 73.366)" fill="none" stroke="#8f9294" stroke-miterlimit="10" stroke-width="1.078"/>
          <path id="Trazado_6" data-name="Trazado 6" d="M85.938-60.2-30.684,56.419q1.838,3.126,3.932,6.074L92.011-56.271Q89.063-58.361,85.938-60.2Z" transform="translate(42.409 71.928)" fill="none" stroke="#8f9294" stroke-miterlimit="10" stroke-width="1.078"/>
          <path id="Trazado_7" data-name="Trazado 7" d="M69.713-69.319-39.8,40.193q1.33,3.6,2.971,7.034L76.747-66.348Q73.311-67.983,69.713-69.319Z" transform="translate(45.074 74.594)" fill="none" stroke="#8f9294" stroke-miterlimit="10" stroke-width="1.078"/>
          <path id="Trazado_8" data-name="Trazado 8" d="M-38.97-20.181,9.338-68.489A85.457,85.457,0,0,0-38.97-20.181Z" transform="translate(44.831 74.351)" fill="none" stroke="#8f9294" stroke-miterlimit="10" stroke-width="1.078"/>
          <path id="Trazado_9" data-name="Trazado 9" d="M7.608-70.219-40.7-21.911A84.474,84.474,0,0,0-44.885-7.72L21.8-74.4A84.5,84.5,0,0,0,7.608-70.219Z" transform="translate(46.561 76.081)" fill="none" stroke="#8f9294" stroke-miterlimit="10" stroke-width="1.078"/>
          <path id="Trazado_10" data-name="Trazado 10" d="M42.714-76.583-47.064,13.195a85.437,85.437,0,0,0,.98,9.026L51.74-75.6A85.461,85.461,0,0,0,42.714-76.583Z" transform="translate(47.198 76.717)" fill="none" stroke="#8f9294" stroke-miterlimit="10" stroke-width="1.078"/>
          <path id="Trazado_11" data-name="Trazado 11" d="M37.969-76.773c-1.8,0-3.59.075-5.367.185L-47.068,3.083c-.11,1.776-.185,3.562-.185,5.367,0,1.574.05,3.136.134,4.689L42.659-76.639C41.106-76.723,39.543-76.773,37.969-76.773Z" transform="translate(47.253 76.773)" fill="none" stroke="#8f9294" stroke-miterlimit="10" stroke-width="1.078"/>
          <path id="Trazado_12" data-name="Trazado 12" d="M21.184-75.021-45.5-8.336a85.258,85.258,0,0,0-1.49,11.5l79.67-79.671A85.374,85.374,0,0,0,21.184-75.021Z" transform="translate(47.176 76.696)" fill="none" stroke="#8f9294" stroke-miterlimit="10" stroke-width="1.078"/>
          <path id="Trazado_13" data-name="Trazado 13" d="M151.263,23.422,52.941,121.744a85.3,85.3,0,0,0,8.968,1.037L152.3,32.39A85.254,85.254,0,0,0,151.263,23.422Z" transform="translate(17.959 47.479)" fill="none" stroke="#8f9294" stroke-miterlimit="10" stroke-width="1.078"/>
          <path id="Trazado_14" data-name="Trazado 14" d="M156.191,41.449c0-1.8-.075-3.582-.185-5.354L65.614,126.486c1.773.11,3.554.185,5.354.185,1.542,0,3.072-.046,4.593-.127l80.5-80.5C156.145,44.521,156.191,42.99,156.191,41.449Z" transform="translate(14.254 43.774)" fill="none" stroke="#8f9294" stroke-miterlimit="10" stroke-width="1.078"/>
          <path id="Trazado_15" data-name="Trazado 15" d="M160.174,50.152l-80.5,80.5a85.266,85.266,0,0,0,11.4-1.393L158.78,61.55A85.393,85.393,0,0,0,160.174,50.152Z" transform="translate(10.144 39.664)" fill="none" stroke="#8f9294" stroke-miterlimit="10" stroke-width="1.078"/>
          <path id="Trazado_16" data-name="Trazado 16" d="M163.49,66.26,95.779,133.97a84.538,84.538,0,0,0,13.882-3.876l49.953-49.952A84.693,84.693,0,0,0,163.49,66.26Z" transform="translate(5.435 34.954)" fill="none" stroke="#8f9294" stroke-miterlimit="10" stroke-width="1.078"/>
          <path id="Trazado_17" data-name="Trazado 17" d="M165.349,85.877,115.4,135.829A85.463,85.463,0,0,0,165.349,85.877Z" transform="translate(-0.301 29.219)" fill="none" stroke="#8f9294" stroke-miterlimit="10" stroke-width="1.078"/>
          <path id="Trazado_18" data-name="Trazado 18" d="M146.068,11.837,41.357,116.549q4.024,1.1,8.2,1.807l98.322-98.322Q147.171,15.863,146.068,11.837Z" transform="translate(21.346 50.866)" fill="none" stroke="#8f9294" stroke-miterlimit="10" stroke-width="1.078"/>
          <path id="Trazado_19" data-name="Trazado 19" d="M121.95-26.455,3.065,92.43c1.954,1.4,3.964,2.731,6.037,3.968L125.917-20.418C124.681-22.491,123.352-24.5,121.95-26.455Z" transform="translate(32.541 62.061)" fill="none" stroke="#8f9294" stroke-miterlimit="10" stroke-width="1.078"/>
          <path id="Trazado_20" data-name="Trazado 20" d="M115.238-34.388-4.869,85.719q2.712,2.31,5.614,4.391L119.63-28.774Q117.548-31.674,115.238-34.388Z" transform="translate(34.861 64.381)" fill="none" stroke="#8f9294" stroke-miterlimit="10" stroke-width="1.078"/>
          <path id="Trazado_21" data-name="Trazado 21" d="M140.5,1.157,30.676,110.979q3.7,1.4,7.558,2.448L142.946,8.714Q141.893,4.86,140.5,1.157Z" transform="translate(24.469 53.989)" fill="none" stroke="#8f9294" stroke-miterlimit="10" stroke-width="1.078"/>
          <path id="Trazado_22" data-name="Trazado 22" d="M108.288-41.745-12.225,78.769c1.664,1.674,3.408,3.268,5.205,4.8L113.088-36.539C111.556-38.337,109.963-40.081,108.288-41.745Z" transform="translate(37.012 66.532)" fill="none" stroke="#8f9294" stroke-miterlimit="10" stroke-width="1.078"/>
          <path id="Trazado_23" data-name="Trazado 23" d="M134.606-8.746,20.773,105.086c2.279,1.1,4.621,2.1,7.008,3L137.6-1.738C136.7-4.126,135.709-6.467,134.606-8.746Z" transform="translate(27.364 56.884)" fill="none" stroke="#8f9294" stroke-miterlimit="10" stroke-width="1.078"/>
          <path id="Trazado_24" data-name="Trazado 24" d="M128.412-17.923,11.6,98.892c2.109,1.258,4.271,2.436,6.493,3.511L131.923-11.429C130.847-13.652,129.669-15.814,128.412-17.923Z" transform="translate(30.047 59.567)" fill="none" stroke="#8f9294" stroke-miterlimit="10" stroke-width="1.078"/>
        </g>
        <g id="Grupo_873687" data-name="Grupo 873687" transform="translate(165.022 201.982)">
          <g id="Grupo_68" data-name="Grupo 68" transform="translate(75.174 0)">
            <g id="Grupo_67" data-name="Grupo 67" transform="translate(0)">
              <rect id="Rectángulo_193" data-name="Rectángulo 193" width="3.006" height="3.006" transform="translate(91.592 93.718) rotate(-44.999)" fill="#8f9294"/>
              <rect id="Rectángulo_194" data-name="Rectángulo 194" width="2.853" height="2.853" transform="translate(83.266 85.283) rotate(-45)" fill="#8f9294"/>
              <rect id="Rectángulo_195" data-name="Rectángulo 195" width="2.7" height="2.7" transform="translate(74.939 76.848) rotate(-45)" fill="#8f9294"/>
              <rect id="Rectángulo_196" data-name="Rectángulo 196" width="2.547" height="2.547" transform="matrix(0.707, -0.707, 0.707, 0.707, 66.613, 68.414)" fill="#8f9294"/>
              <rect id="Rectángulo_197" data-name="Rectángulo 197" width="2.394" height="2.394" transform="translate(58.286 59.979) rotate(-45)" fill="#8f9294"/>
              <rect id="Rectángulo_198" data-name="Rectángulo 198" width="2.241" height="2.241" transform="matrix(0.707, -0.707, 0.707, 0.707, 49.959, 51.544)" fill="#8f9294"/>
              <rect id="Rectángulo_199" data-name="Rectángulo 199" width="2.088" height="2.088" transform="translate(41.633 43.109) rotate(-45)" fill="#8f9294"/>
              <rect id="Rectángulo_200" data-name="Rectángulo 200" width="1.935" height="1.935" transform="translate(33.306 34.674) rotate(-45.001)" fill="#8f9294"/>
              <rect id="Rectángulo_201" data-name="Rectángulo 201" width="1.782" height="1.782" transform="translate(24.98 26.239) rotate(-45)" fill="#8f9294"/>
              <rect id="Rectángulo_202" data-name="Rectángulo 202" width="1.629" height="1.629" transform="matrix(0.707, -0.707, 0.707, 0.707, 16.653, 17.805)" fill="#8f9294"/>
              <rect id="Rectángulo_203" data-name="Rectángulo 203" width="1.475" height="1.475" transform="translate(8.327 9.37) rotate(-45)" fill="#8f9294"/>
              <rect id="Rectángulo_204" data-name="Rectángulo 204" width="1.322" height="1.322" transform="matrix(0.707, -0.707, 0.707, 0.707, 0, 0.935)" fill="#8f9294"/>
            </g>
          </g>
          <g id="Grupo_70" data-name="Grupo 70" transform="translate(68.34 6.834)">
            <g id="Grupo_69" data-name="Grupo 69" transform="translate(0 0)">
              <rect id="Rectángulo_205" data-name="Rectángulo 205" width="3.006" height="3.006" transform="translate(91.592 93.718) rotate(-44.999)" fill="#8f9294"/>
              <rect id="Rectángulo_206" data-name="Rectángulo 206" width="2.853" height="2.853" transform="translate(83.266 85.283) rotate(-45)" fill="#8f9294"/>
              <rect id="Rectángulo_207" data-name="Rectángulo 207" width="2.7" height="2.7" transform="translate(74.939 76.848) rotate(-44.999)" fill="#8f9294"/>
              <rect id="Rectángulo_208" data-name="Rectángulo 208" width="2.547" height="2.547" transform="translate(66.613 68.414) rotate(-45)" fill="#8f9294"/>
              <rect id="Rectángulo_209" data-name="Rectángulo 209" width="2.394" height="2.394" transform="translate(58.286 59.979) rotate(-45)" fill="#8f9294"/>
              <rect id="Rectángulo_210" data-name="Rectángulo 210" width="2.241" height="2.241" transform="translate(49.959 51.544) rotate(-45)" fill="#8f9294"/>
              <rect id="Rectángulo_211" data-name="Rectángulo 211" width="2.088" height="2.088" transform="translate(41.633 43.109) rotate(-45)" fill="#8f9294"/>
              <rect id="Rectángulo_212" data-name="Rectángulo 212" width="1.935" height="1.935" transform="translate(33.306 34.674) rotate(-45)" fill="#8f9294"/>
              <rect id="Rectángulo_213" data-name="Rectángulo 213" width="1.782" height="1.782" transform="translate(24.98 26.24) rotate(-45)" fill="#8f9294"/>
              <rect id="Rectángulo_214" data-name="Rectángulo 214" width="1.629" height="1.629" transform="translate(16.653 17.805) rotate(-45)" fill="#8f9294"/>
              <rect id="Rectángulo_215" data-name="Rectángulo 215" width="1.475" height="1.475" transform="translate(8.327 9.37) rotate(-45)" fill="#8f9294"/>
              <rect id="Rectángulo_216" data-name="Rectángulo 216" width="1.322" height="1.322" transform="matrix(0.707, -0.707, 0.707, 0.707, 0, 0.935)" fill="#8f9294"/>
            </g>
          </g>
          <g id="Grupo_72" data-name="Grupo 72" transform="translate(61.506 13.668)">
            <g id="Grupo_71" data-name="Grupo 71" transform="translate(0 0)">
              <rect id="Rectángulo_217" data-name="Rectángulo 217" width="3.006" height="3.006" transform="translate(91.592 93.718) rotate(-44.999)" fill="#8f9294"/>
              <rect id="Rectángulo_218" data-name="Rectángulo 218" width="2.853" height="2.853" transform="translate(83.266 85.283) rotate(-44.999)" fill="#8f9294"/>
              <rect id="Rectángulo_219" data-name="Rectángulo 219" width="2.7" height="2.7" transform="translate(74.939 76.848) rotate(-44.999)" fill="#8f9294"/>
              <rect id="Rectángulo_220" data-name="Rectángulo 220" width="2.547" height="2.547" transform="matrix(0.707, -0.707, 0.707, 0.707, 66.613, 68.413)" fill="#8f9294"/>
              <rect id="Rectángulo_221" data-name="Rectángulo 221" width="2.394" height="2.394" transform="translate(58.286 59.979) rotate(-44.999)" fill="#8f9294"/>
              <rect id="Rectángulo_222" data-name="Rectángulo 222" width="2.241" height="2.241" transform="matrix(0.707, -0.707, 0.707, 0.707, 49.959, 51.544)" fill="#8f9294"/>
              <rect id="Rectángulo_223" data-name="Rectángulo 223" width="2.088" height="2.088" transform="matrix(0.707, -0.707, 0.707, 0.707, 41.633, 43.109)" fill="#8f9294"/>
              <rect id="Rectángulo_224" data-name="Rectángulo 224" width="1.935" height="1.935" transform="translate(33.306 34.674) rotate(-44.999)" fill="#8f9294"/>
              <rect id="Rectángulo_225" data-name="Rectángulo 225" width="1.782" height="1.782" transform="translate(24.98 26.24) rotate(-45)" fill="#8f9294"/>
              <rect id="Rectángulo_226" data-name="Rectángulo 226" width="1.629" height="1.629" transform="translate(16.653 17.805) rotate(-44.998)" fill="#8f9294"/>
              <rect id="Rectángulo_227" data-name="Rectángulo 227" width="1.475" height="1.475" transform="translate(8.327 9.37) rotate(-45)" fill="#8f9294"/>
              <rect id="Rectángulo_228" data-name="Rectángulo 228" width="1.322" height="1.322" transform="matrix(0.707, -0.707, 0.707, 0.707, 0, 0.935)" fill="#8f9294"/>
            </g>
          </g>
          <g id="Grupo_74" data-name="Grupo 74" transform="translate(54.672 20.502)">
            <g id="Grupo_73" data-name="Grupo 73" transform="translate(0 0)">
              <rect id="Rectángulo_229" data-name="Rectángulo 229" width="3.006" height="3.006" transform="translate(91.592 93.718) rotate(-45.001)" fill="#8f9294"/>
              <rect id="Rectángulo_230" data-name="Rectángulo 230" width="2.853" height="2.853" transform="translate(83.266 85.283) rotate(-45.001)" fill="#8f9294"/>
              <rect id="Rectángulo_231" data-name="Rectángulo 231" width="2.7" height="2.7" transform="translate(74.939 76.848) rotate(-45)" fill="#8f9294"/>
              <rect id="Rectángulo_232" data-name="Rectángulo 232" width="2.547" height="2.547" transform="matrix(0.707, -0.707, 0.707, 0.707, 66.613, 68.414)" fill="#8f9294"/>
              <rect id="Rectángulo_233" data-name="Rectángulo 233" width="2.394" height="2.394" transform="translate(58.286 59.979) rotate(-45)" fill="#8f9294"/>
              <rect id="Rectángulo_234" data-name="Rectángulo 234" width="2.241" height="2.241" transform="matrix(0.707, -0.707, 0.707, 0.707, 49.959, 51.544)" fill="#8f9294"/>
              <rect id="Rectángulo_235" data-name="Rectángulo 235" width="2.088" height="2.088" transform="translate(41.633 43.109) rotate(-45)" fill="#8f9294"/>
              <rect id="Rectángulo_236" data-name="Rectángulo 236" width="1.935" height="1.935" transform="translate(33.306 34.674) rotate(-45.001)" fill="#8f9294"/>
              <rect id="Rectángulo_237" data-name="Rectángulo 237" width="1.782" height="1.782" transform="translate(24.98 26.239) rotate(-45)" fill="#8f9294"/>
              <rect id="Rectángulo_238" data-name="Rectángulo 238" width="1.629" height="1.629" transform="translate(16.653 17.805) rotate(-45)" fill="#8f9294"/>
              <rect id="Rectángulo_239" data-name="Rectángulo 239" width="1.475" height="1.475" transform="translate(8.327 9.37) rotate(-45)" fill="#8f9294"/>
              <rect id="Rectángulo_240" data-name="Rectángulo 240" width="1.322" height="1.322" transform="translate(0 0.935) rotate(-44.998)" fill="#8f9294"/>
            </g>
          </g>
          <g id="Grupo_76" data-name="Grupo 76" transform="translate(47.838 27.336)">
            <g id="Grupo_75" data-name="Grupo 75" transform="translate(0 0)">
              <rect id="Rectángulo_241" data-name="Rectángulo 241" width="3.006" height="3.006" transform="translate(91.592 93.718) rotate(-45.001)" fill="#8f9294"/>
              <rect id="Rectángulo_242" data-name="Rectángulo 242" width="2.853" height="2.853" transform="translate(83.266 85.283) rotate(-45.001)" fill="#8f9294"/>
              <rect id="Rectángulo_243" data-name="Rectángulo 243" width="2.7" height="2.7" transform="translate(74.939 76.848) rotate(-45)" fill="#8f9294"/>
              <rect id="Rectángulo_244" data-name="Rectángulo 244" width="2.547" height="2.547" transform="matrix(0.707, -0.707, 0.707, 0.707, 66.613, 68.413)" fill="#8f9294"/>
              <rect id="Rectángulo_245" data-name="Rectángulo 245" width="2.394" height="2.394" transform="translate(58.286 59.979) rotate(-45)" fill="#8f9294"/>
              <rect id="Rectángulo_246" data-name="Rectángulo 246" width="2.241" height="2.241" transform="translate(49.959 51.544) rotate(-45.001)" fill="#8f9294"/>
              <rect id="Rectángulo_247" data-name="Rectángulo 247" width="2.088" height="2.088" transform="translate(41.633 43.109) rotate(-45)" fill="#8f9294"/>
              <rect id="Rectángulo_248" data-name="Rectángulo 248" width="1.935" height="1.935" transform="translate(33.306 34.674) rotate(-45.001)" fill="#8f9294"/>
              <rect id="Rectángulo_249" data-name="Rectángulo 249" width="1.782" height="1.782" transform="translate(24.98 26.239) rotate(-45)" fill="#8f9294"/>
              <rect id="Rectángulo_250" data-name="Rectángulo 250" width="1.629" height="1.629" transform="matrix(0.707, -0.707, 0.707, 0.707, 16.653, 17.805)" fill="#8f9294"/>
              <rect id="Rectángulo_251" data-name="Rectángulo 251" width="1.475" height="1.475" transform="translate(8.327 9.37) rotate(-45)" fill="#8f9294"/>
              <rect id="Rectángulo_252" data-name="Rectángulo 252" width="1.322" height="1.322" transform="matrix(0.707, -0.707, 0.707, 0.707, 0, 0.935)" fill="#8f9294"/>
            </g>
          </g>
          <g id="Grupo_78" data-name="Grupo 78" transform="translate(41.004 34.17)">
            <g id="Grupo_77" data-name="Grupo 77" transform="translate(0 0)">
              <rect id="Rectángulo_253" data-name="Rectángulo 253" width="3.006" height="3.006" transform="translate(91.592 93.718) rotate(-45)" fill="#8f9294"/>
              <rect id="Rectángulo_254" data-name="Rectángulo 254" width="2.853" height="2.853" transform="translate(83.266 85.283) rotate(-45)" fill="#8f9294"/>
              <rect id="Rectángulo_255" data-name="Rectángulo 255" width="2.7" height="2.7" transform="translate(74.939 76.848) rotate(-45.001)" fill="#8f9294"/>
              <rect id="Rectángulo_256" data-name="Rectángulo 256" width="2.547" height="2.547" transform="matrix(0.707, -0.707, 0.707, 0.707, 66.613, 68.413)" fill="#8f9294"/>
              <rect id="Rectángulo_257" data-name="Rectángulo 257" width="2.394" height="2.394" transform="matrix(0.707, -0.707, 0.707, 0.707, 58.286, 59.979)" fill="#8f9294"/>
              <rect id="Rectángulo_258" data-name="Rectángulo 258" width="2.241" height="2.241" transform="matrix(0.707, -0.707, 0.707, 0.707, 49.959, 51.544)" fill="#8f9294"/>
              <rect id="Rectángulo_259" data-name="Rectángulo 259" width="2.088" height="2.088" transform="translate(41.633 43.109) rotate(-45)" fill="#8f9294"/>
              <rect id="Rectángulo_260" data-name="Rectángulo 260" width="1.935" height="1.935" transform="translate(33.306 34.674) rotate(-45.001)" fill="#8f9294"/>
              <rect id="Rectángulo_261" data-name="Rectángulo 261" width="1.782" height="1.782" transform="translate(24.98 26.239) rotate(-45)" fill="#8f9294"/>
              <rect id="Rectángulo_262" data-name="Rectángulo 262" width="1.629" height="1.629" transform="matrix(0.707, -0.707, 0.707, 0.707, 16.653, 17.805)" fill="#8f9294"/>
              <rect id="Rectángulo_263" data-name="Rectángulo 263" width="1.475" height="1.475" transform="translate(8.327 9.37) rotate(-45)" fill="#8f9294"/>
              <rect id="Rectángulo_264" data-name="Rectángulo 264" width="1.322" height="1.322" transform="matrix(0.707, -0.707, 0.707, 0.707, 0, 0.935)" fill="#8f9294"/>
            </g>
          </g>
          <g id="Grupo_80" data-name="Grupo 80" transform="translate(34.17 41.004)">
            <g id="Grupo_79" data-name="Grupo 79" transform="translate(0 0)">
              <rect id="Rectángulo_265" data-name="Rectángulo 265" width="3.006" height="3.006" transform="translate(91.592 93.718) rotate(-44.999)" fill="#8f9294"/>
              <rect id="Rectángulo_266" data-name="Rectángulo 266" width="2.853" height="2.853" transform="translate(83.266 85.283) rotate(-45)" fill="#8f9294"/>
              <rect id="Rectángulo_267" data-name="Rectángulo 267" width="2.7" height="2.7" transform="translate(74.939 76.848) rotate(-44.999)" fill="#8f9294"/>
              <rect id="Rectángulo_268" data-name="Rectángulo 268" width="2.547" height="2.547" transform="translate(66.613 68.413) rotate(-45)" fill="#8f9294"/>
              <rect id="Rectángulo_269" data-name="Rectángulo 269" width="2.394" height="2.394" transform="translate(58.286 59.979) rotate(-44.999)" fill="#8f9294"/>
              <rect id="Rectángulo_270" data-name="Rectángulo 270" width="2.241" height="2.241" transform="matrix(0.707, -0.707, 0.707, 0.707, 49.959, 51.544)" fill="#8f9294"/>
              <rect id="Rectángulo_271" data-name="Rectángulo 271" width="2.088" height="2.088" transform="matrix(0.707, -0.707, 0.707, 0.707, 41.633, 43.109)" fill="#8f9294"/>
              <rect id="Rectángulo_272" data-name="Rectángulo 272" width="1.935" height="1.935" transform="translate(33.306 34.674) rotate(-45.001)" fill="#8f9294"/>
              <rect id="Rectángulo_273" data-name="Rectángulo 273" width="1.782" height="1.782" transform="translate(24.98 26.239) rotate(-45)" fill="#8f9294"/>
              <rect id="Rectángulo_274" data-name="Rectángulo 274" width="1.629" height="1.629" transform="translate(16.653 17.805) rotate(-45.002)" fill="#8f9294"/>
              <rect id="Rectángulo_275" data-name="Rectángulo 275" width="1.475" height="1.475" transform="translate(8.326 9.37) rotate(-45)" fill="#8f9294"/>
              <rect id="Rectángulo_276" data-name="Rectángulo 276" width="1.322" height="1.322" transform="matrix(0.707, -0.707, 0.707, 0.707, 0, 0.935)" fill="#8f9294"/>
            </g>
          </g>
          <g id="Grupo_82" data-name="Grupo 82" transform="translate(27.336 47.838)">
            <g id="Grupo_81" data-name="Grupo 81" transform="translate(0 0)">
              <rect id="Rectángulo_277" data-name="Rectángulo 277" width="3.006" height="3.006" transform="translate(91.592 93.718) rotate(-44.999)" fill="#8f9294"/>
              <rect id="Rectángulo_278" data-name="Rectángulo 278" width="2.853" height="2.853" transform="translate(83.266 85.283) rotate(-45)" fill="#8f9294"/>
              <rect id="Rectángulo_279" data-name="Rectángulo 279" width="2.7" height="2.7" transform="translate(74.939 76.848) rotate(-44.999)" fill="#8f9294"/>
              <rect id="Rectángulo_280" data-name="Rectángulo 280" width="2.547" height="2.547" transform="translate(66.613 68.413) rotate(-45)" fill="#8f9294"/>
              <rect id="Rectángulo_281" data-name="Rectángulo 281" width="2.394" height="2.394" transform="translate(58.286 59.979) rotate(-44.999)" fill="#8f9294"/>
              <rect id="Rectángulo_282" data-name="Rectángulo 282" width="2.241" height="2.241" transform="translate(49.959 51.544) rotate(-45)" fill="#8f9294"/>
              <rect id="Rectángulo_283" data-name="Rectángulo 283" width="2.088" height="2.088" transform="matrix(0.707, -0.707, 0.707, 0.707, 41.633, 43.109)" fill="#8f9294"/>
              <rect id="Rectángulo_284" data-name="Rectángulo 284" width="1.935" height="1.935" transform="translate(33.306 34.674) rotate(-45)" fill="#8f9294"/>
              <rect id="Rectángulo_285" data-name="Rectángulo 285" width="1.782" height="1.782" transform="translate(24.98 26.239) rotate(-45)" fill="#8f9294"/>
              <rect id="Rectángulo_286" data-name="Rectángulo 286" width="1.629" height="1.629" transform="translate(16.653 17.805) rotate(-45)" fill="#8f9294"/>
              <rect id="Rectángulo_287" data-name="Rectángulo 287" width="1.475" height="1.475" transform="translate(8.327 9.37) rotate(-45)" fill="#8f9294"/>
              <rect id="Rectángulo_288" data-name="Rectángulo 288" width="1.322" height="1.322" transform="matrix(0.707, -0.707, 0.707, 0.707, 0, 0.935)" fill="#8f9294"/>
            </g>
          </g>
          <g id="Grupo_84" data-name="Grupo 84" transform="translate(20.502 54.672)">
            <g id="Grupo_83" data-name="Grupo 83" transform="translate(0 0)">
              <rect id="Rectángulo_289" data-name="Rectángulo 289" width="3.006" height="3.006" transform="translate(91.592 93.718) rotate(-44.999)" fill="#8f9294"/>
              <rect id="Rectángulo_290" data-name="Rectángulo 290" width="2.853" height="2.853" transform="translate(83.266 85.283) rotate(-44.999)" fill="#8f9294"/>
              <rect id="Rectángulo_291" data-name="Rectángulo 291" width="2.7" height="2.7" transform="translate(74.939 76.848) rotate(-44.999)" fill="#8f9294"/>
              <rect id="Rectángulo_292" data-name="Rectángulo 292" width="2.547" height="2.547" transform="matrix(0.707, -0.707, 0.707, 0.707, 66.613, 68.413)" fill="#8f9294"/>
              <rect id="Rectángulo_293" data-name="Rectángulo 293" width="2.394" height="2.394" transform="translate(58.286 59.979) rotate(-44.999)" fill="#8f9294"/>
              <rect id="Rectángulo_294" data-name="Rectángulo 294" width="2.241" height="2.241" transform="matrix(0.707, -0.707, 0.707, 0.707, 49.959, 51.544)" fill="#8f9294"/>
              <rect id="Rectángulo_295" data-name="Rectángulo 295" width="2.088" height="2.088" transform="matrix(0.707, -0.707, 0.707, 0.707, 41.633, 43.109)" fill="#8f9294"/>
              <rect id="Rectángulo_296" data-name="Rectángulo 296" width="1.935" height="1.935" transform="translate(33.306 34.674) rotate(-44.999)" fill="#8f9294"/>
              <rect id="Rectángulo_297" data-name="Rectángulo 297" width="1.782" height="1.782" transform="matrix(0.707, -0.707, 0.707, 0.707, 24.98, 26.239)" fill="#8f9294"/>
              <rect id="Rectángulo_298" data-name="Rectángulo 298" width="1.629" height="1.629" transform="translate(16.653 17.805) rotate(-44.998)" fill="#8f9294"/>
              <rect id="Rectángulo_299" data-name="Rectángulo 299" width="1.475" height="1.475" transform="translate(8.327 9.37) rotate(-44.998)" fill="#8f9294"/>
              <rect id="Rectángulo_300" data-name="Rectángulo 300" width="1.322" height="1.322" transform="translate(0 0.935) rotate(-44.998)" fill="#8f9294"/>
            </g>
          </g>
          <g id="Grupo_86" data-name="Grupo 86" transform="translate(13.668 61.506)">
            <g id="Grupo_85" data-name="Grupo 85" transform="translate(0 0)">
              <rect id="Rectángulo_301" data-name="Rectángulo 301" width="3.006" height="3.006" transform="matrix(0.707, -0.707, 0.707, 0.707, 91.592, 93.718)" fill="#8f9294"/>
              <rect id="Rectángulo_302" data-name="Rectángulo 302" width="2.853" height="2.853" transform="translate(83.266 85.283) rotate(-45.001)" fill="#8f9294"/>
              <rect id="Rectángulo_303" data-name="Rectángulo 303" width="2.7" height="2.7" transform="translate(74.939 76.848) rotate(-45.001)" fill="#8f9294"/>
              <rect id="Rectángulo_304" data-name="Rectángulo 304" width="2.547" height="2.547" transform="matrix(0.707, -0.707, 0.707, 0.707, 66.613, 68.414)" fill="#8f9294"/>
              <rect id="Rectángulo_305" data-name="Rectángulo 305" width="2.394" height="2.394" transform="translate(58.286 59.979) rotate(-45)" fill="#8f9294"/>
              <rect id="Rectángulo_306" data-name="Rectángulo 306" width="2.241" height="2.241" transform="translate(49.959 51.544) rotate(-45.001)" fill="#8f9294"/>
              <rect id="Rectángulo_307" data-name="Rectángulo 307" width="2.088" height="2.088" transform="translate(41.633 43.109) rotate(-45)" fill="#8f9294"/>
              <rect id="Rectángulo_308" data-name="Rectángulo 308" width="1.935" height="1.935" transform="translate(33.306 34.674) rotate(-45.001)" fill="#8f9294"/>
              <rect id="Rectángulo_309" data-name="Rectángulo 309" width="1.782" height="1.782" transform="translate(24.98 26.24) rotate(-45)" fill="#8f9294"/>
              <rect id="Rectángulo_310" data-name="Rectángulo 310" width="1.629" height="1.629" transform="translate(16.653 17.805) rotate(-45)" fill="#8f9294"/>
              <rect id="Rectángulo_311" data-name="Rectángulo 311" width="1.475" height="1.475" transform="translate(8.327 9.37) rotate(-45)" fill="#8f9294"/>
              <rect id="Rectángulo_312" data-name="Rectángulo 312" width="1.322" height="1.322" transform="translate(0 0.935) rotate(-45)" fill="#8f9294"/>
            </g>
          </g>
          <g id="Grupo_88" data-name="Grupo 88" transform="translate(6.834 68.34)">
            <g id="Grupo_87" data-name="Grupo 87" transform="translate(0 0)">
              <rect id="Rectángulo_313" data-name="Rectángulo 313" width="3.006" height="3.006" transform="translate(91.592 93.718) rotate(-45)" fill="#8f9294"/>
              <rect id="Rectángulo_314" data-name="Rectángulo 314" width="2.853" height="2.853" transform="translate(83.266 85.283) rotate(-45)" fill="#8f9294"/>
              <rect id="Rectángulo_315" data-name="Rectángulo 315" width="2.7" height="2.7" transform="translate(74.939 76.848) rotate(-45)" fill="#8f9294"/>
              <rect id="Rectángulo_316" data-name="Rectángulo 316" width="2.547" height="2.547" transform="matrix(0.707, -0.707, 0.707, 0.707, 66.613, 68.414)" fill="#8f9294"/>
              <rect id="Rectángulo_317" data-name="Rectángulo 317" width="2.394" height="2.394" transform="translate(58.286 59.979) rotate(-45.001)" fill="#8f9294"/>
              <rect id="Rectángulo_318" data-name="Rectángulo 318" width="2.241" height="2.241" transform="matrix(0.707, -0.707, 0.707, 0.707, 49.959, 51.544)" fill="#8f9294"/>
              <rect id="Rectángulo_319" data-name="Rectángulo 319" width="2.088" height="2.088" transform="translate(41.633 43.109) rotate(-45)" fill="#8f9294"/>
              <rect id="Rectángulo_320" data-name="Rectángulo 320" width="1.935" height="1.935" transform="translate(33.306 34.674) rotate(-45.001)" fill="#8f9294"/>
              <rect id="Rectángulo_321" data-name="Rectángulo 321" width="1.782" height="1.782" transform="translate(24.98 26.239) rotate(-45)" fill="#8f9294"/>
              <rect id="Rectángulo_322" data-name="Rectángulo 322" width="1.629" height="1.629" transform="matrix(0.707, -0.707, 0.707, 0.707, 16.653, 17.805)" fill="#8f9294"/>
              <rect id="Rectángulo_323" data-name="Rectángulo 323" width="1.475" height="1.475" transform="translate(8.327 9.37) rotate(-45)" fill="#8f9294"/>
              <rect id="Rectángulo_324" data-name="Rectángulo 324" width="1.322" height="1.322" transform="matrix(0.707, -0.707, 0.707, 0.707, 0, 0.935)" fill="#8f9294"/>
            </g>
          </g>
          <g id="Grupo_90" data-name="Grupo 90" transform="translate(0 75.174)">
            <g id="Grupo_89" data-name="Grupo 89" transform="translate(0 0)">
              <rect id="Rectángulo_325" data-name="Rectángulo 325" width="3.006" height="3.006" transform="translate(91.592 93.718) rotate(-45)" fill="#8f9294"/>
              <rect id="Rectángulo_326" data-name="Rectángulo 326" width="2.853" height="2.853" transform="translate(83.266 85.283) rotate(-45)" fill="#8f9294"/>
              <rect id="Rectángulo_327" data-name="Rectángulo 327" width="2.7" height="2.7" transform="translate(74.939 76.848) rotate(-45)" fill="#8f9294"/>
              <rect id="Rectángulo_328" data-name="Rectángulo 328" width="2.547" height="2.547" transform="translate(66.613 68.413) rotate(-45)" fill="#8f9294"/>
              <rect id="Rectángulo_329" data-name="Rectángulo 329" width="2.394" height="2.394" transform="translate(58.286 59.979) rotate(-45)" fill="#8f9294"/>
              <rect id="Rectángulo_330" data-name="Rectángulo 330" width="2.241" height="2.241" transform="translate(49.959 51.544) rotate(-45)" fill="#8f9294"/>
              <rect id="Rectángulo_331" data-name="Rectángulo 331" width="2.088" height="2.088" transform="matrix(0.707, -0.707, 0.707, 0.707, 41.633, 43.109)" fill="#8f9294"/>
              <rect id="Rectángulo_332" data-name="Rectángulo 332" width="1.935" height="1.935" transform="translate(33.306 34.674) rotate(-45.001)" fill="#8f9294"/>
              <rect id="Rectángulo_333" data-name="Rectángulo 333" width="1.782" height="1.782" transform="translate(24.98 26.239) rotate(-45.002)" fill="#8f9294"/>
              <rect id="Rectángulo_334" data-name="Rectángulo 334" width="1.629" height="1.629" transform="translate(16.653 17.805) rotate(-45.002)" fill="#8f9294"/>
              <rect id="Rectángulo_335" data-name="Rectángulo 335" width="1.475" height="1.475" transform="matrix(0.707, -0.707, 0.707, 0.707, 8.327, 9.37)" fill="#8f9294"/>
              <rect id="Rectángulo_336" data-name="Rectángulo 336" width="1.322" height="1.322" transform="matrix(0.707, -0.707, 0.707, 0.707, 0, 0.935)" fill="#8f9294"/>
            </g>
          </g>
        </g>
        <ellipse id="Elipse_4760" data-name="Elipse 4760" cx="143.291" cy="143.291" rx="143.291" ry="143.291" transform="translate(3.453 54.285)" fill="#21cbae"/>
        <g id="Grupo_873688" data-name="Grupo 873688" transform="translate(69.804 56.302)">
          <path id="Trazado_34" data-name="Trazado 34" d="M694.325,390.082l-7.008,12.138h14.015Z" transform="translate(-687.318 -288.076)" fill="#fdfdfd"/>
          <path id="Trazado_35" data-name="Trazado 35" d="M694.325,361.354l-7.008,12.138h14.015Z" transform="translate(-687.318 -279.677)" fill="#fdfdfd"/>
          <path id="Trazado_36" data-name="Trazado 36" d="M694.325,332.626l-7.008,12.138h14.015Z" transform="translate(-687.318 -271.278)" fill="#fdfdfd"/>
          <path id="Trazado_37" data-name="Trazado 37" d="M695.541,245.931l-4.065,7.041h8.131Z" transform="translate(-688.533 -245.931)" fill="#f13b76"/>
        </g>
      </g>
      <g id="Grupo_140419" data-name="Grupo 140419" transform="translate(0 277.004)">
        <g id="Grupo_4" data-name="Grupo 4" transform="translate(0)">
          <rect id="Rectángulo_4" data-name="Rectángulo 4" width="3.006" height="3.006" fill="none" stroke="#fecb27" stroke-miterlimit="10" stroke-width="1.078"/>
          <rect id="Rectángulo_5" data-name="Rectángulo 5" width="3.006" height="3.006" transform="translate(22.975)" fill="none" stroke="#fecb27" stroke-miterlimit="10" stroke-width="1.078"/>
          <rect id="Rectángulo_6" data-name="Rectángulo 6" width="3.006" height="3.006" transform="translate(45.951)" fill="none" stroke="#fecb27" stroke-miterlimit="10" stroke-width="1.078"/>
          <rect id="Rectángulo_7" data-name="Rectángulo 7" width="3.006" height="3.006" transform="translate(68.926)" fill="none" stroke="#fecb27" stroke-miterlimit="10" stroke-width="1.078"/>
          <rect id="Rectángulo_8" data-name="Rectángulo 8" width="3.006" height="3.006" transform="translate(91.902)" fill="none" stroke="#fecb27" stroke-miterlimit="10" stroke-width="1.078"/>
          <rect id="Rectángulo_9" data-name="Rectángulo 9" width="3.006" height="3.006" transform="translate(114.877)" fill="none" stroke="#fecb27" stroke-miterlimit="10" stroke-width="1.078"/>
        </g>
        <g id="Grupo_5" data-name="Grupo 5" transform="translate(0 16.748)">
          <rect id="Rectángulo_10" data-name="Rectángulo 10" width="3.006" height="3.006" fill="none" stroke="#fecb27" stroke-miterlimit="10" stroke-width="1.078"/>
          <rect id="Rectángulo_11" data-name="Rectángulo 11" width="3.006" height="3.006" transform="translate(22.975)" fill="none" stroke="#fecb27" stroke-miterlimit="10" stroke-width="1.078"/>
          <rect id="Rectángulo_12" data-name="Rectángulo 12" width="3.006" height="3.006" transform="translate(45.951)" fill="none" stroke="#fecb27" stroke-miterlimit="10" stroke-width="1.078"/>
          <rect id="Rectángulo_13" data-name="Rectángulo 13" width="3.006" height="3.006" transform="translate(68.926)" fill="none" stroke="#fecb27" stroke-miterlimit="10" stroke-width="1.078"/>
          <rect id="Rectángulo_14" data-name="Rectángulo 14" width="3.006" height="3.006" transform="translate(91.902)" fill="none" stroke="#fecb27" stroke-miterlimit="10" stroke-width="1.078"/>
          <rect id="Rectángulo_15" data-name="Rectángulo 15" width="3.006" height="3.006" transform="translate(114.877)" fill="none" stroke="#fecb27" stroke-miterlimit="10" stroke-width="1.078"/>
        </g>
        <g id="Grupo_6" data-name="Grupo 6" transform="translate(0 33.497)">
          <rect id="Rectángulo_16" data-name="Rectángulo 16" width="3.006" height="3.006" fill="none" stroke="#fecb27" stroke-miterlimit="10" stroke-width="1.078"/>
          <rect id="Rectángulo_17" data-name="Rectángulo 17" width="3.006" height="3.006" transform="translate(22.975)" fill="none" stroke="#fecb27" stroke-miterlimit="10" stroke-width="1.078"/>
          <rect id="Rectángulo_18" data-name="Rectángulo 18" width="3.006" height="3.006" transform="translate(45.951)" fill="none" stroke="#fecb27" stroke-miterlimit="10" stroke-width="1.078"/>
          <rect id="Rectángulo_19" data-name="Rectángulo 19" width="3.006" height="3.006" transform="translate(68.926)" fill="none" stroke="#fecb27" stroke-miterlimit="10" stroke-width="1.078"/>
          <rect id="Rectángulo_20" data-name="Rectángulo 20" width="3.006" height="3.006" transform="translate(91.902)" fill="none" stroke="#fecb27" stroke-miterlimit="10" stroke-width="1.078"/>
          <rect id="Rectángulo_21" data-name="Rectángulo 21" width="3.006" height="3.006" transform="translate(114.877)" fill="none" stroke="#fecb27" stroke-miterlimit="10" stroke-width="1.078"/>
        </g>
        <g id="Grupo_7" data-name="Grupo 7" transform="translate(0 50.245)">
          <rect id="Rectángulo_22" data-name="Rectángulo 22" width="3.006" height="3.006" fill="none" stroke="#fecb27" stroke-miterlimit="10" stroke-width="1.078"/>
          <rect id="Rectángulo_23" data-name="Rectángulo 23" width="3.006" height="3.006" transform="translate(22.975)" fill="none" stroke="#fecb27" stroke-miterlimit="10" stroke-width="1.078"/>
          <rect id="Rectángulo_24" data-name="Rectángulo 24" width="3.006" height="3.006" transform="translate(45.951)" fill="none" stroke="#fecb27" stroke-miterlimit="10" stroke-width="1.078"/>
          <rect id="Rectángulo_25" data-name="Rectángulo 25" width="3.006" height="3.006" transform="translate(68.926)" fill="none" stroke="#fecb27" stroke-miterlimit="10" stroke-width="1.078"/>
          <rect id="Rectángulo_26" data-name="Rectángulo 26" width="3.006" height="3.006" transform="translate(91.902)" fill="none" stroke="#fecb27" stroke-miterlimit="10" stroke-width="1.078"/>
          <rect id="Rectángulo_27" data-name="Rectángulo 27" width="3.006" height="3.006" transform="translate(114.877)" fill="none" stroke="#fecb27" stroke-miterlimit="10" stroke-width="1.078"/>
        </g>
        <g id="Grupo_8" data-name="Grupo 8" transform="translate(0 66.994)">
          <rect id="Rectángulo_28" data-name="Rectángulo 28" width="3.006" height="3.006" fill="none" stroke="#fecb27" stroke-miterlimit="10" stroke-width="1.078"/>
          <rect id="Rectángulo_29" data-name="Rectángulo 29" width="3.006" height="3.006" transform="translate(22.975)" fill="none" stroke="#fecb27" stroke-width="1"/>
          <rect id="Rectángulo_30" data-name="Rectángulo 30" width="3.006" height="3.006" transform="translate(45.951)" fill="none" stroke="#fecb27" stroke-width="1"/>
          <rect id="Rectángulo_31" data-name="Rectángulo 31" width="3.006" height="3.006" transform="translate(68.926)" fill="none" stroke="#fecb27" stroke-miterlimit="10" stroke-width="1.078"/>
          <rect id="Rectángulo_32" data-name="Rectángulo 32" width="3.006" height="3.006" transform="translate(91.902)" fill="none" stroke="#fecb27" stroke-miterlimit="10" stroke-width="1.078"/>
          <rect id="Rectángulo_33" data-name="Rectángulo 33" width="3.006" height="3.006" transform="translate(114.877)" fill="none" stroke="#fecb27" stroke-miterlimit="10" stroke-width="1.078"/>
        </g>
        <g id="Grupo_9" data-name="Grupo 9" transform="translate(0 83.742)">
          <rect id="Rectángulo_34" data-name="Rectángulo 34" width="3.006" height="3.006" fill="none" stroke="#fecb27" stroke-miterlimit="10" stroke-width="1.078"/>
          <rect id="Rectángulo_35" data-name="Rectángulo 35" width="3.006" height="3.006" transform="translate(22.975)" fill="none" stroke="#fecb27" stroke-miterlimit="10" stroke-width="1.078"/>
          <rect id="Rectángulo_36" data-name="Rectángulo 36" width="3.006" height="3.006" transform="translate(45.951)" fill="none" stroke="#fecb27" stroke-miterlimit="10" stroke-width="1.078"/>
          <rect id="Rectángulo_37" data-name="Rectángulo 37" width="3.006" height="3.006" transform="translate(68.926)" fill="none" stroke="#fecb27" stroke-width="1"/>
          <rect id="Rectángulo_38" data-name="Rectángulo 38" width="3.006" height="3.006" transform="translate(91.902)" fill="none" stroke="#fecb27" stroke-miterlimit="10" stroke-width="1.078"/>
          <rect id="Rectángulo_39" data-name="Rectángulo 39" width="3.006" height="3.006" transform="translate(114.877)" fill="none" stroke="#fecb27" stroke-miterlimit="10" stroke-width="1.078"/>
        </g>
        <g id="Grupo_10" data-name="Grupo 10" transform="translate(0 100.49)">
          <rect id="Rectángulo_40" data-name="Rectángulo 40" width="3.006" height="3.006" fill="none" stroke="#fecb27" stroke-miterlimit="10" stroke-width="1.078"/>
          <rect id="Rectángulo_41" data-name="Rectángulo 41" width="3.006" height="3.006" transform="translate(22.975)" fill="none" stroke="#fecb27" stroke-miterlimit="10" stroke-width="1.078"/>
          <rect id="Rectángulo_42" data-name="Rectángulo 42" width="3.006" height="3.006" transform="translate(45.951)" fill="none" stroke="#fecb27" stroke-miterlimit="10" stroke-width="1.078"/>
          <rect id="Rectángulo_43" data-name="Rectángulo 43" width="3.006" height="3.006" transform="translate(68.926)" fill="none" stroke="#fecb27" stroke-miterlimit="10" stroke-width="1.078"/>
          <rect id="Rectángulo_44" data-name="Rectángulo 44" width="3.006" height="3.006" transform="translate(91.902)" fill="none" stroke="#fecb27" stroke-width="1"/>
          <rect id="Rectángulo_45" data-name="Rectángulo 45" width="3.006" height="3.006" transform="translate(114.877)" fill="none" stroke="#fecb27" stroke-miterlimit="10" stroke-width="1.078"/>
        </g>
      </g>
    </g>
    <g id="Software_requirement_description" data-name="Software requirement description" transform="translate(1060.884 5401.283)">
      <g id="Grupo_894742" data-name="Grupo 894742" transform="translate(76.51 0.034)">
        <path id="Trazado_623429" data-name="Trazado 623429" d="M871.547,513.008l-1.659-5.7-3.558,1.042a12.756,12.756,0,0,0-2.567-3.193l1.785-3.25-5.209-2.848-1.785,3.25a12.8,12.8,0,0,0-4.079-.441l-1.034-3.552-5.708,1.672,1.034,3.552a12.849,12.849,0,0,0-3.2,2.573l-3.248-1.776-2.863,5.212,3.248,1.776a12.8,12.8,0,0,0-.451,4.077l-3.623,1.228,1.724,5.513,3.558-1.042a12.751,12.751,0,0,0,2.568,3.193l-1.786,3.25,5.209,2.848,1.785-3.25a12.8,12.8,0,0,0,4.079.441l1.034,3.552,5.708-1.672-1.034-3.552a12.857,12.857,0,0,0,3.2-2.573l3.248,1.776,2.863-5.212-3.248-1.776a12.8,12.8,0,0,0,.451-4.077Zm-14.336,8.9a7.485,7.485,0,1,1,5.106-9.294A7.478,7.478,0,0,1,857.211,521.912Z" transform="translate(-838.626 -473.552)" fill="#fecb2f"/>
        <path id="Trazado_623430" data-name="Trazado 623430" d="M1077.245,353.918l-2.111-7.251-4.526,1.326a16.228,16.228,0,0,0-3.266-4.063l2.271-4.135-6.628-3.624-2.271,4.135a16.292,16.292,0,0,0-5.19-.561l-1.315-4.52-7.263,2.127,1.315,4.52a16.35,16.35,0,0,0-4.074,3.274l-4.133-2.259-3.643,6.631,4.133,2.259a16.277,16.277,0,0,0-.574,5.187l-4.61,1.562,2.194,7.014,4.527-1.326a16.224,16.224,0,0,0,3.267,4.063l-2.271,4.135,6.628,3.624,2.271-4.135a16.291,16.291,0,0,0,5.19.561l1.316,4.52,7.262-2.127-1.315-4.52a16.348,16.348,0,0,0,4.074-3.274l4.133,2.259,3.643-6.631-4.132-2.26a16.281,16.281,0,0,0,.574-5.187Zm-18.24,11.329a9.523,9.523,0,1,1,6.5-11.825A9.514,9.514,0,0,1,1059.005,365.247Z" transform="translate(-1005.487 -335.225)" fill="#fecb2f"/>
      </g>
      <g id="Grupo_894771" data-name="Grupo 894771" transform="translate(14.943 0)">
        <g id="Grupo_894743" data-name="Grupo 894743" transform="translate(158.769 0)">
          <path id="Trazado_623431" data-name="Trazado 623431" d="M1582.684,341.818H1479.119a.335.335,0,0,1-.335-.335v-6.148a.335.335,0,0,1,.335-.335h103.565a.335.335,0,0,1,.335.335v6.148A.335.335,0,0,1,1582.684,341.818Zm-103.229-.67h102.894V335.67H1479.454Z" transform="translate(-1478.784 -335)"/>
          <path id="Trazado_623432" data-name="Trazado 623432" d="M1582.684,440.82H1479.119a.335.335,0,0,1-.335-.335V375.823a.335.335,0,0,1,.335-.335h103.565a.335.335,0,0,1,.335.335v64.662A.335.335,0,0,1,1582.684,440.82Zm-103.229-.67h102.894V376.158H1479.454Z" transform="translate(-1478.784 -369.34)"/>
          <path id="Trazado_623433" data-name="Trazado 623433" d="M1494.184,349.536a1.824,1.824,0,1,1,1.85-1.824A1.839,1.839,0,0,1,1494.184,349.536Zm0-2.978a1.154,1.154,0,1,0,1.18,1.154A1.168,1.168,0,0,0,1494.184,346.558Z" transform="translate(-1490.276 -344.235)"/>
          <path id="Trazado_623434" data-name="Trazado 623434" d="M1528.845,349.536a1.824,1.824,0,1,1,1.85-1.824A1.839,1.839,0,0,1,1528.845,349.536Zm0-2.978a1.154,1.154,0,1,0,1.179,1.154A1.168,1.168,0,0,0,1528.845,346.558Z" transform="translate(-1519.674 -344.235)"/>
          <path id="Trazado_623435" data-name="Trazado 623435" d="M1563.506,349.536a1.824,1.824,0,1,1,1.85-1.824A1.839,1.839,0,0,1,1563.506,349.536Zm0-2.978a1.154,1.154,0,1,0,1.179,1.154A1.168,1.168,0,0,0,1563.506,346.558Z" transform="translate(-1549.073 -344.235)"/>
        </g>
        <g id="Grupo_894746" data-name="Grupo 894746" transform="translate(159.963 3.917)">
          <g id="Grupo_894744" data-name="Grupo 894744" transform="translate(49.667 43.439)">
            <path id="Trazado_623436" data-name="Trazado 623436" d="M1873.779,657.742l4.074,14.487,25.437,0-3.055-10.113h0l-7.2-13.033Z" transform="translate(-1864.663 -648.752)" fill="#fed101"/>
            <path id="Trazado_623437" data-name="Trazado 623437" d="M2008.99,671a.336.336,0,0,1-.322-.243c-.026-.092-2.642-9.252-3.573-11.351-1.373-3.094-6.593-11.935-6.646-12.024a.335.335,0,1,1,.577-.341c.215.365,5.292,8.963,6.681,12.093.95,2.142,3.5,11.06,3.6,11.439a.335.335,0,0,1-.323.427Z" transform="translate(-1970.364 -646.88)"/>
            <path id="Trazado_623438" data-name="Trazado 623438" d="M1851.315,692.6l-6.86-19.5-19.309,7.553.076,11.945Z" transform="translate(-1823.415 -669.124)" fill="#fed101"/>
            <path id="Trazado_623439" data-name="Trazado 623439" d="M1815.476,667.3l30.775-9.91-3.974-7.006-28.532,11.576Z" transform="translate(-1813.745 -649.853)" fill="#020202"/>
          </g>
          <path id="Trazado_623440" data-name="Trazado 623440" d="M1573.361,442.417l-78.75.366a8,8,0,1,0,.067,16l20.364-.095,20.1,31.429,32.683-13.635-10.36-17.992,15.968-.074a8,8,0,1,0-.067-16Z" transform="translate(-1486.644 -430.024)" fill="#ef3c79"/>
          <g id="Grupo_894745" data-name="Grupo 894745" transform="translate(23.625)">
            <path id="Trazado_623441" data-name="Trazado 623441" d="M1688.937,430.673h5.27v-29.1l-4.219-4.259Z" transform="translate(-1681.845 -391.769)"/>
            <path id="Trazado_623442" data-name="Trazado 623442" d="M1735.878,425.127l-3.467,5.683-5.906-9.237,5.04-3.223Z" transform="translate(-1713.709 -409.612)" fill="#955b50"/>
            <path id="Trazado_623443" data-name="Trazado 623443" d="M1732.767,420.26l-1.221-1.91-5.04,3.223,2.7,4.216a5.629,5.629,0,0,0,2.314-1.675A5.806,5.806,0,0,0,1732.767,420.26Z" transform="translate(-1713.709 -409.611)"/>
            <path id="Trazado_623444" data-name="Trazado 623444" d="M1712.261,385.411c1.635,2.557,1.056,6.319-1.546,7.839a4.8,4.8,0,0,1-6.771-2.279c-1.218-2.552-.679-5.737,1.474-7.216A4.759,4.759,0,0,1,1712.261,385.411Z" transform="translate(-1694.032 -379.561)" fill="#955b50"/>
            <path id="Trazado_623445" data-name="Trazado 623445" d="M1724.125,427.535a3.029,3.029,0,0,1-4.981,1.45Z" transform="translate(-1707.466 -417.401)" fill="#fff"/>
            <path id="Trazado_623446" data-name="Trazado 623446" d="M1655.71,367.614s-7.719-4.164-4.131,23.281l1.6,11.226h-10.942s5.667-24.5,6.081-26.541c1.173-5.784,1.786-13.135,6.988-11.952Z" transform="translate(-1642.234 -363.09)"/>
            <path id="Trazado_623447" data-name="Trazado 623447" d="M1733.656,399.827h10.561s-6.08-28.929-6.49-31.273a10.247,10.247,0,0,0-3.4-6.106c-1.021-.829-3.41-2.514-6.015-1.114l.406,3.986a2.886,2.886,0,0,1,3.413.479c1.943,2.568,1.664,6.457,1.664,6.457Z" transform="translate(-1715.239 -360.797)"/>
            <path id="Trazado_623448" data-name="Trazado 623448" d="M1787.619,401.227l2.51,6.433-1.893.031Z" transform="translate(-1765.543 -395.088)"/>
          </g>
        </g>
        <g id="Grupo_894761" data-name="Grupo 894761" transform="translate(0 42.612)">
          <g id="Grupo_894749" data-name="Grupo 894749">
            <g id="Grupo_894747" data-name="Grupo 894747">
              <rect id="Rectángulo_301381" data-name="Rectángulo 301381" width="211.026" height="142.042" transform="translate(0.335 0.335)" fill="#fff"/>
              <path id="Trazado_623449" data-name="Trazado 623449" d="M644.515,758.349H433.489a.335.335,0,0,1-.335-.335V615.972a.335.335,0,0,1,.335-.335H644.515a.335.335,0,0,1,.335.335V758.014A.335.335,0,0,1,644.515,758.349Zm-210.691-.67H644.18V616.307H433.824Z" transform="translate(-433.154 -615.637)"/>
            </g>
            <g id="Grupo_894748" data-name="Grupo 894748" transform="translate(8.159 8.272)">
              <rect id="Rectángulo_301382" data-name="Rectángulo 301382" width="194.374" height="125.498" transform="translate(0.335 0.335)" fill="#fff"/>
              <path id="Trazado_623450" data-name="Trazado 623450" d="M681.595,796.285H487.22a.335.335,0,0,1-.335-.335v-125.5a.335.335,0,0,1,.335-.335H681.595a.335.335,0,0,1,.335.335v125.5A.335.335,0,0,1,681.595,796.285Zm-194.039-.67h193.7V670.787h-193.7Z" transform="translate(-486.885 -670.117)"/>
            </g>
            <path id="Trazado_623451" data-name="Trazado 623451" d="M975.67,1596.6h-66.6a.335.335,0,0,1-.335-.335v-44.83a.335.335,0,0,1,.335-.335h66.6a.335.335,0,0,1,.335.335v44.83A.335.335,0,0,1,975.67,1596.6Zm-66.266-.67h65.931v-44.159H909.4Z" transform="translate(-836.52 -1409.063)"/>
            <path id="Trazado_623452" data-name="Trazado 623452" d="M784.16,1867.466H634.037a.335.335,0,0,1-.246-.563l1.632-1.758a58.986,58.986,0,0,1,43.1-18.8h61.152a58.987,58.987,0,0,1,43.1,18.8l1.632,1.758a.335.335,0,0,1-.246.563Zm-149.355-.671H783.392l-1.109-1.195a58.313,58.313,0,0,0-42.608-18.585H678.523a58.314,58.314,0,0,0-42.608,18.585Z" transform="translate(-603.25 -1659.474)"/>
          </g>
          <g id="Grupo_894760" data-name="Grupo 894760" transform="translate(15.884 18.924)">
            <g id="Grupo_894759" data-name="Grupo 894759">
              <rect id="Rectángulo_301383" data-name="Rectángulo 301383" width="111.435" height="106.651" fill="#21cbae"/>
              <g id="Grupo_894758" data-name="Grupo 894758" transform="translate(12.57 12.041)">
                <rect id="Rectángulo_301384" data-name="Rectángulo 301384" width="38.832" height="2.816" transform="translate(10.144 24.452)" fill="#fff"/>
                <g id="Grupo_894750" data-name="Grupo 894750" transform="translate(10.144 8.197)">
                  <rect id="Rectángulo_301385" data-name="Rectángulo 301385" width="17.986" height="2.816" fill="#fff"/>
                  <rect id="Rectángulo_301386" data-name="Rectángulo 301386" width="10.768" height="2.816" transform="translate(21.699)" fill="#fff"/>
                </g>
                <rect id="Rectángulo_301387" data-name="Rectángulo 301387" width="14.937" height="2.816" transform="translate(16.054 56.964)" fill="#fed101"/>
                <g id="Grupo_894751" data-name="Grupo 894751" transform="translate(0 81.347)">
                  <rect id="Rectángulo_301388" data-name="Rectángulo 301388" width="18.764" height="2.816" fill="#fed101"/>
                  <rect id="Rectángulo_301389" data-name="Rectángulo 301389" width="41.259" height="2.816" transform="translate(21.923)" fill="#fff"/>
                </g>
                <g id="Grupo_894752" data-name="Grupo 894752" transform="translate(22.775 48.836)">
                  <rect id="Rectángulo_301390" data-name="Rectángulo 301390" width="36.713" height="2.816" transform="translate(31.108)" fill="#fed101"/>
                  <rect id="Rectángulo_301391" data-name="Rectángulo 301391" width="19.836" height="2.816" fill="#fff"/>
                  <rect id="Rectángulo_301392" data-name="Rectángulo 301392" width="5.328" height="2.816" transform="translate(22.619)" fill="#fed101"/>
                </g>
                <g id="Grupo_894753" data-name="Grupo 894753" transform="translate(8.836 65.091)">
                  <rect id="Rectángulo_301393" data-name="Rectángulo 301393" width="15.394" height="2.816" fill="#fed101"/>
                  <rect id="Rectángulo_301394" data-name="Rectángulo 301394" width="17.455" height="2.816" transform="translate(43.083)" fill="#fff"/>
                  <rect id="Rectángulo_301395" data-name="Rectángulo 301395" width="23.205" height="2.816" transform="translate(18.312)" fill="#fff"/>
                  <rect id="Rectángulo_301396" data-name="Rectángulo 301396" width="5.328" height="2.816" transform="translate(63.288)" fill="#fff"/>
                </g>
                <g id="Grupo_894754" data-name="Grupo 894754" transform="translate(15.668 40.681)">
                  <rect id="Rectángulo_301397" data-name="Rectángulo 301397" width="14.213" height="2.816" fill="#fff"/>
                  <rect id="Rectángulo_301398" data-name="Rectángulo 301398" width="17.425" height="2.816" transform="translate(16.716)" fill="#fed101"/>
                  <rect id="Rectángulo_301399" data-name="Rectángulo 301399" width="13.516" height="2.816" transform="translate(37.264)" fill="#fff"/>
                  <rect id="Rectángulo_301400" data-name="Rectángulo 301400" width="5.328" height="2.816" transform="translate(54.606 0.054)" fill="#fff"/>
                </g>
                <rect id="Rectángulo_301401" data-name="Rectángulo 301401" width="34.558" height="2.815" transform="translate(23.247 32.58)" fill="#fed101"/>
                <g id="Grupo_894755" data-name="Grupo 894755" transform="translate(2.664)">
                  <rect id="Rectángulo_301402" data-name="Rectángulo 301402" width="34.267" height="2.816" fill="#fed101"/>
                  <rect id="Rectángulo_301403" data-name="Rectángulo 301403" width="32.491" height="2.816" transform="translate(40.483 0.138)" fill="#fff"/>
                  <rect id="Rectángulo_301404" data-name="Rectángulo 301404" width="10.62" height="2.816" transform="translate(77.311 0.138)" fill="#fff"/>
                </g>
                <g id="Grupo_894756" data-name="Grupo 894756" transform="translate(16.429 73.219)">
                  <rect id="Rectángulo_301405" data-name="Rectángulo 301405" width="33.845" height="2.816" transform="translate(38.772)" fill="#fff"/>
                  <rect id="Rectángulo_301406" data-name="Rectángulo 301406" width="21.412" height="2.816" fill="#fff"/>
                </g>
                <g id="Grupo_894757" data-name="Grupo 894757" transform="translate(6.682 16.301)">
                  <rect id="Rectángulo_301407" data-name="Rectángulo 301407" width="6.776" height="2.816" transform="translate(63.247 0.048)" fill="#fff"/>
                  <rect id="Rectángulo_301408" data-name="Rectángulo 301408" width="17.014" height="2.816" fill="#fed101"/>
                  <rect id="Rectángulo_301409" data-name="Rectángulo 301409" width="38.319" height="2.816" transform="translate(21.448 0.048)" fill="#fed101"/>
                </g>
              </g>
            </g>
          </g>
        </g>
        <g id="Grupo_894766" data-name="Grupo 894766" transform="translate(152.382 23.574)">
          <g id="Grupo_894764" data-name="Grupo 894764" transform="translate(0 24.939)">
            <g id="Grupo_894762" data-name="Grupo 894762" transform="translate(0.335)">
              <path id="Trazado_623453" data-name="Trazado 623453" d="M1485.061,794.963l-3.3.574.727,6.72a1.61,1.61,0,0,0,1.842,1.5,1.882,1.882,0,0,0,1.454-2.078Z" transform="translate(-1475.26 -773.635)" fill="#955b50"/>
              <path id="Trazado_623454" data-name="Trazado 623454" d="M1462,786.9l-3.3.574.727,6.72a1.61,1.61,0,0,0,1.842,1.5,1.882,1.882,0,0,0,1.455-2.078Z" transform="translate(-1455.697 -766.795)" fill="#955b50"/>
              <path id="Trazado_623455" data-name="Trazado 623455" d="M1441.868,786.673l-2.944.512.649,6a1.438,1.438,0,0,0,1.645,1.344,1.681,1.681,0,0,0,1.3-1.856Z" transform="translate(-1438.924 -766.604)" fill="#955b50"/>
              <path id="Trazado_623456" data-name="Trazado 623456" d="M1492.894,805.45l-3.225-.709-2.873,13.048a1.651,1.651,0,1,0,3.225.708Z" transform="translate(-1479.493 -781.928)" fill="#955b50"/>
              <path id="Trazado_623457" data-name="Trazado 623457" d="M1521.773,735.276l-4.535,5,5.972,9.91a1.545,1.545,0,0,0,2.246.642,1.956,1.956,0,0,0,.682-2.484l-2.345-4.687Z" transform="translate(-1505.347 -723.011)" fill="#955b50"/>
              <path id="Trazado_623458" data-name="Trazado 623458" d="M1455.217,666.525l1.146-10.92-12.323-1.1-1.147,9.7-3.945,10.867,13.4,2.956Z" transform="translate(-1438.945 -654.501)" fill="#955b50"/>
            </g>
            <path id="Trazado_623459" data-name="Trazado 623459" d="M1481.553,655.6l-12.323-1.1-.582,3.576,12.14,5.072Z" transform="translate(-1463.8 -654.501)" fill="#020202"/>
            <g id="Grupo_894763" data-name="Grupo 894763" transform="translate(0 1.555)">
              <path id="Trazado_623460" data-name="Trazado 623460" d="M1482.046,809.446a.317.317,0,0,1-.055,0,1.737,1.737,0,0,1-1.328-1.74l-.659-5.99a.335.335,0,1,1,.666-.073l.659,5.99c.1.916.429,1.095.772,1.152a.335.335,0,0,1-.055.666Z" transform="translate(-1473.429 -780.599)"/>
              <path id="Trazado_623461" data-name="Trazado 623461" d="M1459.611,801.492a1.833,1.833,0,0,1-1.108-.374,2.1,2.1,0,0,1-.8-1.453l-.641-5.986a.335.335,0,1,1,.666-.071l.641,5.986a1.425,1.425,0,0,0,.538.989,1.165,1.165,0,0,0,.914.221,1.545,1.545,0,0,0,1.179-1.712l-.453-4.192a.335.335,0,1,1,.666-.072l.453,4.192a2.224,2.224,0,0,1-1.73,2.445A1.9,1.9,0,0,1,1459.611,801.492Z" transform="translate(-1453.97 -773.787)"/>
              <path id="Trazado_623462" data-name="Trazado 623462" d="M1439.108,795.875a1.672,1.672,0,0,1-1.012-.341,1.907,1.907,0,0,1-.729-1.323l-.649-6a.335.335,0,1,1,.666-.072l.649,6a1.236,1.236,0,0,0,.466.859,1.007,1.007,0,0,0,.789.191,1.344,1.344,0,0,0,1.023-1.49l-.5-4.659a.335.335,0,1,1,.666-.072l.5,4.659a2.022,2.022,0,0,1-1.574,2.222A1.742,1.742,0,0,1,1439.108,795.875Z" transform="translate(-1436.716 -769.148)"/>
              <path id="Trazado_623463" data-name="Trazado 623463" d="M1486.534,817.911a1.985,1.985,0,0,1-1.939-2.413l2.59-13.1a.335.335,0,0,1,.658.13l-2.592,13.11a1.316,1.316,0,1,0,2.569.572l2.874-13.048a.335.335,0,0,1,.655.144l-2.874,13.048A1.99,1.99,0,0,1,1486.534,817.911Z" transform="translate(-1477.284 -781.266)"/>
              <path id="Trazado_623464" data-name="Trazado 623464" d="M1535.059,697.7a1.837,1.837,0,0,1-.5-.069,1.915,1.915,0,0,1-1.2-1.011l-3.753-6.226a.335.335,0,1,1,.574-.346l3.766,6.249a1.275,1.275,0,0,0,.794.688,1.219,1.219,0,0,0,.987-.157,1.616,1.616,0,0,0,.56-2.05l-2.345-4.687a.35.35,0,0,1-.025-.068l-2.173-8.625a.342.342,0,0,1-.008-.119l1.021-9.041a.335.335,0,1,1,.666.075l-1.015,8.98,2.15,8.53,2.329,4.654a2.3,2.3,0,0,1-.8,2.918A1.921,1.921,0,0,1,1535.059,697.7Z" transform="translate(-1515.462 -670.847)"/>
              <path id="Trazado_623465" data-name="Trazado 623465" d="M1525.306,779.459a.329.329,0,0,1-.087-.011.335.335,0,0,1-.237-.411l1.367-5.086a.335.335,0,0,1,.647.174l-1.367,5.086A.335.335,0,0,1,1525.306,779.459Z" transform="translate(-1511.57 -757.158)"/>
              <path id="Trazado_623466" data-name="Trazado 623466" d="M1437.073,684.087a.335.335,0,0,1-.315-.449l3.933-10.832.944-7.769a.335.335,0,1,1,.666.081l-.949,7.807a.347.347,0,0,1-.018.074l-3.946,10.867A.335.335,0,0,1,1437.073,684.087Z" transform="translate(-1436.734 -664.742)"/>
            </g>
          </g>
          <g id="Grupo_894765" data-name="Grupo 894765" transform="translate(3.061)">
            <path id="Trazado_623467" data-name="Trazado 623467" d="M1456.873,518.623l15.413,1.271,2.9-28.9-13.717-.738Z" transform="translate(-1456.873 -490.255)" fill="#ef3c79"/>
            <path id="Trazado_623468" data-name="Trazado 623468" d="M1556.512,522.486l-.034,0a.336.336,0,0,1-.3-.367l2.9-28.9a.335.335,0,0,1,.667.067l-2.9,28.9A.335.335,0,0,1,1556.512,522.486Z" transform="translate(-1541.098 -492.512)"/>
          </g>
        </g>
        <g id="Grupo_894770" data-name="Grupo 894770" transform="translate(200.027 16.095)">
          <g id="Grupo_894767" data-name="Grupo 894767" transform="translate(16.801 0)">
            <rect id="Rectángulo_301410" data-name="Rectángulo 301410" width="29.787" height="16.167" transform="translate(0.335 16.046) rotate(-32.595)" fill="#ef3c79"/>
            <path id="Trazado_623469" data-name="Trazado 623469" d="M1870.192,480.541a.333.333,0,0,1-.072-.008.337.337,0,0,1-.21-.147l-8.709-13.62a.336.336,0,0,1,.1-.463l21.9-14a.335.335,0,0,1,.361.565l-21.619,13.823,8.348,13.056,8.822-5.641a.335.335,0,1,1,.361.565l-9.1,5.822A.336.336,0,0,1,1870.192,480.541Z" transform="translate(-1861.148 -450.539)"/>
          </g>
          <g id="Grupo_894769" data-name="Grupo 894769" transform="translate(0 17.862)">
            <path id="Trazado_623470" data-name="Trazado 623470" d="M1767.26,564.054c-1.083.693-2.667-.4-5.111,1.164l-5.894,3.769a7.455,7.455,0,0,0-3.321,4.959l-.192,1.068a2.034,2.034,0,0,0,.916,2.081h.016l-.217,1.2a2.035,2.035,0,0,0,1.153,2.21l-.13.72a2.035,2.035,0,0,0,1.252,2.252l.785.311a1.868,1.868,0,0,0,3.71.358l.214-1.308a2.229,2.229,0,0,1,1-1.518l6.184-3.954,3.259-2.084,6.23-3.983-6.148-9.616Z" transform="translate(-1752.373 -561.221)" fill="#955b50"/>
            <path id="Trazado_623471" data-name="Trazado 623471" d="M1850.371,563.876l9.577,7.424-6.149-9.616Z" transform="translate(-1835.206 -561.221)" fill="#020202"/>
            <g id="Grupo_894768" data-name="Grupo 894768">
              <path id="Trazado_623472" data-name="Trazado 623472" d="M1756.734,629.821a.338.338,0,0,1-.14-.03,2.368,2.368,0,0,1-1.343-2.573l.34-1.887a5.9,5.9,0,0,1,2.621-3.914l3.021-1.931a.335.335,0,0,1,.361.565l-3.021,1.931a5.228,5.228,0,0,0-2.323,3.468l-.34,1.887a1.7,1.7,0,0,0,.963,1.845.335.335,0,0,1-.14.64Z" transform="translate(-1754.497 -610.201)"/>
              <path id="Trazado_623473" data-name="Trazado 623473" d="M1764.371,647.216a.333.333,0,0,1-.123-.024l-.792-.314a2.377,2.377,0,0,1-1.459-2.623l.407-2.263a5.027,5.027,0,0,1,2.232-3.333l3.973-2.54a.335.335,0,1,1,.362.565l-3.973,2.54a4.351,4.351,0,0,0-1.933,2.886l-.407,2.264a1.7,1.7,0,0,0,1.046,1.881l.792.314a.335.335,0,0,1-.124.647Z" transform="translate(-1760.219 -624.31)"/>
              <path id="Trazado_623474" data-name="Trazado 623474" d="M1765.75,575.118a.335.335,0,0,1-.181-.618l9.208-5.887-5.787-9.051-3.424,2.189a3.013,3.013,0,0,1-1.747.311,5.32,5.32,0,0,0-3.364.853l-5.894,3.769a7.139,7.139,0,0,0-3.172,4.736l-.192,1.068a1.691,1.691,0,0,0,.765,1.738.335.335,0,1,1-.358.567,2.359,2.359,0,0,1-1.067-2.424l.192-1.068a7.814,7.814,0,0,1,3.47-5.182l5.894-3.769a6.052,6.052,0,0,1,3.736-.958,2.471,2.471,0,0,0,1.375-.206l3.989-2.55,6.509,10.18-9.771,6.248A.336.336,0,0,1,1765.75,575.118Z" transform="translate(-1750.497 -558.637)"/>
              <path id="Trazado_623475" data-name="Trazado 623475" d="M1777.763,633.362a2.207,2.207,0,0,1-2.171-2.6l.425-2.361a5.108,5.108,0,0,1,2.269-3.388l3.307-2.114a.335.335,0,0,1,.361.565l-3.306,2.114a4.433,4.433,0,0,0-1.97,2.942l-.425,2.362a1.535,1.535,0,1,0,3.025.518l.214-1.308a2.569,2.569,0,0,1,1.149-1.747l9.443-6.038a5.54,5.54,0,0,0,2.555-4.522.34.34,0,0,1,.344-.326.336.336,0,0,1,.326.344,6.211,6.211,0,0,1-2.864,5.068L1781,628.913a1.894,1.894,0,0,0-.849,1.29l-.214,1.308a2.209,2.209,0,0,1-2.176,1.851Z" transform="translate(-1771.752 -608.531)"/>
            </g>
          </g>
        </g>
      </g>
      <g id="Grupo_894772" data-name="Grupo 894772" transform="translate(203.49 168.464)">
        <path id="Trazado_623476" data-name="Trazado 623476" d="M1736.671,1494.017l3.782-10.87-6.793-2.351a24.739,24.739,0,0,0-.47-7.931l6.473-3.13-5.033-10.354-6.472,3.13a24.839,24.839,0,0,0-5.952-5.28l2.357-6.775-10.9-3.772-2.357,6.776a24.923,24.923,0,0,0-7.952.469l-3.138-6.456-10.381,5.02,3.138,6.456a24.813,24.813,0,0,0-5.294,5.936l-7.106-2.13-3.469,10.65,6.793,2.351a24.729,24.729,0,0,0,.47,7.931l-6.473,3.13,5.033,10.354,6.473-3.13a24.83,24.83,0,0,0,5.952,5.28l-2.357,6.776,10.9,3.772,2.357-6.776a24.917,24.917,0,0,0,7.952-.469l3.138,6.456,10.381-5.02-3.138-6.456a24.82,24.82,0,0,0,5.294-5.936Zm-32.661-2.034a14.513,14.513,0,1,1,18.512-8.952A14.5,14.5,0,0,1,1704.01,1491.983Z" transform="translate(-1676.769 -1446.349)" fill="#fecb2f"/>
        <path id="Trazado_623477" data-name="Trazado 623477" d="M1702.021,1508.328a.339.339,0,0,1-.11-.018l-10.9-3.772a.335.335,0,0,1-.207-.427l2.27-6.526a25.137,25.137,0,0,1-5.639-5l-6.236,3.015a.335.335,0,0,1-.447-.155l-5.032-10.354a.335.335,0,0,1,.155-.448l6.234-3.015a25.032,25.032,0,0,1-.445-7.514l-6.544-2.264a.335.335,0,0,1-.209-.421l3.469-10.65a.334.334,0,0,1,.415-.217l6.864,2.058a25.126,25.126,0,0,1,5.023-5.634l-3.022-6.218a.335.335,0,0,1,.155-.448l10.381-5.02a.336.336,0,0,1,.448.155l3.023,6.219a25.205,25.205,0,0,1,7.535-.444l2.271-6.526a.334.334,0,0,1,.426-.207l10.9,3.772a.335.335,0,0,1,.207.427l-2.27,6.527a25.09,25.09,0,0,1,5.639,5l6.236-3.015a.336.336,0,0,1,.448.155l5.033,10.354a.336.336,0,0,1-.156.448l-6.234,3.015a25.027,25.027,0,0,1,.445,7.514l6.544,2.264a.335.335,0,0,1,.207.427l-3.782,10.871a.336.336,0,0,1-.426.207l-6.544-2.265a25.121,25.121,0,0,1-5.016,5.625l3.022,6.218a.336.336,0,0,1-.155.448l-10.381,5.019a.335.335,0,0,1-.447-.155l-3.023-6.219a25.235,25.235,0,0,1-7.536.444l-2.27,6.526A.335.335,0,0,1,1702.021,1508.328Zm-10.472-4.314,10.265,3.552,2.247-6.46a.343.343,0,0,1,.351-.223,24.543,24.543,0,0,0,7.845-.463.337.337,0,0,1,.375.181l2.991,6.155,9.777-4.728-2.991-6.154a.335.335,0,0,1,.09-.407,24.453,24.453,0,0,0,5.223-5.856.337.337,0,0,1,.392-.137l6.477,2.241,3.562-10.238-6.476-2.241a.336.336,0,0,1-.224-.351,24.365,24.365,0,0,0-.463-7.823.335.335,0,0,1,.181-.375l6.17-2.984-4.74-9.751-6.172,2.984a.336.336,0,0,1-.406-.09,24.453,24.453,0,0,0-5.871-5.209.335.335,0,0,1-.137-.393l2.247-6.459L1712,1445.237l-2.247,6.459a.337.337,0,0,1-.351.224,24.523,24.523,0,0,0-7.845.462.334.334,0,0,1-.375-.18l-2.991-6.155-9.777,4.728,2.991,6.154a.336.336,0,0,1-.09.407,24.45,24.45,0,0,0-5.222,5.856.337.337,0,0,1-.379.141l-6.792-2.036-3.266,10.026,6.483,2.243a.335.335,0,0,1,.224.351,24.368,24.368,0,0,0,.463,7.823.335.335,0,0,1-.181.375l-6.17,2.984,4.739,9.75,6.172-2.984a.334.334,0,0,1,.405.09,24.476,24.476,0,0,0,5.871,5.209.335.335,0,0,1,.137.393Zm15.344-12.767a14.844,14.844,0,1,1,14.073-9.979A14.857,14.857,0,0,1,1706.892,1491.248Zm.025-29.02a14.234,14.234,0,0,0-13.439,9.529,14.164,14.164,0,0,0,8.768,18.037,14.238,14.238,0,0,0,18.086-8.744,14.195,14.195,0,0,0-13.415-18.821Z" transform="translate(-1674.896 -1444.476)" fill="#fecb2f"/>
      </g>
      <g id="Grupo_894789" data-name="Grupo 894789" transform="translate(0 67.337)">
        <g id="Grupo_894778" data-name="Grupo 894778" transform="translate(0 86.834)">
          <g id="Grupo_894773" data-name="Grupo 894773" transform="translate(0 101.76)">
            <path id="Trazado_623478" data-name="Trazado 623478" d="M370.987,2038.667H349.528l9.437-18.144h15.168Z" transform="translate(-347.283 -2020.523)" fill="#fed101"/>
            <path id="Trazado_623479" data-name="Trazado 623479" d="M399.7,2025.061l-19.1,4.534,4.719-9.072H400.49Z" transform="translate(-373.64 -2020.523)"/>
            <path id="Trazado_623480" data-name="Trazado 623480" d="M359.948,2141.546h-4.072l-1.738-1.794-1.743,1.794H344.2l-1.839-1.794-1.908,1.794h-5.714l.775-4.2h23.655Z" transform="translate(-334.742 -2119.609)"/>
          </g>
          <g id="Grupo_894775" data-name="Grupo 894775" transform="translate(52.439 105.098)">
            <g id="Grupo_894774" data-name="Grupo 894774" transform="translate(1.145)">
              <path id="Trazado_623481" data-name="Trazado 623481" d="M729.908,2084.042a10.625,10.625,0,1,0-21.017,0Z" transform="translate(-705.565 -2067.389)" fill="#fed101"/>
              <path id="Trazado_623482" data-name="Trazado 623482" d="M710.148,2056.753H687.642l2.753-14.247h11.495Z" transform="translate(-687.642 -2042.506)" fill="#fed101"/>
              <path id="Trazado_623483" data-name="Trazado 623483" d="M712.467,2043.706l-13.174,3.892.984-5.091h11.495Z" transform="translate(-697.524 -2042.506)"/>
              <path id="Trazado_623484" data-name="Trazado 623484" d="M800.76,2077.468a.335.335,0,0,1-.29-.167l-2.153-3.714a.335.335,0,1,1,.58-.336l2.153,3.714a.335.335,0,0,1-.122.458A.332.332,0,0,1,800.76,2077.468Z" transform="translate(-781.473 -2068.44)"/>
            </g>
            <path id="Trazado_623485" data-name="Trazado 623485" d="M706.947,2140.537H702.61l-1.851-1.793-1.857,1.793h-8.726l-1.959-1.793-2.032,1.793H680.1l.826-4.2h25.2Z" transform="translate(-680.098 -2122.092)"/>
          </g>
          <g id="Grupo_894777" data-name="Grupo 894777" transform="translate(7.39)">
            <path id="Trazado_623486" data-name="Trazado 623486" d="M452.865,1382.682l-4.144-30.123H410.89v20.265l-7.159,34.609-20.319,51.088h20.344l12.891-27.547A140.463,140.463,0,0,0,428.375,1392l2.241-15.144,2.757,29.9-5,51.76h20.344l3.952-27.153A173.66,173.66,0,0,0,452.865,1382.682Z" transform="translate(-383.412 -1352.223)" fill="#ef3c79"/>
            <path id="Trazado_623487" data-name="Trazado 623487" d="M705.078,1411.824a5.941,5.941,0,0,1-5.941-5.941v-6.918h11.882v6.918A5.941,5.941,0,0,1,705.078,1411.824Z" transform="translate(-651.197 -1391.583)" fill="#c41e56"/>
            <g id="Grupo_894776" data-name="Grupo 894776" transform="translate(19.984)">
              <path id="Trazado_623488" data-name="Trazado 623488" d="M698.015,1456.979H677.67a.336.336,0,0,1-.334-.368l4.993-51.729-2.754-29.873a.335.335,0,1,1,.667-.062l2.757,29.9a.325.325,0,0,1,0,.063l-4.96,51.393h19.685l3.911-26.866a173.29,173.29,0,0,0,.191-48.591l-4.144-30.123a.335.335,0,0,1,.664-.092l4.144,30.123a173.951,173.951,0,0,1-.191,48.78l-3.952,27.153A.335.335,0,0,1,698.015,1456.979Z" transform="translate(-652.689 -1350.346)"/>
              <path id="Trazado_623489" data-name="Trazado 623489" d="M654.22,1510.207H641.379a.335.335,0,0,1,0-.67H654.22a.335.335,0,1,1,0,.67Z" transform="translate(-621.909 -1485.365)"/>
              <path id="Trazado_623490" data-name="Trazado 623490" d="M524.49,1708.535a.333.333,0,0,1-.165-.044l-9.133-5.188a.335.335,0,0,1-.156-.387.342.342,0,0,1,.341-.239l7.831.467a.335.335,0,0,1-.04.669l-6.392-.381,7.88,4.476a.335.335,0,0,1-.166.626Z" transform="translate(-515.022 -1649.18)"/>
              <path id="Trazado_623491" data-name="Trazado 623491" d="M715.781,1711.251a.331.331,0,0,1-.178-.051l-5.208-3.266a.335.335,0,0,1,.178-.619h7.487a.335.335,0,1,1,0,.67h-6.322l4.221,2.647a.335.335,0,0,1-.178.619Z" transform="translate(-680.596 -1653.113)"/>
            </g>
            <path id="Trazado_623492" data-name="Trazado 623492" d="M564.381,1366.035v-13.476h37.81Z" transform="translate(-536.902 -1352.223)"/>
          </g>
        </g>
        <g id="Grupo_894787" data-name="Grupo 894787" transform="translate(21.247 0)">
          <g id="Grupo_894783" data-name="Grupo 894783" transform="translate(18.082 0)">
            <g id="Grupo_894779" data-name="Grupo 894779" transform="translate(42.138 29.518)">
              <path id="Trazado_623493" data-name="Trazado 623493" d="M877.253,973.054l-2.65,6.822-.622-4.018.64-1.741a1.9,1.9,0,0,1,2.413-1.139Z" transform="translate(-873.57 -972.87)" fill="#fda4ff"/>
              <path id="Trazado_623494" data-name="Trazado 623494" d="M885.191,986.466l-1.033,7.8-9.519,2.783-2.792-7.264a8.638,8.638,0,0,1-.045-6.079l.442-1.2Z" transform="translate(-871.273 -981.039)" fill="#fda4ff"/>
            </g>
            <g id="Grupo_894780" data-name="Grupo 894780" transform="translate(0)">
              <circle id="Elipse_6263" data-name="Elipse 6263" cx="16.254" cy="16.254" r="16.254" transform="translate(0 22.987) rotate(-45)" fill="#fff"/>
              <path id="Trazado_623495" data-name="Trazado 623495" d="M879.1,970.543a.333.333,0,0,1-.127-.025l-19.335-7.889a.335.335,0,0,1-.183-.438l1.849-4.469a.334.334,0,0,1,.436-.182l19.313,7.88a.335.335,0,0,1,.184.437l-1.827,4.478a.336.336,0,0,1-.31.208Zm-18.9-8.407,18.713,7.635,1.574-3.857-18.694-7.628Z" transform="translate(-819.086 -930.328)"/>
              <path id="Trazado_623496" data-name="Trazado 623496" d="M652.479,853.78a16.589,16.589,0,1,1,16.589-16.59A16.608,16.608,0,0,1,652.479,853.78Zm0-32.508A15.919,15.919,0,1,0,668.4,837.19,15.937,15.937,0,0,0,652.479,821.271Z" transform="translate(-629.492 -814.204)"/>
              <path id="Trazado_623497" data-name="Trazado 623497" d="M804.7,948.847a.335.335,0,0,1-.237-.572,12.747,12.747,0,0,0,3.617-7.135.335.335,0,0,1,.663.1,13.412,13.412,0,0,1-3.806,7.508A.334.334,0,0,1,804.7,948.847Z" transform="translate(-772.383 -916.198)"/>
              <path id="Trazado_623498" data-name="Trazado 623498" d="M756.311,852.639a.335.335,0,0,1-.331-.285,12.933,12.933,0,0,0-12.707-10.9.335.335,0,1,1,0-.67,13.607,13.607,0,0,1,13.37,11.47.335.335,0,0,1-.281.382A.331.331,0,0,1,756.311,852.639Z" transform="translate(-720.286 -831.321)"/>
              <path id="Trazado_623499" data-name="Trazado 623499" d="M843.818,958.161a.334.334,0,0,1-.127-.025l-3.181-1.307a.335.335,0,1,1,.255-.62l2.871,1.18,1.021-2.485-3.079-1.265a.335.335,0,0,1,.255-.62l3.389,1.392a.335.335,0,0,1,.182.437l-1.276,3.105a.335.335,0,0,1-.31.208Z" transform="translate(-802.866 -926.493)"/>
            </g>
            <g id="Grupo_894781" data-name="Grupo 894781" transform="translate(43.616 25.935)">
              <path id="Rectángulo_301411" data-name="Rectángulo 301411" d="M0,0H8.411a1.4,1.4,0,0,1,1.4,1.4v0a1.4,1.4,0,0,1-1.4,1.4H0a0,0,0,0,1,0,0V0A0,0,0,0,1,0,0Z" transform="translate(0 9.444) rotate(-69.818)" fill="#fda4ff"/>
              <path id="Rectángulo_301412" data-name="Rectángulo 301412" d="M0,0H8.864a1.4,1.4,0,0,1,1.4,1.4v0a1.4,1.4,0,0,1-1.4,1.4H0a0,0,0,0,1,0,0V0A0,0,0,0,1,0,0Z" transform="translate(2.911 9.633) rotate(-69.818)" fill="#fda4ff"/>
              <path id="Rectángulo_301413" data-name="Rectángulo 301413" d="M0,0H8.733a1.4,1.4,0,0,1,1.4,1.4v0a1.4,1.4,0,0,1-1.4,1.4H0a0,0,0,0,1,0,0V0A0,0,0,0,1,0,0Z" transform="translate(8.208 11.44) rotate(-69.818)" fill="#fda4ff"/>
              <path id="Trazado_623500" data-name="Trazado 623500" d="M944.009,985.995l-2.421,6.512-2.639-.97,4.084-11.035.952,2.47A4.288,4.288,0,0,1,944.009,985.995Z" transform="translate(-930.151 -975.761)" fill="#fda4ff"/>
              <path id="Trazado_623501" data-name="Trazado 623501" d="M921.078,962.18l.143.053a1.453,1.453,0,0,1,.706,1.915l-2.956,8.041-2.626-.965,2.956-8.042A1.452,1.452,0,0,1,921.078,962.18Z" transform="translate(-910.979 -960.161)" fill="#fda4ff"/>
              <path id="Trazado_623502" data-name="Trazado 623502" d="M898.6,1034.486l-.282,11.786-10.157-3.244.233-12.293Z" transform="translate(-887.077 -1018.365)" fill="#fda4ff"/>
            </g>
            <path id="Trazado_623503" data-name="Trazado 623503" d="M898.507,1081.9l-.186,7.769-10.157-3.244.065-3.4,6.305-.689Z" transform="translate(-843.461 -1035.824)"/>
            <g id="Grupo_894782" data-name="Grupo 894782" transform="translate(41.806 25.982)">
              <path id="Trazado_623504" data-name="Trazado 623504" d="M913.564,954.928a.335.335,0,0,1-.315-.451l1.037-2.822a1.015,1.015,0,0,0-.6-1.3l-.091-.033a1.015,1.015,0,0,0-1.3.6l-1.178,3.206a.335.335,0,0,1-.629-.231l1.179-3.206a1.686,1.686,0,0,1,2.163-1l.091.033a1.686,1.686,0,0,1,1,2.163l-1.038,2.823A.334.334,0,0,1,913.564,954.928Z" transform="translate(-904.179 -949.585)"/>
              <path id="Trazado_623505" data-name="Trazado 623505" d="M930.833,965a.335.335,0,0,1-.315-.451l.979-2.664a.989.989,0,0,0-.586-1.268l-.142-.052a.988.988,0,0,0-1.268.585l-.945,2.571a.335.335,0,1,1-.629-.231l.945-2.571a1.661,1.661,0,0,1,2.128-.984l.143.052a1.66,1.66,0,0,1,.984,2.128l-.979,2.664A.335.335,0,0,1,930.833,965Z" transform="translate(-918.974 -958.278)"/>
              <path id="Trazado_623506" data-name="Trazado 623506" d="M880.908,959.9a.335.335,0,0,1-.315-.451l2.652-7.215a1.679,1.679,0,0,1,2.153-1l.107.039a1.677,1.677,0,0,1,1,2.152l-.948,2.58a.335.335,0,1,1-.629-.231l.948-2.58a1.007,1.007,0,0,0-.6-1.292l-.107-.039a1.009,1.009,0,0,0-1.292.6l-2.652,7.215A.335.335,0,0,1,880.908,959.9Z" transform="translate(-878.828 -950.897)"/>
              <path id="Trazado_623507" data-name="Trazado 623507" d="M882.136,988.578a.332.332,0,0,1-.1-.016l-10.157-3.244a.335.335,0,0,1-.233-.325l.128-6.755-2.1-5.455a9.021,9.021,0,0,1-.233-5.748.335.335,0,0,1,.643.189,8.346,8.346,0,0,0,.216,5.319l2.119,5.515a.334.334,0,0,1,.022.126l-.125,6.571,9.493,3.032.26-10.874a.328.328,0,0,1,.021-.108l2.343-6.351a3.95,3.95,0,0,0-.022-2.785l-.542-1.408a.334.334,0,0,1,0-.23l.568-1.631a1.027,1.027,0,0,0-.608-1.324l-.07-.026a1.029,1.029,0,0,0-1.317.61L881.1,967.3a.335.335,0,1,1-.629-.231l1.336-3.635a1.7,1.7,0,0,1,2.178-1.008l.07.026a1.7,1.7,0,0,1,1.006,2.178l-.525,1.51.5,1.293a4.619,4.619,0,0,1,.026,3.258l-2.324,6.3-.27,11.265a.335.335,0,0,1-.335.327Z" transform="translate(-869.082 -960.384)"/>
            </g>
          </g>
          <g id="Grupo_894786" data-name="Grupo 894786" transform="translate(0 41.749)">
            <g id="Grupo_894784" data-name="Grupo 894784" transform="translate(59.096 6.792)">
              <path id="Trazado_623508" data-name="Trazado 623508" d="M874.619,1133.737a8.7,8.7,0,0,1-8.544-8.843l.353-24.533,17.462.035-.428,24.8A8.7,8.7,0,0,1,874.619,1133.737Z" transform="translate(-865.739 -1100.025)" fill="#0b5999"/>
              <path id="Trazado_623509" data-name="Trazado 623509" d="M872.9,1132.2h-.158a9.041,9.041,0,0,1-8.873-9.185l.353-24.532a.335.335,0,0,1,.335-.33h0l17.462.035a.335.335,0,0,1,.335.341l-.428,24.8A9.041,9.041,0,0,1,872.9,1132.2Zm-8.012-33.377-.349,24.2a8.37,8.37,0,0,0,8.214,8.5h.146a8.369,8.369,0,0,0,8.356-8.216l.422-24.458Z" transform="translate(-863.867 -1098.153)" fill="#0b5999"/>
            </g>
            <g id="Grupo_894785" data-name="Grupo 894785">
              <path id="Trazado_623510" data-name="Trazado 623510" d="M549.038,1081.048l-15.548-15.554a33.679,33.679,0,0,0-23.819-9.868H499.606a18.072,18.072,0,0,0-16.279,10.223l-7.661,15.888c-2.111,4.392-.835,10.854,3.557,12.965a8.678,8.678,0,0,0,8.207,0l-1.012,11.421,41.081-5.408-2.31-16.853,11.552,9.485Z" transform="translate(-474.671 -1055.291)" fill="#0b5999"/>
              <path id="Trazado_623511" data-name="Trazado 623511" d="M777.827,1217.3a.333.333,0,0,1-.213-.076l-18.575-15.252a.335.335,0,1,1,.425-.518l18.576,15.252a.335.335,0,0,1-.213.594Z" transform="translate(-715.756 -1178.915)" fill="#0b5999"/>
              <path id="Trazado_623512" data-name="Trazado 623512" d="M741.136,1079.511a.334.334,0,0,1-.237-.1l-15.548-15.554a33.018,33.018,0,0,0-23.857-9.77.335.335,0,0,1,0-.67,33.673,33.673,0,0,1,24.331,9.967l15.548,15.554a.335.335,0,0,1-.237.572Z" transform="translate(-666.769 -1053.419)" fill="#0b5999"/>
              <path id="Trazado_623513" data-name="Trazado 623513" d="M557.116,1173.237l-.033,0a.335.335,0,0,1-.3-.366l2.446-24.744a.335.335,0,0,1,.667.066l-2.446,24.744A.335.335,0,0,1,557.116,1173.237Z" transform="translate(-544.313 -1133.489)" fill="#0b5999"/>
            </g>
            <path id="Trazado_623514" data-name="Trazado 623514" d="M543.438,1154.941l-5.581,24.97a8.592,8.592,0,0,0,1.734-.364,12.562,12.562,0,0,0,1.431-.612Z" transform="translate(-528.263 -1139.526)"/>
          </g>
        </g>
        <g id="Grupo_894788" data-name="Grupo 894788" transform="translate(48.182 26.204)">
          <path id="Trazado_623515" data-name="Trazado 623515" d="M663.233,961.236c0,3.084.2,7.361-2.885,7.361s-8.283-4.277-8.283-7.361a5.584,5.584,0,1,1,11.169,0Z" transform="translate(-652.064 -954.952)" fill="#fda4ff"/>
          <path id="Trazado_623516" data-name="Trazado 623516" d="M666.224,955.961a6.9,6.9,0,0,0-6.609-4.918,6.455,6.455,0,0,0-6.441,4.918Z" transform="translate(-653.005 -951.043)"/>
          <rect id="Rectángulo_301414" data-name="Rectángulo 301414" width="6.459" height="9.596" transform="translate(1.127 6.284)" fill="#fda4ff"/>
          <path id="Trazado_623517" data-name="Trazado 623517" d="M700.152,1024.541a.335.335,0,0,1-.335-.335V1018.8a.335.335,0,0,1,.67,0v5.405A.335.335,0,0,1,700.152,1024.541Z" transform="translate(-692.566 -1008.228)"/>
        </g>
      </g>
      <g id="Grupo_894796" data-name="Grupo 894796" transform="translate(160.661 89.459)">
        <g id="Grupo_894791" data-name="Grupo 894791" transform="translate(0 0)">
          <rect id="Rectángulo_301415" data-name="Rectángulo 301415" width="72.394" height="49.5" transform="translate(4.214 0.875)"/>
          <rect id="Rectángulo_301416" data-name="Rectángulo 301416" width="72.394" height="46.02" fill="#0b5999"/>
          <g id="Grupo_894790" data-name="Grupo 894790" transform="translate(11.765 9.22)">
            <rect id="Rectángulo_301417" data-name="Rectángulo 301417" width="50.286" height="3.78" fill="#fff"/>
            <rect id="Rectángulo_301418" data-name="Rectángulo 301418" width="50.286" height="3.78" transform="translate(0 9.388)" fill="#fff"/>
            <rect id="Rectángulo_301419" data-name="Rectángulo 301419" width="42.154" height="3.78" transform="translate(0 19.587)" fill="#fff"/>
          </g>
        </g>
        <g id="Grupo_894793" data-name="Grupo 894793" transform="translate(0 60.593)">
          <rect id="Rectángulo_301420" data-name="Rectángulo 301420" width="72.394" height="49.5" transform="translate(4.214 0.875)"/>
          <rect id="Rectángulo_301421" data-name="Rectángulo 301421" width="72.394" height="46.02" fill="#0b5999"/>
          <g id="Grupo_894792" data-name="Grupo 894792" transform="translate(11.765 9.22)">
            <rect id="Rectángulo_301422" data-name="Rectángulo 301422" width="50.286" height="3.779" fill="#fff"/>
            <rect id="Rectángulo_301423" data-name="Rectángulo 301423" width="50.286" height="3.779" transform="translate(0 9.388)" fill="#fff"/>
            <rect id="Rectángulo_301424" data-name="Rectángulo 301424" width="42.154" height="3.78" transform="translate(0 19.587)" fill="#fff"/>
          </g>
        </g>
        <g id="Grupo_894795" data-name="Grupo 894795" transform="translate(0 121.166)">
          <rect id="Rectángulo_301425" data-name="Rectángulo 301425" width="72.394" height="49.5" transform="translate(4.214 0.875)"/>
          <path id="Trazado_624477" data-name="Trazado 624477" d="M0,0H72.394V46.02H0Z" fill="#0b5999"/>
          <g id="Grupo_894794" data-name="Grupo 894794" transform="translate(11.765 9.22)">
            <rect id="Rectángulo_301427" data-name="Rectángulo 301427" width="50.286" height="3.78" fill="#fff"/>
            <rect id="Rectángulo_301428" data-name="Rectángulo 301428" width="50.286" height="3.779" transform="translate(0 9.388)" fill="#fff"/>
            <rect id="Rectángulo_301429" data-name="Rectángulo 301429" width="42.154" height="3.78" transform="translate(0 19.587)" fill="#fff"/>
          </g>
        </g>
      </g>
    </g>
  </g>
</svg>
