<svg xmlns="http://www.w3.org/2000/svg" width="349.825" height="396.578" viewBox="0 0 349.825 396.578">
  <g id="Grupo_897741" data-name="Grupo 897741" transform="translate(-1045.33 -3825.42)">
    <g id="Grupo_897676" data-name="Grupo 897676">
      <g id="Grupo_897631" data-name="Grupo 897631" transform="translate(44.869 -3199.041)">
        <g id="Grupo_140420" data-name="Grupo 140420" transform="translate(1001 7025)">
          <g id="Rectángulo_293060" data-name="Rectángulo 293060" transform="translate(50.055 33.192)" fill="none" stroke="#ef3c79" stroke-width="5">
            <rect width="258.052" height="317.794" rx="30" stroke="none"/>
            <rect x="2.5" y="2.5" width="253.052" height="312.794" rx="27.5" fill="none"/>
          </g>
          <g id="Grupo_873686" data-name="Grupo 873686" transform="translate(0 0)">
            <path id="Trazado_1" data-name="Trazado 1" d="M56-75.2-45.679,26.481q.706,4.361,1.827,8.572L64.573-73.372Q60.365-74.491,56-75.2Z" transform="translate(46.837 76.357)" fill="none" stroke="#8f9294" stroke-miterlimit="10" stroke-width="1.078"/>
            <path id="Trazado_2" data-name="Trazado 2" d="M65.23-72.715-43.195,35.71q1.071,4.028,2.5,7.9L73.132-70.217Q69.264-71.647,65.23-72.715Z" transform="translate(46.18 75.7)" fill="none" stroke="#8f9294" stroke-miterlimit="10" stroke-width="1.078"/>
            <path id="Trazado_3" data-name="Trazado 3" d="M105.817-48.491-18.971,76.3c1.581,1.879,3.231,3.7,4.962,5.438L111.255-43.529C109.515-45.259,107.7-46.91,105.817-48.491Z" transform="translate(39.773 69.293)" fill="none" stroke="#8f9294" stroke-miterlimit="10" stroke-width="1.078"/>
            <path id="Trazado_4" data-name="Trazado 4" d="M98.317-54.647-25.128,68.8q2.147,3.03,4.529,5.871L104.189-50.119Q101.354-52.506,98.317-54.647Z" transform="translate(41.401 70.921)" fill="none" stroke="#8f9294" stroke-miterlimit="10" stroke-width="1.078"/>
            <path id="Trazado_5" data-name="Trazado 5" d="M82.452-65.12-35.6,52.932c1.105,2.321,2.32,4.579,3.616,6.784L89.235-61.5C87.031-62.8,84.773-64.015,82.452-65.12Z" transform="translate(44.171 73.691)" fill="none" stroke="#8f9294" stroke-miterlimit="10" stroke-width="1.078"/>
            <path id="Trazado_6" data-name="Trazado 6" d="M90.535-60.2-30.684,61.016q1.911,3.249,4.087,6.313L96.848-56.116Q93.784-58.289,90.535-60.2Z" transform="translate(42.871 72.391)" fill="none" stroke="#8f9294" stroke-miterlimit="10" stroke-width="1.078"/>
            <path id="Trazado_7" data-name="Trazado 7" d="M74.03-69.319-39.8,44.51q1.382,3.739,3.088,7.311L81.341-66.231Q77.77-67.931,74.03-69.319Z" transform="translate(45.282 74.802)" fill="none" stroke="#8f9294" stroke-miterlimit="10" stroke-width="1.078"/>
            <path id="Trazado_8" data-name="Trazado 8" d="M-38.97-18.277,11.242-68.489A88.825,88.825,0,0,0-38.97-18.277Z" transform="translate(45.062 74.582)" fill="none" stroke="#8f9294" stroke-miterlimit="10" stroke-width="1.078"/>
            <path id="Trazado_9" data-name="Trazado 9" d="M9.678-70.054-40.534-19.842a87.8,87.8,0,0,0-4.351,14.75L24.429-74.4A87.835,87.835,0,0,0,9.678-70.054Z" transform="translate(46.627 76.147)" fill="none" stroke="#8f9294" stroke-miterlimit="10" stroke-width="1.078"/>
            <path id="Trazado_10" data-name="Trazado 10" d="M46.253-76.583-47.064,16.734a88.805,88.805,0,0,0,1.019,9.382L55.635-75.565A88.827,88.827,0,0,0,46.253-76.583Z" transform="translate(47.203 76.723)" fill="none" stroke="#8f9294" stroke-miterlimit="10" stroke-width="1.078"/>
            <path id="Trazado_11" data-name="Trazado 11" d="M41.328-76.773c-1.875,0-3.731.078-5.578.193L-47.06,6.231c-.115,1.846-.193,3.7-.193,5.578,0,1.636.051,3.26.139,4.874L46.2-76.633C44.589-76.721,42.965-76.773,41.328-76.773Z" transform="translate(47.253 76.773)" fill="none" stroke="#8f9294" stroke-miterlimit="10" stroke-width="1.078"/>
            <path id="Trazado_12" data-name="Trazado 12" d="M23.872-74.962-45.442-5.648A88.618,88.618,0,0,0-46.991,6.3l82.81-82.811A88.738,88.738,0,0,0,23.872-74.962Z" transform="translate(47.184 76.704)" fill="none" stroke="#8f9294" stroke-miterlimit="10" stroke-width="1.078"/>
            <path id="Trazado_13" data-name="Trazado 13" d="M155.139,23.422l-102.2,102.2a88.661,88.661,0,0,0,9.321,1.078l93.955-93.954A88.617,88.617,0,0,0,155.139,23.422Z" transform="translate(20.754 50.274)" fill="none" stroke="#8f9294" stroke-miterlimit="10" stroke-width="1.078"/>
            <path id="Trazado_14" data-name="Trazado 14" d="M159.761,41.66c0-1.871-.078-3.723-.192-5.565L65.614,130.049c1.842.115,3.695.192,5.565.192,1.6,0,3.193-.048,4.774-.132l83.676-83.675C159.713,44.853,159.761,43.262,159.761,41.66Z" transform="translate(17.402 46.922)" fill="none" stroke="#8f9294" stroke-miterlimit="10" stroke-width="1.078"/>
            <path id="Trazado_15" data-name="Trazado 15" d="M163.347,50.152,79.671,133.827a88.625,88.625,0,0,0,11.848-1.448L161.9,62A88.757,88.757,0,0,0,163.347,50.152Z" transform="translate(13.685 43.204)" fill="none" stroke="#8f9294" stroke-miterlimit="10" stroke-width="1.078"/>
            <path id="Trazado_16" data-name="Trazado 16" d="M166.159,66.26l-70.38,70.379a87.869,87.869,0,0,0,14.429-4.029L162.13,80.689A88.032,88.032,0,0,0,166.159,66.26Z" transform="translate(9.424 38.944)" fill="none" stroke="#8f9294" stroke-miterlimit="10" stroke-width="1.078"/>
            <path id="Trazado_17" data-name="Trazado 17" d="M167.318,85.877,115.4,137.8A88.832,88.832,0,0,0,167.318,85.877Z" transform="translate(4.236 33.756)" fill="none" stroke="#8f9294" stroke-miterlimit="10" stroke-width="1.078"/>
            <path id="Trazado_18" data-name="Trazado 18" d="M150.2,11.837,41.357,120.677q4.183,1.143,8.52,1.879l102.2-102.2Q151.342,16.022,150.2,11.837Z" transform="translate(23.818 53.338)" fill="none" stroke="#8f9294" stroke-miterlimit="10" stroke-width="1.078"/>
            <path id="Trazado_19" data-name="Trazado 19" d="M126.636-26.455,3.065,97.116c2.032,1.458,4.12,2.839,6.275,4.124L130.76-20.18C129.475-22.335,128.094-24.423,126.636-26.455Z" transform="translate(33.945 63.465)" fill="none" stroke="#8f9294" stroke-miterlimit="10" stroke-width="1.078"/>
            <path id="Trazado_20" data-name="Trazado 20" d="M119.973-34.388-4.869,90.454q2.819,2.4,5.836,4.564L124.538-28.553Q122.374-31.567,119.973-34.388Z" transform="translate(36.043 65.563)" fill="none" stroke="#8f9294" stroke-miterlimit="10" stroke-width="1.078"/>
            <path id="Trazado_21" data-name="Trazado 21" d="M144.828,1.157,30.676,115.308q3.846,1.452,7.856,2.544L147.371,9.012Q146.277,5.006,144.828,1.157Z" transform="translate(26.643 56.162)" fill="none" stroke="#8f9294" stroke-miterlimit="10" stroke-width="1.078"/>
            <path id="Trazado_22" data-name="Trazado 22" d="M113.039-41.745-12.225,83.519c1.729,1.74,3.542,3.4,5.411,4.989L118.027-36.334C116.435-38.2,114.779-40.015,113.039-41.745Z" transform="translate(37.989 67.509)" fill="none" stroke="#8f9294" stroke-miterlimit="10" stroke-width="1.078"/>
            <path id="Trazado_23" data-name="Trazado 23" d="M139.093-8.746,20.773,109.573c2.369,1.147,4.8,2.179,7.284,3.116L142.209-1.462C141.272-3.944,140.24-6.378,139.093-8.746Z" transform="translate(29.262 58.781)" fill="none" stroke="#8f9294" stroke-miterlimit="10" stroke-width="1.078"/>
            <path id="Trazado_24" data-name="Trazado 24" d="M133.016-17.923,11.6,103.5c2.192,1.308,4.44,2.532,6.749,3.65L136.666-11.173C135.548-13.483,134.323-15.73,133.016-17.923Z" transform="translate(31.689 61.209)" fill="none" stroke="#8f9294" stroke-miterlimit="10" stroke-width="1.078"/>
          </g>
          <g id="Grupo_873687" data-name="Grupo 873687" transform="translate(171.527 209.944)">
            <g id="Grupo_68" data-name="Grupo 68" transform="translate(78.137 0)">
              <g id="Grupo_67" data-name="Grupo 67" transform="translate(0)">
                <rect id="Rectángulo_193" data-name="Rectángulo 193" width="3.125" height="3.125" transform="translate(95.203 97.412) rotate(-44.999)" fill="#8f9294"/>
                <rect id="Rectángulo_194" data-name="Rectángulo 194" width="2.965" height="2.965" transform="translate(86.548 88.645) rotate(-45)" fill="#8f9294"/>
                <rect id="Rectángulo_195" data-name="Rectángulo 195" width="2.806" height="2.806" transform="translate(77.893 79.878) rotate(-45)" fill="#8f9294"/>
                <rect id="Rectángulo_196" data-name="Rectángulo 196" width="2.647" height="2.647" transform="matrix(0.707, -0.707, 0.707, 0.707, 69.238, 71.11)" fill="#8f9294"/>
                <rect id="Rectángulo_197" data-name="Rectángulo 197" width="2.488" height="2.488" transform="translate(60.584 62.343) rotate(-45)" fill="#8f9294"/>
                <rect id="Rectángulo_198" data-name="Rectángulo 198" width="2.329" height="2.329" transform="matrix(0.707, -0.707, 0.707, 0.707, 51.929, 53.576)" fill="#8f9294"/>
                <rect id="Rectángulo_199" data-name="Rectángulo 199" width="2.17" height="2.17" transform="translate(43.274 44.808) rotate(-45)" fill="#8f9294"/>
                <rect id="Rectángulo_200" data-name="Rectángulo 200" width="2.011" height="2.011" transform="translate(34.619 36.041) rotate(-45.001)" fill="#8f9294"/>
                <rect id="Rectángulo_201" data-name="Rectángulo 201" width="1.852" height="1.852" transform="translate(25.964 27.274) rotate(-45)" fill="#8f9294"/>
                <rect id="Rectángulo_202" data-name="Rectángulo 202" width="1.693" height="1.693" transform="matrix(0.707, -0.707, 0.707, 0.707, 17.31, 18.507)" fill="#8f9294"/>
                <rect id="Rectángulo_203" data-name="Rectángulo 203" width="1.534" height="1.534" transform="translate(8.655 9.739) rotate(-45)" fill="#8f9294"/>
                <rect id="Rectángulo_204" data-name="Rectángulo 204" width="1.375" height="1.375" transform="matrix(0.707, -0.707, 0.707, 0.707, 0, 0.972)" fill="#8f9294"/>
              </g>
            </g>
            <g id="Grupo_70" data-name="Grupo 70" transform="translate(71.034 7.103)">
              <g id="Grupo_69" data-name="Grupo 69" transform="translate(0 0)">
                <rect id="Rectángulo_205" data-name="Rectángulo 205" width="3.125" height="3.125" transform="translate(95.203 97.412) rotate(-44.999)" fill="#8f9294"/>
                <rect id="Rectángulo_206" data-name="Rectángulo 206" width="2.965" height="2.965" transform="translate(86.548 88.645) rotate(-45)" fill="#8f9294"/>
                <rect id="Rectángulo_207" data-name="Rectángulo 207" width="2.806" height="2.806" transform="translate(77.893 79.878) rotate(-44.999)" fill="#8f9294"/>
                <rect id="Rectángulo_208" data-name="Rectángulo 208" width="2.647" height="2.647" transform="translate(69.238 71.11) rotate(-45)" fill="#8f9294"/>
                <rect id="Rectángulo_209" data-name="Rectángulo 209" width="2.488" height="2.488" transform="translate(60.584 62.343) rotate(-45)" fill="#8f9294"/>
                <rect id="Rectángulo_210" data-name="Rectángulo 210" width="2.329" height="2.329" transform="translate(51.929 53.576) rotate(-45)" fill="#8f9294"/>
                <rect id="Rectángulo_211" data-name="Rectángulo 211" width="2.17" height="2.17" transform="translate(43.274 44.808) rotate(-45)" fill="#8f9294"/>
                <rect id="Rectángulo_212" data-name="Rectángulo 212" width="2.011" height="2.011" transform="translate(34.619 36.041) rotate(-45)" fill="#8f9294"/>
                <rect id="Rectángulo_213" data-name="Rectángulo 213" width="1.852" height="1.852" transform="translate(25.964 27.274) rotate(-45)" fill="#8f9294"/>
                <rect id="Rectángulo_214" data-name="Rectángulo 214" width="1.693" height="1.693" transform="translate(17.31 18.507) rotate(-45)" fill="#8f9294"/>
                <rect id="Rectángulo_215" data-name="Rectángulo 215" width="1.534" height="1.534" transform="translate(8.655 9.739) rotate(-45)" fill="#8f9294"/>
                <rect id="Rectángulo_216" data-name="Rectángulo 216" width="1.375" height="1.375" transform="matrix(0.707, -0.707, 0.707, 0.707, 0, 0.972)" fill="#8f9294"/>
              </g>
            </g>
            <g id="Grupo_72" data-name="Grupo 72" transform="translate(63.93 14.207)">
              <g id="Grupo_71" data-name="Grupo 71" transform="translate(0 0)">
                <rect id="Rectángulo_217" data-name="Rectángulo 217" width="3.125" height="3.125" transform="translate(95.203 97.412) rotate(-44.999)" fill="#8f9294"/>
                <rect id="Rectángulo_218" data-name="Rectángulo 218" width="2.966" height="2.966" transform="translate(86.548 88.645) rotate(-44.999)" fill="#8f9294"/>
                <rect id="Rectángulo_219" data-name="Rectángulo 219" width="2.806" height="2.806" transform="translate(77.893 79.878) rotate(-44.999)" fill="#8f9294"/>
                <rect id="Rectángulo_220" data-name="Rectángulo 220" width="2.647" height="2.647" transform="matrix(0.707, -0.707, 0.707, 0.707, 69.238, 71.11)" fill="#8f9294"/>
                <rect id="Rectángulo_221" data-name="Rectángulo 221" width="2.488" height="2.488" transform="translate(60.584 62.343) rotate(-44.999)" fill="#8f9294"/>
                <rect id="Rectángulo_222" data-name="Rectángulo 222" width="2.329" height="2.329" transform="matrix(0.707, -0.707, 0.707, 0.707, 51.929, 53.576)" fill="#8f9294"/>
                <rect id="Rectángulo_223" data-name="Rectángulo 223" width="2.17" height="2.17" transform="matrix(0.707, -0.707, 0.707, 0.707, 43.274, 44.808)" fill="#8f9294"/>
                <rect id="Rectángulo_224" data-name="Rectángulo 224" width="2.011" height="2.011" transform="translate(34.619 36.041) rotate(-44.999)" fill="#8f9294"/>
                <rect id="Rectángulo_225" data-name="Rectángulo 225" width="1.852" height="1.852" transform="translate(25.964 27.274) rotate(-45)" fill="#8f9294"/>
                <rect id="Rectángulo_226" data-name="Rectángulo 226" width="1.693" height="1.693" transform="translate(17.31 18.507) rotate(-44.998)" fill="#8f9294"/>
                <rect id="Rectángulo_227" data-name="Rectángulo 227" width="1.534" height="1.534" transform="translate(8.655 9.739) rotate(-45)" fill="#8f9294"/>
                <rect id="Rectángulo_228" data-name="Rectángulo 228" width="1.375" height="1.375" transform="matrix(0.707, -0.707, 0.707, 0.707, 0, 0.972)" fill="#8f9294"/>
              </g>
            </g>
            <g id="Grupo_74" data-name="Grupo 74" transform="translate(56.827 21.31)">
              <g id="Grupo_73" data-name="Grupo 73" transform="translate(0 0)">
                <rect id="Rectángulo_229" data-name="Rectángulo 229" width="3.125" height="3.125" transform="translate(95.203 97.412) rotate(-45.001)" fill="#8f9294"/>
                <rect id="Rectángulo_230" data-name="Rectángulo 230" width="2.966" height="2.966" transform="translate(86.548 88.645) rotate(-45.001)" fill="#8f9294"/>
                <rect id="Rectángulo_231" data-name="Rectángulo 231" width="2.806" height="2.806" transform="translate(77.893 79.878) rotate(-45)" fill="#8f9294"/>
                <rect id="Rectángulo_232" data-name="Rectángulo 232" width="2.647" height="2.647" transform="matrix(0.707, -0.707, 0.707, 0.707, 69.238, 71.11)" fill="#8f9294"/>
                <rect id="Rectángulo_233" data-name="Rectángulo 233" width="2.488" height="2.488" transform="translate(60.584 62.343) rotate(-45)" fill="#8f9294"/>
                <rect id="Rectángulo_234" data-name="Rectángulo 234" width="2.329" height="2.329" transform="matrix(0.707, -0.707, 0.707, 0.707, 51.929, 53.576)" fill="#8f9294"/>
                <rect id="Rectángulo_235" data-name="Rectángulo 235" width="2.17" height="2.17" transform="translate(43.274 44.808) rotate(-45)" fill="#8f9294"/>
                <rect id="Rectángulo_236" data-name="Rectángulo 236" width="2.011" height="2.011" transform="translate(34.619 36.041) rotate(-45.001)" fill="#8f9294"/>
                <rect id="Rectángulo_237" data-name="Rectángulo 237" width="1.852" height="1.852" transform="translate(25.964 27.274) rotate(-45)" fill="#8f9294"/>
                <rect id="Rectángulo_238" data-name="Rectángulo 238" width="1.693" height="1.693" transform="translate(17.31 18.507) rotate(-45)" fill="#8f9294"/>
                <rect id="Rectángulo_239" data-name="Rectángulo 239" width="1.534" height="1.534" transform="translate(8.655 9.739) rotate(-45)" fill="#8f9294"/>
                <rect id="Rectángulo_240" data-name="Rectángulo 240" width="1.375" height="1.375" transform="translate(0 0.972) rotate(-44.998)" fill="#8f9294"/>
              </g>
            </g>
            <g id="Grupo_76" data-name="Grupo 76" transform="translate(49.724 28.414)">
              <g id="Grupo_75" data-name="Grupo 75" transform="translate(0 0)">
                <rect id="Rectángulo_241" data-name="Rectángulo 241" width="3.125" height="3.125" transform="translate(95.203 97.412) rotate(-45.001)" fill="#8f9294"/>
                <rect id="Rectángulo_242" data-name="Rectángulo 242" width="2.965" height="2.965" transform="translate(86.548 88.645) rotate(-45.001)" fill="#8f9294"/>
                <rect id="Rectángulo_243" data-name="Rectángulo 243" width="2.806" height="2.806" transform="translate(77.893 79.878) rotate(-45)" fill="#8f9294"/>
                <rect id="Rectángulo_244" data-name="Rectángulo 244" width="2.647" height="2.647" transform="matrix(0.707, -0.707, 0.707, 0.707, 69.238, 71.11)" fill="#8f9294"/>
                <rect id="Rectángulo_245" data-name="Rectángulo 245" width="2.488" height="2.488" transform="translate(60.584 62.343) rotate(-45)" fill="#8f9294"/>
                <rect id="Rectángulo_246" data-name="Rectángulo 246" width="2.329" height="2.329" transform="translate(51.929 53.576) rotate(-45.001)" fill="#8f9294"/>
                <rect id="Rectángulo_247" data-name="Rectángulo 247" width="2.17" height="2.17" transform="translate(43.274 44.808) rotate(-45)" fill="#8f9294"/>
                <rect id="Rectángulo_248" data-name="Rectángulo 248" width="2.011" height="2.011" transform="translate(34.619 36.041) rotate(-45.001)" fill="#8f9294"/>
                <rect id="Rectángulo_249" data-name="Rectángulo 249" width="1.852" height="1.852" transform="translate(25.964 27.274) rotate(-45)" fill="#8f9294"/>
                <rect id="Rectángulo_250" data-name="Rectángulo 250" width="1.693" height="1.693" transform="matrix(0.707, -0.707, 0.707, 0.707, 17.31, 18.507)" fill="#8f9294"/>
                <rect id="Rectángulo_251" data-name="Rectángulo 251" width="1.534" height="1.534" transform="translate(8.655 9.739) rotate(-45)" fill="#8f9294"/>
                <rect id="Rectángulo_252" data-name="Rectángulo 252" width="1.375" height="1.375" transform="matrix(0.707, -0.707, 0.707, 0.707, 0, 0.972)" fill="#8f9294"/>
              </g>
            </g>
            <g id="Grupo_78" data-name="Grupo 78" transform="translate(42.62 35.517)">
              <g id="Grupo_77" data-name="Grupo 77" transform="translate(0 0)">
                <rect id="Rectángulo_253" data-name="Rectángulo 253" width="3.125" height="3.125" transform="translate(95.203 97.412) rotate(-45)" fill="#8f9294"/>
                <rect id="Rectángulo_254" data-name="Rectángulo 254" width="2.965" height="2.965" transform="translate(86.548 88.645) rotate(-45)" fill="#8f9294"/>
                <rect id="Rectángulo_255" data-name="Rectángulo 255" width="2.806" height="2.806" transform="translate(77.893 79.878) rotate(-45.001)" fill="#8f9294"/>
                <rect id="Rectángulo_256" data-name="Rectángulo 256" width="2.647" height="2.647" transform="matrix(0.707, -0.707, 0.707, 0.707, 69.238, 71.11)" fill="#8f9294"/>
                <rect id="Rectángulo_257" data-name="Rectángulo 257" width="2.488" height="2.488" transform="matrix(0.707, -0.707, 0.707, 0.707, 60.584, 62.343)" fill="#8f9294"/>
                <rect id="Rectángulo_258" data-name="Rectángulo 258" width="2.329" height="2.329" transform="matrix(0.707, -0.707, 0.707, 0.707, 51.929, 53.576)" fill="#8f9294"/>
                <rect id="Rectángulo_259" data-name="Rectángulo 259" width="2.17" height="2.17" transform="translate(43.274 44.808) rotate(-45)" fill="#8f9294"/>
                <rect id="Rectángulo_260" data-name="Rectángulo 260" width="2.011" height="2.011" transform="translate(34.619 36.041) rotate(-45.001)" fill="#8f9294"/>
                <rect id="Rectángulo_261" data-name="Rectángulo 261" width="1.852" height="1.852" transform="translate(25.964 27.274) rotate(-45)" fill="#8f9294"/>
                <rect id="Rectángulo_262" data-name="Rectángulo 262" width="1.693" height="1.693" transform="matrix(0.707, -0.707, 0.707, 0.707, 17.31, 18.507)" fill="#8f9294"/>
                <rect id="Rectángulo_263" data-name="Rectángulo 263" width="1.534" height="1.534" transform="translate(8.655 9.739) rotate(-45)" fill="#8f9294"/>
                <rect id="Rectángulo_264" data-name="Rectángulo 264" width="1.375" height="1.375" transform="matrix(0.707, -0.707, 0.707, 0.707, 0, 0.972)" fill="#8f9294"/>
              </g>
            </g>
            <g id="Grupo_80" data-name="Grupo 80" transform="translate(35.517 42.62)">
              <g id="Grupo_79" data-name="Grupo 79" transform="translate(0 0)">
                <rect id="Rectángulo_265" data-name="Rectángulo 265" width="3.125" height="3.125" transform="translate(95.203 97.412) rotate(-44.999)" fill="#8f9294"/>
                <rect id="Rectángulo_266" data-name="Rectángulo 266" width="2.965" height="2.965" transform="translate(86.548 88.645) rotate(-45)" fill="#8f9294"/>
                <rect id="Rectángulo_267" data-name="Rectángulo 267" width="2.806" height="2.806" transform="translate(77.893 79.878) rotate(-44.999)" fill="#8f9294"/>
                <rect id="Rectángulo_268" data-name="Rectángulo 268" width="2.647" height="2.647" transform="translate(69.238 71.11) rotate(-45)" fill="#8f9294"/>
                <rect id="Rectángulo_269" data-name="Rectángulo 269" width="2.488" height="2.488" transform="translate(60.584 62.343) rotate(-44.999)" fill="#8f9294"/>
                <rect id="Rectángulo_270" data-name="Rectángulo 270" width="2.329" height="2.329" transform="matrix(0.707, -0.707, 0.707, 0.707, 51.929, 53.576)" fill="#8f9294"/>
                <rect id="Rectángulo_271" data-name="Rectángulo 271" width="2.17" height="2.17" transform="matrix(0.707, -0.707, 0.707, 0.707, 43.274, 44.808)" fill="#8f9294"/>
                <rect id="Rectángulo_272" data-name="Rectángulo 272" width="2.011" height="2.011" transform="translate(34.619 36.041) rotate(-45.001)" fill="#8f9294"/>
                <rect id="Rectángulo_273" data-name="Rectángulo 273" width="1.852" height="1.852" transform="translate(25.964 27.274) rotate(-45)" fill="#8f9294"/>
                <rect id="Rectángulo_274" data-name="Rectángulo 274" width="1.693" height="1.693" transform="translate(17.31 18.507) rotate(-45.002)" fill="#8f9294"/>
                <rect id="Rectángulo_275" data-name="Rectángulo 275" width="1.534" height="1.534" transform="translate(8.655 9.739) rotate(-45)" fill="#8f9294"/>
                <rect id="Rectángulo_276" data-name="Rectángulo 276" width="1.375" height="1.375" transform="matrix(0.707, -0.707, 0.707, 0.707, 0, 0.972)" fill="#8f9294"/>
              </g>
            </g>
            <g id="Grupo_82" data-name="Grupo 82" transform="translate(28.414 49.724)">
              <g id="Grupo_81" data-name="Grupo 81" transform="translate(0 0)">
                <rect id="Rectángulo_277" data-name="Rectángulo 277" width="3.125" height="3.125" transform="translate(95.203 97.412) rotate(-44.999)" fill="#8f9294"/>
                <rect id="Rectángulo_278" data-name="Rectángulo 278" width="2.965" height="2.965" transform="translate(86.548 88.645) rotate(-45)" fill="#8f9294"/>
                <rect id="Rectángulo_279" data-name="Rectángulo 279" width="2.806" height="2.806" transform="translate(77.893 79.878) rotate(-44.999)" fill="#8f9294"/>
                <rect id="Rectángulo_280" data-name="Rectángulo 280" width="2.647" height="2.647" transform="translate(69.238 71.11) rotate(-45)" fill="#8f9294"/>
                <rect id="Rectángulo_281" data-name="Rectángulo 281" width="2.488" height="2.488" transform="translate(60.584 62.343) rotate(-44.999)" fill="#8f9294"/>
                <rect id="Rectángulo_282" data-name="Rectángulo 282" width="2.329" height="2.329" transform="translate(51.929 53.576) rotate(-45)" fill="#8f9294"/>
                <rect id="Rectángulo_283" data-name="Rectángulo 283" width="2.17" height="2.17" transform="matrix(0.707, -0.707, 0.707, 0.707, 43.274, 44.808)" fill="#8f9294"/>
                <rect id="Rectángulo_284" data-name="Rectángulo 284" width="2.011" height="2.011" transform="translate(34.619 36.041) rotate(-45)" fill="#8f9294"/>
                <rect id="Rectángulo_285" data-name="Rectángulo 285" width="1.852" height="1.852" transform="translate(25.964 27.274) rotate(-45)" fill="#8f9294"/>
                <rect id="Rectángulo_286" data-name="Rectángulo 286" width="1.693" height="1.693" transform="translate(17.31 18.507) rotate(-45)" fill="#8f9294"/>
                <rect id="Rectángulo_287" data-name="Rectángulo 287" width="1.534" height="1.534" transform="translate(8.655 9.739) rotate(-45)" fill="#8f9294"/>
                <rect id="Rectángulo_288" data-name="Rectángulo 288" width="1.375" height="1.375" transform="matrix(0.707, -0.707, 0.707, 0.707, 0, 0.972)" fill="#8f9294"/>
              </g>
            </g>
            <g id="Grupo_84" data-name="Grupo 84" transform="translate(21.31 56.827)">
              <g id="Grupo_83" data-name="Grupo 83" transform="translate(0 0)">
                <rect id="Rectángulo_289" data-name="Rectángulo 289" width="3.125" height="3.125" transform="translate(95.203 97.412) rotate(-44.999)" fill="#8f9294"/>
                <rect id="Rectángulo_290" data-name="Rectángulo 290" width="2.966" height="2.966" transform="translate(86.548 88.645) rotate(-44.999)" fill="#8f9294"/>
                <rect id="Rectángulo_291" data-name="Rectángulo 291" width="2.806" height="2.806" transform="translate(77.893 79.878) rotate(-44.999)" fill="#8f9294"/>
                <rect id="Rectángulo_292" data-name="Rectángulo 292" width="2.647" height="2.647" transform="matrix(0.707, -0.707, 0.707, 0.707, 69.238, 71.11)" fill="#8f9294"/>
                <rect id="Rectángulo_293" data-name="Rectángulo 293" width="2.488" height="2.488" transform="translate(60.584 62.343) rotate(-44.999)" fill="#8f9294"/>
                <rect id="Rectángulo_294" data-name="Rectángulo 294" width="2.329" height="2.329" transform="matrix(0.707, -0.707, 0.707, 0.707, 51.929, 53.576)" fill="#8f9294"/>
                <rect id="Rectángulo_295" data-name="Rectángulo 295" width="2.17" height="2.17" transform="matrix(0.707, -0.707, 0.707, 0.707, 43.274, 44.808)" fill="#8f9294"/>
                <rect id="Rectángulo_296" data-name="Rectángulo 296" width="2.011" height="2.011" transform="translate(34.619 36.041) rotate(-44.999)" fill="#8f9294"/>
                <rect id="Rectángulo_297" data-name="Rectángulo 297" width="1.852" height="1.852" transform="matrix(0.707, -0.707, 0.707, 0.707, 25.964, 27.274)" fill="#8f9294"/>
                <rect id="Rectángulo_298" data-name="Rectángulo 298" width="1.693" height="1.693" transform="translate(17.31 18.506) rotate(-44.998)" fill="#8f9294"/>
                <rect id="Rectángulo_299" data-name="Rectángulo 299" width="1.534" height="1.534" transform="translate(8.655 9.739) rotate(-44.998)" fill="#8f9294"/>
                <rect id="Rectángulo_300" data-name="Rectángulo 300" width="1.375" height="1.375" transform="translate(0 0.972) rotate(-44.998)" fill="#8f9294"/>
              </g>
            </g>
            <g id="Grupo_86" data-name="Grupo 86" transform="translate(14.207 63.93)">
              <g id="Grupo_85" data-name="Grupo 85" transform="translate(0 0)">
                <rect id="Rectángulo_301" data-name="Rectángulo 301" width="3.125" height="3.125" transform="matrix(0.707, -0.707, 0.707, 0.707, 95.203, 97.412)" fill="#8f9294"/>
                <rect id="Rectángulo_302" data-name="Rectángulo 302" width="2.966" height="2.966" transform="translate(86.548 88.645) rotate(-45.001)" fill="#8f9294"/>
                <rect id="Rectángulo_303" data-name="Rectángulo 303" width="2.806" height="2.806" transform="translate(77.893 79.878) rotate(-45.001)" fill="#8f9294"/>
                <rect id="Rectángulo_304" data-name="Rectángulo 304" width="2.647" height="2.647" transform="matrix(0.707, -0.707, 0.707, 0.707, 69.238, 71.11)" fill="#8f9294"/>
                <rect id="Rectángulo_305" data-name="Rectángulo 305" width="2.488" height="2.488" transform="translate(60.584 62.343) rotate(-45)" fill="#8f9294"/>
                <rect id="Rectángulo_306" data-name="Rectángulo 306" width="2.329" height="2.329" transform="translate(51.929 53.576) rotate(-45.001)" fill="#8f9294"/>
                <rect id="Rectángulo_307" data-name="Rectángulo 307" width="2.17" height="2.17" transform="translate(43.274 44.808) rotate(-45)" fill="#8f9294"/>
                <rect id="Rectángulo_308" data-name="Rectángulo 308" width="2.011" height="2.011" transform="translate(34.619 36.041) rotate(-45.001)" fill="#8f9294"/>
                <rect id="Rectángulo_309" data-name="Rectángulo 309" width="1.852" height="1.852" transform="translate(25.964 27.274) rotate(-45)" fill="#8f9294"/>
                <rect id="Rectángulo_310" data-name="Rectángulo 310" width="1.693" height="1.693" transform="translate(17.31 18.507) rotate(-45)" fill="#8f9294"/>
                <rect id="Rectángulo_311" data-name="Rectángulo 311" width="1.534" height="1.534" transform="translate(8.655 9.739) rotate(-45)" fill="#8f9294"/>
                <rect id="Rectángulo_312" data-name="Rectángulo 312" width="1.375" height="1.375" transform="translate(0 0.972) rotate(-45)" fill="#8f9294"/>
              </g>
            </g>
            <g id="Grupo_88" data-name="Grupo 88" transform="translate(7.103 71.034)">
              <g id="Grupo_87" data-name="Grupo 87" transform="translate(0 0)">
                <rect id="Rectángulo_313" data-name="Rectángulo 313" width="3.125" height="3.125" transform="translate(95.203 97.412) rotate(-45)" fill="#8f9294"/>
                <rect id="Rectángulo_314" data-name="Rectángulo 314" width="2.965" height="2.965" transform="translate(86.548 88.645) rotate(-45)" fill="#8f9294"/>
                <rect id="Rectángulo_315" data-name="Rectángulo 315" width="2.806" height="2.806" transform="translate(77.893 79.878) rotate(-45)" fill="#8f9294"/>
                <rect id="Rectángulo_316" data-name="Rectángulo 316" width="2.647" height="2.647" transform="matrix(0.707, -0.707, 0.707, 0.707, 69.238, 71.11)" fill="#8f9294"/>
                <rect id="Rectángulo_317" data-name="Rectángulo 317" width="2.488" height="2.488" transform="translate(60.584 62.343) rotate(-45.001)" fill="#8f9294"/>
                <rect id="Rectángulo_318" data-name="Rectángulo 318" width="2.329" height="2.329" transform="matrix(0.707, -0.707, 0.707, 0.707, 51.929, 53.576)" fill="#8f9294"/>
                <rect id="Rectángulo_319" data-name="Rectángulo 319" width="2.17" height="2.17" transform="translate(43.274 44.808) rotate(-45)" fill="#8f9294"/>
                <rect id="Rectángulo_320" data-name="Rectángulo 320" width="2.011" height="2.011" transform="translate(34.619 36.041) rotate(-45.001)" fill="#8f9294"/>
                <rect id="Rectángulo_321" data-name="Rectángulo 321" width="1.852" height="1.852" transform="translate(25.964 27.274) rotate(-45)" fill="#8f9294"/>
                <rect id="Rectángulo_322" data-name="Rectángulo 322" width="1.693" height="1.693" transform="matrix(0.707, -0.707, 0.707, 0.707, 17.31, 18.507)" fill="#8f9294"/>
                <rect id="Rectángulo_323" data-name="Rectángulo 323" width="1.534" height="1.534" transform="translate(8.655 9.739) rotate(-45)" fill="#8f9294"/>
                <rect id="Rectángulo_324" data-name="Rectángulo 324" width="1.375" height="1.375" transform="matrix(0.707, -0.707, 0.707, 0.707, 0, 0.972)" fill="#8f9294"/>
              </g>
            </g>
            <g id="Grupo_90" data-name="Grupo 90" transform="translate(0 78.137)">
              <g id="Grupo_89" data-name="Grupo 89" transform="translate(0 0)">
                <rect id="Rectángulo_325" data-name="Rectángulo 325" width="3.125" height="3.125" transform="translate(95.203 97.412) rotate(-45)" fill="#8f9294"/>
                <rect id="Rectángulo_326" data-name="Rectángulo 326" width="2.965" height="2.965" transform="translate(86.548 88.645) rotate(-45)" fill="#8f9294"/>
                <rect id="Rectángulo_327" data-name="Rectángulo 327" width="2.806" height="2.806" transform="translate(77.893 79.878) rotate(-45)" fill="#8f9294"/>
                <rect id="Rectángulo_328" data-name="Rectángulo 328" width="2.647" height="2.647" transform="translate(69.238 71.11) rotate(-45)" fill="#8f9294"/>
                <rect id="Rectángulo_329" data-name="Rectángulo 329" width="2.488" height="2.488" transform="translate(60.584 62.343) rotate(-45)" fill="#8f9294"/>
                <rect id="Rectángulo_330" data-name="Rectángulo 330" width="2.329" height="2.329" transform="translate(51.929 53.576) rotate(-45)" fill="#8f9294"/>
                <rect id="Rectángulo_331" data-name="Rectángulo 331" width="2.17" height="2.17" transform="matrix(0.707, -0.707, 0.707, 0.707, 43.274, 44.808)" fill="#8f9294"/>
                <rect id="Rectángulo_332" data-name="Rectángulo 332" width="2.011" height="2.011" transform="translate(34.619 36.041) rotate(-45.001)" fill="#8f9294"/>
                <rect id="Rectángulo_333" data-name="Rectángulo 333" width="1.852" height="1.852" transform="translate(25.964 27.274) rotate(-45.002)" fill="#8f9294"/>
                <rect id="Rectángulo_334" data-name="Rectángulo 334" width="1.693" height="1.693" transform="translate(17.31 18.507) rotate(-45.002)" fill="#8f9294"/>
                <rect id="Rectángulo_335" data-name="Rectángulo 335" width="1.534" height="1.534" transform="matrix(0.707, -0.707, 0.707, 0.707, 8.655, 9.739)" fill="#8f9294"/>
                <rect id="Rectángulo_336" data-name="Rectángulo 336" width="1.375" height="1.375" transform="matrix(0.707, -0.707, 0.707, 0.707, 0, 0.972)" fill="#8f9294"/>
              </g>
            </g>
          </g>
          <ellipse id="Elipse_4760" data-name="Elipse 4760" cx="148.94" cy="148.94" rx="148.94" ry="148.94" transform="translate(3.589 56.425)" fill="#21cbae"/>
          <g id="Grupo_873688" data-name="Grupo 873688" transform="translate(72.556 58.522)">
            <path id="Trazado_34" data-name="Trazado 34" d="M694.6,390.082,687.318,402.7h14.568Z" transform="translate(-687.318 -284.055)" fill="#fdfdfd"/>
            <path id="Trazado_35" data-name="Trazado 35" d="M694.6,361.354l-7.284,12.616h14.568Z" transform="translate(-687.318 -276.458)" fill="#fdfdfd"/>
            <path id="Trazado_36" data-name="Trazado 36" d="M694.6,332.626l-7.284,12.616h14.568Z" transform="translate(-687.318 -268.86)" fill="#fdfdfd"/>
            <path id="Trazado_37" data-name="Trazado 37" d="M695.7,245.931l-4.226,7.319h8.451Z" transform="translate(-688.417 -245.931)" fill="#f13b76"/>
          </g>
        </g>
        <g id="Grupo_140419" data-name="Grupo 140419" transform="translate(1001 7312.924)">
          <g id="Grupo_4" data-name="Grupo 4" transform="translate(0)">
            <rect id="Rectángulo_4" data-name="Rectángulo 4" width="3.125" height="3.125" fill="none" stroke="#fecb27" stroke-miterlimit="10" stroke-width="1.078"/>
            <rect id="Rectángulo_5" data-name="Rectángulo 5" width="3.125" height="3.125" transform="translate(23.881)" fill="none" stroke="#fecb27" stroke-miterlimit="10" stroke-width="1.078"/>
            <rect id="Rectángulo_6" data-name="Rectángulo 6" width="3.125" height="3.125" transform="translate(47.762)" fill="none" stroke="#fecb27" stroke-miterlimit="10" stroke-width="1.078"/>
            <rect id="Rectángulo_7" data-name="Rectángulo 7" width="3.125" height="3.125" transform="translate(71.643)" fill="none" stroke="#fecb27" stroke-miterlimit="10" stroke-width="1.078"/>
            <rect id="Rectángulo_8" data-name="Rectángulo 8" width="3.125" height="3.125" transform="translate(95.524)" fill="none" stroke="#fecb27" stroke-miterlimit="10" stroke-width="1.078"/>
            <rect id="Rectángulo_9" data-name="Rectángulo 9" width="3.125" height="3.125" transform="translate(119.405)" fill="none" stroke="#fecb27" stroke-miterlimit="10" stroke-width="1.078"/>
          </g>
          <g id="Grupo_5" data-name="Grupo 5" transform="translate(0 17.409)">
            <rect id="Rectángulo_10" data-name="Rectángulo 10" width="3.125" height="3.125" fill="none" stroke="#fecb27" stroke-miterlimit="10" stroke-width="1.078"/>
            <rect id="Rectángulo_11" data-name="Rectángulo 11" width="3.125" height="3.125" transform="translate(23.881)" fill="none" stroke="#fecb27" stroke-miterlimit="10" stroke-width="1.078"/>
            <rect id="Rectángulo_12" data-name="Rectángulo 12" width="3.125" height="3.125" transform="translate(47.762)" fill="none" stroke="#fecb27" stroke-miterlimit="10" stroke-width="1.078"/>
            <rect id="Rectángulo_13" data-name="Rectángulo 13" width="3.125" height="3.125" transform="translate(71.643)" fill="none" stroke="#fecb27" stroke-miterlimit="10" stroke-width="1.078"/>
            <rect id="Rectángulo_14" data-name="Rectángulo 14" width="3.125" height="3.125" transform="translate(95.524)" fill="none" stroke="#fecb27" stroke-miterlimit="10" stroke-width="1.078"/>
            <rect id="Rectángulo_15" data-name="Rectángulo 15" width="3.125" height="3.125" transform="translate(119.405)" fill="none" stroke="#fecb27" stroke-miterlimit="10" stroke-width="1.078"/>
          </g>
          <g id="Grupo_6" data-name="Grupo 6" transform="translate(0 34.817)">
            <rect id="Rectángulo_16" data-name="Rectángulo 16" width="3.125" height="3.125" fill="none" stroke="#fecb27" stroke-miterlimit="10" stroke-width="1.078"/>
            <rect id="Rectángulo_17" data-name="Rectángulo 17" width="3.125" height="3.125" transform="translate(23.881)" fill="none" stroke="#fecb27" stroke-miterlimit="10" stroke-width="1.078"/>
            <rect id="Rectángulo_18" data-name="Rectángulo 18" width="3.125" height="3.125" transform="translate(47.762)" fill="none" stroke="#fecb27" stroke-miterlimit="10" stroke-width="1.078"/>
            <rect id="Rectángulo_19" data-name="Rectángulo 19" width="3.125" height="3.125" transform="translate(71.643)" fill="none" stroke="#fecb27" stroke-miterlimit="10" stroke-width="1.078"/>
            <rect id="Rectángulo_20" data-name="Rectángulo 20" width="3.125" height="3.125" transform="translate(95.524)" fill="none" stroke="#fecb27" stroke-miterlimit="10" stroke-width="1.078"/>
            <rect id="Rectángulo_21" data-name="Rectángulo 21" width="3.125" height="3.125" transform="translate(119.405)" fill="none" stroke="#fecb27" stroke-miterlimit="10" stroke-width="1.078"/>
          </g>
          <g id="Grupo_7" data-name="Grupo 7" transform="translate(0 52.226)">
            <rect id="Rectángulo_22" data-name="Rectángulo 22" width="3.125" height="3.125" fill="none" stroke="#fecb27" stroke-miterlimit="10" stroke-width="1.078"/>
            <rect id="Rectángulo_23" data-name="Rectángulo 23" width="3.125" height="3.125" transform="translate(23.881)" fill="none" stroke="#fecb27" stroke-miterlimit="10" stroke-width="1.078"/>
            <rect id="Rectángulo_24" data-name="Rectángulo 24" width="3.125" height="3.125" transform="translate(47.762)" fill="none" stroke="#fecb27" stroke-miterlimit="10" stroke-width="1.078"/>
            <rect id="Rectángulo_25" data-name="Rectángulo 25" width="3.125" height="3.125" transform="translate(71.643)" fill="none" stroke="#fecb27" stroke-miterlimit="10" stroke-width="1.078"/>
            <rect id="Rectángulo_26" data-name="Rectángulo 26" width="3.125" height="3.125" transform="translate(95.524)" fill="none" stroke="#fecb27" stroke-miterlimit="10" stroke-width="1.078"/>
            <rect id="Rectángulo_27" data-name="Rectángulo 27" width="3.125" height="3.125" transform="translate(119.405)" fill="none" stroke="#fecb27" stroke-miterlimit="10" stroke-width="1.078"/>
          </g>
          <g id="Grupo_8" data-name="Grupo 8" transform="translate(0 69.635)">
            <rect id="Rectángulo_28" data-name="Rectángulo 28" width="3.125" height="3.125" fill="none" stroke="#fecb27" stroke-miterlimit="10" stroke-width="1.078"/>
            <rect id="Rectángulo_29" data-name="Rectángulo 29" width="3.125" height="3.125" transform="translate(23.881)" fill="none" stroke="#fecb27" stroke-width="1"/>
            <rect id="Rectángulo_30" data-name="Rectángulo 30" width="3.125" height="3.125" transform="translate(47.762)" fill="none" stroke="#fecb27" stroke-width="1"/>
            <rect id="Rectángulo_31" data-name="Rectángulo 31" width="3.125" height="3.125" transform="translate(71.643)" fill="none" stroke="#fecb27" stroke-miterlimit="10" stroke-width="1.078"/>
            <rect id="Rectángulo_32" data-name="Rectángulo 32" width="3.125" height="3.125" transform="translate(95.524)" fill="none" stroke="#fecb27" stroke-miterlimit="10" stroke-width="1.078"/>
            <rect id="Rectángulo_33" data-name="Rectángulo 33" width="3.125" height="3.125" transform="translate(119.405)" fill="none" stroke="#fecb27" stroke-miterlimit="10" stroke-width="1.078"/>
          </g>
          <g id="Grupo_9" data-name="Grupo 9" transform="translate(0 87.043)">
            <rect id="Rectángulo_34" data-name="Rectángulo 34" width="3.125" height="3.125" fill="none" stroke="#fecb27" stroke-miterlimit="10" stroke-width="1.078"/>
            <rect id="Rectángulo_35" data-name="Rectángulo 35" width="3.125" height="3.125" transform="translate(23.881)" fill="none" stroke="#fecb27" stroke-miterlimit="10" stroke-width="1.078"/>
            <rect id="Rectángulo_36" data-name="Rectángulo 36" width="3.125" height="3.125" transform="translate(47.762)" fill="none" stroke="#fecb27" stroke-miterlimit="10" stroke-width="1.078"/>
            <rect id="Rectángulo_37" data-name="Rectángulo 37" width="3.125" height="3.125" transform="translate(71.643)" fill="none" stroke="#fecb27" stroke-width="1"/>
            <rect id="Rectángulo_38" data-name="Rectángulo 38" width="3.125" height="3.125" transform="translate(95.524)" fill="none" stroke="#fecb27" stroke-miterlimit="10" stroke-width="1.078"/>
            <rect id="Rectángulo_39" data-name="Rectángulo 39" width="3.125" height="3.125" transform="translate(119.405)" fill="none" stroke="#fecb27" stroke-miterlimit="10" stroke-width="1.078"/>
          </g>
          <g id="Grupo_10" data-name="Grupo 10" transform="translate(0 104.452)">
            <rect id="Rectángulo_40" data-name="Rectángulo 40" width="3.125" height="3.125" fill="none" stroke="#fecb27" stroke-miterlimit="10" stroke-width="1.078"/>
            <rect id="Rectángulo_41" data-name="Rectángulo 41" width="3.125" height="3.125" transform="translate(23.881)" fill="none" stroke="#fecb27" stroke-miterlimit="10" stroke-width="1.078"/>
            <rect id="Rectángulo_42" data-name="Rectángulo 42" width="3.125" height="3.125" transform="translate(47.762)" fill="none" stroke="#fecb27" stroke-miterlimit="10" stroke-width="1.078"/>
            <rect id="Rectángulo_43" data-name="Rectángulo 43" width="3.125" height="3.125" transform="translate(71.643)" fill="none" stroke="#fecb27" stroke-miterlimit="10" stroke-width="1.078"/>
            <rect id="Rectángulo_44" data-name="Rectángulo 44" width="3.125" height="3.125" transform="translate(95.524)" fill="none" stroke="#fecb27" stroke-width="1"/>
            <rect id="Rectángulo_45" data-name="Rectángulo 45" width="3.125" height="3.125" transform="translate(119.405)" fill="none" stroke="#fecb27" stroke-miterlimit="10" stroke-width="1.078"/>
          </g>
        </g>
      </g>
      <g id="Vision_and_scope_document" data-name="Vision and scope document" transform="translate(-1941.851 3126.344)">
        <g id="Grupo_897644" data-name="Grupo 897644">
          <g id="Grupo_897632" data-name="Grupo 897632">
            <path id="Trazado_624651" data-name="Trazado 624651" d="M3248,820.086h-116.55a8.288,8.288,0,0,0-7.773,6.89l-26.453,163.291c-.616,3.8,1.865,6.89,5.541,6.89h116.55a8.286,8.286,0,0,0,7.773-6.89l26.453-163.291C3254.162,823.171,3251.681,820.086,3248,820.086Z"/>
            <path id="Trazado_624652" data-name="Trazado 624652" d="M3219.319,997.567h-116.55a5.915,5.915,0,0,1-4.6-2.048,6.454,6.454,0,0,1-1.348-5.317l26.453-163.291a8.72,8.72,0,0,1,8.178-7.234H3248a5.916,5.916,0,0,1,4.6,2.047,6.456,6.456,0,0,1,1.347,5.318L3227.5,990.333A8.72,8.72,0,0,1,3219.319,997.567ZM3131.455,820.5a7.874,7.874,0,0,0-7.37,6.546l-26.453,163.291a5.658,5.658,0,0,0,1.163,4.656,5.112,5.112,0,0,0,3.974,1.759h116.55a7.874,7.874,0,0,0,7.369-6.546l26.453-163.291a5.65,5.65,0,0,0-1.163-4.656A5.107,5.107,0,0,0,3248,820.5Z"/>
          </g>
          <g id="Grupo_897633" data-name="Grupo 897633">
            <path id="Trazado_624653" data-name="Trazado 624653" d="M3244.261,820.086h-116.55a8.287,8.287,0,0,0-7.773,6.89l-26.453,163.291c-.617,3.8,1.864,6.89,5.541,6.89h116.55a8.287,8.287,0,0,0,7.773-6.89L3249.8,826.976C3250.419,823.171,3247.938,820.086,3244.261,820.086Z" fill="#fff"/>
            <path id="Trazado_624654" data-name="Trazado 624654" d="M3215.576,997.567h-116.55a5.919,5.919,0,0,1-4.6-2.048,6.457,6.457,0,0,1-1.347-5.317l26.453-163.291a8.719,8.719,0,0,1,8.177-7.234h116.55a5.917,5.917,0,0,1,4.6,2.047,6.46,6.46,0,0,1,1.347,5.318l-26.453,163.291A8.719,8.719,0,0,1,3215.576,997.567ZM3127.711,820.5a7.874,7.874,0,0,0-7.369,6.546l-26.453,163.291a5.648,5.648,0,0,0,1.163,4.655,5.109,5.109,0,0,0,3.974,1.76h116.55a7.875,7.875,0,0,0,7.369-6.546L3249.4,826.911a5.654,5.654,0,0,0-1.163-4.656,5.109,5.109,0,0,0-3.974-1.759Z"/>
          </g>
          <g id="Grupo_897639" data-name="Grupo 897639">
            <path id="Trazado_624655" data-name="Trazado 624655" d="M3211.05,979.485H3109.277l24.051-148.465H3235.1Z" fill="#0b5999" opacity="0.31"/>
            <g id="Grupo_897638" data-name="Grupo 897638">
              <g id="Grupo_897634" data-name="Grupo 897634">
                <path id="Trazado_624656" data-name="Trazado 624656" d="M3218.382,858.354h-77.191l.746-4.6h77.191Z" fill="#fff"/>
                <path id="Trazado_624657" data-name="Trazado 624657" d="M3196.753,867.416h-57.03l.746-4.6h57.03Z" fill="#fff"/>
              </g>
              <g id="Grupo_897635" data-name="Grupo 897635">
                <path id="Trazado_624658" data-name="Trazado 624658" d="M3214.41,882.874h-77.191l.746-4.6h77.191Z" fill="#fff"/>
                <path id="Trazado_624659" data-name="Trazado 624659" d="M3192.781,891.937h-57.03l.746-4.6h57.03Z" fill="#fff"/>
              </g>
              <g id="Grupo_897636" data-name="Grupo 897636">
                <path id="Trazado_624660" data-name="Trazado 624660" d="M3210.438,907.394h-77.191l.746-4.6h77.191Z" fill="#fff"/>
                <path id="Trazado_624661" data-name="Trazado 624661" d="M3188.808,916.457h-57.03l.746-4.6h57.03Z" fill="#fff"/>
              </g>
              <g id="Grupo_897637" data-name="Grupo 897637">
                <path id="Trazado_624662" data-name="Trazado 624662" d="M3206.465,931.915h-77.191l.746-4.6h77.191Z" fill="#fff"/>
                <path id="Trazado_624663" data-name="Trazado 624663" d="M3184.836,940.978h-57.03l.746-4.6h57.03Z" fill="#fff"/>
              </g>
            </g>
          </g>
          <g id="Grupo_897643" data-name="Grupo 897643">
            <g id="Grupo_897640" data-name="Grupo 897640">
              <path id="Trazado_624664" data-name="Trazado 624664" d="M3217.526,839.652H3151.4a4.122,4.122,0,0,1-4.064-5.053l1.186-7.321c1.03-6.355,6.842-11.508,12.983-11.508h53.658c6.141,0,10.285,5.153,9.255,11.508l-1.186,7.321A6.078,6.078,0,0,1,3217.526,839.652Z"/>
              <path id="Trazado_624665" data-name="Trazado 624665" d="M3217.527,840.061H3151.4a4.446,4.446,0,0,1-3.455-1.54,4.84,4.84,0,0,1-1.013-3.988l1.186-7.32c1.059-6.535,7.064-11.852,13.387-11.852h53.658a9.611,9.611,0,0,1,7.47,3.323,10.516,10.516,0,0,1,2.189,8.66l-1.186,7.32A6.508,6.508,0,0,1,3217.527,840.061ZM3161.5,816.18c-5.939,0-11.582,5.008-12.579,11.164l-1.186,7.32a4.038,4.038,0,0,0,.829,3.326,3.639,3.639,0,0,0,2.831,1.252h66.132a5.662,5.662,0,0,0,5.3-4.709l1.186-7.32a9.714,9.714,0,0,0-2-8,8.806,8.806,0,0,0-6.847-3.035Z"/>
            </g>
            <path id="Trazado_624666" data-name="Trazado 624666" d="M3215.883,839.652h-66.132a4.122,4.122,0,0,1-4.064-5.053l1.186-7.321c1.03-6.355,6.843-11.508,12.983-11.508h53.658c6.141,0,10.285,5.153,9.255,11.508l-1.186,7.321A6.077,6.077,0,0,1,3215.883,839.652Z" fill="#0b5999"/>
            <g id="Grupo_897641" data-name="Grupo 897641">
              <path id="Trazado_624667" data-name="Trazado 624667" d="M3191.851,790.451c-6.91,0-13.45,5.8-14.608,12.947l-3.271,20.19a3.364,3.364,0,0,0,3.316,4.123h17.053a4.959,4.959,0,0,0,4.652-4.123l3.271-20.19C3203.422,796.248,3198.76,790.451,3191.851,790.451Zm-2.284,14.1a3.286,3.286,0,0,1-3.24-4.028,4.845,4.845,0,0,1,4.545-4.028,3.286,3.286,0,0,1,3.24,4.028A4.846,4.846,0,0,1,3189.567,804.549Z"/>
              <path id="Trazado_624668" data-name="Trazado 624668" d="M3194.341,828.12h-17.053a3.7,3.7,0,0,1-2.877-1.283,4.027,4.027,0,0,1-.843-3.314l3.271-20.19c1.187-7.329,7.921-13.292,15.012-13.292a10.763,10.763,0,0,1,8.365,3.721,11.782,11.782,0,0,1,2.452,9.7l-3.271,20.19A5.387,5.387,0,0,1,3194.341,828.12Zm-2.49-37.26c-6.706,0-13.078,5.654-14.2,12.6l-3.271,20.19a3.224,3.224,0,0,0,.659,2.653,2.9,2.9,0,0,0,2.253.995h17.053a4.543,4.543,0,0,0,4.248-3.779l3.271-20.19a10.98,10.98,0,0,0-2.267-9.04A9.956,9.956,0,0,0,3191.851,790.86Zm-2.284,14.1a3.629,3.629,0,0,1-2.818-1.257,3.943,3.943,0,0,1-.826-3.246,5.274,5.274,0,0,1,4.949-4.372,3.622,3.622,0,0,1,2.817,1.257,3.937,3.937,0,0,1,.826,3.246A5.273,5.273,0,0,1,3189.567,804.959Zm1.305-8.057a4.429,4.429,0,0,0-4.141,3.685,3.138,3.138,0,0,0,.642,2.584,2.82,2.82,0,0,0,2.194.969,4.427,4.427,0,0,0,4.14-3.684,3.139,3.139,0,0,0-.641-2.585A2.823,2.823,0,0,0,3190.872,796.9Z"/>
            </g>
            <g id="Grupo_897642" data-name="Grupo 897642">
              <path id="Trazado_624669" data-name="Trazado 624669" d="M3190.787,790.451c-6.909,0-13.449,5.8-14.608,12.947l-3.27,20.19a3.363,3.363,0,0,0,3.315,4.123h17.054a4.958,4.958,0,0,0,4.651-4.123l3.271-20.19C3202.358,796.248,3197.7,790.451,3190.787,790.451Zm-2.284,14.1a3.285,3.285,0,0,1-3.239-4.028,4.844,4.844,0,0,1,4.544-4.028,3.286,3.286,0,0,1,3.24,4.028A4.845,4.845,0,0,1,3188.5,804.549Z" fill="#0b5999"/>
            </g>
          </g>
        </g>
        <g id="Grupo_897650" data-name="Grupo 897650">
          <g id="Grupo_897646" data-name="Grupo 897646">
            <g id="Grupo_897645" data-name="Grupo 897645">
              <path id="Trazado_624670" data-name="Trazado 624670" d="M3151.8,832.21a3.166,3.166,0,0,1,3.205,3.707l-3.456,25.513a4.384,4.384,0,0,1-4.21,3.707h-91.683a3.166,3.166,0,0,1-3.205-3.707l3.456-25.513a4.384,4.384,0,0,1,4.21-3.707Z" fill="#fff"/>
              <path id="Trazado_624671" data-name="Trazado 624671" d="M3147.34,865.547h-91.683a3.612,3.612,0,0,1-2.772-1.214,3.673,3.673,0,0,1-.839-2.958l3.456-25.513a4.811,4.811,0,0,1,4.616-4.062H3151.8a3.613,3.613,0,0,1,2.772,1.214,3.673,3.673,0,0,1,.839,2.958l-3.457,25.513A4.808,4.808,0,0,1,3147.34,865.547Zm-87.222-32.928a3.966,3.966,0,0,0-3.8,3.353l-3.456,25.513a2.863,2.863,0,0,0,.643,2.309,2.807,2.807,0,0,0,2.156.934h91.683a3.967,3.967,0,0,0,3.8-3.353l3.456-25.513a2.864,2.864,0,0,0-.644-2.309,2.807,2.807,0,0,0-2.155-.934Z"/>
            </g>
          </g>
          <g id="Grupo_897647" data-name="Grupo 897647">
            <path id="Trazado_624672" data-name="Trazado 624672" d="M3146.491,843.265h-64.333a1.465,1.465,0,0,1-1.449-1.735h0a2.005,2.005,0,0,1,1.9-1.735h64.334a1.464,1.464,0,0,1,1.448,1.735h0A2.006,2.006,0,0,1,3146.491,843.265Z" fill="#0b5999"/>
            <path id="Trazado_624673" data-name="Trazado 624673" d="M3138.349,850.739h-56.214a1.417,1.417,0,0,1-1.266-1.735h0a1.862,1.862,0,0,1,1.662-1.735h56.215a1.416,1.416,0,0,1,1.265,1.735h0A1.863,1.863,0,0,1,3138.349,850.739Z" fill="#caddff"/>
            <path id="Trazado_624674" data-name="Trazado 624674" d="M3124.11,857.533h-42.589c-.613,0-1.042-.777-.959-1.735h0c.083-.958.647-1.735,1.259-1.735h42.59c.612,0,1.041.777.958,1.735h0C3125.286,856.756,3124.723,857.533,3124.11,857.533Z" fill="#caddff"/>
          </g>
          <g id="Grupo_897649" data-name="Grupo 897649">
            <path id="Trazado_624675" data-name="Trazado 624675" d="M3058.374,848.4a7.8,7.8,0,1,1,7.821,7.784,7.8,7.8,0,0,1-7.821-7.784Z" fill="#fff"/>
            <path id="Trazado_624676" data-name="Trazado 624676" d="M3066.173,856.594a8.223,8.223,0,0,1-7.72-11.013.41.41,0,0,1,.77.279,7.4,7.4,0,0,0,6.95,9.915h.021a7.4,7.4,0,0,0-.02-14.793h-.021a7.367,7.367,0,0,0-5.7,2.716.409.409,0,1,1-.634-.518,8.184,8.184,0,0,1,6.333-3.017h.024a8.216,8.216,0,0,1,.022,16.431Z"/>
            <path id="Trazado_624677" data-name="Trazado 624677" d="M3060.839,854.07a7.788,7.788,0,0,0,10.7-.03,18.7,18.7,0,0,0-10.7.03Z" fill="#99b9ff"/>
            <path id="Trazado_624678" data-name="Trazado 624678" d="M3066.237,854.592h0a1.231,1.231,0,0,1-1.234-1.229l-.018-6.282,2.462-.007.018,6.282a1.232,1.232,0,0,1-1.228,1.236Z" fill="#fff"/>
            <path id="Trazado_624679" data-name="Trazado 624679" d="M3070.989,849.356c-.16-1.951.7-3.171-1.238-5.37-2-2.278-3.711-.742-3.711-.742s-1.431-1.183-3.3,1.3c-1.648,2.194.476,4.15-.233,5.514s-3.119,2.115-3.119,2.115a7.212,7.212,0,0,0,1.739,2.226l10.182-.029s2.1-2.3,2.1-2.948C3073.409,851.425,3071.149,851.307,3070.989,849.356Z"/>
            <g id="Grupo_897648" data-name="Grupo 897648">
              <path id="Trazado_624680" data-name="Trazado 624680" d="M3060.839,854.07a7.788,7.788,0,0,0,10.7-.03,18.7,18.7,0,0,0-10.7.03Z" fill="#ef3c79"/>
              <path id="Trazado_624681" data-name="Trazado 624681" d="M3066.173,856.594a8.171,8.171,0,0,1-5.614-2.225l-.511-.48.669-.21a18.491,18.491,0,0,1,5.469-.816h.057a18.427,18.427,0,0,1,5.417.786l.669.205-.508.483a8.171,8.171,0,0,1-5.625,2.257Zm-4.488-2.341a7.352,7.352,0,0,0,4.488,1.522h.021a7.349,7.349,0,0,0,4.5-1.548,18.43,18.43,0,0,0-4.506-.545A17.874,17.874,0,0,0,3061.685,854.253Z" fill="#ef3c79"/>
            </g>
            <path id="Trazado_624682" data-name="Trazado 624682" d="M3066.33,845.033h-.085l-2.5,2.528,0,1.382A2.508,2.508,0,0,0,3065,851.1l.007,2.26a1.231,1.231,0,1,0,2.462-.007l-.007-2.217a2.507,2.507,0,0,0,1.306-2.21l0-1.478A2.424,2.424,0,0,0,3066.33,845.033Z" fill="#fff"/>
            <path id="Trazado_624683" data-name="Trazado 624683" d="M3066.234,855a1.64,1.64,0,0,1-1.641-1.637l-.006-2.191a.409.409,0,0,1,.409-.41h0a.409.409,0,0,1,.409.408l.006,2.191a.821.821,0,0,0,.822.82h0a.822.822,0,0,0,.819-.825l-.006-2.153a.411.411,0,0,1,.409-.411h0a.409.409,0,0,1,.409.409l.006,2.153a1.643,1.643,0,0,1-1.636,1.646Z"/>
            <path id="Trazado_624684" data-name="Trazado 624684" d="M3066.264,851.854a.41.41,0,0,1,0-.819,2.1,2.1,0,0,0,2.092-2.1l0-1.478a2.01,2.01,0,0,0-1.858-2l-2.336,2.325,0,1.169a2.107,2.107,0,0,0,1.235,1.909.409.409,0,1,1-.338.745,2.926,2.926,0,0,1-1.716-2.652l0-1.34a.408.408,0,0,1,.121-.291l2.584-2.571a.537.537,0,0,1,.411-.116,2.826,2.826,0,0,1,2.716,2.824l.005,1.478a2.921,2.921,0,0,1-2.909,2.926Z"/>
          </g>
        </g>
        <g id="Grupo_897657" data-name="Grupo 897657">
          <g id="Grupo_897651" data-name="Grupo 897651">
            <path id="Trazado_624685" data-name="Trazado 624685" d="M3255.757,891.46a3.45,3.45,0,0,1,3.3,4.144l-3.555,28.514a4.652,4.652,0,0,1-4.329,4.143h-94.289a3.449,3.449,0,0,1-3.3-4.143l3.554-28.514a4.654,4.654,0,0,1,4.329-4.144Z" fill="#fff"/>
            <path id="Trazado_624686" data-name="Trazado 624686" d="M3168.585,928.671h-11.7a3.6,3.6,0,0,1-2.742-1.222,4.286,4.286,0,0,1-.961-3.382l3.555-28.514a5.077,5.077,0,0,1,4.735-4.5h14.269a.409.409,0,0,1,0,.818h-14.269a4.24,4.24,0,0,0-3.923,3.785l-3.554,28.514a3.471,3.471,0,0,0,.762,2.74,2.8,2.8,0,0,0,2.128.944h11.7a.41.41,0,0,1,0,.819Z"/>
            <path id="Trazado_624687" data-name="Trazado 624687" d="M3251.17,928.671h-76.653a.41.41,0,1,1,0-.819h76.653a4.24,4.24,0,0,0,3.923-3.785l3.554-28.514a3.467,3.467,0,0,0-.761-2.739,2.8,2.8,0,0,0-2.129-.945l-64.39.012a.409.409,0,1,1,0-.819l64.39-.011a3.6,3.6,0,0,1,2.742,1.221,4.286,4.286,0,0,1,.961,3.382l-3.555,28.514A5.078,5.078,0,0,1,3251.17,928.671Z"/>
          </g>
          <g id="Grupo_897652" data-name="Grupo 897652">
            <path id="Trazado_624688" data-name="Trazado 624688" d="M3244.358,904.381h-52.076c-1.477,0-2.512-.868-2.311-1.939h0c.2-1.071,1.559-1.94,3.035-1.94h52.077c1.476,0,2.511.869,2.311,1.94h0C3247.194,903.513,3245.835,904.381,3244.358,904.381Z" fill="#21cbae"/>
            <path id="Trazado_624689" data-name="Trazado 624689" d="M3235.116,912.734H3190.5c-1.265,0-2.151-.868-1.98-1.939h0a2.6,2.6,0,0,1,2.6-1.939h44.61c1.265,0,2.152.868,1.98,1.939h0A2.6,2.6,0,0,1,3235.116,912.734Z" fill="#21cbae" opacity="0.44"/>
            <path id="Trazado_624690" data-name="Trazado 624690" d="M3244.378,921.088h-54.855c-1.556,0-2.646-.868-2.435-1.939h0c.21-1.071,1.642-1.94,3.2-1.94h54.855c1.556,0,2.646.869,2.435,1.94h0C3247.366,920.22,3245.934,921.088,3244.378,921.088Z" fill="#21cbae" opacity="0.44"/>
          </g>
          <g id="Grupo_897656" data-name="Grupo 897656">
            <circle id="Elipse_6289" data-name="Elipse 6289" cx="9.37" cy="9.37" r="9.37" transform="matrix(0.16, -0.987, 0.987, 0.16, 3161.198, 917.21)" fill="#fff"/>
            <path id="Trazado_624691" data-name="Trazado 624691" d="M3172.6,912.186a17.86,17.86,0,0,0-5.256.326,8.884,8.884,0,0,0-3.383,1.7,9.221,9.221,0,0,0,16.521-1.112,14.206,14.206,0,0,0-5.228-.835C3174.369,912.267,3173.485,912.242,3172.6,912.186Z" fill="#0b5999"/>
            <g id="Grupo_897655" data-name="Grupo 897655">
              <g id="Grupo_897653" data-name="Grupo 897653">
                <path id="Trazado_624692" data-name="Trazado 624692" d="M3170.5,909.492a2.986,2.986,0,0,1-.546,2.675,1.418,1.418,0,0,0,.131,2.056,4.179,4.179,0,0,0,2.628.813,3.659,3.659,0,0,0,2.18-.495,1.426,1.426,0,0,0-.074-2.412c-.756-.432-1.556-1.46-1.157-3.9Z" fill="#fff"/>
                <path id="Trazado_624693" data-name="Trazado 624693" d="M3172.91,915.448c-.068,0-.136,0-.2,0a4.619,4.619,0,0,1-2.878-.908,1.834,1.834,0,0,1-.655-1.3,1.8,1.8,0,0,1,.49-1.348,2.573,2.573,0,0,0,.449-2.278l-.1-.357,4.181-1.672-.117.715c-.287,1.755.044,2.959.956,3.481a1.835,1.835,0,0,1,.1,3.109A3.956,3.956,0,0,1,3172.91,915.448Zm-1.936-5.7a3.2,3.2,0,0,1-.719,2.705.97.97,0,0,0-.266.736,1.016,1.016,0,0,0,.362.722,3.848,3.848,0,0,0,2.379.719,3.324,3.324,0,0,0,1.941-.427,1.016,1.016,0,0,0-.052-1.715c-.781-.448-1.623-1.437-1.445-3.62Z"/>
              </g>
              <path id="Trazado_624694" data-name="Trazado 624694" d="M3173.455,908.543a2.72,2.72,0,0,0,1.686-.738,3.187,3.187,0,0,0,.7-2.065c-.042-.612-.274-2.319-1.771-2.783s-2.794-.028-3.279-.2a3.62,3.62,0,0,0-2.009-.189c-.917.133-1.825,2.277.426,2.829.065.016.131.027.2.037l4.075.6Z"/>
              <g id="Grupo_897654" data-name="Grupo 897654">
                <path id="Trazado_624695" data-name="Trazado 624695" d="M3173.413,906.712v-.933a.462.462,0,0,0-.462-.461h-3.544s-.864,4.722,1.687,4.891a2.545,2.545,0,0,0,2.867-2.108.762.762,0,0,0,.78-.506c.162-.437.148-1.2-.548-1.16a.849.849,0,0,0-.67.315A.061.061,0,0,1,3173.413,906.712Z" fill="#fff"/>
                <path id="Trazado_624696" data-name="Trazado 624696" d="M3171.356,910.627c-.094,0-.19,0-.289-.01a1.98,1.98,0,0,1-1.492-.781c-1.13-1.45-.594-4.464-.57-4.592l.061-.336h3.885a.872.872,0,0,1,.871.871v.3a1.574,1.574,0,0,1,.346-.057.945.945,0,0,1,.853.365,1.492,1.492,0,0,1,.1,1.345,1.144,1.144,0,0,1-.826.741A2.9,2.9,0,0,1,3171.356,910.627Zm-1.6-4.9c-.123.948-.2,2.76.463,3.606a1.176,1.176,0,0,0,.9.467,2.116,2.116,0,0,0,2.435-1.756l.054-.394.4.044a.34.34,0,0,0,.351-.242.74.74,0,0,0,.007-.572c-.009-.012-.034-.042-.146-.036a.466.466,0,0,0-.367.151.47.47,0,0,1-.847-.283v-.933a.053.053,0,0,0-.053-.052Zm3.437.776,0,0Z"/>
              </g>
            </g>
            <path id="Trazado_624697" data-name="Trazado 624697" d="M3171.949,919.241a9.78,9.78,0,1,1,9.779-9.78A9.791,9.791,0,0,1,3171.949,919.241Zm0-18.74a8.961,8.961,0,1,0,8.96,8.96A8.971,8.971,0,0,0,3171.949,900.5Z"/>
          </g>
        </g>
        <g id="Grupo_897666" data-name="Grupo 897666">
          <g id="Grupo_897658" data-name="Grupo 897658">
            <path id="Trazado_624698" data-name="Trazado 624698" d="M3116.475,873.651a22.172,22.172,0,0,0-21.836-6.088c-8.568,2.34-12.889,9.753-15.936,14.98-5.387,9.242-2.785,12.588-7.019,17.956-7.5,9.508-19.251,3.565-28.388,10.51-13.94,10.6-15.834,46.55,3.028,60.239,12.578,9.13,29.688,3.85,34.343,2.413,14.128-4.36,31.708-16.529,34.23-33.024,2.087-13.64-6.9-24.987.62-36.42,1.915-2.912,3.5-3.7,4.925-7.343C3122.752,890.962,3123.271,881.006,3116.475,873.651Z"/>
            <path id="Trazado_624699" data-name="Trazado 624699" d="M3098.205,875.267c3.218-2.611,1.181-10.312-.879-14.467-.772-1.557-4.226-8.524-8.77-8.254-4.667.278-9.136,8.112-7.47,14.318C3083.168,874.622,3094.433,878.327,3098.205,875.267Z"/>
          </g>
          <g id="Grupo_897664" data-name="Grupo 897664">
            <g id="Grupo_897659" data-name="Grupo 897659">
              <path id="Trazado_624700" data-name="Trazado 624700" d="M3151.122,983.454s-32.371-56.426-36.827-59.134,0,25.849,0,25.849l24.172,40.354Z" fill="#fff"/>
              <path id="Trazado_624701" data-name="Trazado 624701" d="M3138.468,990.933a.412.412,0,0,1-.352-.2l-24.172-40.355a.426.426,0,0,1-.054-.147c-.009-.06-.945-6.091-1.525-12.274-1.069-11.409-.072-13.478.771-14.043a1.2,1.2,0,0,1,1.372.055c4.494,2.732,35.645,56.973,36.969,59.281a.41.41,0,0,1-.156.561l-12.654,7.069A.411.411,0,0,1,3138.468,990.933Zm-23.781-40.906,23.927,39.945,11.946-6.673c-11.241-19.581-33.045-56.543-36.478-58.63-.314-.19-.438-.109-.49-.073-.469.313-1.447,2.235-.412,13.282C3113.721,943.655,3114.576,949.3,3114.687,950.027Z"/>
            </g>
            <path id="Trazado_624702" data-name="Trazado 624702" d="M3066.5,923.177s22.206-10.89,47.79,1.143c0,0,21.918,73.92,23.465,81.608s-8.766,7.317-18.653,5.739-34.16-1.563-44.329,4.031-11.215-8.1-10.07-17.23S3066.5,923.177,3066.5,923.177Z" fill="#fecb2f"/>
            <g id="Grupo_897660" data-name="Grupo 897660">
              <path id="Trazado_624703" data-name="Trazado 624703" d="M3068.342,982.535l31.7-18.9,17.218,5.765a3.826,3.826,0,0,1-3.961.852,9.147,9.147,0,0,0-8.349,1.418c-2.451,2-5.78,0-5.78,0s-20.15,29.85-37.913,30.465c-14.44.5-6.547-50.221-3.09-69.213a12.7,12.7,0,0,1,7.968-9.581l5.315-2.027Z" fill="#fff"/>
              <path id="Trazado_624704" data-name="Trazado 624704" d="M3061.049,1002.55a5.71,5.71,0,0,1-4.46-2.125c-8.294-9.6-1.94-50.454,1.177-67.574a13.173,13.173,0,0,1,8.224-9.891l5.316-2.027a.409.409,0,0,1,.554.4l-3.07,60.455,31.043-18.506a.41.41,0,0,1,.34-.036l17.218,5.764a.41.41,0,0,1,.172.665,4.206,4.206,0,0,1-4.391.965,8.75,8.75,0,0,0-7.962,1.346c-2.2,1.794-4.953.693-5.91.217a129.026,129.026,0,0,1-12.129,14.752c-9.709,10.085-18.422,15.329-25.9,15.588C3061.2,1002.549,3061.123,1002.55,3061.049,1002.55Zm9.962-80.628-4.73,1.8a12.355,12.355,0,0,0-7.71,9.273c-3.1,17-9.426,57.56-1.362,66.891a4.845,4.845,0,0,0,4.035,1.839c17.354-.6,37.387-29.988,37.588-30.285a.41.41,0,0,1,.549-.122c.032.019,3.116,1.827,5.311.034a9.6,9.6,0,0,1,8.736-1.49,3.464,3.464,0,0,0,2.987-.315l-16.324-5.465-31.539,18.8a.41.41,0,0,1-.619-.373Z"/>
            </g>
            <g id="Grupo_897661" data-name="Grupo 897661">
              <path id="Trazado_624705" data-name="Trazado 624705" d="M3153.325,989.688l-46.271,1.87a2,2,0,0,1-1.707-3.051l23.342-38a3.152,3.152,0,0,1,2.685-1.5l46.774,1.068Z"/>
              <path id="Trazado_624706" data-name="Trazado 624706" d="M3107.069,991.967a2.411,2.411,0,0,1-2.07-3.674l23.341-38a3.582,3.582,0,0,1,3.034-1.7l47.5,1.084-25.321,40.41-.215.009-46.272,1.87Zm24.3-42.555a2.755,2.755,0,0,0-2.327,1.307l-23.342,38a1.593,1.593,0,0,0,1.358,2.426l46.039-1.86,24.326-38.824Z"/>
            </g>
            <g id="Grupo_897662" data-name="Grupo 897662">
              <path id="Trazado_624707" data-name="Trazado 624707" d="M3156.657,991.558h-49.947L3132.848,949h49.947Z" fill="#0b5999"/>
              <path id="Trazado_624708" data-name="Trazado 624708" d="M3156.657,991.967h-49.946a.409.409,0,0,1-.349-.624l26.137-42.554a.406.406,0,0,1,.349-.2h49.947a.409.409,0,0,1,.349.623l-26.138,42.555A.409.409,0,0,1,3156.657,991.967Zm-49.214-.819h48.985l25.635-41.736h-48.986Z" fill="#0b5999"/>
            </g>
            <g id="Grupo_897663" data-name="Grupo 897663">
              <path id="Trazado_624709" data-name="Trazado 624709" d="M3157.806,989.688s-.939-4.918,0-8.2,6.758-13.04,8.421-15.082S3169.3,986.169,3157.806,989.688Z" fill="#fff"/>
              <path id="Trazado_624710" data-name="Trazado 624710" d="M3157.806,990.1a.408.408,0,0,1-.4-.333c-.039-.205-.946-5.052.008-8.389.94-3.285,6.743-13.073,8.5-15.228a.647.647,0,0,1,.746-.248c1.209.451,1.1,5.459,1.079,6.028-.221,7.391-2.913,16.041-9.809,18.152A.418.418,0,0,1,3157.806,990.1Zm8.629-23.292c-1.836,2.371-7.361,11.737-8.236,14.795-.737,2.577-.269,6.263-.069,7.548,4.942-1.775,7.1-7.073,8.042-11.269C3167.369,972.542,3166.911,967.808,3166.435,966.806Z"/>
            </g>
          </g>
          <g id="Grupo_897665" data-name="Grupo 897665">
            <path id="Trazado_624711" data-name="Trazado 624711" d="M3103.8,907.154a3.753,3.753,0,0,0,4.336-.7,22.036,22.036,0,0,0,3.226-4.12l1.652.034a.973.973,0,0,0,.991-.93l.285-6.452c3.8-6.2.808-9.518.808-9.518-.281-3.179-8.307-5.074-12.8,1.052-3.049,4.155-7.436,0-7.436,0s-2.3-6.193-4.983-2.384,2.64,10.508,2.64,10.508l-3.98,16.956a12.123,12.123,0,0,1-7.466,8.552l-3.823,1.465s5.971,19.563,22.885,19.2c12.908-.276,7.343-17.721,7.343-17.721l-1.7-.748a10.138,10.138,0,0,1-5.8-11.515l1.138-5.022Z" fill="#fff"/>
            <path id="Trazado_624712" data-name="Trazado 624712" d="M3102.479,907.483a.41.41,0,0,1-.179-.041c-4.929-2.4-5.4-8.2-5.419-8.449a.41.41,0,0,1,.817-.059c0,.056.462,5.585,4.961,7.772a.409.409,0,0,1-.18.777Z"/>
          </g>
        </g>
        <g id="Grupo_897667" data-name="Grupo 897667">
          <path id="Trazado_624713" data-name="Trazado 624713" d="M3157.781,859.649h-14.9l1.438-14.222h14.9Z" fill="#ef3c79"/>
          <path id="Trazado_624714" data-name="Trazado 624714" d="M3159.346,859.649l1.438-14.222,3.428,7.111Z" fill="#ef3c79"/>
        </g>
        <g id="Grupo_897668" data-name="Grupo 897668">
          <path id="Trazado_624715" data-name="Trazado 624715" d="M3145.77,909.346h14.9l-1.438,14.222h-14.9Z" fill="#ef3c79"/>
          <path id="Trazado_624716" data-name="Trazado 624716" d="M3144.205,909.346l-1.438,14.222-3.428-7.111Z" fill="#ef3c79"/>
        </g>
        <g id="Grupo_897671" data-name="Grupo 897671">
          <path id="Trazado_624717" data-name="Trazado 624717" d="M3122.577,808.983h-62.025a4.136,4.136,0,1,0,0,8.271h62.025a4.136,4.136,0,1,0,0-8.271Z" fill="#0b5999"/>
          <g id="Grupo_897670" data-name="Grupo 897670">
            <g id="Grupo_897669" data-name="Grupo 897669">
              <path id="Trazado_624718" data-name="Trazado 624718" d="M3081.533,795.812h-34.257a3.84,3.84,0,1,0,0,7.679h34.257a3.84,3.84,0,1,0,0-7.679Z" fill="#0b5999"/>
            </g>
            <circle id="Elipse_6290" data-name="Elipse 6290" cx="3.84" cy="3.84" r="3.84" transform="matrix(0.23, -0.973, 0.973, 0.23, 3088.677, 802.506)" fill="#0b5999"/>
          </g>
        </g>
        <g id="Grupo_897673" data-name="Grupo 897673">
          <path id="Trazado_624719" data-name="Trazado 624719" d="M3189.272,1013.133a.409.409,0,0,1-.027-.818,73.5,73.5,0,0,0,66.043-54.064.409.409,0,1,1,.79.214,74.314,74.314,0,0,1-66.779,54.667Z"/>
          <path id="Trazado_624720" data-name="Trazado 624720" d="M3213.333,1012.226a.41.41,0,0,1-.152-.79,78.451,78.451,0,0,0,30.516-21.9.409.409,0,0,1,.623.531,79.282,79.282,0,0,1-30.835,22.135A.432.432,0,0,1,3213.333,1012.226Z"/>
          <path id="Trazado_624721" data-name="Trazado 624721" d="M3222.926,808.291a3.01,3.01,0,1,1,0-6.02.41.41,0,1,1,0,.819,2.192,2.192,0,1,0,2.2,2.191.409.409,0,0,1,.819,0A3.015,3.015,0,0,1,3222.926,808.291Z"/>
          <g id="Grupo_897672" data-name="Grupo 897672">
            <path id="Trazado_624722" data-name="Trazado 624722" d="M3246.117,960.454a.406.406,0,0,1-.283-.113.41.41,0,0,1-.013-.579l1.289-1.347a.409.409,0,1,1,.591.566l-1.288,1.347A.409.409,0,0,1,3246.117,960.454Z"/>
            <path id="Trazado_624723" data-name="Trazado 624723" d="M3241.607,965.168a.41.41,0,0,1-.3-.693l1.289-1.347a.41.41,0,0,1,.592.567l-1.289,1.347A.411.411,0,0,1,3241.607,965.168Z"/>
            <path id="Trazado_624724" data-name="Trazado 624724" d="M3242.871,960.526a.411.411,0,0,1-.287-.117l-1.308-1.29a.409.409,0,0,1,.575-.583l1.308,1.289a.41.41,0,0,1,0,.579A.406.406,0,0,1,3242.871,960.526Z"/>
            <path id="Trazado_624725" data-name="Trazado 624725" d="M3247.449,965.038a.407.407,0,0,1-.287-.118l-1.308-1.289a.409.409,0,0,1,.575-.583l1.308,1.289a.41.41,0,0,1-.288.7Z"/>
          </g>
          <path id="Trazado_624726" data-name="Trazado 624726" d="M3181.32,1016.025a2.848,2.848,0,0,1-1.041-.2,2.913,2.913,0,0,1-1.631-1.581,3,3,0,0,1,1.493-3.912h0a2.855,2.855,0,0,1,2.218-.057,2.917,2.917,0,0,1,1.63,1.581,3,3,0,0,1-1.492,3.912A2.874,2.874,0,0,1,3181.32,1016.025Zm-.843-4.943a2.175,2.175,0,0,0-1.077,2.841,2.106,2.106,0,0,0,1.176,1.142,2.038,2.038,0,0,0,1.585-.041,2.176,2.176,0,0,0,1.076-2.841,2.107,2.107,0,0,0-1.175-1.142,2.037,2.037,0,0,0-1.585.041Z"/>
          <path id="Trazado_624727" data-name="Trazado 624727" d="M3251.174,817.664a.408.408,0,0,1-.374-.243,37.232,37.232,0,0,0-16.071-17.149,39.734,39.734,0,0,0-10.24-4.059.41.41,0,0,1,.162-.8,39.819,39.819,0,0,1,10.451,4.132,38.052,38.052,0,0,1,16.445,17.545.41.41,0,0,1-.373.577Z"/>
        </g>
        <g id="Grupo_897675" data-name="Grupo 897675">
          <g id="Grupo_897674" data-name="Grupo 897674">
            <circle id="Elipse_6291" data-name="Elipse 6291" cx="10.292" cy="10.292" r="10.292" transform="translate(3040.948 805.478)" fill="#fff"/>
            <path id="Trazado_624728" data-name="Trazado 624728" d="M3051.24,826.472a10.7,10.7,0,1,1,10.7-10.7A10.714,10.714,0,0,1,3051.24,826.472Zm0-20.584a9.883,9.883,0,1,0,9.882,9.882A9.894,9.894,0,0,0,3051.24,805.888Z" fill="#ef3c79"/>
          </g>
          <path id="Trazado_624729" data-name="Trazado 624729" d="M3056.152,819.205a1.987,1.987,0,0,1-.59-.83,9.494,9.494,0,0,1-.573-3.76V814.6a3.625,3.625,0,0,0-2.082-3.317l.013-.863a1.424,1.424,0,0,0-1.4-1.444h-.117a1.42,1.42,0,0,0-1.44,1.4l-.013.863a3.618,3.618,0,0,0-2.18,3.264,9.485,9.485,0,0,1-.683,3.741,1.989,1.989,0,0,1-.614.811.363.363,0,0,0-.206.41.38.38,0,0,0,.37.3l2.74.043a1.924,1.924,0,0,0,3.848.06l2.739.043a.38.38,0,0,0,.379-.287A.363.363,0,0,0,3056.152,819.205Zm-5.44-8.819a.674.674,0,0,1,.682-.662l.117,0a.674.674,0,0,1,.662.683l-.01.621a3.646,3.646,0,0,0-.729-.086,3.6,3.6,0,0,0-.731.063l.009-.621Zm.574,10.6a1.181,1.181,0,0,1-1.16-1.169l2.353.036A1.178,1.178,0,0,1,3051.286,820.986Z" fill="#0b5999"/>
        </g>
      </g>
    </g>
  </g>
</svg>
